<?xml version="1.0" encoding="UTF-8" standalone="no"?>
<!-- Created with Inkscape (http://www.inkscape.org/) -->

<svg
   width="13.540114mm"
   height="15.812223mm"
   viewBox="0 0 13.540114 15.812223"
   version="1.1"
   id="svg1"
   inkscape:version="1.3 (0e150ed6c4, 2023-07-21)"
   sodipodi:docname="house3.svg"
   xmlns:inkscape="http://www.inkscape.org/namespaces/inkscape"
   xmlns:sodipodi="http://sodipodi.sourceforge.net/DTD/sodipodi-0.dtd"
   xmlns="http://www.w3.org/2000/svg"
   xmlns:svg="http://www.w3.org/2000/svg">
  <sodipodi:namedview
     id="namedview1"
     pagecolor="#ffffff"
     bordercolor="#666666"
     borderopacity="1.0"
     inkscape:showpageshadow="2"
     inkscape:pageopacity="0.0"
     inkscape:pagecheckerboard="0"
     inkscape:deskcolor="#d1d1d1"
     inkscape:document-units="mm"
     inkscape:zoom="0.84096522"
     inkscape:cx="116.53276"
     inkscape:cy="-79.670358"
     inkscape:window-width="1984"
     inkscape:window-height="1481"
     inkscape:window-x="394"
     inkscape:window-y="0"
     inkscape:window-maximized="0"
     inkscape:current-layer="g4" />
  <defs
     id="defs1">
    <linearGradient
       id="swatch1"
       inkscape:swatch="solid">
      <stop
         style="stop-color:#ffff00;stop-opacity:1;"
         offset="0"
         id="stop1" />
    </linearGradient>
  </defs>
  <g
     inkscape:label="Layer 1"
     inkscape:groupmode="layer"
     id="layer1"
     transform="translate(-84.226167,-159.6944)">
    <g
       id="g4">
      <g
         id="g3-1-2"
         transform="translate(2.1166688,42.00314)">
        <path
           id="rect3-2-2"
           style="fill:#008000;stroke:#008000;stroke-width:3.48166;paint-order:markers fill stroke"
           d="m 85.481522,125.85645 h 6.79607 v 5.9062 h -6.79607 z" />
        <path
           id="path3-8-9"
           style="fill:#008000;stroke:#008000;stroke-width:4.71601;paint-order:markers fill stroke"
           inkscape:transform-center-y="-0.56178902"
           transform="matrix(0.96456723,0,0,0.66315933,11.950374,47.012936)"
           d="M 82.689694,116.37702 H 76.82056 l 2.934567,-5.08282 z" />
        <path
           style="font-weight:bold;font-size:8.81944px;font-family:Sans;-inkscape-font-specification:'Sans, Bold';text-align:center;text-anchor:middle;fill:#ffffff;stroke-width:0.264583"
           d="m 90.946619,127.83992 q 0.211012,0.18087 0.335896,0.42202 0.124885,0.24116 0.124885,0.64165 0,0.45217 -0.180868,0.84405 -0.176561,0.39188 -0.546908,0.67179 -0.361735,0.2713 -0.852661,0.41772 -0.486619,0.14211 -1.184251,0.14211 -0.796678,0 -1.369425,-0.12488 -0.56844,-0.12489 -0.925868,-0.27992 v -1.40818 h 0.167948 q 0.370347,0.22393 0.882805,0.38757 0.516764,0.16365 0.943094,0.16365 0.24977,0 0.542603,-0.0388 0.292833,-0.0431 0.495232,-0.18087 0.159336,-0.10766 0.254076,-0.25838 0.09474,-0.15503 0.09474,-0.44356 0,-0.27991 -0.129191,-0.43063 -0.129191,-0.15503 -0.340203,-0.21963 -0.211012,-0.0689 -0.508152,-0.0732 -0.297139,-0.009 -0.551215,-0.009 h -0.353122 v -1.14549 h 0.366041 q 0.335897,0 0.594279,-0.0215 0.258382,-0.0215 0.43925,-0.099 0.18948,-0.0818 0.28422,-0.21532 0.09474,-0.1378 0.09474,-0.40049 0,-0.19379 -0.09905,-0.31006 -0.09905,-0.12058 -0.249769,-0.18948 -0.167948,-0.0775 -0.396186,-0.10335 -0.228237,-0.0258 -0.391879,-0.0258 -0.404799,0 -0.878499,0.14211 -0.4737,0.1378 -0.917256,0.40049 h -0.159336 v -1.39096 q 0.353122,-0.14211 0.96032,-0.2713 0.607198,-0.13349 1.231621,-0.13349 0.607198,0 1.063673,0.10766 0.456475,0.10335 0.753614,0.27991 0.353122,0.21101 0.525377,0.51246 0.172255,0.30144 0.172255,0.70624 0,0.53399 -0.331591,0.95601 -0.33159,0.41772 -0.874192,0.53399 v 0.0603 q 0.219624,0.0302 0.465087,0.12058 0.245463,0.0904 0.447863,0.26269 z"
           id="text3-9-5"
           aria-label="3" />
      </g>
    </g>
  </g>
</svg>
