<?xml version="1.0" encoding="UTF-8" standalone="no"?>
<!-- Created with Inkscape (http://www.inkscape.org/) -->

<svg
   width="13.540114mm"
   height="15.812223mm"
   viewBox="0 0 13.540114 15.812223"
   version="1.1"
   id="svg1"
   inkscape:version="1.3 (0e150ed6c4, 2023-07-21)"
   sodipodi:docname="house1 - Copy.svg"
   xmlns:inkscape="http://www.inkscape.org/namespaces/inkscape"
   xmlns:sodipodi="http://sodipodi.sourceforge.net/DTD/sodipodi-0.dtd"
   xmlns="http://www.w3.org/2000/svg"
   xmlns:svg="http://www.w3.org/2000/svg">
  <sodipodi:namedview
     id="namedview1"
     pagecolor="#ffffff"
     bordercolor="#666666"
     borderopacity="1.0"
     inkscape:showpageshadow="2"
     inkscape:pageopacity="0.0"
     inkscape:pagecheckerboard="0"
     inkscape:deskcolor="#d1d1d1"
     inkscape:document-units="mm"
     inkscape:zoom="6.7277217"
     inkscape:cx="25.417223"
     inkscape:cy="37.011043"
     inkscape:window-width="1984"
     inkscape:window-height="1481"
     inkscape:window-x="343"
     inkscape:window-y="25"
     inkscape:window-maximized="0"
     inkscape:current-layer="g3" />
  <defs
     id="defs1">
    <linearGradient
       id="swatch1"
       inkscape:swatch="solid">
      <stop
         style="stop-color:#ffff00;stop-opacity:1;"
         offset="0"
         id="stop1" />
    </linearGradient>
  </defs>
  <g
     inkscape:label="Layer 1"
     inkscape:groupmode="layer"
     id="layer1"
     transform="translate(-84.226166,-116.5757)">
    <g
       id="g4">
      <g
         id="g3"
         transform="translate(2.1166678,-1.1155563)">
        <path
           id="rect3"
           style="fill:#008000;stroke:#008000;stroke-width:3.48166;paint-order:markers fill stroke"
           d="m 85.481522,125.85645 h 6.79607 v 5.9062 h -6.79607 z" />
        <path
           id="path3"
           style="fill:#008000;stroke:#008000;stroke-width:4.71601;paint-order:markers fill stroke"
           inkscape:transform-center-y="-0.56178902"
           transform="matrix(0.96456723,0,0,0.66315933,11.950374,47.012936)"
           d="M 82.689694,116.37702 H 76.82056 l 2.934567,-5.08282 z" />
        <path
           style="font-weight:bold;font-size:8.75279px;font-family:Sans;-inkscape-font-specification:'Sans, Bold';fill:#ffffff;stroke-width:0.21882"
           d="m 93.779625,126.51125 q 0,0.80348 -0.14531,1.44028 -0.14531,0.63253 -0.453025,1.03854 -0.316263,0.41456 -0.812027,0.62825 -0.495763,0.20942 -1.222313,0.20942 -0.713729,0 -1.21804,-0.21369 -0.504311,-0.21369 -0.8163,-0.63253 -0.316263,-0.41883 -0.457299,-1.03854 -0.141036,-0.62397 -0.141036,-1.42745 0,-0.82912 0.14531,-1.44028 0.14531,-0.61116 0.461573,-1.03427 0.316262,-0.41883 0.820574,-0.62825 0.504311,-0.20942 1.205218,-0.20942 0.730824,0 1.226587,0.21797 0.495764,0.21369 0.812027,0.64107 0.311989,0.41884 0.453025,1.03427 0.141036,0.61115 0.141036,1.41463 z m -1.65397,0 q 0,-1.15393 -0.226512,-1.64115 -0.226513,-0.49148 -0.752193,-0.49148 -0.52568,0 -0.752193,0.49148 -0.226513,0.48722 -0.226513,1.6497 0,1.13256 0.230787,1.6326 0.230786,0.50004 0.747919,0.50004 0.517133,0 0.747919,-0.50004 0.230786,-0.50004 0.230786,-1.64115 z"
           id="text1"
           aria-label="0"
           transform="translate(-2.116669,1.1155565)" />
      </g>
    </g>
  </g>
</svg>
