<?xml version="1.0" encoding="UTF-8" standalone="no"?>
<!-- Created with Inkscape (http://www.inkscape.org/) -->

<svg
   width="54.417mm"
   height="76.616997mm"
   viewBox="0 0 54.417 76.616997"
   version="1.1"
   id="svg1"
   inkscape:version="1.3 (0e150ed6c4, 2023-07-21)"
   sodipodi:docname="chance.svg"
   xml:space="preserve"
   xmlns:inkscape="http://www.inkscape.org/namespaces/inkscape"
   xmlns:sodipodi="http://sodipodi.sourceforge.net/DTD/sodipodi-0.dtd"
   xmlns="http://www.w3.org/2000/svg"
   xmlns:svg="http://www.w3.org/2000/svg"><sodipodi:namedview
     id="namedview1"
     pagecolor="#ffffff"
     bordercolor="#666666"
     borderopacity="1.0"
     inkscape:showpageshadow="2"
     inkscape:pageopacity="0.0"
     inkscape:pagecheckerboard="0"
     inkscape:deskcolor="#d1d1d1"
     inkscape:document-units="mm"
     inkscape:zoom="1.6819304"
     inkscape:cx="49.645336"
     inkscape:cy="98.993395"
     inkscape:window-width="1948"
     inkscape:window-height="1070"
     inkscape:window-x="317"
     inkscape:window-y="246"
     inkscape:window-maximized="0"
     inkscape:current-layer="layer1" /><defs
     id="defs1"><linearGradient
       id="swatch2"
       inkscape:swatch="solid"><stop
         style="stop-color:#000000;stop-opacity:1;"
         offset="0"
         id="stop2" /></linearGradient></defs><g
     inkscape:label="Layer 1"
     inkscape:groupmode="layer"
     id="layer1"
     transform="matrix(0,1.2112922,-1.2112922,0,54.92251,-6.4566465)"><g
       id="g2"
       transform="matrix(0.46960164,0.46960164,-0.46960164,0.46960164,25.59535,1.5909268)"><path
         style="font-weight:500;font-size:86.9274px;font-family:isaiahFont;-inkscape-font-specification:'isaiahFont, Medium';text-align:center;text-anchor:middle;fill:#d40000;stroke:#000000;stroke-width:1.2431"
         d="m -34.011631,-3.665282 c 2.173185,-0.7823466 4.34637,-1.1300562 6.3457,-1.1300562 0,0 0,0 0,0 3.650951,0 6.867265,1.3908384 9.562014,4.08558777 0,0 0,0 0,0 2.955532,2.86860413 4.433298,6.08491793 4.433298,9.73586863 0,0 0,0 0,0 0,3.1293868 -1.130057,6.1718458 -3.390169,9.1273768 0,0 0,0 0,0 -1.477766,1.99933 -2.955532,3.390169 -4.520225,4.172515 -1.564693,0.869274 -3.564023,1.390839 -5.911063,1.477766 0,0 0,0 0,0 0,0 -3.564023,0.260782 -3.564023,0.260782 0,0 0,4.172515 0,4.172515 0,1.912403 -0.08693,3.129387 -0.173855,3.737878 -0.08693,0.608492 -0.434637,1.130057 -0.956201,1.564694 0,0 0,0 0,0 -0.782347,0.782346 -1.651621,1.216983 -2.607822,1.216983 -0.956202,0 -1.738548,-0.347709 -2.520895,-1.130056 0,0 0,0 0,0 -0.434637,-0.521564 -0.782346,-1.216984 -0.869274,-2.086258 -0.173855,-0.782346 -0.347709,-2.868604 -0.608492,-6.171845 0,0 0,0 0,0 -0.173854,-2.173185 -0.260782,-3.911733 -0.260782,-5.128716 0,0 0,0 0,0 0,-1.651621 0.173855,-2.781677 0.521565,-3.477096 0.347709,-0.608492 0.956201,-1.216984 1.912402,-1.651621 0,0 0,0 0,0 0.782347,-0.347709 1.303911,-0.521564 1.651621,-0.521564 0,0 0,0 0,0 0.434637,0 1.043129,0.260782 1.912403,0.695419 0,0 0,0 0,0 1.390838,0.695419 2.868604,1.043129 4.520224,1.043129 0,0 0,0 0,0 1.477766,0 2.781677,-0.34771 3.737879,-1.043129 0,0 0,0 0,0 0.956201,-0.608492 1.825475,-1.564693 2.520894,-2.781677 0.608492,-1.216983 0.956202,-2.34704 0.956202,-3.4770958 0,0 0,0 0,0 0,0 0,-0.434637 0,-0.434637 -0.08693,-1.0431288 -0.608492,-2.1731849 -1.390839,-3.3032411 -0.869274,-1.1300562 -1.825475,-1.9124028 -2.781677,-2.3470398 0,0 0,0 0,0 -0.608491,-0.2607822 -1.216983,-0.434637 -1.825475,-0.434637 0,0 0,0 0,0 -0.695419,0 -1.564693,0.086927 -2.520895,0.3477096 0,0 0,0 0,0 -3.564023,0.6954192 -6.693409,1.9993302 -9.388159,3.8248056 0,0 0,0 0,0 -1.825475,1.3039109 -3.303241,3.3032411 -4.34637,6.0849175 0,0 0,0 0,0 -0.782346,2.086258 -1.912402,3.129387 -3.564023,3.129387 0,0 0,0 0,0 -2.173185,0 -3.303241,-1.043129 -3.303241,-3.216314 0,0 0,0 0,0 0,-1.303911 0.521564,-2.8686042 1.477766,-4.8679344 0,0 0,0 0,0 2.694749,-5.3025713 7.649611,-9.1273768 14.951512,-11.4744166 z m -0.08693,44.76761 c 0.695419,-0.434637 1.477766,-0.608491 2.34704,-0.608491 0,0 0,0 0,0 0.782346,0 1.477765,0.173854 2.086257,0.521564 0,0 0,0 0,0 1.303911,0.695419 1.912403,1.99933 1.912403,3.911733 0,0 0,0 0,0 0,0.347709 -0.08693,0.782346 -0.173855,1.216983 0,0 0,0 0,0 -0.347709,0.956202 -1.043129,1.825476 -1.99933,2.433968 -0.956201,0.608491 -1.99933,0.956201 -3.129386,0.956201 0,0 0,0 0,0 -1.216984,0 -2.173185,-0.434637 -2.868604,-1.216984 0,0 0,0 0,0 -0.608492,-0.782346 -0.869274,-1.65162 -0.869274,-2.607822 0,0 0,0 0,0 0,-2.173184 0.869274,-3.65095 2.694749,-4.607152 z"
         id="text1-1"
         transform="rotate(-135)"
         aria-label="?" /><path
         style="font-weight:500;font-size:11.1069px;font-family:isaiahFont;-inkscape-font-specification:'isaiahFont, Medium';text-align:center;text-anchor:middle;stroke-width:0.147855"
         d="m -44.80093,-23.106314 c 0.199924,-0.07775 0.433169,-0.111069 0.699735,-0.111069 0,0 0,0 0,0 0,0 0.17771,0 0.17771,0 0.366528,0.01111 0.666414,0.07775 0.899659,0.199924 0,0 0,0 0,0 0.522024,0.255459 0.78859,0.544239 0.78859,0.844125 0,0 0,0 0,0 0,0.09996 -0.03332,0.17771 -0.111069,0.255459 -0.07775,0.07775 -0.166603,0.111069 -0.277672,0.111069 0,0 0,0 0,0 -0.166604,0 -0.333207,-0.07775 -0.499811,-0.222138 0,0 0,0 0,0 -0.233245,-0.211032 -0.510917,-0.310994 -0.833017,-0.310994 0,0 0,0 0,0 -0.322101,0 -0.644201,0.111069 -0.955194,0.344314 -0.310993,0.233245 -0.566452,0.544238 -0.755269,0.955194 0,0 0,0 0,0 -0.188817,0.377634 -0.28878,0.866338 -0.28878,1.477217 0,0 0,0 0,0 0,0.355421 0.03332,0.644201 0.08886,0.866339 0.05553,0.222138 0.166603,0.522024 0.344314,0.888552 0,0 0,0 0,0 0.188817,0.388741 0.344314,0.633093 0.455383,0.733055 0.09996,0.09996 0.277672,0.14439 0.510917,0.14439 0,0 0,0 0,0 0.211031,0 0.399848,-0.04443 0.588666,-0.133283 0.188817,-0.07775 0.477596,-0.255459 0.877445,-0.522024 0,0 0,0 0,0 0.3221,-0.222138 0.555345,-0.333207 0.721948,-0.333207 0,0 0,0 0,0 0.122176,0 0.222138,0.05553 0.299887,0.155496 0,0 0,0 0,0 0.07775,0.09996 0.122175,0.199924 0.122175,0.28878 0,0 0,0 0,0 0,0.188817 -0.266565,0.455383 -0.799696,0.810803 0,0 0,0 0,0 -0.433169,0.28878 -0.744163,0.477597 -0.955194,0.566452 -0.211031,0.08886 -0.455383,0.133283 -0.721948,0.133283 0,0 0,0 0,0 -0.02221,0 -0.05553,0 -0.09996,-0.01111 -0.04443,0 -0.07775,0 -0.111069,0 0,0 0,0 0,0 -0.410956,-0.01111 -0.721949,-0.08886 -0.910766,-0.222138 -0.199924,-0.122176 -0.422062,-0.399848 -0.666414,-0.82191 0,0 0,0 0,0 -0.255459,-0.444276 -0.444276,-0.855232 -0.544238,-1.232866 -0.111069,-0.366528 -0.166604,-0.78859 -0.166604,-1.25508 0,0 0,0 0,0 0,-0.166604 0,-0.288779 0.01111,-0.377635 0,0 0,0 0,0 0.02221,-0.477596 0.07775,-0.833017 0.166604,-1.088476 0,0 0,0 0,0 0.17771,-0.510917 0.444276,-0.955193 0.788589,-1.332828 0.344314,-0.377635 0.721949,-0.6442 1.155118,-0.799697 z m 3.954053,0.299887 c 0.07775,-0.07775 0.17771,-0.122176 0.277672,-0.122176 0,0 0,0 0,0 0.111069,0 0.211031,0.04443 0.299886,0.122176 0,0 0,0 0,0 0,0 0.155497,0.133282 0.155497,0.133282 0,0 -0.01111,1.588287 -0.01111,1.588287 0,0 0,0.666414 0,0.666414 0,0.621987 0.02221,0.93298 0.02221,0.93298 0,0 0.14439,-0.09996 0.377634,-0.28878 0,0 0,0 0,0 0.244352,-0.199924 0.444276,-0.333207 0.61088,-0.410955 0.155497,-0.07775 0.3221,-0.111069 0.510917,-0.111069 0,0 0,0 0,0 0.533132,0 0.93298,0.377635 1.210653,1.144011 0,0 0,0 0,0 0.08886,0.255458 0.133282,0.599772 0.133282,1.010728 0,0 0,0 0,0 0,0.222138 -0.02221,0.522024 -0.05553,0.910765 0,0 0,0 0,0 -0.03332,0.277673 -0.06664,0.46649 -0.111069,0.566452 -0.05553,0.09996 -0.133283,0.177711 -0.255459,0.233245 0,0 0,0 0,0 -0.07775,0.03332 -0.122176,0.04443 -0.155496,0.04443 0,0 0,0 0,0 -0.04443,0 -0.111069,-0.02221 -0.199925,-0.06664 0,0 0,0 0,0 -0.166603,-0.07775 -0.255458,-0.244351 -0.255458,-0.49981 0,0 0,0 0,0 0,-0.133283 0.01111,-0.299886 0.03332,-0.510917 0,0 0,0 0,0 0.02221,-0.28878 0.03332,-0.522025 0.03332,-0.710842 0,0 0,0 0,0 0,-0.344314 -0.05553,-0.621986 -0.155497,-0.833018 0,0 0,0 0,0 -0.08886,-0.199924 -0.17771,-0.299886 -0.266565,-0.299886 0,0 0,0 0,0 -0.06664,0 -0.177711,0.05553 -0.333207,0.166604 0,0 0,0 0,0 -0.477597,0.344314 -0.855232,1.132903 -1.132904,2.343556 0,0 0,0 0,0 -0.05553,0.222138 -0.09996,0.377634 -0.14439,0.455382 -0.05553,0.08886 -0.133283,0.155497 -0.233245,0.199925 0,0 0,0 0,0 -0.05553,0.02221 -0.111069,0.03332 -0.166603,0.03332 0,0 0,0 0,0 -0.122176,0 -0.233245,-0.04443 -0.3221,-0.144389 -0.08886,-0.09996 -0.133283,-0.211031 -0.133283,-0.355421 0,0 0,0 0,0 0,0 0,-0.199924 0,-0.199924 0,-0.544238 0.01111,-1.510539 0.03332,-2.921115 0.02221,-1.399469 0.04443,-2.199166 0.05553,-2.399091 0,0 0,0 0,0 0.02221,-0.35542 0.07775,-0.577558 0.177711,-0.67752 z m 6.308714,3.765239 c 0,-0.188818 -0.02221,-0.277673 -0.05554,-0.277673 0,0 0,0 0,0 -0.05553,0 -0.14439,0.09996 -0.288779,0.28878 -0.14439,0.199924 -0.255459,0.399848 -0.344314,0.588665 0,0 0,0 0,0 -0.122176,0.244352 -0.188818,0.488704 -0.211031,0.721949 0,0 0,0 0,0 -0.01111,0.05553 -0.01111,0.133283 -0.01111,0.222138 0,0 0,0 0,0 0,0.09996 0.03332,0.17771 0.09996,0.244352 0,0 0,0 0,0 0.07775,0.07775 0.14439,0.122176 0.199924,0.122176 0,0 0,0 0,0 0.07775,0 0.17771,-0.04443 0.299886,-0.14439 0.122176,-0.09996 0.211031,-0.199924 0.28878,-0.310993 0,0 0,0 0,0 0.08886,-0.133283 0.133283,-0.244352 0.133283,-0.333207 0,0 0,0 0,0 0,-0.02221 -0.01111,-0.14439 -0.04443,-0.366528 0,0 0,0 0,0 -0.04443,-0.344314 -0.06664,-0.588666 -0.06664,-0.755269 z m 0.05553,-1.388363 c 0.07775,-0.03332 0.211031,-0.05553 0.377635,-0.08885 0,0 0,0 0,0 0.111069,0 0.222138,0.02221 0.344314,0.06664 0.111069,0.05554 0.17771,0.111069 0.211031,0.177711 0,0 0,0 0,0 0.06664,0.122176 0.122176,0.344314 0.166603,0.677521 0.04443,0.333207 0.06664,0.655307 0.06664,0.9663 0,0 0,0 0,0 0,0.122176 -0.01111,0.266566 -0.02221,0.433169 0,0 0,0 0,0 -0.02221,0.122176 -0.03332,0.211031 -0.03332,0.28878 0,0 0,0 0,0 0,0.07775 0.04443,0.222138 0.122176,0.422062 0,0 0,0 0,0 0.155497,0.3221 0.399848,0.477596 0.744162,0.477596 0,0 0,0 0,0 0.133283,0 0.244352,0.03332 0.344314,0.111069 0,0 0,0 0,0 0.09996,0.08886 0.155497,0.199925 0.155497,0.333207 0,0 0,0 0,0 0,0.166604 -0.06664,0.28878 -0.188818,0.377635 0,0 0,0 0,0 -0.122175,0.07775 -0.266565,0.122176 -0.455382,0.122176 0,0 0,0 0,0 -0.455383,0 -0.821911,-0.155497 -1.121797,-0.46649 0,0 0,0 0,0 0,0 -0.188818,-0.199924 -0.188818,-0.199924 0,0 -0.299886,0.222138 -0.299886,0.222138 -0.3221,0.233245 -0.610879,0.355421 -0.866338,0.355421 -0.255459,0 -0.488704,-0.07775 -0.710842,-0.222138 -0.222138,-0.14439 -0.377634,-0.333207 -0.46649,-0.566452 0,0 0,0 0,0 -0.06664,-0.177711 -0.09996,-0.366528 -0.09996,-0.577559 0,0 0,0 0,0 0,-0.566452 0.188818,-1.144011 0.577559,-1.743783 0.388742,-0.599773 0.833018,-0.988514 1.343935,-1.166225 z m 3.487571,-0.08885 c 0.08885,-0.07775 0.17771,-0.122176 0.266565,-0.122176 0,0 0,0 0,0 0.09996,0 0.188818,0.04443 0.266566,0.122176 0,0 0,0 0,0 0.07775,0.05553 0.122176,0.133283 0.14439,0.211031 0.01111,0.07775 0.03332,0.277673 0.06664,0.599773 0,0 0,0 0,0 0.03332,0.477596 0.06664,0.721948 0.09996,0.721948 0,0 0,0 0,0 0,0 0.02221,-0.01111 0.02221,-0.01111 0,0 0,0 0,0 0.544238,-0.744162 1.010728,-1.188438 1.399469,-1.355041 0,0 0,0 0,0 0.133283,-0.05553 0.28878,-0.07775 0.477597,-0.07775 0,0 0,0 0,0 0.255459,0 0.46649,0.04443 0.633093,0.14439 0,0 0,0 0,0 0.299887,0.166603 0.533132,0.510917 0.710842,1.032942 0,0 0,0 0,0 0.07775,0.222138 0.122176,0.410955 0.133283,0.555345 0.01111,0.155496 0.02221,0.544238 0.03332,1.177331 0,0 0,0 0,0 0,0.61088 -0.01111,0.988514 -0.02221,1.11069 -0.01111,0.122176 -0.05554,0.222138 -0.122176,0.299886 0,0 0,0 0,0 -0.08886,0.09996 -0.199924,0.155497 -0.3221,0.155497 0,0 0,0 0,0 -0.133283,0 -0.244352,-0.05553 -0.333207,-0.155497 0,0 0,0 0,0 -0.06664,-0.06664 -0.09996,-0.155496 -0.111069,-0.277672 -0.01111,-0.122176 -0.03332,-0.477597 -0.04443,-1.077369 0,0 0,0 0,0 -0.01111,-0.566452 -0.03332,-0.921873 -0.04443,-1.088477 -0.01111,-0.166603 -0.05554,-0.333207 -0.122176,-0.49981 0,0 0,0 0,0 -0.06664,-0.177711 -0.111069,-0.28878 -0.14439,-0.3221 -0.03332,-0.03332 -0.111069,-0.05553 -0.211031,-0.06664 0,0 0,0 0,0 0,0 -0.07775,0 -0.07775,0 -0.09996,0 -0.266565,0.111069 -0.49981,0.344314 0,0 0,0 0,0 -0.255459,0.255459 -0.455383,0.510918 -0.61088,0.78859 0,0 0,0 0,0 -0.122175,0.211031 -0.266565,0.510918 -0.410955,0.888552 -0.14439,0.388742 -0.222138,0.633093 -0.222138,0.733056 0,0 0,0 0,0 0,0.08885 -0.03332,0.188817 -0.111069,0.288779 -0.07775,0.09996 -0.155496,0.17771 -0.244352,0.211031 0,0 0,0 0,0 -0.04443,0.02221 -0.09996,0.03332 -0.155496,0.03332 0,0 0,0 0,0 -0.188818,0 -0.3221,-0.06664 -0.399849,-0.199924 0,0 0,0 0,0 -0.02221,-0.04443 -0.05553,-0.46649 -0.09996,-1.277294 -0.04443,-0.810804 -0.07775,-1.543859 -0.08886,-2.22138 0,0 0,0 0,0 0,0 0,-0.266566 0,-0.266566 0,-0.122175 0.01111,-0.211031 0.02221,-0.255458 0.01111,-0.04443 0.05553,-0.08885 0.122176,-0.14439 z m 5.164701,3.254322 c -0.05553,-0.166604 -0.07775,-0.355421 -0.07775,-0.566452 0,0 0,0 0,0 0,-0.633093 0.233245,-1.221759 0.688628,-1.788211 0.455382,-0.555345 1.010727,-0.877445 1.666035,-0.9663 0,0 0,0 0,0 0,0 0.02221,0 0.02221,0 0.233245,0 0.422063,0.04443 0.566452,0.144389 0.14439,0.09996 0.222138,0.222138 0.222138,0.355421 0,0 0,0 0,0 0,0.09996 -0.04443,0.199924 -0.133282,0.28878 0,0 0,0 0,0 -0.07775,0.08885 -0.233245,0.133282 -0.46649,0.133282 0,0 0,0 0,0 -0.410956,0 -0.766376,0.166604 -1.07737,0.510918 -0.310993,0.344314 -0.477596,0.755269 -0.510917,1.232866 0,0 0,0 0,0 0,0.03332 0,0.06664 0,0.111069 -0.01111,0.05553 -0.01111,0.09996 -0.01111,0.09996 0,0 0,0 0,0 0,0.122176 0.04443,0.222138 0.133283,0.310993 0,0 0,0 0,0 0.211031,0.211031 0.588666,0.3221 1.11069,0.3221 0,0 0,0 0,0 0.444276,0 0.899659,-0.233245 1.366149,-0.699735 0,0 0,0 0,0 0.255458,-0.255458 0.455383,-0.388741 0.599772,-0.388741 0,0 0,0 0,0 0.07775,0 0.155497,0.03332 0.233245,0.08885 0,0 0,0 0,0 0.111069,0.07775 0.166604,0.188817 0.166604,0.3221 0,0 0,0 0,0 0,0.188817 -0.09996,0.399849 -0.28878,0.633093 -0.188817,0.233245 -0.455383,0.455383 -0.777483,0.644201 0,0 0,0 0,0 -0.422062,0.255458 -0.866338,0.377634 -1.343935,0.377634 0,0 0,0 0,0 -0.533131,0 -0.988514,-0.09996 -1.366148,-0.310993 -0.377635,-0.211031 -0.621987,-0.488704 -0.721949,-0.855231 z m 7.386093,-2.232487 c 0,-0.06664 -0.02221,-0.09996 -0.06664,-0.09996 0,0 0,0 0,0 -0.05553,0 -0.166603,0.05553 -0.3221,0.166603 -0.155496,0.111069 -0.233245,0.188818 -0.233245,0.233245 0,0 0,0 0,0 0,0.02221 0.02221,0.03332 0.07775,0.03332 0.05553,0 0.09996,0 0.133282,-0.01111 0,0 0,0 0,0 0.277673,-0.05553 0.410956,-0.155497 0.410956,-0.3221 z m -0.28878,-1.032942 c 0.14439,-0.05553 0.28878,-0.07775 0.422063,-0.07775 0,0 0,0 0,0 0.299886,0 0.522024,0.155496 0.67752,0.455383 0,0 0,0 0,0 0.07775,0.155496 0.122176,0.333207 0.122176,0.533131 0,0 0,0 0,0 0,0.277672 -0.07775,0.544238 -0.244351,0.777483 -0.166604,0.244352 -0.377635,0.410955 -0.633094,0.488704 0,0 0,0 0,0 -0.166603,0.05553 -0.388741,0.08885 -0.6442,0.111069 0,0 0,0 0,0 0,0 -0.444276,0.03332 -0.444276,0.03332 0,0 0,0.166604 0,0.166604 0,0.211031 0.07775,0.388741 0.233245,0.544238 0.155497,0.155496 0.344314,0.233245 0.555345,0.233245 0,0 0,0 0,0 0,0 0.08885,0 0.08885,0 0.155497,-0.01111 0.310993,-0.05553 0.477597,-0.122176 0,0 0,0 0,0 0.09996,-0.03332 0.17771,-0.05553 0.255459,-0.05553 0,0 0,0 0,0 0.133282,0 0.244351,0.04443 0.3221,0.122176 0.07775,0.08885 0.122176,0.199924 0.133282,0.344314 0,0 0,0 0,0 0,0.255459 -0.255458,0.477597 -0.777483,0.655307 0,0 0,0 0,0 -0.199924,0.05553 -0.366527,0.08886 -0.488703,0.08886 0,0 0,0 0,0 -0.188817,0 -0.422062,-0.06664 -0.710842,-0.199925 0,0 0,0 0,0 -0.410955,-0.188817 -0.710841,-0.46649 -0.888552,-0.833017 0,0 0,0 0,0 -0.133283,-0.277673 -0.199924,-0.577559 -0.199924,-0.877445 0,0 0,0 0,0 0,-0.522025 0.166603,-1.010728 0.488704,-1.466111 0.3221,-0.455383 0.744162,-0.755269 1.255079,-0.921873 z"
         id="text1-9"
         transform="rotate(-135)"
         aria-label="Chance" /></g></g><style
     type="text/css"
     id="style1"><![CDATA[
	.st0{fill-rule:evenodd;clip-rule:evenodd;}
]]></style><style
     type="text/css"
     id="style1-3">.st0{fill-rule:evenodd;clip-rule:evenodd;}</style></svg>
