<?xml version="1.0" encoding="UTF-8" standalone="no"?>
<!-- Created with Inkscape (http://www.inkscape.org/) -->

<svg
   width="54.417mm"
   height="76.616997mm"
   viewBox="0 0 54.417 76.616997"
   version="1.1"
   id="svg1"
   inkscape:version="1.3 (0e150ed6c4, 2023-07-21)"
   sodipodi:docname="chest.svg"
   xml:space="preserve"
   xmlns:inkscape="http://www.inkscape.org/namespaces/inkscape"
   xmlns:sodipodi="http://sodipodi.sourceforge.net/DTD/sodipodi-0.dtd"
   xmlns:xlink="http://www.w3.org/1999/xlink"
   xmlns="http://www.w3.org/2000/svg"
   xmlns:svg="http://www.w3.org/2000/svg"><sodipodi:namedview
     id="namedview1"
     pagecolor="#ffffff"
     bordercolor="#666666"
     borderopacity="1.0"
     inkscape:showpageshadow="2"
     inkscape:pageopacity="0.0"
     inkscape:pagecheckerboard="0"
     inkscape:deskcolor="#d1d1d1"
     inkscape:document-units="mm"
     inkscape:zoom="2.3786088"
     inkscape:cx="77.145935"
     inkscape:cy="139.78759"
     inkscape:window-width="1948"
     inkscape:window-height="1070"
     inkscape:window-x="77"
     inkscape:window-y="389"
     inkscape:window-maximized="0"
     inkscape:current-layer="g2" /><defs
     id="defs1"><linearGradient
       id="swatch24"
       inkscape:swatch="solid"><stop
         style="stop-color:#000000;stop-opacity:1;"
         offset="0"
         id="stop24" /></linearGradient><linearGradient
       id="swatch1"
       inkscape:swatch="solid"><stop
         style="stop-color:#000000;stop-opacity:1;"
         offset="0"
         id="stop1" /></linearGradient><linearGradient
       id="swatch2"
       inkscape:swatch="solid"><stop
         style="stop-color:#000000;stop-opacity:1;"
         offset="0"
         id="stop2" /></linearGradient><linearGradient
       inkscape:collect="always"
       xlink:href="#swatch24"
       id="linearGradient24"
       x1="14.25979"
       y1="5.5309561"
       x2="65.29681"
       y2="5.5309561"
       gradientUnits="userSpaceOnUse" /><linearGradient
       inkscape:collect="always"
       xlink:href="#swatch24"
       id="linearGradient25"
       gradientUnits="userSpaceOnUse"
       x1="14.25979"
       y1="5.5309561"
       x2="65.29681"
       y2="5.5309561"
       gradientTransform="matrix(2.3547063,1.3547063,1.3547063,2.3547063,-48.119928,-61.01068)" /></defs><g
     inkscape:label="Layer 1"
     inkscape:groupmode="layer"
     id="layer1"
     transform="matrix(0,1.2112922,-1.2112922,0,54.92251,-6.4566465)"><g
       id="g2"
       transform="matrix(0.46960164,0.46960164,-0.46960164,0.46960164,25.59535,1.5909268)"><path
         style="font-weight:500;font-size:11.1069px;font-family:isaiahFont;-inkscape-font-specification:'isaiahFont, Medium';text-align:center;text-anchor:middle;stroke-width:0.147855"
         d="m -54.858233,-23.106314 c 0.199925,-0.07775 0.43317,-0.111069 0.699735,-0.111069 0,0 0,0 0,0 0,0 0.177711,0 0.177711,0 0.366527,0.01111 0.666414,0.07775 0.899658,0.199924 0,0 0,0 0,0 0.522025,0.255459 0.78859,0.544239 0.78859,0.844125 0,0 0,0 0,0 0,0.09996 -0.03332,0.17771 -0.111069,0.255459 -0.07775,0.07775 -0.166603,0.111069 -0.277672,0.111069 0,0 0,0 0,0 -0.166604,0 -0.333207,-0.07775 -0.499811,-0.222138 0,0 0,0 0,0 -0.233245,-0.211032 -0.510917,-0.310994 -0.833017,-0.310994 0,0 0,0 0,0 -0.3221,0 -0.6442,0.111069 -0.955194,0.344314 -0.310993,0.233245 -0.566452,0.544238 -0.755269,0.955194 0,0 0,0 0,0 -0.188817,0.377634 -0.288779,0.866338 -0.288779,1.477217 0,0 0,0 0,0 0,0.355421 0.03332,0.644201 0.08886,0.866339 0.05553,0.222138 0.166603,0.522024 0.344314,0.888552 0,0 0,0 0,0 0.188817,0.388741 0.344314,0.633093 0.455383,0.733055 0.09996,0.09996 0.277672,0.14439 0.510917,0.14439 0,0 0,0 0,0 0.211031,0 0.399849,-0.04443 0.588666,-0.133283 0.188817,-0.07775 0.477597,-0.255459 0.877445,-0.522024 0,0 0,0 0,0 0.3221,-0.222138 0.555345,-0.333207 0.721949,-0.333207 0,0 0,0 0,0 0.122175,0 0.222138,0.05553 0.299886,0.155496 0,0 0,0 0,0 0.07775,0.09996 0.122176,0.199924 0.122176,0.28878 0,0 0,0 0,0 0,0.188817 -0.266566,0.455383 -0.799697,0.810803 0,0 0,0 0,0 -0.433169,0.28878 -0.744162,0.477597 -0.955193,0.566452 -0.211032,0.08886 -0.455383,0.133283 -0.721949,0.133283 0,0 0,0 0,0 -0.02221,0 -0.05553,0 -0.09996,-0.01111 -0.04443,0 -0.07775,0 -0.111069,0 0,0 0,0 0,0 -0.410955,-0.01111 -0.721949,-0.08886 -0.910766,-0.222138 -0.199924,-0.122176 -0.422062,-0.399848 -0.666414,-0.82191 0,0 0,0 0,0 -0.255459,-0.444276 -0.444276,-0.855232 -0.544238,-1.232866 -0.111069,-0.366528 -0.166604,-0.78859 -0.166604,-1.25508 0,0 0,0 0,0 0,-0.166604 0,-0.288779 0.01111,-0.377635 0,0 0,0 0,0 0.02221,-0.477596 0.07775,-0.833017 0.166604,-1.088476 0,0 0,0 0,0 0.17771,-0.510917 0.444276,-0.955193 0.78859,-1.332828 0.344314,-0.377635 0.721948,-0.6442 1.155117,-0.799697 z m 6.819633,3.62085 c -0.288779,-0.08885 -0.455383,-0.133283 -0.488704,-0.133283 0,0 0,0 0,0 0,0 -0.02221,0 -0.05553,0 -0.03332,0.01111 -0.06664,0.01111 -0.122176,0.02221 -0.05553,0.01111 -0.111069,0.01111 -0.14439,0.02221 0,0 0,0 0,0 -0.166603,0.02221 -0.299886,0.06664 -0.410955,0.122175 -0.111069,0.06664 -0.244352,0.188818 -0.410955,0.355421 0,0 0,0 0,0 -0.344314,0.366528 -0.510918,0.766376 -0.510918,1.199545 0,0 0,0 0,0 0,0.355421 0.122176,0.633094 0.355421,0.821911 0,0 0,0 0,0 0.111069,0.08885 0.233245,0.133283 0.355421,0.133283 0,0 0,0 0,0 0.08886,0 0.166603,0 0.222138,-0.01111 0,0 0,0 0,0 0.3221,-0.02221 0.677521,-0.14439 1.055156,-0.366528 0.366527,-0.222138 0.6442,-0.46649 0.810803,-0.733055 0,0 0,0 0,0 0.14439,-0.233245 0.211031,-0.444276 0.211031,-0.61088 0,0 0,0 0,0 0,-0.366527 -0.288779,-0.6442 -0.866338,-0.82191 z m -1.343935,-0.899659 c 0.3221,-0.166604 0.533131,-0.244352 0.655307,-0.244352 0,0 0,0 0,0 0.05553,0 0.08885,0 0.122176,0.01111 0,0 0,0 0,0 0.211031,0.03332 0.477597,0.09996 0.821911,0.199924 0.333207,0.09996 0.555345,0.188817 0.677521,0.266566 0,0 0,0 0,0 0.455383,0.255458 0.744162,0.677521 0.877445,1.266186 0,0 0,0 0,0 0.01111,0.05553 0.02221,0.133283 0.02221,0.255459 0,0 0,0 0,0 0,0.533131 -0.222138,1.032942 -0.677521,1.510538 0,0 0,0 0,0 -0.211031,0.233245 -0.499811,0.455383 -0.866338,0.666414 -0.366528,0.211032 -0.721949,0.355421 -1.055156,0.43317 0,0 0,0 0,0 -0.166604,0.03332 -0.344314,0.05553 -0.510917,0.05553 0,0 0,0 0,0 -0.366528,0 -0.655308,-0.05553 -0.844125,-0.155496 0,0 0,0 0,0 -0.277672,-0.14439 -0.510917,-0.388742 -0.699735,-0.744163 -0.188817,-0.355421 -0.277672,-0.721948 -0.277672,-1.088476 0,0 0,0 0,0 0,-0.06664 0.01111,-0.166604 0.02221,-0.299886 0,0 0,0 0,0 0.07775,-0.433169 0.277672,-0.844125 0.577559,-1.221759 0.299886,-0.377635 0.67752,-0.677521 1.155117,-0.910766 z m 6.708567,-0.222138 c 0.166604,-0.06664 0.28878,-0.09996 0.388742,-0.09996 0,0 0,0 0,0 0.05553,0 0.155497,0.02221 0.288779,0.05553 0,0 0,0 0,0 0.277673,0.07775 0.499811,0.277673 0.655307,0.599773 0,0 0,0 0,0 0,0 0.133283,0.244352 0.133283,0.244352 0.03332,0 0.133283,-0.08886 0.3221,-0.255459 0,0 0,0 0,0 0.344314,-0.310993 0.688628,-0.46649 1.055156,-0.46649 0,0 0,0 0,0 0,0 0.122176,0 0.122176,0 0.299886,0.02221 0.577559,0.122176 0.810803,0.299886 0.233245,0.177711 0.410956,0.410956 0.510918,0.688628 0,0 0,0 0,0 0.09996,0.266566 0.17771,0.6442 0.255459,1.132904 0.06664,0.499811 0.09996,0.93298 0.09996,1.321721 0,0 0,0 0,0 0,0.277673 -0.02221,0.46649 -0.05553,0.566452 0,0 0,0 0,0 -0.07775,0.244352 -0.233245,0.366528 -0.455383,0.366528 0,0 0,0 0,0 -0.133283,0 -0.255458,-0.06664 -0.355421,-0.188818 0,0 0,0 0,0 -0.07775,-0.08885 -0.111069,-0.35542 -0.111069,-0.810803 0,0 0,0 0,0 0,-0.844125 -0.08886,-1.510539 -0.266565,-1.999242 0,0 0,0 0,0 -0.09996,-0.277673 -0.266566,-0.422062 -0.477597,-0.422062 0,0 0,0 0,0 -0.155496,0 -0.310993,0.07775 -0.477597,0.233244 0,0 0,0 0,0 -0.433169,0.399849 -0.788589,1.210653 -1.066262,2.421305 0,0 0,0 0,0 -0.07775,0.333207 -0.155497,0.555345 -0.233245,0.677521 -0.07775,0.122176 -0.199924,0.188817 -0.355421,0.188817 0,0 0,0 0,0 -0.310993,0 -0.466489,-0.166604 -0.466489,-0.510918 0,0 0,0 0,0 0,-0.188817 0.03332,-0.388741 0.08885,-0.599772 0,0 0,0 0,0 0.08886,-0.366528 0.133283,-0.855231 0.133283,-1.466111 0,0 0,0 0,0 0,-0.433169 -0.01111,-0.721948 -0.02221,-0.866338 -0.02221,-0.14439 -0.06664,-0.211031 -0.14439,-0.211031 0,0 0,0 0,0 -0.03332,0 -0.111069,0.02221 -0.211031,0.07775 0,0 0,0 0,0 -0.310993,0.166604 -0.621986,0.533131 -0.921873,1.11069 -0.310993,0.588666 -0.533131,1.221759 -0.677521,1.89928 0,0 0,0 0,0 -0.05553,0.244352 -0.122176,0.399848 -0.188817,0.46649 0,0 0,0 0,0 -0.07775,0.08885 -0.17771,0.133283 -0.310993,0.133283 0,0 0,0 0,0 -0.188818,0 -0.333207,-0.07775 -0.410956,-0.222138 0,0 0,0 0,0 -0.05553,-0.08886 -0.111069,-0.477597 -0.17771,-1.155118 -0.07775,-0.677521 -0.122176,-1.299507 -0.14439,-1.854852 0,0 0,0 0,0 -0.01111,-0.455383 -0.02221,-0.710842 -0.02221,-0.744163 0,0 0,0 0,0 0,-0.188817 0.03332,-0.3221 0.09996,-0.388741 0,0 0,0 0,0 0.07775,-0.05553 0.155496,-0.08885 0.244351,-0.08885 0,0 0,0 0,0 0.14439,0 0.255459,0.05553 0.344314,0.166603 0,0 0,0 0,0 0.05553,0.07775 0.08886,0.233245 0.122176,0.46649 0.02221,0.233245 0.04443,0.455383 0.05553,0.666414 0.01111,0.211031 0.02221,0.310993 0.04443,0.3221 0,0 0,0 0,0 0,0 0.01111,0 0.01111,0 0.04443,0 0.14439,-0.14439 0.310993,-0.422062 0,0 0,0 0,0 0.233245,-0.366528 0.46649,-0.655307 0.688628,-0.855231 0.211031,-0.199925 0.46649,-0.355421 0.766376,-0.477597 z m 8.163578,0 c 0.166604,-0.06664 0.28878,-0.09996 0.388742,-0.09996 0,0 0,0 0,0 0.05553,0 0.155497,0.02221 0.288779,0.05553 0,0 0,0 0,0 0.277673,0.07775 0.499811,0.277673 0.655307,0.599773 0,0 0,0 0,0 0,0 0.133283,0.244352 0.133283,0.244352 0.03332,0 0.133283,-0.08886 0.3221,-0.255459 0,0 0,0 0,0 0.344314,-0.310993 0.688628,-0.46649 1.055156,-0.46649 0,0 0,0 0,0 0,0 0.122176,0 0.122176,0 0.299886,0.02221 0.577559,0.122176 0.810804,0.299886 0.233244,0.177711 0.410955,0.410956 0.510917,0.688628 0,0 0,0 0,0 0.09996,0.266566 0.17771,0.6442 0.255459,1.132904 0.06664,0.499811 0.09996,0.93298 0.09996,1.321721 0,0 0,0 0,0 0,0.277673 -0.02221,0.46649 -0.05553,0.566452 0,0 0,0 0,0 -0.07775,0.244352 -0.233245,0.366528 -0.455383,0.366528 0,0 0,0 0,0 -0.133282,0 -0.255458,-0.06664 -0.35542,-0.188818 0,0 0,0 0,0 -0.07775,-0.08885 -0.111069,-0.35542 -0.111069,-0.810803 0,0 0,0 0,0 0,-0.844125 -0.08886,-1.510539 -0.266566,-1.999242 0,0 0,0 0,0 -0.09996,-0.277673 -0.266566,-0.422062 -0.477597,-0.422062 0,0 0,0 0,0 -0.155496,0 -0.310993,0.07775 -0.477596,0.233244 0,0 0,0 0,0 -0.43317,0.399849 -0.78859,1.210653 -1.066263,2.421305 0,0 0,0 0,0 -0.07775,0.333207 -0.155497,0.555345 -0.233245,0.677521 -0.07775,0.122176 -0.199924,0.188817 -0.355421,0.188817 0,0 0,0 0,0 -0.310993,0 -0.466489,-0.166604 -0.466489,-0.510918 0,0 0,0 0,0 0,-0.188817 0.03332,-0.388741 0.08885,-0.599772 0,0 0,0 0,0 0.08886,-0.366528 0.133283,-0.855231 0.133283,-1.466111 0,0 0,0 0,0 0,-0.433169 -0.01111,-0.721948 -0.02221,-0.866338 -0.02221,-0.14439 -0.06664,-0.211031 -0.14439,-0.211031 0,0 0,0 0,0 -0.03332,0 -0.111069,0.02221 -0.211031,0.07775 0,0 0,0 0,0 -0.310993,0.166604 -0.621986,0.533131 -0.921873,1.11069 -0.310993,0.588666 -0.533131,1.221759 -0.677521,1.89928 0,0 0,0 0,0 -0.05553,0.244352 -0.122176,0.399848 -0.188817,0.46649 0,0 0,0 0,0 -0.07775,0.08885 -0.17771,0.133283 -0.310993,0.133283 0,0 0,0 0,0 -0.188817,0 -0.333207,-0.07775 -0.410955,-0.222138 0,0 0,0 0,0 -0.05553,-0.08886 -0.111069,-0.477597 -0.177711,-1.155118 -0.07775,-0.677521 -0.122176,-1.299507 -0.14439,-1.854852 0,0 0,0 0,0 -0.01111,-0.455383 -0.02221,-0.710842 -0.02221,-0.744163 0,0 0,0 0,0 0,-0.188817 0.03332,-0.3221 0.09996,-0.388741 0,0 0,0 0,0 0.07775,-0.05553 0.155496,-0.08885 0.244352,-0.08885 0,0 0,0 0,0 0.144389,0 0.255458,0.05553 0.344313,0.166603 0,0 0,0 0,0 0.05554,0.07775 0.08886,0.233245 0.122176,0.46649 0.02221,0.233245 0.04443,0.455383 0.05553,0.666414 0.01111,0.211031 0.02221,0.310993 0.04443,0.3221 0,0 0,0 0,0 0,0 0.01111,0 0.01111,0 0.04443,0 0.14439,-0.14439 0.310994,-0.422062 0,0 0,0 0,0 0.233244,-0.366528 0.466489,-0.655307 0.688627,-0.855231 0.211031,-0.199925 0.46649,-0.355421 0.766376,-0.477597 z m 5.753381,0.09996 c 0.07775,-0.05553 0.155497,-0.07775 0.233245,-0.07775 0,0 0,0 0,0 0.09996,0 0.199924,0.04443 0.288779,0.133282 0,0 0,0 0,0 0.08886,0.07775 0.133283,0.177711 0.133283,0.277673 0,0 0,0 0,0 0,0.05553 -0.02221,0.244352 -0.05553,0.577559 0,0 0,0 0,0 -0.01111,0.09996 -0.02221,0.255458 -0.02221,0.46649 0,0 0,0 0,0 0,0.699734 0.188817,1.277293 0.555345,1.732676 0,0 0,0 0,0 0.122176,0.155497 0.222138,0.233245 0.277672,0.233245 0,0 0,0 0,0 0.07775,0 0.199925,-0.06664 0.388742,-0.188817 0.17771,-0.122176 0.299886,-0.233245 0.377635,-0.333207 0,0 0,0 0,0 0.09996,-0.122176 0.188817,-0.310994 0.266565,-0.566452 0.07775,-0.255459 0.111069,-0.46649 0.122176,-0.633094 0,0 0,0 0,0 0,0 0,-0.133282 0,-0.133282 0,-0.188818 -0.01111,-0.366528 -0.03332,-0.544239 0,0 0,0 0,0 -0.01111,-0.17771 -0.02221,-0.277672 -0.02221,-0.310993 0,0 0,0 0,0 0,-0.09996 0.03332,-0.188817 0.09996,-0.277672 0,0 0,0 0,0 0.09996,-0.133283 0.244351,-0.199924 0.410955,-0.199924 0,0 0,0 0,0 0.06664,0 0.122176,0.01111 0.17771,0.03332 0,0 0,0 0,0 0.188818,0.07775 0.322101,0.388742 0.388742,0.955194 0,0 0,0 0,0 0.07775,0.699734 0.333207,1.510538 0.777483,2.410197 0,0 0,0 0,0 0.17771,0.366528 0.266566,0.588666 0.266566,0.688628 0,0 0,0 0,0 0,0.03332 -0.01111,0.07775 -0.01111,0.07775 0,0 0,0 0,0 -0.07775,0.211031 -0.222138,0.310993 -0.433169,0.310993 0,0 0,0 0,0 -0.14439,0 -0.266566,-0.06664 -0.388742,-0.199924 -0.122176,-0.122176 -0.266566,-0.344314 -0.422062,-0.666414 0,0 0,0 0,0 0,0 -0.255459,-0.533131 -0.255459,-0.533131 0,0 -0.355421,0.366528 -0.355421,0.366528 -0.46649,0.477596 -0.932979,0.721948 -1.399469,0.721948 0,0 0,0 0,0 -0.09996,0 -0.211031,-0.02221 -0.3221,-0.05553 0,0 0,0 0,0 -0.188818,-0.07775 -0.388742,-0.255459 -0.621987,-0.555345 -0.233245,-0.299887 -0.422062,-0.621987 -0.566452,-0.966301 0,0 0,0 0,0 -0.05553,-0.144389 -0.08885,-0.288779 -0.09996,-0.422062 -0.01111,-0.122176 -0.02221,-0.410955 -0.03332,-0.866338 0,0 0,0 0,0 0,-0.499811 0.02221,-0.855231 0.05553,-1.044049 0.03332,-0.188817 0.111069,-0.333207 0.222138,-0.410955 z m 5.664512,-0.01111 c 0.08886,-0.07775 0.17771,-0.122176 0.266565,-0.122176 0,0 0,0 0,0 0.09996,0 0.188818,0.04443 0.266566,0.122176 0,0 0,0 0,0 0.07775,0.05553 0.122176,0.133283 0.14439,0.211031 0.01111,0.07775 0.03332,0.277673 0.06664,0.599773 0,0 0,0 0,0 0.03332,0.477596 0.06664,0.721948 0.09996,0.721948 0,0 0,0 0,0 0,0 0.02221,-0.01111 0.02221,-0.01111 0,0 0,0 0,0 0.544238,-0.744162 1.010728,-1.188438 1.399469,-1.355041 0,0 0,0 0,0 0.133283,-0.05553 0.28878,-0.07775 0.477597,-0.07775 0,0 0,0 0,0 0.255459,0 0.46649,0.04443 0.633093,0.14439 0,0 0,0 0,0 0.299887,0.166603 0.533132,0.510917 0.710842,1.032942 0,0 0,0 0,0 0.07775,0.222138 0.122176,0.410955 0.133283,0.555345 0.01111,0.155496 0.02221,0.544238 0.03332,1.177331 0,0 0,0 0,0 0,0.61088 -0.01111,0.988514 -0.02221,1.11069 -0.01111,0.122176 -0.05553,0.222138 -0.122176,0.299886 0,0 0,0 0,0 -0.08885,0.09996 -0.199924,0.155497 -0.3221,0.155497 0,0 0,0 0,0 -0.133283,0 -0.244352,-0.05553 -0.333207,-0.155497 0,0 0,0 0,0 -0.06664,-0.06664 -0.09996,-0.155496 -0.111069,-0.277672 -0.01111,-0.122176 -0.03332,-0.477597 -0.04443,-1.077369 0,0 0,0 0,0 -0.01111,-0.566452 -0.03332,-0.921873 -0.04443,-1.088477 -0.01111,-0.166603 -0.05553,-0.333207 -0.122175,-0.49981 0,0 0,0 0,0 -0.06664,-0.177711 -0.111069,-0.28878 -0.14439,-0.3221 -0.03332,-0.03332 -0.111069,-0.05553 -0.211031,-0.06664 0,0 0,0 0,0 0,0 -0.07775,0 -0.07775,0 -0.09996,0 -0.266565,0.111069 -0.49981,0.344314 0,0 0,0 0,0 -0.255459,0.255459 -0.455383,0.510918 -0.61088,0.78859 0,0 0,0 0,0 -0.122175,0.211031 -0.266565,0.510918 -0.410955,0.888552 -0.14439,0.388742 -0.222138,0.633093 -0.222138,0.733056 0,0 0,0 0,0 0,0.08885 -0.03332,0.188817 -0.111069,0.288779 -0.07775,0.09996 -0.155497,0.17771 -0.244352,0.211031 0,0 0,0 0,0 -0.04443,0.02221 -0.09996,0.03332 -0.155496,0.03332 0,0 0,0 0,0 -0.188818,0 -0.3221,-0.06664 -0.399849,-0.199924 0,0 0,0 0,0 -0.02221,-0.04443 -0.05553,-0.46649 -0.09996,-1.277294 -0.04443,-0.810804 -0.07775,-1.543859 -0.08885,-2.22138 0,0 0,0 0,0 0,0 0,-0.266566 0,-0.266566 0,-0.122175 0.01111,-0.211031 0.02221,-0.255458 0.01111,-0.04443 0.05553,-0.08885 0.122176,-0.14439 z m 5.364623,-1.332828 c 0.05553,-0.03332 0.09996,-0.04443 0.122176,-0.04443 0,0 0,0 0,0 0,0 0.06664,0 0.166604,0.05554 0,0 0,0 0,0 0.133283,0.05553 0.199924,0.166603 0.199924,0.3221 0,0 0,0 0,0 0,0.17771 -0.07775,0.299886 -0.244352,0.366528 0,0 0,0 0,0 -0.08885,0.03332 -0.14439,0.04443 -0.14439,0.04443 0,0 0,0 0,0 -0.03332,0 -0.09996,-0.03332 -0.17771,-0.08886 0,0 0,0 0,0 -0.122176,-0.08885 -0.17771,-0.199924 -0.17771,-0.3221 0,0 0,0 0,0 0,-0.155497 0.08886,-0.266566 0.255458,-0.333207 z m 0,1.610501 c 0.07775,-0.07775 0.177711,-0.111069 0.310994,-0.111069 0.133282,0 0.233244,0.03332 0.310993,0.111069 0,0 0,0 0,0 0.122176,0.133282 0.199924,0.855231 0.233245,2.165845 0,0 0,0 0,0 0.01111,0.522024 0.02221,0.810804 0.02221,0.888552 0,0 0,0 0,0 0,0.255459 -0.01111,0.410955 -0.04443,0.488704 -0.03332,0.07775 -0.09996,0.133282 -0.211031,0.188817 0,0 0,0 0,0 -0.07775,0.04443 -0.14439,0.06664 -0.199924,0.06664 0,0 0,0 0,0 -0.07775,0 -0.166604,-0.04443 -0.266566,-0.144389 0,0 0,0 0,0 -0.07775,-0.06664 -0.133283,-0.133283 -0.14439,-0.211031 -0.02221,-0.07775 -0.04443,-0.28878 -0.06664,-0.655308 0,0 0,0 0,0 -0.03332,-0.533131 -0.04443,-1.099583 -0.04443,-1.710462 0,0 0,0 0,0 0,0 0,-0.344314 0,-0.344314 0,-0.410955 0.03332,-0.655307 0.09996,-0.733055 z m 3.054404,-2.643443 c 0.111069,-0.122176 0.233245,-0.17771 0.366528,-0.17771 0,0 0,0 0,0 0.122176,0 0.211031,0.04443 0.288779,0.133283 0,0 0,0 0,0 0.06664,0.06664 0.09996,0.155496 0.09996,0.266565 0,0 0,0 0,0 0,0.08885 0,0.166604 -0.01111,0.233245 0,0 0,0 0,0 0,0 0,0.03332 0,0.06664 -0.01111,0.03332 -0.01111,0.06664 -0.01111,0.08886 0,0 0,0 0,0 0,0.255458 0.02221,0.610879 0.06664,1.055155 0.03332,0.455383 0.06664,0.688628 0.09996,0.721949 0,0 0,0 0,0 0,0 0.533131,0.04443 0.533131,0.04443 0.322101,0.02221 0.544239,0.04443 0.644201,0.06664 0.09996,0.02221 0.17771,0.06664 0.244351,0.133283 0,0 0,0 0,0 0.07775,0.07775 0.111069,0.17771 0.111069,0.310993 0,0.133283 -0.03332,0.233245 -0.111069,0.310993 0,0 0,0 0,0 -0.07775,0.07775 -0.333207,0.122176 -0.744162,0.122176 0,0 0,0 0,0 0,0 -0.633093,0 -0.633093,0 0,0 -0.01111,0.844124 -0.01111,0.844124 0,0.14439 0,0.388742 0,0.733056 -0.01111,0.344314 -0.01111,0.566452 -0.02221,0.677521 0,0 0,0 0,0 0,0.410955 0,0.6442 -0.01111,0.677521 0,0 0,0 0,0 -0.01111,0.09996 -0.06664,0.17771 -0.155496,0.233244 -0.08886,0.06664 -0.188818,0.09996 -0.310994,0.09996 0,0 0,0 0,0 -0.188817,0 -0.310993,-0.07775 -0.388741,-0.244352 -0.07775,-0.155497 -0.111069,-0.455383 -0.111069,-0.888552 0,0 0,0 0,0 0,-0.277673 0.01111,-0.61088 0.03332,-1.010728 0,0 0,0 0,0 0.03332,-0.544238 0.04443,-0.844125 0.04443,-0.899659 0,0 0,0 0,0 0,-0.14439 -0.01111,-0.233245 -0.03332,-0.266566 0,0 0,0 0,0 -0.05553,-0.07775 -0.233245,-0.122176 -0.533132,-0.155496 0,0 0,0 0,0 -0.277672,-0.03332 -0.466489,-0.06664 -0.544238,-0.09996 -0.07775,-0.03332 -0.144389,-0.09996 -0.17771,-0.199925 0,0 0,0 0,0 -0.02221,-0.06664 -0.03332,-0.133282 -0.03332,-0.188817 0,0 0,0 0,0 0,-0.266565 0.255459,-0.399848 0.777483,-0.399848 0,0 0,0 0,0 0,0 0.444276,0 0.444276,0 -0.01111,-0.233245 -0.02221,-0.588666 -0.03332,-1.066263 -0.01111,-0.46649 -0.02221,-0.82191 -0.03332,-1.055155 0,0 0,0 0,0 z m 3.420921,2.387984 c 0.05553,-0.06664 0.166603,-0.09996 0.3221,-0.09996 0,0 0,0 0,0 0.122176,0 0.211031,0.02221 0.255459,0.07775 0,0 0,0 0,0 0.03332,0.03332 0.144389,0.233245 0.333207,0.588666 0,0 0,0 0,0 0.133283,0.255458 0.3221,0.577559 0.5664517,0.955193 0.2443518,0.377635 0.444276,0.655307 0.5886657,0.821911 0,0 0,0 0,0 0,0 0.1666035,0.188817 0.1666035,0.188817 0,0 0.1666035,-0.388741 0.1666035,-0.388741 0.1221759,-0.255459 0.2776725,-0.621987 0.444276,-1.088477 0,0 0,0 0,0 0.1666035,-0.455383 0.2887794,-0.721948 0.3554208,-0.78859 0,0 0,0 0,0 0.055535,-0.05553 0.1554966,-0.07775 0.3109932,-0.07775 0,0 0,0 0,0 0.1221759,0 0.2110311,0.03332 0.2887794,0.111069 0.077748,0.07775 0.111069,0.188817 0.111069,0.310993 0,0 0,0 0,0 0,0.14439 -0.1666035,0.633094 -0.4887036,1.455004 -0.333207,0.821911 -0.6553071,1.554966 -0.9774072,2.210273 0,0 0,0 0,0 -0.2332449,0.488704 -0.5109174,1.010728 -0.8330175,1.554966 -0.3221001,0.555345 -0.5331315,0.888552 -0.6442005,1.010728 0,0 0,0 0,0 -0.09996,0.09996 -0.211031,0.155497 -0.333207,0.155497 0,0 0,0 0,0 -0.09996,0 -0.188817,-0.03332 -0.266565,-0.111069 0,0 0,0 0,0 -0.111069,-0.09996 -0.166604,-0.211031 -0.166604,-0.344314 0,0 0,0 0,0 0,-0.17771 0.133283,-0.488704 0.410955,-0.944086 0,0 0,0 0,0 0.277673,-0.43317 0.588666,-0.988515 0.944087,-1.654929 0,0 0,0 0,0 0,0 0.1777104,-0.344314 0.1777104,-0.344314 0,0 -0.1888173,-0.3221 -0.1888173,-0.3221 -0.1221759,-0.211031 -0.2554587,-0.433169 -0.4220621,-0.6442 0,0 0,0 0,0 -0.377635,-0.510917 -0.710842,-1.055155 -0.999621,-1.643821 0,0 0,0 0,0 -0.14439,-0.288779 -0.222138,-0.522024 -0.222138,-0.699735 0,0 0,0 0,0 0,-0.111069 0.03332,-0.211031 0.09996,-0.288779 z"
         id="text1-9"
         transform="rotate(-135)"
         aria-label="Community" /><path
         style="font-weight:500;font-size:11.1069px;font-family:isaiahFont;-inkscape-font-specification:'isaiahFont, Medium';text-align:center;text-anchor:middle;stroke-width:0.147855"
         d="m -41.213402,-13.387776 c 0.199925,-0.07775 0.433169,-0.111069 0.699735,-0.111069 0,0 0,0 0,0 0,0 0.17771,0 0.17771,0 0.366528,0.01111 0.666415,0.07775 0.899659,0.199924 0,0 0,0 0,0 0.522025,0.255459 0.78859,0.544238 0.78859,0.844125 0,0 0,0 0,0 0,0.09996 -0.03332,0.17771 -0.111069,0.255458 -0.07775,0.07775 -0.166603,0.111069 -0.277672,0.111069 0,0 0,0 0,0 -0.166604,0 -0.333207,-0.07775 -0.499811,-0.222138 0,0 0,0 0,0 -0.233245,-0.211031 -0.510917,-0.310993 -0.833017,-0.310993 0,0 0,0 0,0 -0.3221,0 -0.6442,0.111069 -0.955194,0.344314 -0.310993,0.233245 -0.566452,0.544238 -0.755269,0.955194 0,0 0,0 0,0 -0.188817,0.377634 -0.288779,0.866338 -0.288779,1.4772172 0,0 0,0 0,0 0,0.3554209 0.03332,0.6442003 0.08886,0.8663383 0.05553,0.222138 0.166603,0.5220243 0.344314,0.888552 0,0 0,0 0,0 0.188817,0.3887415 0.344314,0.6330933 0.455383,0.7330554 0.09996,0.099962 0.277672,0.1443897 0.510917,0.1443897 0,0 0,0 0,0 0.211031,0 0.399849,-0.044428 0.588666,-0.1332828 0.188817,-0.077748 0.477597,-0.2554587 0.877445,-0.5220243 0,0 0,0 0,0 0.3221,-0.222138 0.555345,-0.333207 0.721949,-0.333207 0,0 0,0 0,0 0.122175,0 0.222138,0.055534 0.299886,0.1554966 0,0 0,0 0,0 0.07775,0.099962 0.122176,0.1999242 0.122176,0.2887794 0,0 0,0 0,0 0,0.1888173 -0.266566,0.4553829 -0.799697,0.8108037 0,0 0,0 0,0 -0.433169,0.2887794 -0.744162,0.4775967 -0.955193,0.5664519 -0.211032,0.088855 -0.455383,0.1332828 -0.721949,0.1332828 0,0 0,0 0,0 -0.02221,0 -0.05554,0 -0.09996,-0.011107 -0.04443,0 -0.07775,0 -0.111069,0 0,0 0,0 0,0 -0.410955,-0.011107 -0.721949,-0.088855 -0.910766,-0.222138 -0.199924,-0.1221759 -0.422062,-0.3998484 -0.666414,-0.8219106 0,0 0,0 0,0 -0.255459,-0.444276 -0.444276,-0.8552313 -0.544238,-1.2328659 -0.111069,-0.3665277 -0.166604,-0.7885899 -0.166604,-1.2550798 0,0 0,0 0,0 0,-0.1666035 0,-0.2887797 0.01111,-0.3776347 0,0 0,0 0,0 0.02221,-0.477597 0.07775,-0.833017 0.166604,-1.088476 0,0 0,0 0,0 0.17771,-0.510917 0.444276,-0.955194 0.78859,-1.332828 0.344314,-0.377635 0.721948,-0.6442 1.155117,-0.799697 z m 3.954053,0.299886 c 0.07775,-0.07775 0.17771,-0.122176 0.277672,-0.122176 0,0 0,0 0,0 0.111069,0 0.211031,0.04443 0.299887,0.122176 0,0 0,0 0,0 0,0 0.155496,0.133283 0.155496,0.133283 0,0 -0.01111,1.588287 -0.01111,1.588287 0,0 0,0.666414 0,0.666414 0,0.621986 0.02221,0.9329795 0.02221,0.9329795 0,0 0.14439,-0.099962 0.377635,-0.2887795 0,0 0,0 0,0 0.244352,-0.199924 0.444276,-0.333207 0.610879,-0.410955 0.155497,-0.07775 0.3221,-0.111069 0.510918,-0.111069 0,0 0,0 0,0 0.533131,0 0.932979,0.377634 1.210652,1.1440106 0,0 0,0 0,0 0.08886,0.2554587 0.133283,0.5997726 0.133283,1.0107279 0,0 0,0 0,0 0,0.222138 -0.02221,0.5220243 -0.05554,0.9107658 0,0 0,0 0,0 -0.03332,0.2776725 -0.06664,0.4664898 -0.111069,0.5664519 -0.05553,0.099962 -0.133283,0.1777104 -0.255459,0.2332449 0,0 0,0 0,0 -0.07775,0.033321 -0.122176,0.044428 -0.155496,0.044428 0,0 0,0 0,0 -0.04443,0 -0.111069,-0.022214 -0.199924,-0.066641 0,0 0,0 0,0 -0.166604,-0.077748 -0.255459,-0.2443518 -0.255459,-0.4998105 0,0 0,0 0,0 0,-0.1332828 0.01111,-0.2998863 0.03332,-0.5109174 0,0 0,0 0,0 0.02221,-0.2887794 0.03332,-0.5220243 0.03332,-0.7108416 0,0 0,0 0,0 0,-0.3443139 -0.05553,-0.6219864 -0.155496,-0.8330175 0,0 0,0 0,0 -0.08886,-0.1999242 -0.177711,-0.2998864 -0.266566,-0.2998864 0,0 0,0 0,0 -0.06664,0 -0.17771,0.055535 -0.333207,0.1666036 0,0 0,0 0,0 -0.477597,0.3443139 -0.855231,1.1329038 -1.132904,2.3435559 0,0 0,0 0,0 -0.05553,0.222138 -0.09996,0.3776346 -0.144389,0.4553829 -0.05554,0.088855 -0.133283,0.1554966 -0.233245,0.1999242 0,0 0,0 0,0 -0.05553,0.022214 -0.111069,0.033321 -0.166604,0.033321 0,0 0,0 0,0 -0.122176,0 -0.233245,-0.044428 -0.3221,-0.1443897 -0.08886,-0.099962 -0.133283,-0.2110311 -0.133283,-0.3554208 0,0 0,0 0,0 0,0 0,-0.1999242 0,-0.1999242 0,-0.5442381 0.01111,-1.5105384 0.03332,-2.9211145 0.02221,-1.39947 0.04443,-2.199167 0.05553,-2.399091 0,0 0,0 0,0 0.02221,-0.355421 0.07775,-0.577559 0.177711,-0.677521 z m 6.475317,3.3098566 c 0,-0.066641 -0.02221,-0.099962 -0.06664,-0.099962 0,0 0,0 0,0 -0.05553,0 -0.166604,0.055535 -0.3221,0.1666035 -0.155497,0.111069 -0.233245,0.1888174 -0.233245,0.233245 0,0 0,0 0,0 0,0.022214 0.02221,0.033321 0.07775,0.033321 0.05553,0 0.09996,0 0.133283,-0.011107 0,0 0,0 0,0 0.277673,-0.055535 0.410955,-0.1554967 0.410955,-0.3221002 z m -0.288779,-1.0329416 c 0.14439,-0.05554 0.288779,-0.07775 0.422062,-0.07775 0,0 0,0 0,0 0.299886,0 0.522024,0.155496 0.677521,0.455383 0,0 0,0 0,0 0.07775,0.155496 0.122176,0.333207 0.122176,0.5331307 0,0 0,0 0,0 0,0.2776725 -0.07775,0.5442382 -0.244352,0.7774831 -0.166603,0.2443518 -0.377634,0.4109553 -0.633093,0.4887036 0,0 0,0 0,0 -0.166604,0.055535 -0.388742,0.088855 -0.6442,0.111069 0,0 0,0 0,0 0,0 -0.444276,0.033321 -0.444276,0.033321 0,0 0,0.1666035 0,0.1666035 0,0.2110311 0.07775,0.3887415 0.233244,0.5442381 0.155497,0.1554966 0.344314,0.2332449 0.555346,0.2332449 0,0 0,0 0,0 0,0 0.08886,0 0.08886,0 0.155496,-0.011107 0.310993,-0.055535 0.477596,-0.1221759 0,0 0,0 0,0 0.09996,-0.033321 0.177711,-0.055534 0.255459,-0.055534 0,0 0,0 0,0 0.133283,0 0.244352,0.044428 0.3221,0.1221759 0.07775,0.088855 0.122176,0.1999242 0.133283,0.3443139 0,0 0,0 0,0 0,0.2554587 -0.255459,0.4775967 -0.777483,0.6553071 0,0 0,0 0,0 -0.199924,0.055535 -0.366528,0.088855 -0.488704,0.088855 0,0 0,0 0,0 -0.188817,0 -0.422062,-0.066641 -0.710841,-0.1999242 0,0 0,0 0,0 -0.410956,-0.1888173 -0.710842,-0.4664898 -0.888552,-0.8330175 0,0 0,0 0,0 -0.133283,-0.2776725 -0.199924,-0.5775588 -0.199924,-0.8774451 0,0 0,0 0,0 0,-0.5220243 0.166603,-1.0107279 0.488703,-1.4661109 0.3221,-0.4553826 0.744162,-0.7552696 1.25508,-0.9218726 z m 2.998864,0.366528 c 0.344314,-0.255459 0.766376,-0.377635 1.25508,-0.377635 0,0 0,0 0,0 0,0 0.122176,0 0.122176,0 0.166603,0 0.310993,0.05554 0.422062,0.155497 0,0 0,0 0,0 0.122176,0.111069 0.17771,0.233245 0.17771,0.377634 0,0 0,0 0,0 0,0.09996 -0.03332,0.199924 -0.111069,0.277673 0,0 0,0 0,0 -0.05553,0.066641 -0.133283,0.099962 -0.233245,0.099962 0,0 0,0 0,0 -0.06664,0 -0.122176,0 -0.166603,-0.011107 0,0 0,0 0,0 0,0 -0.122176,0 -0.122176,0 -0.188817,0 -0.333207,0.011107 -0.433169,0.044428 0,0 0,0 0,0 -0.122176,0.033321 -0.233245,0.077748 -0.355421,0.1554966 -0.122176,0.077748 -0.17771,0.1332828 -0.17771,0.1888173 0,0 0,0 0,0 0,0 0.01111,0.033321 0.01111,0.033321 0,0 0,0 0,0 0.05553,0.033321 0.288779,0.099962 0.721948,0.1888173 0,0 0,0 0,0 0.433169,0.099962 0.710842,0.1999242 0.855231,0.2776725 0,0 0,0 0,0 0.266566,0.1777104 0.422063,0.4109553 0.477597,0.6997347 0,0 0,0 0,0 0.01111,0.022214 0.01111,0.066641 0.01111,0.1221759 0,0 0,0 0,0 0,0.222138 -0.07775,0.4775967 -0.222138,0.7663761 -0.14439,0.2887794 -0.299886,0.4775967 -0.46649,0.5775588 0,0 0,0 0,0 -0.388741,0.2332449 -0.833017,0.3554208 -1.332828,0.3554208 0,0 0,0 0,0 -0.833017,0 -1.243973,-0.2332449 -1.243973,-0.7108416 0,0 0,0 0,0 0,-0.2554587 0.14439,-0.3887415 0.433169,-0.3887415 0,0 0,0 0,0 0.166604,0 0.277673,0.022214 0.344314,0.066641 0,0 0,0 0,0 0.08886,0.044428 0.222138,0.066641 0.410956,0.066641 0,0 0,0 0,0 0.255458,0 0.455383,-0.033321 0.621986,-0.099962 0,0 0,0 0,0 0.299886,-0.099962 0.444276,-0.2887794 0.444276,-0.5442381 0,0 0,0 0,0 0,-0.055535 -0.03332,-0.099962 -0.08885,-0.1332828 -0.06664,-0.033321 -0.266566,-0.077748 -0.61088,-0.1554966 0,0 0,0 0,0 -0.82191,-0.1888173 -1.266186,-0.4553829 -1.343935,-0.7885899 0,0 0,0 0,0 -0.01111,-0.077748 -0.02221,-0.1332828 -0.02221,-0.1777104 0,0 0,0 0,0 0,-0.1888174 0.05553,-0.3776347 0.17771,-0.5775589 0.111069,-0.1999242 0.255459,-0.3665272 0.444276,-0.4887032 z m 4.642688,-2.721191 c 0.111069,-0.122176 0.233245,-0.17771 0.366528,-0.17771 0,0 0,0 0,0 0.122176,0 0.211031,0.04443 0.288779,0.133282 0,0 0,0 0,0 0.06664,0.06664 0.09996,0.155497 0.09996,0.266566 0,0 0,0 0,0 0,0.08886 0,0.166604 -0.01111,0.233245 0,0 0,0 0,0 0,0 0,0.03332 0,0.06664 -0.01111,0.03332 -0.01111,0.06664 -0.01111,0.08886 0,0 0,0 0,0 0,0.255458 0.02221,0.610879 0.06664,1.055155 0.03332,0.455383 0.06664,0.688628 0.09996,0.721949 0,0 0,0 0,0 0,0 0.533131,0.04443 0.533131,0.04443 0.3221,0.02221 0.544238,0.04443 0.6442,0.06664 0.09996,0.02221 0.177711,0.06664 0.244352,0.133282 0,0 0,0 0,0 0.07775,0.07775 0.111069,0.177711 0.111069,0.310994 0,0.133282 -0.03332,0.2332445 -0.111069,0.3109928 0,0 0,0 0,0 -0.07775,0.077748 -0.333207,0.1221759 -0.744162,0.1221759 0,0 0,0 0,0 0,0 -0.633093,0 -0.633093,0 0,0 -0.01111,0.8441245 -0.01111,0.8441245 0,0.1443897 0,0.3887415 0,0.7330554 -0.01111,0.3443139 -0.01111,0.5664519 -0.02221,0.6775209 0,0 0,0 0,0 0,0.4109553 0,0.6442002 -0.01111,0.6775209 0,0 0,0 0,0 -0.01111,0.099962 -0.06664,0.1777104 -0.155497,0.2332449 -0.08885,0.066641 -0.188817,0.099962 -0.310993,0.099962 0,0 0,0 0,0 -0.188817,0 -0.310993,-0.077748 -0.388741,-0.2443518 -0.07775,-0.1554966 -0.111069,-0.4553829 -0.111069,-0.888552 0,0 0,0 0,0 0,-0.2776725 0.01111,-0.6108795 0.03332,-1.0107279 0,0 0,0 0,0 0.03332,-0.5442381 0.04443,-0.8441244 0.04443,-0.899659 0,0 0,0 0,0 0,-0.1443897 -0.01111,-0.2332449 -0.03332,-0.2665656 0,0 0,0 0,0 -0.05553,-0.077748 -0.233245,-0.1221759 -0.533131,-0.1554966 0,0 0,0 0,0 -0.277673,-0.033321 -0.46649,-0.066642 -0.544238,-0.099963 -0.07775,-0.03332 -0.14439,-0.09996 -0.177711,-0.199924 0,0 0,0 0,0 -0.02221,-0.06664 -0.03332,-0.133283 -0.03332,-0.188817 0,0 0,0 0,0 0,-0.266566 0.255458,-0.399848 0.777483,-0.399848 0,0 0,0 0,0 0,0 0.444276,0 0.444276,0 -0.01111,-0.233245 -0.02221,-0.588666 -0.03332,-1.066263 -0.01111,-0.46649 -0.02221,-0.821911 -0.03332,-1.055155 0,0 0,0 0,0 z"
         id="text1-9-2"
         transform="rotate(-135)"
         aria-label="Chest" /><g
         id="path1"
         class="st0"
         transform="translate(-7.3149229e-5,-7.3149229e-5)"><g
           id="g1"><g
             id="path2"><path
               style="color:#000000;clip-rule:evenodd;fill:#0084ff;fill-rule:evenodd;-inkscape-stroke:none"
               d="m 36.936513,24.518065 c -0.0035,-0.0097 -0.0059,-0.01958 -0.0094,-0.02924 l 5.902656,5.902655 c 0.449135,0.449137 1.048047,0.671546 1.646895,0.671546 0.588699,0.01015 1.197263,-0.222904 1.6464,-0.672041 l 3.123797,-3.123799 c 0.449137,-0.449134 0.672537,-1.048047 0.672537,-1.646894 -0.0076,-0.550637 -0.205619,-1.103337 -0.588779,-1.542324 L 64.565994,8.8425751 c 0.4872,-0.4871979 0.730523,-1.1418744 0.730523,-1.7762482 0.01015,-0.6445231 -0.243323,-1.2890494 -0.730523,-1.7762484 l -24.5602,-24.5602005 c -0.487197,-0.487197 -1.142371,-0.731017 -1.776743,-0.731017 -0.644522,-0.01015 -1.288553,0.24382 -1.775753,0.731017 L 21.207994,-4.0248169 c -0.428838,-0.3730114 -0.962129,-0.5506172 -1.505153,-0.5506172 -0.588698,-0.010147 -1.197265,0.2229043 -1.646399,0.6720403 l -3.123799,3.12379823 c -0.449135,0.44913593 -0.672536,1.04804665 -0.672536,1.64689533 -0.01015,0.58869864 0.223401,1.19775934 0.672536,1.64689544 l 0.812297,0.8122965 4.985786,4.9857861 2.5147,2.5147002 3.628323,3.628323 1.619141,1.619142 0.02776,0.008 0.644287,0.644286 c -0.0019,0.0048 -0.0036,0.0096 -0.0055,0.01437 l 1.607248,1.607246 3.628323,3.628324 z"
               id="path24" /><path
               style="color:#000000;clip-rule:evenodd;fill:url(#linearGradient24);fill-rule:evenodd;-inkscape-stroke:none"
               d="m 38.232422,-20.621094 c -0.812129,-0.01108 -1.615808,0.309172 -2.21875,0.91211 L 21.017578,-4.7148437 c -0.424435,-0.2206819 -0.844264,-0.479528 -1.308594,-0.4804688 -0.758597,-0.01189 -1.521275,0.2810388 -2.091797,0.8515625 l -3.124999,3.125 c -0.570515,0.570516 -0.850472,1.33002937 -0.851563,2.08203125 -0.0114,0.75835505 0.2815,1.51978005 0.851563,2.08984375 l 0.8125,0.8125 4.986328,4.9863281 2.515625,2.5136719 3.626953,3.628906 1.732422,1.732422 0.0293,0.0078 0.240235,0.240234 -0.0059,0.01563 1.898438,1.896484 3.626953,3.628907 2.541016,2.541015 0.01367,-0.0078 5.880859,5.880859 c 0.569734,0.569737 1.328226,0.849395 2.078125,0.851563 0.759202,0.0124 1.522772,-0.280584 2.09375,-0.851563 l 3.123047,-3.123047 c 0.571624,-0.57162 0.855469,-1.332511 0.855469,-2.085937 v -0.0059 -0.0039 c -0.0067,-0.482319 -0.279279,-0.914064 -0.515625,-1.349609 L 65.005859,9.28125 C 65.615643,8.6714691 65.91492,7.8622447 65.916016,7.0703125 65.927098,6.2584911 65.6091,5.4528487 65.005859,4.8496094 L 40.445312,-19.708984 c -0.609781,-0.609782 -1.420634,-0.911014 -2.21289,-0.91211 z m -0.01367,1.242188 h 0.0059 0.0039 c 0.47511,0 0.974388,0.185326 1.33789,0.548828 L 64.126953,5.7304687 c 0.36961,0.3696088 0.55631,0.8510708 0.548828,1.3261719 v 0.00391 0.00586 c 0,0.4754371 -0.185323,0.9724345 -0.548828,1.3359376 l -15.646484,15.6464842 0.382812,0.4375 c 0.281539,0.32256 0.42658,0.731341 0.433594,1.136719 -4.55e-4,0.443628 -0.164039,0.878885 -0.490234,1.205078 l -3.123047,3.123047 c -0.326652,0.326652 -0.777963,0.49743 -1.195313,0.490234 h -0.0059 -0.0059 c -0.444953,0 -0.880706,-0.163907 -1.207031,-0.490234 l -5.902344,-5.902344 -0.01172,0.0078 -2.521485,-2.519532 -3.626953,-3.628906 -1.320312,-1.320312 0.0059,-0.01172 -1.044922,-1.046875 -0.0293,-0.0078 L 27.3125,14.015625 23.685547,10.386719 21.169922,7.8730469 16.183594,2.8867188 15.373047,2.0742188 C 15.046397,1.7475681 14.87367,1.2959002 14.880859,0.87890625 v -0.005859 -0.005859 c 0,-0.44426827 0.165538,-0.88038082 0.492188,-1.20703125 l 3.123047,-3.12500005 c 0.326646,-0.3266473 0.777959,-0.4954748 1.195312,-0.4882812 h 0.0059 0.0059 c 0.407497,0 0.787628,0.1268157 1.097656,0.3964844 l 0.4375,0.3808593 15.654297,-15.6542967 c 0.369909,-0.369906 0.851387,-0.556305 1.326172,-0.548828 z"
               id="path25" /></g><path
             id="path25-2"
             style="color:#000000;clip-rule:evenodd;fill:url(#linearGradient25);fill-rule:evenodd;stroke-width:0.999999;-inkscape-stroke:none"
             d="m 41.705901,17.27608 7.038979,7.037162 0.175232,0.175232 0.878952,-0.878952 -0.175232,-0.175232 -4.898172,-4.898172 -0.0015,-0.01875 -3.879096,-3.881821 -0.07994,-0.05812 -5.585636,-5.5856351 -13.45517,-13.4569863 -0.878949,0.8789534 13.455165,13.4569826 6.426431,6.4264304 0.07996,0.05813 0.891342,0.891342 z" /><path
             fill-rule="evenodd"
             clip-rule="evenodd"
             d="M 46.497963,7.7007721 45.618602,6.8214109 45.513097,6.9269277 43.76164,8.6783861 c -1.001661,1.001661 -2.322421,1.5024419 -3.642001,1.5026379 l -8.86e-4,8.86e-4 c -1.319975,0 -2.64093,-0.5009769 -3.643278,-1.5033249 C 35.473902,7.6770221 34.97312,6.3562625 34.97312,5.0362889 l -9.8e-5,-0.00186 C 34.973218,3.714848 35.474,2.3940889 36.475661,1.3924284 l 1.751457,-1.75145853 0.105522,-0.1055151 -0.700425,-0.70042597 c -0.15606,-0.1560644 -0.15606,-0.4116573 -9.8e-5,-0.5676239 l 5.993477,-5.9934808 c 0.155972,-0.1559664 0.411559,-0.1559664 0.567623,9.79e-5 l 8.865751,8.8657512 c 0.156059,0.1560644 0.156059,0.4116579 9.8e-5,0.5676244 l -5.993474,5.9934735 c -0.155972,0.155967 -0.411559,0.155967 -0.567623,-9.8e-5 z M 44.203221,5.4060318 39.748312,0.95112057 39.642807,1.0566356 37.871128,2.8283139 c -0.612487,0.6124809 -0.919021,1.4203858 -0.919511,2.2273089 l 8.86e-4,9.84e-5 c -2.94e-4,0.8073155 0.306042,1.6152206 0.918327,2.2275047 0.612579,0.6125782 1.420385,0.9190152 2.227897,0.9195062 0.807021,-3.93e-4 1.614829,-0.307026 2.227308,-0.9195062 l 1.771778,-1.7717762 z m 1.033955,-5.52508343 1.625232,-2.52451827 1.23772,1.2273162 -2.464448,1.74105377 c 0.228797,0.4447357 0.157338,1.00440943 -0.21525,1.37700153 -0.461422,0.4614213 -1.209355,0.4614213 -1.670973,-1.963e-4 -0.461127,-0.4611274 -0.461422,-1.20935433 0,-1.67077593 0.404393,-0.4043941 1.029143,-0.4543544 1.487719,-0.149881 z"
             id="path1-1"
             style="stroke-width:0.328904;fill:#ffffff" /></g></g></g></g><style
     type="text/css"
     id="style1"><![CDATA[
	.st0{fill-rule:evenodd;clip-rule:evenodd;}
]]></style><style
     type="text/css"
     id="style1-3">.st0{fill-rule:evenodd;clip-rule:evenodd;}</style><style
     type="text/css"
     id="style1-7">.st0{fill-rule:evenodd;clip-rule:evenodd;}</style></svg>
