<?xml version="1.0" encoding="UTF-8" standalone="no"?>
<!-- Created with Inkscape (http://www.inkscape.org/) -->

<svg
   width="54.417mm"
   height="76.616997mm"
   viewBox="0 0 54.417 76.616997"
   version="1.1"
   id="svg1"
   inkscape:version="1.3 (0e150ed6c4, 2023-07-21)"
   sodipodi:docname="chest.svg"
   xml:space="preserve"
   xmlns:inkscape="http://www.inkscape.org/namespaces/inkscape"
   xmlns:sodipodi="http://sodipodi.sourceforge.net/DTD/sodipodi-0.dtd"
   xmlns:xlink="http://www.w3.org/1999/xlink"
   xmlns="http://www.w3.org/2000/svg"
   xmlns:svg="http://www.w3.org/2000/svg"><sodipodi:namedview
     id="namedview1"
     pagecolor="#ffffff"
     bordercolor="#666666"
     borderopacity="1.0"
     inkscape:showpageshadow="2"
     inkscape:pageopacity="0.0"
     inkscape:pagecheckerboard="0"
     inkscape:deskcolor="#d1d1d1"
     inkscape:document-units="mm"
     inkscape:zoom="2.3786088"
     inkscape:cx="77.145935"
     inkscape:cy="139.36718"
     inkscape:window-width="1948"
     inkscape:window-height="1070"
     inkscape:window-x="77"
     inkscape:window-y="389"
     inkscape:window-maximized="0"
     inkscape:current-layer="path1" /><defs
     id="defs1"><linearGradient
       id="swatch24"
       inkscape:swatch="solid"><stop
         style="stop-color:#000000;stop-opacity:1;"
         offset="0"
         id="stop24" /></linearGradient><linearGradient
       id="swatch1"
       inkscape:swatch="solid"><stop
         style="stop-color:#000000;stop-opacity:1;"
         offset="0"
         id="stop1" /></linearGradient><linearGradient
       id="swatch2"
       inkscape:swatch="solid"><stop
         style="stop-color:#000000;stop-opacity:1;"
         offset="0"
         id="stop2" /></linearGradient><linearGradient
       inkscape:collect="always"
       xlink:href="#swatch24"
       id="linearGradient24"
       x1="14.25979"
       y1="5.5309561"
       x2="65.29681"
       y2="5.5309561"
       gradientUnits="userSpaceOnUse" /><linearGradient
       inkscape:collect="always"
       xlink:href="#swatch24"
       id="linearGradient25"
       gradientUnits="userSpaceOnUse"
       x1="14.25979"
       y1="5.5309561"
       x2="65.29681"
       y2="5.5309561"
       gradientTransform="matrix(2.3547063,1.3547063,1.3547063,2.3547063,-48.119928,-61.01068)" /></defs><g
     inkscape:label="Layer 1"
     inkscape:groupmode="layer"
     id="layer1"
     transform="matrix(0,1.2112922,-1.2112922,0,54.92251,-6.4566465)"><g
       id="g2"
       transform="matrix(0.46960164,0.46960164,-0.46960164,0.46960164,25.59535,1.5909268)"><text
         xml:space="preserve"
         style="font-style:normal;font-weight:normal;font-size:7.48942px;font-family:sans-serif;fill:#000000;fill-opacity:1;stroke:none;stroke-width:0.147855"
         x="-32.161282"
         y="-14.976063"
         id="text1-9"
         transform="rotate(-135)"><tspan
           sodipodi:role="line"
           style="font-style:normal;font-variant:normal;font-weight:500;font-stretch:normal;font-size:11.1069px;font-family:isaiahFont;-inkscape-font-specification:'isaiahFont, Medium';font-variant-ligatures:normal;font-variant-caps:normal;font-variant-numeric:normal;font-variant-east-asian:normal;text-align:center;text-anchor:middle;stroke-width:0.147855"
           x="-32.161282"
           y="-14.976063"
           id="tspan3-9">Community</tspan></text><text
         xml:space="preserve"
         style="font-style:normal;font-weight:normal;font-size:7.48942px;font-family:sans-serif;fill:#000000;fill-opacity:1;stroke:none;stroke-width:0.147855"
         x="-32.161282"
         y="-5.257525"
         id="text1-9-2"
         transform="rotate(-135)"><tspan
           sodipodi:role="line"
           style="font-style:normal;font-variant:normal;font-weight:500;font-stretch:normal;font-size:11.1069px;font-family:isaiahFont;-inkscape-font-specification:'isaiahFont, Medium';font-variant-ligatures:normal;font-variant-caps:normal;font-variant-numeric:normal;font-variant-east-asian:normal;text-align:center;text-anchor:middle;stroke-width:0.147855"
           x="-32.161282"
           y="-5.257525"
           id="tspan3-9-3">Chest</tspan></text><g
         id="path1"
         class="st0"
         transform="translate(-7.3149229e-5,-7.3149229e-5)"><g
           id="g1"><g
             id="path2"><path
               style="color:#000000;clip-rule:evenodd;fill:#0084ff;fill-rule:evenodd;-inkscape-stroke:none"
               d="m 36.936513,24.518065 c -0.0035,-0.0097 -0.0059,-0.01958 -0.0094,-0.02924 l 5.902656,5.902655 c 0.449135,0.449137 1.048047,0.671546 1.646895,0.671546 0.588699,0.01015 1.197263,-0.222904 1.6464,-0.672041 l 3.123797,-3.123799 c 0.449137,-0.449134 0.672537,-1.048047 0.672537,-1.646894 -0.0076,-0.550637 -0.205619,-1.103337 -0.588779,-1.542324 L 64.565994,8.8425751 c 0.4872,-0.4871979 0.730523,-1.1418744 0.730523,-1.7762482 0.01015,-0.6445231 -0.243323,-1.2890494 -0.730523,-1.7762484 l -24.5602,-24.5602005 c -0.487197,-0.487197 -1.142371,-0.731017 -1.776743,-0.731017 -0.644522,-0.01015 -1.288553,0.24382 -1.775753,0.731017 L 21.207994,-4.0248169 c -0.428838,-0.3730114 -0.962129,-0.5506172 -1.505153,-0.5506172 -0.588698,-0.010147 -1.197265,0.2229043 -1.646399,0.6720403 l -3.123799,3.12379823 c -0.449135,0.44913593 -0.672536,1.04804665 -0.672536,1.64689533 -0.01015,0.58869864 0.223401,1.19775934 0.672536,1.64689544 l 0.812297,0.8122965 4.985786,4.9857861 2.5147,2.5147002 3.628323,3.628323 1.619141,1.619142 0.02776,0.008 0.644287,0.644286 c -0.0019,0.0048 -0.0036,0.0096 -0.0055,0.01437 l 1.607248,1.607246 3.628323,3.628324 z"
               id="path24" /><path
               style="color:#000000;clip-rule:evenodd;fill:url(#linearGradient24);fill-rule:evenodd;-inkscape-stroke:none"
               d="m 38.232422,-20.621094 c -0.812129,-0.01108 -1.615808,0.309172 -2.21875,0.91211 L 21.017578,-4.7148437 c -0.424435,-0.2206819 -0.844264,-0.479528 -1.308594,-0.4804688 -0.758597,-0.01189 -1.521275,0.2810388 -2.091797,0.8515625 l -3.124999,3.125 c -0.570515,0.570516 -0.850472,1.33002937 -0.851563,2.08203125 -0.0114,0.75835505 0.2815,1.51978005 0.851563,2.08984375 l 0.8125,0.8125 4.986328,4.9863281 2.515625,2.5136719 3.626953,3.628906 1.732422,1.732422 0.0293,0.0078 0.240235,0.240234 -0.0059,0.01563 1.898438,1.896484 3.626953,3.628907 2.541016,2.541015 0.01367,-0.0078 5.880859,5.880859 c 0.569734,0.569737 1.328226,0.849395 2.078125,0.851563 0.759202,0.0124 1.522772,-0.280584 2.09375,-0.851563 l 3.123047,-3.123047 c 0.571624,-0.57162 0.855469,-1.332511 0.855469,-2.085937 v -0.0059 -0.0039 c -0.0067,-0.482319 -0.279279,-0.914064 -0.515625,-1.349609 L 65.005859,9.28125 C 65.615643,8.6714691 65.91492,7.8622447 65.916016,7.0703125 65.927098,6.2584911 65.6091,5.4528487 65.005859,4.8496094 L 40.445312,-19.708984 c -0.609781,-0.609782 -1.420634,-0.911014 -2.21289,-0.91211 z m -0.01367,1.242188 h 0.0059 0.0039 c 0.47511,0 0.974388,0.185326 1.33789,0.548828 L 64.126953,5.7304687 c 0.36961,0.3696088 0.55631,0.8510708 0.548828,1.3261719 v 0.00391 0.00586 c 0,0.4754371 -0.185323,0.9724345 -0.548828,1.3359376 l -15.646484,15.6464842 0.382812,0.4375 c 0.281539,0.32256 0.42658,0.731341 0.433594,1.136719 -4.55e-4,0.443628 -0.164039,0.878885 -0.490234,1.205078 l -3.123047,3.123047 c -0.326652,0.326652 -0.777963,0.49743 -1.195313,0.490234 h -0.0059 -0.0059 c -0.444953,0 -0.880706,-0.163907 -1.207031,-0.490234 l -5.902344,-5.902344 -0.01172,0.0078 -2.521485,-2.519532 -3.626953,-3.628906 -1.320312,-1.320312 0.0059,-0.01172 -1.044922,-1.046875 -0.0293,-0.0078 L 27.3125,14.015625 23.685547,10.386719 21.169922,7.8730469 16.183594,2.8867188 15.373047,2.0742188 C 15.046397,1.7475681 14.87367,1.2959002 14.880859,0.87890625 v -0.005859 -0.005859 c 0,-0.44426827 0.165538,-0.88038082 0.492188,-1.20703125 l 3.123047,-3.12500005 c 0.326646,-0.3266473 0.777959,-0.4954748 1.195312,-0.4882812 h 0.0059 0.0059 c 0.407497,0 0.787628,0.1268157 1.097656,0.3964844 l 0.4375,0.3808593 15.654297,-15.6542967 c 0.369909,-0.369906 0.851387,-0.556305 1.326172,-0.548828 z"
               id="path25" /></g><path
             id="path25-2"
             style="color:#000000;clip-rule:evenodd;fill:url(#linearGradient25);fill-rule:evenodd;stroke-width:0.999999;-inkscape-stroke:none"
             d="m 41.705901,17.27608 7.038979,7.037162 0.175232,0.175232 0.878952,-0.878952 -0.175232,-0.175232 -4.898172,-4.898172 -0.0015,-0.01875 -3.879096,-3.881821 -0.07994,-0.05812 -5.585636,-5.5856351 -13.45517,-13.4569863 -0.878949,0.8789534 13.455165,13.4569826 6.426431,6.4264304 0.07996,0.05813 0.891342,0.891342 z" /><path
             fill-rule="evenodd"
             clip-rule="evenodd"
             d="M 46.497963,7.7007721 45.618602,6.8214109 45.513097,6.9269277 43.76164,8.6783861 c -1.001661,1.001661 -2.322421,1.5024419 -3.642001,1.5026379 l -8.86e-4,8.86e-4 c -1.319975,0 -2.64093,-0.5009769 -3.643278,-1.5033249 C 35.473902,7.6770221 34.97312,6.3562625 34.97312,5.0362889 l -9.8e-5,-0.00186 C 34.973218,3.714848 35.474,2.3940889 36.475661,1.3924284 l 1.751457,-1.75145853 0.105522,-0.1055151 -0.700425,-0.70042597 c -0.15606,-0.1560644 -0.15606,-0.4116573 -9.8e-5,-0.5676239 l 5.993477,-5.9934808 c 0.155972,-0.1559664 0.411559,-0.1559664 0.567623,9.79e-5 l 8.865751,8.8657512 c 0.156059,0.1560644 0.156059,0.4116579 9.8e-5,0.5676244 l -5.993474,5.9934735 c -0.155972,0.155967 -0.411559,0.155967 -0.567623,-9.8e-5 z M 44.203221,5.4060318 39.748312,0.95112057 39.642807,1.0566356 37.871128,2.8283139 c -0.612487,0.6124809 -0.919021,1.4203858 -0.919511,2.2273089 l 8.86e-4,9.84e-5 c -2.94e-4,0.8073155 0.306042,1.6152206 0.918327,2.2275047 0.612579,0.6125782 1.420385,0.9190152 2.227897,0.9195062 0.807021,-3.93e-4 1.614829,-0.307026 2.227308,-0.9195062 l 1.771778,-1.7717762 z m 1.033955,-5.52508343 1.625232,-2.52451827 1.23772,1.2273162 -2.464448,1.74105377 c 0.228797,0.4447357 0.157338,1.00440943 -0.21525,1.37700153 -0.461422,0.4614213 -1.209355,0.4614213 -1.670973,-1.963e-4 -0.461127,-0.4611274 -0.461422,-1.20935433 0,-1.67077593 0.404393,-0.4043941 1.029143,-0.4543544 1.487719,-0.149881 z"
             id="path1-1"
             style="stroke-width:0.328904;fill:#ffffff" /></g></g></g></g><style
     type="text/css"
     id="style1"><![CDATA[
	.st0{fill-rule:evenodd;clip-rule:evenodd;}
]]></style><style
     type="text/css"
     id="style1-3">.st0{fill-rule:evenodd;clip-rule:evenodd;}</style><style
     type="text/css"
     id="style1-7">.st0{fill-rule:evenodd;clip-rule:evenodd;}</style></svg>
