<?xml version="1.0" encoding="UTF-8" standalone="no"?>
<!-- Created with Inkscape (http://www.inkscape.org/) -->

<svg
   width="54.417mm"
   height="76.616997mm"
   viewBox="0 0 54.417 76.616997"
   version="1.1"
   id="svg1"
   inkscape:version="1.3 (0e150ed6c4, 2023-07-21)"
   sodipodi:docname="incometax.svg"
   xml:space="preserve"
   xmlns:inkscape="http://www.inkscape.org/namespaces/inkscape"
   xmlns:sodipodi="http://sodipodi.sourceforge.net/DTD/sodipodi-0.dtd"
   xmlns="http://www.w3.org/2000/svg"
   xmlns:svg="http://www.w3.org/2000/svg"><sodipodi:namedview
     id="namedview1"
     pagecolor="#ffffff"
     bordercolor="#666666"
     borderopacity="1.0"
     inkscape:showpageshadow="2"
     inkscape:pageopacity="0.0"
     inkscape:pagecheckerboard="0"
     inkscape:deskcolor="#d1d1d1"
     inkscape:document-units="mm"
     inkscape:zoom="1.1893044"
     inkscape:cx="36.576002"
     inkscape:cy="195.49242"
     inkscape:window-width="1948"
     inkscape:window-height="1070"
     inkscape:window-x="341"
     inkscape:window-y="265"
     inkscape:window-maximized="0"
     inkscape:current-layer="g2" /><defs
     id="defs1"><linearGradient
       id="swatch2"
       inkscape:swatch="solid"><stop
         style="stop-color:#000000;stop-opacity:1;"
         offset="0"
         id="stop2" /></linearGradient></defs><g
     inkscape:label="Layer 1"
     inkscape:groupmode="layer"
     id="layer1"
     transform="matrix(0,1.2112922,-1.2112922,0,54.92251,-6.4566465)"><g
       id="g2"
       transform="matrix(0.46960164,0.46960164,-0.46960164,0.46960164,25.59535,1.5909268)"><path
         style="font-weight:500;font-size:16.2662px;font-family:isaiahFont;-inkscape-font-specification:'isaiahFont, Medium';text-align:center;text-anchor:middle;stroke-width:0.147855"
         d="m -50.903743,-22.133342 c 1.008505,-0.0488 1.935678,-0.06507 2.797786,-0.06507 0,0 0,0 0,0 0.748246,0 1.203699,0.01627 1.382627,0.06507 0,0 0,0 0,0 0.211461,0.0488 0.374123,0.130129 0.487986,0.243993 0.113864,0.130129 0.162662,0.276525 0.162662,0.422921 0,0 0,0 0,0 0,0.178928 -0.06506,0.325324 -0.21146,0.47172 0,0 0,0 0,0 -0.08133,0.08133 -0.195195,0.146396 -0.309058,0.162662 -0.113863,0.01627 -0.439187,0.03253 -0.94344,0.03253 0,0 0,0 0,0 0,0 -0.862108,0 -0.862108,0 0,0 -1.903145,0 -1.903145,0 0,0 0.0488,0.81331 0.0488,0.81331 0.13013,1.773016 0.227727,3.72496 0.276526,5.855832 0,0 0,0 0,0 0.01627,0.406655 0.01627,0.845842 0.01627,1.317562 0,0 0,0 0,0 0,0.374123 -0.0488,0.618116 -0.146396,0.715713 0,0 0,0 0,0 -0.113863,0.146396 -0.309058,0.21146 -0.585583,0.21146 0,0 0,0 0,0 -0.113864,0 -0.211461,-0.03253 -0.292792,-0.08133 0,0 0,0 0,0 -0.162662,-0.113863 -0.260259,-0.34159 -0.292791,-0.666914 -0.0488,-0.309058 -0.08133,-1.28503 -0.113864,-2.911649 0,0 0,0 0,0 -0.03253,-1.968211 -0.08133,-3.367104 -0.130129,-4.164147 0,0 0,0 0,0 0,0 -0.06506,-0.959706 -0.06506,-0.959706 0,0 -1.577821,0 -1.577821,0 -1.057303,0 -1.642887,-0.01627 -1.773016,-0.06507 0,0 0,0 0,0 -0.211461,-0.08133 -0.325324,-0.260259 -0.325324,-0.536785 0,0 0,0 0,0 0,-0.243993 0.0976,-0.422921 0.276525,-0.520518 0,0 0,0 0,0 0.195195,-0.113863 1.561555,-0.227727 4.082816,-0.34159 z m 6.539023,3.903888 c 0.113864,-0.08133 0.227727,-0.113864 0.341591,-0.113864 0,0 0,0 0,0 0.146395,0 0.292791,0.06507 0.422921,0.195195 0,0 0,0 0,0 0.130129,0.113863 0.195194,0.260259 0.195194,0.406655 0,0 0,0 0,0 0,0.08133 -0.03253,0.357856 -0.08133,0.845842 0,0 0,0 0,0 -0.01627,0.146396 -0.03253,0.374123 -0.03253,0.68318 0,0 0,0 0,0 0,1.024771 0.276525,1.870613 0.81331,2.537527 0,0 0,0 0,0 0.178928,0.227727 0.325324,0.341591 0.406655,0.341591 0,0 0,0 0,0 0.113863,0 0.292791,-0.0976 0.569317,-0.276526 0.260259,-0.178928 0.439187,-0.34159 0.553051,-0.487986 0,0 0,0 0,0 0.146395,-0.178928 0.276525,-0.455453 0.390388,-0.829576 0.113864,-0.374122 0.162662,-0.68318 0.178928,-0.927173 0,0 0,0 0,0 0,0 0,-0.195195 0,-0.195195 0,-0.276525 -0.01627,-0.536784 -0.0488,-0.797043 0,0 0,0 0,0 -0.01627,-0.26026 -0.03253,-0.406655 -0.03253,-0.455454 0,0 0,0 0,0 0,-0.146396 0.0488,-0.276525 0.146396,-0.406655 0,0 0,0 0,0 0.146396,-0.195194 0.357857,-0.292792 0.60185,-0.292792 0,0 0,0 0,0 0.0976,0 0.178928,0.01627 0.260259,0.0488 0,0 0,0 0,0 0.276525,0.113863 0.47172,0.569317 0.569317,1.398893 0,0 0,0 0,0 0.113863,1.024771 0.487986,2.212203 1.138634,3.529765 0,0 0,0 0,0 0.260259,0.536785 0.390389,0.862109 0.390389,1.008505 0,0 0,0 0,0 0,0.0488 -0.01627,0.113863 -0.01627,0.113863 0,0 0,0 0,0 -0.113863,0.309058 -0.325324,0.455454 -0.634381,0.455454 0,0 0,0 0,0 -0.211461,0 -0.390389,-0.0976 -0.569317,-0.292792 -0.178929,-0.178928 -0.390389,-0.504252 -0.618116,-0.975972 0,0 0,0 0,0 0,0 -0.374123,-0.780777 -0.374123,-0.780777 0,0 -0.520518,0.536784 -0.520518,0.536784 -0.68318,0.699447 -1.366361,1.057303 -2.049541,1.057303 0,0 0,0 0,0 -0.146396,0 -0.309058,-0.03253 -0.47172,-0.08133 0,0 0,0 0,0 -0.276525,-0.113863 -0.569317,-0.374122 -0.910907,-0.81331 -0.34159,-0.439187 -0.618116,-0.910907 -0.829576,-1.415159 0,0 0,0 0,0 -0.08133,-0.211461 -0.13013,-0.422921 -0.146396,-0.618116 -0.01627,-0.178928 -0.03253,-0.601849 -0.0488,-1.268763 0,0 0,0 0,0 0,-0.731979 0.03253,-1.252498 0.08133,-1.529023 0.0488,-0.276525 0.162662,-0.487986 0.325324,-0.601849 z m 8.507212,-1.96821 c 0.08133,-0.0488 0.146396,-0.06507 0.178929,-0.06507 0,0 0,0 0,0 0,0 0.0976,0 0.243993,0.08133 0,0 0,0 0,0 0.195194,0.08133 0.292791,0.243993 0.292791,0.47172 0,0 0,0 0,0 0,0.260259 -0.113863,0.439187 -0.357856,0.536784 0,0 0,0 0,0 -0.13013,0.0488 -0.211461,0.06507 -0.211461,0.06507 0,0 0,0 0,0 -0.0488,0 -0.146396,-0.0488 -0.260259,-0.13013 0,0 0,0 0,0 -0.178928,-0.130129 -0.260259,-0.292791 -0.260259,-0.471719 0,0 0,0 0,0 0,-0.227727 0.13013,-0.390389 0.374122,-0.487986 z m 0,2.358598 c 0.113864,-0.113863 0.26026,-0.162662 0.455454,-0.162662 0.195194,0 0.34159,0.0488 0.455454,0.162662 0,0 0,0 0,0 0.178928,0.195195 0.292791,1.252498 0.34159,3.171909 0,0 0,0 0,0 0.01627,0.764512 0.03253,1.187433 0.03253,1.301296 0,0 0,0 0,0 0,0.374123 -0.01627,0.60185 -0.06507,0.715713 -0.0488,0.113863 -0.146395,0.195194 -0.309057,0.276525 0,0 0,0 0,0 -0.113864,0.06507 -0.211461,0.0976 -0.292792,0.0976 0,0 0,0 0,0 -0.113863,0 -0.243993,-0.06506 -0.390389,-0.211461 0,0 0,0 0,0 -0.113863,-0.0976 -0.195194,-0.195194 -0.21146,-0.309058 -0.03253,-0.113863 -0.06507,-0.422921 -0.0976,-0.959706 0,0 0,0 0,0 -0.0488,-0.780777 -0.06507,-1.610353 -0.06507,-2.504994 0,0 0,0 0,0 0,0 0,-0.504252 0,-0.504252 0,-0.60185 0.0488,-0.959706 0.146395,-1.07357 z m 4.473211,-3.871355 c 0.162662,-0.178928 0.34159,-0.260259 0.536784,-0.260259 0,0 0,0 0,0 0.178928,0 0.309058,0.06507 0.422921,0.195194 0,0 0,0 0,0 0.0976,0.0976 0.146396,0.227727 0.146396,0.390389 0,0 0,0 0,0 0,0.13013 0,0.243993 -0.01627,0.34159 0,0 0,0 0,0 0,0 0,0.0488 0,0.0976 -0.01627,0.0488 -0.01627,0.0976 -0.01627,0.13013 0,0 0,0 0,0 0,0.374123 0.03253,0.894641 0.0976,1.545289 0.0488,0.666914 0.0976,1.008504 0.146396,1.057303 0,0 0,0 0,0 0,0 0.780777,0.06507 0.780777,0.06507 0.47172,0.03253 0.797044,0.06506 0.94344,0.0976 0.146396,0.03253 0.260259,0.0976 0.357856,0.195194 0,0 0,0 0,0 0.113864,0.113864 0.162662,0.260259 0.162662,0.455454 0,0.195194 -0.0488,0.34159 -0.162662,0.455453 0,0 0,0 0,0 -0.113863,0.113864 -0.487986,0.178929 -1.089835,0.178929 0,0 0,0 0,0 0,0 -0.927173,0 -0.927173,0 0,0 -0.01627,1.236231 -0.01627,1.236231 0,0.21146 0,0.569317 0,1.073569 -0.01627,0.504252 -0.01627,0.829576 -0.03253,0.992238 0,0 0,0 0,0 0,0.601849 0,0.94344 -0.01627,0.992238 0,0 0,0 0,0 -0.01627,0.146396 -0.0976,0.260259 -0.227727,0.34159 -0.13013,0.0976 -0.276525,0.146396 -0.455454,0.146396 0,0 0,0 0,0 -0.276525,0 -0.455453,-0.113863 -0.569316,-0.357856 -0.113864,-0.227727 -0.162662,-0.666914 -0.162662,-1.301296 0,0 0,0 0,0 0,-0.406655 0.01627,-0.894641 0.0488,-1.480224 0,0 0,0 0,0 0.0488,-0.797044 0.06507,-1.236231 0.06507,-1.317562 0,0 0,0 0,0 0,-0.211461 -0.01627,-0.341591 -0.0488,-0.390389 0,0 0,0 0,0 -0.08133,-0.113864 -0.34159,-0.178928 -0.780777,-0.227727 0,0 0,0 0,0 -0.406655,-0.0488 -0.683181,-0.0976 -0.797044,-0.146396 -0.113863,-0.0488 -0.211461,-0.146396 -0.260259,-0.292791 0,0 0,0 0,0 -0.03253,-0.0976 -0.0488,-0.195195 -0.0488,-0.276526 0,0 0,0 0,0 0,-0.390389 0.374123,-0.585583 1.138634,-0.585583 0,0 0,0 0,0 0,0 0.650648,0 0.650648,0 -0.01627,-0.34159 -0.03253,-0.862108 -0.0488,-1.561555 -0.01627,-0.68318 -0.03253,-1.203699 -0.0488,-1.545289 0,0 0,0 0,0 z m 5.237712,1.512757 c 0.08133,-0.0488 0.146396,-0.06507 0.178928,-0.06507 0,0 0,0 0,0 0,0 0.0976,0 0.243993,0.08133 0,0 0,0 0,0 0.195194,0.08133 0.292791,0.243993 0.292791,0.47172 0,0 0,0 0,0 0,0.260259 -0.113863,0.439187 -0.357856,0.536784 0,0 0,0 0,0 -0.130129,0.0488 -0.21146,0.06507 -0.21146,0.06507 0,0 0,0 0,0 -0.0488,0 -0.146396,-0.0488 -0.26026,-0.13013 0,0 0,0 0,0 -0.178928,-0.130129 -0.260259,-0.292791 -0.260259,-0.471719 0,0 0,0 0,0 0,-0.227727 0.13013,-0.390389 0.374123,-0.487986 z m 0,2.358598 c 0.113863,-0.113863 0.260259,-0.162662 0.455453,-0.162662 0.195195,0 0.34159,0.0488 0.455454,0.162662 0,0 0,0 0,0 0.178928,0.195195 0.292791,1.252498 0.34159,3.171909 0,0 0,0 0,0 0.01627,0.764512 0.03253,1.187433 0.03253,1.301296 0,0 0,0 0,0 0,0.374123 -0.01627,0.60185 -0.06506,0.715713 -0.0488,0.113863 -0.146396,0.195194 -0.309058,0.276525 0,0 0,0 0,0 -0.113864,0.06507 -0.211461,0.0976 -0.292792,0.0976 0,0 0,0 0,0 -0.113863,0 -0.243993,-0.06506 -0.390388,-0.211461 0,0 0,0 0,0 -0.113864,-0.0976 -0.195195,-0.195194 -0.211461,-0.309058 -0.03253,-0.113863 -0.06507,-0.422921 -0.0976,-0.959706 0,0 0,0 0,0 -0.0488,-0.780777 -0.06507,-1.610353 -0.06507,-2.504994 0,0 0,0 0,0 0,0 0,-0.504252 0,-0.504252 0,-0.60185 0.0488,-0.959706 0.146396,-1.07357 z m 7.059536,1.106102 c -0.422922,-0.13013 -0.666915,-0.195194 -0.715713,-0.195194 0,0 0,0 0,0 0,0 -0.03253,0 -0.08133,0 -0.0488,0.01627 -0.0976,0.01627 -0.178928,0.03253 -0.08133,0.01627 -0.162662,0.01627 -0.211461,0.03253 0,0 0,0 0,0 -0.243993,0.03253 -0.439187,0.0976 -0.601849,0.178929 -0.162662,0.0976 -0.357857,0.276525 -0.60185,0.520518 0,0 0,0 0,0 -0.504252,0.536785 -0.748245,1.122368 -0.748245,1.756749 0,0 0,0 0,0 0,0.520519 0.178928,0.927174 0.520519,1.203699 0,0 0,0 0,0 0.162662,0.13013 0.34159,0.195195 0.520518,0.195195 0,0 0,0 0,0 0.13013,0 0.243993,0 0.325324,-0.01627 0,0 0,0 0,0 0.47172,-0.03253 0.992238,-0.21146 1.545289,-0.536784 0.536784,-0.325324 0.943439,-0.683181 1.187432,-1.073569 0,0 0,0 0,0 0.211461,-0.341591 0.309058,-0.650648 0.309058,-0.894641 0,0 0,0 0,0 0,-0.536785 -0.422921,-0.94344 -1.268763,-1.203699 z m -1.96821,-1.317562 c 0.471719,-0.243993 0.780777,-0.357857 0.959705,-0.357857 0,0 0,0 0,0 0.08133,0 0.13013,0 0.178928,0.01627 0,0 0,0 0,0 0.309058,0.0488 0.699447,0.146395 1.203699,0.292791 0.487986,0.146396 0.81331,0.276526 0.992238,0.390389 0,0 0,0 0,0 0.666914,0.374123 1.089836,0.992238 1.28503,1.854347 0,0 0,0 0,0 0.01627,0.08133 0.03253,0.195194 0.03253,0.374122 0,0 0,0 0,0 0,0.780778 -0.325324,1.512757 -0.992238,2.212203 0,0 0,0 0,0 -0.309057,0.341591 -0.731979,0.666915 -1.268763,0.975972 -0.536785,0.309058 -1.057303,0.520519 -1.545289,0.634382 0,0 0,0 0,0 -0.243993,0.0488 -0.504252,0.08133 -0.748245,0.08133 0,0 0,0 0,0 -0.536785,0 -0.959706,-0.08133 -1.236231,-0.227727 0,0 0,0 0,0 -0.406655,-0.21146 -0.748246,-0.569317 -1.024771,-1.089835 -0.276525,-0.520518 -0.406655,-1.057303 -0.406655,-1.594088 0,0 0,0 0,0 0,-0.0976 0.01627,-0.243993 0.03253,-0.439187 0,0 0,0 0,0 0.113864,-0.634382 0.406655,-1.236231 0.845843,-1.789282 0.439187,-0.553051 0.992238,-0.992238 1.691685,-1.333828 z m 6.099822,-0.195195 c 0.13013,-0.113863 0.260259,-0.178928 0.390389,-0.178928 0,0 0,0 0,0 0.146396,0 0.276525,0.06506 0.390389,0.178928 0,0 0,0 0,0 0.113863,0.08133 0.178928,0.195195 0.21146,0.309058 0.01627,0.113864 0.0488,0.406655 0.0976,0.878375 0,0 0,0 0,0 0.0488,0.699447 0.0976,1.057303 0.146396,1.057303 0,0 0,0 0,0 0,0 0.03253,-0.01627 0.03253,-0.01627 0,0 0,0 0,0 0.797043,-1.089836 1.480224,-1.740484 2.049541,-1.984477 0,0 0,0 0,0 0.195194,-0.08133 0.422921,-0.113863 0.699446,-0.113863 0,0 0,0 0,0 0.374123,0 0.683181,0.06506 0.927174,0.211461 0,0 0,0 0,0 0.4391869,0.243993 0.7807771,0.748245 1.0410363,1.512756 0,0 0,0 0,0 0.1138634,0.325324 0.1789282,0.60185 0.1951944,0.81331 0.016266,0.227727 0.032532,0.797044 0.048799,1.724217 0,0 0,0 0,0 0,0.894641 -0.016266,1.447692 -0.032532,1.62662 -0.016266,0.178928 -0.081331,0.325324 -0.1789282,0.439188 0,0 0,0 0,0 -0.1301296,0.146395 -0.2927916,0.227726 -0.4717198,0.227726 0,0 0,0 0,0 -0.1951944,0 -0.3578564,-0.08133 -0.487986,-0.227726 0,0 0,0 0,0 -0.097597,-0.0976 -0.1463959,-0.227727 -0.1626619,-0.406655 -0.01627,-0.178929 -0.0488,-0.699447 -0.06507,-1.577822 0,0 0,0 0,0 -0.01627,-0.829576 -0.0488,-1.350094 -0.06507,-1.594087 -0.01627,-0.243993 -0.08133,-0.487986 -0.178928,-0.731979 0,0 0,0 0,0 -0.0976,-0.260259 -0.162662,-0.422921 -0.21146,-0.47172 -0.0488,-0.0488 -0.162662,-0.08133 -0.309058,-0.0976 0,0 0,0 0,0 0,0 -0.113864,0 -0.113864,0 -0.146395,0 -0.390388,0.162662 -0.731979,0.504252 0,0 0,0 0,0 -0.374122,0.374123 -0.666914,0.748245 -0.894641,1.1549 0,0 0,0 0,0 -0.178928,0.309058 -0.390388,0.748245 -0.601849,1.301296 -0.21146,0.569317 -0.325324,0.927173 -0.325324,1.073569 0,0 0,0 0,0 0,0.13013 -0.0488,0.276526 -0.162662,0.422921 -0.113863,0.146396 -0.227727,0.26026 -0.357856,0.309058 0,0 0,0 0,0 -0.06507,0.03253 -0.146396,0.0488 -0.227727,0.0488 0,0 0,0 0,0 -0.276525,0 -0.47172,-0.0976 -0.585583,-0.292792 0,0 0,0 0,0 -0.03253,-0.06506 -0.08133,-0.68318 -0.146396,-1.870613 -0.06506,-1.187432 -0.113863,-2.261001 -0.13013,-3.25324 0,0 0,0 0,0 0,0 0,-0.390388 0,-0.390388 0,-0.178929 0.01627,-0.309058 0.03253,-0.374123 0.01627,-0.06507 0.08133,-0.13013 0.178928,-0.211461 z"
         id="text1"
         transform="rotate(-135)"
         aria-label="Tuition&#10;" /><text
         xml:space="preserve"
         style="font-style:normal;font-weight:normal;font-size:10.9684px;font-family:sans-serif;display:none;fill:#000000;fill-opacity:1;stroke:none;stroke-width:0.147855"
         x="-32.034954"
         y="2.5972011"
         id="text1-4"
         transform="rotate(-135)"><tspan
           sodipodi:role="line"
           style="font-style:normal;font-variant:normal;font-weight:500;font-stretch:normal;font-size:16.2662px;font-family:isaiahFont;-inkscape-font-specification:'isaiahFont, Medium';font-variant-ligatures:normal;font-variant-caps:normal;font-variant-numeric:normal;font-variant-east-asian:normal;text-align:center;text-anchor:middle;stroke-width:0.147855"
           x="-32.034954"
           y="2.5972011"
           id="tspan3-6">PASS</tspan><tspan
           sodipodi:role="line"
           style="font-style:normal;font-variant:normal;font-weight:500;font-stretch:normal;font-size:16.2662px;font-family:isaiahFont;-inkscape-font-specification:'isaiahFont, Medium';font-variant-ligatures:normal;font-variant-caps:normal;font-variant-numeric:normal;font-variant-east-asian:normal;text-align:center;text-anchor:middle;stroke-width:0.147855"
           x="-32.034954"
           y="17.051794"
           id="tspan6-4" /></text><path
         style="font-weight:500;font-size:11.1069px;font-family:isaiahFont;-inkscape-font-specification:'isaiahFont, Medium';text-align:center;text-anchor:middle;stroke-width:0.147855"
         d="m -44.389989,51.498762 c -0.28878,-0.08886 -0.455383,-0.133283 -0.488704,-0.133283 0,0 0,0 0,0 0,0 -0.02221,0 -0.05553,0 -0.03332,0.01111 -0.06664,0.01111 -0.122175,0.02221 -0.05553,0.01111 -0.11107,0.01111 -0.14439,0.02221 0,0 0,0 0,0 -0.166604,0.02221 -0.299887,0.06664 -0.410956,0.122176 -0.111069,0.06664 -0.244351,0.188817 -0.410955,0.35542 0,0 0,0 0,0 -0.344314,0.366528 -0.510917,0.766377 -0.510917,1.199546 0,0 0,0 0,0 0,0.355421 0.122176,0.633093 0.355421,0.82191 0,0 0,0 0,0 0.111069,0.08886 0.233244,0.133283 0.35542,0.133283 0,0 0,0 0,0 0.08886,0 0.166604,0 0.222138,-0.01111 0,0 0,0 0,0 0.3221,-0.02221 0.677521,-0.144389 1.055156,-0.366527 0.366528,-0.222138 0.6442,-0.46649 0.810804,-0.733056 0,0 0,0 0,0 0.144389,-0.233245 0.211031,-0.444276 0.211031,-0.610879 0,0 0,0 0,0 0,-0.366528 -0.28878,-0.644201 -0.866338,-0.821911 z m -1.343935,-0.899659 c 0.3221,-0.166603 0.533131,-0.244352 0.655307,-0.244352 0,0 0,0 0,0 0.05553,0 0.08886,0 0.122176,0.01111 0,0 0,0 0,0 0.211031,0.03332 0.477596,0.09996 0.82191,0.199924 0.333207,0.09996 0.555345,0.188818 0.677521,0.266566 0,0 0,0 0,0 0.455383,0.255459 0.744162,0.677521 0.877445,1.266187 0,0 0,0 0,0 0.01111,0.05553 0.02221,0.133282 0.02221,0.255458 0,0 0,0 0,0 0,0.533131 -0.222138,1.032942 -0.677521,1.510539 0,0 0,0 0,0 -0.211031,0.233245 -0.49981,0.455383 -0.866338,0.666414 -0.366528,0.211031 -0.721949,0.355421 -1.055156,0.433169 0,0 0,0 0,0 -0.166603,0.03332 -0.344314,0.05553 -0.510917,0.05553 0,0 0,0 0,0 -0.366528,0 -0.655307,-0.05553 -0.844124,-0.155496 0,0 0,0 0,0 -0.277673,-0.14439 -0.510918,-0.388742 -0.699735,-0.744163 -0.188817,-0.35542 -0.277673,-0.721948 -0.277673,-1.088476 0,0 0,0 0,0 0,-0.06664 0.01111,-0.166603 0.02221,-0.299886 0,0 0,0 0,0 0.07775,-0.433169 0.277673,-0.844125 0.577559,-1.221759 0.299886,-0.377635 0.677521,-0.677521 1.155118,-0.910766 z m 4.198407,-0.03332 c 0.122176,-0.122176 0.233245,-0.17771 0.355421,-0.17771 0,0 0,0 0,0 0.09996,0 0.199924,0.04443 0.277672,0.133283 0,0 0,0 0,0 0.06664,0.07775 0.09996,0.155496 0.09996,0.233245 0,0 0,0 0,0 0,0.06664 0,0.122176 -0.01111,0.17771 0,0 0,0 0,0 -0.01111,0.03332 -0.01111,0.111069 -0.01111,0.222138 0,0.111069 0.01111,0.266566 0.02221,0.477597 0,0 0,0 0,0 0.03332,0.255458 0.06664,0.377634 0.06664,0.377634 0,0 0,0 0,0 0,0 0.03332,-0.02221 0.06664,-0.07775 0,0 0,0 0,0 0.277673,-0.433169 0.633093,-0.78859 1.044049,-1.077369 0.410955,-0.277673 0.78859,-0.422062 1.132904,-0.433169 0,0 0,0 0,0 0,0 0.02221,0 0.02221,0 0.299887,0 0.577559,0.08885 0.821911,0.255458 0.244352,0.177711 0.366528,0.366528 0.366528,0.566452 0,0 0,0 0,0 0,0.07775 -0.02221,0.155497 -0.07775,0.233245 0,0 0,0 0,0 -0.09996,0.133283 -0.233245,0.199924 -0.377634,0.199924 0,0 0,0 0,0 -0.122176,0 -0.266566,-0.05553 -0.410956,-0.155496 0,0 0,0 0,0 -0.09996,-0.06664 -0.222138,-0.09996 -0.35542,-0.09996 -0.133283,0 -0.3221,0.07775 -0.566452,0.244351 -0.244352,0.166604 -0.433169,0.333207 -0.577559,0.522025 0,0 0,0 0,0 -0.366528,0.488703 -0.633093,1.044048 -0.78859,1.654928 0,0 0,0 0,0 -0.122176,0.455383 -0.266566,0.710842 -0.433169,0.78859 0,0 0,0 0,0 -0.04443,0.02221 -0.08885,0.03332 -0.14439,0.03332 0,0 0,0 0,0 -0.188817,0 -0.333207,-0.09996 -0.410955,-0.28878 0,0 0,0 0,0 -0.122176,-0.255459 -0.211031,-1.066262 -0.255459,-2.421304 0,0 0,0 0,0 0,0 -0.03332,-1.221759 -0.03332,-1.221759 z m 10.018428,-3.032183 c 0.14439,0 0.177711,0.01111 0.266566,0.06664 0.188817,0.14439 0.255458,0.333207 0.199924,0.566452 -0.02221,0.08886 -0.04443,0.255459 -0.05554,0.377635 -0.01111,0.122175 -0.03332,0.333207 -0.04443,0.477596 -0.01111,0.14439 -0.02221,0.821911 -0.02221,1.521646 -0.01111,0.688627 -0.02221,1.488324 -0.03332,1.777104 -0.01111,0.277672 -0.03332,0.82191 -0.04443,1.210652 -0.01111,0.388741 -0.03332,0.82191 -0.05553,0.955193 -0.02221,0.14439 -0.02221,0.266566 -0.02221,0.28878 0.02221,0.03332 0.06664,0.04443 0.166604,0.01111 0.04443,-0.01111 0.255459,-0.03332 0.477597,-0.05553 0.544238,-0.03332 0.677521,-0.01111 0.855231,0.155497 0.133283,0.133282 0.188817,0.255458 0.166604,0.433169 -0.02221,0.133282 -0.07775,0.222138 -0.211032,0.333207 0,0 -0.09996,0.08886 -0.09996,0.08886 0,0 -0.455383,0.03332 -0.455383,0.03332 -0.255458,0.02221 -0.588665,0.05553 -0.744162,0.07775 -0.166603,0.01111 -0.399848,0.04443 -0.533131,0.05553 -0.122176,0.01111 -0.310993,0.03332 -0.422062,0.04443 -0.333207,0.04443 -1.032942,0.06664 -1.166225,0.04443 -0.233245,-0.03332 -0.310993,-0.06664 -0.410955,-0.155497 -0.177711,-0.17771 -0.199924,-0.410955 -0.07775,-0.599773 0.111069,-0.17771 0.299886,-0.244351 0.633093,-0.244351 0.266565,0 0.588666,-0.03332 0.621986,-0.05553 0.07775,-0.05553 0.111069,-0.488704 0.199924,-2.176952 0.02221,-0.233245 0.03332,-0.566452 0.05554,-0.744163 0.01111,-0.166603 0.01111,-0.533131 0.02221,-0.810803 0,-0.266566 0.01111,-0.710842 0.02221,-0.977408 0.01111,-0.266565 0.01111,-0.488703 0.01111,-0.488703 0,0 -0.04443,0.02221 -0.08885,0.05553 -0.17771,0.166604 -0.244352,0.199924 -0.410955,0.199924 -0.188817,0 -0.288779,-0.04443 -0.388742,-0.188817 -0.06664,-0.07775 -0.07775,-0.111069 -0.07775,-0.288779 0,-0.233245 0.01111,-0.244352 0.388742,-0.755269 0.522024,-0.710842 0.844124,-1.088477 1.021834,-1.188439 0.06664,-0.03332 0.133283,-0.04443 0.255459,-0.04443 z m 5.109165,0.08885 c 0.09996,0.06664 0.155497,0.07775 0.3221,0.09996 0.499811,0.04443 0.777483,0.188817 1.166225,0.588666 0.222138,0.233245 0.388742,0.477596 0.522024,0.777483 0.155497,0.310993 0.177711,0.35542 0.211031,0.488703 0.02221,0.06664 0.05554,0.155497 0.06664,0.199924 0.04443,0.14439 0.08885,0.377635 0.14439,0.688628 0.07775,0.522025 0.04443,1.321721 -0.06664,1.965922 -0.08885,0.477596 -0.14439,0.710841 -0.277672,1.055155 -0.03332,0.08886 -0.05554,0.14439 -0.14439,0.3221 -0.05553,0.155497 -0.366528,0.766376 -0.444276,0.899659 -0.222138,0.366528 -0.455383,0.655307 -0.721949,0.866338 -0.09996,0.08886 -0.211031,0.155497 -0.211031,0.155497 0,0 -0.04443,0.01111 -0.05553,0.03332 -0.06664,0.05553 -0.366528,0.155496 -0.577559,0.199924 -0.399848,0.08886 -0.899659,0.04443 -1.188438,-0.09996 -0.310994,-0.155497 -0.699735,-0.677521 -0.944087,-1.25508 -0.06664,-0.14439 -0.133283,-0.299886 -0.14439,-0.333207 -0.02221,-0.04443 -0.03332,-0.07775 -0.03332,-0.09996 0,0 -0.01111,-0.05553 -0.03332,-0.08886 -0.07775,-0.188818 -0.14439,-0.377635 -0.211031,-0.6442 -0.02221,-0.07775 -0.04443,-0.177711 -0.05553,-0.233245 -0.09996,-0.388742 -0.133282,-0.655308 -0.133282,-1.288401 0,-0.488703 0.01111,-0.677521 0.04443,-0.855231 0.07775,-0.433169 0.111069,-0.599773 0.233245,-0.93298 0.04443,-0.122176 0.28878,-0.610879 0.399849,-0.810803 0.04443,-0.07775 0.09996,-0.188818 0.133282,-0.233245 0.14439,-0.277673 0.510918,-0.777483 0.733056,-1.021835 0.222138,-0.233245 0.488703,-0.410956 0.766376,-0.499811 0.166603,-0.05553 0.355421,-0.03332 0.49981,0.05553 z m -0.555345,1.188438 c -0.288779,0.28878 -0.833017,1.266187 -0.999621,1.788211 -0.144389,0.444276 -0.211031,1.210652 -0.144389,1.72157 0.05553,0.399848 0.155496,0.877445 0.244351,1.121797 0.02221,0.05553 0.04443,0.122175 0.05553,0.155496 0.02221,0.03332 0.04443,0.122176 0.07775,0.188817 0.02221,0.06664 0.05554,0.155497 0.06664,0.188818 0.01111,0.03332 0.03332,0.07775 0.04443,0.111069 0.01111,0.02221 0.06664,0.122176 0.111069,0.222138 0.04443,0.111069 0.133283,0.266565 0.188818,0.344314 0.133282,0.211031 0.211031,0.244351 0.477596,0.233245 0.233245,-0.02221 0.355421,-0.06664 0.533131,-0.199925 0.111069,-0.08886 0.333207,-0.35542 0.333207,-0.399848 0,0 0.01111,-0.03332 0.03332,-0.05553 0.133283,-0.155496 0.522024,-0.9663 0.655307,-1.366148 0.06664,-0.211031 0.07775,-0.266566 0.14439,-0.688628 0.222138,-1.321721 -0.01111,-2.521266 -0.621986,-3.132146 -0.155497,-0.14439 -0.266566,-0.199924 -0.510918,-0.211031 -0.211031,-0.02221 -0.433169,-0.06664 -0.510917,-0.111069 -0.06664,-0.03332 -0.05553,-0.03332 -0.177711,0.08886 z m 9.396446,-0.566452 c 0,0 0.02221,0 0.04443,-0.01111 0.01111,0 0.03332,0 0.03332,0 0.211032,0 0.355421,0.05553 0.422063,0.166604 0.03332,0.05553 0.04443,0.155496 0.04443,0.288779 0,0.08886 -0.02221,0.177711 -0.07775,0.266566 -0.05554,0.08886 -0.188817,0.244352 -0.377635,0.455383 -1.788211,1.965921 -3.254321,3.665277 -4.398332,5.109174 -0.255459,0.3221 -0.422062,0.522024 -0.522024,0.610879 -0.09996,0.09996 -0.199925,0.14439 -0.28878,0.14439 -0.08885,0 -0.17771,-0.04443 -0.277672,-0.14439 -0.09996,-0.08886 -0.14439,-0.17771 -0.14439,-0.255458 0,-0.155497 0.188817,-0.477597 0.577559,-0.955194 0.02221,-0.03332 0.155496,-0.199924 0.388741,-0.49981 0.233245,-0.299887 0.433169,-0.544238 0.599773,-0.75527 0.677521,-0.877445 1.488325,-1.821531 2.410197,-2.854473 0.921873,-1.032942 1.443897,-1.554966 1.566073,-1.566073 z m -5.098067,1.188439 c 0.133283,-0.06664 0.233245,-0.09996 0.299886,-0.09996 0.05553,0 0.155497,0.03332 0.299887,0.08886 0.199924,0.08886 0.299886,0.244351 0.299886,0.477596 0,0.07775 -0.01111,0.14439 -0.03332,0.222138 -0.03332,0.111069 -0.155496,0.233245 -0.344314,0.366528 -0.199924,0.14439 -0.355421,0.211031 -0.477596,0.211031 -0.122176,0 -0.233245,-0.05553 -0.333207,-0.166603 -0.09996,-0.09996 -0.155497,-0.222138 -0.155497,-0.344314 0,-0.155497 0.04443,-0.310993 0.133283,-0.455383 0.07775,-0.14439 0.188817,-0.244352 0.310993,-0.299886 z m 4.309477,3.609742 c 0.122176,-0.09996 0.255459,-0.155497 0.388742,-0.155497 0.188817,0 0.344314,0.07775 0.488703,0.233245 0.133283,0.166604 0.199925,0.366528 0.199925,0.599773 0,0.166604 -0.06664,0.3221 -0.211032,0.46649 -0.144389,0.14439 -0.299886,0.211031 -0.477596,0.211031 -0.277673,0 -0.488704,-0.08886 -0.633094,-0.266566 -0.07775,-0.07775 -0.111069,-0.199924 -0.111069,-0.344314 0,-0.299886 0.122176,-0.544238 0.355421,-0.744162 z"
         id="text1-9"
         transform="rotate(-135)"
         aria-label="or 10%&#10;" /><path
         style="font-weight:500;font-size:11.1069px;font-family:isaiahFont;-inkscape-font-specification:'isaiahFont, Medium';text-align:center;text-anchor:middle;stroke-width:0.147855"
         d="m -49.971211,38.221982 c -0.222138,-0.06664 -0.422062,-0.09996 -0.61088,-0.09996 0,0 0,0 0,0 -0.133282,0 -0.277672,0.02221 -0.422062,0.05553 0,0 0,0 0,0 0,0 -0.188817,0.04443 -0.188817,0.04443 0,0 0.03332,0.555345 0.03332,0.555345 0.01111,0.06664 0.02221,0.222138 0.03332,0.46649 0.01111,0.255459 0.02221,0.422062 0.03332,0.510918 0,0 0,0 0,0 0,0 0.04443,0.410955 0.04443,0.410955 0,0 0.3221,0.09996 0.3221,0.09996 0.222138,0.06664 0.455383,0.09996 0.688628,0.09996 0,0 0,0 0,0 0.255458,0 0.455382,-0.03332 0.599772,-0.111069 0,0 0,0 0,0 0.166604,-0.08886 0.28878,-0.188817 0.355421,-0.299886 0.05553,-0.09996 0.08886,-0.266566 0.08886,-0.488704 0,0 0,0 0,0 0,-0.633093 -0.3221,-1.044048 -0.977407,-1.243973 z m -0.921873,-0.977407 c 0.122176,-0.03332 0.255459,-0.04443 0.388742,-0.04443 0.133283,0 0.310993,0.02221 0.522024,0.06664 0,0 0,0 0,0 0.855231,0.188817 1.455004,0.61088 1.777104,1.266187 0,0 0,0 0,0 0.09996,0.199924 0.14439,0.510917 0.14439,0.944086 0,0 0,0 0,0 0,0.310993 -0.01111,0.510918 -0.02221,0.599773 -0.01111,0.09996 -0.06664,0.222138 -0.14439,0.366527 0,0 0,0 0,0 -0.188817,0.333207 -0.544238,0.588666 -1.077369,0.777483 0,0 0,0 0,0 -0.288779,0.08886 -0.544238,0.133283 -0.766376,0.133283 0,0 0,0 0,0 -0.166604,0 -0.344314,-0.02221 -0.544238,-0.06664 0,0 0,0 0,0 0,0 -0.333207,-0.07775 -0.333207,-0.07775 0,0 0,0.444276 0,0.444276 0,0.344313 0.02221,0.810803 0.05553,1.421683 0,0 0,0 0,0 0.02221,0.366528 0.03332,0.621986 0.03332,0.766376 0,0 0,0 0,0 0,0.188817 -0.02221,0.333207 -0.07775,0.410955 0,0 0,0 0,0 -0.09996,0.166604 -0.233245,0.244352 -0.410956,0.244352 0,0 0,0 0,0 -0.233245,0 -0.388741,-0.122176 -0.455383,-0.366528 0,0 0,0 0,0 -0.03332,-0.122176 -0.05553,-0.633093 -0.08886,-1.532752 0,0 0,0 0,0 -0.02221,-0.821911 -0.06664,-1.832638 -0.122176,-3.043291 0,0 0,0 0,0 -0.03332,-0.744162 -0.05553,-1.210652 -0.05553,-1.421683 0,0 0,0 0,0 0,-0.255458 0.02221,-0.433169 0.05553,-0.510917 0.03332,-0.07775 0.09996,-0.122176 0.199924,-0.155497 0,0 0,0 0,0 0.06664,-0.01111 0.377635,-0.08885 0.921873,-0.222138 z m 5.553447,4.020698 c 0,-0.188817 -0.02221,-0.277672 -0.05553,-0.277672 0,0 0,0 0,0 -0.05553,0 -0.14439,0.09996 -0.28878,0.288779 -0.14439,0.199924 -0.255459,0.399848 -0.344314,0.588666 0,0 0,0 0,0 -0.122176,0.244351 -0.188817,0.488703 -0.211031,0.721948 0,0 0,0 0,0 -0.01111,0.05554 -0.01111,0.133283 -0.01111,0.222138 0,0 0,0 0,0 0,0.09996 0.03332,0.177711 0.09996,0.244352 0,0 0,0 0,0 0.07775,0.07775 0.14439,0.122176 0.199925,0.122176 0,0 0,0 0,0 0.07775,0 0.17771,-0.04443 0.299886,-0.14439 0.122176,-0.09996 0.211031,-0.199924 0.288779,-0.310993 0,0 0,0 0,0 0.08886,-0.133283 0.133283,-0.244352 0.133283,-0.333207 0,0 0,0 0,0 0,-0.02221 -0.01111,-0.14439 -0.04443,-0.366528 0,0 0,0 0,0 -0.04443,-0.344314 -0.06664,-0.588665 -0.06664,-0.755269 z m 0.05554,-1.388362 c 0.07775,-0.03332 0.211031,-0.05553 0.377634,-0.08886 0,0 0,0 0,0 0.111069,0 0.222138,0.02221 0.344314,0.06664 0.111069,0.05553 0.17771,0.111069 0.211031,0.17771 0,0 0,0 0,0 0.06664,0.122176 0.122176,0.344314 0.166604,0.677521 0.04443,0.333207 0.06664,0.655307 0.06664,0.9663 0,0 0,0 0,0 0,0.122176 -0.01111,0.266566 -0.02221,0.433169 0,0 0,0 0,0 -0.02221,0.122176 -0.03332,0.211032 -0.03332,0.28878 0,0 0,0 0,0 0,0.07775 0.04443,0.222138 0.122175,0.422062 0,0 0,0 0,0 0.155497,0.3221 0.399849,0.477597 0.744163,0.477597 0,0 0,0 0,0 0.133283,0 0.244352,0.03332 0.344314,0.111069 0,0 0,0 0,0 0.09996,0.08886 0.155496,0.199924 0.155496,0.333207 0,0 0,0 0,0 0,0.166603 -0.06664,0.288779 -0.188817,0.377634 0,0 0,0 0,0 -0.122176,0.07775 -0.266566,0.122176 -0.455383,0.122176 0,0 0,0 0,0 -0.455383,0 -0.821911,-0.155496 -1.121797,-0.466489 0,0 0,0 0,0 0,0 -0.188817,-0.199925 -0.188817,-0.199925 0,0 -0.299886,0.222138 -0.299886,0.222138 -0.322101,0.233245 -0.61088,0.355421 -0.866339,0.355421 -0.255458,0 -0.488703,-0.07775 -0.710841,-0.222138 -0.222138,-0.14439 -0.377635,-0.333207 -0.46649,-0.566452 0,0 0,0 0,0 -0.06664,-0.17771 -0.09996,-0.366527 -0.09996,-0.577559 0,0 0,0 0,0 0,-0.566452 0.188817,-1.14401 0.577559,-1.743783 0.388741,-0.599773 0.833017,-0.988514 1.343935,-1.166224 z m 3.476463,-0.06664 c 0.05553,-0.06664 0.166603,-0.09996 0.3221,-0.09996 0,0 0,0 0,0 0.122176,0 0.211031,0.02221 0.255459,0.07775 0,0 0,0 0,0 0.03332,0.03332 0.144389,0.233245 0.333207,0.588666 0,0 0,0 0,0 0.133283,0.255459 0.3221,0.577559 0.566452,0.955193 0.244351,0.377635 0.444276,0.655308 0.588665,0.821911 0,0 0,0 0,0 0,0 0.166604,0.188817 0.166604,0.188817 0,0 0.166603,-0.388741 0.166603,-0.388741 0.122176,-0.255459 0.277673,-0.621987 0.444276,-1.088476 0,0 0,0 0,0 0.166604,-0.455383 0.28878,-0.721949 0.355421,-0.78859 0,0 0,0 0,0 0.05553,-0.05554 0.155497,-0.07775 0.310993,-0.07775 0,0 0,0 0,0 0.122176,0 0.211031,0.03332 0.28878,0.111069 0.07775,0.07775 0.111069,0.188818 0.111069,0.310994 0,0 0,0 0,0 0,0.144389 -0.166604,0.633093 -0.488704,1.455004 -0.333207,0.82191 -0.655307,1.554966 -0.977407,2.210273 0,0 0,0 0,0 -0.233245,0.488703 -0.510917,1.010728 -0.833018,1.554966 -0.3221,0.555345 -0.533131,0.888552 -0.6442,1.010728 0,0 0,0 0,0 -0.09996,0.09996 -0.211031,0.155496 -0.333207,0.155496 0,0 0,0 0,0 -0.09996,0 -0.188817,-0.03332 -0.266565,-0.111069 0,0 0,0 0,0 -0.111069,-0.09996 -0.166604,-0.211031 -0.166604,-0.344314 0,0 0,0 0,0 0,-0.17771 0.133283,-0.488703 0.410955,-0.944086 0,0 0,0 0,0 0.277673,-0.433169 0.588666,-0.988514 0.944087,-1.654928 0,0 0,0 0,0 0,0 0.17771,-0.344314 0.17771,-0.344314 0,0 -0.188817,-0.3221 -0.188817,-0.3221 -0.122176,-0.211031 -0.255459,-0.433169 -0.422062,-0.6442 0,0 0,0 0,0 -0.377635,-0.510918 -0.710842,-1.055156 -0.999621,-1.643822 0,0 0,0 0,0 -0.14439,-0.288779 -0.222138,-0.522024 -0.222138,-0.699734 0,0 0,0 0,0 0,-0.111069 0.03332,-0.211032 0.09996,-0.28878 z m 10.684844,2.165846 c -0.14439,-0.199925 -0.244352,-0.299887 -0.28878,-0.299887 -0.04443,0 -0.06664,0.28878 -0.06664,0.855232 0,0.433169 0.01111,0.677521 0.02221,0.755269 0.01111,0.07775 0.06664,0.111069 0.144389,0.111069 0.07775,0 0.177711,-0.04443 0.277673,-0.14439 0.09996,-0.08886 0.17771,-0.188817 0.222138,-0.310993 0.01111,-0.04443 0.02221,-0.08885 0.02221,-0.122176 0,-0.255459 -0.111069,-0.533131 -0.333207,-0.844124 z m -1.39947,-2.943329 c -0.03332,-0.14439 -0.06664,-0.211031 -0.122176,-0.211031 -0.05553,0 -0.144389,0.06664 -0.266565,0.199924 -0.166604,0.188818 -0.255459,0.388742 -0.255459,0.599773 0,0.08886 0.01111,0.155496 0.04443,0.211031 0.03332,0.05553 0.133282,0.133283 0.277672,0.211031 0.14439,0.07775 0.244352,0.122176 0.3221,0.122176 0.03332,0 0.04443,-0.155497 0.04443,-0.46649 0,-0.266565 -0.01111,-0.488703 -0.04443,-0.666414 z m 0.277673,-2.232487 c 0.09996,-0.04443 0.155496,-0.06664 0.188817,-0.06664 0.03332,0 0.09996,0.03332 0.199924,0.111069 0.06664,0.04443 0.111069,0.09996 0.133283,0.17771 0.01111,0.07775 0.02221,0.233245 0.02221,0.477597 0,0 0,0.566452 0,0.566452 0,0 0.721948,0.233245 0.721948,0.233245 0.28878,0.09996 0.488704,0.166603 0.588666,0.222138 0.09996,0.05553 0.155497,0.111069 0.166604,0.17771 0.01111,0.04443 0.02221,0.111069 0.02221,0.188817 0,0.14439 -0.07775,0.255459 -0.222138,0.333207 -0.07775,0.03332 -0.144389,0.05553 -0.199924,0.05553 -0.08885,0 -0.244352,-0.03332 -0.46649,-0.111069 -0.233245,-0.07775 -0.388741,-0.122176 -0.488703,-0.122176 0,0 -0.02221,0 -0.02221,0 -0.01111,0.03332 -0.01111,0.07775 -0.01111,0.133283 0,0.14439 0.01111,0.344314 0.03332,0.588666 0,0 0.04443,0.699734 0.04443,0.699734 0,0 0.299887,0.177711 0.299887,0.177711 0.211031,0.122176 0.433169,0.299886 0.666414,0.555345 0.477596,0.49981 0.721948,1.021834 0.721948,1.566073 0,0.233245 -0.04443,0.433169 -0.122176,0.599772 -0.122176,0.28878 -0.277672,0.499811 -0.455383,0.6442 -0.188817,0.14439 -0.422062,0.244352 -0.721948,0.299887 0,0 -0.299887,0.05553 -0.299887,0.05553 0,0 -0.02221,0.46649 -0.02221,0.46649 -0.01111,0.3221 -0.03332,0.533131 -0.06664,0.633093 -0.03332,0.09996 -0.09996,0.166604 -0.222138,0.222138 -0.06664,0.03332 -0.133283,0.04443 -0.199924,0.04443 -0.05553,0 -0.111069,-0.01111 -0.166603,-0.04443 -0.188818,-0.09996 -0.28878,-0.433169 -0.28878,-0.988514 0,0 0,-0.566452 0,-0.566452 0,0 -0.422062,-0.255458 -0.422062,-0.255458 -0.266566,-0.166604 -0.533131,-0.377635 -0.78859,-0.655307 -0.166603,-0.177711 -0.266566,-0.299887 -0.299886,-0.377635 -0.04443,-0.07775 -0.06664,-0.188817 -0.06664,-0.333207 0,-0.3221 0.133283,-0.488704 0.410956,-0.499811 0.122176,0 0.244351,0.06664 0.344314,0.199925 0.09996,0.144389 0.244351,0.299886 0.422062,0.477596 0.17771,0.188818 0.288779,0.277673 0.3221,0.277673 0.05553,0 0.07775,-0.28878 0.07775,-0.877445 0,0 0,-0.877445 0,-0.877445 0,0 -0.533131,-0.199925 -0.533131,-0.199925 -0.61088,-0.233245 -0.988514,-0.588665 -1.121797,-1.044048 -0.03332,-0.133283 -0.04443,-0.233245 -0.04443,-0.310993 0,-0.366528 0.133283,-0.721949 0.388742,-1.07737 0.255459,-0.344314 0.555345,-0.555345 0.888552,-0.621986 0.122176,-0.03332 0.188817,-0.06664 0.222138,-0.111069 0.02221,-0.03332 0.04443,-0.155497 0.05553,-0.355421 0.02221,-0.244352 0.05553,-0.410955 0.08886,-0.499811 0.03332,-0.07775 0.111069,-0.144389 0.222138,-0.188817 z m 6.486436,0.09996 c 0.522024,0.122176 0.955193,0.533132 1.210652,1.132904 0.310993,0.721949 0.388742,1.221759 0.344314,2.176953 -0.02221,0.299886 -0.03332,0.599772 -0.05553,0.67752 -0.01111,0.06664 -0.03332,0.233245 -0.04443,0.366528 -0.06664,0.621987 -0.122176,0.955194 -0.344314,1.832639 -0.05553,0.222138 -0.155497,0.49981 -0.244352,0.699734 -0.05553,0.133283 -0.05553,0.14439 -0.01111,0.177711 0.03332,0.03332 0.09996,0.05553 0.211031,0.05553 0.14439,0.01111 0.177711,0 0.310994,-0.06664 0.122176,-0.06664 0.155496,-0.07775 0.333207,-0.07775 0.166603,0 0.199924,0 0.288779,0.06664 0.222138,0.166604 0.310993,0.433169 0.222138,0.677521 -0.07775,0.188817 -0.333207,0.399848 -0.666414,0.522024 -0.111069,0.04443 -0.188817,0.05553 -0.399848,0.05553 -0.3221,0 -0.477597,-0.03332 -0.899659,-0.211031 0,0 -0.155497,-0.06664 -0.155497,-0.06664 0,0 -0.133283,0.08886 -0.133283,0.08886 -0.366527,0.244352 -0.599772,0.322101 -1.088476,0.322101 -0.688628,0 -1.144011,-0.155497 -1.632714,-0.544239 -0.09996,-0.07775 -0.333207,-0.366527 -0.377635,-0.488703 -0.133283,-0.28878 -0.155496,-0.544238 -0.07775,-0.810804 0.08886,-0.310993 0.222138,-0.522024 0.444276,-0.688628 0.355421,-0.255458 0.932979,-0.299886 1.588287,-0.111069 0.3221,0.09996 0.599772,0.244352 0.866338,0.46649 0.07775,0.06664 0.14439,0.08885 0.14439,0.08885 0.02221,-0.03332 0.133282,-0.366527 0.166603,-0.510917 0.05553,-0.233245 0.09996,-0.388742 0.122176,-0.488704 0.05553,-0.222138 0.14439,-0.688628 0.17771,-0.977407 0.01111,-0.111069 0.02221,-0.299886 0.04443,-0.422062 0.122176,-1.11069 0.09996,-1.588287 -0.122176,-2.22138 -0.122176,-0.366528 -0.288779,-0.577559 -0.477597,-0.633093 -0.133282,-0.04443 -0.533131,-0.03332 -0.733055,0 -0.355421,0.07775 -0.555345,0.277672 -0.810804,0.810803 -0.09996,0.222138 -0.155496,0.333207 -0.155496,0.366528 0,0 -0.02221,0.09996 -0.05554,0.188817 -0.05553,0.199924 -0.199924,0.355421 -0.344314,0.377635 -0.155496,0.03332 -0.310993,0 -0.410955,-0.07775 -0.188817,-0.14439 -0.255459,-0.333207 -0.222138,-0.621987 0.02221,-0.122176 0.08886,-0.366528 0.133283,-0.46649 0.01111,-0.02221 0.04443,-0.07775 0.06664,-0.133282 0.310993,-0.710842 0.733055,-1.210653 1.188438,-1.388363 0.199925,-0.08886 0.310994,-0.111069 0.555345,-0.155497 0.28878,-0.04443 0.810804,-0.04443 1.044049,0.01111 z m -2.065883,6.864065 c -0.04443,0.07775 0.155496,0.244351 0.410955,0.333207 0.133283,0.05553 0.655307,0.09996 0.688628,0.05553 0.05553,-0.04443 -0.3221,-0.299886 -0.522025,-0.344314 -0.04443,-0.01111 -0.122176,-0.03332 -0.166603,-0.04443 -0.122176,-0.03332 -0.388742,-0.03332 -0.410955,0 z m 7.574898,-6.819637 c 0.09996,0.06664 0.155497,0.07775 0.3221,0.09996 0.499811,0.04443 0.777483,0.188817 1.166225,0.588666 0.222138,0.233245 0.388741,0.477596 0.522024,0.777483 0.155496,0.310993 0.17771,0.355421 0.211031,0.488703 0.02221,0.06664 0.05553,0.155497 0.06664,0.199925 0.04443,0.144389 0.08886,0.377634 0.14439,0.688627 0.07775,0.522025 0.04443,1.321721 -0.06664,1.965922 -0.08886,0.477596 -0.14439,0.710841 -0.277673,1.055155 -0.03332,0.08886 -0.05553,0.14439 -0.14439,0.3221 -0.05553,0.155497 -0.366527,0.766376 -0.444276,0.899659 -0.222138,0.366528 -0.455382,0.655307 -0.721948,0.866338 -0.09996,0.08886 -0.211031,0.155497 -0.211031,0.155497 0,0 -0.04443,0.01111 -0.05553,0.03332 -0.06664,0.05553 -0.366527,0.155496 -0.577558,0.199924 -0.399849,0.08885 -0.899659,0.04443 -1.188439,-0.09996 -0.310993,-0.155497 -0.699734,-0.677521 -0.944086,-1.25508 -0.06664,-0.14439 -0.133283,-0.299886 -0.14439,-0.333207 -0.02221,-0.04443 -0.03332,-0.07775 -0.03332,-0.09996 0,0 -0.01111,-0.05553 -0.03332,-0.08886 -0.07775,-0.188817 -0.14439,-0.377635 -0.211032,-0.6442 -0.02221,-0.07775 -0.04443,-0.177711 -0.05553,-0.233245 -0.09996,-0.388742 -0.133283,-0.655307 -0.133283,-1.288401 0,-0.488703 0.01111,-0.677521 0.04443,-0.855231 0.07775,-0.433169 0.111069,-0.599773 0.233245,-0.93298 0.04443,-0.122176 0.288779,-0.610879 0.399848,-0.810803 0.04443,-0.07775 0.09996,-0.188818 0.133283,-0.233245 0.14439,-0.277673 0.510917,-0.777483 0.733055,-1.021835 0.222138,-0.233245 0.488704,-0.410955 0.766376,-0.499811 0.166604,-0.05553 0.355421,-0.03332 0.499811,0.05553 z m -0.555345,1.188438 c -0.288779,0.28878 -0.833018,1.266187 -0.999621,1.788211 -0.14439,0.444276 -0.211031,1.210652 -0.14439,1.72157 0.05553,0.399848 0.155497,0.877445 0.244352,1.121797 0.02221,0.05553 0.04443,0.122176 0.05553,0.155496 0.02221,0.03332 0.04443,0.122176 0.07775,0.188818 0.02221,0.06664 0.05553,0.155496 0.06664,0.188817 0.01111,0.03332 0.03332,0.07775 0.04443,0.111069 0.01111,0.02221 0.06664,0.122176 0.111069,0.222138 0.04443,0.111069 0.133283,0.266565 0.188817,0.344314 0.133283,0.211031 0.211031,0.244352 0.477597,0.233245 0.233245,-0.02221 0.355421,-0.06664 0.533131,-0.199925 0.111069,-0.08885 0.333207,-0.35542 0.333207,-0.399848 0,0 0.01111,-0.03332 0.03332,-0.05553 0.133283,-0.155497 0.522024,-0.966301 0.655307,-1.366149 0.06664,-0.211031 0.07775,-0.266566 0.14439,-0.688628 0.222138,-1.321721 -0.01111,-2.521266 -0.621987,-3.132146 -0.155496,-0.14439 -0.266565,-0.199924 -0.510917,-0.211031 -0.211031,-0.02221 -0.433169,-0.06664 -0.510918,-0.111069 -0.06664,-0.03332 -0.05553,-0.03332 -0.17771,0.08886 z m 6.286516,-1.188438 c 0.09996,0.06664 0.155496,0.07775 0.3221,0.09996 0.49981,0.04443 0.777483,0.188817 1.166224,0.588666 0.222138,0.233245 0.388742,0.477596 0.522025,0.777483 0.155496,0.310993 0.17771,0.355421 0.211031,0.488703 0.02221,0.06664 0.05553,0.155497 0.06664,0.199925 0.04443,0.144389 0.08885,0.377634 0.14439,0.688627 0.07775,0.522025 0.04443,1.321721 -0.06664,1.965922 -0.08886,0.477596 -0.144389,0.710841 -0.277672,1.055155 -0.03332,0.08886 -0.05553,0.14439 -0.14439,0.3221 -0.05553,0.155497 -0.366528,0.766376 -0.444276,0.899659 -0.222138,0.366528 -0.455383,0.655307 -0.721948,0.866338 -0.09996,0.08886 -0.211031,0.155497 -0.211031,0.155497 0,0 -0.04443,0.01111 -0.05554,0.03332 -0.06664,0.05553 -0.366528,0.155496 -0.577559,0.199924 -0.399848,0.08885 -0.899659,0.04443 -1.188438,-0.09996 -0.310993,-0.155497 -0.699735,-0.677521 -0.944087,-1.25508 -0.06664,-0.14439 -0.133282,-0.299886 -0.144389,-0.333207 -0.02221,-0.04443 -0.03332,-0.07775 -0.03332,-0.09996 0,0 -0.01111,-0.05553 -0.03332,-0.08886 -0.07775,-0.188817 -0.144389,-0.377635 -0.211031,-0.6442 -0.02221,-0.07775 -0.04443,-0.177711 -0.05553,-0.233245 -0.09996,-0.388742 -0.133283,-0.655307 -0.133283,-1.288401 0,-0.488703 0.01111,-0.677521 0.04443,-0.855231 0.07775,-0.433169 0.111069,-0.599773 0.233245,-0.93298 0.04443,-0.122176 0.28878,-0.610879 0.399849,-0.810803 0.04443,-0.07775 0.09996,-0.188818 0.133283,-0.233245 0.144389,-0.277673 0.510917,-0.777483 0.733055,-1.021835 0.222138,-0.233245 0.488704,-0.410955 0.766376,-0.499811 0.166604,-0.05553 0.355421,-0.03332 0.499811,0.05553 z m -0.555345,1.188438 c -0.28878,0.28878 -0.833018,1.266187 -0.999621,1.788211 -0.14439,0.444276 -0.211032,1.210652 -0.14439,1.72157 0.05553,0.399848 0.155496,0.877445 0.244352,1.121797 0.02221,0.05553 0.04443,0.122176 0.05553,0.155496 0.02221,0.03332 0.04443,0.122176 0.07775,0.188818 0.02221,0.06664 0.05553,0.155496 0.06664,0.188817 0.01111,0.03332 0.03332,0.07775 0.04443,0.111069 0.01111,0.02221 0.06664,0.122176 0.111069,0.222138 0.04443,0.111069 0.133283,0.266565 0.188818,0.344314 0.133283,0.211031 0.211031,0.244352 0.477596,0.233245 0.233245,-0.02221 0.355421,-0.06664 0.533132,-0.199925 0.111069,-0.08885 0.333207,-0.35542 0.333207,-0.399848 0,0 0.01111,-0.03332 0.03332,-0.05553 0.133283,-0.155497 0.522025,-0.966301 0.655308,-1.366149 0.06664,-0.211031 0.07775,-0.266566 0.144389,-0.688628 0.222138,-1.321721 -0.01111,-2.521266 -0.621986,-3.132146 -0.155497,-0.14439 -0.266566,-0.199924 -0.510918,-0.211031 -0.211031,-0.02221 -0.433169,-0.06664 -0.510917,-0.111069 -0.06664,-0.03332 -0.05554,-0.03332 -0.17771,0.08886 z"
         id="text1-9-8"
         transform="rotate(-135)"
         aria-label="Pay $200&#10;" /><path
         class="st0"
         d="m 26.922007,-1.5121848 -4.523489,4.774665 9.84702,5.432839 c 0.839578,0.537237 1.59078,1.1442449 2.258256,1.8070698 0.716316,0.711665 1.34193,1.490775 1.881492,2.332679 l 5.067704,9.528398 4.714197,-4.714196 c 2.23965,-2.658277 -4.037418,-10.4330968 -6.091013,-12.6913528 -1.64427,-1.811722 -9.372576,-7.735283 -11.677346,-7.225955 -0.500026,0.11396 -0.993075,0.365136 -1.476821,0.755853 z m -11.09127,4.900253 5.681689,-5.681688 -0.179079,-0.179079 c -0.123262,-0.123263 -0.123262,-0.323273 0,-0.446535 l 1.527985,-1.527986 c 0.120937,-0.120936 0.323273,-0.123262 0.446535,0 l 0.179079,0.179079 0.534911,-0.534911 c -0.186056,-0.269782 -0.158147,-0.646545 0.0814,-0.886092 v 0 c 0.269781,-0.269782 0.716316,-0.269782 0.986097,0 l 0.881441,0.88144 c 0.269782,0.269782 0.272107,0.713991 0,0.986098 v 0 c -0.239547,0.239547 -0.616311,0.267455 -0.886092,0.0814 l -0.534911,0.534912 0.179079,0.179079 c 0.120936,0.120936 0.123262,0.323272 0,0.446534 l -1.527986,1.527986 c -0.123262,0.123262 -0.323273,0.123262 -0.446535,0 l -0.179079,-0.17908 -5.349113,5.349114 12.186675,6.4096328 c 2.083829,1.283787 3.795545,2.939686 5.051424,5.051423 l 7.200372,13.32627 0.651196,1.204713 c 0.683756,1.627991 -0.71399,2.448963 -2.046617,1.627991 L 25.196337,23.596088 C 23.656722,22.74023 22.407821,21.598311 21.605454,20.005205 L 13.630624,5.1835102 c -0.937258,-1.54194 -0.03489,-2.93271 1.879166,-1.962892 z"
         id="path1"
         style="stroke-width:0.328904" /></g></g><style
     type="text/css"
     id="style1"><![CDATA[
	.st0{fill-rule:evenodd;clip-rule:evenodd;}
]]></style><style
     type="text/css"
     id="style1-3">.st0{fill-rule:evenodd;clip-rule:evenodd;}</style><style
     type="text/css"
     id="style1-9">.st0{fill-rule:evenodd;clip-rule:evenodd;}</style><style
     type="text/css"
     id="style1-5"><![CDATA[
	.st0{fill-rule:evenodd;clip-rule:evenodd;}
]]></style></svg>
