<?xml version="1.0" encoding="UTF-8" standalone="no"?>
<!-- Created with Inkscape (http://www.inkscape.org/) -->

<svg
   width="54.417mm"
   height="76.616997mm"
   viewBox="0 0 54.417 76.616997"
   version="1.1"
   id="svg1"
   inkscape:version="1.3 (0e150ed6c4, 2023-07-21)"
   sodipodi:docname="luxurytax.svg"
   xml:space="preserve"
   xmlns:inkscape="http://www.inkscape.org/namespaces/inkscape"
   xmlns:sodipodi="http://sodipodi.sourceforge.net/DTD/sodipodi-0.dtd"
   xmlns="http://www.w3.org/2000/svg"
   xmlns:svg="http://www.w3.org/2000/svg"><sodipodi:namedview
     id="namedview1"
     pagecolor="#ffffff"
     bordercolor="#666666"
     borderopacity="1.0"
     inkscape:showpageshadow="2"
     inkscape:pageopacity="0.0"
     inkscape:pagecheckerboard="0"
     inkscape:deskcolor="#d1d1d1"
     inkscape:document-units="mm"
     inkscape:zoom="1.1893044"
     inkscape:cx="36.576002"
     inkscape:cy="195.49242"
     inkscape:window-width="1948"
     inkscape:window-height="1070"
     inkscape:window-x="341"
     inkscape:window-y="265"
     inkscape:window-maximized="0"
     inkscape:current-layer="g2" /><defs
     id="defs1"><linearGradient
       id="swatch2"
       inkscape:swatch="solid"><stop
         style="stop-color:#000000;stop-opacity:1;"
         offset="0"
         id="stop2" /></linearGradient></defs><g
     inkscape:label="Layer 1"
     inkscape:groupmode="layer"
     id="layer1"
     transform="matrix(0,1.2112922,-1.2112922,0,54.92251,-6.4566465)"><g
       id="g2"
       transform="matrix(0.46960164,0.46960164,-0.46960164,0.46960164,25.59535,1.5909268)"><path
         style="font-weight:500;font-size:16.2662px;font-family:isaiahFont;-inkscape-font-specification:'isaiahFont, Medium';text-align:center;text-anchor:middle;stroke-width:0.147855"
         d="m -51.310402,-20.539255 c -0.325324,-0.0976 -0.618115,-0.146395 -0.894641,-0.146395 0,0 0,0 0,0 -0.195194,0 -0.406655,0.03253 -0.618115,0.08133 0,0 0,0 0,0 0,0 -0.276526,0.06506 -0.276526,0.06506 0,0 0.0488,0.81331 0.0488,0.81331 0.01627,0.0976 0.03253,0.325324 0.0488,0.683181 0.01627,0.374122 0.03253,0.618115 0.0488,0.748245 0,0 0,0 0,0 0,0 0.06506,0.601849 0.06506,0.601849 0,0 0.47172,0.146396 0.47172,0.146396 0.325324,0.0976 0.666914,0.146396 1.008504,0.146396 0,0 0,0 0,0 0.374123,0 0.666914,-0.0488 0.878375,-0.162662 0,0 0,0 0,0 0.243993,-0.13013 0.422921,-0.276526 0.520518,-0.439188 0.08133,-0.146395 0.13013,-0.390388 0.13013,-0.715712 0,0 0,0 0,0 0,-0.927174 -0.47172,-1.529023 -1.431426,-1.821815 z m -1.350094,-1.431425 c 0.178928,-0.0488 0.374122,-0.06506 0.569317,-0.06506 0.195194,0 0.455453,0.03253 0.764511,0.0976 0,0 0,0 0,0 1.252497,0.276526 2.130872,0.894641 2.602592,1.854347 0,0 0,0 0,0 0.146396,0.292792 0.21146,0.748245 0.21146,1.382627 0,0 0,0 0,0 0,0.455453 -0.01627,0.748245 -0.03253,0.878375 -0.01627,0.146395 -0.0976,0.325324 -0.21146,0.536784 0,0 0,0 0,0 -0.276526,0.487986 -0.797044,0.862109 -1.577822,1.138634 0,0 0,0 0,0 -0.422921,0.13013 -0.797044,0.195195 -1.122368,0.195195 0,0 0,0 0,0 -0.243993,0 -0.504252,-0.03253 -0.797043,-0.0976 0,0 0,0 0,0 0,0 -0.487986,-0.113863 -0.487986,-0.113863 0,0 0,0.650648 0,0.650648 0,0.504252 0.03253,1.187432 0.08133,2.082073 0,0 0,0 0,0 0.03253,0.536785 0.0488,0.910908 0.0488,1.122368 0,0 0,0 0,0 0,0.276526 -0.03253,0.487986 -0.113863,0.60185 0,0 0,0 0,0 -0.146396,0.243992 -0.34159,0.357856 -0.601849,0.357856 0,0 0,0 0,0 -0.341591,0 -0.569317,-0.178928 -0.666915,-0.536785 0,0 0,0 0,0 -0.0488,-0.178928 -0.08133,-0.927173 -0.130129,-2.244735 0,0 0,0 0,0 -0.03253,-1.203699 -0.0976,-2.683923 -0.178928,-4.456939 0,0 0,0 0,0 -0.0488,-1.089835 -0.08133,-1.773015 -0.08133,-2.082073 0,0 0,0 0,0 0,-0.374123 0.03253,-0.634382 0.08133,-0.748245 0.0488,-0.113864 0.146395,-0.178929 0.292791,-0.227727 0,0 0,0 0,0 0.0976,-0.01627 0.553051,-0.13013 1.350095,-0.325324 z m 8.133095,5.888364 c 0,-0.276525 -0.03253,-0.406655 -0.08133,-0.406655 0,0 0,0 0,0 -0.08133,0 -0.211461,0.146396 -0.422921,0.422921 -0.211461,0.292792 -0.374123,0.585583 -0.504252,0.862109 0,0 0,0 0,0 -0.178929,0.357856 -0.276526,0.715712 -0.309058,1.057303 0,0 0,0 0,0 -0.01627,0.08133 -0.01627,0.195194 -0.01627,0.325324 0,0 0,0 0,0 0,0.146395 0.0488,0.260259 0.146395,0.357856 0,0 0,0 0,0 0.113864,0.113863 0.211461,0.178928 0.292792,0.178928 0,0 0,0 0,0 0.113863,0 0.260259,-0.06507 0.439187,-0.21146 0.178929,-0.146396 0.309058,-0.292792 0.422922,-0.455454 0,0 0,0 0,0 0.130129,-0.195194 0.195194,-0.357856 0.195194,-0.487986 0,0 0,0 0,0 0,-0.03253 -0.01627,-0.211461 -0.06506,-0.536785 0,0 0,0 0,0 -0.06507,-0.504252 -0.0976,-0.862108 -0.0976,-1.106101 z m 0.08133,-2.033275 c 0.113863,-0.0488 0.309058,-0.08133 0.553051,-0.13013 0,0 0,0 0,0 0.162662,0 0.325324,0.03253 0.504252,0.0976 0.162662,0.08133 0.260259,0.162662 0.309058,0.260259 0,0 0,0 0,0 0.0976,0.178928 0.178928,0.504252 0.243993,0.992238 0.06506,0.487986 0.0976,0.959706 0.0976,1.415159 0,0 0,0 0,0 0,0.178929 -0.01627,0.390389 -0.03253,0.634382 0,0 0,0 0,0 -0.03253,0.178928 -0.0488,0.309058 -0.0488,0.422921 0,0 0,0 0,0 0,0.113864 0.06507,0.325324 0.178928,0.618116 0,0 0,0 0,0 0.227727,0.47172 0.585583,0.699446 1.089835,0.699446 0,0 0,0 0,0 0.195195,0 0.357857,0.0488 0.504253,0.162662 0,0 0,0 0,0 0.146395,0.13013 0.227726,0.292792 0.227726,0.487986 0,0 0,0 0,0 0,0.243993 -0.0976,0.422922 -0.276525,0.553051 0,0 0,0 0,0 -0.178928,0.113864 -0.390389,0.178928 -0.666914,0.178928 0,0 0,0 0,0 -0.666914,0 -1.203699,-0.227726 -1.642886,-0.68318 0,0 0,0 0,0 0,0 -0.276526,-0.292792 -0.276526,-0.292792 0,0 -0.439187,0.325324 -0.439187,0.325324 -0.47172,0.341591 -0.894641,0.520519 -1.268764,0.520519 -0.374122,0 -0.715712,-0.113864 -1.041036,-0.325324 -0.325324,-0.211461 -0.553051,-0.487986 -0.683181,-0.829576 0,0 0,0 0,0 -0.0976,-0.26026 -0.146396,-0.536785 -0.146396,-0.845843 0,0 0,0 0,0 0,-0.829576 0.276526,-1.675418 0.845843,-2.553793 0.569317,-0.878375 1.219965,-1.447692 1.96821,-1.707951 z m 5.156391,0.01627 c 0.178929,-0.178928 0.341591,-0.260259 0.520519,-0.260259 0,0 0,0 0,0 0.146396,0 0.292791,0.06507 0.406655,0.195194 0,0 0,0 0,0 0.0976,0.113864 0.146396,0.227727 0.146396,0.341591 0,0 0,0 0,0 0,0.0976 0,0.178928 -0.01627,0.260259 0,0 0,0 0,0 -0.01627,0.0488 -0.01627,0.162662 -0.01627,0.325324 0,0.162662 0.01627,0.390389 0.03253,0.699446 0,0 0,0 0,0 0.0488,0.374123 0.0976,0.553051 0.0976,0.553051 0,0 0,0 0,0 0,0 0.0488,-0.03253 0.0976,-0.113863 0,0 0,0 0,0 0.406655,-0.634382 0.927173,-1.1549 1.529023,-1.577822 0.601849,-0.406655 1.1549,-0.618115 1.659152,-0.634381 0,0 0,0 0,0 0,0 0.03253,0 0.03253,0 0.439188,0 0.845843,0.130129 1.203699,0.374122 0.357856,0.260259 0.536785,0.536785 0.536785,0.829576 0,0 0,0 0,0 0,0.113864 -0.03253,0.227727 -0.113864,0.341591 0,0 0,0 0,0 -0.146396,0.195194 -0.34159,0.292791 -0.553051,0.292791 0,0 0,0 0,0 -0.178928,0 -0.390388,-0.08133 -0.601849,-0.227727 0,0 0,0 0,0 -0.146396,-0.0976 -0.325324,-0.146395 -0.520518,-0.146395 -0.195195,0 -0.47172,0.113863 -0.829576,0.357856 -0.357857,0.243993 -0.634382,0.487986 -0.845843,0.764511 0,0 0,0 0,0 -0.536784,0.715713 -0.927173,1.529023 -1.1549,2.423664 0,0 0,0 0,0 -0.178928,0.666914 -0.390389,1.041037 -0.634382,1.1549 0,0 0,0 0,0 -0.06506,0.03253 -0.130129,0.0488 -0.21146,0.0488 0,0 0,0 0,0 -0.276526,0 -0.487986,-0.146396 -0.60185,-0.422921 0,0 0,0 0,0 -0.178928,-0.374123 -0.309057,-1.561556 -0.374122,-3.546032 0,0 0,0 0,0 0,0 -0.0488,-1.789282 -0.0488,-1.789282 z m 7.872846,-3.562297 c 0.146396,-0.146396 0.292792,-0.211461 0.406655,-0.211461 0,0 0,0 0,0 0.0488,0 0.146396,0.03253 0.292792,0.08133 0,0 0,0 0,0 0.243993,0.0976 0.357856,0.292792 0.357856,0.569317 0,0 0,0 0,0 0,0.08133 -0.01627,0.162662 -0.0488,0.260259 0,0 0,0 0,0 -0.0488,0.195195 -0.08133,0.992238 -0.08133,2.407398 0,0 0,0 0,0 0,0.797043 0.01627,1.203698 0.0488,1.203698 0.03253,0 0.211461,-0.113863 0.520518,-0.325324 0,0 0,0 0,0 1.317563,-0.894641 2.147139,-1.350094 2.456197,-1.350094 0,0 0,0 0,0 0.195194,0 0.357856,0.0488 0.471719,0.162662 0.113864,0.113863 0.178928,0.243993 0.178928,0.406655 0,0 0,0 0,0 0,0.178928 -0.08133,0.34159 -0.243992,0.504252 0,0 0,0 0,0 -0.13013,0.13013 -0.60185,0.439187 -1.41516,0.927173 0,0 0,0 0,0 -0.08133,0.0488 -0.178928,0.113864 -0.276525,0.162662 -0.0976,0.06507 -0.178928,0.113864 -0.227727,0.146396 -0.06507,0.03253 -0.13013,0.06507 -0.195194,0.0976 -0.06507,0.0488 -0.113864,0.08133 -0.146396,0.0976 -0.0488,0.03253 -0.08133,0.06506 -0.113864,0.0976 -0.03253,0.03253 -0.06506,0.08133 -0.06506,0.08133 0,0 -0.01627,0.0488 -0.01627,0.08133 0,0.03253 0.01627,0.08133 0.01627,0.08133 0.01627,0.03253 0.03253,0.06507 0.06506,0.0976 0.03253,0.0488 0.06507,0.08133 0.0976,0.113863 0.03253,0.0488 0.08133,0.0976 0.162662,0.146396 0.06506,0.06506 0.130129,0.113864 0.178928,0.162662 0.0488,0.0488 0.130129,0.113864 0.243993,0.195195 0.0976,0.08133 0.178928,0.162662 0.260259,0.227726 0,0 0,0 0,0 1.398893,1.203699 2.09834,1.984477 2.09834,2.326067 0,0 0,0 0,0 0,0.178928 -0.06507,0.325324 -0.211461,0.455453 -0.146396,0.146396 -0.292791,0.211461 -0.47172,0.211461 0,0 0,0 0,0 -0.113863,0 -0.243993,-0.0488 -0.357856,-0.13013 -0.113863,-0.08133 -0.325324,-0.292791 -0.634382,-0.601849 0,0 0,0 0,0 -0.374122,-0.374123 -0.878375,-0.862109 -1.512756,-1.463958 0,0 0,0 0,0 0,0 -0.81331,-0.731979 -0.81331,-0.731979 0,0 -0.03253,1.187433 -0.03253,1.187433 -0.01627,0.650648 -0.06506,1.073569 -0.113863,1.268763 -0.0488,0.195195 -0.178928,0.34159 -0.374123,0.439188 0,0 0,0 0,0 -0.178928,0.08133 -0.292791,0.113863 -0.34159,0.113863 0,0 0,0 0,0 -0.113863,0 -0.243993,-0.06506 -0.390389,-0.195194 0,0 0,0 0,0 0,0 -0.21146,-0.178929 -0.21146,-0.178929 0,0 0.01627,-3.643628 0.01627,-3.643628 0.01627,-2.667657 0.0488,-4.147881 0.08133,-4.440673 0,0 0,0 0,0 0.03253,-0.374122 0.06507,-0.601849 0.113863,-0.715712 0.03253,-0.113864 0.113864,-0.211461 0.227727,-0.325324 z m 6.73421,1.463958 c 0.08133,-0.0488 0.146395,-0.06507 0.178928,-0.06507 0,0 0,0 0,0 0,0 0.0976,0 0.243993,0.08133 0,0 0,0 0,0 0.195194,0.08133 0.292791,0.243993 0.292791,0.47172 0,0 0,0 0,0 0,0.260259 -0.113863,0.439187 -0.357856,0.536784 0,0 0,0 0,0 -0.13013,0.0488 -0.211461,0.06507 -0.211461,0.06507 0,0 0,0 0,0 -0.0488,0 -0.146395,-0.0488 -0.260259,-0.13013 0,0 0,0 0,0 -0.178928,-0.130129 -0.260259,-0.292791 -0.260259,-0.471719 0,0 0,0 0,0 0,-0.227727 0.13013,-0.390389 0.374123,-0.487986 z m 0,2.358598 c 0.113863,-0.113863 0.260259,-0.162662 0.455453,-0.162662 0.195195,0 0.34159,0.0488 0.455454,0.162662 0,0 0,0 0,0 0.178928,0.195195 0.292791,1.252498 0.34159,3.171909 0,0 0,0 0,0 0.01627,0.764512 0.03253,1.187433 0.03253,1.301296 0,0 0,0 0,0 0,0.374123 -0.01627,0.60185 -0.06506,0.715713 -0.0488,0.113863 -0.146395,0.195194 -0.309057,0.276525 0,0 0,0 0,0 -0.113864,0.06507 -0.211461,0.0976 -0.292792,0.0976 0,0 0,0 0,0 -0.113863,0 -0.243993,-0.06506 -0.390389,-0.211461 0,0 0,0 0,0 -0.113863,-0.0976 -0.195194,-0.195194 -0.21146,-0.309058 -0.03253,-0.113863 -0.06506,-0.422921 -0.0976,-0.959706 0,0 0,0 0,0 -0.0488,-0.780777 -0.06507,-1.610353 -0.06507,-2.504994 0,0 0,0 0,0 0,0 0,-0.504252 0,-0.504252 0,-0.60185 0.0488,-0.959706 0.146396,-1.07357 z m 2.716458,-0.406655 c 0.13013,-0.113863 0.26026,-0.178928 0.390389,-0.178928 0,0 0,0 0,0 0.146396,0 0.276526,0.06506 0.390389,0.178928 0,0 0,0 0,0 0.113863,0.08133 0.178928,0.195195 0.21146,0.309058 0.01627,0.113864 0.0488,0.406655 0.0976,0.878375 0,0 0,0 0,0 0.0488,0.699447 0.0976,1.057303 0.146395,1.057303 0,0 0,0 0,0 0,0 0.03253,-0.01627 0.03253,-0.01627 0,0 0,0 0,0 0.797044,-1.089836 1.480224,-1.740484 2.049541,-1.984477 0,0 0,0 0,0 0.195194,-0.08133 0.422921,-0.113863 0.699447,-0.113863 0,0 0,0 0,0 0.374122,0 0.68318,0.06506 0.927173,0.211461 0,0 0,0 0,0 0.439187,0.243993 0.780777,0.748245 1.041037,1.512756 0,0 0,0 0,0 0.113863,0.325324 0.178928,0.60185 0.195194,0.81331 0.01627,0.227727 0.03253,0.797044 0.0488,1.724217 0,0 0,0 0,0 0,0.894641 -0.01627,1.447692 -0.03253,1.62662 -0.01627,0.178928 -0.08133,0.325324 -0.178928,0.439188 0,0 0,0 0,0 -0.13013,0.146395 -0.292792,0.227726 -0.47172,0.227726 0,0 0,0 0,0 -0.195194,0 -0.357856,-0.08133 -0.487986,-0.227726 0,0 0,0 0,0 -0.0976,-0.0976 -0.146396,-0.227727 -0.162662,-0.406655 -0.01627,-0.178929 -0.0488,-0.699447 -0.06506,-1.577822 0,0 0,0 0,0 -0.01627,-0.829576 -0.0488,-1.350094 -0.06506,-1.594087 -0.01627,-0.243993 -0.08133,-0.487986 -0.178929,-0.731979 0,0 0,0 0,0 -0.0976,-0.260259 -0.162662,-0.422921 -0.21146,-0.47172 -0.0488,-0.0488 -0.162662,-0.08133 -0.309058,-0.0976 0,0 0,0 0,0 0,0 -0.113863,0 -0.113863,0 -0.146396,0 -0.390389,0.162662 -0.731979,0.504252 0,0 0,0 0,0 -0.374123,0.374123 -0.666914,0.748245 -0.894641,1.1549 0,0 0,0 0,0 -0.178928,0.309058 -0.390389,0.748245 -0.60185,1.301296 -0.21146,0.569317 -0.325324,0.927173 -0.325324,1.073569 0,0 0,0 0,0 0,0.13013 -0.0488,0.276526 -0.162662,0.422921 -0.113863,0.146396 -0.227726,0.26026 -0.357856,0.309058 0,0 0,0 0,0 -0.06507,0.03253 -0.146396,0.0488 -0.227727,0.0488 0,0 0,0 0,0 -0.276525,0 -0.471719,-0.0976 -0.585583,-0.292792 0,0 0,0 0,0 -0.03253,-0.06506 -0.08133,-0.68318 -0.146396,-1.870613 -0.06506,-1.187432 -0.113863,-2.261001 -0.130129,-3.25324 0,0 0,0 0,0 0,0 0,-0.390388 0,-0.390388 0,-0.178929 0.01627,-0.309058 0.03253,-0.374123 0.01627,-0.06507 0.08133,-0.13013 0.178928,-0.211461 z m 10.686883,1.870613 c -0.0488,-0.292791 -0.0976,-0.439187 -0.162662,-0.439187 0,0 0,0 0,0 -0.178928,0 -0.455454,0.243993 -0.829576,0.731979 -0.374123,0.504252 -0.634382,0.959706 -0.780778,1.366361 0,0 0,0 0,0 -0.06506,0.21146 -0.0976,0.374122 -0.0976,0.471719 0,0 0,0 0,0 0,0.08133 0.01627,0.178929 0.0488,0.292792 0,0 0,0 0,0 0.08133,0.227727 0.162662,0.357856 0.227727,0.390389 0,0 0,0 0,0 0,0 0.03253,0.01627 0.03253,0.01627 0,0 0.03253,0 0.03253,0 0.146396,0 0.374123,-0.13013 0.650648,-0.374123 0.276526,-0.243993 0.504252,-0.520518 0.715713,-0.829576 0,0 0,0 0,0 0.146396,-0.178928 0.211461,-0.455453 0.211461,-0.829576 0,0 0,0 0,0 0,-0.21146 -0.01627,-0.47172 -0.0488,-0.797044 z m -0.260259,-1.83808 c 0.130129,-0.0488 0.276525,-0.06507 0.455453,-0.06507 0,0 0,0 0,0 0.47172,0 0.748246,0.146396 0.829577,0.422921 0,0 0,0 0,0 0.0976,0.243993 0.162662,0.406655 0.21146,0.487986 0,0 0,0 0,0 0.1951946,0.439188 0.3253241,1.610354 0.3741227,3.497233 0,0 0,0 0,0 0.016266,0.309058 0.016266,0.715713 0.016266,1.219965 0,0 0,0 0,0 0,1.057303 -0.097597,1.870613 -0.3090577,2.456196 0,0 0,0 0,0 -0.1951942,0.5530508 -0.4879862,0.9922382 -0.8621082,1.301296 -0.390389,0.3090577 -0.829577,0.4717197 -1.301296,0.4717197 0,0 0,0 0,0 -0.13013,0 -0.276526,-0.016266 -0.422922,-0.048799 0,0 0,0 0,0 -0.276525,-0.048799 -0.585583,-0.162662 -0.910907,-0.3090578 -0.34159,-0.1463957 -0.569317,-0.2765253 -0.699446,-0.3903887 0,0 0,0 0,0 -0.146396,-0.1301296 -0.211461,-0.2927916 -0.211461,-0.487986 0,0 0,0 0,0 0,-0.2114606 0.08133,-0.3741226 0.243993,-0.5042526 0,0 0,0 0,0 0.113864,-0.0976 0.243993,-0.146395 0.374123,-0.146395 0,0 0,0 0,0 0.146396,0 0.47172,0.0976 0.992238,0.276525 0,0 0,0 0,0 0.357856,0.1138634 0.569317,0.1789282 0.634382,0.1789282 0,0 0,0 0,0 0.0488,0 0.146395,-0.032532 0.276525,-0.081331 0,0 0,0 0,0 0.227727,-0.1138632 0.406655,-0.3741222 0.553051,-0.8133102 0.146396,-0.439187 0.21146,-0.910907 0.21146,-1.447691 0,0 0,0 0,0 0,0 0,-0.276526 0,-0.276526 0,0 -0.01627,-0.487986 -0.01627,-0.487986 0,0 -0.34159,0.260259 -0.34159,0.260259 -0.504252,0.406655 -0.975972,0.60185 -1.447692,0.60185 0,0 0,0 0,0 -0.699446,0 -1.203698,-0.422921 -1.49649,-1.252498 0,0 0,0 0,0 -0.08133,-0.260259 -0.13013,-0.520518 -0.13013,-0.780777 0,0 0,0 0,0 0,-1.024771 0.47172,-2.033275 1.398894,-3.025513 0,0 0,0 0,0 0.487986,-0.536785 1.008504,-0.878375 1.577821,-1.057303 z"
         id="text1"
         transform="rotate(-135)"
         aria-label="Parking&#10;" /><path
         style="font-weight:500;font-size:16.2662px;font-family:isaiahFont;-inkscape-font-specification:'isaiahFont, Medium';text-align:center;text-anchor:middle;stroke-width:0.147855"
         d="m -41.786546,-7.8131663 c -0.325324,-0.097597 -0.618116,-0.1463958 -0.894641,-0.1463958 0,0 0,0 0,0 -0.195194,0 -0.406655,0.032532 -0.618116,0.081331 0,0 0,0 0,0 0,0 -0.276525,0.065065 -0.276525,0.065065 0,0 0.0488,0.8133099 0.0488,0.8133099 0.01627,0.097597 0.03253,0.325324 0.0488,0.6831804 0.01627,0.3741226 0.03253,0.6181156 0.0488,0.7482452 0,0 0,0 0,0 0,0 0.06506,0.6018493 0.06506,0.6018493 0,0 0.471719,0.1463958 0.471719,0.1463958 0.325324,0.097597 0.666915,0.1463958 1.008505,0.1463958 0,0 0,0 0,0 0.374122,0 0.666914,-0.048799 0.878375,-0.162662 0,0 0,0 0,0 0.243993,-0.1301296 0.422921,-0.2765254 0.520518,-0.4391874 0.08133,-0.1463958 0.130129,-0.3903887 0.130129,-0.7157127 0,0 0,0 0,0 0,-0.9271734 -0.471719,-1.5290227 -1.431425,-1.8218143 z m -1.350095,-1.4314255 c 0.178929,-0.048799 0.374123,-0.065065 0.569317,-0.065065 0.195195,0 0.455454,0.032532 0.764512,0.097597 0,0 0,0 0,0 1.252497,0.2765253 2.130872,0.8946409 2.602592,1.8543467 0,0 0,0 0,0 0.146395,0.2927915 0.21146,0.7482451 0.21146,1.3826269 0,0 0,0 0,0 0,0.4554536 -0.01627,0.7482451 -0.03253,0.8783747 -0.01627,0.1463958 -0.0976,0.325324 -0.211461,0.5367846 0,0 0,0 0,0 -0.276525,0.487986 -0.797044,0.8621086 -1.577821,1.1386339 0,0 0,0 0,0 -0.422921,0.1301296 -0.797044,0.1951944 -1.122368,0.1951944 0,0 0,0 0,0 -0.243993,0 -0.504252,-0.032532 -0.797044,-0.097597 0,0 0,0 0,0 0,0 -0.487986,-0.1138634 -0.487986,-0.1138634 0,0 0,0.650648 0,0.650648 0,0.5042522 0.03253,1.1874325 0.08133,2.08207349 0,0 0,0 0,0 0.03253,0.53678457 0.0488,0.91090715 0.0488,1.12236774 0,0 0,0 0,0 0,0.27652538 -0.03253,0.48798597 -0.113863,0.60184937 0,0 0,0 0,0 -0.146396,0.243993 -0.341591,0.3578564 -0.60185,0.3578564 0,0 0,0 0,0 -0.34159,0 -0.569317,-0.1789282 -0.666914,-0.5367846 0,0 0,0 0,0 -0.0488,-0.17892819 -0.08133,-0.92717334 -0.130129,-2.2447355 0,0 0,0 0,0 -0.03253,-1.2036987 -0.0976,-2.6839228 -0.178929,-4.4569385 0,0 0,0 0,0 -0.0488,-1.0898354 -0.08133,-1.7730157 -0.08133,-2.0820735 0,0 0,0 0,0 0,-0.3741226 0.03253,-0.6343818 0.08133,-0.7482452 0.0488,-0.1138634 0.146396,-0.1789282 0.292792,-0.2277268 0,0 0,0 0,0 0.0976,-0.016266 0.553051,-0.1301296 1.350094,-0.3253239 z m 8.133096,5.888364 c 0,-0.2765254 -0.03253,-0.4066549 -0.08133,-0.4066549 0,0 0,0 0,0 -0.08133,0 -0.211461,0.1463957 -0.422922,0.4229211 -0.21146,0.2927916 -0.374122,0.5855832 -0.504252,0.8621086 0,0 0,0 0,0 -0.178928,0.3578564 -0.276525,0.7157127 -0.309057,1.0573029 0,0 0,0 0,0 -0.01627,0.081331 -0.01627,0.1951944 -0.01627,0.325324 0,0 0,0 0,0 0,0.1463958 0.0488,0.2602592 0.146396,0.35785639 0,0 0,0 0,0 0.113864,0.11386339 0.211461,0.17892819 0.292792,0.17892819 0,0 0,0 0,0 0.113863,0 0.260259,-0.0650648 0.439187,-0.21146059 0.178928,-0.14639579 0.309058,-0.29279159 0.422921,-0.45545359 0,0 0,0 0,0 0.13013,-0.1951944 0.195195,-0.3578564 0.195195,-0.487986 0,0 0,0 0,0 0,-0.032532 -0.01627,-0.2114605 -0.06507,-0.5367845 0,0 0,0 0,0 -0.06506,-0.5042522 -0.0976,-0.8621086 -0.0976,-1.1061016 z m 0.08133,-2.0332749 c 0.113863,-0.048799 0.309057,-0.081331 0.55305,-0.1301295 0,0 0,0 0,0 0.162662,0 0.325324,0.032532 0.504253,0.097597 0.162662,0.081331 0.260259,0.162662 0.309057,0.2602592 0,0 0,0 0,0 0.0976,0.1789282 0.178929,0.5042522 0.243993,0.9922382 0.06506,0.487986 0.0976,0.9597057 0.0976,1.4151593 0,0 0,0 0,0 0,0.1789282 -0.01627,0.3903888 -0.03253,0.6343818 0,0 0,0 0,0 -0.03253,0.1789282 -0.0488,0.3090577 -0.0488,0.4229211 0,0 0,0 0,0 0,0.1138634 0.06506,0.325324 0.178928,0.6181156 0,0 0,0 0,0 0.227727,0.47171978 0.585583,0.69944657 1.089835,0.69944657 0,0 0,0 0,0 0.195194,0 0.357856,0.0487986 0.504252,0.16266199 0,0 0,0 0,0 0.146396,0.1301296 0.227727,0.29279159 0.227727,0.48798598 0,0 0,0 0,0 0,0.24399298 -0.0976,0.42292117 -0.276525,0.55305077 0,0 0,0 0,0 -0.178929,0.11386339 -0.390389,0.17892819 -0.666914,0.17892819 0,0 0,0 0,0 -0.666915,0 -1.203699,-0.22772679 -1.642887,-0.68318037 0,0 0,0 0,0 0,0 -0.276525,-0.29279158 -0.276525,-0.29279158 0,0 -0.439187,0.32532398 -0.439187,0.32532398 -0.47172,0.34159018 -0.894641,0.52051837 -1.268764,0.52051837 -0.374122,0 -0.715713,-0.11386339 -1.041037,-0.32532398 -0.325324,-0.21146059 -0.55305,-0.48798597 -0.68318,-0.82957615 0,0 0,0 0,0 -0.0976,-0.26025919 -0.146396,-0.53678457 -0.146396,-0.84584237 0,0 0,0 0,0 0,-0.8295761 0.276526,-1.6754185 0.845843,-2.5537932 0.569317,-0.8783748 1.219965,-1.4476918 1.96821,-1.707951 z m 6.099831,0.3903888 c 0.504252,-0.3741226 1.122367,-0.5530507 1.83808,-0.5530507 0,0 0,0 0,0 0,0 0.178928,0 0.178928,0 0.243993,0 0.455454,0.081331 0.618116,0.2277267 0,0 0,0 0,0 0.178928,0.162662 0.260259,0.3415902 0.260259,0.5530508 0,0 0,0 0,0 0,0.1463958 -0.0488,0.2927916 -0.162662,0.406655 0,0 0,0 0,0 -0.08133,0.097597 -0.195194,0.1463958 -0.34159,0.1463958 0,0 0,0 0,0 -0.0976,0 -0.178928,0 -0.243993,-0.016266 0,0 0,0 0,0 0,0 -0.178928,0 -0.178928,0 -0.276526,0 -0.487986,0.016266 -0.634382,0.065065 0,0 0,0 0,0 -0.178928,0.048799 -0.34159,0.1138634 -0.520518,0.2277268 -0.178929,0.1138634 -0.26026,0.1951944 -0.26026,0.2765254 0,0 0,0 0,0 0,0 0.01627,0.048799 0.01627,0.048799 0,0 0,0 0,0 0.08133,0.048799 0.422921,0.1463958 1.057303,0.2765254 0,0 0,0 0,0 0.634381,0.1463958 1.041036,0.2927916 1.252497,0.406655 0,0 0,0 0,0 0.390389,0.2602592 0.618115,0.6018494 0.699446,1.0247706 0,0 0,0 0,0 0.01627,0.032532 0.01627,0.097597 0.01627,0.1789281 0,0 0,0 0,0 0,0.325324 -0.113864,0.6994466 -0.325324,1.12236778 -0.211461,0.42292118 -0.439188,0.69944657 -0.683181,0.84584236 0,0 0,0 0,0 -0.569317,0.34159018 -1.219965,0.52051837 -1.951944,0.52051837 0,0 0,0 0,0 -1.219964,0 -1.821814,-0.34159018 -1.821814,-1.04103674 0,0 0,0 0,0 0,-0.37412258 0.211461,-0.56931697 0.634382,-0.56931697 0,0 0,0 0,0 0.243993,0 0.406655,0.0325324 0.504252,0.0975972 0,0 0,0 0,0 0.13013,0.0650648 0.325324,0.0975972 0.601849,0.0975972 0,0 0,0 0,0 0.374123,0 0.666915,-0.0487986 0.910908,-0.1463958 0,0 0,0 0,0 0.439187,-0.14639579 0.650648,-0.42292119 0.650648,-0.79704379 0,0 0,0 0,0 0,-0.081331 -0.0488,-0.1463958 -0.13013,-0.1951944 -0.0976,-0.048798 -0.390389,-0.1138633 -0.894641,-0.2277267 0,0 0,0 0,0 -1.203699,-0.2765254 -1.854347,-0.6669142 -1.96821,-1.1549002 0,0 0,0 0,0 -0.01627,-0.1138634 -0.03253,-0.1951944 -0.03253,-0.2602592 0,0 0,0 0,0 0,-0.2765253 0.08133,-0.5530507 0.260259,-0.8458423 0.162662,-0.2927916 0.374122,-0.5367846 0.650648,-0.7157128 z m 6.034765,0 c 0.504252,-0.3741226 1.122368,-0.5530507 1.83808,-0.5530507 0,0 0,0 0,0 0,0 0.178929,0 0.178929,0 0.243993,0 0.455453,0.081331 0.618115,0.2277267 0,0 0,0 0,0 0.178928,0.162662 0.260259,0.3415902 0.260259,0.5530508 0,0 0,0 0,0 0,0.1463958 -0.0488,0.2927916 -0.162662,0.406655 0,0 0,0 0,0 -0.08133,0.097597 -0.195194,0.1463958 -0.34159,0.1463958 0,0 0,0 0,0 -0.0976,0 -0.178928,0 -0.243993,-0.016266 0,0 0,0 0,0 0,0 -0.178928,0 -0.178928,0 -0.276525,0 -0.487986,0.016266 -0.634382,0.065065 0,0 0,0 0,0 -0.178928,0.048799 -0.34159,0.1138634 -0.520518,0.2277268 -0.178928,0.1138634 -0.260259,0.1951944 -0.260259,0.2765254 0,0 0,0 0,0 0,0 0.01627,0.048799 0.01627,0.048799 0,0 0,0 0,0 0.08133,0.048799 0.422921,0.1463958 1.057303,0.2765254 0,0 0,0 0,0 0.634382,0.1463958 1.041037,0.2927916 1.252497,0.406655 0,0 0,0 0,0 0.390389,0.2602592 0.618116,0.6018494 0.699447,1.0247706 0,0 0,0 0,0 0.01627,0.032532 0.01627,0.097597 0.01627,0.1789281 0,0 0,0 0,0 0,0.325324 -0.113863,0.6994466 -0.325324,1.12236778 -0.211461,0.42292118 -0.439187,0.69944657 -0.68318,0.84584236 0,0 0,0 0,0 -0.569317,0.34159018 -1.219965,0.52051837 -1.951944,0.52051837 0,0 0,0 0,0 -1.219965,0 -1.821815,-0.34159018 -1.821815,-1.04103674 0,0 0,0 0,0 0,-0.37412258 0.211461,-0.56931697 0.634382,-0.56931697 0,0 0,0 0,0 0.243993,0 0.406655,0.0325324 0.504252,0.0975972 0,0 0,0 0,0 0.13013,0.0650648 0.325324,0.0975972 0.60185,0.0975972 0,0 0,0 0,0 0.374122,0 0.666914,-0.0487986 0.910907,-0.1463958 0,0 0,0 0,0 0.439187,-0.14639579 0.650648,-0.42292119 0.650648,-0.79704379 0,0 0,0 0,0 0,-0.081331 -0.0488,-0.1463958 -0.13013,-0.1951944 -0.0976,-0.048798 -0.390389,-0.1138633 -0.894641,-0.2277267 0,0 0,0 0,0 -1.203698,-0.2765254 -1.854346,-0.6669142 -1.96821,-1.1549002 0,0 0,0 0,0 -0.01627,-0.1138634 -0.03253,-0.1951944 -0.03253,-0.2602592 0,0 0,0 0,0 0,-0.2765253 0.08133,-0.5530507 0.260259,-0.8458423 0.162662,-0.2927916 0.374123,-0.5367846 0.650648,-0.7157128 z"
         id="text1-4"
         transform="rotate(-135)"
         aria-label="Pass&#10;" /><path
         style="font-weight:500;font-size:11.1069px;font-family:isaiahFont;-inkscape-font-specification:'isaiahFont, Medium';text-align:center;text-anchor:middle;stroke-width:0.147855"
         d="m -46.672452,48.899747 c -0.222138,-0.06664 -0.422062,-0.09996 -0.610879,-0.09996 0,0 0,0 0,0 -0.133283,0 -0.277673,0.02221 -0.422063,0.05553 0,0 0,0 0,0 0,0 -0.188817,0.04443 -0.188817,0.04443 0,0 0.03332,0.555345 0.03332,0.555345 0.01111,0.06664 0.02221,0.222138 0.03332,0.46649 0.01111,0.255459 0.02221,0.422062 0.03332,0.510918 0,0 0,0 0,0 0,0 0.04443,0.410955 0.04443,0.410955 0,0 0.3221,0.09996 0.3221,0.09996 0.222138,0.06664 0.455383,0.09996 0.688628,0.09996 0,0 0,0 0,0 0.255458,0 0.455383,-0.03332 0.599772,-0.111069 0,0 0,0 0,0 0.166604,-0.08886 0.28878,-0.188817 0.355421,-0.299886 0.05554,-0.09996 0.08886,-0.266566 0.08886,-0.488704 0,0 0,0 0,0 0,-0.633093 -0.3221,-1.044048 -0.977407,-1.243973 z m -0.921873,-0.977407 c 0.122176,-0.03332 0.255459,-0.04443 0.388742,-0.04443 0.133283,0 0.310993,0.02221 0.522024,0.06664 0,0 0,0 0,0 0.855232,0.188817 1.455004,0.610879 1.777104,1.266187 0,0 0,0 0,0 0.09996,0.199924 0.14439,0.510917 0.14439,0.944086 0,0 0,0 0,0 0,0.310993 -0.01111,0.510917 -0.02221,0.599773 -0.01111,0.09996 -0.06664,0.222138 -0.14439,0.366527 0,0 0,0 0,0 -0.188817,0.333207 -0.544238,0.588666 -1.077369,0.777483 0,0 0,0 0,0 -0.288779,0.08886 -0.544238,0.133283 -0.766376,0.133283 0,0 0,0 0,0 -0.166603,0 -0.344314,-0.02221 -0.544238,-0.06664 0,0 0,0 0,0 0,0 -0.333207,-0.07775 -0.333207,-0.07775 0,0 0,0.444276 0,0.444276 0,0.344314 0.02221,0.810804 0.05553,1.421684 0,0 0,0 0,0 0.02221,0.366527 0.03332,0.621986 0.03332,0.766376 0,0 0,0 0,0 0,0.188817 -0.02221,0.333207 -0.07775,0.410955 0,0 0,0 0,0 -0.09996,0.166604 -0.233245,0.244352 -0.410956,0.244352 0,0 0,0 0,0 -0.233244,0 -0.388741,-0.122176 -0.455382,-0.366528 0,0 0,0 0,0 -0.03332,-0.122176 -0.05553,-0.633093 -0.08886,-1.532752 0,0 0,0 0,0 -0.02221,-0.821911 -0.06664,-1.832639 -0.122176,-3.043291 0,0 0,0 0,0 -0.03332,-0.744162 -0.05553,-1.210652 -0.05553,-1.421683 0,0 0,0 0,0 0,-0.255459 0.02221,-0.433169 0.05553,-0.510917 0.03332,-0.07775 0.09996,-0.122176 0.199925,-0.155497 0,0 0,0 0,0 0.06664,-0.01111 0.377634,-0.08886 0.921872,-0.222138 z m 5.553447,4.020698 c 0,-0.188817 -0.02221,-0.277673 -0.05553,-0.277673 0,0 0,0 0,0 -0.05553,0 -0.14439,0.09996 -0.28878,0.28878 -0.144389,0.199924 -0.255458,0.399848 -0.344314,0.588666 0,0 0,0 0,0 -0.122175,0.244351 -0.188817,0.488703 -0.211031,0.721948 0,0 0,0 0,0 -0.01111,0.05553 -0.01111,0.133283 -0.01111,0.222138 0,0 0,0 0,0 0,0.09996 0.03332,0.177711 0.09996,0.244352 0,0 0,0 0,0 0.07775,0.07775 0.144389,0.122176 0.199924,0.122176 0,0 0,0 0,0 0.07775,0 0.17771,-0.04443 0.299886,-0.14439 0.122176,-0.09996 0.211031,-0.199924 0.288779,-0.310993 0,0 0,0 0,0 0.08886,-0.133283 0.133283,-0.244352 0.133283,-0.333207 0,0 0,0 0,0 0,-0.02221 -0.01111,-0.14439 -0.04443,-0.366528 0,0 0,0 0,0 -0.04443,-0.344314 -0.06664,-0.588666 -0.06664,-0.755269 z m 0.05553,-1.388363 c 0.07775,-0.03332 0.211031,-0.05553 0.377634,-0.08886 0,0 0,0 0,0 0.111069,0 0.222138,0.02221 0.344314,0.06664 0.111069,0.05553 0.177711,0.111069 0.211031,0.17771 0,0 0,0 0,0 0.06664,0.122176 0.122176,0.344314 0.166604,0.677521 0.04443,0.333207 0.06664,0.655307 0.06664,0.9663 0,0 0,0 0,0 0,0.122176 -0.01111,0.266566 -0.02221,0.433169 0,0 0,0 0,0 -0.02221,0.122176 -0.03332,0.211031 -0.03332,0.28878 0,0 0,0 0,0 0,0.07775 0.04443,0.222138 0.122176,0.422062 0,0 0,0 0,0 0.155496,0.3221 0.399848,0.477597 0.744162,0.477597 0,0 0,0 0,0 0.133283,0 0.244352,0.03332 0.344314,0.111069 0,0 0,0 0,0 0.09996,0.08886 0.155497,0.199924 0.155497,0.333207 0,0 0,0 0,0 0,0.166603 -0.06664,0.288779 -0.188818,0.377634 0,0 0,0 0,0 -0.122176,0.07775 -0.266565,0.122176 -0.455383,0.122176 0,0 0,0 0,0 -0.455383,0 -0.82191,-0.155496 -1.121797,-0.46649 0,0 0,0 0,0 0,0 -0.188817,-0.199924 -0.188817,-0.199924 0,0 -0.299886,0.222138 -0.299886,0.222138 -0.3221,0.233245 -0.61088,0.355421 -0.866338,0.355421 -0.255459,0 -0.488704,-0.07775 -0.710842,-0.222138 -0.222138,-0.14439 -0.377635,-0.333207 -0.46649,-0.566452 0,0 0,0 0,0 -0.06664,-0.17771 -0.09996,-0.366528 -0.09996,-0.577559 0,0 0,0 0,0 0,-0.566452 0.188817,-1.14401 0.577559,-1.743783 0.388741,-0.599773 0.833017,-0.988514 1.343935,-1.166225 z m 3.476463,-0.06664 c 0.05553,-0.06664 0.166604,-0.09996 0.3221,-0.09996 0,0 0,0 0,0 0.122176,0 0.211031,0.02221 0.255459,0.07775 0,0 0,0 0,0 0.03332,0.03332 0.14439,0.233245 0.333207,0.588666 0,0 0,0 0,0 0.133283,0.255459 0.3221,0.577559 0.566452,0.955193 0.244352,0.377635 0.444276,0.655307 0.588666,0.821911 0,0 0,0 0,0 0,0 0.166603,0.188817 0.166603,0.188817 0,0 0.166604,-0.388741 0.166604,-0.388741 0.122175,-0.255459 0.277672,-0.621987 0.444276,-1.088476 0,0 0,0 0,0 0.166603,-0.455383 0.288779,-0.721949 0.35542,-0.78859 0,0 0,0 0,0 0.05553,-0.05554 0.155497,-0.07775 0.310994,-0.07775 0,0 0,0 0,0 0.122175,0 0.211031,0.03332 0.288779,0.111069 0.07775,0.07775 0.111069,0.188818 0.111069,0.310994 0,0 0,0 0,0 0,0.144389 -0.166604,0.633093 -0.488704,1.455003 -0.333207,0.821911 -0.655307,1.554967 -0.977407,2.210274 0,0 0,0 0,0 -0.233245,0.488703 -0.510917,1.010728 -0.833017,1.554966 -0.3221,0.555345 -0.533132,0.888552 -0.644201,1.010728 0,0 0,0 0,0 -0.09996,0.09996 -0.211031,0.155496 -0.333207,0.155496 0,0 0,0 0,0 -0.09996,0 -0.188817,-0.03332 -0.266565,-0.111069 0,0 0,0 0,0 -0.111069,-0.09996 -0.166604,-0.211031 -0.166604,-0.344314 0,0 0,0 0,0 0,-0.17771 0.133283,-0.488703 0.410956,-0.944086 0,0 0,0 0,0 0.277672,-0.433169 0.588665,-0.988514 0.944086,-1.654928 0,0 0,0 0,0 0,0 0.177711,-0.344314 0.177711,-0.344314 0,0 -0.188818,-0.3221 -0.188818,-0.3221 -0.122176,-0.211031 -0.255458,-0.433169 -0.422062,-0.644201 0,0 0,0 0,0 -0.377635,-0.510917 -0.710842,-1.055155 -0.999621,-1.643821 0,0 0,0 0,0 -0.14439,-0.288779 -0.222138,-0.522024 -0.222138,-0.699735 0,0 0,0 0,0 0,-0.111069 0.03332,-0.211031 0.09996,-0.288779 z m 10.684844,2.165846 c -0.14439,-0.199925 -0.244352,-0.299887 -0.28878,-0.299887 -0.04443,0 -0.06664,0.28878 -0.06664,0.855232 0,0.433169 0.01111,0.677521 0.02221,0.755269 0.01111,0.07775 0.06664,0.111069 0.144389,0.111069 0.07775,0 0.177711,-0.04443 0.277673,-0.14439 0.09996,-0.08886 0.17771,-0.188817 0.222138,-0.310993 0.01111,-0.04443 0.02221,-0.08885 0.02221,-0.122176 0,-0.255459 -0.111069,-0.533131 -0.333207,-0.844124 z m -1.39947,-2.943329 c -0.03332,-0.14439 -0.06664,-0.211031 -0.122176,-0.211031 -0.05553,0 -0.144389,0.06664 -0.266565,0.199924 -0.166604,0.188817 -0.255459,0.388742 -0.255459,0.599773 0,0.08886 0.01111,0.155496 0.04443,0.211031 0.03332,0.05553 0.133283,0.133283 0.277672,0.211031 0.14439,0.07775 0.244352,0.122176 0.3221,0.122176 0.03332,0 0.04443,-0.155497 0.04443,-0.46649 0,-0.266566 -0.01111,-0.488704 -0.04443,-0.666414 z m 0.277673,-2.232487 c 0.09996,-0.04443 0.155496,-0.06664 0.188817,-0.06664 0.03332,0 0.09996,0.03332 0.199924,0.111069 0.06664,0.04443 0.111069,0.09996 0.133283,0.17771 0.01111,0.07775 0.02221,0.233245 0.02221,0.477597 0,0 0,0.566452 0,0.566452 0,0 0.721949,0.233245 0.721949,0.233245 0.288779,0.09996 0.488703,0.166603 0.588665,0.222138 0.09996,0.05553 0.155497,0.111069 0.166604,0.17771 0.01111,0.04443 0.02221,0.111069 0.02221,0.188817 0,0.14439 -0.07775,0.255459 -0.222138,0.333207 -0.07775,0.03332 -0.14439,0.05553 -0.199925,0.05553 -0.08885,0 -0.244351,-0.03332 -0.46649,-0.111069 -0.233244,-0.07775 -0.388741,-0.122176 -0.488703,-0.122176 0,0 -0.02221,0 -0.02221,0 -0.01111,0.03332 -0.01111,0.07775 -0.01111,0.133283 0,0.144389 0.01111,0.344314 0.03332,0.588665 0,0 0.04443,0.699735 0.04443,0.699735 0,0 0.299887,0.177711 0.299887,0.177711 0.211031,0.122175 0.433169,0.299886 0.666414,0.555345 0.477597,0.49981 0.721948,1.021834 0.721948,1.566073 0,0.233244 -0.04443,0.433169 -0.122176,0.599772 -0.122175,0.28878 -0.277672,0.499811 -0.455382,0.6442 -0.188818,0.14439 -0.422063,0.244352 -0.721949,0.299887 0,0 -0.299886,0.05553 -0.299886,0.05553 0,0 -0.02221,0.46649 -0.02221,0.46649 -0.01111,0.3221 -0.03332,0.533131 -0.06664,0.633093 -0.03332,0.09996 -0.09996,0.166604 -0.222138,0.222138 -0.06664,0.03332 -0.133282,0.04443 -0.199924,0.04443 -0.05553,0 -0.111069,-0.01111 -0.166603,-0.04443 -0.188818,-0.09996 -0.28878,-0.433169 -0.28878,-0.988514 0,0 0,-0.566452 0,-0.566452 0,0 -0.422062,-0.255458 -0.422062,-0.255458 -0.266565,-0.166604 -0.533131,-0.377635 -0.78859,-0.655308 -0.166603,-0.17771 -0.266565,-0.299886 -0.299886,-0.377634 -0.04443,-0.07775 -0.06664,-0.188817 -0.06664,-0.333207 0,-0.3221 0.133282,-0.488704 0.410955,-0.499811 0.122176,0 0.244352,0.06664 0.344314,0.199924 0.09996,0.14439 0.244352,0.299887 0.422062,0.477597 0.17771,0.188818 0.288779,0.277673 0.3221,0.277673 0.05553,0 0.07775,-0.28878 0.07775,-0.877445 0,0 0,-0.877446 0,-0.877446 0,0 -0.533131,-0.199924 -0.533131,-0.199924 -0.610879,-0.233245 -0.988514,-0.588665 -1.121797,-1.044048 -0.03332,-0.133283 -0.04443,-0.233245 -0.04443,-0.310994 0,-0.366527 0.133282,-0.721948 0.388741,-1.077369 0.255459,-0.344314 0.555345,-0.555345 0.888552,-0.621986 0.122176,-0.03332 0.188817,-0.06664 0.222138,-0.111069 0.02221,-0.03332 0.04443,-0.155497 0.05553,-0.355421 0.02221,-0.244352 0.05553,-0.410955 0.08885,-0.499811 0.03332,-0.07775 0.111069,-0.144389 0.222138,-0.188817 z m 7.408309,0.05553 c 0.455383,0.01111 0.533131,0.03332 0.744162,0.244351 0.199924,0.211031 0.244352,0.399849 0.166604,0.666414 -0.122176,0.355421 -0.177711,0.499811 -0.566452,1.299508 -0.344314,0.677521 -0.488704,0.999621 -0.621987,1.266186 -0.05553,0.133283 -0.155496,0.333207 -0.211031,0.455383 -0.233245,0.488704 -0.288779,0.621987 -0.488703,1.099583 -0.05553,0.14439 -0.111069,0.28878 -0.122176,0.310994 -0.01111,0.02221 -0.04443,0.111069 -0.07775,0.17771 -0.02221,0.06664 -0.05553,0.155497 -0.07775,0.199924 -0.02221,0.04443 -0.03332,0.08885 -0.03332,0.08885 0,0.05553 -1.121797,2.299129 -1.210653,2.421305 -0.07775,0.111069 -0.244351,0.211031 -0.377634,0.233245 -0.177711,0.03332 -0.410956,-0.07775 -0.533131,-0.244352 -0.04443,-0.08886 -0.05554,-0.111069 -0.05554,-0.299887 0,0 0,-0.199924 0,-0.199924 0,0 0.499811,-0.999621 0.499811,-0.999621 0.266565,-0.555345 0.49981,-1.021835 0.510917,-1.044048 0,0 0.111069,-0.244352 0.222138,-0.510918 0.111069,-0.255459 0.222138,-0.49981 0.222138,-0.49981 0,0 0.02221,-0.04443 0.02221,-0.04443 0,-0.02221 0.04443,-0.122176 0.08886,-0.222138 0.05553,-0.111069 0.122176,-0.277672 0.166603,-0.366528 0.111069,-0.233245 0.877446,-1.777104 1.032942,-2.043669 0.299887,-0.577559 0.444276,-0.888552 0.410956,-0.899659 -0.03332,-0.02221 -0.344314,-0.01111 -0.544239,0.02221 -0.222138,0.03332 -1.088476,0.08886 -1.710462,0.09996 -0.377635,0.01111 -0.6442,0.03332 -0.777483,0.05553 -0.299887,0.05553 -0.522025,0.05553 -0.633094,-0.01111 -0.144389,-0.08885 -0.199924,-0.188817 -0.222138,-0.35542 -0.01111,-0.177711 0.02221,-0.28878 0.14439,-0.410956 0.177711,-0.17771 0.522024,-0.255459 1.232866,-0.288779 0.744162,-0.03332 1.221759,-0.06664 1.43279,-0.08885 0.09996,-0.01111 0.299887,-0.04443 0.455383,-0.06664 0.14439,-0.01111 0.3221,-0.03332 0.388742,-0.04443 0.07775,0 0.310993,0 0.522024,0 z m 2.499048,0.03332 c 0.344314,0.04443 1.788211,0.06664 2.176952,0.03332 0.155497,-0.01111 0.46649,-0.02221 0.688628,-0.03332 0.410955,0 0.410955,0 0.522024,0.06664 0.06664,0.03332 0.14439,0.111069 0.177711,0.166603 0.05553,0.07775 0.06664,0.122176 0.06664,0.266566 0,0.166603 -0.01111,0.188817 -0.08885,0.288779 -0.14439,0.177711 -0.288779,0.233245 -0.733055,0.255459 -0.211032,0.01111 -0.533132,0.03332 -0.721949,0.04443 -0.199924,0.01111 -0.699735,0.02221 -1.132904,0.03332 -0.633093,0 -0.777483,0.01111 -0.810804,0.03332 -0.02221,0.03332 -0.03332,0.122176 -0.03332,0.444276 0,0.211031 -0.01111,0.49981 -0.02221,0.621986 0,0 -0.01111,0.222138 -0.01111,0.222138 0,0 0.09996,-0.01111 0.09996,-0.01111 0.04443,-0.01111 0.155497,-0.03332 0.244352,-0.05553 0.310993,-0.06664 0.577559,-0.08886 1.099583,-0.07775 0.399849,0.01111 0.544238,0.02221 0.721949,0.06664 0.477596,0.122176 0.810803,0.344314 1.066262,0.766376 0.266566,0.410955 0.388742,0.999621 0.388742,1.854852 -0.01111,0.710842 -0.08886,1.166225 -0.28878,1.588287 -0.3221,0.6442 -0.46649,0.888552 -0.677521,1.066263 -0.04443,0.04443 -0.09996,0.08886 -0.122176,0.111069 -0.07775,0.08886 -0.522024,0.410955 -0.6442,0.466489 -0.166603,0.08886 -0.377634,0.14439 -0.655307,0.199925 -0.211031,0.03332 -0.244352,0.03332 -0.433169,0 -0.388742,-0.07775 -0.93298,-0.299887 -1.232866,-0.510918 -0.255459,-0.17771 -0.433169,-0.388741 -0.566452,-0.6442 -0.17771,-0.366528 -0.222138,-0.577559 -0.166603,-0.810804 0.07775,-0.35542 0.455382,-0.510917 0.777483,-0.3221 0.144389,0.07775 0.222138,0.199924 0.35542,0.477597 0.06664,0.133283 0.14439,0.255459 0.177711,0.299886 0.05553,0.04443 0.288779,0.166604 0.522024,0.266566 0.233245,0.111069 0.388742,0.122176 0.577559,0.06664 0.122176,-0.04443 0.17771,-0.07775 0.410955,-0.244352 0.211031,-0.166603 0.333207,-0.3221 0.499811,-0.655307 0.288779,-0.566452 0.299886,-0.610879 0.299886,-1.366148 0,-0.699735 -0.03332,-0.93298 -0.17771,-1.199546 -0.133283,-0.266565 -0.399849,-0.344314 -1.099583,-0.35542 -0.344314,0 -0.566452,0.03332 -0.844125,0.09996 -0.05553,0.02221 -0.155497,0.04443 -0.233245,0.05553 -0.06664,0.02221 -0.199924,0.05553 -0.277672,0.07775 -0.377635,0.08886 -0.644201,0 -0.821911,-0.277672 -0.06664,-0.09996 -0.07775,-0.14439 -0.08885,-0.3221 -0.01111,-0.09996 0,-0.355421 0.01111,-0.544238 0.04443,-0.599773 0.07775,-1.243973 0.07775,-1.699356 0,-0.377635 0.01111,-0.444276 0.05554,-0.533131 0.05553,-0.122176 0.199924,-0.244352 0.333207,-0.277673 0.144389,-0.04443 0.233244,-0.04443 0.533131,0 z"
         id="text1-9"
         transform="rotate(-135)"
         aria-label="Pay $75" /><path
         class="st0"
         d="m 26.428817,-4.1566716 12.49074,-12.4907404 2.919674,2.919675 -1.930127,1.930127 17.220164,17.2201647 1.930128,-1.9301269 2.919674,2.9196741 -12.49074,12.4907411 1.00587,1.00587 -1.919926,1.919925 -2.456526,-2.456526 -5.629198,2.891111 c -1.660807,0.852847 -3.474638,1.320077 -4.792674,0.002 L 22.55836,9.1277464 c -1.318036,-1.3180359 -0.958943,-3.1951152 0,-4.7906332 l 3.201236,-5.31907245 -2.256575,-2.25657535 1.919926,-1.9199259 1.003829,1.0038294 z m 22.608606,9.1956491 -8.624364,-8.6243644 2.034182,-2.0341826 8.624365,8.6243643 z M 50.479918,15.956644 C 48.351881,13.689866 47.927497,11.425129 49.502612,9.1603911 l 3.886779,3.8867799 z M 29.652496,-4.8707775 c 2.266778,2.1280364 4.531515,2.5524196 6.796252,0.9773046 L 32.56197,-7.7802515 Z M 45.066992,18.325436 27.006222,0.26466675 24.206926,4.6105139 c -0.767155,1.1915378 -1.00383,2.6483149 0,3.6521443 l 12.49074,12.4907398 c 1.003829,1.003829 2.387155,0.648817 3.652143,0 z"
         id="path1"
         style="stroke-width:0.328904" /></g></g><style
     type="text/css"
     id="style1"><![CDATA[
	.st0{fill-rule:evenodd;clip-rule:evenodd;}
]]></style><style
     type="text/css"
     id="style1-3">.st0{fill-rule:evenodd;clip-rule:evenodd;}</style><style
     type="text/css"
     id="style1-9">.st0{fill-rule:evenodd;clip-rule:evenodd;}</style></svg>
