<?xml version="1.0" encoding="UTF-8" standalone="no"?>
<!-- Created with Inkscape (http://www.inkscape.org/) -->

<svg
   width="220mm"
   height="200mm"
   viewBox="0 0 220 200"
   version="1.1"
   id="svg1"
   inkscape:version="1.3 (0e150ed6c4, 2023-07-21)"
   sodipodi:docname="template - Copy.svg"
   xmlns:inkscape="http://www.inkscape.org/namespaces/inkscape"
   xmlns:sodipodi="http://sodipodi.sourceforge.net/DTD/sodipodi-0.dtd"
   xmlns="http://www.w3.org/2000/svg"
   xmlns:svg="http://www.w3.org/2000/svg">
  <sodipodi:namedview
     id="namedview1"
     pagecolor="#ffffff"
     bordercolor="#666666"
     borderopacity="1.0"
     inkscape:showpageshadow="2"
     inkscape:pageopacity="0.0"
     inkscape:pagecheckerboard="true"
     inkscape:deskcolor="#d1d1d1"
     inkscape:document-units="mm"
     inkscape:zoom="0.54208404"
     inkscape:cx="413.22006"
     inkscape:cy="485.16463"
     inkscape:window-width="1649"
     inkscape:window-height="1157"
     inkscape:window-x="727"
     inkscape:window-y="128"
     inkscape:window-maximized="0"
     inkscape:current-layer="layer1" />
  <defs
     id="defs1" />
  <g
     inkscape:label="Layer 1"
     inkscape:groupmode="layer"
     id="layer1">
    <path
       id="Path 1"
       class="s1"
       d="m 124.44407,51.207032 c -0.76515,0 -1.89286,0.09397 -2.52377,0.201357 -0.63092,0.120814 -1.38265,0.268423 -1.67798,0.348966 -0.29532,0.08054 -0.8457,0.241576 -1.20814,0.348966 -0.37587,0.120814 -1.12759,0.429771 -1.67797,0.684822 -0.55038,0.241629 -1.61086,0.859123 -2.34916,1.342379 -0.83228,0.550375 -1.85249,1.409395 -2.68476,2.241667 -0.73831,0.738306 -1.59754,1.704821 -1.91971,2.147806 -0.30874,0.442985 -0.64434,0.91287 -0.73831,1.060531 -0.14766,0.228205 -0.25489,0.134236 -1.11402,-1.006783 -0.52352,-0.698035 -1.5571,-1.839114 -2.29541,-2.537148 -0.72488,-0.698034 -1.74514,-1.557107 -2.26867,-1.892702 -0.51011,-0.349018 -1.4364,-0.886022 -2.06732,-1.194769 -0.63092,-0.322171 -1.59743,-0.724779 -2.147804,-0.899289 -0.550375,-0.174509 -1.677975,-0.443089 -2.4834,-0.577327 -0.926239,-0.174509 -2.000147,-0.268528 -2.886114,-0.255104 -0.778576,0.01342 -1.892753,0.09402 -2.4834,0.187985 -0.590647,0.09397 -1.677976,0.335595 -2.416281,0.536951 -0.738306,0.201357 -1.825635,0.577328 -2.416282,0.845803 -0.590647,0.255052 -1.677976,0.832275 -2.416281,1.27526 -0.738306,0.429561 -1.610854,1.006784 -1.946449,1.27526 -0.335594,0.255052 -1.234991,1.114124 -2.013568,1.892701 -0.912814,0.912815 -1.745039,1.906128 -2.295415,2.765247 -0.483256,0.738306 -1.07406,1.7452 -1.302264,2.255301 -0.241628,0.49668 -0.59049,1.396076 -0.778422,2.013568 -0.187933,0.60407 -0.375867,1.181293 -0.402714,1.275259 -0.02685,0.08054 -0.187881,0.187881 -0.348966,0.214729 -0.174509,0.04027 -0.724989,0.161085 -1.248517,0.268475 -0.523527,0.120815 -1.570585,0.456305 -2.349162,0.765051 -0.778577,0.295324 -1.798787,0.75168 -2.282044,1.020156 -0.483256,0.268475 -1.476619,0.912974 -2.214924,1.436502 -0.738306,0.523528 -1.892702,1.503412 -2.563891,2.161177 -0.671187,0.671189 -1.489988,1.543735 -1.825582,1.946449 -0.322171,0.402713 -0.966513,1.288683 -1.409498,1.946449 -0.442985,0.671188 -1.127755,1.825742 -1.503621,2.590895 -0.375866,0.751732 -0.68456,1.395969 -0.68456,1.43624 0,0.04027 -0.134186,0.349124 -0.281848,0.711566 -0.161085,0.349018 -0.456408,1.208038 -0.671189,1.906073 -0.21478,0.698034 -0.496785,1.852485 -0.644446,2.550519 -0.147662,0.698034 -0.335543,1.852485 -0.416085,2.550519 -0.06712,0.698034 -0.134238,1.919708 -0.134238,2.725133 v 1.43624 c -0.671189,0.456409 -1.38265,1.020155 -2.013568,1.557107 -0.630918,0.523528 -1.691292,1.530312 -2.375905,2.214925 -0.684611,0.698034 -1.530521,1.651178 -1.892963,2.134434 -0.349019,0.483256 -0.899184,1.234988 -1.194508,1.677973 -0.295323,0.442985 -0.81906,1.342369 -1.154655,2.013559 -0.335594,0.67119 -0.765103,1.59743 -0.953036,2.08069 -0.201357,0.48326 -0.510052,1.4095 -0.684561,2.08069 -0.174509,0.67119 -0.416137,1.79889 -0.536951,2.52377 -0.10739,0.71146 -0.201357,1.98673 -0.201357,2.819 0,0.81885 0.09402,2.08058 0.187985,2.77862 0.107391,0.69803 0.322119,1.81221 0.483204,2.4834 0.161086,0.67119 0.536847,1.81221 0.83217,2.55052 0.295324,0.7383 0.711513,1.67797 0.926294,2.08068 0.21478,0.40272 0.496837,0.92625 0.631075,1.14102 0.134238,0.21479 0.469727,0.76516 0.765051,1.20814 0.281899,0.44299 0.792055,1.16788 1.12765,1.61086 0.322171,0.44299 1.19456,1.4095 1.919445,2.14781 1.302104,1.31553 1.329006,1.3558 1.261887,1.87932 -0.02685,0.29533 -0.134185,1.20815 -0.214728,2.01357 -0.09397,0.85912 -0.134185,2.17466 -0.08049,3.15459 0.04027,0.92624 0.161033,2.13438 0.281847,2.68476 0.10739,0.55038 0.308747,1.49004 0.469833,2.08069 0.147661,0.59064 0.523475,1.70482 0.818798,2.4834 0.295323,0.77857 0.819008,1.9196 1.168026,2.55051 0.335595,0.63092 0.88597,1.53032 1.208141,2.01357 0.322171,0.48326 0.926241,1.28869 1.342379,1.81222 0.402713,0.52352 1.315481,1.51683 2.026939,2.22829 0.71146,0.71146 1.677921,1.59738 2.161177,1.95982 0.483256,0.37586 1.476619,1.06059 2.214925,1.51699 0.738305,0.46984 1.798787,1.06059 2.349162,1.31564 0.550375,0.25505 1.503571,0.63076 2.121063,0.84554 0.60407,0.21478 1.597221,0.51021 2.201291,0.64445 0.617491,0.14766 1.611066,0.32201 2.228558,0.37571 l 1.114017,0.10749 c 0.214781,0.83227 0.402661,1.43634 0.550323,1.87933 0.147661,0.44298 0.510103,1.31553 0.805427,1.94645 0.295323,0.63092 0.966725,1.74509 1.490249,2.4834 0.523528,0.73831 1.436296,1.82558 2.026939,2.42965 0.604071,0.60407 1.503413,1.42287 2.02694,1.82558 0.523528,0.40272 1.396074,1.00684 1.946449,1.32901 0.550375,0.3356 1.422921,0.80559 1.946449,1.0338 0.523527,0.2282 1.275259,0.53689 1.677973,0.68455 0.402714,0.14767 1.194717,0.38929 1.745092,0.53695 0.550375,0.13424 1.610857,0.33549 2.349162,0.42946 0.845696,0.094 1.9733,0.13418 3.020352,0.0805 1.060476,-0.0671 2.147808,-0.21473 2.953233,-0.41608 0.698034,-0.17451 1.691402,-0.48321 2.214922,-0.68456 0.52353,-0.20136 1.47662,-0.67109 2.14781,-1.03353 0.67119,-0.36244 1.74515,-1.10097 2.40291,-1.62449 0.67119,-0.53696 1.6377,-1.44961 2.1478,-2.05368 0.52353,-0.59065 1.06033,-1.2083 1.18114,-1.36939 0.13424,-0.16108 0.48336,-0.6845 0.77869,-1.16776 0.29532,-0.48325 0.57712,-0.87254 0.63081,-0.87254 0.0671,0 0.32222,0.37575 0.5907,0.83216 0.26848,0.46983 0.76531,1.20825 1.10091,1.65124 0.33559,0.44298 0.99315,1.19466 1.46298,1.69134 0.46983,0.48325 1.08743,1.07401 1.38275,1.31564 0.29533,0.25505 0.95309,0.72494 1.47662,1.06053 0.52353,0.33559 1.3558,0.80527 1.87933,1.04689 0.52353,0.22821 1.31543,0.55049 1.77184,0.71157 0.46983,0.14766 1.31553,0.38913 1.87933,0.50994 0.77857,0.17451 1.6915,0.22837 3.53055,0.22837 2.14781,0.0134 2.65792,-0.0269 3.82579,-0.30886 0.7383,-0.1745 1.75851,-0.46967 2.28204,-0.64418 0.52353,-0.17451 1.1276,-0.40282 1.34238,-0.51021 0.21478,-0.094 0.73831,-0.32228 1.14102,-0.51021 0.40271,-0.18793 1.19472,-0.60386 1.74509,-0.92603 0.55037,-0.33559 1.51694,-0.97998 2.13444,-1.46324 0.61749,-0.46983 1.70482,-1.46325 2.41628,-2.20155 0.71146,-0.73831 1.69124,-1.94645 2.18792,-2.68476 0.49668,-0.73831 1.1278,-1.85249 1.42312,-2.4834 0.29533,-0.63092 0.64419,-1.50346 0.77843,-1.94645 0.13424,-0.44298 0.30885,-0.88608 0.37597,-0.98004 0.0805,-0.094 0.38923,-0.2012 0.68456,-0.24147 0.29532,-0.0403 1.0739,-0.26843 1.74509,-0.48321 0.67119,-0.2282 1.44977,-0.52363 1.74509,-0.64445 0.29533,-0.13423 1.04706,-0.52347 1.67798,-0.88591 0.63092,-0.36244 1.59743,-1.00679 2.1478,-1.4095 0.55038,-0.41614 1.4901,-1.20814 2.06732,-1.74509 0.57722,-0.55037 1.43629,-1.44982 1.8927,-2.0002 0.45641,-0.55037 1.07401,-1.36923 1.38275,-1.81221 0.29533,-0.44298 0.72484,-1.14102 0.95304,-1.54373 0.24163,-0.40272 0.67108,-1.22157 0.96641,-1.81222 0.29532,-0.59064 0.73836,-1.65113 0.99341,-2.34916 0.25505,-0.69803 0.57722,-1.73167 0.73831,-2.28204 0.14766,-0.55038 0.38929,-1.73167 0.53695,-2.61764 0.13424,-0.88597 0.30864,-2.5103 0.36234,-3.61105 l 0.10749,-2.00019 c 1.55716,-1.16787 2.18808,-1.65103 2.41629,-1.83896 0.21477,-0.18793 0.99346,-0.91282 1.71835,-1.61085 0.7383,-0.69804 1.78514,-1.87934 2.33552,-2.61764 0.5638,-0.73831 1.36928,-1.94645 1.79884,-2.68476 0.44299,-0.7383 1.03374,-1.94645 1.31564,-2.68476 0.29532,-0.7383 0.61755,-1.6377 0.72494,-2.01357 0.12081,-0.36243 0.32196,-1.20814 0.45619,-1.87932 0.17451,-0.8994 0.22837,-1.82564 0.22837,-3.69155 0,-1.81221 -0.0672,-2.80557 -0.24174,-3.69154 -0.12081,-0.67118 -0.32206,-1.54373 -0.42945,-1.94645 -0.12081,-0.40271 -0.42972,-1.31553 -0.6982,-2.01356 -0.25505,-0.69804 -0.75173,-1.78537 -1.07391,-2.41628 -0.33559,-0.63092 -0.81884,-1.476615 -1.07389,-1.879329 -0.25506,-0.402713 -0.80538,-1.194717 -1.22151,-1.745092 -0.41614,-0.550375 -1.36929,-1.637704 -2.13444,-2.416281 l -1.38249,-1.409498 c 0.10739,-0.939662 0.21467,-1.865908 0.29522,-2.684757 0.0805,-0.832272 0.10738,-2.12096 0.0671,-2.953233 -0.0537,-0.818848 -0.17446,-1.959872 -0.28185,-2.550519 -0.094,-0.590646 -0.25505,-1.369226 -0.3356,-1.745092 -0.094,-0.362442 -0.37575,-1.30211 -0.63081,-2.080687 -0.26847,-0.778576 -0.77863,-2.000039 -1.12765,-2.7115 -0.36244,-0.724881 -0.93966,-1.758515 -1.27526,-2.282043 -0.34901,-0.536948 -1.00684,-1.463297 -1.46324,-2.053944 -0.45642,-0.590646 -1.34233,-1.584061 -1.95982,-2.201553 -0.6175,-0.60407 -1.36933,-1.302107 -1.65124,-1.543735 -0.28189,-0.228204 -0.71146,-0.577118 -0.93966,-0.765051 -0.2282,-0.187933 -0.93972,-0.68477 -1.59748,-1.100908 -0.64434,-0.429561 -1.6375,-1.006731 -2.20129,-1.288631 -0.57722,-0.295323 -1.40961,-0.671241 -1.85259,-0.859174 -0.44299,-0.17451 -1.38265,-0.483204 -2.08069,-0.684561 -0.69803,-0.201357 -1.85248,-0.456304 -2.55052,-0.563694 -0.69803,-0.09397 -1.61085,-0.187986 -2.01357,-0.187986 h -0.7383 c -0.5101,-1.610851 -0.97989,-2.711607 -1.35575,-3.490184 -0.38929,-0.778577 -1.02016,-1.865906 -1.42287,-2.416281 -0.38929,-0.550375 -0.87265,-1.181346 -1.04716,-1.396126 -0.18794,-0.201357 -0.64434,-0.684613 -1.00679,-1.073903 -0.37586,-0.375866 -0.91281,-0.899289 -1.20814,-1.167765 -0.29532,-0.255052 -0.95309,-0.778527 -1.47661,-1.154393 -0.52353,-0.375866 -1.63771,-1.047055 -2.48341,-1.476616 -0.84569,-0.442985 -2.12095,-0.980146 -2.81899,-1.221774 -0.69803,-0.228204 -1.98683,-0.536847 -2.85937,-0.697932 -0.89939,-0.147662 -2.1476,-0.268476 -2.9396,-0.268476 z m -29.505586,8.000524 c 0.187933,0.01342 0.60407,0.0806 0.939664,0.120866 0.335595,0.0537 0.939666,0.201357 1.342379,0.335595 0.402714,0.120814 0.953089,0.335594 1.208141,0.469832 0.255052,0.134238 0.885969,0.550375 1.409497,0.939665 0.523525,0.375866 1.248415,1.047056 1.610855,1.476616 0.37587,0.416138 0.80537,0.966566 0.95304,1.19477 0.16108,0.228204 0.44309,0.684561 0.64444,1.020155 0.20136,0.335595 0.57707,1.060479 0.84554,1.610854 0.25506,0.550376 0.5638,1.248412 0.67119,1.543736 0.10739,0.295323 0.37597,1.114177 0.98004,3.08747 v 79.670165 l -0.40271,1.38275 c -0.21478,0.75173 -0.48326,1.61075 -0.60407,1.90607 -0.12081,0.29532 -0.46973,1.04706 -0.76505,1.67798 -0.29532,0.63091 -0.85923,1.62427 -1.24852,2.21492 -0.40271,0.59065 -1.04695,1.39612 -1.43624,1.79884 -0.38929,0.40272 -1.00689,0.95304 -1.382753,1.22151 -0.362442,0.2819 -0.993255,0.65782 -1.369121,0.85918 -0.38929,0.18793 -1.154445,0.46978 -1.677973,0.61744 -0.644339,0.17451 -1.396074,0.26848 -2.147806,0.26848 -0.657762,0 -1.503464,-0.0671 -1.87933,-0.14761 -0.38929,-0.0805 -0.953193,-0.22826 -1.248516,-0.32223 -0.295324,-0.094 -0.872547,-0.32206 -1.27526,-0.49657 -0.402714,-0.18793 -1.154446,-0.60429 -1.677973,-0.95331 -0.523528,-0.33559 -1.275207,-0.93945 -1.691345,-1.32873 -0.416137,-0.3893 -1.047108,-1.10086 -1.396126,-1.58412 -0.349018,-0.48325 -0.778475,-1.20814 -0.966408,-1.61085 -0.187932,-0.40271 -0.42977,-1.03364 -0.550584,-1.4095 -0.147662,-0.45641 -0.214728,-1.1813 -0.214728,-2.21492 0,-1.34238 0.04043,-1.67798 0.362599,-2.55052 0.201356,-0.55038 0.644132,-1.49004 0.99315,-2.08069 0.429562,-0.71594 1.114282,-1.54816 2.053944,-2.49677 0.778577,-0.77858 1.986723,-1.81216 2.684757,-2.29542 0.698034,-0.48325 2.000147,-1.28878 2.886114,-1.78546 0.885967,-0.51011 1.812316,-1.10081 2.053944,-1.32901 0.241628,-0.22821 0.60407,-0.75168 0.805427,-1.15439 0.2819,-0.59065 0.36239,-0.92625 0.348966,-1.67798 0,-0.64434 -0.09397,-1.1276 -0.268475,-1.54373 -0.147662,-0.3356 -0.510104,-0.85923 -0.805427,-1.1814 -0.2819,-0.32217 -0.845856,-0.73815 -1.235146,-0.91266 -0.536951,-0.25505 -0.926139,-0.32222 -1.704716,-0.32222 -0.96651,0 -1.07401,0.0404 -2.523776,0.77868 -0.818851,0.42956 -2.13428,1.18124 -2.912857,1.69134 -0.778577,0.51011 -1.77194,1.19472 -2.214924,1.54374 -0.442985,0.33559 -1.047056,0.81885 -1.342379,1.0739 -0.295323,0.25506 -1.047055,0.99331 -1.677973,1.62423 -0.630918,0.63091 -1.557264,1.69139 -2.053944,2.34916 -0.523527,0.69803 -1.275155,1.94645 -1.771835,2.95323 -0.469833,0.95309 -0.872441,1.86591 -0.899289,2.01357 -0.04027,0.21478 -0.16119,0.28201 -0.644446,0.30885 -0.335595,0.0268 -0.872546,-0.0269 -1.208141,-0.10749 -0.335595,-0.0806 -1.154446,-0.34902 -1.812211,-0.60408 -0.657766,-0.25504 -1.718245,-0.77852 -2.349162,-1.15439 -0.630918,-0.37586 -1.208036,-0.76526 -1.302003,-0.8458 -0.08054,-0.0805 -0.349018,-0.29527 -0.60407,-0.4832 -0.241628,-0.18793 -0.832379,-0.72489 -1.315636,-1.20815 -0.483256,-0.49668 -1.234988,-1.36922 -1.677973,-1.94645 -0.442985,-0.59064 -1.087222,-1.65112 -1.43624,-2.34915 -0.335595,-0.69804 -0.738466,-1.6914 -0.899551,-2.21493 -0.161085,-0.52353 -0.375814,-1.3558 -0.483204,-1.87933 -0.10739,-0.52353 -0.201357,-1.65102 -0.201357,-2.51014 0,-0.88597 0.08054,-1.98672 0.201357,-2.4834 0.10739,-0.5101 0.308747,-1.32906 0.469833,-1.85259 0.147661,-0.52353 0.268475,-1.27526 0.268475,-1.67798 0,-0.40271 -0.08065,-0.97993 -0.174614,-1.27525 -0.10739,-0.29533 -0.349018,-0.77858 -0.536951,-1.0739 -0.187933,-0.29533 -0.845489,-0.93962 -1.462983,-1.42287 -0.617492,-0.49668 -1.570688,-1.36923 -2.121063,-1.94645 -0.563799,-0.59064 -1.288631,-1.44983 -1.624226,-1.93308 -0.349018,-0.48326 -0.832222,-1.26184 -1.087274,-1.74509 -0.241628,-0.48326 -0.617494,-1.28869 -0.805427,-1.81221 -0.201357,-0.52353 -0.456514,-1.32896 -0.577328,-1.81222 -0.120814,-0.48325 -0.254947,-1.44976 -0.295218,-2.1478 -0.0537,-0.75173 -0.01353,-1.74509 0.09386,-2.41628 0.09397,-0.63092 0.281794,-1.50347 0.429456,-1.94645 0.134238,-0.44299 0.537161,-1.38265 0.886179,-2.08069 0.349019,-0.69803 0.697932,-1.32895 0.765051,-1.4095 0.08054,-0.0671 0.241733,-0.29521 0.375971,-0.49657 0.120814,-0.21478 0.362233,-0.53695 0.523318,-0.73831 0.174509,-0.18793 0.604175,-0.68482 0.980041,-1.08753 0.362443,-0.40272 1.221565,-1.194715 1.87933,-1.745092 0.657766,-0.550375 1.825742,-1.422711 2.590896,-1.932815 0.751731,-0.49668 1.516835,-1.114175 1.691344,-1.342379 0.187933,-0.241628 0.469728,-0.738413 0.630813,-1.114278 0.174509,-0.402714 0.295271,-0.939666 0.281848,-1.342379 0,-0.362443 -0.04017,-1.610857 -0.09386,-2.751876 -0.06712,-1.449767 -0.0537,-2.429708 0.06712,-3.221709 0.08054,-0.630918 0.281795,-1.59743 0.429457,-2.147805 0.147662,-0.550376 0.38929,-1.369226 0.536951,-1.812211 0.147662,-0.442985 0.483257,-1.221565 0.738309,-1.745092 0.268475,-0.523528 0.765208,-1.382545 1.12765,-1.906073 0.362442,-0.536949 0.85907,-1.194717 1.087274,-1.476617 0.241628,-0.268475 0.805532,-0.832327 1.248517,-1.261888 0.442985,-0.416137 1.194717,-1.033579 1.677973,-1.35575 0.483256,-0.322171 1.288683,-0.778789 1.812211,-1.020417 0.523528,-0.228204 1.127598,-0.456252 1.342378,-0.509947 0.402714,-0.08054 0.402609,-0.06722 0.832171,1.033527 0.241628,0.617491 0.751731,1.678026 1.141021,2.335791 0.402714,0.671189 1.060479,1.66455 1.476617,2.214925 0.416137,0.550375 1.315531,1.557107 2.013568,2.228296 0.68461,0.671186 1.516992,1.342535 1.852587,1.503621 0.416137,0.214781 0.885969,0.308537 1.543735,0.321961 0.751729,0.01342 1.087326,-0.04006 1.677973,-0.321961 0.402714,-0.187933 0.953089,-0.537004 1.208141,-0.792056 0.241628,-0.255052 0.604122,-0.792055 0.792056,-1.194769 0.268475,-0.563799 0.348965,-0.953091 0.348965,-1.677973 -0.01342,-0.698034 -0.09402,-1.114175 -0.322223,-1.610855 -0.174509,-0.402713 -0.751734,-1.1276 -1.409497,-1.812211 -0.617496,-0.630918 -1.355857,-1.503463 -1.664604,-1.946448 -0.295323,-0.442985 -0.657765,-1.047056 -0.805427,-1.342379 -0.147662,-0.295323 -0.402557,-0.953089 -0.577066,-1.476616 -0.268475,-0.778577 -0.308851,-1.208143 -0.308851,-2.483401 0.01342,-1.315528 0.06722,-1.691399 0.37597,-2.550519 0.187933,-0.550375 0.603914,-1.422921 0.91266,-1.946449 0.322171,-0.523527 0.93977,-1.302107 1.382755,-1.745092 0.442985,-0.456409 1.073903,-1.04716 1.409498,-1.315636 0.335594,-0.268475 1.114174,-0.765103 1.745091,-1.087273 0.630919,-0.322171 1.597431,-0.711409 2.147806,-0.885918 0.550375,-0.161086 1.463193,-0.335595 2.013568,-0.402714 0.550375,-0.05369 1.154445,-0.0806 1.342379,-0.05375 z m 29.532326,0 c 0.18794,0.02685 0.69804,0.0806 1.14103,0.120866 0.44298,0.04027 1.31553,0.2281 1.94645,0.429457 0.63091,0.187932 1.40949,0.496889 1.74509,0.684822 0.33559,0.187933 0.93966,0.550375 1.34237,0.805427 0.40272,0.255052 1.16782,0.899342 1.69135,1.422869 0.52353,0.523528 1.16782,1.261784 1.42287,1.624226 0.25505,0.375866 0.63107,1.020312 0.83243,1.449873 0.18793,0.416137 0.44288,1.167872 0.56369,1.677974 0.14767,0.644341 0.20131,1.275157 0.14761,2.241667 -0.0403,0.979934 -0.16103,1.62428 -0.41608,2.349162 -0.18793,0.550376 -0.59065,1.396074 -0.87255,1.87933 -0.28189,0.483257 -0.60396,0.966513 -0.69793,1.073903 -0.10739,0.10739 -0.34902,0.416138 -0.53695,0.671189 -0.18793,0.255052 -0.44314,0.738308 -0.56396,1.073903 -0.12081,0.335595 -0.22809,0.939665 -0.22809,1.342379 0,0.402713 0.10728,1.033684 0.22809,1.396126 0.13424,0.362442 0.48337,0.926084 0.77869,1.248255 0.29532,0.335594 0.87254,0.765365 1.27526,0.953298 0.60407,0.295323 0.91282,0.362389 1.74509,0.348966 0.61749,-0.01343 1.19461,-0.09412 1.50336,-0.228361 0.2819,-0.134238 0.8189,-0.509895 1.19477,-0.858914 0.37586,-0.362442 1.08738,-1.248519 1.59748,-1.986824 0.49668,-0.738306 1.1814,-1.919604 1.51699,-2.617638 0.3356,-0.698034 0.69794,-1.530315 0.96641,-2.416282 h 0.69793 c 0.38929,0 1.03363,0.06712 1.4095,0.134238 0.38929,0.08054 0.95319,0.214676 1.24852,0.295219 0.29532,0.09397 0.99336,0.34907 1.54373,0.590699 0.55038,0.228204 1.4094,0.671294 1.90607,0.980041 0.5101,0.295323 1.04711,0.657817 1.19478,0.792055 0.16108,0.120814 0.69814,0.563642 1.18139,0.979779 0.48326,0.402714 1.1544,1.073903 1.48999,1.476617 0.3356,0.402714 0.69804,0.832222 0.80543,0.953036 0.10739,0.120814 0.48315,0.698037 0.83217,1.27526 0.34902,0.57722 0.87275,1.597535 1.15465,2.2553 0.29532,0.67119 0.6175,1.597431 0.73831,2.080687 0.10739,0.483257 0.28174,1.355802 0.37571,1.946449 0.094,0.617494 0.13418,1.557159 0.0805,2.214925 -0.0403,0.630918 -0.1744,1.624278 -0.29522,2.214924 -0.12081,0.590647 -0.32228,1.342379 -0.44309,1.677974 -0.12081,0.349018 -0.21478,1.020207 -0.20135,1.610854 0,0.751729 0.0673,1.167869 0.2821,1.610854 0.16109,0.335595 0.49668,0.818851 0.73831,1.073903 0.2282,0.255052 0.81875,0.778474 1.302,1.167764 0.48326,0.375868 1.35575,1.194713 1.95982,1.812203 0.59065,0.60407 1.22162,1.32906 1.39613,1.58411 0.17451,0.25506 0.36244,0.49668 0.40272,0.53696 0.0537,0.0403 0.32217,0.42956 0.60406,0.87254 0.28191,0.44299 0.67114,1.16787 0.88592,1.61086 0.20136,0.44298 0.52369,1.26183 0.6982,1.81221 0.18793,0.55037 0.41598,1.49004 0.50994,2.08068 0.094,0.65777 0.13418,1.62428 0.0805,2.4834 -0.0403,0.80543 -0.20125,1.83906 -0.36233,2.41629 -0.16109,0.55037 -0.55043,1.54373 -0.85918,2.21492 -0.30874,0.67119 -0.9395,1.6914 -1.38249,2.28204 -0.45641,0.59065 -1.28874,1.54363 -1.86596,2.10743 -0.59064,0.57723 -1.44982,1.32917 -1.93308,1.69161 -0.48325,0.36244 -1.38265,0.97983 -2.01356,1.36912 -0.63093,0.38929 -1.36929,0.9263 -1.66461,1.19477 -0.2819,0.26848 -0.68451,0.84565 -0.89929,1.28863 -0.26847,0.55037 -0.38934,1.00679 -0.38934,1.47662 0,0.37586 0.067,1.34238 0.16098,2.1478 0.12082,1.15444 0.12087,1.81222 -0.0134,3.02036 -0.094,0.84569 -0.28179,2.05383 -0.42946,2.68475 -0.14766,0.63092 -0.36244,1.4095 -0.46983,1.7451 -0.12081,0.33559 -0.41614,1.06047 -0.67118,1.61085 -0.26848,0.55037 -0.79217,1.51689 -1.16803,2.1478 -0.38929,0.63092 -1.15429,1.62428 -1.71809,2.21493 -0.5638,0.59064 -1.46319,1.42281 -2.01357,1.83895 -0.55037,0.41614 -1.3827,0.93982 -1.86596,1.16803 -0.48325,0.21478 -0.99335,0.42956 -1.14102,0.46983 -0.2282,0.0671 -0.32206,-0.0673 -0.69793,-1.03379 -0.24163,-0.60407 -0.72488,-1.59743 -1.0739,-2.21492 -0.36244,-0.60407 -0.91292,-1.47641 -1.24852,-1.93282 -0.33559,-0.45641 -1.23499,-1.47672 -2.01357,-2.2553 -0.77857,-0.792 -1.71824,-1.66449 -2.08068,-1.95982 -0.37587,-0.29532 -0.91282,-0.71151 -1.20814,-0.92629 -0.29533,-0.21478 -0.81896,-0.59055 -1.1814,-0.83217 -0.34902,-0.24163 -0.65767,-0.44309 -0.69794,-0.44309 -0.0403,0 -0.14755,-0.0671 -0.2281,-0.13424 -0.094,-0.0805 -0.53705,-0.36234 -0.98004,-0.63081 -0.44298,-0.25505 -1.28868,-0.71152 -1.87933,-0.99342 -0.95308,-0.46983 -1.1814,-0.52357 -2.05394,-0.52357 -0.71146,0 -1.14081,0.0806 -1.66434,0.30884 -0.38929,0.17451 -0.95325,0.55023 -1.23515,0.84555 -0.28189,0.2819 -0.64439,0.79205 -0.79205,1.12765 -0.21478,0.45641 -0.28185,0.87255 -0.28185,1.67797 0,0.8457 0.0673,1.19482 0.29548,1.65123 0.16109,0.30875 0.49668,0.77842 0.73831,1.0469 0.2282,0.26847 0.88586,0.72504 1.43624,1.03379 0.55038,0.29532 1.49004,0.8457 2.08069,1.20814 0.59064,0.37586 1.49004,0.99326 2.01357,1.36912 0.52352,0.38929 1.31542,1.10065 1.77183,1.57048 0.45641,0.45641 0.96656,0.99346 1.12765,1.1814 0.14766,0.18793 0.45646,0.57722 0.65782,0.87254 0.20136,0.29532 0.52358,0.87255 0.72494,1.27526 0.20135,0.40271 0.4563,1.10075 0.56369,1.54374 0.10739,0.44298 0.20136,1.31553 0.20136,1.94645 0,0.67119 -0.0804,1.46319 -0.2281,1.94645 -0.12082,0.44298 -0.34918,1.0739 -0.49684,1.40949 -0.16109,0.3356 -0.46968,0.91282 -0.7113,1.27526 -0.22821,0.37587 -0.84565,1.1276 -1.35576,1.67798 -0.52352,0.55037 -1.42297,1.34227 -2.00019,1.77183 -0.59064,0.41613 -1.42297,0.93988 -1.86596,1.15466 -0.44298,0.2282 -1.38265,0.60391 -2.08069,0.84553 -1.19471,0.40272 -1.38265,0.42967 -3.22171,0.4431 -1.584,0.0134 -2.08068,-0.0404 -2.68475,-0.24174 -0.40271,-0.13424 -1.00679,-0.38923 -1.34238,-0.55032 -0.33559,-0.16108 -1.02026,-0.65771 -1.53036,-1.08727 -0.51011,-0.44299 -1.18125,-1.1545 -1.48999,-1.59749 -0.30875,-0.44298 -0.75184,-1.14102 -0.98005,-1.54373 -0.21477,-0.40271 -0.56369,-1.15445 -0.76504,-1.67798 -0.20136,-0.52352 -0.44294,-1.23498 -0.55033,-1.61085 -0.10739,-0.36244 -0.34907,-1.39608 -0.85917,-3.8929 V 66.778623 l 0.61744,-1.167764 c 0.3356,-0.657763 0.80558,-1.449874 1.03379,-1.785469 0.2282,-0.335594 0.84559,-1.047107 1.36912,-1.597483 0.5101,-0.536951 1.20814,-1.167712 1.54373,-1.382493 0.3356,-0.228204 0.8457,-0.523736 1.14103,-0.684822 0.29532,-0.147661 0.77858,-0.348809 1.0739,-0.456199 0.29532,-0.10739 0.99336,-0.282057 1.54374,-0.362599 0.55037,-0.09397 1.15444,-0.161086 1.34237,-0.134238 z m 11.54787,28.577718 c -0.21478,0.0084 -0.41283,0.02847 -0.54036,0.05532 -0.25505,0.0537 -0.71146,0.228048 -1.00679,0.37571 -0.29532,0.161085 -0.73835,0.483256 -0.99341,0.738308 -0.25505,0.241628 -0.60412,0.778684 -0.79206,1.181398 -0.25504,0.550374 -0.33559,0.966513 -0.33559,1.677972 0,0.765155 0.0673,1.073903 0.3626,1.677974 0.21478,0.402713 0.53695,0.88597 0.73831,1.073903 0.18793,0.187932 0.73825,0.644236 1.22151,1.033526 0.48326,0.375866 1.35581,1.181346 1.94645,1.79884 0.59065,0.617492 1.42282,1.637754 1.83896,2.26867 0.41613,0.630915 0.96667,1.583895 1.23514,2.107425 0.26847,0.53695 0.67108,1.54374 0.89929,2.21493 0.2282,0.68461 0.53695,1.87943 0.67119,2.65801 0.17451,0.92624 0.2551,2.02699 0.2551,3.22171 0,1.23499 -0.0805,2.29546 -0.26847,3.35594 -0.16109,0.8457 -0.46978,2.08069 -0.68457,2.75188 -0.2282,0.67119 -0.61744,1.66455 -0.88591,2.21492 -0.26848,0.55038 -0.77879,1.49005 -1.15466,2.08069 -0.36244,0.59065 -1.10069,1.61086 -1.62422,2.28204 -0.53695,0.6712 -1.08728,1.44977 -1.22151,1.7451 -0.13424,0.29532 -0.28201,0.89939 -0.30886,1.34238 -0.0403,0.60406 0.0269,1.00678 0.25511,1.61085 0.18793,0.49668 0.51021,1.00678 0.8458,1.34238 0.30875,0.29532 0.85907,0.68466 1.22151,0.85917 0.51011,0.25506 0.8994,0.3356 1.61086,0.3356 0.7383,0 1.10075,-0.0671 1.67797,-0.34897 0.40271,-0.18793 0.88592,-0.48331 1.08727,-0.65782 0.18794,-0.17451 0.64429,-0.68466 1.02016,-1.12765 0.36244,-0.44298 0.96651,-1.22156 1.34238,-1.74509 0.36244,-0.52353 0.92635,-1.39607 1.24852,-1.94645 0.32217,-0.55037 0.76526,-1.34238 0.98004,-1.74509 0.20135,-0.40271 0.63086,-1.4095 0.95303,-2.21492 0.32217,-0.80543 0.67124,-1.78537 0.79206,-2.14781 0.10739,-0.37587 0.29527,-1.06048 0.41608,-1.54373 0.1074,-0.48326 0.29527,-1.4095 0.41609,-2.08069 0.10739,-0.67119 0.24152,-2.12096 0.29522,-3.22171 0.0403,-1.19471 0.0135,-2.67134 -0.0805,-3.62442 -0.0805,-0.88597 -0.2818,-2.21493 -0.42946,-2.95323 -0.16109,-0.73831 -0.51016,-2.04042 -0.79206,-2.88612 -0.26847,-0.8457 -0.8189,-2.214919 -1.19476,-3.020345 -0.3893,-0.805425 -1.1006,-2.080688 -1.58386,-2.818995 -0.48325,-0.738307 -1.15459,-1.70482 -1.50361,-2.147805 -0.3356,-0.442985 -1.24837,-1.436347 -2.02695,-2.214925 -0.77857,-0.778578 -1.93302,-1.798839 -2.55051,-2.268672 -0.63092,-0.469832 -1.34228,-0.93956 -1.57048,-1.033527 -0.24163,-0.10739 -0.76516,-0.214885 -1.14103,-0.241732 -0.19464,-0.02014 -0.42625,-0.02333 -0.64103,-0.01495 z m -56.453839,2.280208 c -0.224848,0.01007 -0.419441,0.03031 -0.533543,0.05716 -0.21478,0.06712 -0.550375,0.174352 -0.738308,0.241471 -0.187933,0.08054 -0.69809,0.469885 -1.12765,0.859175 -0.429562,0.402713 -1.234831,1.261888 -1.785207,1.933077 -0.53695,0.671189 -1.060688,1.302107 -1.154655,1.409498 -0.08054,0.10739 -0.483256,0.71146 -0.872546,1.342378 -0.38929,0.630918 -1.033526,1.812213 -1.43624,2.617638 -0.38929,0.805426 -0.886075,2.013561 -1.114279,2.684751 -0.228204,0.67119 -0.496628,1.57058 -0.617442,2.01356 -0.10739,0.44299 -0.268423,1.14103 -0.348966,1.54374 -0.08054,0.40271 -0.228204,1.46319 -0.335594,2.34916 -0.107391,0.88597 -0.201357,2.12096 -0.201357,2.75188 0,0.63092 0.09397,1.86591 0.201357,2.75188 0.09397,0.88596 0.281899,2.12095 0.402713,2.75187 0.120814,0.63092 0.429561,1.77194 0.67119,2.55052 0.241628,0.77858 0.60407,1.79879 0.805426,2.28204 0.201357,0.48326 0.617495,1.38265 0.939666,2.01357 0.32217,0.63092 0.657713,1.28868 0.751679,1.47662 0.10739,0.18793 0.536899,0.85912 0.953037,1.47662 0.416137,0.63091 1.060688,1.50346 1.42313,1.94645 0.456409,0.57721 0.872441,0.91281 1.43624,1.20814 0.684612,0.33559 0.966514,0.40271 1.879331,0.40271 0.939663,0 1.154445,-0.0538 1.745091,-0.38935 0.375866,-0.21477 0.872651,-0.60406 1.114279,-0.87254 0.228205,-0.26848 0.56359,-0.75168 0.724675,-1.08727 0.214781,-0.45642 0.282109,-0.85913 0.282109,-1.61086 0,-0.792 -0.06722,-1.14102 -0.308851,-1.61085 -0.17451,-0.3356 -0.630919,-1.02021 -1.006784,-1.54374 -0.38929,-0.52353 -0.980042,-1.42292 -1.315636,-2.01357 -0.349019,-0.59064 -0.832275,-1.55716 -1.073903,-2.1478 -0.255052,-0.59065 -0.617494,-1.61085 -0.805427,-2.28205 -0.174509,-0.67119 -0.41598,-1.62427 -0.509947,-2.1478 -0.120814,-0.57722 -0.187985,-1.83906 -0.187985,-3.28883 0.01342,-1.73167 0.0806,-2.63106 0.255104,-3.42306 0.120814,-0.59065 0.402609,-1.59754 0.630813,-2.2553 0.214781,-0.64435 0.644342,-1.66456 0.939665,-2.28205 0.308747,-0.60407 0.765313,-1.43624 1.033789,-1.838945 0.255052,-0.40271 0.738256,-1.073901 1.087274,-1.476615 0.335595,-0.402713 0.953037,-1.10075 1.35575,-1.543735 0.469833,-0.510104 0.832379,-1.047055 0.980041,-1.476617 0.120814,-0.375865 0.2281,-1.006783 0.2281,-1.409497 0,-0.402714 -0.08054,-1.006784 -0.201357,-1.342378 -0.10739,-0.335595 -0.456304,-0.899447 -0.765051,-1.261888 -0.322171,-0.362443 -0.859122,-0.791899 -1.208141,-0.966408 -0.389289,-0.201357 -0.979936,-0.349071 -1.476616,-0.389343 -0.234916,-0.01342 -0.490125,-0.01347 -0.714974,-0.0034 z"
       style="fill:#ffffff;stroke-width:0.264583" />
    <text
       xml:space="preserve"
       style="font-style:normal;font-weight:normal;font-size:23.4735px;font-family:sans-serif;fill:#ffffff;fill-opacity:1;stroke:none;stroke-width:0.264582"
       x="13.520986"
       y="31.332655"
       id="text1"><tspan
         sodipodi:role="line"
         style="font-style:normal;font-variant:normal;font-weight:normal;font-stretch:normal;font-size:23.4735px;font-family:'Fira Code';-inkscape-font-specification:'Fira Code, @wght=500';font-variant-ligatures:normal;font-variant-caps:normal;font-variant-numeric:normal;font-variant-east-asian:normal;font-variation-settings:'wght' 500;fill:#ffffff;stroke-width:0.264582"
         x="13.520986"
         y="31.332655"
         id="tspan2">Memory Game</tspan></text>
  </g>
</svg>
