<?xml version="1.0" encoding="UTF-8" standalone="no"?>
<!-- Created with Inkscape (http://www.inkscape.org/) -->

<svg
   width="220mm"
   height="200mm"
   viewBox="0 0 220 200"
   version="1.1"
   id="svg1"
   inkscape:version="1.3 (0e150ed6c4, 2023-07-21)"
   sodipodi:docname="template - Copy.svg"
   xmlns:inkscape="http://www.inkscape.org/namespaces/inkscape"
   xmlns:sodipodi="http://sodipodi.sourceforge.net/DTD/sodipodi-0.dtd"
   xmlns="http://www.w3.org/2000/svg"
   xmlns:svg="http://www.w3.org/2000/svg">
  <sodipodi:namedview
     id="namedview1"
     pagecolor="#ffffff"
     bordercolor="#666666"
     borderopacity="1.0"
     inkscape:showpageshadow="2"
     inkscape:pageopacity="0.0"
     inkscape:pagecheckerboard="true"
     inkscape:deskcolor="#d1d1d1"
     inkscape:document-units="mm"
     inkscape:zoom="0.54208404"
     inkscape:cx="413.22006"
     inkscape:cy="485.16463"
     inkscape:window-width="1649"
     inkscape:window-height="1157"
     inkscape:window-x="727"
     inkscape:window-y="128"
     inkscape:window-maximized="0"
     inkscape:current-layer="layer1" />
  <defs
     id="defs1" />
  <g
     inkscape:label="Layer 1"
     inkscape:groupmode="layer"
     id="layer1">
    <path
       id="path1-0"
       class="s1"
       d="m 54.429128,71.005162 a 9.3763031,9.5724536 0 0 0 -9.365499,9.529119 v 71.227069 a 9.3868738,9.5832456 0 0 0 9.365499,9.56165 H 165.57054 a 9.3974446,9.5940376 0 0 0 9.36583,-9.54029 V 80.555968 a 9.3868738,9.5832456 0 0 0 -9.36583,-9.550806 z m 17.747627,8.188284 c 0.481206,-0.0025 1.04283,0.0079 1.249829,0.02136 0.207001,0.01341 0.551128,0.04578 0.766193,0.06999 0.215064,0.02149 0.637206,0.0833 0.940986,0.134375 0.303776,0.05105 0.739423,0.134497 0.967928,0.188266 0.228502,0.05379 0.567228,0.136855 0.75272,0.187934 0.185493,0.05106 0.559015,0.166903 0.83322,0.255616 0.274207,0.0914 0.70985,0.249727 0.967928,0.351881 0.258072,0.104849 0.664003,0.279781 0.900572,0.389996 0.23657,0.107539 0.612778,0.295639 0.833219,0.416612 0.223127,0.120972 0.55376,0.309346 0.739252,0.419567 0.185494,0.110222 0.51881,0.322571 0.739252,0.473121 0.223126,0.147854 0.553761,0.384256 0.739251,0.524048 0.185494,0.139786 0.50564,0.395363 0.712639,0.567416 0.207001,0.174735 0.551129,0.481119 0.766194,0.682742 0.215062,0.201617 0.540349,0.526903 0.723151,0.723154 0.180116,0.193555 0.472845,0.524035 0.647584,0.731037 0.17474,0.206996 0.43309,0.532555 0.57826,0.72611 0.145167,0.190866 0.397787,0.553574 0.56446,0.806278 0.166673,0.25269 0.373563,0.577918 0.462279,0.725779 0.08871,0.147854 0.25534,0.443696 0.37094,0.658754 0.115595,0.215064 0.282228,0.540292 0.370941,0.725779 0.08602,0.1855 0.223202,0.494827 0.306542,0.685699 0.08065,0.190866 0.223296,0.553581 0.317386,0.806278 0.0914,0.252703 0.230941,0.661341 0.306214,0.914044 0.07528,0.252704 0.17219,0.602232 0.215204,0.779664 0.0457,0.177425 0.110217,0.462452 0.147851,0.631815 0.03763,0.169357 0.09674,0.491864 0.134379,0.712307 0.03764,0.223132 0.09134,0.607458 0.120909,0.860161 0.02957,0.252703 0.06727,0.661341 0.08608,0.914045 0.01884,0.290329 0.02687,0.803918 0.0161,1.411478 -0.0081,0.524213 -0.02691,1.080763 -0.04304,1.236685 -0.01612,0.155923 -0.05382,0.475741 -0.08608,0.712307 -0.02957,0.236573 -0.09381,0.653312 -0.144894,0.927518 -0.05108,0.274205 -0.153343,0.744648 -0.231303,1.048418 -0.07527,0.30379 -0.223121,0.8117 -0.325271,1.12893 -0.104842,0.31721 -0.271414,0.78225 -0.37357,1.03494 -0.09946,0.2527 -0.269053,0.64546 -0.373896,0.87397 -0.104842,0.2285 -0.295517,0.61011 -0.421867,0.84669 -0.129038,0.23656 -0.333301,0.5996 -0.459651,0.8066 -0.126351,0.207 -0.344173,0.54573 -0.483963,0.75273 -0.139791,0.20699 -0.365705,0.5214 -0.497434,0.69884 -0.134413,0.17742 -0.327865,0.42464 -0.432709,0.55098 -0.104842,0.12635 -0.312063,0.36848 -0.462608,0.53785 -0.147856,0.16936 -0.432553,0.47034 -0.631485,0.66927 -0.19893,0.19894 -0.50564,0.49483 -0.683068,0.65613 -0.177427,0.1613 -0.521559,0.45429 -0.766194,0.65054 -0.244638,0.19356 -0.577955,0.44886 -0.739251,0.56446 -0.161299,0.11828 -0.464895,0.3226 -0.671898,0.45702 -0.206997,0.1371 -0.545722,0.34399 -0.752723,0.46228 -0.206999,0.11828 -0.526815,0.29584 -0.71231,0.39263 -0.185487,0.0968 -0.529622,0.2634 -0.766192,0.37093 -0.23657,0.10484 -0.62392,0.2687 -0.860491,0.3601 -0.236568,0.0941 -0.658389,0.24471 -0.940655,0.33612 -0.282272,0.0914 -0.693603,0.21257 -0.914045,0.27171 -0.223129,0.0565 -0.543277,0.1342 -0.712639,0.17184 -0.169363,0.0376 -0.513494,0.10483 -0.766192,0.14784 -0.2527,0.043 -0.607318,0.0968 -0.792806,0.11829 -0.185492,0.0242 -0.462423,0.0565 -0.618345,0.0726 -0.155917,0.0135 -0.707062,0.035 -1.223214,0.043 -0.594116,0.008 -1.115764,0.003 -1.411479,-0.0161 -0.258073,-0.0188 -0.639691,-0.0511 -0.84669,-0.0726 -0.206999,-0.0242 -0.623737,-0.0833 -0.927514,-0.13438 -0.303778,-0.0511 -0.739095,-0.1345 -0.967598,-0.18827 -0.228506,-0.0538 -0.56723,-0.13718 -0.752722,-0.18825 -0.185491,-0.0511 -0.559345,-0.16658 -0.833548,-0.2553 -0.274206,-0.0914 -0.709523,-0.25005 -0.967598,-0.35221 -0.258076,-0.10484 -0.664003,-0.27944 -0.900573,-0.38966 -0.23657,-0.10754 -0.613107,-0.29564 -0.833548,-0.41661 -0.22313,-0.12098 -0.553757,-0.30935 -0.739252,-0.41957 -0.185492,-0.11022 -0.518809,-0.32258 -0.739251,-0.47312 -0.22313,-0.14786 -0.553761,-0.38426 -0.739252,-0.52405 -0.185493,-0.13979 -0.505314,-0.39537 -0.712311,-0.56742 -0.206997,-0.17474 -0.559226,-0.48652 -0.779663,-0.6962 -0.223132,-0.20701 -0.545784,-0.53235 -0.720525,-0.72053 -0.177422,-0.19087 -0.462332,-0.51353 -0.637069,-0.72052 -0.174736,-0.207 -0.432762,-0.53223 -0.577931,-0.72579 -0.145171,-0.19087 -0.398116,-0.55357 -0.564788,-0.80628 -0.166675,-0.2527 -0.373567,-0.57825 -0.462279,-0.7261 -0.08871,-0.14786 -0.255343,-0.44337 -0.370941,-0.65843 -0.115597,-0.21506 -0.282229,-0.54029 -0.37094,-0.72578 -0.08603,-0.18549 -0.225895,-0.49483 -0.306543,-0.6857 -0.08065,-0.19087 -0.225922,-0.56167 -0.320015,-0.81975 -0.09678,-0.25808 -0.233629,-0.6694 -0.306214,-0.91404 -0.07258,-0.24463 -0.169563,-0.58876 -0.212575,-0.7662 -0.0457,-0.17742 -0.110217,-0.46245 -0.147851,-0.631812 -0.03764,-0.169363 -0.09674,-0.489181 -0.134378,-0.712307 -0.03764,-0.220443 -0.09134,-0.607795 -0.12091,-0.860492 -0.02956,-0.252696 -0.06739,-0.634193 -0.08082,-0.851946 -0.01612,-0.220437 -0.02957,-0.758078 -0.02957,-1.196275 0,-0.440879 0.01349,-0.970541 0.02694,-1.177543 0.01612,-0.207003 0.0458,-0.540318 0.06998,-0.739252 0.02151,-0.198934 0.07521,-0.58628 0.120909,-0.860492 0.04301,-0.274199 0.12103,-0.690614 0.174791,-0.92718 0.05108,-0.236573 0.126373,-0.545907 0.161321,-0.685699 0.03764,-0.139793 0.123684,-0.435298 0.190892,-0.65843 0.06721,-0.220436 0.171891,-0.535181 0.228346,-0.699165 0.05914,-0.163984 0.177475,-0.47031 0.263503,-0.685368 0.08602,-0.215064 0.231238,-0.553791 0.322643,-0.752725 0.0914,-0.198934 0.258087,-0.53766 0.368311,-0.752724 0.112906,-0.215058 0.290472,-0.534876 0.392624,-0.712307 0.102159,-0.177425 0.30107,-0.497573 0.443551,-0.712638 0.139792,-0.215064 0.357553,-0.534881 0.486592,-0.712313 0.126349,-0.177425 0.327957,-0.443537 0.443552,-0.591398 0.118287,-0.147854 0.292949,-0.360273 0.387039,-0.470494 0.09678,-0.110216 0.333324,-0.37634 0.53226,-0.591405 0.196245,-0.215057 0.559225,-0.578039 0.809235,-0.809233 0.247325,-0.231188 0.548356,-0.502775 0.666641,-0.602239 0.118284,-0.09947 0.341515,-0.282172 0.497434,-0.403138 0.155922,-0.120979 0.432519,-0.327867 0.618015,-0.462281 0.18549,-0.131724 0.494828,-0.341574 0.685697,-0.465237 0.190868,-0.123668 0.537689,-0.333182 0.766193,-0.464906 0.228501,-0.131724 0.64793,-0.352116 0.927514,-0.489219 0.279582,-0.137103 0.674699,-0.320129 0.873632,-0.403469 0.198933,-0.08333 0.489364,-0.201401 0.645285,-0.260543 0.155922,-0.05913 0.446021,-0.161473 0.644956,-0.228676 0.198932,-0.06452 0.55116,-0.172046 0.779664,-0.236561 0.228505,-0.06452 0.610119,-0.161441 0.846689,-0.215204 0.236569,-0.05379 0.672216,-0.139544 0.967928,-0.187934 0.295713,-0.04838 0.717859,-0.11019 0.940985,-0.134382 0.22044,-0.02416 0.529449,-0.05398 0.685369,-0.06472 0.155922,-0.01342 0.674988,-0.02397 1.156188,-0.02397 z m 38.052745,0 c 0.48119,-0.0025 1.04315,0.0079 1.25015,0.02136 0.207,0.01341 0.55112,0.04578 0.76619,0.06999 0.21506,0.02149 0.63721,0.0833 0.94099,0.134375 0.30377,0.05105 0.73909,0.134497 0.9676,0.188266 0.2285,0.05379 0.56723,0.136855 0.75272,0.187934 0.18549,0.05106 0.55934,0.166903 0.83355,0.255616 0.2742,0.0914 0.70952,0.249727 0.96759,0.351881 0.25808,0.104849 0.664,0.279781 0.90058,0.389996 0.23656,0.107539 0.6131,0.295639 0.83354,0.416612 0.22313,0.120972 0.55376,0.309346 0.73926,0.419567 0.18549,0.110222 0.5188,0.322571 0.73925,0.473121 0.22312,0.147854 0.55376,0.384256 0.73925,0.524048 0.18549,0.139786 0.50531,0.395363 0.71231,0.567416 0.207,0.174735 0.55114,0.481119 0.76619,0.682742 0.21507,0.201617 0.54036,0.526903 0.72316,0.723154 0.18011,0.193555 0.47317,0.524035 0.64791,0.731037 0.17474,0.206996 0.43277,0.532555 0.57793,0.72611 0.14517,0.190866 0.39811,0.553574 0.56479,0.806278 0.16667,0.25269 0.37356,0.577918 0.46228,0.725779 0.0887,0.147854 0.25534,0.443696 0.37094,0.658754 0.11559,0.215064 0.28222,0.540292 0.37094,0.725779 0.086,0.1855 0.2232,0.494827 0.30654,0.685699 0.0806,0.190866 0.22297,0.553581 0.31705,0.806278 0.0914,0.252703 0.23128,0.661341 0.30655,0.914044 0.0753,0.252704 0.1722,0.602232 0.21521,0.779664 0.0457,0.177425 0.11021,0.462452 0.14785,0.631815 0.0376,0.169357 0.0967,0.491864 0.13438,0.712307 0.0376,0.223132 0.0913,0.607458 0.12091,0.860161 0.0296,0.252703 0.0673,0.661341 0.0861,0.914045 0.0188,0.290329 0.0269,0.803918 0.0161,1.411478 -0.008,0.524213 -0.0269,1.080763 -0.043,1.236685 -0.0161,0.155923 -0.0538,0.475741 -0.0861,0.712307 -0.0296,0.236573 -0.0941,0.653312 -0.14522,0.927518 -0.0511,0.274205 -0.15301,0.744648 -0.23098,1.048418 -0.0753,0.30379 -0.22312,0.8117 -0.32527,1.12893 -0.10484,0.31721 -0.27174,0.78225 -0.3739,1.03494 -0.0995,0.2527 -0.26872,0.64546 -0.37356,0.87397 -0.10485,0.2285 -0.29585,0.61011 -0.4222,0.84669 -0.12903,0.23656 -0.3333,0.5996 -0.45965,0.8066 -0.12635,0.207 -0.34417,0.54573 -0.48396,0.75273 -0.1398,0.20699 -0.36538,0.5214 -0.49711,0.69884 -0.13441,0.17742 -0.32819,0.42464 -0.43304,0.55098 -0.10484,0.12635 -0.31173,0.36848 -0.46227,0.53785 -0.14786,0.16936 -0.43289,0.47034 -0.63182,0.66927 -0.19894,0.19894 -0.50531,0.49483 -0.68274,0.65613 -0.17742,0.1613 -0.52156,0.45429 -0.76619,0.65054 -0.24463,0.19356 -0.57796,0.44886 -0.73925,0.56446 -0.1613,0.11828 -0.46523,0.3226 -0.67223,0.45702 -0.20699,0.1371 -0.5454,0.34399 -0.75239,0.46228 -0.207,0.11828 -0.52715,0.29584 -0.71264,0.39263 -0.18549,0.0968 -0.52963,0.2634 -0.7662,0.37093 -0.23657,0.10484 -0.62359,0.2687 -0.86016,0.3601 -0.23656,0.0941 -0.65871,0.24471 -0.94098,0.33612 -0.28227,0.0914 -0.6936,0.21257 -0.91405,0.27171 -0.22313,0.0565 -0.54294,0.1342 -0.7123,0.17184 -0.16937,0.0376 -0.5135,0.10483 -0.7662,0.14784 -0.2527,0.043 -0.60764,0.0968 -0.79313,0.11829 -0.1855,0.0242 -0.46209,0.0565 -0.61802,0.0726 -0.15592,0.0135 -0.70706,0.035 -1.22322,0.043 -0.5941,0.008 -1.11575,0.003 -1.41147,-0.0161 -0.25808,-0.0188 -0.63969,-0.0511 -0.84669,-0.0726 -0.207,-0.0242 -0.62374,-0.0833 -0.92751,-0.13438 -0.30378,-0.0511 -0.73943,-0.1345 -0.96793,-0.18827 -0.22851,-0.0538 -0.56723,-0.13718 -0.75273,-0.18825 -0.18549,-0.0511 -0.55901,-0.16658 -0.83321,-0.2553 -0.27421,-0.0914 -0.70986,-0.25005 -0.96793,-0.35221 -0.25808,-0.10484 -0.664,-0.27944 -0.90057,-0.38966 -0.23658,-0.10754 -0.61278,-0.29564 -0.83322,-0.41661 -0.22313,-0.12098 -0.55376,-0.30935 -0.73925,-0.41957 -0.18549,-0.11022 -0.51882,-0.32258 -0.73926,-0.47312 -0.22312,-0.14786 -0.55409,-0.38426 -0.739576,-0.52405 -0.185493,-0.13979 -0.505317,-0.39537 -0.712313,-0.56742 -0.206996,-0.17474 -0.55922,-0.48652 -0.779661,-0.6962 -0.22313,-0.20701 -0.54546,-0.53235 -0.720196,-0.72053 -0.177428,-0.19087 -0.462661,-0.51353 -0.637399,-0.72052 -0.174739,-0.207 -0.432762,-0.53223 -0.577931,-0.72579 -0.14517,-0.19087 -0.397785,-0.55357 -0.56446,-0.80628 -0.166673,-0.2527 -0.373568,-0.57825 -0.462279,-0.7261 -0.08872,-0.14786 -0.255344,-0.44337 -0.370939,-0.65843 -0.115598,-0.21506 -0.282557,-0.54029 -0.371269,-0.72578 -0.08603,-0.18549 -0.225567,-0.49483 -0.306215,-0.6857 -0.08065,-0.19087 -0.225924,-0.56167 -0.320014,-0.81975 -0.09678,-0.25808 -0.233961,-0.6694 -0.306543,-0.91404 -0.07258,-0.24463 -0.169234,-0.58876 -0.212248,-0.7662 -0.0457,-0.17742 -0.110215,-0.46245 -0.147849,-0.631812 -0.03764,-0.169363 -0.09674,-0.489181 -0.13438,-0.712307 -0.03764,-0.220443 -0.09167,-0.607795 -0.121237,-0.860492 -0.02957,-0.252696 -0.06705,-0.634193 -0.0805,-0.851946 -0.01612,-0.220437 -0.02957,-0.758078 -0.02957,-1.196275 0,-0.440879 0.01351,-0.970541 0.02694,-1.177543 0.01612,-0.207003 0.04579,-0.540318 0.06998,-0.739252 0.02151,-0.198934 0.07521,-0.58628 0.120909,-0.860492 0.04301,-0.274199 0.121028,-0.690614 0.174791,-0.92718 0.05108,-0.236573 0.126373,-0.545907 0.161322,-0.685699 0.03763,-0.139793 0.123356,-0.435298 0.190563,-0.65843 0.06721,-0.220436 0.172221,-0.535181 0.228675,-0.699165 0.05914,-0.163984 0.177477,-0.47031 0.263502,-0.685368 0.08603,-0.215064 0.231238,-0.553791 0.322643,-0.752725 0.0914,-0.198934 0.258096,-0.53766 0.368311,-0.752724 0.112907,-0.215058 0.290144,-0.534876 0.392297,-0.712307 0.102156,-0.177425 0.301077,-0.497573 0.44355,-0.712638 0.139797,-0.215064 0.357551,-0.534881 0.486592,-0.712313 0.126348,-0.177425 0.327957,-0.443537 0.443552,-0.591398 0.118284,-0.147854 0.293275,-0.360273 0.387368,-0.470494 0.09678,-0.110216 0.333328,-0.37634 0.532261,-0.591405 0.196247,-0.215057 0.558893,-0.578039 0.808905,-0.809233 0.247325,-0.231188 0.548683,-0.502775 0.666967,-0.602239 0.118283,-0.09947 0.341187,-0.282172 0.497103,-0.403138 0.155929,-0.120979 0.432858,-0.327867 0.618348,-0.462281 0.18549,-0.131724 0.49483,-0.341574 0.68569,-0.465237 0.19087,-0.123668 0.53769,-0.333182 0.7662,-0.464906 0.2285,-0.131724 0.6476,-0.352116 0.92719,-0.489219 0.27957,-0.137103 0.67502,-0.320129 0.87395,-0.403469 0.19894,-0.08333 0.48904,-0.201401 0.64496,-0.260543 0.15592,-0.05913 0.44635,-0.161473 0.64528,-0.228676 0.19894,-0.06452 0.55116,-0.172046 0.77966,-0.236561 0.22851,-0.06452 0.61013,-0.161441 0.8467,-0.215204 0.23657,-0.05379 0.67221,-0.139544 0.96792,-0.187934 0.29572,-0.04838 0.71754,-0.11019 0.94066,-0.134382 0.22044,-0.02416 0.52978,-0.05398 0.6857,-0.06472 0.15592,-0.01342 0.67466,-0.02397 1.15586,-0.02397 z m 37.73042,0 c 0.4812,-0.0025 1.04315,0.0079 1.25016,0.02136 0.20699,0.01341 0.55112,0.04578 0.76619,0.06999 0.21506,0.02149 0.6372,0.0833 0.94098,0.134375 0.30378,0.05105 0.7391,0.134497 0.9676,0.188266 0.22851,0.05379 0.56723,0.136855 0.75272,0.187934 0.18549,0.05106 0.55934,0.166903 0.83355,0.255616 0.2742,0.0914 0.70952,0.249727 0.9676,0.351881 0.25807,0.104849 0.664,0.279781 0.90057,0.389996 0.23657,0.107539 0.61311,0.295639 0.83355,0.416612 0.22313,0.120972 0.55376,0.309346 0.73925,0.419567 0.18549,0.110222 0.51881,0.322571 0.73926,0.473121 0.22312,0.147854 0.55375,0.384256 0.73925,0.524048 0.18549,0.139786 0.50531,0.395363 0.7123,0.567416 0.207,0.174735 0.55113,0.481119 0.76619,0.682742 0.21508,0.201617 0.54036,0.526903 0.72316,0.723154 0.18011,0.193555 0.47317,0.524035 0.64791,0.731037 0.17474,0.206996 0.43277,0.532555 0.57793,0.72611 0.14517,0.190866 0.39811,0.553574 0.56479,0.806278 0.16667,0.25269 0.37357,0.577918 0.46228,0.725779 0.0887,0.147854 0.25535,0.443696 0.37094,0.658754 0.1156,0.215064 0.28223,0.540292 0.37094,0.725779 0.086,0.1855 0.2232,0.494827 0.30654,0.685699 0.0807,0.190866 0.2233,0.553581 0.31739,0.806278 0.0914,0.252703 0.23094,0.661341 0.30621,0.914044 0.0753,0.252704 0.1722,0.602232 0.21521,0.779664 0.0457,0.177425 0.11021,0.462452 0.14785,0.631815 0.0376,0.169357 0.0967,0.491864 0.13438,0.712307 0.0376,0.223132 0.0913,0.607458 0.12091,0.860161 0.0296,0.252703 0.0673,0.661341 0.0861,0.914045 0.0188,0.290329 0.0269,0.803918 0.0161,1.411478 -0.008,0.524213 -0.0269,1.080763 -0.043,1.236685 -0.0161,0.155923 -0.0538,0.475741 -0.0861,0.712307 -0.0296,0.236573 -0.0941,0.653312 -0.14522,0.927518 -0.051,0.274205 -0.15301,0.744648 -0.23097,1.048418 -0.0753,0.30379 -0.22313,0.8117 -0.32527,1.12893 -0.10485,0.31721 -0.27174,0.78225 -0.3739,1.03494 -0.0995,0.2527 -0.26873,0.64546 -0.37357,0.87397 -0.10484,0.2285 -0.29552,0.61011 -0.42186,0.84669 -0.12904,0.23656 -0.33364,0.5996 -0.45998,0.8066 -0.12635,0.207 -0.34385,0.54573 -0.48364,0.75273 -0.13979,0.20699 -0.36571,0.5214 -0.49743,0.69884 -0.13442,0.17742 -0.32787,0.42464 -0.43271,0.55098 -0.10484,0.12635 -0.31206,0.36848 -0.46261,0.53785 -0.14786,0.16936 -0.43288,0.47034 -0.63181,0.66927 -0.19894,0.19894 -0.50531,0.49483 -0.68274,0.65613 -0.17743,0.1613 -0.52156,0.45429 -0.76619,0.65054 -0.24464,0.19356 -0.57796,0.44886 -0.73926,0.56446 -0.1613,0.11828 -0.4649,0.3226 -0.6719,0.45702 -0.20699,0.1371 -0.54572,0.34399 -0.75272,0.46228 -0.207,0.11828 -0.52714,0.29584 -0.71263,0.39263 -0.1855,0.0968 -0.52963,0.2634 -0.7662,0.37093 -0.23657,0.10484 -0.62359,0.2687 -0.86016,0.3601 -0.23657,0.0941 -0.65872,0.24471 -0.94099,0.33612 -0.28227,0.0914 -0.69327,0.21257 -0.91371,0.27171 -0.22313,0.0565 -0.54328,0.1342 -0.71264,0.17184 -0.16937,0.0376 -0.51349,0.10483 -0.76619,0.14784 -0.2527,0.043 -0.60732,0.0968 -0.79281,0.11829 -0.18549,0.0242 -0.46242,0.0565 -0.61834,0.0726 -0.15592,0.0135 -0.70707,0.035 -1.22322,0.043 -0.59411,0.008 -1.11576,0.003 -1.41148,-0.0161 -0.25807,-0.0188 -0.63969,-0.0511 -0.84669,-0.0726 -0.20699,-0.0242 -0.62373,-0.0833 -0.92751,-0.13438 -0.30378,-0.0511 -0.73942,-0.1345 -0.96793,-0.18827 -0.2285,-0.0538 -0.56723,-0.13718 -0.75272,-0.18825 -0.18549,-0.0511 -0.55901,-0.16658 -0.83322,-0.2553 -0.2742,-0.0914 -0.70985,-0.25005 -0.96793,-0.35221 -0.25807,-0.10484 -0.664,-0.27944 -0.90057,-0.38966 -0.23657,-0.10754 -0.61278,-0.29564 -0.83322,-0.41661 -0.22313,-0.12098 -0.55375,-0.30935 -0.73925,-0.41957 -0.18549,-0.11022 -0.51881,-0.32258 -0.73925,-0.47312 -0.22313,-0.14786 -0.55376,-0.38426 -0.73925,-0.52405 -0.1855,-0.13979 -0.50564,-0.39537 -0.71264,-0.56742 -0.207,-0.17474 -0.55889,-0.48652 -0.77934,-0.6962 -0.22313,-0.20701 -0.54578,-0.53235 -0.72053,-0.72053 -0.17741,-0.19087 -0.46233,-0.51353 -0.63706,-0.72052 -0.17474,-0.207 -0.43309,-0.53223 -0.57826,-0.72579 -0.14517,-0.19087 -0.39779,-0.55357 -0.56446,-0.80628 -0.16667,-0.2527 -0.37356,-0.57825 -0.46228,-0.7261 -0.0887,-0.14786 -0.25534,-0.44337 -0.37094,-0.65843 -0.11559,-0.21506 -0.28223,-0.54029 -0.37094,-0.72578 -0.086,-0.18549 -0.22589,-0.49483 -0.30654,-0.6857 -0.0807,-0.19087 -0.22593,-0.56167 -0.32002,-0.81975 -0.0968,-0.25808 -0.23396,-0.6694 -0.30654,-0.91404 -0.0726,-0.24463 -0.16924,-0.58876 -0.21225,-0.7662 -0.0457,-0.17742 -0.11021,-0.46245 -0.14785,-0.631812 -0.0376,-0.169363 -0.0967,-0.489181 -0.13438,-0.712307 -0.0376,-0.220443 -0.0913,-0.607795 -0.12091,-0.860492 -0.0296,-0.252696 -0.0674,-0.634193 -0.0808,-0.851946 -0.0161,-0.220437 -0.0296,-0.758078 -0.0296,-1.196275 0,-0.440879 0.0135,-0.970541 0.0269,-1.177543 0.0161,-0.207003 0.0458,-0.540318 0.07,-0.739252 0.0215,-0.198934 0.0752,-0.58628 0.12091,-0.860492 0.043,-0.274199 0.12102,-0.690614 0.17479,-0.92718 0.051,-0.236573 0.12637,-0.545907 0.16132,-0.685699 0.0376,-0.139793 0.12369,-0.435298 0.19089,-0.65843 0.0672,-0.220436 0.17189,-0.535181 0.22835,-0.699165 0.0591,-0.163984 0.17748,-0.47031 0.2635,-0.685368 0.086,-0.215064 0.23124,-0.553791 0.32264,-0.752725 0.0914,-0.198934 0.25809,-0.53766 0.36832,-0.752724 0.1129,-0.215058 0.29014,-0.534876 0.39229,-0.712307 0.10216,-0.177425 0.30107,-0.497573 0.44355,-0.712638 0.13979,-0.215064 0.35755,-0.534881 0.48659,-0.712313 0.12635,-0.177425 0.32796,-0.443537 0.44355,-0.591398 0.11829,-0.147854 0.29328,-0.360273 0.38737,-0.470494 0.0968,-0.110216 0.33333,-0.37634 0.53227,-0.591405 0.19624,-0.215057 0.55922,-0.578039 0.80923,-0.809233 0.24732,-0.231188 0.54835,-0.502775 0.66664,-0.602239 0.11829,-0.09947 0.34118,-0.282172 0.49711,-0.403138 0.15591,-0.120979 0.43284,-0.327867 0.61834,-0.462281 0.18549,-0.131724 0.49483,-0.341574 0.68569,-0.465237 0.19087,-0.123668 0.53769,-0.333182 0.7662,-0.464906 0.2285,-0.131724 0.6476,-0.352116 0.92719,-0.489219 0.27957,-0.137103 0.67502,-0.320129 0.87395,-0.403469 0.19894,-0.08333 0.48904,-0.201401 0.64496,-0.260543 0.15592,-0.05913 0.44635,-0.161473 0.64528,-0.228676 0.19894,-0.06452 0.55117,-0.172046 0.77967,-0.236561 0.22851,-0.06452 0.61012,-0.161441 0.84669,-0.215204 0.23657,-0.05379 0.67221,-0.139544 0.96793,-0.187934 0.29571,-0.04838 0.71786,-0.11019 0.94098,-0.134382 0.22045,-0.02416 0.52945,-0.05398 0.68537,-0.06472 0.15592,-0.01342 0.67466,-0.02397 1.15586,-0.02397 z M 72.176755,117.24618 c 0.481206,-0.003 1.04283,0.008 1.249829,0.0217 0.207001,0.0135 0.551128,0.0455 0.766193,0.0697 0.215064,0.0215 0.637206,0.0833 0.940986,0.13437 0.303776,0.0511 0.739423,0.1345 0.967928,0.18827 0.228502,0.0538 0.567228,0.13718 0.75272,0.18826 0.185493,0.051 0.559015,0.16658 0.83322,0.25529 0.274207,0.0914 0.70985,0.25006 0.967928,0.35221 0.258072,0.10484 0.664003,0.27977 0.900572,0.39 0.23657,0.10753 0.612778,0.29563 0.833219,0.41661 0.223127,0.12097 0.55376,0.30901 0.739252,0.41923 0.185494,0.11023 0.51881,0.32258 0.739252,0.47312 0.223126,0.14786 0.553761,0.38459 0.739251,0.52438 0.185494,0.13979 0.50564,0.39504 0.712639,0.56709 0.207001,0.17474 0.551129,0.48112 0.766194,0.68274 0.215062,0.20162 0.540349,0.5269 0.723151,0.72315 0.180116,0.19356 0.472845,0.52437 0.647584,0.73137 0.17474,0.207 0.43309,0.53221 0.57826,0.72578 0.145167,0.19087 0.397787,0.5539 0.56446,0.8066 0.166673,0.25271 0.373563,0.57793 0.462279,0.72578 0.08871,0.14786 0.25534,0.4437 0.37094,0.65876 0.115595,0.21506 0.282228,0.54029 0.370941,0.72578 0.08602,0.18549 0.223202,0.4945 0.306542,0.68537 0.08065,0.19087 0.223296,0.55391 0.317386,0.8066 0.0914,0.25271 0.230941,0.66135 0.306214,0.91405 0.07528,0.2527 0.17219,0.60223 0.215204,0.77966 0.0457,0.17743 0.110217,0.46213 0.147851,0.63149 0.03763,0.16936 0.09674,0.4922 0.134379,0.71264 0.03764,0.22312 0.09134,0.60746 0.120909,0.86016 0.02957,0.2527 0.06727,0.66134 0.08608,0.91404 0.01884,0.29033 0.02687,0.80392 0.0161,1.41148 -0.0081,0.52422 -0.02691,1.08044 -0.04304,1.23636 -0.01612,0.15591 -0.05382,0.47607 -0.08608,0.71264 -0.02957,0.23657 -0.09381,0.65297 -0.144894,0.92718 -0.05108,0.27421 -0.153343,0.74498 -0.231303,1.04875 -0.07527,0.30378 -0.223121,0.8117 -0.325271,1.12892 -0.104842,0.31722 -0.271414,0.78226 -0.37357,1.03496 -0.09946,0.2527 -0.269053,0.64512 -0.373896,0.87363 -0.104842,0.2285 -0.295517,0.61045 -0.421867,0.84701 -0.129038,0.23658 -0.333301,0.59928 -0.459651,0.80628 -0.126351,0.207 -0.344173,0.54572 -0.483963,0.75272 -0.139791,0.207 -0.365705,0.52174 -0.497434,0.69918 -0.134413,0.17742 -0.327865,0.42464 -0.432709,0.55098 -0.104842,0.12635 -0.312063,0.36816 -0.462608,0.53752 -0.147856,0.16936 -0.432553,0.47066 -0.631485,0.6696 -0.19893,0.19893 -0.50564,0.4945 -0.683068,0.65579 -0.177427,0.16131 -0.521559,0.45431 -0.766194,0.65055 -0.244638,0.19355 -0.577955,0.44919 -0.739251,0.56478 -0.161299,0.11829 -0.464895,0.32261 -0.671898,0.45703 -0.206997,0.1371 -0.545722,0.344 -0.752723,0.46228 -0.206999,0.11828 -0.526815,0.29551 -0.71231,0.39229 -0.185487,0.0968 -0.529622,0.26374 -0.766192,0.37127 -0.23657,0.10485 -0.62392,0.2687 -0.860491,0.3601 -0.236568,0.0941 -0.658389,0.24471 -0.940655,0.33612 -0.282272,0.0914 -0.693603,0.21224 -0.914045,0.27138 -0.223129,0.0565 -0.543277,0.13453 -0.712639,0.17217 -0.169363,0.0376 -0.513494,0.10483 -0.766192,0.14784 -0.2527,0.043 -0.607318,0.0968 -0.792806,0.11829 -0.185492,0.0242 -0.462423,0.0565 -0.618345,0.0726 -0.155917,0.0134 -0.707062,0.035 -1.223214,0.043 -0.594116,0.008 -1.115764,0.003 -1.411479,-0.0161 -0.258073,-0.0188 -0.639691,-0.0511 -0.84669,-0.0726 -0.206999,-0.0242 -0.623737,-0.0833 -0.927514,-0.13438 -0.303778,-0.0511 -0.739095,-0.13449 -0.967598,-0.18826 -0.228506,-0.0538 -0.56723,-0.13719 -0.752722,-0.18827 -0.185491,-0.0511 -0.559345,-0.16657 -0.833548,-0.25528 -0.274206,-0.0914 -0.709523,-0.25006 -0.967598,-0.35221 -0.258076,-0.10485 -0.664003,-0.27946 -0.900573,-0.38968 -0.23657,-0.10753 -0.613107,-0.29597 -0.833548,-0.41693 -0.22313,-0.12098 -0.553757,-0.30902 -0.739252,-0.41924 -0.185492,-0.11022 -0.518809,-0.32258 -0.739251,-0.47312 -0.22313,-0.14785 -0.553761,-0.38459 -0.739252,-0.52438 -0.185493,-0.13978 -0.505314,-0.39504 -0.712311,-0.56708 -0.206997,-0.17475 -0.559226,-0.48653 -0.779663,-0.69622 -0.223132,-0.20699 -0.545784,-0.53234 -0.720525,-0.72052 -0.177422,-0.19087 -0.462332,-0.51353 -0.637069,-0.72053 -0.174736,-0.20699 -0.432762,-0.53222 -0.577931,-0.72578 -0.145171,-0.19086 -0.398116,-0.5539 -0.564788,-0.80661 -0.166675,-0.25269 -0.373567,-0.57791 -0.462279,-0.72577 -0.08871,-0.14786 -0.255343,-0.44369 -0.370941,-0.65876 -0.115597,-0.21506 -0.282229,-0.54029 -0.37094,-0.72578 -0.08603,-0.18549 -0.225895,-0.4945 -0.306543,-0.68537 -0.08065,-0.19087 -0.225922,-0.562 -0.320015,-0.82008 -0.09678,-0.25807 -0.233629,-0.6694 -0.306214,-0.91404 -0.07258,-0.24463 -0.169563,-0.58877 -0.212575,-0.76619 -0.0457,-0.17743 -0.110217,-0.46212 -0.147851,-0.63149 -0.03764,-0.16935 -0.09674,-0.48951 -0.134378,-0.71263 -0.03764,-0.22045 -0.09134,-0.60747 -0.12091,-0.86017 -0.02956,-0.2527 -0.06739,-0.63453 -0.08082,-0.85227 -0.01612,-0.22045 -0.02957,-0.75809 -0.02957,-1.19628 0,-0.44088 0.01349,-0.97021 0.02694,-1.17721 0.01612,-0.207 0.0458,-0.54065 0.06998,-0.73958 0.02151,-0.19894 0.07521,-0.58596 0.120909,-0.86016 0.04301,-0.2742 0.12103,-0.69095 0.174791,-0.92751 0.05108,-0.23658 0.126373,-0.54559 0.161321,-0.68537 0.03764,-0.1398 0.123684,-0.43564 0.190892,-0.65876 0.06721,-0.22044 0.171891,-0.53485 0.228346,-0.69884 0.05914,-0.16398 0.177475,-0.47063 0.263503,-0.6857 0.08602,-0.21506 0.231238,-0.55379 0.322643,-0.75272 0.0914,-0.19893 0.258087,-0.53766 0.368311,-0.75272 0.112906,-0.21506 0.290472,-0.53489 0.392624,-0.71231 0.102159,-0.17743 0.30107,-0.49725 0.443551,-0.71231 0.139792,-0.21506 0.357553,-0.53489 0.486592,-0.71231 0.126349,-0.17743 0.327957,-0.44355 0.443552,-0.59141 0.118287,-0.14785 0.292949,-0.36027 0.387039,-0.47049 0.09678,-0.11022 0.333324,-0.37634 0.53226,-0.5914 0.196245,-0.21506 0.559225,-0.57804 0.809235,-0.80923 0.247325,-0.2312 0.548356,-0.50278 0.666641,-0.60225 0.118284,-0.0995 0.341515,-0.28216 0.497434,-0.40314 0.155922,-0.12096 0.432519,-0.32819 0.618015,-0.4626 0.18549,-0.13173 0.494828,-0.34125 0.685697,-0.46491 0.190868,-0.12365 0.537689,-0.33351 0.766193,-0.46523 0.228501,-0.13173 0.64793,-0.35212 0.927514,-0.48922 0.279582,-0.13711 0.674699,-0.31981 0.873632,-0.40314 0.198933,-0.0833 0.489364,-0.20173 0.645285,-0.26088 0.155922,-0.0591 0.446021,-0.16114 0.644956,-0.22835 0.198932,-0.0645 0.55116,-0.17204 0.779664,-0.23656 0.228505,-0.0645 0.610119,-0.16144 0.846689,-0.2152 0.236569,-0.0538 0.672216,-0.13988 0.967928,-0.18826 0.295713,-0.0484 0.717859,-0.11018 0.940985,-0.13438 0.22044,-0.0242 0.529449,-0.0537 0.685369,-0.0644 0.155922,-0.0134 0.674988,-0.0243 1.156188,-0.0243 z m 38.052745,0 c 0.48119,-0.003 1.04315,0.008 1.25015,0.0217 0.207,0.0135 0.55112,0.0455 0.76619,0.0697 0.21506,0.0215 0.63721,0.0833 0.94099,0.13437 0.30377,0.0511 0.73909,0.1345 0.9676,0.18827 0.2285,0.0538 0.56723,0.13718 0.75272,0.18826 0.18549,0.051 0.55934,0.16658 0.83355,0.25529 0.2742,0.0914 0.70952,0.25006 0.96759,0.35221 0.25808,0.10484 0.664,0.27977 0.90058,0.39 0.23656,0.10753 0.6131,0.29563 0.83354,0.41661 0.22313,0.12097 0.55376,0.30901 0.73926,0.41923 0.18549,0.11023 0.5188,0.32258 0.73925,0.47312 0.22312,0.14786 0.55376,0.38459 0.73925,0.52438 0.18549,0.13979 0.50531,0.39504 0.71231,0.56709 0.207,0.17474 0.55114,0.48112 0.76619,0.68274 0.21507,0.20162 0.54036,0.5269 0.72316,0.72315 0.18011,0.19356 0.47317,0.52437 0.64791,0.73137 0.17474,0.207 0.43277,0.53221 0.57793,0.72578 0.14517,0.19087 0.39811,0.5539 0.56479,0.8066 0.16667,0.25271 0.37356,0.57793 0.46228,0.72578 0.0887,0.14786 0.25534,0.4437 0.37094,0.65876 0.11559,0.21506 0.28222,0.54029 0.37094,0.72578 0.086,0.18549 0.2232,0.4945 0.30654,0.68537 0.0806,0.19087 0.22297,0.55391 0.31705,0.8066 0.0914,0.25271 0.23128,0.66135 0.30655,0.91405 0.0753,0.2527 0.1722,0.60223 0.21521,0.77966 0.0457,0.17743 0.11021,0.46213 0.14785,0.63149 0.0376,0.16936 0.0967,0.4922 0.13438,0.71264 0.0376,0.22312 0.0913,0.60746 0.12091,0.86016 0.0296,0.2527 0.0673,0.66134 0.0861,0.91404 0.0188,0.29033 0.0269,0.80392 0.0161,1.41148 -0.008,0.52422 -0.0269,1.08044 -0.043,1.23636 -0.0161,0.15591 -0.0538,0.47607 -0.0861,0.71264 -0.0296,0.23657 -0.0941,0.65297 -0.14522,0.92718 -0.0511,0.27421 -0.15301,0.74498 -0.23098,1.04875 -0.0753,0.30378 -0.22312,0.8117 -0.32527,1.12892 -0.10484,0.31722 -0.27174,0.78226 -0.3739,1.03496 -0.0995,0.2527 -0.26872,0.64512 -0.37356,0.87363 -0.10485,0.2285 -0.29585,0.61045 -0.4222,0.84701 -0.12903,0.23658 -0.3333,0.59928 -0.45965,0.80628 -0.12635,0.207 -0.34417,0.54572 -0.48396,0.75272 -0.1398,0.207 -0.36538,0.52174 -0.49711,0.69918 -0.13441,0.17742 -0.32819,0.42464 -0.43304,0.55098 -0.10484,0.12635 -0.31173,0.36816 -0.46227,0.53752 -0.14786,0.16936 -0.43289,0.47066 -0.63182,0.6696 -0.19894,0.19893 -0.50531,0.4945 -0.68274,0.65579 -0.17742,0.16131 -0.52156,0.45431 -0.76619,0.65055 -0.24463,0.19355 -0.57796,0.44919 -0.73925,0.56478 -0.1613,0.11829 -0.46523,0.32261 -0.67223,0.45703 -0.20699,0.1371 -0.5454,0.344 -0.75239,0.46228 -0.207,0.11828 -0.52715,0.29551 -0.71264,0.39229 -0.18549,0.0968 -0.52963,0.26374 -0.7662,0.37127 -0.23657,0.10485 -0.62359,0.2687 -0.86016,0.3601 -0.23656,0.0941 -0.65871,0.24471 -0.94098,0.33612 -0.28227,0.0914 -0.6936,0.21224 -0.91405,0.27138 -0.22313,0.0565 -0.54294,0.13453 -0.7123,0.17217 -0.16937,0.0376 -0.5135,0.10483 -0.7662,0.14784 -0.2527,0.043 -0.60764,0.0968 -0.79313,0.11829 -0.1855,0.0242 -0.46209,0.0565 -0.61802,0.0726 -0.15592,0.0134 -0.70706,0.035 -1.22322,0.043 -0.5941,0.008 -1.11575,0.003 -1.41147,-0.0161 -0.25808,-0.0188 -0.63969,-0.0511 -0.84669,-0.0726 -0.207,-0.0242 -0.62374,-0.0833 -0.92751,-0.13438 -0.30378,-0.0511 -0.73943,-0.13449 -0.96793,-0.18826 -0.22851,-0.0538 -0.56723,-0.13719 -0.75273,-0.18827 -0.18549,-0.0511 -0.55901,-0.16657 -0.83321,-0.25528 -0.27421,-0.0914 -0.70986,-0.25006 -0.96793,-0.35221 -0.25808,-0.10485 -0.664,-0.27946 -0.90057,-0.38968 -0.23658,-0.10753 -0.61278,-0.29597 -0.83322,-0.41693 -0.22313,-0.12098 -0.55376,-0.30902 -0.73925,-0.41924 -0.18549,-0.11022 -0.51882,-0.32258 -0.73926,-0.47312 -0.22312,-0.14785 -0.55409,-0.38459 -0.739576,-0.52438 -0.185493,-0.13978 -0.505317,-0.39504 -0.712313,-0.56708 -0.206996,-0.17475 -0.55922,-0.48653 -0.779661,-0.69622 -0.22313,-0.20699 -0.54546,-0.53234 -0.720196,-0.72052 -0.177428,-0.19087 -0.462661,-0.51353 -0.637399,-0.72053 -0.174739,-0.20699 -0.432762,-0.53222 -0.577931,-0.72578 -0.14517,-0.19086 -0.397785,-0.5539 -0.56446,-0.80661 -0.166673,-0.25269 -0.373568,-0.57791 -0.462279,-0.72577 -0.08872,-0.14786 -0.255344,-0.44369 -0.370939,-0.65876 -0.115598,-0.21506 -0.282557,-0.54029 -0.371269,-0.72578 -0.08603,-0.18549 -0.225567,-0.4945 -0.306215,-0.68537 -0.08065,-0.19087 -0.225924,-0.562 -0.320014,-0.82008 -0.09678,-0.25807 -0.233961,-0.6694 -0.306543,-0.91404 -0.07258,-0.24463 -0.169234,-0.58877 -0.212248,-0.76619 -0.0457,-0.17743 -0.110215,-0.46212 -0.147849,-0.63149 -0.03764,-0.16935 -0.09674,-0.48951 -0.13438,-0.71263 -0.03764,-0.22045 -0.09167,-0.60747 -0.121237,-0.86017 -0.02957,-0.2527 -0.06705,-0.63453 -0.0805,-0.85227 -0.01612,-0.22045 -0.02957,-0.75809 -0.02957,-1.19628 0,-0.44088 0.01351,-0.97021 0.02694,-1.17721 0.01612,-0.207 0.04579,-0.54065 0.06998,-0.73958 0.02151,-0.19894 0.07521,-0.58596 0.120909,-0.86016 0.04301,-0.2742 0.121028,-0.69095 0.174791,-0.92751 0.05108,-0.23658 0.126373,-0.54559 0.161322,-0.68537 0.03763,-0.1398 0.123356,-0.43564 0.190563,-0.65876 0.06721,-0.22044 0.172221,-0.53485 0.228675,-0.69884 0.05914,-0.16398 0.177477,-0.47063 0.263502,-0.6857 0.08603,-0.21506 0.231238,-0.55379 0.322643,-0.75272 0.0914,-0.19893 0.258096,-0.53766 0.368311,-0.75272 0.112907,-0.21506 0.290144,-0.53489 0.392297,-0.71231 0.102156,-0.17743 0.301077,-0.49725 0.44355,-0.71231 0.139797,-0.21506 0.357551,-0.53489 0.486592,-0.71231 0.126348,-0.17743 0.327957,-0.44355 0.443552,-0.59141 0.118284,-0.14785 0.293275,-0.36027 0.387368,-0.47049 0.09678,-0.11022 0.333328,-0.37634 0.532261,-0.5914 0.196247,-0.21506 0.558893,-0.57804 0.808905,-0.80923 0.247325,-0.2312 0.548683,-0.50278 0.666967,-0.60225 0.118283,-0.0995 0.341187,-0.28216 0.497103,-0.40314 0.155929,-0.12096 0.432858,-0.32819 0.618348,-0.4626 0.18549,-0.13173 0.49483,-0.34125 0.68569,-0.46491 0.19087,-0.12365 0.53769,-0.33351 0.7662,-0.46523 0.2285,-0.13173 0.6476,-0.35212 0.92719,-0.48922 0.27957,-0.13711 0.67502,-0.31981 0.87395,-0.40314 0.19894,-0.0833 0.48904,-0.20173 0.64496,-0.26088 0.15592,-0.0591 0.44635,-0.16114 0.64528,-0.22835 0.19894,-0.0645 0.55116,-0.17204 0.77966,-0.23656 0.22851,-0.0645 0.61013,-0.16144 0.8467,-0.2152 0.23657,-0.0538 0.67221,-0.13988 0.96792,-0.18826 0.29572,-0.0484 0.71754,-0.11018 0.94066,-0.13438 0.22044,-0.0242 0.52978,-0.0537 0.6857,-0.0644 0.15592,-0.0134 0.67466,-0.0243 1.15586,-0.0243 z m 37.73042,0 c 0.4812,-0.003 1.04315,0.008 1.25016,0.0217 0.20699,0.0135 0.55112,0.0455 0.76619,0.0697 0.21506,0.0215 0.6372,0.0833 0.94098,0.13437 0.30378,0.0511 0.7391,0.1345 0.9676,0.18827 0.22851,0.0538 0.56723,0.13718 0.75272,0.18826 0.18549,0.051 0.55934,0.16658 0.83355,0.25529 0.2742,0.0914 0.70952,0.25006 0.9676,0.35221 0.25807,0.10484 0.664,0.27977 0.90057,0.39 0.23657,0.10753 0.61311,0.29563 0.83355,0.41661 0.22313,0.12097 0.55376,0.30901 0.73925,0.41923 0.18549,0.11023 0.51881,0.32258 0.73926,0.47312 0.22312,0.14786 0.55375,0.38459 0.73925,0.52438 0.18549,0.13979 0.50531,0.39504 0.7123,0.56709 0.207,0.17474 0.55113,0.48112 0.76619,0.68274 0.21508,0.20162 0.54036,0.5269 0.72316,0.72315 0.18011,0.19356 0.47317,0.52437 0.64791,0.73137 0.17474,0.207 0.43277,0.53221 0.57793,0.72578 0.14517,0.19087 0.39811,0.5539 0.56479,0.8066 0.16667,0.25271 0.37357,0.57793 0.46228,0.72578 0.0887,0.14786 0.25535,0.4437 0.37094,0.65876 0.1156,0.21506 0.28223,0.54029 0.37094,0.72578 0.086,0.18549 0.2232,0.4945 0.30654,0.68537 0.0807,0.19087 0.2233,0.55391 0.31739,0.8066 0.0914,0.25271 0.23094,0.66135 0.30621,0.91405 0.0753,0.2527 0.1722,0.60223 0.21521,0.77966 0.0457,0.17743 0.11021,0.46213 0.14785,0.63149 0.0376,0.16936 0.0967,0.4922 0.13438,0.71264 0.0376,0.22312 0.0913,0.60746 0.12091,0.86016 0.0296,0.2527 0.0673,0.66134 0.0861,0.91404 0.0188,0.29033 0.0269,0.80392 0.0161,1.41148 -0.008,0.52422 -0.0269,1.08044 -0.043,1.23636 -0.0161,0.15591 -0.0538,0.47607 -0.0861,0.71264 -0.0296,0.23657 -0.0941,0.65297 -0.14522,0.92718 -0.051,0.27421 -0.15301,0.74498 -0.23097,1.04875 -0.0753,0.30378 -0.22313,0.8117 -0.32527,1.12892 -0.10485,0.31722 -0.27174,0.78226 -0.3739,1.03496 -0.0995,0.2527 -0.26873,0.64512 -0.37357,0.87363 -0.10484,0.2285 -0.29552,0.61045 -0.42186,0.84701 -0.12904,0.23658 -0.33364,0.59928 -0.45998,0.80628 -0.12635,0.207 -0.34385,0.54572 -0.48364,0.75272 -0.13979,0.207 -0.36571,0.52174 -0.49743,0.69918 -0.13442,0.17742 -0.32787,0.42464 -0.43271,0.55098 -0.10484,0.12635 -0.31206,0.36816 -0.46261,0.53752 -0.14786,0.16936 -0.43288,0.47066 -0.63181,0.6696 -0.19894,0.19893 -0.50531,0.4945 -0.68274,0.65579 -0.17743,0.16131 -0.52156,0.45431 -0.76619,0.65055 -0.24464,0.19355 -0.57796,0.44919 -0.73926,0.56478 -0.1613,0.11829 -0.4649,0.32261 -0.6719,0.45703 -0.20699,0.1371 -0.54572,0.344 -0.75272,0.46228 -0.207,0.11828 -0.52714,0.29551 -0.71263,0.39229 -0.1855,0.0968 -0.52963,0.26374 -0.7662,0.37127 -0.23657,0.10485 -0.62359,0.2687 -0.86016,0.3601 -0.23657,0.0941 -0.65872,0.24471 -0.94099,0.33612 -0.28227,0.0914 -0.69327,0.21224 -0.91371,0.27138 -0.22313,0.0565 -0.54328,0.13453 -0.71264,0.17217 -0.16937,0.0376 -0.51349,0.10483 -0.76619,0.14784 -0.2527,0.043 -0.60732,0.0968 -0.79281,0.11829 -0.18549,0.0242 -0.46242,0.0565 -0.61834,0.0726 -0.15592,0.0134 -0.70707,0.035 -1.22322,0.043 -0.59411,0.008 -1.11576,0.003 -1.41148,-0.0161 -0.25807,-0.0188 -0.63969,-0.0511 -0.84669,-0.0726 -0.20699,-0.0242 -0.62373,-0.0833 -0.92751,-0.13438 -0.30378,-0.0511 -0.73942,-0.13449 -0.96793,-0.18826 -0.2285,-0.0538 -0.56723,-0.13719 -0.75272,-0.18827 -0.18549,-0.0511 -0.55901,-0.16657 -0.83322,-0.25528 -0.2742,-0.0914 -0.70985,-0.25006 -0.96793,-0.35221 -0.25807,-0.10485 -0.664,-0.27946 -0.90057,-0.38968 -0.23657,-0.10753 -0.61278,-0.29597 -0.83322,-0.41693 -0.22313,-0.12098 -0.55375,-0.30902 -0.73925,-0.41924 -0.18549,-0.11022 -0.51881,-0.32258 -0.73925,-0.47312 -0.22313,-0.14785 -0.55376,-0.38459 -0.73925,-0.52438 -0.1855,-0.13978 -0.50564,-0.39504 -0.71264,-0.56708 -0.207,-0.17475 -0.55889,-0.48653 -0.77934,-0.69622 -0.22313,-0.20699 -0.54578,-0.53234 -0.72053,-0.72052 -0.17741,-0.19087 -0.46233,-0.51353 -0.63706,-0.72053 -0.17474,-0.20699 -0.43309,-0.53222 -0.57826,-0.72578 -0.14517,-0.19086 -0.39779,-0.5539 -0.56446,-0.80661 -0.16667,-0.25269 -0.37356,-0.57791 -0.46228,-0.72577 -0.0887,-0.14786 -0.25534,-0.44369 -0.37094,-0.65876 -0.11559,-0.21506 -0.28223,-0.54029 -0.37094,-0.72578 -0.086,-0.18549 -0.22589,-0.4945 -0.30654,-0.68537 -0.0807,-0.19087 -0.22593,-0.562 -0.32002,-0.82008 -0.0968,-0.25807 -0.23396,-0.6694 -0.30654,-0.91404 -0.0726,-0.24463 -0.16924,-0.58877 -0.21225,-0.76619 -0.0457,-0.17743 -0.11021,-0.46212 -0.14785,-0.63149 -0.0376,-0.16935 -0.0967,-0.48951 -0.13438,-0.71263 -0.0376,-0.22045 -0.0913,-0.60747 -0.12091,-0.86017 -0.0296,-0.2527 -0.0674,-0.63453 -0.0808,-0.85227 -0.0161,-0.22045 -0.0296,-0.75809 -0.0296,-1.19628 0,-0.44088 0.0135,-0.97021 0.0269,-1.17721 0.0161,-0.207 0.0458,-0.54065 0.07,-0.73958 0.0215,-0.19894 0.0752,-0.58596 0.12091,-0.86016 0.043,-0.2742 0.12102,-0.69095 0.17479,-0.92751 0.051,-0.23658 0.12637,-0.54559 0.16132,-0.68537 0.0376,-0.1398 0.12369,-0.43564 0.19089,-0.65876 0.0672,-0.22044 0.17189,-0.53485 0.22835,-0.69884 0.0591,-0.16398 0.17748,-0.47063 0.2635,-0.6857 0.086,-0.21506 0.23124,-0.55379 0.32264,-0.75272 0.0914,-0.19893 0.25809,-0.53766 0.36832,-0.75272 0.1129,-0.21506 0.29014,-0.53489 0.39229,-0.71231 0.10216,-0.17743 0.30107,-0.49725 0.44355,-0.71231 0.13979,-0.21506 0.35755,-0.53489 0.48659,-0.71231 0.12635,-0.17743 0.32796,-0.44355 0.44355,-0.59141 0.11829,-0.14785 0.29328,-0.36027 0.38737,-0.47049 0.0968,-0.11022 0.33333,-0.37634 0.53227,-0.5914 0.19624,-0.21506 0.55922,-0.57804 0.80923,-0.80923 0.24732,-0.2312 0.54835,-0.50278 0.66664,-0.60225 0.11829,-0.0995 0.34118,-0.28216 0.49711,-0.40314 0.15591,-0.12096 0.43284,-0.32819 0.61834,-0.4626 0.18549,-0.13173 0.49483,-0.34125 0.68569,-0.46491 0.19087,-0.12365 0.53769,-0.33351 0.7662,-0.46523 0.2285,-0.13173 0.6476,-0.35212 0.92719,-0.48922 0.27957,-0.13711 0.67502,-0.31981 0.87395,-0.40314 0.19894,-0.0833 0.48904,-0.20173 0.64496,-0.26088 0.15592,-0.0591 0.44635,-0.16114 0.64528,-0.22835 0.19894,-0.0645 0.55117,-0.17204 0.77967,-0.23656 0.22851,-0.0645 0.61012,-0.16144 0.84669,-0.2152 0.23657,-0.0538 0.67221,-0.13988 0.96793,-0.18826 0.29571,-0.0484 0.71786,-0.11018 0.94098,-0.13438 0.22045,-0.0242 0.52945,-0.0537 0.68537,-0.0644 0.15592,-0.0134 0.67466,-0.0243 1.15586,-0.0243 z"
       style="fill:#ffffff;stroke-width:0.264583" />
    <text
       xml:space="preserve"
       style="font-style:normal;font-weight:normal;font-size:23.4735px;font-family:sans-serif;fill:#ffffff;fill-opacity:1;stroke:none;stroke-width:0.264582"
       x="13.520986"
       y="31.332655"
       id="text1"><tspan
         sodipodi:role="line"
         style="font-style:normal;font-variant:normal;font-weight:normal;font-stretch:normal;font-size:23.4735px;font-family:'Fira Code';-inkscape-font-specification:'Fira Code, @wght=500';font-variant-ligatures:normal;font-variant-caps:normal;font-variant-numeric:normal;font-variant-east-asian:normal;font-variation-settings:'wght' 500;fill:#ffffff;stroke-width:0.264582"
         x="13.520986"
         y="31.332655"
         id="tspan2">Connect Four</tspan></text>
  </g>
</svg>
