<?xml version="1.0" encoding="UTF-8" standalone="no"?>
<!-- Created with Inkscape (http://www.inkscape.org/) -->

<svg
   width="220mm"
   height="200mm"
   viewBox="0 0 220 200"
   version="1.1"
   id="svg1"
   inkscape:version="1.3 (0e150ed6c4, 2023-07-21)"
   sodipodi:docname="template - Copy (2) - Copy.svg"
   xmlns:inkscape="http://www.inkscape.org/namespaces/inkscape"
   xmlns:sodipodi="http://sodipodi.sourceforge.net/DTD/sodipodi-0.dtd"
   xmlns="http://www.w3.org/2000/svg"
   xmlns:svg="http://www.w3.org/2000/svg">
  <sodipodi:namedview
     id="namedview1"
     pagecolor="#ffffff"
     bordercolor="#666666"
     borderopacity="1.0"
     inkscape:showpageshadow="2"
     inkscape:pageopacity="0.0"
     inkscape:pagecheckerboard="true"
     inkscape:deskcolor="#d1d1d1"
     inkscape:document-units="mm"
     inkscape:zoom="0.54208404"
     inkscape:cx="412.29769"
     inkscape:cy="485.16463"
     inkscape:window-width="1649"
     inkscape:window-height="1157"
     inkscape:window-x="727"
     inkscape:window-y="128"
     inkscape:window-maximized="0"
     inkscape:current-layer="layer1" />
  <defs
     id="defs1" />
  <g
     inkscape:label="Layer 1"
     inkscape:groupmode="layer"
     id="layer1">
    <text
       xml:space="preserve"
       style="font-style:normal;font-weight:normal;font-size:23.4735px;font-family:sans-serif;fill:#ffffff;fill-opacity:1;stroke:none;stroke-width:0.264582"
       x="13.520986"
       y="31.332655"
       id="text1"><tspan
         sodipodi:role="line"
         style="font-style:normal;font-variant:normal;font-weight:normal;font-stretch:normal;font-size:23.4735px;font-family:'Fira Code';-inkscape-font-specification:'Fira Code, @wght=500';font-variant-ligatures:normal;font-variant-caps:normal;font-variant-numeric:normal;font-variant-east-asian:normal;font-variation-settings:'wght' 500;fill:#ffffff;stroke-width:0.264582"
         x="13.520986"
         y="31.332655"
         id="tspan2">Compañeros</tspan><tspan
         sodipodi:role="line"
         style="font-style:normal;font-variant:normal;font-weight:normal;font-stretch:normal;font-size:23.4735px;font-family:'Fira Code';-inkscape-font-specification:'Fira Code, @wght=500';font-variant-ligatures:normal;font-variant-caps:normal;font-variant-numeric:normal;font-variant-east-asian:normal;font-variation-settings:'wght' 500;fill:#ffffff;stroke-width:0.264582"
         x="13.520986"
         y="61.443455"
         id="tspan1">Generator</tspan></text>
    <path
       id="Path 1"
       style="fill:#ffffff;stroke-width:0.264583"
       class="s1"
       d="m 162.11648,77.844705 c -95.751984,0.03574 -104.221395,0.0714 -104.97183,0.285811 -0.482422,0.125072 -1.375803,0.482563 -1.96543,0.768444 -0.661098,0.321616 -1.554478,1.000375 -2.322781,1.75081 -0.804038,0.804037 -1.447133,1.643886 -1.82235,2.394321 -0.303748,0.625363 -0.697044,1.679761 -0.839984,2.358726 -0.250145,1.07205 -0.285604,5.610207 -0.249866,42.595953 l 0.05339,41.41711 c 0.661097,1.80462 1.143522,2.76947 1.518741,3.3055 0.375217,0.53602 1.071984,1.37594 1.536539,1.8405 0.536025,0.51815 1.447342,1.14337 2.304983,1.55433 0.893374,0.42882 1.911828,0.7683 2.680132,0.89338 0.875507,0.12504 16.9385,0.1788 52.798606,0.14307 42.23877,-0.0536 51.67293,-0.10748 52.26257,-0.28615 0.39307,-0.14294 1.10779,-0.44648 1.60807,-0.67876 0.48242,-0.23228 1.3758,-0.82211 1.96543,-1.28667 0.58963,-0.48242 1.41174,-1.37559 1.8227,-2.01883 0.41095,-0.62536 0.92911,-1.59028 1.16139,-2.12631 l 0.41074,-0.98271 c 0,-83.405533 -7e-5,-84.352687 -0.33955,-85.317533 -0.19654,-0.536025 -0.5539,-1.340067 -0.80404,-1.786755 -0.25014,-0.446687 -0.87537,-1.250729 -1.37566,-1.786754 -0.51816,-0.536026 -1.35794,-1.250589 -1.8761,-1.554337 -0.53601,-0.321615 -1.5544,-0.786312 -2.25123,-1.036458 z m -52.03015,7.683044 c 48.04573,0 50.81515,0.01801 51.31545,0.321756 0.30375,0.160808 0.66111,0.571762 0.80404,0.893377 0.23227,0.500291 0.26801,5.592414 0.17868,81.547208 l -1.16139,1.03645 H 58.842067 l -1.072053,-1.07205 v -40.64867 c 0,-26.74767 0.0536,-40.77374 0.178675,-41.006018 0.107206,-0.196542 0.446829,-0.518158 0.768444,-0.714702 0.571761,-0.357349 0.911346,-0.357351 51.369197,-0.357351 z m 15.1403,24.395831 c -0.73034,0.0112 -1.41817,0.038 -1.88272,0.0827 -0.92911,0.0715 -2.30492,0.26801 -3.03749,0.44669 -0.73257,0.16081 -2.10837,0.66096 -3.03748,1.10765 -1.34007,0.64323 -1.94756,1.07225 -2.85881,2.00137 -0.69683,0.69683 -1.37587,1.62588 -1.67961,2.25125 -0.28588,0.58963 -0.62523,1.50073 -0.7503,2.00102 -0.14295,0.51815 -0.25022,1.44727 -0.25022,2.05477 0,0.62537 0.125,1.60823 0.28581,2.19785 0.16081,0.58963 0.48271,1.46514 0.73285,1.96543 0.25014,0.48242 0.94685,1.3758 1.55434,1.96544 0.6075,0.58962 1.62581,1.35793 2.26904,1.69741 0.62536,0.35735 1.8583,0.92897 2.75167,1.28632 0.89338,0.35735 3.09109,1.03646 4.91358,1.48315 1.87608,0.48242 3.84152,1.08992 4.55622,1.42941 0.98271,0.46455 1.35807,0.76815 1.75115,1.37565 0.35735,0.57176 0.48229,0.98287 0.48229,1.66182 0,0.6611 -0.12507,1.07191 -0.44669,1.55434 -0.25013,0.37522 -0.7503,0.8758 -1.10765,1.09021 -0.37521,0.23226 -1.05418,0.51815 -1.51873,0.62536 -0.48243,0.12507 -1.23287,0.21427 -1.69743,0.21427 -0.48242,0 -1.14366,-0.0893 -1.48314,-0.19648 -0.33948,-0.1072 -0.82191,-0.28608 -1.07205,-0.39329 -0.25015,-0.1072 -0.71456,-0.37494 -1.01831,-0.60722 -0.32162,-0.23228 -0.83992,-0.76844 -1.12579,-1.21513 -0.28589,-0.44669 -0.67883,-1.37574 -0.83964,-2.07257 l -0.32176,-1.26852 c -2.76946,0.16081 -4.98504,0.30354 -6.70033,0.41074 -1.71528,0.1072 -3.16254,0.23229 -3.21616,0.26802 -0.0536,0.0536 0.018,0.66131 0.16088,1.376 0.14295,0.71471 0.4111,1.73302 0.58977,2.26904 0.17867,0.53603 0.60729,1.46514 0.94677,2.05477 0.32162,0.58963 1.07226,1.59029 1.64403,2.21565 0.57175,0.62536 1.48279,1.3936 2.01882,1.71521 0.53602,0.30375 1.59021,0.76816 2.32278,1.01831 0.73257,0.25014 1.94756,0.57183 2.68013,0.69691 0.89338,0.16081 2.69801,0.25021 5.4496,0.25021 3.73432,-0.0179 4.25248,-0.0537 5.62828,-0.42889 0.83977,-0.23228 2.23344,-0.75037 3.12682,-1.17919 1.12565,-0.55389 1.9297,-1.07191 2.68013,-1.82235 0.58963,-0.57176 1.28668,-1.32233 1.55469,-1.66182 0.26801,-0.33947 0.76809,-1.2866 1.12544,-2.10851 0.37522,-0.87551 0.71491,-2.05477 0.83999,-2.94814 0.17867,-1.23287 0.1786,-1.69728 -0.0715,-2.98374 -0.14294,-0.83977 -0.48236,-1.96543 -0.73251,-2.50146 -0.23227,-0.53603 -0.75057,-1.3578 -1.12579,-1.82235 -0.39309,-0.44669 -1.08999,-1.1438 -1.59028,-1.53689 -0.48242,-0.39308 -1.44727,-0.98244 -2.1441,-1.32192 -0.69684,-0.33948 -1.50088,-0.71498 -1.78676,-0.82218 -0.28587,-0.10721 -1.46515,-0.46449 -2.59079,-0.82184 -1.12566,-0.33948 -3.34123,-0.91111 -4.91358,-1.28633 -1.57234,-0.35735 -3.16263,-0.83991 -3.55571,-1.03645 -0.37522,-0.21441 -0.78603,-0.5897 -0.92897,-0.87558 -0.14294,-0.26802 -0.25021,-0.73244 -0.25021,-1.01831 0,-0.30375 0.14307,-0.78611 0.32175,-1.08985 0.1608,-0.30375 0.58949,-0.71492 0.92897,-0.92933 0.53603,-0.33946 0.87544,-0.39294 2.51925,-0.39294 1.78676,0 1.92969,0.0357 2.76947,0.53602 0.55389,0.35735 1.07214,0.87552 1.41161,1.4294 0.30375,0.5003 0.60764,1.23274 0.67911,1.64368 0.12507,0.71469 0.16088,0.76845 0.60756,0.67911 0.28589,-0.0536 2.01883,-0.16081 3.89492,-0.26802 1.87609,-0.0893 3.75218,-0.17867 4.19887,-0.17867 0.44669,0 0.92911,-0.0893 1.07205,-0.17867 0.23228,-0.14294 0.2325,-0.30361 0.0359,-1.28633 -0.12507,-0.62537 -0.39316,-1.57249 -0.60757,-2.10851 -0.21441,-0.53603 -0.67918,-1.41161 -1.01866,-1.94763 -0.35735,-0.53604 -1.03625,-1.34015 -1.53654,-1.76897 -0.48242,-0.44669 -1.53661,-1.10758 -2.32278,-1.48279 -0.78617,-0.35736 -2.19771,-0.82205 -3.12682,-1.03646 -0.98271,-0.19654 -2.68013,-0.39307 -4.0202,-0.44669 -0.63429,-0.0179 -1.40713,-0.0223 -2.13747,-0.0112 z m -46.372912,0.44006 v 17.0635 17.06351 h 28.588072 v -7.68304 H 89.39557 v -6.61099 l 16.17013,-0.0893 0.0893,-6.879 H 89.39557 v -5.36027 l 17.42086,-0.0893 v -7.32569 z" />
  </g>
</svg>
