<?xml version="1.0" encoding="UTF-8" standalone="no"?>
<!-- Created with Inkscape (http://www.inkscape.org/) -->

<svg
   width="220mm"
   height="200mm"
   viewBox="0 0 220 200"
   version="1.1"
   id="svg1"
   inkscape:version="1.3 (0e150ed6c4, 2023-07-21)"
   sodipodi:docname="template - Copy (3) - Copy.svg"
   xmlns:inkscape="http://www.inkscape.org/namespaces/inkscape"
   xmlns:sodipodi="http://sodipodi.sourceforge.net/DTD/sodipodi-0.dtd"
   xmlns="http://www.w3.org/2000/svg"
   xmlns:svg="http://www.w3.org/2000/svg">
  <sodipodi:namedview
     id="namedview1"
     pagecolor="#ffffff"
     bordercolor="#666666"
     borderopacity="1.0"
     inkscape:showpageshadow="2"
     inkscape:pageopacity="0.0"
     inkscape:pagecheckerboard="true"
     inkscape:deskcolor="#d1d1d1"
     inkscape:document-units="mm"
     inkscape:zoom="0.54208404"
     inkscape:cx="392.928"
     inkscape:cy="389.23854"
     inkscape:window-width="1649"
     inkscape:window-height="1157"
     inkscape:window-x="739"
     inkscape:window-y="257"
     inkscape:window-maximized="0"
     inkscape:current-layer="layer1" />
  <defs
     id="defs1" />
  <g
     inkscape:label="Layer 1"
     inkscape:groupmode="layer"
     id="layer1">
    <text
       xml:space="preserve"
       style="font-style:normal;font-variant:normal;font-weight:normal;font-stretch:normal;font-size:23.4735px;font-family:'Fira Code';-inkscape-font-specification:'Fira Code, @wght=500';font-variant-ligatures:normal;font-variant-caps:normal;font-variant-numeric:normal;font-variant-east-asian:normal;font-variation-settings:'wght' 500;fill:#ffffff;fill-opacity:1;stroke:none;stroke-width:0.264582"
       x="13.520986"
       y="31.332655"
       id="text1"><tspan
         sodipodi:role="line"
         id="tspan1"
         x="13.520986"
         y="31.332655">Compañeros</tspan><tspan
         sodipodi:role="line"
         id="tspan2"
         x="13.520986"
         y="60.67453">Generator</tspan></text>
    <path
       id="Path 1"
       style="fill:#ffffff;stroke-width:0.264583"
       class="s1"
       d="m 157.02796,82.388631 c -86.403012,0.03225 -94.045494,0.06443 -94.722659,0.257905 -0.435319,0.112861 -1.241472,0.435449 -1.77353,0.693415 -0.59655,0.290214 -1.402703,0.903016 -2.095991,1.580181 -0.725533,0.725533 -1.305838,1.483066 -1.644421,2.160231 -0.27409,0.564304 -0.628986,1.515753 -0.757971,2.128426 -0.22572,0.967378 -0.257718,5.062751 -0.225469,38.437321 l 0.04817,37.37293 c 0.59655,1.62842 1.031874,2.49907 1.370455,2.98277 0.338584,0.48368 0.967318,1.24159 1.386517,1.66079 0.483689,0.46756 1.306027,1.03174 2.07993,1.40257 0.806149,0.38695 1.725163,0.6933 2.418452,0.80615 0.790025,0.11284 15.284676,0.16135 47.643487,0.12911 38.11471,-0.0484 46.62773,-0.0967 47.15979,-0.2579 0.35471,-0.12898 0.99963,-0.40322 1.45108,-0.6128 0.43531,-0.2096 1.24147,-0.74154 1.77352,-1.16073 0.53207,-0.43533 1.27392,-1.2416 1.64475,-1.82203 0.37082,-0.56431 0.8384,-1.43501 1.04799,-1.9187 l 0.37064,-0.88677 c 0,-75.262043 -7e-5,-76.116716 -0.3064,-76.987357 -0.17735,-0.483689 -0.49981,-1.209225 -0.72553,-1.6123 -0.22572,-0.403074 -0.78991,-1.128612 -1.24135,-1.612301 -0.46757,-0.483689 -1.22535,-1.128485 -1.69292,-1.402575 -0.48369,-0.290214 -1.40264,-0.70954 -2.03143,-0.935262 z m -46.95007,6.932893 c 43.35468,0 45.85371,0.01625 46.30515,0.29034 0.2741,0.145107 0.59656,0.515937 0.72554,0.80615 0.2096,0.451444 0.24185,5.046703 0.16123,73.585476 l -1.048,0.93494 H 63.836988 l -0.967381,-0.96738 V 127.2912 c 0,-24.13609 0.04837,-36.792697 0.16123,-37.002296 0.09674,-0.177352 0.403202,-0.467567 0.693415,-0.64492 0.515936,-0.322459 0.822371,-0.32246 46.353638,-0.32246 z m 13.66205,22.013886 c -0.65903,0.0101 -1.27971,0.0344 -1.69891,0.0747 -0.83839,0.0645 -2.07986,0.24185 -2.7409,0.40307 -0.66104,0.14511 -1.90252,0.59675 -2.74091,0.99982 -1.20923,0.58043 -1.75742,0.96726 -2.57969,1.80566 -0.6288,0.62879 -1.24153,1.46713 -1.51562,2.03143 -0.25796,0.53206 -0.56418,1.35453 -0.67705,1.80596 -0.12898,0.46758 -0.22578,1.30598 -0.22578,1.85416 0,0.56429 0.1128,1.45087 0.2579,1.98293 0.14512,0.53206 0.43559,1.32209 0.6613,1.77354 0.22573,0.43532 0.85439,1.24146 1.40258,1.77352 0.54818,0.53206 1.46707,1.22536 2.0475,1.53169 0.5643,0.32246 1.67685,0.83859 2.483,1.16105 0.80616,0.32245 2.78928,0.93494 4.43383,1.33802 1.69292,0.43532 3.46644,0.98349 4.11136,1.28984 0.88676,0.4192 1.22548,0.69348 1.58018,1.24166 0.32247,0.51594 0.43519,0.88657 0.43519,1.49925 0,0.59655 -0.11284,0.96757 -0.40306,1.40289 -0.22573,0.33858 -0.67704,0.78996 -0.99951,0.98344 -0.33857,0.2096 -0.95125,0.46756 -1.37045,0.5643 -0.43532,0.11286 -1.11248,0.19335 -1.53168,0.19335 -0.43533,0 -1.032,-0.0805 -1.33834,-0.17728 -0.30634,-0.0967 -0.74166,-0.25785 -0.96738,-0.35458 -0.22572,-0.0968 -0.6448,-0.33866 -0.91888,-0.54826 -0.29022,-0.2096 -0.75791,-0.69341 -1.01588,-1.09648 -0.25797,-0.40307 -0.61255,-1.24141 -0.75766,-1.8702 l -0.29033,-1.14467 c -2.49907,0.14509 -4.49833,0.27389 -6.04614,0.37063 -1.5478,0.0967 -2.85376,0.20962 -2.90214,0.24185 -0.0484,0.0483 0.0162,0.59674 0.14517,1.24166 0.12899,0.64492 0.37096,1.5638 0.53219,2.0475 0.16123,0.48368 0.54799,1.32208 0.85432,1.85414 0.29022,0.53207 0.96758,1.43501 1.48352,1.99931 0.51593,0.56431 1.33802,1.25754 1.8217,1.54775 0.4837,0.27409 1.43496,0.69348 2.09599,0.91921 0.66104,0.22571 1.75741,0.51568 2.41845,0.62854 0.80615,0.1451 2.43459,0.22578 4.91753,0.22578 3.3697,-0.0161 3.83727,-0.0484 5.07874,-0.38701 0.75779,-0.2096 2.01538,-0.6771 2.82153,-1.06405 1.01575,-0.49982 1.74128,-0.96727 2.41845,-1.64443 0.53206,-0.51594 1.16105,-1.19322 1.40289,-1.49957 0.24183,-0.30633 0.6931,-1.16066 1.01556,-1.90232 0.33859,-0.79002 0.64511,-1.85415 0.75797,-2.6603 0.16124,-1.11249 0.16117,-1.53188 -0.0646,-2.69273 -0.12898,-0.75778 -0.43525,-1.77353 -0.66097,-2.25721 -0.2096,-0.4837 -0.6773,-1.22523 -1.01588,-1.64443 -0.3547,-0.40308 -0.98356,-1.03181 -1.43501,-1.38651 -0.43531,-0.35471 -1.30596,-0.88684 -1.93476,-1.19317 -0.62879,-0.30634 -1.35434,-0.64486 -1.6123,-0.74159 -0.25797,-0.0968 -1.32209,-0.41946 -2.33784,-0.74191 -1.01574,-0.30635 -3.01501,-0.82215 -4.43382,-1.16074 -1.41883,-0.32246 -2.85384,-0.7579 -3.20855,-0.93526 -0.33857,-0.19347 -0.70928,-0.53181 -0.83827,-0.78977 -0.12899,-0.24185 -0.22578,-0.66123 -0.22578,-0.9192 0,-0.2741 0.12911,-0.70936 0.29033,-0.98344 0.14512,-0.2741 0.53194,-0.64479 0.83828,-0.83827 0.48368,-0.30632 0.78996,-0.3549 2.27328,-0.3549 1.6123,0 1.74129,0.0322 2.49906,0.48368 0.49982,0.32247 0.96745,0.79003 1.27379,1.28985 0.27409,0.45144 0.5483,1.11268 0.6128,1.48351 0.11286,0.64491 0.14517,0.69309 0.54824,0.61248 0.25797,-0.0484 1.82171,-0.1451 3.51463,-0.24184 1.69291,-0.0806 3.38583,-0.16123 3.7889,-0.16123 0.40308,0 0.8384,-0.0806 0.96738,-0.16123 0.20959,-0.12899 0.20979,-0.27397 0.0325,-1.16073 -0.11286,-0.56431 -0.35477,-1.41895 -0.54825,-1.90264 -0.19347,-0.48369 -0.61285,-1.27378 -0.9192,-1.75748 -0.32245,-0.48368 -0.93508,-1.20897 -1.38651,-1.59592 -0.43533,-0.40307 -1.38658,-0.99975 -2.096,-1.33833 -0.70941,-0.32247 -1.98312,-0.74179 -2.82152,-0.93527 -0.88676,-0.17736 -2.41846,-0.35469 -3.62768,-0.40307 -0.57236,-0.0161 -1.26975,-0.0202 -1.92878,-0.0101 z m -41.845185,0.3971 v 15.39747 15.39747 h 25.796805 v -6.93289 H 91.40733 v -5.96552 l 14.59131,-0.0806 0.0806,-6.20736 H 91.40733 v -4.8369 l 15.71992,-0.0806 v -6.61043 z" />
  </g>
</svg>
