<?xml version="1.0" encoding="UTF-8" standalone="no"?>
<!-- Created with Inkscape (http://www.inkscape.org/) -->

<svg
   width="220mm"
   height="200mm"
   viewBox="0 0 220 200"
   version="1.1"
   id="svg1"
   inkscape:version="1.3 (0e150ed6c4, 2023-07-21)"
   sodipodi:docname="template - Copy (3).svg"
   xmlns:inkscape="http://www.inkscape.org/namespaces/inkscape"
   xmlns:sodipodi="http://sodipodi.sourceforge.net/DTD/sodipodi-0.dtd"
   xmlns="http://www.w3.org/2000/svg"
   xmlns:svg="http://www.w3.org/2000/svg">
  <sodipodi:namedview
     id="namedview1"
     pagecolor="#ffffff"
     bordercolor="#666666"
     borderopacity="1.0"
     inkscape:showpageshadow="2"
     inkscape:pageopacity="0.0"
     inkscape:pagecheckerboard="true"
     inkscape:deskcolor="#d1d1d1"
     inkscape:document-units="mm"
     inkscape:zoom="0.54208404"
     inkscape:cx="413.22006"
     inkscape:cy="485.16463"
     inkscape:window-width="1649"
     inkscape:window-height="1157"
     inkscape:window-x="727"
     inkscape:window-y="128"
     inkscape:window-maximized="0"
     inkscape:current-layer="layer1" />
  <defs
     id="defs1" />
  <g
     inkscape:label="Layer 1"
     inkscape:groupmode="layer"
     id="layer1">
    <text
       xml:space="preserve"
       style="font-style:normal;font-weight:normal;font-size:23.4735px;font-family:sans-serif;fill:#ffffff;fill-opacity:1;stroke:none;stroke-width:0.264582"
       x="13.520986"
       y="31.332655"
       id="text1"><tspan
         sodipodi:role="line"
         style="font-style:normal;font-variant:normal;font-weight:normal;font-stretch:normal;font-size:23.4735px;font-family:'Fira Code';-inkscape-font-specification:'Fira Code, @wght=500';font-variant-ligatures:normal;font-variant-caps:normal;font-variant-numeric:normal;font-variant-east-asian:normal;font-variation-settings:'wght' 500;fill:#ffffff;stroke-width:0.264582"
         x="13.520986"
         y="31.332655"
         id="tspan2">Solitaire</tspan></text>
    <path
       id="Path 1"
       class="s1"
       d="m 89.894937,46.755111 c -0.732302,0.01332 -1.903991,0.0932 -2.596349,0.199719 -0.692359,0.106517 -1.810787,0.332917 -2.463203,0.519321 -0.652416,0.17309 -1.744214,0.532585 -2.396629,0.798876 -0.652416,0.266293 -1.531181,0.665628 -1.93062,0.891976 -0.399438,0.226348 -1.264886,0.785718 -1.930618,1.2251 -0.652415,0.452696 -1.850783,1.437927 -2.649659,2.210173 -0.785561,0.772246 -1.837416,1.90399 -2.330057,2.529776 -0.479326,0.625786 -1.224943,1.704271 -1.664325,2.39663 -0.439383,0.692358 -1.118272,1.890676 -1.504396,2.662922 -0.386124,0.772246 -0.652416,1.451396 -0.599157,1.504655 0.05326,0.05326 0.599053,0.159671 1.22484,0.226244 0.625787,0.06657 1.517865,0.239715 1.997191,0.386175 0.479327,0.146462 1.251626,0.492486 1.717637,0.772093 0.466012,0.279606 1.238259,0.8655 1.7309,1.318198 0.479325,0.452696 1.145055,1.171685 1.464606,1.597753 0.332865,0.426067 0.625788,0.825454 0.665731,0.878713 0.05326,0.05326 0.492588,-0.06652 1.011859,-0.279555 0.519269,-0.19972 1.344774,-0.479326 1.864045,-0.599158 0.519269,-0.133147 1.437978,-0.226245 2.063764,-0.226245 0.705673,0 1.384719,0.07984 1.797473,0.212982 0.372809,0.133147 0.905393,0.359598 1.198315,0.506059 0.292921,0.146461 0.825557,0.545847 1.185052,0.878712 0.359495,0.332866 0.905342,0.971915 1.211577,1.411297 0.319551,0.439383 0.772247,1.21163 0.998596,1.7309 0.226348,0.519269 0.612472,1.531181 0.86545,2.263483 0.239662,0.732302 0.559265,1.917409 0.719041,2.636397 0.159775,0.705674 0.372757,1.90399 0.479273,2.662922 0.119832,0.745618 0.292922,2.343269 0.399439,3.554897 0.106517,1.211628 0.239559,3.488429 0.292817,5.059551 l 0.08009,2.862641 C 92.304984,89.215453 91.652463,88.829329 91.026677,88.48315 90.40089,88.123656 89.295776,87.551127 88.563474,87.218262 87.831172,86.872082 86.659483,86.366127 85.967125,86.08652 85.274766,85.806913 84.103079,85.380949 83.370777,85.127972 82.638473,84.88831 81.227123,84.475452 80.241843,84.222475 79.256563,83.982811 77.845212,83.649894 77.11291,83.503434 76.380608,83.356973 74.849425,83.11731 73.717684,82.970849 c -1.13174,-0.146461 -2.995788,-0.306132 -4.127529,-0.35939 -1.211628,-0.05326 -2.96916,-0.02663 -4.260675,0.06657 -1.211628,0.0932 -2.889272,0.279504 -3.728091,0.425964 -0.838819,0.146461 -1.983877,0.386123 -2.529776,0.532585 -0.545899,0.146461 -1.651013,0.492588 -2.463203,0.745566 -0.812189,0.266293 -2.276799,0.892079 -3.262079,1.398034 -0.98528,0.492641 -2.370002,1.304832 -3.062361,1.797472 -0.692358,0.505954 -1.890675,1.531285 -2.662921,2.303531 -0.772247,0.772245 -1.797577,1.970565 -2.303532,2.662926 -0.492641,0.692363 -1.27815,2.050447 -1.744161,2.995784 -0.466012,0.945335 -1.011859,2.183598 -1.211579,2.729498 -0.186404,0.5459 -0.49264,1.571127 -0.66573,2.263481 -0.17309,0.69236 -0.412753,1.83742 -0.532584,2.52977 -0.106517,0.69237 -0.19972,1.65101 -0.19972,2.13034 0.01332,0.47933 0.09325,1.31815 0.186457,1.86405 0.0932,0.5459 0.359547,1.57113 0.585895,2.26349 0.239663,0.69235 0.692256,1.79746 1.025121,2.46319 0.34618,0.66574 1.051855,1.86406 1.597753,2.66293 0.532584,0.79888 1.478027,2.0904 2.103813,2.86264 0.625786,0.77225 1.318042,1.58444 1.557705,1.79747 l 0.425963,0.39944 c 0.332866,-0.51927 0.82561,-1.07859 1.304936,-1.57123 0.479326,-0.50595 1.251573,-1.14496 1.730899,-1.42455 0.479326,-0.27962 1.264836,-0.65232 1.744162,-0.82541 l 0.892235,-0.30634 c 0.106517,-2.47652 0.239558,-3.58163 0.359391,-4.06096 0.133146,-0.47932 0.452697,-1.34477 0.732303,-1.93061 0.279607,-0.58585 0.74567,-1.38462 1.051906,-1.75743 0.306236,-0.38612 0.945181,-0.98527 1.437822,-1.33146 0.505955,-0.34618 1.291622,-0.77246 1.770947,-0.94554 0.479326,-0.17309 1.318146,-0.34597 1.864045,-0.38591 0.585844,-0.0532 1.358091,-0.0134 1.864046,0.0799 0.479326,0.0932 1.198315,0.2795 1.597753,0.42597 0.399438,0.14645 1.065169,0.45264 1.464608,0.67899 0.399438,0.22634 1.065168,0.66583 1.464606,0.97206 0.399439,0.31956 1.065117,0.91866 1.47787,1.34473 0.399439,0.43938 1.02533,1.17174 1.371509,1.65107 0.359494,0.47933 0.865398,1.25157 1.145005,1.73089 0.279607,0.47933 0.785613,1.47803 1.118479,2.23696 l 0.612419,1.35798 c -0.319549,2.22354 -0.452592,4.20743 -0.492536,5.85844 -0.03995,1.81078 -0.01336,3.88786 0.07984,5.25926 0.0932,1.25158 0.279502,3.19551 0.425964,4.32725 0.146461,1.13174 0.439382,2.96917 0.66573,4.06096 0.213034,1.10512 0.545899,2.56972 0.732303,3.26208 0.186406,0.69236 0.612421,2.17029 0.945287,3.26208 0.332865,1.10511 0.77235,2.44989 0.972069,2.99579 0.19972,0.5459 0.665835,1.74421 1.038645,2.66292 0.359493,0.91871 1.091693,2.59635 1.624277,3.7281 0.532585,1.13173 1.357986,2.78275 1.823998,3.66151 0.479325,0.87876 1.424768,2.43658 2.103813,3.4618 0.679043,1.02522 1.784105,2.5564 2.476465,3.39522 0.679043,0.83882 1.877413,2.15697 2.649659,2.92921 0.785561,0.77225 2.010455,1.85068 2.742758,2.4099 0.718988,0.5459 1.677689,1.22489 2.117077,1.47787 0.439378,0.26629 1.424666,0.78572 2.19691,1.15853 0.772244,0.35949 1.877354,0.81214 2.463205,1.01185 0.585841,0.1864 1.690948,0.46596 2.463205,0.61242 0.77224,0.14646 2.1836,0.30618 3.12894,0.34612 0.98527,0.04 2.34337,0.0134 3.12892,-0.0798 0.77225,-0.0799 1.97057,-0.26625 2.66293,-0.4127 0.69235,-0.14646 1.74421,-0.41276 2.33005,-0.59916 0.58584,-0.1864 1.7309,-0.65231 2.52978,-1.02512 0.79887,-0.37281 1.8241,-0.87898 2.26348,-1.14526 0.43939,-0.2663 1.30483,-0.83878 1.93063,-1.27815 0.62578,-0.43939 1.75753,-1.35799 2.52977,-2.02373 0.77225,-0.67904 1.8241,-1.70421 2.33005,-2.27673 0.51927,-0.57253 1.23821,-1.39814 1.61102,-1.83753 0.37282,-0.43938 1.13169,-1.42466 1.67759,-2.19691 0.5459,-0.77225 1.42488,-2.10361 1.94414,-2.95574 0.53258,-0.86545 1.49119,-2.63629 2.1436,-3.92781 0.65242,-1.30483 1.63775,-3.50185 2.18365,-4.89988 0.5459,-1.39803 1.27815,-3.42186 1.61101,-4.52697 0.33287,-1.09179 0.81219,-2.83601 1.06518,-3.86124 0.25297,-1.02522 0.67904,-2.96915 0.93202,-4.32725 0.25297,-1.35808 0.5459,-3.12892 0.66573,-3.9278 0.10652,-0.79887 0.26629,-2.03714 0.33286,-2.7295 0.0799,-0.69235 0.17299,-2.22354 0.22624,-3.39522 0.0532,-1.2782 0.0267,-2.92921 -0.0666,-4.12754 -0.0932,-1.09179 -0.30618,-2.75601 -0.47926,-3.68804 l -0.33287,-1.70437 c 1.51786,-2.17027 2.56977,-3.38192 3.51511,-4.32724 1.05185,-1.05186 2.05039,-1.9041 2.8759,-2.43668 0.7323,-0.47933 1.85084,-1.06508 2.63639,-1.35799 0.74562,-0.29292 1.87716,-0.62578 2.51626,-0.7323 0.65242,-0.10652 1.65112,-0.19972 2.23696,-0.19972 0.58584,0 1.45129,0.0666 1.93062,0.13314 0.47932,0.0666 1.39803,0.27961 2.06376,0.46601 0.66574,0.19973 1.77085,0.62574 2.4632,0.94529 0.69236,0.33286 1.83742,0.97207 2.52978,1.43808 0.69236,0.4527 1.69095,1.17169 2.1969,1.59776 0.50596,0.43938 1.41136,1.25141 1.9972,1.83725 l 1.06517,1.05192 c 1.43798,-0.83883 2.31674,-1.23816 2.86264,-1.42457 0.8122,-0.29292 1.33156,-0.37292 2.76955,-0.43949 l 1.77068,-0.0799 c -0.10652,-0.71899 -0.17304,-1.41136 -0.21298,-1.9972 -0.0532,-0.58584 -0.17304,-1.66433 -0.27955,-2.39662 -0.10652,-0.7323 -0.31956,-1.95726 -0.46601,-2.7295 -0.15978,-0.77224 -0.54595,-2.29011 -0.85219,-3.39523 -0.31955,-1.09179 -0.83882,-2.596348 -1.13175,-3.328651 -0.30623,-0.732304 -0.85212,-1.903983 -1.19831,-2.596345 -0.34618,-0.692363 -1.11854,-1.983876 -1.70438,-2.862644 -0.58584,-0.87876 -1.5709,-2.15702 -2.18338,-2.849377 -0.59916,-0.692361 -1.6378,-1.744268 -2.30353,-2.316795 -0.66574,-0.585843 -1.86405,-1.491132 -2.66292,-2.023716 -0.79889,-0.532585 -1.97057,-1.224944 -2.59636,-1.531181 -0.62578,-0.31955 -1.79746,-0.825454 -2.59635,-1.145004 -0.79887,-0.319551 -2.21023,-0.759036 -3.12892,-0.97207 -0.91871,-0.226349 -2.29012,-0.505852 -3.06237,-0.625684 -0.77224,-0.106516 -2.66293,-0.23961 -4.19409,-0.279554 -1.75754,-0.05326 -3.36861,-0.01336 -4.32725,0.07984 -0.83883,0.0932 -2.31675,0.279503 -3.26208,0.425964 -0.94534,0.14646 -2.5431,0.479377 -3.52838,0.719041 -0.98527,0.252977 -2.7295,0.758932 -3.86124,1.131741 -1.13174,0.372809 -2.84932,0.998647 -3.79466,1.384771 -0.94533,0.399438 -1.7708,0.678942 -1.81074,0.625683 -0.0532,-0.03994 -0.18651,-0.772196 -0.30634,-1.611016 -0.11982,-0.838819 -0.3727,-2.343372 -0.5591,-3.328652 -0.1864,-0.98528 -0.59922,-2.689553 -0.91876,-3.794664 -0.31956,-1.091797 -0.83893,-2.716181 -1.1718,-3.594944 -0.31954,-0.878763 -0.99844,-2.489834 -1.50439,-3.594946 -0.50596,-1.091795 -1.4115,-2.836012 -2.02397,-3.861236 -0.61247,-1.025223 -1.57113,-2.489833 -2.13034,-3.262079 -0.55921,-0.772247 -1.49113,-1.970564 -2.09029,-2.662922 -0.59916,-0.692359 -1.62433,-1.797526 -2.27675,-2.449941 -0.65241,-0.652416 -1.75759,-1.650855 -2.44994,-2.236698 -0.69236,-0.585841 -1.95726,-1.518022 -2.79607,-2.090549 -0.83882,-0.559215 -2.34337,-1.437927 -3.32865,-1.943882 -0.98528,-0.492641 -2.423264,-1.13169 -3.195508,-1.411297 -0.772254,-0.266291 -1.997196,-0.639257 -2.7295,-0.825661 -0.732303,-0.186405 -2.023816,-0.43933 -2.862642,-0.545847 -0.838818,-0.119831 -2.130337,-0.213034 -2.86264,-0.199719 z M 69.856449,64.676524 c -0.545899,-0.03994 -1.331461,-0.02653 -1.730899,0.04005 -0.399439,0.05326 -1.091798,0.252874 -1.53118,0.425964 -0.439382,0.17309 -1.158423,0.559265 -1.584491,0.852188 -0.439382,0.279607 -1.091642,0.852186 -1.437823,1.251624 -0.359493,0.399438 -0.892181,1.21163 -1.171789,1.797473 -0.292921,0.612472 -0.58579,1.464608 -0.678993,1.997191 -0.0932,0.519271 -0.119779,1.371405 -0.07984,1.930618 0.03994,0.5459 0.199668,1.38472 0.346129,1.864046 0.14646,0.479326 0.492691,1.224944 0.785613,1.664326 0.279607,0.439382 0.838664,1.118531 1.238103,1.504655 0.412753,0.399439 1.171738,0.931815 1.78421,1.251366 0.585843,0.292921 1.451292,0.625838 1.930618,0.719041 0.479326,0.106517 1.224944,0.186456 1.664326,0.186456 0.439382,0 1.278203,-0.119831 1.864046,-0.266292 0.625787,-0.159775 1.451293,-0.505851 1.997192,-0.825402 0.519269,-0.306236 1.264887,-0.892182 1.664326,-1.304936 0.426067,-0.439382 0.945233,-1.171633 1.22484,-1.744162 0.279606,-0.545898 0.599261,-1.344827 0.705778,-1.78421 0.106517,-0.439382 0.199719,-1.278202 0.199719,-1.864045 0,-0.585842 -0.09315,-1.424663 -0.212982,-1.864044 -0.119828,-0.439384 -0.399538,-1.185001 -0.639202,-1.664328 -0.266292,-0.559213 -0.732251,-1.198263 -1.344723,-1.810734 -0.51927,-0.51927 -1.224945,-1.118427 -1.597753,-1.331461 -0.359495,-0.19972 -1.051854,-0.505955 -1.53118,-0.665731 -0.479326,-0.159775 -1.318147,-0.333021 -1.864046,-0.359649 z M 170.84778,113.19502 c -0.73231,0.0133 -1.71759,0.0666 -2.19692,0.13314 -0.47932,0.0666 -1.15836,0.21303 -1.53118,0.33286 -0.3595,0.11984 -0.93202,0.35955 -1.26488,0.51933 -0.33287,0.17309 -0.79893,0.5059 -1.05192,0.74556 -0.23966,0.25298 -0.5992,0.78561 -0.78561,1.18505 -0.27961,0.59916 -0.35949,0.98529 -0.39944,2.06377 -0.04,1.02523 0.0135,1.59775 0.22651,2.52978 0.15978,0.66573 0.47938,1.65101 0.71905,2.19691 0.23966,0.5459 0.77208,1.50454 1.17152,2.13033 0.41275,0.62579 1.13174,1.47783 1.59775,1.89057 0.46601,0.42607 1.23837,0.95866 1.70438,1.19832 0.7323,0.37281 1.03854,0.45285 1.99719,0.4928 0.62578,0.0267 1.5045,-0.04 1.94388,-0.11988 0.43938,-0.0932 1.2782,-0.41287 1.86405,-0.70578 0.7323,-0.37281 1.33145,-0.81214 1.93062,-1.4113 0.57253,-0.58584 1.03864,-1.21158 1.37151,-1.87731 0.26629,-0.5459 0.58573,-1.41135 0.69225,-1.93062 0.10651,-0.50596 0.19972,-1.26488 0.19972,-1.66432 0,-0.39944 -0.10657,-1.185 -0.25303,-1.7309 -0.13314,-0.5459 -0.43939,-1.37131 -0.66573,-1.824 -0.22635,-0.46601 -0.79893,-1.23826 -1.25163,-1.7309 -0.59916,-0.6391 -1.15821,-1.06517 -1.90382,-1.46461 -0.57254,-0.30623 -1.43804,-0.65257 -1.91736,-0.75909 -0.51927,-0.11983 -1.39804,-0.19971 -2.19691,-0.19971 z m -114.439087,4.52696 c -0.625787,0 -1.424663,0.08 -1.797472,0.1732 -0.359495,0.0932 -1.051855,0.34607 -1.531181,0.5591 -0.572528,0.2663 -1.211629,0.71894 -1.864045,1.34473 -0.599157,0.55921 -1.171581,1.25163 -1.424559,1.71764 -0.239663,0.42607 -0.546002,1.1451 -0.705778,1.58449 -0.146461,0.43938 -0.306184,1.25157 -0.346128,1.79747 -0.05326,0.66572 -0.0089,1.33146 0.133146,1.99719 0.119831,0.5459 0.425964,1.45129 0.692255,1.99719 0.346181,0.70568 0.772353,1.2781 1.438082,1.95714 0.69236,0.69237 1.211578,1.07864 1.943882,1.42483 0.545899,0.26628 1.411347,0.57247 1.930618,0.67899 0.519269,0.10652 1.238258,0.19971 1.597753,0.19971 0.37281,0 1.078483,-0.0932 1.597753,-0.19971 0.51927,-0.10652 1.38472,-0.41265 1.930619,-0.69226 0.705673,-0.34617 1.264888,-0.75909 1.930618,-1.42482 0.665729,-0.67905 1.07838,-1.22489 1.424559,-1.94388 0.252978,-0.5459 0.546056,-1.29152 0.625943,-1.66433 0.0932,-0.35949 0.159671,-1.17169 0.159671,-1.79747 0,-0.62578 -0.09315,-1.51787 -0.212982,-1.99718 -0.119831,-0.47933 -0.412856,-1.22496 -0.639205,-1.66434 -0.239662,-0.45269 -0.865345,-1.2382 -1.424559,-1.81072 -0.705673,-0.719 -1.251573,-1.1317 -1.864045,-1.41131 -0.479327,-0.22634 -1.224944,-0.50611 -1.664326,-0.62594 -0.452698,-0.11983 -1.291518,-0.19972 -1.930619,-0.19972 z m 65.175027,6.65731 c 0.51926,0 1.50455,0.0799 2.1969,0.18646 0.69236,0.10651 1.59776,0.29286 1.9972,0.41269 0.39944,0.11983 1.21163,0.45286 1.79747,0.75909 0.6391,0.33287 1.34488,0.8253 1.77095,1.25136 0.62578,0.63911 0.69226,0.75894 0.69226,1.2649 -0.0133,0.46601 -0.0933,0.6392 -0.43949,0.97207 -0.23966,0.21303 -0.8254,0.58574 -1.29142,0.8254 -0.47932,0.22634 -1.65101,0.65262 -2.59634,0.94554 -0.94534,0.29292 -2.42327,0.679 -3.26208,0.87872 -0.83882,0.18639 -2.39664,0.46596 -3.46181,0.61242 -1.06515,0.15977 -2.71617,0.29281 -3.66151,0.29281 -1.2782,0.0133 -1.904,-0.04 -2.39664,-0.19971 -0.41274,-0.13315 -0.81223,-0.37261 -1.0519,-0.65221 -0.31955,-0.38613 -0.35944,-0.50606 -0.27955,-0.97208 0.04,-0.29291 0.23976,-0.82556 0.43948,-1.18505 0.19973,-0.34618 0.89197,-1.19831 1.55771,-1.86404 0.77225,-0.79888 1.58444,-1.46451 2.26348,-1.89058 0.58585,-0.35948 1.5445,-0.81213 2.13035,-1.01185 0.58584,-0.19971 1.42465,-0.42623 1.86404,-0.4928 0.43938,-0.0665 1.21162,-0.11983 1.7309,-0.13314 z m -33.680513,0.16045 c 0.295002,-10e-4 0.623654,0.002 0.993134,0.0127 1.690955,0.04 2.236856,0.0931 2.995787,0.34613 0.51927,0.15977 1.238259,0.45279 1.597756,0.6392 0.359496,0.17309 1.025228,0.57247 1.464606,0.87871 0.439378,0.29293 1.185055,0.90534 1.651063,1.34473 0.466008,0.43938 1.078384,1.15836 1.357989,1.59775 0.292915,0.43938 0.55921,0.98529 0.599151,1.19831 0.05322,0.23967 0,0.57243 -0.133143,0.82541 -0.119832,0.25298 -0.425909,0.54605 -0.705514,0.69251 -0.279615,0.14647 -0.918812,0.33276 -1.438082,0.42596 -0.625791,0.10653 -1.557818,0.13309 -2.79607,0.0799 -1.025226,-0.0532 -2.583038,-0.17299 -3.4618,-0.29282 -0.878764,-0.11984 -2.463205,-0.39939 -3.528373,-0.61242 -1.065167,-0.22636 -2.503147,-0.58579 -3.195506,-0.81214 -0.692358,-0.21304 -1.61112,-0.586 -2.050502,-0.82567 -0.426068,-0.22634 -0.891975,-0.57257 -1.025121,-0.7856 -0.14646,-0.19973 -0.253029,-0.51927 -0.253029,-0.73231 0,-0.19972 0.146461,-0.57242 0.332865,-0.8254 0.17309,-0.25298 0.612368,-0.67894 0.958548,-0.95855 0.34618,-0.26629 1.051958,-0.69256 1.571228,-0.94555 0.519269,-0.25297 1.238258,-0.55915 1.597753,-0.67899 0.372809,-0.11983 1.051854,-0.30618 1.53118,-0.4127 0.46934,-0.0999 1.051075,-0.15478 1.93608,-0.15915 z m 29.512933,22.9937 c 0.0532,0 0.0667,0.23967 0.0401,0.53259 -0.04,0.29292 -0.19967,0.90529 -0.34612,1.35798 -0.15979,0.46602 -0.50607,1.31825 -0.77236,1.9041 -0.27961,0.58584 -0.75887,1.45129 -1.07843,1.93062 -0.31955,0.47933 -1.06517,1.37145 -1.66433,1.98393 -0.58584,0.61247 -1.5445,1.42456 -2.13034,1.82399 -0.58584,0.38613 -1.42465,0.85224 -1.86404,1.03865 -0.43938,0.17308 -1.26478,0.41275 -1.824,0.53259 -0.57253,0.11982 -1.49134,0.21298 -2.03724,0.21298 -0.54589,0 -1.4645,-0.0932 -2.02372,-0.21298 -0.57252,-0.11984 -1.51797,-0.41281 -2.10381,-0.65248 -0.58585,-0.23966 -1.45129,-0.66568 -1.930623,-0.94528 -0.479327,-0.27961 -1.318142,-0.85214 -1.864042,-1.26489 -0.5459,-0.41275 -1.358095,-1.13175 -1.797473,-1.59775 -0.439388,-0.47933 -1.011813,-1.18506 -1.291418,-1.5845 -0.266284,-0.39943 -0.679148,-1.21163 -0.905491,-1.79747 -0.239665,-0.58584 -0.545848,-1.51787 -0.679,-2.06377 -0.133143,-0.5459 -0.226397,-1.01201 -0.186457,-1.03863 0.03999,-0.0133 0.679159,0.30638 1.438082,0.69251 0.745624,0.39944 2.050352,1.01186 2.889167,1.34472 0.838826,0.34618 2.063768,0.75894 2.729495,0.93203 0.66574,0.17308 1.87747,0.39949 2.70298,0.51932 0.81218,0.11982 2.05045,0.21298 2.7295,0.21298 0.66572,0 1.824,-0.0932 2.5563,-0.19972 0.7323,-0.10651 1.81078,-0.31949 2.39662,-0.47927 0.58585,-0.14646 1.47793,-0.41275 1.9972,-0.59916 0.51927,-0.1864 1.55781,-0.66568 2.33005,-1.07843 0.77224,-0.41275 1.66433,-0.91876 1.9972,-1.11848 0.33286,-0.21304 0.63899,-0.38618 0.69225,-0.38618 z"
       style="fill:#ffffff;stroke-width:0.264583" />
  </g>
</svg>
