<?xml version="1.0" encoding="UTF-8" standalone="no"?>
<!-- Created with Inkscape (http://www.inkscape.org/) -->

<svg
   width="220mm"
   height="200mm"
   viewBox="0 0 220 200"
   version="1.1"
   id="svg1"
   inkscape:version="1.3 (0e150ed6c4, 2023-07-21)"
   sodipodi:docname="template - Copy (2).svg"
   xmlns:inkscape="http://www.inkscape.org/namespaces/inkscape"
   xmlns:sodipodi="http://sodipodi.sourceforge.net/DTD/sodipodi-0.dtd"
   xmlns="http://www.w3.org/2000/svg"
   xmlns:svg="http://www.w3.org/2000/svg">
  <sodipodi:namedview
     id="namedview1"
     pagecolor="#ffffff"
     bordercolor="#666666"
     borderopacity="1.0"
     inkscape:showpageshadow="2"
     inkscape:pageopacity="0.0"
     inkscape:pagecheckerboard="true"
     inkscape:deskcolor="#d1d1d1"
     inkscape:document-units="mm"
     inkscape:zoom="0.54208404"
     inkscape:cx="412.29769"
     inkscape:cy="485.16463"
     inkscape:window-width="1649"
     inkscape:window-height="1157"
     inkscape:window-x="727"
     inkscape:window-y="128"
     inkscape:window-maximized="0"
     inkscape:current-layer="layer1" />
  <defs
     id="defs1" />
  <g
     inkscape:label="Layer 1"
     inkscape:groupmode="layer"
     id="layer1">
    <text
       xml:space="preserve"
       style="font-style:normal;font-weight:normal;font-size:23.4735px;font-family:sans-serif;fill:#ffffff;fill-opacity:1;stroke:none;stroke-width:0.264582"
       x="13.520986"
       y="31.332655"
       id="text1"><tspan
         sodipodi:role="line"
         style="font-style:normal;font-variant:normal;font-weight:normal;font-stretch:normal;font-size:23.4735px;font-family:'Fira Code';-inkscape-font-specification:'Fira Code, @wght=500';font-variant-ligatures:normal;font-variant-caps:normal;font-variant-numeric:normal;font-variant-east-asian:normal;font-variation-settings:'wght' 500;fill:#ffffff;stroke-width:0.264582"
         x="13.520986"
         y="31.332655"
         id="tspan2">Morse Practice</tspan></text>
    <path
       id="Path 1"
       class="s1"
       d="m 106.9743,65.048421 0.0335,7.14334 H 81.746769 L 81.713309,68.7121 c -0.01673,-1.923849 0.03346,-3.529846 0.100375,-3.580033 0.06692,-0.05018 5.754822,-0.100375 25.160616,-0.08365 z m 8.68242,0 25.22752,0.03346 0.0837,7.109881 h -25.261 l -0.0335,-3.563305 z m -33.976869,55.557429 0.08365,7.10988 H 56.502509 l -0.03346,-3.47966 c -0.01673,-1.92385 0.03346,-3.52984 0.117104,-3.59676 0.06692,-0.0669 5.754821,-0.10038 25.093696,-0.0335 z m 57.129989,-0.0836 v 7.19352 h -25.261 l -0.0335,-3.47966 c -0.0168,-1.92385 0.0335,-3.52984 0.11711,-3.59676 0.0669,-0.0669 5.77156,-0.1171 25.17735,-0.1171 z m -41.404604,16.94661 c 1.656176,0.0334 1.940576,0.10037 2.927594,0.56879 0.58552,0.28439 1.42197,0.80299 1.84021,1.17103 0.4015,0.36805 1.02048,1.07067 1.35506,1.57254 0.33458,0.50188 0.76954,1.37179 0.97029,1.95731 0.23421,0.70262 0.35131,1.47217 0.35131,2.34209 0,0.80299 -0.1171,1.68964 -0.31785,2.37553 -0.20075,0.63571 -0.63571,1.52235 -1.07067,2.09114 -0.40149,0.55206 -1.05393,1.28814 -1.47217,1.62272 -0.4015,0.33459 -1.18777,0.83646 -1.73983,1.0874 -0.936828,0.43495 -1.154308,0.46841 -3.094882,0.46841 -2.024225,0 -2.141328,-0.0168 -3.26218,-0.55206 -0.76954,-0.36804 -1.505622,-0.90337 -2.10787,-1.50562 -0.518604,-0.5186 -1.137582,-1.33833 -1.388518,-1.82348 -0.234209,-0.48514 -0.552062,-1.35505 -0.685895,-1.92384 -0.133833,-0.58552 -0.250937,-1.42197 -0.250937,-1.89039 0,-0.45169 0.100374,-1.27143 0.250937,-1.79003 0.133833,-0.53533 0.451686,-1.35505 0.685895,-1.8402 0.250936,-0.48515 0.802997,-1.25469 1.221226,-1.68964 0.418229,-0.45169 1.070664,-1.00375 1.438706,-1.2045 0.36804,-0.21748 1.070663,-0.55206 1.589267,-0.75281 0.75281,-0.28439 1.237956,-0.33458 2.760307,-0.28439 z m 56.828854,-0.0335 c 1.27142,-0.0168 1.84021,0.0669 2.59302,0.35131 0.53533,0.20075 1.27141,0.55206 1.63945,0.803 0.36806,0.25094 1.02049,0.86991 1.47218,1.35506 0.45168,0.50187 1.0372,1.35505 1.28814,1.90712 0.26766,0.55206 0.56879,1.50562 0.65243,2.09114 0.10038,0.6859 0.10038,1.52236 0,2.25843 -0.10037,0.65244 -0.36804,1.62273 -0.6357,2.17479 -0.25094,0.55206 -0.90337,1.48889 -1.45544,2.07441 -0.71935,0.76954 -1.33834,1.22123 -2.24171,1.67291 -1.12085,0.53534 -1.40525,0.61898 -2.84395,0.66917 -1.27142,0.0502 -1.8402,0 -2.81049,-0.2844 -0.83646,-0.25093 -1.52235,-0.60225 -2.2417,-1.1543 -0.56879,-0.43496 -1.35506,-1.25469 -1.73983,-1.80675 -0.36804,-0.55206 -0.803,-1.40525 -0.95356,-1.92385 -0.13384,-0.50187 -0.30113,-1.3216 -0.36804,-1.8402 -0.0669,-0.50188 -0.0168,-1.40525 0.0836,-2.0075 0.10038,-0.58553 0.4015,-1.53908 0.66917,-2.09115 0.26766,-0.55206 0.76953,-1.33832 1.12085,-1.73982 0.35131,-0.4015 0.97029,-0.9703 1.38852,-1.23796 0.40149,-0.28439 1.20449,-0.68589 1.75656,-0.88664 0.76953,-0.30113 1.37178,-0.38477 2.62646,-0.38477 z"
       style="fill:#ffffff;stroke-width:0.264583" />
  </g>
</svg>
