<?xml version="1.0" encoding="UTF-8" standalone="no"?>
<!-- Created with Inkscape (http://www.inkscape.org/) -->

<svg
   width="220mm"
   height="200mm"
   viewBox="0 0 220 200"
   version="1.1"
   id="svg1"
   inkscape:version="1.3 (0e150ed6c4, 2023-07-21)"
   sodipodi:docname="groveopoly.svg"
   xmlns:inkscape="http://www.inkscape.org/namespaces/inkscape"
   xmlns:sodipodi="http://sodipodi.sourceforge.net/DTD/sodipodi-0.dtd"
   xmlns="http://www.w3.org/2000/svg"
   xmlns:svg="http://www.w3.org/2000/svg">
  <sodipodi:namedview
     id="namedview1"
     pagecolor="#ffffff"
     bordercolor="#666666"
     borderopacity="1.0"
     inkscape:showpageshadow="2"
     inkscape:pageopacity="0.0"
     inkscape:pagecheckerboard="true"
     inkscape:deskcolor="#d1d1d1"
     inkscape:document-units="mm"
     inkscape:zoom="0.54208404"
     inkscape:cx="413.22006"
     inkscape:cy="485.16463"
     inkscape:window-width="1649"
     inkscape:window-height="1157"
     inkscape:window-x="727"
     inkscape:window-y="128"
     inkscape:window-maximized="0"
     inkscape:current-layer="layer1" />
  <defs
     id="defs1" />
  <g
     inkscape:label="Layer 1"
     inkscape:groupmode="layer"
     id="layer1">
    <g
       id="svgg"
       transform="matrix(0.32441587,0,0,0.33998907,49.155933,46.445377)"
       style="fill:#ffffff;stroke-width:0.796673">
      <path
         id="path1"
         style="fill:#ffffff;stroke-width:0.796673"
         d="M 80.283596,9.7856 C 50.615451,9.801475 30.606525,9.855434 29.982778,9.9634334 c -0.910997,0.1579986 -1.206272,0.4613916 -1.376272,1.4013886 -0.452998,2.512992 0.19443,171.910008 0.667428,174.598998 0.250999,1.43 0.663922,5.02948 0.915922,7.99947 0.251998,2.96998 0.697788,6.38972 0.990788,7.59972 0.292999,1.20998 0.653639,3.27935 0.799639,4.59935 0.244,2.19298 1.346124,7.455 2.848118,13.60197 0.322,1.32 0.840486,3.48155 1.148486,4.80455 0.308999,1.323 0.770426,2.94222 1.027425,3.59922 0.257,0.657 0.790717,2.2762 1.186716,3.59619 0.396998,1.32 1.286986,3.92859 1.979983,5.79859 0.692999,1.87 1.513879,4.16957 1.823879,5.11157 0.309997,0.942 0.824707,2.20326 1.143707,2.80126 0.842997,1.57598 3.05201,6.39791 3.05201,6.66191 0,0.403 5.836933,10.76592 7.33693,13.02592 11.692964,17.61694 27.471608,34.26487 48.924543,51.61881 6.63499,5.368 10.74863,8.58949 12.74963,9.98148 0.791,0.55 2.37136,1.72578 3.51236,2.61278 1.14099,0.886 2.59601,1.96599 3.23201,2.39999 0.636,0.433 1.64659,1.14682 2.24759,1.58682 0.992,0.727 6.79782,4.73587 8.98081,6.19985 2.413,1.618 11.60399,7.59563 14.01599,9.11663 0.88,0.554 2.05478,1.31774 2.61078,1.69474 0.55698,0.376 1.72662,1.07078 2.59962,1.54578 0.87399,0.474 2.30741,1.30985 3.18741,1.85585 0.87999,0.546 2.29421,1.39529 3.14121,1.88929 3.993,2.327 5.11359,2.97501 6.91959,4.00201 1.067,0.607 2.21068,1.27707 2.54068,1.49107 0.33,0.21299 3.1196,1.74615 6.1996,3.40315 3.07999,1.657 6.04941,3.26647 6.59941,3.57947 2.49399,1.417 5.97104,3.02165 6.55004,3.02165 1.23598,0 15.52048,-7.65977 27.25145,-14.61274 1.98,-1.174 4.8603,-2.87202 6.4003,-3.77402 1.54,-0.903 3.87925,-2.34818 5.19925,-3.21316 1.32,-0.864 2.66944,-1.71427 2.99944,-1.88625 1.319,-0.69 15.54602,-10.15181 19.40002,-12.90281 1.54,-1.1 3.96995,-2.82739 5.39995,-3.83938 5.02399,-3.55698 6.11303,-4.36733 12.79901,-9.51333 20.13894,-15.49994 40.75587,-36.28686 51.91284,-52.34383 0.502,-0.72198 1.35041,-1.9431 1.88441,-2.7131 0.535,-0.76998 1.34617,-2.03125 1.80317,-2.80125 0.457,-0.77 1.25887,-2.12037 1.78087,-3.00037 0.523,-0.88 2.15564,-4.02936 3.62864,-6.99934 1.474,-2.97 2.91552,-5.85669 3.20652,-6.41569 0.291,-0.559 0.83087,-1.81873 1.19787,-2.79973 2.469,-6.608 3.1299,-8.45137 3.7959,-10.58337 0.413,-1.31999 1.02434,-3.21113 1.36034,-4.20113 1.13,-3.33097 2.63508,-8.59438 2.63308,-9.21238 -10e-4,-0.337 0.27189,-1.59827 0.60689,-2.80125 0.847,-3.037 2.47641,-11.7219 3.18741,-16.9869 0.326,-2.42 0.85457,-6.19921 1.17557,-8.39921 1.115,-7.63797 1.45127,-16.60747 0.65627,-17.56447 -0.519,-0.625 -0.72934,-0.49401 -5.72331,3.58099 -0.382,0.312 -1.44588,1.0665 -2.36388,1.6765 -0.91798,0.609 -2.06346,1.37689 -2.54546,1.70689 -1.428,0.977 -3.0969,2.06721 -4.69589,3.06421 -0.825,0.51499 -2.18475,1.38489 -3.02175,1.93489 -0.83598,0.55 -1.66421,1.00012 -1.83821,1.00012 -0.174,0 -0.81565,0.35637 -1.42565,0.79037 -2.608,1.857 -16.48838,8.57582 -19.41435,9.39782 -1.1,0.309 -2.71997,0.83535 -3.59997,1.17035 -0.88,0.334 -1.972,0.6157 -2.426,0.6247 -0.453,0.01 -2.16369,0.36485 -3.80068,0.78885 -1.63598,0.424 -5.39005,1.06211 -8.34205,1.41811 -2.953,0.35699 -5.49267,0.72373 -5.64367,0.81773 -0.152,0.093 -3.90903,0.52972 -8.35002,0.96972 -4.44098,0.439 -8.21228,0.88397 -8.38028,0.98797 -0.168,0.104 -2.5461,0.47273 -5.28208,0.81773 -2.737,0.34499 -6.05678,0.88987 -7.37675,1.20987 -1.32,0.319 -3.74837,0.85564 -5.39837,1.19164 -6.69698,1.36299 -19.59951,5.3663 -22.7945,7.0723 -0.767,0.409 -1.62945,0.74325 -1.91945,0.74325 -0.29,0 -1.19466,0.34713 -2.00866,0.77213 -0.81298,0.425 -2.73695,1.37056 -4.27695,2.10056 -3.36,1.593 -10.23042,5.36758 -13.74042,7.54956 -1.39699,0.869 -2.61416,1.57771 -2.70316,1.57771 -0.09,0 -1.75473,1.15106 -3.69873,2.55806 -3.936,2.84799 -5.83256,3.93571 -6.20756,3.55971 -0.437,-0.436 -0.27286,-2.44661 0.32814,-4.00961 0.318,-0.829 0.7735,-2.3174 1.0115,-3.3074 1.03198,-4.29299 6.63293,-15.88469 9.8569,-20.40069 3.829,-5.36297 10.31551,-11.92537 14.75351,-14.92737 3.85199,-2.60598 5.93956,-3.87281 6.38756,-3.87281 0.248,0 0.6524,-0.20087 0.8984,-0.44687 0.621,-0.621 4.62149,-2.2884 7.56949,-3.1554 1.35099,-0.397 2.78956,-0.89552 3.19856,-1.10652 0.40899,-0.212 2.00422,-0.61221 3.54422,-0.89221 1.53998,-0.281 3.25067,-0.68012 3.80067,-0.88612 0.55,-0.206 3.58141,-0.71849 6.73641,-1.14148 3.15497,-0.422 5.88301,-0.85974 6.06101,-0.96973 0.177,-0.11 4.31983,-0.56064 9.20381,-1.00164 4.88399,-0.441 8.9967,-0.87516 9.1417,-0.96516 0.146,-0.089 3.77312,-0.45461 8.06011,-0.80861 4.28798,-0.355 9.50636,-0.90716 11.59636,-1.23116 2.08999,-0.324 5.78188,-0.77976 8.20188,-1.01076 2.42,-0.231 5.08958,-0.60234 5.93358,-0.82533 0.844,-0.224 3.72431,-0.75496 6.4003,-1.17796 12.39297,-1.961 31.80248,-7.45541 34.16148,-9.6714 l 0.96053,-0.90285 -0.23575,-22.20334 c -0.13,-12.21197 -0.23179,-22.70394 -0.22779,-23.31594 0.013,-1.976 -1.71413,-1.58585 -4.59713,1.03812 -1.344,1.223 -5.26124,4.00112 -8.39621,5.9521 -1.1,0.68399 -2.72158,1.69604 -3.60157,2.25104 -4.84398,3.056 -8.91313,5.31791 -14.7981,8.2229 -5.594,2.76098 -9.96014,4.64799 -10.75212,4.64799 -0.34,0 -1.57203,0.34761 -2.73503,0.77061 -2.51598,0.915 -11.06828,2.6304 -16.11225,3.2314 -1.98,0.23599 -5.04173,0.682 -6.80171,0.991 -1.76,0.309 -5.4487,0.76584 -8.1987,1.01684 -2.74998,0.251 -5.6303,0.61461 -6.4003,0.80861 -0.77,0.195 -3.83172,0.7172 -6.80171,1.1582 -6.24498,0.928 -14.3632,2.57205 -15.4512,3.12805 -0.411,0.21 -1.9167,0.60552 -3.3467,0.87852 -1.42998,0.274 -2.9377,0.67473 -3.34669,0.89373 -0.409,0.21899 -1.84757,0.72988 -3.19856,1.13388 -3.45,1.033 -6.97405,2.30921 -8.88205,3.2162 -0.895,0.426 -1.76023,0.77365 -1.92423,0.77365 -0.335,0 -5.31758,2.25766 -6.25057,2.83166 -0.33,0.204 -1.04928,0.56709 -1.59928,0.80709 -1.94,0.848 -2.62034,1.18547 -4.60031,2.28447 -4.657,2.585 -7.86823,4.54013 -12.34822,7.51613 -7.60397,5.05297 -7.45162,4.98912 -7.45162,3.09612 0,-2.396 4.43753,-14.89445 6.43853,-18.13445 0.204,-0.33 0.73179,-1.31936 1.17079,-2.19936 0.733,-1.46699 1.66879,-2.96791 3.77678,-6.05089 9.76597,-14.28796 24.14133,-22.96882 43.01327,-25.97281 2.08999,-0.333 5.06101,-0.85675 6.60101,-1.16275 1.53999,-0.306 5.2303,-0.75821 8.20028,-1.00621 2.96999,-0.247 7.10904,-0.7064 9.19904,-1.0214 2.08999,-0.315 6.68098,-0.76256 10.20098,-0.99556 3.51997,-0.233 7.92956,-0.67745 9.79956,-0.98645 1.86999,-0.31 5.71832,-0.773 8.55232,-1.029 2.835,-0.255 5.71411,-0.62274 6.39711,-0.81773 0.68199,-0.196 3.40209,-0.63376 6.04509,-0.97276 2.64297,-0.338 5.34526,-0.78709 6.00526,-0.99708 0.65998,-0.209 3.08995,-0.74409 5.39995,-1.18708 8.34197,-1.6 23.20968,-6.06656 25.76368,-7.73956 l 1.03698,-0.68093 V 77.740773 c 0,-20.03794 -0.0832,-23.43449 -0.57822,-23.624488 -0.529,-0.203 -1.59262,0.452038 -5.74562,3.546029 -2.891,2.152994 -8.50345,5.900422 -8.83745,5.900422 -0.187,0 -0.55397,0.2585 -0.81397,0.571499 -0.261,0.314 -1.13713,0.916592 -1.94813,1.340591 -0.812,0.423998 -3.36713,1.837728 -5.67712,3.141724 -7.10198,4.008988 -17.55029,8.94639 -18.93329,8.94639 -0.349,0 -1.58795,0.351211 -2.75095,0.778211 -1.163,0.427999 -3.28501,0.970357 -4.71501,1.208355 -1.43,0.238 -3.68013,0.698404 -5.00013,1.021403 -1.32,0.322998 -4.89723,0.863237 -7.9502,1.199235 -3.054,0.336 -5.69309,0.695531 -5.86509,0.802531 -0.172,0.105999 -2.98558,0.466492 -6.25056,0.79949 -5.48899,0.558999 -10.19439,1.28834 -18.33436,2.845335 -8.64097,1.653996 -9.40477,1.843324 -17.80074,4.406318 -1.87,0.570997 -4.12015,1.307981 -5.00013,1.636979 -0.88,0.329 -2.49838,0.918712 -3.59838,1.311712 -3.759,1.341998 -6.45898,2.554778 -13.80095,6.193772 -5.20398,2.578989 -7.19955,3.651069 -10.79354,5.797069 -0.921,0.55 -2.1538,1.27822 -2.7398,1.61722 -0.586,0.339 -3.03833,1.90567 -5.44933,3.48067 -5.72599,3.73897 -5.95037,3.60119 -4.13837,-2.49879 1.45698,-4.90297 4.37994,-12.399319 5.53694,-14.199315 0.212,-0.33 0.57661,-1.048983 0.80761,-1.598981 0.23197,-0.55 0.83007,-1.629995 1.33007,-2.399992 0.5,-0.769998 1.43415,-2.208965 2.07715,-3.197962 5.00999,-7.705976 14.23323,-16.456569 20.56921,-19.51456 0.55,-0.265 1.27087,-0.64765 1.60087,-0.849649 2.68199,-1.642995 10.44224,-4.528135 13.55724,-5.040134 0.96798,-0.158 2.31903,-0.519011 3.00103,-0.80101 0.683,-0.282 2.94996,-0.721324 5.03996,-0.977324 2.08999,-0.255 4.33085,-0.637129 4.97783,-0.848129 0.648,-0.211 4.7722,-0.750716 9.16718,-1.197716 4.39499,-0.445997 8.12194,-0.890963 8.27994,-0.987963 0.157,-0.097 3.86056,-0.451852 8.23055,-0.788851 4.37098,-0.337 9.13049,-0.799003 10.57849,-1.029002 1.449,-0.229 5.76947,-0.756358 9.60045,-1.170357 6.99099,-0.753997 12.20811,-1.514225 18.16711,-2.646222 1.75999,-0.333999 4.94706,-0.937631 7.08206,-1.343631 2.136,-0.405997 4.06174,-0.849443 4.28174,-0.986443 0.221,-0.136 1.89545,-0.591764 3.71943,-1.010763 6.99799,-1.609995 16.16964,-4.646105 17.86764,-5.914102 l 1.04813,-0.784291 V 25.839248 c 0,-10.16697 -0.13689,-15.175431 -0.42689,-15.46543 C 345.23456,10.04682 169.28803,9.737975 80.283596,9.7856 Z m 25.059614,47.838715 h 14.68182 v 25.843607 c 7.47771,0.580096 14.19562,2.117095 20.15346,4.61151 6.01864,2.494415 11.24737,5.539784 15.68536,9.136383 L 141.91158,111.1385 c -3.34369,-2.61043 -6.90005,-4.61155 -10.66929,-6.00378 -3.70846,-1.39223 -7.44801,-2.20443 -11.21726,-2.43647 v 30.36696 c 8.14644,2.61044 15.04596,5.53978 20.69983,8.78832 5.71467,3.19053 10.06221,7.1355 13.04113,11.83428 2.97892,4.69878 4.46811,10.52884 4.46811,17.49 0,6.43907 -1.48919,12.3279 -4.46811,17.66478 -2.91813,5.33689 -7.23407,9.7746 -12.94874,13.31319 -5.65387,3.48058 -12.58498,5.71375 -20.79222,6.69992 v 25.93024 h -14.68182 v -25.4089 c -8.997562,-0.63811 -17.023054,-2.52319 -24.075197,-5.65571 -7.052143,-3.19054 -12.827269,-6.81605 -17.32605,-10.87672 l 13.952273,-15.31496 c 4.134014,3.36456 8.389958,6.06185 12.76715,8.09218 4.377192,2.03034 9.271128,3.22077 14.681824,3.56883 v -36.19898 c -13.192371,-4.11869 -22.615448,-8.99037 -28.269321,-14.6173 -5.653873,-5.62694 -8.480637,-12.56003 -8.480637,-20.7974 0,-6.26504 1.489181,-11.80426 4.468104,-16.61906 2.978922,-4.872814 7.204864,-8.789158 12.676354,-11.74765 5.532284,-3.016502 12.067002,-4.901586 19.6055,-5.655711 z m 0,45.247215 c -3.70845,0.58009 -6.475216,1.97244 -8.299046,4.1768 -1.763036,2.14636 -2.644226,4.58296 -2.644226,7.30941 0,2.90048 0.607992,5.33708 1.823879,7.30941 1.276681,1.91432 4.316643,3.94406 9.119393,6.09042 z m 14.68182,55.68922 v 30.10705 c 7.5385,-1.62427 11.30805,-6.38144 11.30805,-14.27075 0,-3.36456 -0.75959,-6.2939 -2.27945,-8.78832 -1.51986,-2.55242 -4.52982,-4.90162 -9.0286,-7.04798 z" />
    </g>
    <text
       xml:space="preserve"
       style="font-style:normal;font-weight:normal;font-size:23.4735px;font-family:sans-serif;fill:#ffffff;fill-opacity:1;stroke:none;stroke-width:0.264582"
       x="13.520986"
       y="31.332655"
       id="text1"><tspan
         sodipodi:role="line"
         style="font-style:normal;font-variant:normal;font-weight:normal;font-stretch:normal;font-size:23.4735px;font-family:'Fira Code';-inkscape-font-specification:'Fira Code, @wght=500';font-variant-ligatures:normal;font-variant-caps:normal;font-variant-numeric:normal;font-variant-east-asian:normal;font-variation-settings:'wght' 500;stroke-width:0.264582;fill:#ffffff"
         x="13.520986"
         y="31.332655"
         id="tspan2">Groveopoly</tspan></text>
  </g>
</svg>
