<?xml version="1.0" encoding="UTF-8" standalone="no"?>
<!-- Created with Inkscape (http://www.inkscape.org/) -->

<svg
   width="220mm"
   height="200mm"
   viewBox="0 0 220 200"
   version="1.1"
   id="svg1"
   inkscape:version="1.3 (0e150ed6c4, 2023-07-21)"
   sodipodi:docname="template - Copy (2) - Copy - Copy.svg"
   xmlns:inkscape="http://www.inkscape.org/namespaces/inkscape"
   xmlns:sodipodi="http://sodipodi.sourceforge.net/DTD/sodipodi-0.dtd"
   xmlns="http://www.w3.org/2000/svg"
   xmlns:svg="http://www.w3.org/2000/svg">
  <sodipodi:namedview
     id="namedview1"
     pagecolor="#ffffff"
     bordercolor="#666666"
     borderopacity="1.0"
     inkscape:showpageshadow="2"
     inkscape:pageopacity="0.0"
     inkscape:pagecheckerboard="true"
     inkscape:deskcolor="#d1d1d1"
     inkscape:document-units="mm"
     inkscape:zoom="0.54208404"
     inkscape:cx="413.22006"
     inkscape:cy="485.16463"
     inkscape:window-width="1649"
     inkscape:window-height="1157"
     inkscape:window-x="727"
     inkscape:window-y="128"
     inkscape:window-maximized="0"
     inkscape:current-layer="layer1" />
  <defs
     id="defs1" />
  <g
     inkscape:label="Layer 1"
     inkscape:groupmode="layer"
     id="layer1">
    <text
       xml:space="preserve"
       style="font-style:normal;font-weight:normal;font-size:23.4735px;font-family:sans-serif;fill:#ffffff;fill-opacity:1;stroke:none;stroke-width:0.264582"
       x="13.520986"
       y="31.332655"
       id="text1"><tspan
         sodipodi:role="line"
         style="font-style:normal;font-variant:normal;font-weight:normal;font-stretch:normal;font-size:23.4735px;font-family:'Fira Code';-inkscape-font-specification:'Fira Code, @wght=500';font-variant-ligatures:normal;font-variant-caps:normal;font-variant-numeric:normal;font-variant-east-asian:normal;font-variation-settings:'wght' 500;fill:#ffffff;stroke-width:0.264582"
         x="13.520986"
         y="31.332655"
         id="tspan2">Squares Game</tspan></text>
    <g
       id="g1"
       transform="matrix(0.20675916,0,0,0.20675916,-27.467935,-14.738939)"
       style="fill:#ffffff;stroke-width:1.27967">
      <path
         id="Path 1"
         class="s1"
         d="m 857,319.4 c 13.1,0.3 18.1,0.8 24.5,2.5 4.4,1.2 10.3,3.3 13,4.7 2.8,1.4 7.2,4.2 9.8,6.2 2.7,2.1 7.1,6.6 9.8,10.2 2.7,3.6 6.2,9.9 7.8,14 1.6,4.1 3.5,10.7 4.2,14.5 0.7,4.4 1,11.5 0.6,19 -0.3,6.6 -1.3,14.7 -2.2,18 -0.9,3.3 -4.3,11.4 -7.5,18 -3.4,6.9 -9.2,16.3 -13.5,22 -4.2,5.5 -12.7,15.6 -18.9,22.5 -6.2,6.9 -22.9,23.8 -37.1,37.5 -14.3,13.8 -29.5,28.5 -42,40.5 H 939 v 33 H 775 l 0.1,-26.5 26.2,-26.5 c 14.4,-14.6 31.2,-31.9 37.2,-38.6 6.1,-6.7 14.7,-16.8 19.2,-22.5 4.4,-5.7 10.8,-14.7 14,-19.9 3.3,-5.2 7.9,-13.8 10.2,-19 2.4,-5.2 5.4,-13.8 6.8,-19 1.7,-7.1 2.3,-12.2 2.3,-20 0,-5.8 -0.7,-13.3 -1.5,-16.7 -0.8,-3.5 -2.9,-9.1 -4.7,-12.5 -1.7,-3.5 -5.4,-8.6 -8.2,-11.4 -2.9,-2.8 -8.1,-6.5 -19.1,-11.9 h -16.1 c -8.9,0 -16.6,0.4 -17.1,0.9 -0.4,0.5 -2.9,8.3 -5.4,17.5 -2.5,9.1 -5.7,19.1 -7.1,22.1 -1.4,3 -3.8,7 -5.4,8.9 -1.6,1.9 -4.4,4 -6.1,4.8 -1.8,0.7 -5.4,1.3 -8,1.3 -2.7,0 -6.6,-0.9 -8.8,-1.9 -2.2,-1.1 -5.5,-3.6 -7.2,-5.5 -2.1,-2.2 -3.3,-4.7 -3.3,-6.3 0,-1.6 0.8,-5.9 1.8,-9.8 1,-3.9 3.1,-9.5 4.5,-12.5 1.4,-3 4.8,-8 7.4,-11.1 2.6,-3.1 7.1,-7.5 9.8,-9.8 2.8,-2.3 8.1,-5.6 12,-7.5 3.9,-1.9 10.1,-4.3 14,-5.5 3.9,-1.1 9.5,-2.5 12.5,-3 3,-0.5 12.9,-0.8 22,-0.7 z M 621.7,457 c 0.2,4.1 0.2,11.3 0,16 -0.1,4.7 -0.3,1.3 -0.3,-7.5 0,-8.8 0.2,-12.6 0.3,-8.5 z"
         style="fill:#ffffff;stroke-width:1.27967" />
      <path
         id="Path 2"
         class="s2"
         d="M 382.9,450 H 561 l -0.5,31.3 -23.1,4.1 c -12.8,2.3 -23.5,4.4 -23.8,4.8 -0.3,0.5 16.4,25.5 37.2,55.7 20.7,30.3 37.9,55 38.2,55 0.3,0 19.4,-24.3 42.5,-54 23.1,-29.7 42.1,-54.3 42.3,-54.7 0.1,-0.4 -11.4,-3 -51.3,-10.8 L 622,450 h 149 l -0.5,31.4 -23,4.3 c -16.6,3.1 -23.5,4.8 -24.6,6 -0.9,1 -26.3,32.2 -56.4,69.3 -30.1,37.1 -55.2,68.1 -55.6,68.8 -0.6,0.8 16.5,26.2 53.7,79.5 30,43 55.1,78.8 55.7,79.5 0.7,0.6 14.5,3.7 30.7,6.7 16.2,3 29.8,5.5 30.3,5.5 0.4,0 0.7,6.5 0.7,29 H 587 v -29 l 14,-2.5 c 7.7,-1.4 20.3,-3.6 28,-5 7.7,-1.4 13.9,-2.9 13.8,-3.3 -0.2,-0.5 -17.6,-26.1 -38.8,-57 -21.2,-30.9 -38.8,-56 -39.2,-55.9 -0.3,0.1 -20.2,25.6 -44.1,56.7 -23.9,31.1 -43.4,56.6 -43.4,56.7 0.1,0.1 13.3,2.4 29.2,5.2 16,2.8 29.3,5.1 29.8,5.1 0.4,0 0.7,6.5 0.7,29 H 377 v -28.5 l 18.7,-3.7 c 10.4,-2 21.9,-4.3 32.5,-6.3 L 486.6,719 c 35.5,-44 58.1,-72.9 57.6,-73.5 -0.5,-0.5 -24.6,-35.8 -53.5,-78.3 -29,-42.4 -53,-77.2 -53.4,-77.3 -0.5,0 -12.7,-1.9 -53.8,-8.5 l -0.3,-15.7 z"
         style="fill:#ffffff;stroke-width:1.27967" />
    </g>
  </g>
</svg>
