<?xml version="1.0" encoding="UTF-8" standalone="no"?>
<!-- Created with Inkscape (http://www.inkscape.org/) -->

<svg
   width="300mm"
   height="200mm"
   viewBox="0 0 300 200"
   version="1.1"
   id="svg1"
   inkscape:version="1.3 (0e150ed6c4, 2023-07-21)"
   sodipodi:docname="chest-template.svg"
   xmlns:inkscape="http://www.inkscape.org/namespaces/inkscape"
   xmlns:sodipodi="http://sodipodi.sourceforge.net/DTD/sodipodi-0.dtd"
   xmlns="http://www.w3.org/2000/svg"
   xmlns:svg="http://www.w3.org/2000/svg">
  <sodipodi:namedview
     id="namedview1"
     pagecolor="#ffffff"
     bordercolor="#666666"
     borderopacity="1.0"
     inkscape:showpageshadow="2"
     inkscape:pageopacity="0.0"
     inkscape:pagecheckerboard="0"
     inkscape:deskcolor="#d1d1d1"
     inkscape:document-units="mm"
     inkscape:zoom="1.0841681"
     inkscape:cx="552.95853"
     inkscape:cy="319.59988"
     inkscape:window-width="2400"
     inkscape:window-height="1494"
     inkscape:window-x="-11"
     inkscape:window-y="-11"
     inkscape:window-maximized="1"
     inkscape:current-layer="layer1" />
  <defs
     id="defs1" />
  <g
     inkscape:label="Layer 1"
     inkscape:groupmode="layer"
     id="layer1">
    <rect
       style="fill:none;stroke:#1a1a1a;stroke-width:1.90289;paint-order:markers fill stroke"
       id="rect1"
       width="272.19217"
       height="172.50493"
       x="13.903917"
       y="13.747534" />
    <path
       style="font-weight:bold;font-size:18.262px;font-family:Sans;-inkscape-font-specification:'Sans, Bold';text-align:center;text-anchor:middle;stroke-width:0.456551"
       d="m 64.730204,35.877951 q -1.48022,0 -2.737516,-0.436933 -1.248379,-0.436932 -2.148995,-1.301881 -0.900616,-0.864948 -1.399968,-2.157912 -0.490435,-1.292963 -0.490435,-2.987192 0,-1.578307 0.472601,-2.862354 0.472601,-1.284047 1.373217,-2.202497 0.864948,-0.882782 2.140078,-1.3643 1.284047,-0.481517 2.799935,-0.481517 0.838197,0 1.506972,0.09809 0.677691,0.08917 1.248379,0.240759 0.597438,0.169423 1.078956,0.383431 0.490434,0.205091 0.856031,0.383431 v 3.219034 h -0.392348 q -0.249676,-0.214008 -0.633106,-0.508269 -0.374514,-0.294261 -0.856031,-0.579604 -0.490435,-0.285344 -1.061122,-0.481518 -0.570688,-0.196174 -1.221628,-0.196174 -0.722277,0 -1.373217,0.231842 -0.65094,0.222925 -1.203794,0.749027 -0.526102,0.508269 -0.856031,1.346466 -0.321012,0.838197 -0.321012,2.033074 0,1.248379 0.347763,2.086576 0.356679,0.838197 0.891699,1.319715 0.543936,0.490435 1.212711,0.704442 0.668774,0.205091 1.319715,0.205091 0.624189,0 1.230545,-0.187257 0.615272,-0.187256 1.132457,-0.508268 0.436933,-0.258593 0.811447,-0.552854 0.374513,-0.29426 0.615272,-0.508268 h 0.35668 v 3.174449 q -0.499352,0.222925 -0.954118,0.419098 -0.454767,0.196174 -0.954118,0.338846 -0.650941,0.187257 -1.221628,0.285344 -0.570688,0.09809 -1.569391,0.09809 z m 20.125651,-6.892835 q 0,3.174449 -1.819067,5.047018 -1.819066,1.863651 -5.029183,1.863651 -3.2012,0 -5.020266,-1.863651 -1.819067,-1.872569 -1.819067,-5.047018 0,-3.2012 1.819067,-5.055934 1.819066,-1.863651 5.020266,-1.863651 3.192283,0 5.020266,1.863651 1.827984,1.854734 1.827984,5.055934 z m -4.538749,3.361706 q 0.499352,-0.606355 0.74011,-1.426719 0.240759,-0.82928 0.240759,-1.943904 0,-1.194877 -0.276427,-2.033074 -0.276426,-0.838197 -0.722276,-1.355383 -0.454767,-0.535019 -1.052205,-0.775778 -0.588521,-0.240759 -1.230545,-0.240759 -0.65094,0 -1.230545,0.231842 -0.570687,0.231842 -1.052205,0.766861 -0.445849,0.499352 -0.731193,1.382134 -0.276427,0.873865 -0.276427,2.033074 0,1.18596 0.26751,2.024157 0.276427,0.829281 0.722276,1.355383 0.44585,0.526103 1.043288,0.775778 0.597439,0.249676 1.257296,0.249676 0.659858,0 1.257296,-0.249676 0.597438,-0.258592 1.043288,-0.793612 z m 21.070854,3.272536 h -3.406294 v -8.890241 l -2.46109,5.769294 h -2.363003 l -2.461089,-5.769294 v 8.890241 H 87.468533 V 22.341957 h 3.976978 l 2.987192,6.660993 2.978275,-6.660993 h 3.976982 z m 17.30788,0 h -3.40629 v -8.890241 l -2.46109,5.769294 h -2.36301 l -2.46109,-5.769294 v 8.890241 h -3.22795 V 22.341957 h 3.97698 l 2.98719,6.660993 2.97828,-6.660993 h 3.97698 z M 133.71205,30.8131 q 0,2.461089 -1.49805,3.771887 -1.49806,1.310798 -4.41391,1.310798 -2.91586,0 -4.41392,-1.310798 -1.48913,-1.310798 -1.48913,-3.762971 v -8.480059 h 3.44196 v 8.283886 q 0,1.382133 0.5796,2.059825 0.5796,0.677691 1.88149,0.677691 1.28404,0 1.87256,-0.65094 0.59744,-0.650941 0.59744,-2.086576 v -8.283886 h 3.44196 z m 15.27481,4.806258 h -3.29929 l -5.63554,-9.113166 v 9.113166 h -3.13878 V 22.341957 h 4.0929 l 4.84193,7.606194 v -7.606194 h 3.13878 z m 10.56663,0 h -7.77561 v -2.354086 h 2.17574 v -8.569229 h -2.17574 v -2.354086 h 7.77561 v 2.354086 h -2.17574 v 8.569229 h 2.17574 z M 172.7328,24.910051 h -4.1464 v 10.709307 h -3.42412 V 24.910051 h -4.1464 v -2.568094 h 11.71692 z m 13.74109,-2.568094 -4.89543,8.141214 v 5.136187 h -3.42412 v -4.975681 l -4.97569,-8.30172 h 3.88781 l 2.87127,5.136188 2.77319,-5.136188 z m 14.01751,13.535994 q -1.48022,0 -2.73751,-0.436933 -1.24838,-0.436932 -2.149,-1.301881 -0.90061,-0.864948 -1.39997,-2.157912 -0.49043,-1.292963 -0.49043,-2.987192 0,-1.578307 0.4726,-2.862354 0.4726,-1.284047 1.37322,-2.202497 0.86495,-0.882782 2.14008,-1.3643 1.28404,-0.481517 2.79993,-0.481517 0.8382,0 1.50697,0.09809 0.67769,0.08917 1.24838,0.240759 0.59744,0.169423 1.07896,0.383431 0.49043,0.205091 0.85603,0.383431 v 3.219034 h -0.39235 q -0.24967,-0.214008 -0.63311,-0.508269 -0.37451,-0.294261 -0.85603,-0.579604 -0.49043,-0.285344 -1.06112,-0.481518 -0.57069,-0.196174 -1.22163,-0.196174 -0.72227,0 -1.37321,0.231842 -0.65094,0.222925 -1.2038,0.749027 -0.5261,0.508269 -0.85603,1.346466 -0.32101,0.838197 -0.32101,2.033074 0,1.248379 0.34776,2.086576 0.35668,0.838197 0.8917,1.319715 0.54394,0.490435 1.21271,0.704442 0.66878,0.205091 1.31972,0.205091 0.62419,0 1.23054,-0.187257 0.61527,-0.187256 1.13246,-0.508268 0.43693,-0.258593 0.81145,-0.552854 0.37451,-0.29426 0.61527,-0.508268 h 0.35668 v 3.174449 q -0.49935,0.222925 -0.95412,0.419098 -0.45477,0.196174 -0.95412,0.338846 -0.65094,0.187257 -1.22163,0.285344 -0.57068,0.09809 -1.56939,0.09809 z m 19.11803,-0.258593 h -3.42412 v -5.849547 h -5.05594 v 5.849547 h -3.42412 V 22.341957 h 3.42412 v 4.859761 h 5.05594 v -4.859761 h 3.42412 z m 12.99205,0 h -9.6036 V 22.341957 h 9.6036 v 2.568094 h -6.19731 v 2.291667 h 5.75146 v 2.568093 h -5.75146 v 3.281453 h 6.19731 z m 13.50034,-4.173152 q 0,1.961738 -1.66748,3.192283 -1.65856,1.221628 -4.51199,1.221628 -1.64965,0 -2.88019,-0.285344 -1.22163,-0.294261 -2.29167,-0.74011 v -3.183366 h 0.37451 q 1.06113,0.847114 2.37192,1.301881 1.31972,0.454766 2.53243,0.454766 0.31209,0 0.82036,-0.0535 0.50827,-0.0535 0.82928,-0.17834 0.39235,-0.160506 0.64203,-0.401264 0.25859,-0.240759 0.25859,-0.71336 0,-0.436932 -0.37451,-0.749027 -0.3656,-0.321012 -1.07896,-0.490435 -0.74903,-0.178339 -1.58722,-0.329928 -0.82929,-0.160506 -1.56048,-0.401265 -1.67639,-0.543936 -2.4165,-1.471303 -0.7312,-0.936285 -0.7312,-2.318418 0,-1.854735 1.65856,-3.022861 1.66748,-1.177042 4.28016,-1.177042 1.3108,0 2.58593,0.258592 1.28404,0.249676 2.22033,0.633107 v 3.058528 h -0.3656 q -0.80253,-0.642024 -1.97065,-1.070039 -1.15921,-0.436933 -2.37192,-0.436933 -0.42802,0 -0.85603,0.06242 -0.4191,0.0535 -0.81145,0.214008 -0.34776,0.133755 -0.59744,0.410182 -0.24967,0.267509 -0.24967,0.615272 0,0.526103 0.40126,0.811446 0.40126,0.276427 1.51589,0.508269 0.73119,0.151589 1.39997,0.294261 0.67769,0.142671 1.45347,0.392347 1.5248,0.499352 2.24708,1.3643 0.73119,0.856031 0.73119,2.229248 z m 12.73345,-6.536155 h -4.1464 v 10.709307 h -3.42412 V 24.910051 h -4.1464 v -2.568094 h 11.71692 z"
       id="text1"
       transform="scale(0.9494358,1.0532571)"
       aria-label="COMMUNITY CHEST" />
  </g>
</svg>
