<?xml version="1.0" encoding="UTF-8" standalone="no"?>
<svg
   id="svg"
   version="1.1"
   width="400"
   height="345.18125552608313"
   viewBox="0, 0, 400,345.18125552608313"
   sodipodi:docname="image2vector(1).svg"
   inkscape:version="1.3 (0e150ed6c4, 2023-07-21)"
   xmlns:inkscape="http://www.inkscape.org/namespaces/inkscape"
   xmlns:sodipodi="http://sodipodi.sourceforge.net/DTD/sodipodi-0.dtd"
   xmlns="http://www.w3.org/2000/svg"
   xmlns:svg="http://www.w3.org/2000/svg">
  <defs
     id="defs1" />
  <sodipodi:namedview
     id="namedview1"
     pagecolor="#ffffff"
     bordercolor="#666666"
     borderopacity="1.0"
     inkscape:showpageshadow="2"
     inkscape:pageopacity="0.0"
     inkscape:pagecheckerboard="0"
     inkscape:deskcolor="#d1d1d1"
     inkscape:zoom="3.3075"
     inkscape:cx="200"
     inkscape:cy="172.48677"
     inkscape:window-width="2400"
     inkscape:window-height="1494"
     inkscape:window-x="-11"
     inkscape:window-y="-11"
     inkscape:window-maximized="1"
     inkscape:current-layer="svg" />
  <g
     id="svgg">
    <path
       id="path0"
       d="M15.710 0.853 C 8.020 2.528,2.128 7.872,0.734 14.438 C 0.178 17.057,0.178 329.402,0.734 332.021 C 1.747 336.790,5.662 341.519,10.591 343.928 L 13.299 345.250 200.345 345.250 L 387.392 345.250 390.072 343.941 C 393.652 342.191,396.742 339.280,398.489 336.011 L 399.827 333.506 399.827 173.230 L 399.827 12.953 398.736 10.881 C 395.990 5.667,391.162 2.182,384.823 0.838 C 381.541 0.142,18.907 0.157,15.710 0.853 M41.278 12.952 C 53.027 15.403,61.453 27.370,59.792 39.245 C 57.035 58.955,33.682 67.073,19.661 53.195 C 2.768 36.475,18.011 8.097,41.278 12.952 M98.100 13.471 C 123.958 22.164,118.202 59.931,91.019 59.931 C 63.167 59.931,58.344 20.315,85.320 13.119 C 88.798 12.191,94.785 12.356,98.100 13.471 M151.499 13.128 C 175.451 19.202,175.451 53.337,151.499 59.411 C 133.750 63.912,117.575 46.693,123.109 29.188 C 126.905 17.180,139.463 10.076,151.499 13.128 M205.699 12.952 C 223.902 16.750,230.646 39.777,217.445 53.055 C 202.486 68.101,176.808 57.326,176.863 36.025 C 176.901 21.182,191.016 9.888,205.699 12.952 M262.522 13.471 C 288.983 22.367,282.034 61.361,254.231 59.993 C 232.480 58.923,223.704 31.278,240.769 17.583 C 246.679 12.839,255.618 11.150,262.522 13.471 M317.540 13.564 C 337.658 20.126,339.919 48.040,321.098 57.498 C 305.131 65.522,286.633 54.144,286.585 36.269 C 286.542 20.169,302.316 8.599,317.540 13.564 M370.121 12.952 C 388.357 16.757,395.110 39.832,381.859 53.064 C 368.365 66.537,345.510 59.530,341.769 40.772 C 338.464 24.205,353.472 9.478,370.121 12.952 M41.926 68.037 C 62.954 73.415,66.495 102.067,47.384 112.196 C 33.574 119.516,16.758 111.819,13.089 96.498 C 8.983 79.352,24.868 63.675,41.926 68.037 M96.853 68.039 C 114.794 72.627,120.906 95.124,107.733 108.090 C 92.668 122.919,67.395 112.321,67.363 91.161 C 67.339 75.600,81.870 64.207,96.853 68.039 M151.078 67.872 C 169.195 71.711,175.748 94.675,162.523 107.977 C 149.799 120.774,127.839 115.097,122.980 97.755 C 118.090 80.301,133.316 64.109,151.078 67.872 M208.125 68.485 C 228.031 75.461,230.177 102.410,211.615 112.304 C 195.476 120.905,175.812 108.051,176.959 89.649 C 177.918 74.251,193.801 63.465,208.125 68.485 M261.270 68.037 C 282.246 73.402,285.810 101.572,266.843 112.091 C 251.185 120.775,231.755 109.114,231.784 91.050 C 231.809 75.592,246.371 64.227,261.270 68.037 M315.717 67.895 C 334.194 72.235,340.333 95.467,326.461 108.553 C 311.829 122.356,288.099 112.755,286.516 92.392 C 285.326 77.076,300.523 64.326,315.717 67.895 M372.646 68.519 C 392.643 75.519,394.583 103.123,375.732 112.429 C 356.901 121.726,335.936 103.700,342.453 83.815 C 346.512 71.432,360.591 64.299,372.646 68.519 M98.436 123.308 C 115.357 129.044,120.356 150.120,107.782 162.707 C 92.902 177.601,68.319 167.900,67.443 146.788 C 66.759 130.311,82.937 118.055,98.436 123.308 M152.763 123.163 C 173.334 129.901,175.545 157.758,156.280 167.464 C 143.044 174.131,126.554 166.481,122.782 151.924 C 118.193 134.215,135.580 117.536,152.763 123.163 M262.867 123.302 C 279.990 129.034,284.857 150.789,271.802 163.237 C 256.517 177.811,231.779 166.902,231.779 145.588 C 231.779 129.866,247.917 118.297,262.867 123.302 M317.303 123.170 C 334.468 128.977,339.735 150.117,327.151 162.701 C 311.917 177.935,286.534 167.232,286.588 145.596 C 286.626 130.078,302.805 118.265,317.303 123.170 M372.021 123.154 C 391.615 129.070,394.885 156.012,377.279 166.472 C 360.927 176.186,340.348 163.720,341.390 144.732 C 342.231 129.394,357.369 118.731,372.021 123.154 M41.919 122.818 C 60.713 127.584,66.359 152.239,51.416 164.290 C 35.434 177.180,12.435 166.191,12.435 145.666 C 12.435 130.707,27.375 119.130,41.919 122.818 M206.915 122.992 C 224.434 127.817,230.330 149.877,217.539 162.736 C 202.439 177.915,177.073 167.388,177.073 145.941 C 177.073 130.134,191.782 118.823,206.915 122.992 M42.487 177.740 C 61.198 183.309,66.172 207.293,51.121 219.372 C 35.522 231.891,12.489 220.807,12.441 200.759 C 12.405 185.349,27.974 173.421,42.487 177.740 M95.610 177.393 C 114.146 181.125,121.185 203.994,107.945 217.464 C 92.423 233.255,66.367 221.631,67.450 199.398 C 68.149 185.034,81.551 174.562,95.610 177.393 M152.773 178.001 C 173.295 184.575,175.513 212.584,156.274 222.215 C 136.821 231.953,115.419 211.703,123.891 191.575 C 128.545 180.518,141.549 174.406,152.773 178.001 M206.908 177.737 C 228.138 184.020,230.697 212.702,210.881 222.267 C 193.287 230.759,173.471 215.365,177.350 196.219 C 180.076 182.766,194.155 173.963,206.908 177.737 M260.032 177.384 C 278.521 181.050,285.663 204.204,272.395 217.462 C 257.130 232.716,231.829 222.248,231.785 200.660 C 231.755 185.863,245.533 174.510,260.032 177.384 M317.278 178.026 C 337.204 184.379,340.046 211.303,321.888 221.689 C 306.303 230.603,286.708 219.050,286.565 200.864 C 286.441 184.986,302.247 173.233,317.278 178.026 M371.848 177.905 C 384.272 181.696,391.533 194.986,387.969 207.414 C 383.295 223.721,363.519 230.076,350.400 219.488 C 333.972 206.230,340.900 180.899,362.003 177.061 C 363.926 176.711,369.503 177.189,371.848 177.905 M41.034 232.320 C 58.910 235.952,66.173 258.485,53.749 271.767 C 41.264 285.113,19.144 280.304,13.603 263.040 C 8.041 245.708,23.226 228.702,41.034 232.320 M97.927 232.815 C 115.149 238.175,120.498 259.802,107.755 272.545 C 94.800 285.500,72.582 279.385,68.037 261.615 C 63.484 243.811,80.520 227.396,97.927 232.815 M150.777 232.295 C 166.301 235.535,174.518 254.240,166.364 267.780 C 153.903 288.474,122.301 279.903,122.143 255.786 C 122.044 240.569,135.910 229.193,150.777 232.295 M207.599 232.827 C 225.917 238.881,230.420 262.355,215.553 274.286 C 200.484 286.379,178.083 276.326,176.955 256.965 C 176.005 240.650,192.339 227.784,207.599 232.827 M260.168 232.280 C 278.968 236.265,285.721 259.036,272.125 272.601 C 260.950 283.751,241.965 280.928,234.577 267.018 C 225.193 249.350,240.793 228.174,260.168 232.280 M315.199 232.295 C 329.855 235.354,338.150 251.843,331.932 265.557 C 324.027 282.990,299.337 284.244,289.715 267.700 C 279.427 250.014,295.187 228.120,315.199 232.295 M372.021 232.827 C 392.764 239.682,394.855 267.809,375.321 277.204 C 357.904 285.582,337.936 270.069,341.772 251.141 C 344.569 237.336,359.080 228.551,372.021 232.827 M41.278 287.215 C 49.021 288.821,56.430 295.488,58.748 302.936 C 66.215 326.919,37.388 345.006,19.661 327.461 C 2.766 310.739,17.995 282.385,41.278 287.215 M98.098 287.743 C 118.774 294.723,120.802 322.439,101.335 331.977 C 85.590 339.692,67.368 328.189,67.368 310.535 C 67.368 294.566,83.302 282.748,98.098 287.743 M152.850 287.741 C 167.901 292.474,174.340 310.690,165.611 323.841 C 154.658 340.343,129.140 336.620,123.121 317.643 C 118.799 304.014,127.598 289.668,141.969 286.916 C 144.089 286.510,150.475 286.994,152.850 287.741 M205.699 287.218 C 223.899 291.015,230.661 314.077,217.452 327.300 C 202.946 341.821,178.388 332.583,176.977 312.073 C 175.898 296.405,190.242 283.992,205.699 287.218 M262.514 287.741 C 283.228 294.735,285.278 322.291,265.803 331.973 C 253.017 338.329,237.523 331.730,232.907 317.962 C 226.896 300.030,244.796 281.759,262.514 287.741 M317.271 287.734 C 334.521 293.108,339.764 314.971,326.851 327.680 C 314.571 339.765,293.202 334.595,287.757 318.222 C 281.654 299.867,298.931 282.020,317.271 287.734 M370.121 287.218 C 382.480 289.797,390.932 302.622,388.456 315.039 C 384.699 333.873,361.926 340.827,348.327 327.292 C 331.674 310.719,347.071 282.408,370.121 287.218 "
       stroke="none"
       fill="#0404fb"
       fill-rule="evenodd" />
  </g>
</svg>
