<?xml version="1.0" encoding="UTF-8" standalone="no"?>
<!-- Created with Inkscape (http://www.inkscape.org/) -->

<svg
   width="300mm"
   height="200mm"
   viewBox="0 0 300 200"
   version="1.1"
   id="svg1"
   inkscape:version="1.3 (0e150ed6c4, 2023-07-21)"
   sodipodi:docname="chance-template.svg"
   xmlns:inkscape="http://www.inkscape.org/namespaces/inkscape"
   xmlns:sodipodi="http://sodipodi.sourceforge.net/DTD/sodipodi-0.dtd"
   xmlns="http://www.w3.org/2000/svg"
   xmlns:svg="http://www.w3.org/2000/svg">
  <sodipodi:namedview
     id="namedview1"
     pagecolor="#ffffff"
     bordercolor="#666666"
     borderopacity="1.0"
     inkscape:showpageshadow="2"
     inkscape:pageopacity="0.0"
     inkscape:pagecheckerboard="0"
     inkscape:deskcolor="#d1d1d1"
     inkscape:document-units="mm"
     inkscape:zoom="0.76662262"
     inkscape:cx="583.72919"
     inkscape:cy="348.93309"
     inkscape:window-width="2400"
     inkscape:window-height="1494"
     inkscape:window-x="-11"
     inkscape:window-y="-11"
     inkscape:window-maximized="1"
     inkscape:current-layer="layer1" />
  <defs
     id="defs1" />
  <g
     inkscape:label="Layer 1"
     inkscape:groupmode="layer"
     id="layer1">
    <rect
       style="fill:none;stroke:#1a1a1a;stroke-width:1.90289;paint-order:markers fill stroke"
       id="rect1"
       width="272.19217"
       height="172.50493"
       x="13.903917"
       y="13.747534" />
    <path
       style="font-weight:bold;font-size:18.262px;font-family:Sans;-inkscape-font-specification:'Sans, Bold';text-align:center;text-anchor:middle;stroke-width:0.456551"
       d="m 123.89444,35.877951 q -1.48022,0 -2.73751,-0.436933 -1.24838,-0.436932 -2.149,-1.301881 -0.90061,-0.864948 -1.39996,-2.157912 -0.49044,-1.292963 -0.49044,-2.987192 0,-1.578307 0.4726,-2.862354 0.4726,-1.284047 1.37322,-2.202497 0.86495,-0.882782 2.14008,-1.3643 1.28404,-0.481517 2.79993,-0.481517 0.8382,0 1.50697,0.09809 0.67769,0.08917 1.24838,0.240759 0.59744,0.169423 1.07896,0.383431 0.49043,0.205091 0.85603,0.383431 v 3.219034 h -0.39235 q -0.24967,-0.214008 -0.6331,-0.508269 -0.37452,-0.294261 -0.85604,-0.579604 -0.49043,-0.285344 -1.06112,-0.481518 -0.57069,-0.196174 -1.22163,-0.196174 -0.72227,0 -1.37321,0.231842 -0.65094,0.222925 -1.2038,0.749027 -0.5261,0.508269 -0.85603,1.346466 -0.32101,0.838197 -0.32101,2.033074 0,1.248379 0.34776,2.086576 0.35668,0.838197 0.8917,1.319715 0.54394,0.490435 1.21271,0.704442 0.66878,0.205091 1.31972,0.205091 0.62419,0 1.23054,-0.187257 0.61528,-0.187256 1.13246,-0.508268 0.43693,-0.258593 0.81145,-0.552854 0.37451,-0.29426 0.61527,-0.508268 h 0.35668 v 3.174449 q -0.49935,0.222925 -0.95412,0.419098 -0.45477,0.196174 -0.95412,0.338846 -0.65094,0.187257 -1.22162,0.285344 -0.57069,0.09809 -1.5694,0.09809 z m 19.11804,-0.258593 h -3.42413 v -5.849547 h -5.05593 v 5.849547 h -3.42413 V 22.341957 h 3.42413 v 4.859761 h 5.05593 v -4.859761 h 3.42413 z m 15.65823,0 h -3.54004 l -0.91845,-2.684014 h -4.92218 l -0.91845,2.684014 h -3.45088 l 4.90435,-13.277401 h 3.94131 z m -5.28777,-5.118353 -1.63181,-4.761674 -1.63181,4.761674 z m 19.26961,5.118353 h -3.29928 l -5.63554,-9.113166 v 9.113166 h -3.13878 V 22.341957 h 4.0929 l 4.84192,7.606194 v -7.606194 h 3.13878 z m 9.3896,0.258593 q -1.48022,0 -2.73752,-0.436933 -1.24838,-0.436932 -2.14899,-1.301881 -0.90062,-0.864948 -1.39997,-2.157912 -0.49043,-1.292963 -0.49043,-2.987192 0,-1.578307 0.4726,-2.862354 0.4726,-1.284047 1.37321,-2.202497 0.86495,-0.882782 2.14008,-1.3643 1.28405,-0.481517 2.79994,-0.481517 0.83819,0 1.50697,0.09809 0.67769,0.08917 1.24838,0.240759 0.59744,0.169423 1.07895,0.383431 0.49044,0.205091 0.85603,0.383431 v 3.219034 h -0.39234 q -0.24968,-0.214008 -0.63311,-0.508269 -0.37451,-0.294261 -0.85603,-0.579604 -0.49044,-0.285344 -1.06112,-0.481518 -0.57069,-0.196174 -1.22163,-0.196174 -0.72228,0 -1.37322,0.231842 -0.65094,0.222925 -1.20379,0.749027 -0.5261,0.508269 -0.85603,1.346466 -0.32101,0.838197 -0.32101,2.033074 0,1.248379 0.34776,2.086576 0.35668,0.838197 0.8917,1.319715 0.54393,0.490435 1.21271,0.704442 0.66877,0.205091 1.31971,0.205091 0.62419,0 1.23055,-0.187257 0.61527,-0.187256 1.13246,-0.508268 0.43693,-0.258593 0.81144,-0.552854 0.37452,-0.29426 0.61527,-0.508268 h 0.35668 v 3.174449 q -0.49935,0.222925 -0.95411,0.419098 -0.45477,0.196174 -0.95412,0.338846 -0.65094,0.187257 -1.22163,0.285344 -0.57069,0.09809 -1.56939,0.09809 z M 198.8596,35.619358 H 189.256 V 22.341957 h 9.6036 v 2.568094 h -6.19731 v 2.291667 h 5.75146 v 2.568093 h -5.75146 v 3.281453 h 6.19731 z"
       id="text1"
       transform="scale(0.9494358,1.0532571)"
       aria-label="CHANCE" />
    <text
       xml:space="preserve"
       style="font-style:normal;font-weight:normal;font-size:10.5833px;font-family:sans-serif;display:none;fill:#000000;fill-opacity:1;stroke:none;stroke-width:0.264583"
       x="95.936295"
       y="87.855377"
       id="text2"><tspan
         sodipodi:role="line"
         id="tspan2"
         style="text-align:center;text-anchor:middle;stroke-width:0.264583"
         x="95.936295"
         y="87.855377">ADVANCE TO</tspan><tspan
         sodipodi:role="line"
         style="text-align:center;text-anchor:middle;stroke-width:0.264583"
         x="95.936295"
         y="101.0845"
         id="tspan4">ST. CHARLES PLACE.</tspan><tspan
         sodipodi:role="line"
         style="text-align:center;text-anchor:middle;stroke-width:0.264583"
         x="95.936295"
         y="114.31363"
         id="tspan5">IF YOU PASS GO,</tspan><tspan
         sodipodi:role="line"
         style="text-align:center;text-anchor:middle;stroke-width:0.264583"
         x="95.936295"
         y="127.54275"
         id="tspan6">COLLECT $200.</tspan></text>
  </g>
</svg>
