<?xml version="1.0" encoding="UTF-8" standalone="no"?>
<!-- Created with Inkscape (http://www.inkscape.org/) -->

<svg
   width="50mm"
   height="50mm"
   viewBox="0 0 50 50"
   version="1.1"
   id="svg1"
   inkscape:version="1.3 (0e150ed6c4, 2023-07-21)"
   sodipodi:docname="go.svg"
   xml:space="preserve"
   xmlns:inkscape="http://www.inkscape.org/namespaces/inkscape"
   xmlns:sodipodi="http://sodipodi.sourceforge.net/DTD/sodipodi-0.dtd"
   xmlns:xlink="http://www.w3.org/1999/xlink"
   xmlns="http://www.w3.org/2000/svg"
   xmlns:svg="http://www.w3.org/2000/svg"><sodipodi:namedview
     id="namedview1"
     pagecolor="#ffffff"
     bordercolor="#666666"
     borderopacity="1.0"
     inkscape:showpageshadow="2"
     inkscape:pageopacity="0.0"
     inkscape:pagecheckerboard="0"
     inkscape:deskcolor="#d1d1d1"
     inkscape:document-units="mm"
     inkscape:zoom="2.3786088"
     inkscape:cx="61.17021"
     inkscape:cy="112.04028"
     inkscape:window-width="1948"
     inkscape:window-height="1070"
     inkscape:window-x="102"
     inkscape:window-y="245"
     inkscape:window-maximized="0"
     inkscape:current-layer="g2" /><defs
     id="defs1"><linearGradient
       id="swatch2"
       inkscape:swatch="solid"><stop
         style="stop-color:#000000;stop-opacity:1;"
         offset="0"
         id="stop2" /></linearGradient><linearGradient
       inkscape:collect="always"
       xlink:href="#swatch2"
       id="linearGradient2"
       x1="-51.799416"
       y1="26.680423"
       x2="-16.836037"
       y2="26.680423"
       gradientUnits="userSpaceOnUse"
       gradientTransform="matrix(-0.80707051,-0.80707051,0.70710678,-0.70710678,-3.908096,-2.9778154)" /></defs><g
     inkscape:label="Layer 1"
     inkscape:groupmode="layer"
     id="layer1"
     transform="matrix(0,1.2112922,-1.2112922,0,54.92251,-6.4566465)"><g
       id="g2"
       transform="matrix(0.46960164,0.46960164,-0.46960164,0.46960164,25.59535,1.5909268)"><g
         id="text1"
         style="font-size:4.6816px;stroke-width:0.147855"
         transform="scale(-1)"
         aria-label="COLLECT&#10;$200"><path
           style="font-weight:500;font-size:6.94284px;font-family:isaiahFont;-inkscape-font-specification:'isaiahFont, Medium';text-align:center;text-anchor:middle"
           d="m -36.199758,-53.546888 c 0.124971,-0.0486 0.27077,-0.06943 0.437398,-0.06943 0,0 0,0 0,0 0,0 0.111086,0 0.111086,0 0.229114,0.0069 0.41657,0.0486 0.56237,0.124971 0,0 0,0 0,0 0.326313,0.159686 0.492942,0.3402 0.492942,0.527656 0,0 0,0 0,0 0,0.06249 -0.02083,0.111086 -0.06943,0.159686 -0.0486,0.0486 -0.104142,0.06943 -0.173571,0.06943 0,0 0,0 0,0 -0.104142,0 -0.208285,-0.0486 -0.312428,-0.138857 0,0 0,0 0,0 -0.145799,-0.131914 -0.31937,-0.194399 -0.520713,-0.194399 0,0 0,0 0,0 -0.201342,0 -0.402684,0.06943 -0.597084,0.215228 -0.194399,0.145799 -0.354085,0.340199 -0.472113,0.597084 0,0 0,0 0,0 -0.118028,0.236057 -0.180514,0.541542 -0.180514,0.923398 0,0 0,0 0,0 0,0.222171 0.02083,0.402684 0.05554,0.541541 0.03471,0.138857 0.104142,0.326314 0.215228,0.555427 0,0 0,0 0,0 0.118028,0.243 0.215228,0.395742 0.284656,0.458228 0.06249,0.06249 0.173571,0.09026 0.319371,0.09026 0,0 0,0 0,0 0.131914,0 0.249942,-0.02777 0.367971,-0.08331 0.118028,-0.0486 0.298542,-0.159686 0.548484,-0.326314 0,0 0,0 0,0 0.201342,-0.138857 0.347142,-0.208285 0.451284,-0.208285 0,0 0,0 0,0 0.07637,0 0.138857,0.03471 0.187457,0.0972 0,0 0,0 0,0 0.0486,0.06249 0.07637,0.124971 0.07637,0.180514 0,0 0,0 0,0 0,0.118028 -0.166628,0.284656 -0.499884,0.506827 0,0 0,0 0,0 -0.270771,0.180514 -0.46517,0.298542 -0.597084,0.354085 -0.131914,0.05554 -0.284657,0.08331 -0.451285,0.08331 0,0 0,0 0,0 -0.01389,0 -0.03471,0 -0.06249,-0.0069 -0.02777,0 -0.0486,0 -0.06943,0 0,0 0,0 0,0 -0.256885,-0.0069 -0.451284,-0.05554 -0.569313,-0.138857 -0.124971,-0.07637 -0.263828,-0.249942 -0.41657,-0.51377 0,0 0,0 0,0 -0.159685,-0.277713 -0.277714,-0.534599 -0.340199,-0.770655 -0.06943,-0.229114 -0.104143,-0.492942 -0.104143,-0.784541 0,0 0,0 0,0 0,-0.104143 0,-0.180514 0.0069,-0.236057 0,0 0,0 0,0 0.01389,-0.298542 0.0486,-0.520713 0.104143,-0.680398 0,0 0,0 0,0 0.111085,-0.319371 0.277713,-0.597084 0.492941,-0.833141 0.215228,-0.236056 0.451285,-0.402685 0.722056,-0.499884 z m 4.082387,0.715112 c -0.187457,-0.02777 -0.2916,-0.0486 -0.312428,-0.05554 0,0 0,0 0,0 0,0 -0.01389,0 -0.01389,0 -0.04166,0 -0.111085,0.05554 -0.201342,0.159685 -0.0972,0.104142 -0.187457,0.229114 -0.277714,0.374913 0,0 0,0 0,0 -0.236056,0.381856 -0.354085,0.833141 -0.354085,1.339968 0,0 0,0 0,0 0,0.249943 0.03471,0.472114 0.104143,0.666513 0,0 0,0 0,0 0.06943,0.187457 0.180514,0.333256 0.326314,0.444342 0.145799,0.111085 0.298542,0.166628 0.458227,0.166628 0,0 0,0 0,0 0.131914,0 0.242999,-0.03471 0.347142,-0.0972 0,0 0,0 0,0 0.06249,-0.03471 0.152742,-0.138857 0.277714,-0.305485 0.118028,-0.159685 0.215228,-0.312428 0.291599,-0.458227 0,0 0,0 0,0 0.131914,-0.243 0.194399,-0.597084 0.194399,-1.062255 0,0 0,0 0,0 0,-0.229113 -0.01389,-0.395742 -0.03471,-0.499884 -0.02083,-0.104143 -0.06943,-0.208285 -0.145799,-0.326314 0,0 0,0 0,0 -0.118029,-0.194399 -0.3402,-0.312428 -0.65957,-0.347142 z m -0.638742,-0.541541 c 0.104143,-0.06943 0.1944,-0.104143 0.256886,-0.104143 0,0 0,0 0,0 0.03471,0 0.06943,0 0.09026,0.0069 0,0 0,0 0,0 0.02777,0.0069 0.0972,0.01389 0.208286,0.02083 0.111085,0.01389 0.194399,0.02777 0.242999,0.03471 0,0 0,0 0,0 0.520713,0.06249 0.895626,0.31937 1.110854,0.770655 0,0 0,0 0,0 0.118029,0.229114 0.173571,0.56237 0.173571,0.985883 0,0 0,0 0,0 -0.0069,0.374914 -0.04166,0.687341 -0.111085,0.930341 -0.06943,0.242999 -0.194399,0.506827 -0.374913,0.777598 0,0 0,0 0,0 -0.131914,0.201342 -0.249943,0.354085 -0.354085,0.458227 -0.104143,0.104143 -0.222171,0.187457 -0.340199,0.243 0,0 0,0 0,0 -0.180514,0.08331 -0.361028,0.124971 -0.548485,0.124971 0,0 0,0 0,0 -0.305485,0 -0.583198,-0.104143 -0.840083,-0.312428 -0.256885,-0.208285 -0.444342,-0.485999 -0.548485,-0.840084 0,0 0,0 0,0 -0.05554,-0.180513 -0.08331,-0.395741 -0.08331,-0.652627 0,0 0,0 0,0 0,-0.46517 0.07637,-0.888683 0.229114,-1.256654 0,0 0,0 0,0 0.0972,-0.236056 0.229114,-0.46517 0.402685,-0.694284 0.166628,-0.22217 0.326313,-0.388799 0.485998,-0.492941 z m 2.707709,-0.0486 c 0.06249,-0.06249 0.124971,-0.09026 0.201342,-0.09026 0,0 0,0 0,0 0.06943,0 0.124971,0.02777 0.173571,0.07637 0.0486,0.05554 0.06943,0.124971 0.06943,0.215228 0,0 0,0 0,0 0,0.118029 0.03471,0.51377 0.111085,1.187226 0,0 0,0 0,0 0.06943,0.701227 0.104143,1.277482 0.104143,1.742653 0,0 0,0 0,0 0,0.472113 0.0069,0.708169 0.02777,0.708169 0,0 0,0 0,0 0.02083,0 0.07637,-0.01389 0.152743,-0.03471 0,0 0,0 0,0 0.06943,-0.02083 0.291599,-0.05554 0.673455,-0.104142 0.381856,-0.0486 0.597084,-0.07637 0.65957,-0.09026 0,0 0,0 0,0 0.118028,-0.03471 0.222171,-0.0486 0.319371,-0.0486 0,0 0,0 0,0 0.187456,0 0.277713,0.09026 0.277713,0.277713 0,0 0,0 0,0 0,0.131914 -0.08331,0.236057 -0.256885,0.305485 -0.173571,0.06943 -0.506827,0.124972 -0.992826,0.173571 0,0 0,0 0,0 -0.340199,0.03471 -0.604027,0.09026 -0.798427,0.152743 0,0 0,0 0,0 -0.159685,0.0486 -0.256885,0.07637 -0.305485,0.07637 0,0 0,0 0,0 -0.02777,0 -0.06943,-0.01389 -0.131914,-0.03471 0,0 0,0 0,0 -0.104142,-0.0486 -0.173571,-0.138857 -0.194399,-0.270771 -0.02083,-0.124971 -0.03471,-0.46517 -0.03471,-1.013654 0,0 0,0 0,0 0,-0.617913 -0.02777,-1.208055 -0.07637,-1.78431 0,0 0,0 0,0 -0.0486,-0.492942 -0.06943,-0.85397 -0.06943,-1.076141 0,0 0,0 0,0 0,-0.124971 0.0069,-0.208285 0.01389,-0.249942 0.0069,-0.03471 0.03471,-0.07637 0.07637,-0.118028 z m 3.408929,0 c 0.06249,-0.06249 0.124971,-0.09026 0.201343,-0.09026 0,0 0,0 0,0 0.06943,0 0.124971,0.02777 0.173571,0.07637 0.0486,0.05554 0.06943,0.124971 0.06943,0.215228 0,0 0,0 0,0 0,0.118029 0.03471,0.51377 0.111085,1.187226 0,0 0,0 0,0 0.06943,0.701227 0.104143,1.277482 0.104143,1.742653 0,0 0,0 0,0 0,0.472113 0.0069,0.708169 0.02777,0.708169 0,0 0,0 0,0 0.02083,0 0.07637,-0.01389 0.152743,-0.03471 0,0 0,0 0,0 0.06943,-0.02083 0.291599,-0.05554 0.673455,-0.104142 0.381857,-0.0486 0.597085,-0.07637 0.65957,-0.09026 0,0 0,0 0,0 0.118029,-0.03471 0.222171,-0.0486 0.319371,-0.0486 0,0 0,0 0,0 0.187457,0 0.277713,0.09026 0.277713,0.277713 0,0 0,0 0,0 0,0.131914 -0.08331,0.236057 -0.256885,0.305485 -0.173571,0.06943 -0.506827,0.124972 -0.992826,0.173571 0,0 0,0 0,0 -0.340199,0.03471 -0.604027,0.09026 -0.798426,0.152743 0,0 0,0 0,0 -0.159686,0.0486 -0.256885,0.07637 -0.305485,0.07637 0,0 0,0 0,0 -0.02777,0 -0.06943,-0.01389 -0.131914,-0.03471 0,0 0,0 0,0 -0.104143,-0.0486 -0.173571,-0.138857 -0.1944,-0.270771 -0.02083,-0.124971 -0.03471,-0.46517 -0.03471,-1.013654 0,0 0,0 0,0 0,-0.617913 -0.02777,-1.208055 -0.07637,-1.78431 0,0 0,0 0,0 -0.0486,-0.492942 -0.06943,-0.85397 -0.06943,-1.076141 0,0 0,0 0,0 0,-0.124971 0.0069,-0.208285 0.01389,-0.249942 0.0069,-0.03471 0.03471,-0.07637 0.07637,-0.118028 z m 3.672757,-0.09026 c 0.02083,-0.0069 0.04166,-0.0069 0.06249,-0.01389 0.02083,-0.0069 0.04166,-0.0069 0.05554,-0.01389 0.01389,-0.0069 0.02777,-0.0069 0.02777,-0.0069 0,0 0,0 0,0 0.02777,0 0.249942,0.01389 0.65957,0.0486 0.409627,0.03471 0.749826,0.0486 1.006711,0.0486 0,0 0,0 0,0 0.201343,0 0.347142,0.01389 0.437399,0.0486 0.09026,0.03471 0.1458,0.0972 0.166628,0.187457 0,0 0,0 0,0 0.0069,0.01389 0.0069,0.03471 0.0069,0.06943 0,0 0,0 0,0 0,0.131914 -0.0486,0.222171 -0.138857,0.256886 0,0 0,0 0,0 -0.02777,0.01389 -0.111085,0.02083 -0.256885,0.02083 0,0 0,0 0,0 -0.354084,0 -0.805369,-0.02777 -1.353853,-0.08331 0,0 0,0 0,0 -0.131914,-0.02083 -0.256886,-0.02777 -0.374914,-0.02777 0,0 0,0 0,0 -0.04166,0 -0.06943,0.0069 -0.06943,0.0069 0,0 0,0 0,0 -0.0069,0.02083 -0.0069,0.04166 -0.0069,0.06943 0,0 0,0 0,0 0,0.131914 0.01389,0.361028 0.03471,0.673455 0.02083,0.312428 0.04166,0.485999 0.04166,0.485999 0,0 0.187457,0.01389 0.541542,0.01389 0,0 0,0 0,0 0.36797,0.0069 0.597084,0.02777 0.701227,0.06248 0.0972,0.03471 0.145799,0.124972 0.145799,0.256885 0,0 0,0 0,0 0,0.06943 -0.03471,0.131914 -0.0972,0.180514 0,0 0,0 0,0 -0.06248,0.0486 -0.208285,0.06943 -0.430456,0.06943 0,0 0,0 0,0 0,0 -0.256885,0 -0.256885,0 0,0 -0.229113,0 -0.229113,0 -0.243,0 -0.367971,0.0069 -0.381857,0.02083 0,0 0,0 0,0 -0.02083,0.02777 -0.03471,0.270771 -0.04166,0.735941 0,0 0,0 0,0 0,0 -0.01389,0.694284 -0.01389,0.694284 0,0 1.020597,0 1.020597,0 0.451285,0 0.742884,0 0.867855,0.0069 0.118028,0.0069 0.201342,0.02777 0.249942,0.05554 0,0 0,0 0,0 0.09026,0.05554 0.138857,0.1458 0.138857,0.263828 0,0 0,0 0,0 0,0.0972 -0.04166,0.180514 -0.118028,0.242999 0,0 0,0 0,0 -0.04166,0.03471 -0.08331,0.05554 -0.124971,0.05554 0,0 0,0 0,0 -0.03471,0 -0.08331,-0.0069 -0.1458,-0.02777 0,0 0,0 0,0 -0.06943,-0.01389 -0.194399,-0.02083 -0.374913,-0.02083 0,0 0,0 0,0 -0.312428,0 -0.604027,0.0069 -0.867855,0.01389 0,0 0,0 0,0 -0.270771,0.0069 -0.541542,0.01389 -0.819255,0.01389 0,0 0,0 0,0 -0.187457,0 -0.298542,-0.02083 -0.333257,-0.05554 0,0 0,0 0,0 -0.0486,-0.0486 -0.08331,-0.111086 -0.0972,-0.180514 0,0 0,0 0,0 -0.0069,-0.01389 -0.0069,-0.07637 -0.0069,-0.1944 0,0 0,0 0,0 0,-0.222171 0.0069,-0.492941 0.02083,-0.812312 0,0 0,0 0,0 0.02083,-0.555427 0.04166,-1.194168 0.0486,-1.923167 0,0 0,0 0,0 0.0069,-0.51377 0.01389,-0.819255 0.02083,-0.909512 0.0069,-0.09026 0.02777,-0.159685 0.06943,-0.208285 0,0 0,0 0,0 0.0486,-0.05554 0.124971,-0.0972 0.215228,-0.124971 z m 4.380937,-0.03471 c 0.124971,-0.0486 0.270771,-0.06943 0.437399,-0.06943 0,0 0,0 0,0 0,0 0.111085,0 0.111085,0 0.229114,0.0069 0.416571,0.0486 0.56237,0.124971 0,0 0,0 0,0 0.326314,0.159686 0.492942,0.3402 0.492942,0.527656 0,0 0,0 0,0 0,0.06249 -0.02083,0.111086 -0.06943,0.159686 -0.0486,0.0486 -0.104143,0.06943 -0.173571,0.06943 0,0 0,0 0,0 -0.104143,0 -0.208286,-0.0486 -0.312428,-0.138857 0,0 0,0 0,0 -0.1458,-0.131914 -0.319371,-0.194399 -0.520713,-0.194399 0,0 0,0 0,0 -0.201343,0 -0.402685,0.06943 -0.597084,0.215228 -0.1944,0.145799 -0.354085,0.340199 -0.472114,0.597084 0,0 0,0 0,0 -0.118028,0.236057 -0.180513,0.541542 -0.180513,0.923398 0,0 0,0 0,0 0,0.222171 0.02083,0.402684 0.05554,0.541541 0.03471,0.138857 0.104143,0.326314 0.215228,0.555427 0,0 0,0 0,0 0.118029,0.243 0.215228,0.395742 0.284657,0.458228 0.06248,0.06249 0.173571,0.09026 0.31937,0.09026 0,0 0,0 0,0 0.131914,0 0.249943,-0.02777 0.367971,-0.08331 0.118028,-0.0486 0.298542,-0.159686 0.548484,-0.326314 0,0 0,0 0,0 0.201343,-0.138857 0.347142,-0.208285 0.451285,-0.208285 0,0 0,0 0,0 0.07637,0 0.138857,0.03471 0.187457,0.0972 0,0 0,0 0,0 0.0486,0.06249 0.07637,0.124971 0.07637,0.180514 0,0 0,0 0,0 0,0.118028 -0.166628,0.284656 -0.499885,0.506827 0,0 0,0 0,0 -0.27077,0.180514 -0.46517,0.298542 -0.597084,0.354085 -0.131914,0.05554 -0.284656,0.08331 -0.451284,0.08331 0,0 0,0 0,0 -0.01389,0 -0.03472,0 -0.06249,-0.0069 -0.02777,0 -0.0486,0 -0.06943,0 0,0 0,0 0,0 -0.256886,-0.0069 -0.451285,-0.05554 -0.569313,-0.138857 -0.124971,-0.07637 -0.263828,-0.249942 -0.416571,-0.51377 0,0 0,0 0,0 -0.159685,-0.277713 -0.277713,-0.534599 -0.340199,-0.770655 -0.06943,-0.229114 -0.104143,-0.492942 -0.104143,-0.784541 0,0 0,0 0,0 0,-0.104143 0,-0.180514 0.0069,-0.236057 0,0 0,0 0,0 0.01389,-0.298542 0.0486,-0.520713 0.104143,-0.680398 0,0 0,0 0,0 0.111085,-0.319371 0.277714,-0.597084 0.492942,-0.833141 0.215228,-0.236056 0.451284,-0.402685 0.722055,-0.499884 z m 4.200414,-0.04166 c 0.430456,-0.02083 0.826198,-0.02777 1.194169,-0.02777 0,0 0,0 0,0 0.31937,0 0.51377,0.0069 0.590141,0.02777 0,0 0,0 0,0 0.09026,0.02083 0.159685,0.05554 0.208285,0.104142 0.0486,0.05554 0.06943,0.118029 0.06943,0.180514 0,0 0,0 0,0 0,0.07637 -0.02777,0.138857 -0.09026,0.201343 0,0 0,0 0,0 -0.03471,0.03471 -0.08331,0.06248 -0.131914,0.06943 -0.0486,0.0069 -0.187457,0.01389 -0.402685,0.01389 0,0 0,0 0,0 0,0 -0.36797,0 -0.36797,0 0,0 -0.812313,0 -0.812313,0 0,0 0.02083,0.347142 0.02083,0.347142 0.05554,0.756769 0.0972,1.58991 0.118028,2.499422 0,0 0,0 0,0 0.0069,0.173571 0.0069,0.361028 0.0069,0.56237 0,0 0,0 0,0 0,0.159685 -0.02083,0.263828 -0.06249,0.305485 0,0 0,0 0,0 -0.0486,0.06249 -0.131914,0.09026 -0.249942,0.09026 0,0 0,0 0,0 -0.0486,0 -0.09026,-0.01389 -0.124971,-0.03471 0,0 0,0 0,0 -0.06943,-0.0486 -0.111085,-0.1458 -0.124971,-0.284657 -0.02083,-0.131914 -0.03471,-0.548484 -0.0486,-1.242768 0,0 0,0 0,0 -0.01389,-0.840084 -0.03471,-1.437168 -0.05554,-1.777367 0,0 0,0 0,0 0,0 -0.02777,-0.409628 -0.02777,-0.409628 0,0 -0.673456,0 -0.673456,0 -0.451284,0 -0.701226,-0.0069 -0.756769,-0.02777 0,0 0,0 0,0 -0.09026,-0.03471 -0.138857,-0.111085 -0.138857,-0.229114 0,0 0,0 0,0 0,-0.104142 0.04166,-0.180514 0.118028,-0.222171 0,0 0,0 0,0 0.08331,-0.0486 0.666513,-0.0972 1.742653,-0.145799 z"
           id="path1" /><path
           style="font-weight:500;font-size:6.94284px;font-family:isaiahFont;-inkscape-font-specification:'isaiahFont, Medium';text-align:center;text-anchor:middle"
           d="m -29.826239,-41.882917 c -0.09026,-0.124971 -0.152743,-0.187457 -0.180514,-0.187457 -0.02777,0 -0.04166,0.180514 -0.04166,0.534599 0,0.270771 0.0069,0.423513 0.01389,0.472113 0.0069,0.0486 0.04166,0.06943 0.09026,0.06943 0.0486,0 0.111085,-0.02777 0.173571,-0.09026 0.06249,-0.05554 0.111085,-0.118029 0.138856,-0.1944 0.0069,-0.02777 0.01389,-0.05554 0.01389,-0.07637 0,-0.159685 -0.06943,-0.333256 -0.208285,-0.527656 z m -0.874798,-1.839853 c -0.02083,-0.09026 -0.04166,-0.131913 -0.07637,-0.131913 -0.03471,0 -0.09026,0.04166 -0.166628,0.124971 -0.104143,0.118028 -0.159686,0.242999 -0.159686,0.374913 0,0.05554 0.0069,0.0972 0.02777,0.131914 0.02083,0.03471 0.08331,0.08331 0.173571,0.131914 0.09026,0.0486 0.152742,0.07637 0.201342,0.07637 0.02083,0 0.02777,-0.0972 0.02777,-0.291599 0,-0.166628 -0.0069,-0.305485 -0.02777,-0.416571 z m 0.173571,-1.39551 c 0.06248,-0.02777 0.0972,-0.04166 0.118028,-0.04166 0.02083,0 0.06249,0.02083 0.124971,0.06943 0.04166,0.02777 0.06943,0.06249 0.08331,0.111085 0.0069,0.0486 0.01389,0.1458 0.01389,0.298543 0,0 0,0.354084 0,0.354084 0,0 0.451285,0.1458 0.451285,0.1458 0.180514,0.06249 0.305485,0.104143 0.36797,0.138857 0.06249,0.03471 0.0972,0.06943 0.104143,0.111085 0.0069,0.02777 0.01389,0.06943 0.01389,0.118029 0,0.09026 -0.0486,0.159685 -0.138857,0.208285 -0.0486,0.02083 -0.09026,0.03471 -0.124971,0.03471 -0.05554,0 -0.152743,-0.02083 -0.2916,-0.06943 -0.145799,-0.0486 -0.242999,-0.07637 -0.305485,-0.07637 0,0 -0.01388,0 -0.01388,0 -0.0069,0.02083 -0.0069,0.0486 -0.0069,0.08331 0,0.09026 0.0069,0.215228 0.02083,0.367971 0,0 0.02777,0.437399 0.02777,0.437399 0,0 0.187456,0.111085 0.187456,0.111085 0.131914,0.07637 0.270771,0.187457 0.416571,0.347142 0.298542,0.312428 0.451284,0.638742 0.451284,0.978941 0,0.145799 -0.02777,0.270771 -0.07637,0.374913 -0.07637,0.180514 -0.173571,0.312428 -0.284656,0.402685 -0.118029,0.09026 -0.263828,0.152742 -0.451285,0.187457 0,0 -0.187457,0.03471 -0.187457,0.03471 0,0 -0.01389,0.291599 -0.01389,0.291599 -0.0069,0.201342 -0.02083,0.333256 -0.04166,0.395742 -0.02083,0.06249 -0.06249,0.104142 -0.138857,0.138857 -0.04166,0.02083 -0.08331,0.02777 -0.124971,0.02777 -0.03471,0 -0.06943,-0.0069 -0.104143,-0.02777 -0.118028,-0.06249 -0.180514,-0.270771 -0.180514,-0.617913 0,0 0,-0.354085 0,-0.354085 0,0 -0.263828,-0.159685 -0.263828,-0.159685 -0.166628,-0.104143 -0.333256,-0.236057 -0.492941,-0.409628 -0.104143,-0.111085 -0.166628,-0.187456 -0.187457,-0.236056 -0.02777,-0.0486 -0.04166,-0.118029 -0.04166,-0.208286 0,-0.201342 0.08331,-0.305485 0.256885,-0.312427 0.07637,0 0.152743,0.04166 0.215228,0.124971 0.06249,0.09026 0.152743,0.187456 0.263828,0.298542 0.111086,0.118028 0.180514,0.173571 0.201342,0.173571 0.03472,0 0.0486,-0.180514 0.0486,-0.548484 0,0 0,-0.548485 0,-0.548485 0,0 -0.333256,-0.124971 -0.333256,-0.124971 -0.381856,-0.1458 -0.617913,-0.367971 -0.701227,-0.652627 -0.02083,-0.08331 -0.02777,-0.1458 -0.02777,-0.194399 0,-0.229114 0.08331,-0.451285 0.242999,-0.673456 0.159686,-0.215228 0.347142,-0.347142 0.555427,-0.388799 0.07637,-0.02083 0.118029,-0.04166 0.138857,-0.06943 0.01389,-0.02083 0.02777,-0.0972 0.03471,-0.222171 0.01389,-0.152743 0.03471,-0.256885 0.05554,-0.312428 0.02083,-0.0486 0.06943,-0.09026 0.138857,-0.118028 z m 4.054623,0.06248 c 0.326313,0.07637 0.597084,0.333257 0.756769,0.70817 0.1944,0.451284 0.243,0.763712 0.215228,1.360797 -0.01389,0.187456 -0.02083,0.374913 -0.03471,0.423513 -0.0069,0.04166 -0.02083,0.145799 -0.02777,0.229113 -0.04166,0.3888 -0.07637,0.597085 -0.215228,1.145569 -0.03471,0.138857 -0.0972,0.312428 -0.152743,0.437399 -0.03471,0.08331 -0.03471,0.09026 -0.0069,0.111085 0.02083,0.02083 0.06249,0.03471 0.131914,0.03471 0.09026,0.0069 0.111086,0 0.1944,-0.04166 0.07637,-0.04166 0.0972,-0.0486 0.208285,-0.0486 0.104143,0 0.124971,0 0.180514,0.04166 0.138857,0.104142 0.194399,0.270771 0.138857,0.423513 -0.0486,0.118028 -0.208286,0.249942 -0.416571,0.326314 -0.06943,0.02777 -0.118028,0.03471 -0.249942,0.03471 -0.201342,0 -0.298542,-0.02083 -0.56237,-0.131914 0,0 -0.0972,-0.04166 -0.0972,-0.04166 0,0 -0.08331,0.05554 -0.08331,0.05554 -0.229114,0.152743 -0.374913,0.201343 -0.680398,0.201343 -0.430456,0 -0.715113,-0.0972 -1.020598,-0.340199 -0.06248,-0.0486 -0.208285,-0.229114 -0.236056,-0.305485 -0.08331,-0.180514 -0.0972,-0.340199 -0.0486,-0.506828 0.05554,-0.194399 0.138857,-0.326313 0.277713,-0.430456 0.222171,-0.159685 0.583199,-0.187456 0.992827,-0.06943 0.201342,0.06249 0.374913,0.152742 0.541541,0.291599 0.0486,0.04166 0.09026,0.05554 0.09026,0.05554 0.01389,-0.02083 0.08331,-0.229114 0.104143,-0.319371 0.03471,-0.145799 0.06249,-0.242999 0.07637,-0.305485 0.03471,-0.138857 0.09026,-0.430456 0.111085,-0.61097 0.0069,-0.06943 0.01389,-0.187456 0.02777,-0.263828 0.07637,-0.694284 0.06249,-0.992826 -0.07637,-1.388568 -0.07637,-0.229113 -0.180513,-0.361027 -0.298542,-0.395741 -0.08331,-0.02777 -0.333256,-0.02083 -0.458227,0 -0.222171,0.0486 -0.347142,0.173571 -0.506827,0.506827 -0.06249,0.138857 -0.0972,0.208285 -0.0972,0.229114 0,0 -0.01389,0.06248 -0.03471,0.118028 -0.03472,0.124971 -0.124972,0.222171 -0.215228,0.236056 -0.0972,0.02083 -0.1944,0 -0.256886,-0.0486 -0.118028,-0.09026 -0.159685,-0.208286 -0.138856,-0.3888 0.01389,-0.07637 0.05554,-0.229113 0.08331,-0.291599 0.0069,-0.01388 0.02777,-0.0486 0.04166,-0.08331 0.194399,-0.444342 0.458227,-0.756769 0.742884,-0.867855 0.124971,-0.05554 0.194399,-0.06943 0.347142,-0.0972 0.180513,-0.02777 0.506827,-0.02777 0.652627,0.0069 z m -1.291369,4.290675 c -0.02777,0.0486 0.0972,0.152743 0.256885,0.208286 0.08331,0.03471 0.409628,0.06249 0.430457,0.03471 0.03471,-0.02777 -0.201343,-0.187457 -0.326314,-0.215228 -0.02777,-0.0069 -0.07637,-0.02083 -0.104143,-0.02777 -0.07637,-0.02083 -0.242999,-0.02083 -0.256885,0 z m 4.735012,-4.262903 c 0.06249,0.04166 0.0972,0.0486 0.201342,0.06248 0.312428,0.02777 0.485999,0.118028 0.728999,0.367971 0.138856,0.145799 0.242999,0.298542 0.326313,0.485998 0.0972,0.1944 0.111086,0.222171 0.131914,0.305485 0.01389,0.04166 0.03471,0.0972 0.04166,0.124972 0.02777,0.09026 0.05554,0.236056 0.09026,0.430456 0.0486,0.326313 0.02777,0.826198 -0.04166,1.228882 -0.05554,0.298542 -0.09026,0.444342 -0.173571,0.65957 -0.02083,0.05554 -0.03471,0.09026 -0.09026,0.201342 -0.03471,0.0972 -0.229114,0.479056 -0.277713,0.562371 -0.138857,0.229113 -0.284657,0.409627 -0.451285,0.541541 -0.06249,0.05554 -0.131914,0.0972 -0.131914,0.0972 0,0 -0.02777,0.0069 -0.03471,0.02083 -0.04166,0.03471 -0.229114,0.0972 -0.361028,0.124971 -0.249942,0.05554 -0.56237,0.02777 -0.742884,-0.06248 -0.194399,-0.0972 -0.437399,-0.423513 -0.590141,-0.784541 -0.04166,-0.09026 -0.08331,-0.187457 -0.09026,-0.208285 -0.01389,-0.02777 -0.02083,-0.0486 -0.02083,-0.06249 0,0 -0.0069,-0.03471 -0.02083,-0.05554 -0.0486,-0.118028 -0.09026,-0.236056 -0.131914,-0.402684 -0.01389,-0.0486 -0.02777,-0.111086 -0.03471,-0.1458 -0.06249,-0.242999 -0.08331,-0.409627 -0.08331,-0.805369 0,-0.305485 0.0069,-0.423514 0.02777,-0.534599 0.0486,-0.270771 0.06943,-0.374913 0.1458,-0.583199 0.02777,-0.07637 0.180513,-0.381856 0.249942,-0.506827 0.02777,-0.0486 0.06248,-0.118028 0.08331,-0.1458 0.09026,-0.173571 0.319371,-0.485998 0.458227,-0.638741 0.138857,-0.145799 0.305485,-0.256885 0.479056,-0.312428 0.104143,-0.03471 0.222171,-0.02083 0.312428,0.03472 z m -0.347142,0.742883 c -0.180514,0.180514 -0.520713,0.791484 -0.624855,1.117798 -0.09026,0.277713 -0.131914,0.756769 -0.09026,1.07614 0.03471,0.249942 0.0972,0.548484 0.152742,0.701227 0.01389,0.03471 0.02777,0.07637 0.03471,0.0972 0.01389,0.02083 0.02777,0.07637 0.0486,0.118028 0.01389,0.04166 0.03471,0.0972 0.04166,0.118028 0.0069,0.02083 0.02083,0.0486 0.02777,0.06943 0.0069,0.01389 0.04166,0.07637 0.06943,0.138857 0.02777,0.06943 0.08331,0.166628 0.118028,0.215228 0.08331,0.131914 0.131914,0.152743 0.298542,0.1458 0.1458,-0.01389 0.222171,-0.04166 0.333257,-0.124971 0.06943,-0.05554 0.208285,-0.222171 0.208285,-0.249942 0,0 0.0069,-0.02083 0.02083,-0.03471 0.08331,-0.0972 0.326314,-0.604027 0.409628,-0.853969 0.04166,-0.131914 0.0486,-0.166628 0.09026,-0.430456 0.138857,-0.826198 -0.0069,-1.576025 -0.388799,-1.957881 -0.0972,-0.09026 -0.166628,-0.124971 -0.319371,-0.131914 -0.131914,-0.01389 -0.270771,-0.04166 -0.31937,-0.06943 -0.04166,-0.02083 -0.03471,-0.02083 -0.111086,0.05554 z m 3.929653,-0.742883 c 0.06249,0.04166 0.0972,0.0486 0.201342,0.06248 0.312428,0.02777 0.485999,0.118028 0.728999,0.367971 0.138856,0.145799 0.242999,0.298542 0.326313,0.485998 0.0972,0.1944 0.111086,0.222171 0.131914,0.305485 0.01389,0.04166 0.03471,0.0972 0.04166,0.124972 0.02777,0.09026 0.05554,0.236056 0.09026,0.430456 0.0486,0.326313 0.02777,0.826198 -0.04166,1.228882 -0.05554,0.298542 -0.09026,0.444342 -0.173571,0.65957 -0.02083,0.05554 -0.03471,0.09026 -0.09026,0.201342 -0.03471,0.0972 -0.229114,0.479056 -0.277714,0.562371 -0.138856,0.229113 -0.284656,0.409627 -0.451284,0.541541 -0.06249,0.05554 -0.131914,0.0972 -0.131914,0.0972 0,0 -0.02777,0.0069 -0.03471,0.02083 -0.04166,0.03471 -0.229114,0.0972 -0.361028,0.124971 -0.249942,0.05554 -0.56237,0.02777 -0.742884,-0.06248 -0.194399,-0.0972 -0.437399,-0.423513 -0.590141,-0.784541 -0.04166,-0.09026 -0.08331,-0.187457 -0.09026,-0.208285 -0.01389,-0.02777 -0.02083,-0.0486 -0.02083,-0.06249 0,0 -0.0069,-0.03471 -0.02083,-0.05554 -0.0486,-0.118028 -0.09026,-0.236056 -0.131914,-0.402684 -0.01389,-0.0486 -0.02777,-0.111086 -0.03471,-0.1458 -0.06249,-0.242999 -0.08331,-0.409627 -0.08331,-0.805369 0,-0.305485 0.0069,-0.423514 0.02777,-0.534599 0.0486,-0.270771 0.06943,-0.374913 0.1458,-0.583199 0.02777,-0.07637 0.180513,-0.381856 0.249942,-0.506827 0.02777,-0.0486 0.06248,-0.118028 0.08331,-0.1458 0.09026,-0.173571 0.31937,-0.485998 0.458227,-0.638741 0.138857,-0.145799 0.305485,-0.256885 0.479056,-0.312428 0.104143,-0.03471 0.222171,-0.02083 0.312428,0.03472 z m -0.347142,0.742883 c -0.180514,0.180514 -0.520713,0.791484 -0.624856,1.117798 -0.09026,0.277713 -0.131914,0.756769 -0.09026,1.07614 0.03471,0.249942 0.0972,0.548484 0.152742,0.701227 0.01389,0.03471 0.02777,0.07637 0.03471,0.0972 0.01389,0.02083 0.02777,0.07637 0.0486,0.118028 0.01389,0.04166 0.03471,0.0972 0.04166,0.118028 0.0069,0.02083 0.02083,0.0486 0.02777,0.06943 0.0069,0.01389 0.04166,0.07637 0.06943,0.138857 0.02777,0.06943 0.08331,0.166628 0.118028,0.215228 0.08331,0.131914 0.131914,0.152743 0.298542,0.1458 0.1458,-0.01389 0.222171,-0.04166 0.333257,-0.124971 0.06943,-0.05554 0.208285,-0.222171 0.208285,-0.249942 0,0 0.0069,-0.02083 0.02083,-0.03471 0.08331,-0.0972 0.326314,-0.604027 0.409628,-0.853969 0.04166,-0.131914 0.0486,-0.166628 0.09026,-0.430456 0.138857,-0.826198 -0.0069,-1.576025 -0.388799,-1.957881 -0.0972,-0.09026 -0.166628,-0.124971 -0.319371,-0.131914 -0.131914,-0.01389 -0.270771,-0.04166 -0.31937,-0.06943 -0.04166,-0.02083 -0.03471,-0.02083 -0.111086,0.05554 z"
           id="path2" /></g><path
         style="font-weight:500;font-size:41.7458px;font-family:isaiahFont;-inkscape-font-specification:'isaiahFont, Medium';text-align:center;text-anchor:middle;stroke-width:0.147855"
         d="m -32.990394,-36.772463 c 0.375712,-0.04175 1.001899,-0.08349 1.962052,-0.08349 0,0 0,0 0,0 1.669832,0 2.755223,0.08349 3.256173,0.292221 0,0 0,0 0,0 0.876661,0.375712 1.335865,0.960153 1.335865,1.795069 0,0 0,0 0,0 0,0.292221 -0.08349,0.542696 -0.250475,0.793171 0,0 0,0 0,0 -0.459203,0.542695 -1.127136,0.834916 -2.045544,0.834916 0,0 0,0 0,0 -0.29222,0 -0.542695,0 -0.751424,-0.04175 0,0 0,0 0,0 -0.292221,-0.04175 -0.709679,-0.04175 -1.252374,-0.04175 0,0 0,0 0,0 -1.878561,0 -3.506647,0.333966 -4.842513,0.960153 0,0 0,0 0,0 -1.127137,0.542696 -2.337765,1.502849 -3.548393,2.880461 -1.210628,1.377611 -2.129036,2.796968 -2.671731,4.17458 0,0 0,0 0,0 -0.542696,1.294119 -0.79317,2.671731 -0.79317,4.091088 0,0 0,0 0,0 0,1.461103 0.29222,2.755223 0.834916,3.882359 0.542695,1.127137 1.252374,1.920307 2.212527,2.337765 0,0 0,0 0,0 0.709679,0.292221 1.878561,0.459204 3.590139,0.459204 0,0 0,0 0,0 0.667933,0 1.252374,-0.04175 1.753323,-0.166983 0,0 0,0 0,0 0.709679,-0.250475 1.29412,-0.542696 1.711578,-0.918408 0,0 0,0 0,0 0.459204,-0.417458 0.918408,-1.085391 1.377612,-1.962052 0.417458,-0.876662 0.626187,-1.586341 0.626187,-2.129036 0,0 0,0 0,0 0,-0.375712 -0.04175,-0.667933 -0.125238,-0.79317 -0.125237,-0.125238 -0.417458,-0.292221 -0.876662,-0.50095 0,0 0,0 0,0 -0.584441,-0.250475 -1.168882,-0.375712 -1.795069,-0.375712 0,0 0,0 0,0 -0.166983,0 -0.667933,0.04175 -1.502849,0.08349 0,0 0,0 0,0 -1.836815,0.125238 -2.88046,0.208729 -3.130935,0.250475 0,0 0,0 0,0 -0.29222,0.04175 -0.459204,0.08349 -0.542695,0.08349 0,0 0,0 0,0 -0.292221,0 -0.50095,-0.125238 -0.709679,-0.375712 0,0 0,0 0,0 -0.29222,-0.292221 -0.417458,-0.667933 -0.417458,-1.043645 0,0 0,0 0,0 0,-0.417458 0.166983,-0.834916 0.542696,-1.210629 0.375712,-0.375712 0.834916,-0.626187 1.419357,-0.79317 0,0 0,0 0,0 0.876662,-0.250475 2.045544,-0.375712 3.506647,-0.375712 0,0 0,0 0,0 1.168882,0 2.08729,0.08349 2.755223,0.250475 0,0 0,0 0,0 1.502849,0.375712 2.588239,0.960153 3.297918,1.669832 0.709679,0.751424 1.043645,1.753323 1.043645,3.005697 0,0 0,0 0,0 0,1.79507 -0.50095,3.506648 -1.502849,5.092988 -1.001899,1.58634 -2.254273,2.671731 -3.798868,3.297918 0,0 0,0 0,0 -1.001899,0.375712 -2.296019,0.542696 -3.840613,0.542696 0,0 0,0 0,0 -1.544595,0 -2.922206,-0.166984 -4.216326,-0.542696 0,0 0,0 0,0 -2.045544,-0.626187 -3.590139,-2.003798 -4.633784,-4.216326 0,0 0,0 0,0 -0.79317,-1.669832 -1.168882,-3.339664 -1.168882,-5.051241 0,0 0,0 0,0 0,-0.125238 0,-0.292221 0.04175,-0.542696 0,-0.250475 0,-0.459204 0,-0.584441 0,0 0,0 0,0 0.208729,-3.840614 1.795069,-7.347261 4.842512,-10.561687 0,0 0,0 0,0 2.463003,-2.58824 5.218225,-4.091089 8.307415,-4.466801 z m 20.413698,3.047443 c -1.127136,-0.166983 -1.753323,-0.29222 -1.878561,-0.333966 0,0 0,0 0,0 0,0 -0.08349,0 -0.08349,0 -0.250475,0 -0.667933,0.333966 -1.210629,0.960153 -0.584441,0.626187 -1.127136,1.377612 -1.669832,2.254274 0,0 0,0 0,0 -1.419357,2.296019 -2.129035,5.009496 -2.129035,8.056939 0,0 0,0 0,0 0,1.502849 0.208729,2.838714 0.626187,4.007597 0,0 0,0 0,0 0.417458,1.127136 1.08539,2.003798 1.962052,2.671731 0.876662,0.667933 1.79507,1.001899 2.755223,1.001899 0,0 0,0 0,0 0.79317,0 1.461103,-0.208729 2.08729,-0.584441 0,0 0,0 0,0 0.375712,-0.208729 0.918408,-0.834916 1.669832,-1.836815 0.7096787,-0.960154 1.2941199,-1.878561 1.7533237,-2.755223 0,0 0,0 0,0 0.7931702,-1.461103 1.1688824,-3.590139 1.1688824,-6.387107 0,0 0,0 0,0 0,-1.377612 -0.083492,-2.379511 -0.208729,-3.005698 -0.1252374,-0.626187 -0.417458,-1.252374 -0.8766618,-1.962053 0,0 0,0 0,0 -0.7096786,-1.168882 -2.0455443,-1.878561 -3.9658513,-2.08729 z m -3.840613,-3.256172 c 0.626187,-0.417458 1.168882,-0.626187 1.544594,-0.626187 0,0 0,0 0,0 0.208729,0 0.417458,0 0.542696,0.04175 0,0 0,0 0,0 0.166983,0.04175 0.584441,0.08349 1.252374,0.125237 0.667932,0.08349 1.168882,0.166983 1.461103,0.208729 0,0 0,0 0,0 3.1309347,0.375712 5.3852079,1.920307 6.6793277,4.633784 0,0 0,0 0,0 0.7096786,1.377611 1.043645,3.38141 1.043645,5.927904 0,0 0,0 0,0 -0.041746,2.254273 -0.2504748,4.132834 -0.6679328,5.593937 -0.417458,1.461103 -1.1688824,3.047443 -2.2542732,4.675529 0,0 0,0 0,0 -0.7931702,1.210629 -1.5028488,2.129036 -2.1290358,2.755223 -0.626187,0.626187 -1.3358659,1.127137 -2.0455439,1.461103 0,0 0,0 0,0 -1.085391,0.50095 -2.170782,0.751425 -3.297919,0.751425 0,0 0,0 0,0 -1.836815,0 -3.506647,-0.626187 -5.051241,-1.878561 -1.544595,-1.252374 -2.671732,-2.922206 -3.297919,-5.051242 0,0 0,0 0,0 -0.333966,-1.085391 -0.500949,-2.379511 -0.500949,-3.924105 0,0 0,0 0,0 0,-2.796969 0.459204,-5.343463 1.377611,-7.55599 0,0 0,0 0,0 0.584441,-1.419357 1.377612,-2.796969 2.421257,-4.17458 1.001899,-1.335866 1.962052,-2.337765 2.922206,-2.963952 z"
         id="text1-2"
         transform="scale(-1)"
         aria-label="GO" /><path
         id="rect2"
         style="fill:#d40000;fill-opacity:1;stroke:url(#linearGradient2);stroke-width:0.497241;stroke-dasharray:none;paint-order:markers fill stroke"
         d="m 48.326663,17.193115 8.436931,2.768942 -2.768942,-8.436931 -1.6557,1.6557 L 29.723976,-9.4341496 27.367387,-7.07756 49.982363,15.537416 Z" /></g></g><style
     type="text/css"
     id="style1"><![CDATA[
	.st0{fill-rule:evenodd;clip-rule:evenodd;}
]]></style><style
     type="text/css"
     id="style1-3">.st0{fill-rule:evenodd;clip-rule:evenodd;}</style></svg>
