<?xml version="1.0" encoding="UTF-8" standalone="no"?>
<!-- Created with Inkscape (http://www.inkscape.org/) -->

<svg
   width="50mm"
   height="50mm"
   viewBox="0 0 50 50"
   version="1.1"
   id="svg1"
   inkscape:version="1.3 (0e150ed6c4, 2023-07-21)"
   sodipodi:docname="goToJail.svg"
   xml:space="preserve"
   xmlns:inkscape="http://www.inkscape.org/namespaces/inkscape"
   xmlns:sodipodi="http://sodipodi.sourceforge.net/DTD/sodipodi-0.dtd"
   xmlns="http://www.w3.org/2000/svg"
   xmlns:svg="http://www.w3.org/2000/svg"><sodipodi:namedview
     id="namedview1"
     pagecolor="#ffffff"
     bordercolor="#666666"
     borderopacity="1.0"
     inkscape:showpageshadow="2"
     inkscape:pageopacity="0.0"
     inkscape:pagecheckerboard="0"
     inkscape:deskcolor="#d1d1d1"
     inkscape:document-units="mm"
     inkscape:zoom="2.3786088"
     inkscape:cx="108.67697"
     inkscape:cy="101.95035"
     inkscape:window-width="1948"
     inkscape:window-height="1070"
     inkscape:window-x="132"
     inkscape:window-y="359"
     inkscape:window-maximized="0"
     inkscape:current-layer="g2" /><defs
     id="defs1"><linearGradient
       id="swatch4"
       inkscape:swatch="solid"><stop
         style="stop-color:#000000;stop-opacity:1;"
         offset="0"
         id="stop4" /></linearGradient><linearGradient
       id="swatch3"
       inkscape:swatch="solid"><stop
         style="stop-color:#000000;stop-opacity:1;"
         offset="0"
         id="stop3" /></linearGradient></defs><g
     inkscape:label="Layer 1"
     inkscape:groupmode="layer"
     id="layer1"
     transform="matrix(0,1.2112922,-1.2112922,0,54.92251,-6.4566465)"><g
       id="g2"
       transform="matrix(0.46960164,0.46960164,-0.46960164,0.46960164,25.59535,1.5909268)"><path
         style="font-size:10.4081px;font-family:isaiahFont;-inkscape-font-specification:'isaiahFont, Normal';text-align:center;text-anchor:middle;stroke-width:0.328904"
         d="m 14.742235,-52.732664 c 0.09367,-0.01041 0.249794,-0.02082 0.489181,-0.02082 0,0 0,0 0,0 0.416324,0 0.686934,0.02082 0.811831,0.07286 0,0 0,0 0,0 0.21857,0.09367 0.33306,0.239387 0.33306,0.447549 0,0 0,0 0,0 0,0.07286 -0.02082,0.135305 -0.06245,0.197753 0,0 0,0 0,0 -0.114489,0.135306 -0.281019,0.208162 -0.509997,0.208162 0,0 0,0 0,0 -0.07286,0 -0.135305,0 -0.187346,-0.01041 0,0 0,0 0,0 -0.07286,-0.01041 -0.176937,-0.01041 -0.312243,-0.01041 0,0 0,0 0,0 -0.468364,0 -0.87428,0.08327 -1.207339,0.239387 0,0 0,0 0,0 -0.281019,0.135305 -0.582854,0.374691 -0.884689,0.718158 -0.301835,0.343468 -0.530813,0.697343 -0.666118,1.04081 0,0 0,0 0,0 -0.135306,0.322652 -0.197754,0.666119 -0.197754,1.019994 0,0 0,0 0,0 0,0.364284 0.07286,0.686935 0.208162,0.967954 0.135305,0.281018 0.312243,0.478772 0.551629,0.582853 0,0 0,0 0,0 0.176938,0.07286 0.468365,0.114489 0.895097,0.114489 0,0 0,0 0,0 0.166529,0 0.312243,-0.01041 0.43714,-0.04163 0,0 0,0 0,0 0.176938,-0.06245 0.322651,-0.135305 0.426732,-0.228978 0,0 0,0 0,0 0.114489,-0.104081 0.228978,-0.270611 0.343467,-0.489181 0.104081,-0.21857 0.156122,-0.395508 0.156122,-0.530813 0,0 0,0 0,0 0,-0.09367 -0.01041,-0.16653 -0.03122,-0.197754 -0.03123,-0.03122 -0.104081,-0.07286 -0.218571,-0.124897 0,0 0,0 0,0 -0.145713,-0.06245 -0.291426,-0.09367 -0.447548,-0.09367 0,0 0,0 0,0 -0.04163,0 -0.16653,0.01041 -0.374692,0.02082 0,0 0,0 0,0 -0.457956,0.03122 -0.718158,0.05204 -0.780607,0.06245 0,0 0,0 0,0 -0.07286,0.01041 -0.114489,0.02082 -0.135305,0.02082 0,0 0,0 0,0 -0.07286,0 -0.124898,-0.03122 -0.176938,-0.09367 0,0 0,0 0,0 -0.07286,-0.07286 -0.104081,-0.16653 -0.104081,-0.260203 0,0 0,0 0,0 0,-0.104081 0.04163,-0.208162 0.135305,-0.301834 0.09367,-0.09367 0.208162,-0.156122 0.353876,-0.197754 0,0 0,0 0,0 0.21857,-0.06245 0.509997,-0.09367 0.87428,-0.09367 0,0 0,0 0,0 0.291427,0 0.520405,0.02082 0.686935,0.06245 0,0 0,0 0,0 0.374691,0.09367 0.645302,0.239387 0.82224,0.416324 0.176937,0.187346 0.260202,0.437141 0.260202,0.749384 0,0 0,0 0,0 0,0.447548 -0.124897,0.87428 -0.374691,1.269788 -0.249795,0.395508 -0.562038,0.666118 -0.947138,0.82224 0,0 0,0 0,0 -0.249794,0.09367 -0.572445,0.135305 -0.957545,0.135305 0,0 0,0 0,0 -0.3851,0 -0.728567,-0.04163 -1.051218,-0.135305 0,0 0,0 0,0 -0.509997,-0.156122 -0.895097,-0.499589 -1.155299,-1.051218 0,0 0,0 0,0 -0.197754,-0.416324 -0.291427,-0.832648 -0.291427,-1.259381 0,0 0,0 0,0 0,-0.03122 0,-0.07286 0.01041,-0.135305 0,-0.06245 0,-0.114489 0,-0.145713 0,0 0,0 0,0 0.05204,-0.957545 0.447549,-1.831826 1.20734,-2.63325 0,0 0,0 0,0 0.614078,-0.645302 1.301012,-1.019993 2.071212,-1.113666 z m 5.089561,0.759791 c -0.281019,-0.04163 -0.43714,-0.07286 -0.468364,-0.08326 0,0 0,0 0,0 0,0 -0.02082,0 -0.02082,0 -0.06245,0 -0.166529,0.08326 -0.301834,0.239387 -0.145714,0.156121 -0.281019,0.343467 -0.416324,0.562037 0,0 0,0 0,0 -0.353876,0.572445 -0.530814,1.248972 -0.530814,2.008763 0,0 0,0 0,0 0,0.374692 0.05204,0.707751 0.156122,0.999178 0,0 0,0 0,0 0.104081,0.281019 0.270611,0.499589 0.489181,0.666118 0.21857,0.16653 0.447548,0.249795 0.686934,0.249795 0,0 0,0 0,0 0.197754,0 0.364284,-0.05204 0.520405,-0.145714 0,0 0,0 0,0 0.09367,-0.05204 0.228978,-0.208162 0.416324,-0.457956 0.176938,-0.239386 0.322651,-0.468365 0.43714,-0.686935 0,0 0,0 0,0 0.197754,-0.364283 0.291427,-0.895096 0.291427,-1.592439 0,0 0,0 0,0 0,-0.343467 -0.02082,-0.593262 -0.05204,-0.749383 -0.03122,-0.156122 -0.104081,-0.312243 -0.21857,-0.489181 0,0 0,0 0,0 -0.176938,-0.291427 -0.509997,-0.468364 -0.98877,-0.520405 z m -0.957545,-0.811832 c 0.156121,-0.104081 0.291427,-0.156121 0.3851,-0.156121 0,0 0,0 0,0 0.05204,0 0.104081,0 0.135305,0.01041 0,0 0,0 0,0 0.04163,0.01041 0.145713,0.02082 0.312243,0.03122 0.16653,0.02082 0.291427,0.04163 0.364283,0.05204 0,0 0,0 0,0 0.780608,0.09367 1.342645,0.478772 1.665296,1.155299 0,0 0,0 0,0 0.176938,0.343467 0.260203,0.843056 0.260203,1.47795 0,0 0,0 0,0 -0.01041,0.562037 -0.06245,1.030402 -0.16653,1.394685 -0.104081,0.364284 -0.291426,0.759792 -0.562037,1.165708 0,0 0,0 0,0 -0.197754,0.301834 -0.374692,0.530813 -0.530813,0.686934 -0.156122,0.156122 -0.333059,0.281019 -0.509997,0.364284 0,0 0,0 0,0 -0.270611,0.124897 -0.541221,0.187346 -0.82224,0.187346 0,0 0,0 0,0 -0.457956,0 -0.87428,-0.156122 -1.25938,-0.468365 -0.3851,-0.312243 -0.666118,-0.728567 -0.82224,-1.25938 0,0 0,0 0,0 -0.08326,-0.270611 -0.124897,-0.593262 -0.124897,-0.978362 0,0 0,0 0,0 0,-0.697342 0.114489,-1.332236 0.343467,-1.883866 0,0 0,0 0,0 0.145714,-0.353875 0.343467,-0.697342 0.60367,-1.04081 0.249794,-0.333059 0.489181,-0.582853 0.728567,-0.738975 z m 9.336067,-0.322651 c 0.645302,-0.03122 1.238564,-0.04163 1.790193,-0.04163 0,0 0,0 0,0 0.478773,0 0.770199,0.01041 0.884688,0.04163 0,0 0,0 0,0 0.135306,0.03122 0.239387,0.08327 0.312243,0.156122 0.07286,0.08326 0.104081,0.176937 0.104081,0.27061 0,0 0,0 0,0 0,0.114489 -0.04163,0.208162 -0.135305,0.301835 0,0 0,0 0,0 -0.05204,0.05204 -0.124897,0.09367 -0.197754,0.104081 -0.07286,0.01041 -0.281018,0.02082 -0.60367,0.02082 0,0 0,0 0,0 0,0 -0.551629,0 -0.551629,0 0,0 -1.217748,0 -1.217748,0 0,0 0.03122,0.520405 0.03122,0.520405 0.08327,1.134483 0.145713,2.383455 0.176937,3.746916 0,0 0,0 0,0 0.01041,0.260203 0.01041,0.541222 0.01041,0.843057 0,0 0,0 0,0 0,0.239386 -0.03122,0.395507 -0.09367,0.457956 0,0 0,0 0,0 -0.07286,0.09367 -0.197754,0.135305 -0.374692,0.135305 0,0 0,0 0,0 -0.07286,0 -0.135305,-0.02082 -0.187346,-0.05204 0,0 0,0 0,0 -0.104081,-0.07286 -0.166529,-0.21857 -0.187346,-0.426732 -0.03122,-0.197754 -0.05204,-0.82224 -0.07286,-1.86305 0,0 0,0 0,0 -0.02082,-1.25938 -0.05204,-2.154477 -0.08326,-2.664474 0,0 0,0 0,0 0,0 -0.04163,-0.614078 -0.04163,-0.614078 0,0 -1.009586,0 -1.009586,0 -0.676527,0 -1.051218,-0.01041 -1.134483,-0.04163 0,0 0,0 0,0 -0.135305,-0.05204 -0.208162,-0.16653 -0.208162,-0.343468 0,0 0,0 0,0 0,-0.156121 0.06245,-0.27061 0.176938,-0.333059 0,0 0,0 0,0 0.124897,-0.07286 0.999177,-0.145713 2.612433,-0.21857 z m 6.567517,1.134483 c -0.281018,-0.04163 -0.43714,-0.07286 -0.468364,-0.08326 0,0 0,0 0,0 0,0 -0.02082,0 -0.02082,0 -0.06245,0 -0.16653,0.08326 -0.301835,0.239387 -0.145714,0.156121 -0.281019,0.343467 -0.416324,0.562037 0,0 0,0 0,0 -0.353876,0.572445 -0.530813,1.248972 -0.530813,2.008763 0,0 0,0 0,0 0,0.374692 0.05204,0.707751 0.156121,0.999178 0,0 0,0 0,0 0.104081,0.281019 0.270611,0.499589 0.489181,0.666118 0.21857,0.16653 0.447548,0.249795 0.686934,0.249795 0,0 0,0 0,0 0.197754,0 0.364284,-0.05204 0.520405,-0.145714 0,0 0,0 0,0 0.09367,-0.05204 0.228979,-0.208162 0.416324,-0.457956 0.176938,-0.239386 0.322652,-0.468365 0.437141,-0.686935 0,0 0,0 0,0 0.197754,-0.364283 0.291426,-0.895096 0.291426,-1.592439 0,0 0,0 0,0 0,-0.343467 -0.02082,-0.593262 -0.05204,-0.749383 -0.03122,-0.156122 -0.104081,-0.312243 -0.21857,-0.489181 0,0 0,0 0,0 -0.176938,-0.291427 -0.509997,-0.468364 -0.98877,-0.520405 z m -0.957545,-0.811832 c 0.156122,-0.104081 0.291427,-0.156121 0.3851,-0.156121 0,0 0,0 0,0 0.05204,0 0.104081,0 0.135305,0.01041 0,0 0,0 0,0 0.04163,0.01041 0.145714,0.02082 0.312243,0.03122 0.16653,0.02082 0.291427,0.04163 0.364284,0.05204 0,0 0,0 0,0 0.780607,0.09367 1.342645,0.478772 1.665296,1.155299 0,0 0,0 0,0 0.176937,0.343467 0.260202,0.843056 0.260202,1.47795 0,0 0,0 0,0 -0.01041,0.562037 -0.06245,1.030402 -0.166529,1.394685 -0.104081,0.364284 -0.291427,0.759792 -0.562038,1.165708 0,0 0,0 0,0 -0.197754,0.301834 -0.374691,0.530813 -0.530813,0.686934 -0.156121,0.156122 -0.333059,0.281019 -0.509997,0.364284 0,0 0,0 0,0 -0.27061,0.124897 -0.541221,0.187346 -0.82224,0.187346 0,0 0,0 0,0 -0.457956,0 -0.87428,-0.156122 -1.25938,-0.468365 -0.3851,-0.312243 -0.666118,-0.728567 -0.82224,-1.25938 0,0 0,0 0,0 -0.08327,-0.270611 -0.124897,-0.593262 -0.124897,-0.978362 0,0 0,0 0,0 0,-0.697342 0.114489,-1.332236 0.343467,-1.883866 0,0 0,0 0,0 0.145714,-0.353875 0.343468,-0.697342 0.60367,-1.04081 0.249795,-0.333059 0.489181,-0.582853 0.728567,-0.738975 z"
         id="text2-6"
         transform="rotate(90)"
         aria-label="GO TO" /><path
         style="font-size:10.4081px;font-family:isaiahFont;-inkscape-font-specification:'isaiahFont, Normal';text-align:center;text-anchor:middle;stroke-width:0.328904"
         d="m 13.952875,-5.5638992 c 0.09367,-0.052041 0.197754,-0.072857 0.301835,-0.052041 0,0 0,0 0,0 0.07286,0.010408 0.82224,0.031224 2.258558,0.062449 0,0 0,0 0,0 1.384277,0.020816 2.144069,0.062449 2.268966,0.1353053 0,0 0,0 0,0 0.197754,0.104081 0.301835,0.2497944 0.301835,0.4475483 0,0 0,0 0,0 0,0.1561215 -0.07286,0.2810187 -0.21857,0.3746916 0,0 0,0 0,0 -0.06245,0.041632 -0.114489,0.062449 -0.16653,0.062449 0,0 0,0 0,0 -0.04163,0 -0.114489,-0.010408 -0.208162,-0.031224 0,0 0,0 0,0 -0.124897,-0.041632 -0.468364,-0.072857 -1.030402,-0.104081 0,0 0,0 0,0 0,0 -0.780607,-0.031224 -0.780607,-0.031224 0,0 0.03122,0.2914268 0.03122,0.2914268 0.09367,0.832648 0.145713,1.4155016 0.145713,1.7381528 0,0 0,0 0,0 0,0.1769377 0,0.3226511 -0.01041,0.4267321 0,0 0,0 0,0 -0.01041,0.4683645 -0.04163,0.8118318 -0.09367,1.0512181 -0.05204,0.23938627 -0.166529,0.50999688 -0.322651,0.83264798 0,0 0,0 0,0 -0.260202,0.50999691 -0.551629,0.84305611 -0.87428,0.98876951 0,0 0,0 0,0 -0.187346,0.0832648 -0.374692,0.1248972 -0.572446,0.1248972 0,0 0,0 0,0 -0.405916,0 -0.749383,-0.1665296 -1.030402,-0.4891807 0,0 0,0 0,0 -0.312243,-0.35387541 -0.468364,-0.66611841 -0.468364,-0.94713711 0,0 0,0 0,0 0,-0.1248972 0.03122,-0.21857011 0.104081,-0.29142681 0,0 0,0 0,0 0.09367,-0.10408097 0.197754,-0.15612147 0.301835,-0.15612147 0,0 0,0 0,0 0.176938,0 0.322651,0.1248972 0.447548,0.36428348 0,0 0,0 0,0 0.05204,0.1144891 0.145714,0.2393863 0.281019,0.3955078 0,0 0,0 0,0 0.124897,0.1353053 0.249794,0.1977539 0.3851,0.1977539 0,0 0,0 0,0 0.124897,0 0.228978,-0.0520405 0.322651,-0.1457134 0.09367,-0.0936729 0.197754,-0.2602025 0.322651,-0.52040501 0,0 0,0 0,0 0.239386,-0.48918067 0.353875,-1.11366667 0.353875,-1.87345797 0,0 0,0 0,0 0,-0.3226512 -0.02082,-0.718159 -0.06245,-1.1657073 -0.05204,-0.4475483 -0.09367,-0.6973427 -0.124898,-0.7493832 0,0 0,0 0,0 -0.02082,-0.031224 -0.145713,-0.05204 -0.364283,-0.05204 0,0 0,0 0,0 -0.239386,0 -0.499589,-0.020816 -0.801424,-0.062449 -0.301835,-0.031224 -0.499589,-0.072857 -0.614078,-0.1248972 0,0 0,0 0,0 -0.176937,-0.072857 -0.27061,-0.208162 -0.27061,-0.3850997 0,0 0,0 0,0 0,-0.1353053 0.06245,-0.2393863 0.187345,-0.312243 z m 9.242388,3.4763055 c 0,-0.041632 -0.05204,-0.312243 -0.16653,-0.82224 -0.114489,-0.4995888 -0.197754,-0.7701994 -0.197754,-0.7701994 0,0 0,0 0,0 0,0 -0.03122,0.010408 -0.06245,0.052041 -0.03122,0.041632 -0.05204,0.093673 -0.08327,0.1665296 0,0 0,0 0,0 -0.09367,0.2497944 -0.208162,0.5099969 -0.322651,0.7910157 0,0 0,0 0,0 -0.135306,0.3018349 -0.197754,0.4787726 -0.197754,0.5516293 0,0 0,0 0,0 0,0.031224 0.176938,0.05204 0.541221,0.083265 0,0 0,0 0,0 0.197754,0.010408 0.301835,0.020816 0.322651,0.020816 0,0 0,0 0,0 0.114489,0 0.16653,-0.020816 0.16653,-0.072857 z M 22.581185,-5.334921 c 0.07286,-0.062449 0.166529,-0.093673 0.291427,-0.093673 0,0 0,0 0,0 0.135305,0 0.239386,0.041632 0.322651,0.1248972 0,0 0,0 0,0 0.09367,0.104081 0.281018,0.6869346 0.562037,1.7589689 0.281019,1.0720344 0.499589,2.071212 0.676527,2.99753288 0,0 0,0 0,0 0.08326,0.4475483 0.135305,0.70775081 0.166529,0.79101561 0,0 0,0 0,0 0.04163,0.1248972 0.06245,0.2393863 0.06245,0.3330592 0,0 0,0 0,0 0,0.26020251 -0.124897,0.40591591 -0.374692,0.45795641 0,0 0,0 0,0 -0.03122,0.010408 -0.06245,0.010408 -0.09367,0.010408 0,0 0,0 0,0 -0.07286,0 -0.145713,-0.041632 -0.239386,-0.1353053 0,0 0,0 0,0 -0.09367,-0.0936729 -0.156121,-0.21857011 -0.208162,-0.36428351 -0.05204,-0.1353053 -0.114489,-0.4475483 -0.208162,-0.91591281 0,0 0,0 0,0 -0.06245,-0.3226511 -0.104081,-0.52040501 -0.135305,-0.60366981 -0.03122,-0.0728567 -0.06245,-0.12489717 -0.114489,-0.13530527 0,0 0,0 0,0 -0.07286,-0.020816 -0.322651,-0.052041 -0.759792,-0.104081 -0.43714,-0.05204 -0.697342,-0.072857 -0.791015,-0.072857 0,0 0,0 0,0 0,0 -0.02082,0 -0.02082,0 0,0 -0.176938,0.36428347 -0.520405,1.08244238 0,0 0,0 0,0 -0.322652,0.67652651 -0.541222,1.07203432 -0.634895,1.18652342 0,0 0,0 0,0 -0.08326,0.0832648 -0.176937,0.1248972 -0.281018,0.1248972 0,0 0,0 0,0 -0.09367,0 -0.176938,-0.041632 -0.249795,-0.1144891 -0.07286,-0.0728567 -0.104081,-0.1665296 -0.104081,-0.28101871 0,-0.1144891 0.114489,-0.4371402 0.353876,-0.94713711 0,0 0,0 0,0 0.749383,-1.61325548 1.31142,-2.90385998 1.686112,-3.87181328 0,0 0,0 0,0 0.187346,-0.4683645 0.322651,-0.7806075 0.395508,-0.9263209 0.07286,-0.1353053 0.145713,-0.2393863 0.21857,-0.3018349 z m 5.2769,-0.2810187 c 0.02082,-0.010408 0.176938,-0.020816 0.468364,-0.020816 0,0 0,0 0,0 0,0 0.176938,0 0.176938,0 0.114489,0 0.197754,0.010408 0.249794,0.020816 0.04163,0.020816 0.09367,0.062449 0.156122,0.1248972 0,0 0,0 0,0 0.09367,0.093673 0.145713,0.1977539 0.145713,0.3018349 0,0 0,0 0,0 0,0.093673 -0.03122,0.1665296 -0.104081,0.2393863 0,0 0,0 0,0 -0.06245,0.062449 -0.135305,0.104081 -0.228978,0.1248972 -0.09367,0.020816 -0.312243,0.041632 -0.634894,0.062449 0,0 0,0 0,0 0,0 -0.530813,0.041632 -0.530813,0.041632 0,0 0.03122,0.1873458 0.03122,0.1873458 0.07286,0.5516293 0.135306,1.4987664 0.187346,2.8518195 0,0 0,0 0,0 0.03122,1.15529908 0.07286,1.75896889 0.114489,1.80060129 0,0 0,0 0,0 0,0 0.03122,0.0104081 0.07286,0.0104081 0,0 0,0 0,0 0.07286,0 0.208162,-0.0208162 0.405916,-0.0520405 0,0 0,0 0,0 0.187346,-0.0312243 0.322651,-0.0520405 0.395508,-0.0520405 0,0 0,0 0,0 0.176937,0 0.312243,0.0832648 0.395507,0.2393863 0,0 0,0 0,0 0.02082,0.0520405 0.03122,0.0936729 0.03122,0.1457134 0,0 0,0 0,0 0,0.0936729 -0.02082,0.1769377 -0.07286,0.2602025 -0.05204,0.0832648 -0.114489,0.13530531 -0.176938,0.16652961 0,0 0,0 0,0 -0.135305,0.0520405 -0.60367,0.1457134 -1.384277,0.2810187 -0.791016,0.1353053 -1.269788,0.208162 -1.436318,0.208162 0,0 0,0 0,0 -0.239386,0 -0.395508,-0.041632 -0.478773,-0.1144891 0,0 0,0 0,0 -0.08326,-0.083265 -0.124897,-0.1769377 -0.124897,-0.2810187 0,0 0,0 0,0 0,-0.1144891 0.04163,-0.20816201 0.135306,-0.29142681 0.09367,-0.0728567 0.208162,-0.1144891 0.343467,-0.1248972 0,0 0,0 0,0 0.09367,0 0.281019,-0.0208162 0.562037,-0.0624486 0,0 0,0 0,0 0,0 0.374692,-0.0624486 0.374692,-0.0624486 0,0 -0.01041,-1.37386922 -0.01041,-1.37386922 -0.01041,-1.42590967 -0.06245,-2.54998457 -0.145714,-3.38263257 0,0 0,0 0,0 0,0 -0.03122,-0.3018349 -0.03122,-0.3018349 0,0 -0.43714,-0.031224 -0.43714,-0.031224 -0.281019,-0.020816 -0.457957,-0.062449 -0.530813,-0.1353053 0,0 0,0 0,0 -0.07286,-0.072857 -0.114489,-0.1665296 -0.114489,-0.2810187 0,-0.1144891 0.04163,-0.208162 0.114489,-0.2810187 0,0 0,0 0,0 0.05204,-0.05204 0.124897,-0.083265 0.239386,-0.104081 0.114489,-0.010408 0.3851,-0.031224 0.832648,-0.05204 0,0 0,0 0,0 0.666119,-0.041632 1.009586,-0.062449 1.009586,-0.062449 z m 2.3106,0.1665296 c 0.09367,-0.093673 0.187346,-0.1353053 0.301835,-0.1353053 0,0 0,0 0,0 0.104081,0 0.187346,0.041632 0.260202,0.1144891 0.07286,0.083265 0.104081,0.1873458 0.104081,0.3226511 0,0 0,0 0,0 0,0.1769377 0.05204,0.7701994 0.16653,1.7797851 0,0 0,0 0,0 0.104081,1.0512182 0.156122,1.9150905 0.156122,2.61243318 0,0 0,0 0,0 0,0.7077508 0.01041,1.06162621 0.04163,1.06162621 0,0 0,0 0,0 0.03122,0 0.114489,-0.0208162 0.228978,-0.0520405 0,0 0,0 0,0 0.104081,-0.0312243 0.43714,-0.0832648 1.009586,-0.1561215 0.572445,-0.0728567 0.895096,-0.1144891 0.988769,-0.13530531 0,0 0,0 0,0 0.176938,-0.0520405 0.33306,-0.0728567 0.478773,-0.0728567 0,0 0,0 0,0 0.281019,0 0.416324,0.13530531 0.416324,0.41632401 0,0 0,0 0,0 0,0.1977539 -0.124897,0.3538754 -0.3851,0.4579564 -0.260202,0.10408101 -0.759791,0.18734581 -1.488358,0.26020251 0,0 0,0 0,0 -0.509997,0.05204 -0.905505,0.1353053 -1.196932,0.2289782 0,0 0,0 0,0 -0.239386,0.072857 -0.385099,0.1144891 -0.457956,0.1144891 0,0 0,0 0,0 -0.04163,0 -0.104081,-0.020816 -0.197754,-0.05204 0,0 0,0 0,0 -0.156121,-0.072857 -0.260202,-0.208162 -0.291427,-0.4059159 -0.03122,-0.18734581 -0.05204,-0.69734271 -0.05204,-1.51958262 0,0 0,0 0,0 0,-0.92632088 -0.04163,-1.81100938 -0.114489,-2.67488178 0,0 0,0 0,0 -0.07286,-0.7389751 -0.104081,-1.2801963 -0.104081,-1.6132555 0,0 0,0 0,0 0,-0.1873458 0.01041,-0.312243 0.02082,-0.3746916 0.01041,-0.052041 0.05204,-0.1144891 0.114489,-0.1769377 z"
         id="text2-6-4"
         transform="rotate(90)"
         aria-label="JAIL" /><g
         id="g3"
         transform="matrix(0,0.32890385,-0.32890385,0,34.355766,4.0029518)"><g
           id="g1"
           inkscape:label="g1"
           transform="translate(-0.00580595,-0.00255903)"><path
             id="path1"
             class="st0"
             d="m 51.310547,0.00976563 c -4.309984,0 -11.561266,-0.27936326 -15.03125,2.64062497 C 30.379321,6.8603738 25.790527,14.319704 20.810547,19.179688 16.760563,19.699684 7.39046,21.089774 5.2304688,23.009766 2.7404784,25.229754 2.7707816,32.380168 2.8007812,35.410156 -1.8292,35.320156 0.0390745,46.529926 3.0390625,47.169922 h 3.3867187 2.4003907 26.8261721 6.324218 39.539063 v -0.01758 h 26.222655 2.27149 0.0918 v -0.01172 c 1.26055,-0.163792 2.46026,-0.326209 4.08789,-0.490234 4.95,-0.5 8.52149,-0.330575 8.52149,-6.810547 0.46,-12.839948 0.0984,-24.849806 -2.60156,-34.5097659 -0.76,-3.6099856 -2.89915,-5.2403128 -6.11915,-5.32031247 z" /></g><rect
           style="fill:#000000;stroke:none;stroke-width:1.88976;paint-order:markers fill stroke"
           id="rect4"
           width="23.435629"
           height="9.6067734"
           x="26.244547"
           y="15.111279" /><text
           xml:space="preserve"
           style="font-style:normal;font-weight:normal;font-size:32.2392px;font-family:sans-serif;letter-spacing:-0.389983px;fill:#000000;fill-opacity:1;stroke:none;stroke-width:1"
           x="28.265348"
           y="29.635344"
           id="text1"
           transform="scale(0.87732366,1.1398302)"><tspan
             sodipodi:role="line"
             x="28.265348"
             y="29.635344"
             style="font-style:normal;font-variant:normal;font-weight:bold;font-stretch:normal;font-size:10.7464px;font-family:Sans;-inkscape-font-specification:'Sans, Bold';font-variant-ligatures:normal;font-variant-caps:normal;font-variant-numeric:normal;font-variant-east-asian:normal;letter-spacing:-0.389983px;fill:#f9f9f9;stroke-width:1"
             id="tspan2"><tspan
               id="tspan3"
               style="font-style:normal;font-variant:normal;font-weight:bold;font-stretch:normal;font-size:10.7464px;font-family:Sans;-inkscape-font-specification:'Sans, Bold';font-variant-ligatures:normal;font-variant-caps:normal;font-variant-numeric:normal;font-variant-east-asian:normal;letter-spacing:-0.389983px;fill:#f9f9f9;stroke-width:1"
               dy="0">CAMPUS</tspan></tspan></text><text
           xml:space="preserve"
           style="font-style:normal;font-weight:normal;font-size:32.2392px;font-family:sans-serif;letter-spacing:-0.389983px;fill:#000000;fill-opacity:1;stroke:none;stroke-width:1"
           x="80.070442"
           y="29.640587"
           id="text4"
           transform="scale(0.87732366,1.1398302)"><tspan
             sodipodi:role="line"
             id="tspan4"
             x="80.070442"
             y="29.640587"
             style="font-style:normal;font-variant:normal;font-weight:bold;font-stretch:normal;font-size:10.7464px;font-family:Sans;-inkscape-font-specification:'Sans, Bold';font-variant-ligatures:normal;font-variant-caps:normal;font-variant-numeric:normal;font-variant-east-asian:normal;letter-spacing:-0.389983px;fill:#f9f9f9;stroke-width:1">SAFETY</tspan></text><circle
           style="fill:#ffffff;stroke:none;stroke-width:1.88976;paint-order:markers fill stroke"
           id="path9"
           cx="38.795261"
           cy="6.570364"
           r="0.83290166" /><circle
           style="fill:#ffffff;stroke:none;stroke-width:1.88976;paint-order:markers fill stroke"
           id="path9-4"
           cx="28.685686"
           cy="18.807587"
           r="0.83290166" /><circle
           style="fill:#ffffff;stroke:none;stroke-width:1.88976;paint-order:markers fill stroke"
           id="path9-9"
           cx="47.396671"
           cy="18.807587"
           r="0.83290166" /><circle
           style="fill:#ffffff;stroke:none;stroke-width:1.88976;paint-order:markers fill stroke"
           id="path9-1"
           cx="47.396671"
           cy="6.570364"
           r="0.83290166" /><path
           style="fill:#ffffff;fill-opacity:1;stroke:none;stroke-width:1px;stroke-linecap:butt;stroke-linejoin:miter;stroke-opacity:1"
           d="M 28.025415,18.299879 38.123257,6.0782915 38.795261,5.7374625 h 8.60141 l 0.832902,0.8329017 V 18.807587 l -0.832902,0.832902 H 28.685686 Z"
           id="path10" /><circle
           style="fill:#ffffff;fill-opacity:1;stroke:none;stroke-width:1.88976;paint-order:markers fill stroke"
           id="path11"
           cx="21.426554"
           cy="47.167362"
           r="9.6837111" /><circle
           style="fill:#000000;fill-opacity:1;stroke:none;stroke-width:1.88976;paint-order:markers fill stroke"
           id="path11-7"
           cx="21.426554"
           cy="47.167362"
           r="7.2591324" /><circle
           style="fill:#ffffff;fill-opacity:1;stroke:none;stroke-width:1.88976;paint-order:markers fill stroke"
           id="path11-1"
           cx="100.47334"
           cy="47.149784"
           r="9.6837111" /><circle
           style="fill:#000000;fill-opacity:1;stroke:none;stroke-width:1.88976;paint-order:markers fill stroke"
           id="path11-7-1"
           cx="100.47334"
           cy="47.149784"
           r="7.2591324" /></g></g></g><style
     type="text/css"
     id="style1"><![CDATA[
	.st0{fill-rule:evenodd;clip-rule:evenodd;}
]]></style><style
     type="text/css"
     id="style1-3">.st0{fill-rule:evenodd;clip-rule:evenodd;}</style><style
     type="text/css"
     id="style1-33">.st0{fill-rule:evenodd;clip-rule:evenodd;}</style></svg>
