<?xml version="1.0" encoding="UTF-8" standalone="no"?>
<!-- Created with Inkscape (http://www.inkscape.org/) -->

<svg
   width="50mm"
   height="50mm"
   viewBox="0 0 50 50"
   version="1.1"
   id="svg1"
   inkscape:version="1.3 (0e150ed6c4, 2023-07-21)"
   sodipodi:docname="jail.svg"
   xml:space="preserve"
   xmlns:inkscape="http://www.inkscape.org/namespaces/inkscape"
   xmlns:sodipodi="http://sodipodi.sourceforge.net/DTD/sodipodi-0.dtd"
   xmlns:xlink="http://www.w3.org/1999/xlink"
   xmlns="http://www.w3.org/2000/svg"
   xmlns:svg="http://www.w3.org/2000/svg"><sodipodi:namedview
     id="namedview1"
     pagecolor="#ffffff"
     bordercolor="#666666"
     borderopacity="1.0"
     inkscape:showpageshadow="2"
     inkscape:pageopacity="0.0"
     inkscape:pagecheckerboard="0"
     inkscape:deskcolor="#d1d1d1"
     inkscape:document-units="mm"
     inkscape:zoom="2.3786088"
     inkscape:cx="108.67697"
     inkscape:cy="134.32221"
     inkscape:window-width="1948"
     inkscape:window-height="1070"
     inkscape:window-x="132"
     inkscape:window-y="359"
     inkscape:window-maximized="0"
     inkscape:current-layer="g2" /><defs
     id="defs1"><linearGradient
       id="swatch4"
       inkscape:swatch="solid"><stop
         style="stop-color:#000000;stop-opacity:1;"
         offset="0"
         id="stop4" /></linearGradient><linearGradient
       id="swatch3"
       inkscape:swatch="solid"><stop
         style="stop-color:#000000;stop-opacity:1;"
         offset="0"
         id="stop3" /></linearGradient><linearGradient
       inkscape:collect="always"
       xlink:href="#swatch3"
       id="linearGradient3"
       x1="-53.447666"
       y1="-5.6521339"
       x2="-3.7236252"
       y2="-5.6521339"
       gradientUnits="userSpaceOnUse"
       gradientTransform="matrix(1.141824,0,0,1.1390431,7.5801612,-2.6710028)" /><linearGradient
       inkscape:collect="always"
       xlink:href="#swatch4"
       id="linearGradient4"
       x1="-70.476004"
       y1="-20.162725"
       x2="-58.753903"
       y2="-20.162725"
       gradientUnits="userSpaceOnUse"
       gradientTransform="matrix(2.5514992,0,0,2.5514992,140.7591,64.878688)" /></defs><g
     inkscape:label="Layer 1"
     inkscape:groupmode="layer"
     id="layer1"
     transform="matrix(0,1.2112922,-1.2112922,0,54.92251,-6.4566465)"><g
       id="g2"
       transform="matrix(0.46960164,0.46960164,-0.46960164,0.46960164,25.59535,1.5909268)"><rect
         style="fill:#d45500;fill-opacity:1;stroke:url(#linearGradient3);stroke-width:0.62155059;stroke-dasharray:none;paint-order:markers fill stroke"
         id="rect2"
         width="56.776104"
         height="56.637833"
         x="-53.447666"
         y="-37.427944"
         transform="rotate(-135)" /><path
         style="font-size:8.77077px;font-family:isaiahFont;-inkscape-font-specification:'isaiahFont, Normal';text-align:center;text-anchor:middle;stroke-width:0.328904"
         d="m -26.311755,-10.851798 c 0.01754,-0.0088 0.149103,-0.01754 0.394684,-0.01754 0,0 0,0 0,0 0,0 0.149104,0 0.149104,0 0.09648,0 0.166644,0.0088 0.210498,0.01754 0.03508,0.01754 0.07894,0.05263 0.131562,0.105249 0,0 0,0 0,0 0.07894,0.07894 0.12279,0.166645 0.12279,0.254353 0,0 0,0 0,0 0,0.07894 -0.02631,0.140332 -0.08771,0.201727 0,0 0,0 0,0 -0.05263,0.05262 -0.11402,0.08771 -0.192957,0.10525 -0.07894,0.01754 -0.263123,0.03508 -0.535017,0.05262 0,0 0,0 0,0 0,0 -0.44731,0.03508 -0.44731,0.03508 0,0 0.02631,0.1578742 0.02631,0.1578742 0.0614,0.4648508 0.11402,1.2629908 0.157874,2.403191 0,0 0,0 0,0 0.02631,0.9735554 0.06139,1.4822601 0.09648,1.5173432 0,0 0,0 0,0 0,0 0.02631,0.00877 0.0614,0.00877 0,0 0,0 0,0 0.06139,0 0.175415,-0.017542 0.34206,-0.043854 0,0 0,0 0,0 0.157873,-0.026312 0.271893,-0.043854 0.333289,-0.043854 0,0 0,0 0,0 0.149103,0 0.263123,0.070166 0.333289,0.2017278 0,0 0,0 0,0 0.01754,0.043854 0.02631,0.078937 0.02631,0.1227907 0,0 0,0 0,0 0,0.078937 -0.01754,0.1491031 -0.0614,0.2192693 -0.04385,0.070166 -0.09648,0.11402 -0.149103,0.1403323 0,0 0,0 0,0 -0.11402,0.043854 -0.508705,0.1227908 -1.166513,0.2368108 -0.666578,0.11402 -1.070033,0.1754154 -1.210366,0.1754154 0,0 0,0 0,0 -0.201727,0 -0.333289,-0.035083 -0.403455,-0.096479 0,0 0,0 0,0 -0.07017,-0.070166 -0.105249,-0.1491031 -0.105249,-0.2368108 0,0 0,0 0,0 0,-0.096478 0.03508,-0.1754154 0.11402,-0.2455815 0.07894,-0.061395 0.175415,-0.096478 0.289435,-0.1052493 0,0 0,0 0,0 0.07894,0 0.236811,-0.017542 0.473622,-0.052625 0,0 0,0 0,0 0,0 0.315747,-0.052625 0.315747,-0.052625 0,0 -0.0088,-1.1577417 -0.0088,-1.1577417 -0.0088,-1.2015955 -0.05263,-2.1488386 -0.122791,-2.8505002 0,0 0,0 0,0 0,0 -0.02631,-0.2543525 -0.02631,-0.2543525 0,0 -0.368372,-0.02631 -0.368372,-0.02631 -0.236811,-0.01754 -0.385914,-0.05263 -0.447309,-0.11402 0,0 0,0 0,0 -0.0614,-0.0614 -0.09648,-0.140332 -0.09648,-0.236811 0,-0.09648 0.03508,-0.175415 0.09648,-0.236811 0,0 0,0 0,0 0.04385,-0.04385 0.105249,-0.07017 0.201728,-0.08771 0.09648,-0.0088 0.324518,-0.02631 0.701661,-0.04385 0,0 0,0 0,0 0.561329,-0.03508 0.850765,-0.05263 0.850765,-0.05263 z m 5.77994,0.03508 c 0.0614,-0.07017 0.140332,-0.105249 0.254352,-0.105249 0,0 0,0 0,0 0.105249,0 0.192957,0.03508 0.263123,0.11402 0,0 0,0 0,0 0.07017,0.07017 0.105249,0.157874 0.105249,0.254352 0,0 0,0 0,0 0,0.08771 -0.02631,0.22804 -0.07894,0.420997 0,0 0,0 0,0 -0.271894,1.0788049 -0.508705,1.9295696 -0.710433,2.5522943 0,0 0,0 0,0 -0.184186,0.5613293 -0.350831,1.105117 -0.491163,1.6313632 0,0 0,0 0,0 -0.07017,0.2806647 -0.149103,0.4736216 -0.22804,0.5788709 -0.07894,0.1052492 -0.192957,0.1578738 -0.324518,0.1578738 0,0 0,0 0,0 -0.114021,0 -0.21927,-0.052625 -0.298207,-0.1578738 -0.07894,-0.096478 -0.166644,-0.2806647 -0.254352,-0.535017 0,0 0,0 0,0 -0.07894,-0.2455816 -0.192957,-0.6841201 -0.350831,-1.3156155 -0.166644,-0.6314955 -0.245581,-0.9823263 -0.245581,-1.0437217 0,-0.061395 -0.0088,-0.096478 -0.03508,-0.096478 0,0 0,0 0,0 -0.02631,0 -0.08771,0.1754154 -0.184187,0.5350169 0,0 0,0 0,0 -0.11402,0.4385385 -0.263123,0.9735555 -0.45608,1.5962802 -0.192957,0.6227247 -0.306977,0.9647847 -0.35083,1.0086386 0,0 0,0 0,0 -0.04385,0.052625 -0.11402,0.078937 -0.21927,0.078937 -0.105249,0 -0.184186,-0.026312 -0.245581,-0.087708 0,0 0,0 0,0 -0.05262,-0.052625 -0.07894,-0.1227908 -0.07894,-0.2104985 0,0 0,0 0,0 0,-0.11402 0.07894,-0.4736216 0.245581,-1.0788047 0,0 0,0 0,0 0.184187,-0.649037 0.45608,-1.8067787 0.833224,-3.4644542 0,0 0,0 0,0 0.07894,-0.2982063 0.140332,-0.4736213 0.184186,-0.5350173 0,0 0,0 0,0 0.07894,-0.07894 0.166644,-0.12279 0.263123,-0.12279 0,0 0,0 0,0 0.149103,0 0.271894,0.08771 0.368372,0.263123 0,0 0,0 0,0 0.04385,0.08771 0.131562,0.4736212 0.263123,1.1489705 0,0 0,0 0,0 0.298206,1.5524263 0.482393,2.3330249 0.543788,2.3330249 0,0 0,0 0,0 0.04385,0 0.175415,-0.3771431 0.412226,-1.1314294 0.22804,-0.7455154 0.385914,-1.3156155 0.473622,-1.7015294 0,0 0,0 0,0 0.131561,-0.6227246 0.245581,-0.9910966 0.34206,-1.0875756 z"
         id="text2-6"
         transform="rotate(-90)"
         aria-label="IN" /><path
         style="font-size:8.77077px;font-family:isaiahFont;-inkscape-font-specification:'isaiahFont, Normal';text-align:center;text-anchor:middle;stroke-width:0.328904"
         d="m -32.734952,32.278242 c 0.07894,-0.04385 0.166645,-0.06139 0.254353,-0.04385 0,0 0,0 0,0 0.06139,0.0088 0.692891,0.02631 1.903257,0.05262 0,0 0,0 0,0 1.166512,0.01754 1.806778,0.05262 1.912028,0.11402 0,0 0,0 0,0 0.166644,0.08771 0.254352,0.210499 0.254352,0.377143 0,0 0,0 0,0 0,0.131562 -0.06139,0.236811 -0.184186,0.315748 0,0 0,0 0,0 -0.05263,0.03508 -0.09648,0.05262 -0.140332,0.05262 0,0 0,0 0,0 -0.03508,0 -0.09648,-0.0088 -0.175416,-0.02631 0,0 0,0 0,0 -0.105249,-0.03508 -0.394685,-0.06139 -0.868306,-0.08771 0,0 0,0 0,0 0,0 -0.657808,-0.02631 -0.657808,-0.02631 0,0 0.02631,0.245582 0.02631,0.245582 0.07894,0.701661 0.122791,1.192825 0.122791,1.464718 0,0 0,0 0,0 0,0.149103 0,0.271894 -0.0088,0.359602 0,0 0,0 0,0 -0.0088,0.394685 -0.03508,0.68412 -0.07894,0.885848 -0.04385,0.201727 -0.140333,0.429767 -0.271894,0.701661 0,0 0,0 0,0 -0.21927,0.429768 -0.464851,0.710433 -0.736745,0.833224 0,0 0,0 0,0 -0.157874,0.07017 -0.315748,0.105249 -0.482392,0.105249 0,0 0,0 0,0 -0.34206,0 -0.631496,-0.140333 -0.868307,-0.412226 0,0 0,0 0,0 -0.263123,-0.298207 -0.394684,-0.56133 -0.394684,-0.798141 0,0 0,0 0,0 0,-0.105249 0.02631,-0.184186 0.08771,-0.245581 0,0 0,0 0,0 0.07894,-0.08771 0.166645,-0.131562 0.254353,-0.131562 0,0 0,0 0,0 0.149103,0 0.271894,0.10525 0.377143,0.306977 0,0 0,0 0,0 0.04385,0.09648 0.122791,0.201728 0.236811,0.33329 0,0 0,0 0,0 0.105249,0.11402 0.210498,0.166644 0.324518,0.166644 0,0 0,0 0,0 0.105249,0 0.192957,-0.04385 0.271894,-0.122791 0.07894,-0.07894 0.166645,-0.219269 0.271894,-0.438538 0,0 0,0 0,0 0.201728,-0.412226 0.298206,-0.938472 0.298206,-1.578739 0,0 0,0 0,0 0,-0.271894 -0.01754,-0.605183 -0.05262,-0.982326 -0.04385,-0.377143 -0.07894,-0.587642 -0.105249,-0.631495 0,0 0,0 0,0 -0.01754,-0.02631 -0.122791,-0.04385 -0.306977,-0.04385 0,0 0,0 0,0 -0.201727,0 -0.420997,-0.01754 -0.675349,-0.05262 -0.254352,-0.02631 -0.420997,-0.0614 -0.517475,-0.105249 0,0 0,0 0,0 -0.149104,-0.0614 -0.22804,-0.175415 -0.22804,-0.324519 0,0 0,0 0,0 0,-0.11402 0.05262,-0.201727 0.157873,-0.263123 z m 7.788439,2.929438 c 0,-0.03508 -0.04385,-0.263124 -0.140332,-0.692891 -0.09648,-0.420997 -0.166644,-0.649037 -0.166644,-0.649037 0,0 0,0 0,0 0,0 -0.02631,0.0088 -0.05263,0.04385 -0.02631,0.03508 -0.04385,0.07894 -0.07017,0.140332 0,0 0,0 0,0 -0.07894,0.210498 -0.175416,0.429768 -0.271894,0.666578 0,0 0,0 0,0 -0.11402,0.254353 -0.166645,0.403456 -0.166645,0.464851 0,0 0,0 0,0 0,0.02631 0.149103,0.04385 0.45608,0.07017 0,0 0,0 0,0 0.166645,0.0088 0.254353,0.01754 0.271894,0.01754 0,0 0,0 0,0 0.09648,0 0.140332,-0.01754 0.140332,-0.06139 z m -0.517475,-2.736481 c 0.0614,-0.05262 0.140332,-0.07894 0.245582,-0.07894 0,0 0,0 0,0 0.11402,0 0.201727,0.03508 0.271893,0.10525 0,0 0,0 0,0 0.07894,0.08771 0.236811,0.57887 0.473622,1.48226 0.236811,0.903389 0.420997,1.745383 0.5701,2.525982 0,0 0,0 0,0 0.07017,0.377143 0.11402,0.596412 0.140332,0.666578 0,0 0,0 0,0 0.03508,0.105249 0.05262,0.201728 0.05262,0.280665 0,0 0,0 0,0 0,0.219269 -0.105249,0.34206 -0.315748,0.385914 0,0 0,0 0,0 -0.02631,0.0088 -0.05262,0.0088 -0.07894,0.0088 0,0 0,0 0,0 -0.0614,0 -0.12279,-0.03508 -0.201727,-0.11402 0,0 0,0 0,0 -0.07894,-0.07894 -0.131562,-0.184186 -0.175416,-0.306977 -0.04385,-0.11402 -0.09648,-0.377143 -0.175415,-0.771827 0,0 0,0 0,0 -0.05262,-0.271894 -0.08771,-0.438539 -0.11402,-0.508705 -0.02631,-0.06139 -0.05262,-0.105249 -0.09648,-0.11402 0,0 0,0 0,0 -0.0614,-0.01754 -0.271893,-0.04385 -0.640266,-0.08771 -0.368372,-0.04385 -0.587641,-0.06139 -0.666578,-0.06139 0,0 0,0 0,0 0,0 -0.01754,0 -0.01754,0 0,0 -0.149103,0.306977 -0.438538,0.91216 0,0 0,0 0,0 -0.271894,0.5701 -0.45608,0.903389 -0.535017,0.999868 0,0 0,0 0,0 -0.07017,0.07017 -0.149103,0.105249 -0.236811,0.105249 0,0 0,0 0,0 -0.07894,0 -0.149103,-0.03508 -0.210499,-0.09648 -0.0614,-0.06139 -0.08771,-0.140332 -0.08771,-0.23681 0,-0.09648 0.09648,-0.368373 0.298206,-0.79814 0,0 0,0 0,0 0.631495,-1.35947 1.105117,-2.447045 1.420865,-3.262727 0,0 0,0 0,0 0.157873,-0.394685 0.271893,-0.657808 0.333289,-0.780598 0.0614,-0.11402 0.122791,-0.201728 0.184186,-0.254353 z m 4.446774,-0.236811 c 0.01754,-0.0088 0.149103,-0.01754 0.394684,-0.01754 0,0 0,0 0,0 0,0 0.149104,0 0.149104,0 0.09648,0 0.166644,0.0088 0.210498,0.01754 0.03508,0.01754 0.07894,0.05262 0.131562,0.10525 0,0 0,0 0,0 0.07894,0.07894 0.12279,0.166644 0.12279,0.254352 0,0 0,0 0,0 0,0.07894 -0.02631,0.140332 -0.08771,0.201728 0,0 0,0 0,0 -0.05262,0.05262 -0.11402,0.08771 -0.192957,0.105249 -0.07894,0.01754 -0.263123,0.03508 -0.535017,0.05262 0,0 0,0 0,0 0,0 -0.44731,0.03508 -0.44731,0.03508 0,0 0.02631,0.157874 0.02631,0.157874 0.06139,0.46485 0.11402,1.26299 0.157874,2.403191 0,0 0,0 0,0 0.02631,0.973555 0.0614,1.48226 0.09648,1.517343 0,0 0,0 0,0 0,0 0.02631,0.0088 0.0614,0.0088 0,0 0,0 0,0 0.0614,0 0.175415,-0.01754 0.34206,-0.04385 0,0 0,0 0,0 0.157873,-0.02631 0.271893,-0.04385 0.333289,-0.04385 0,0 0,0 0,0 0.149103,0 0.263123,0.07017 0.333289,0.201728 0,0 0,0 0,0 0.01754,0.04385 0.02631,0.07894 0.02631,0.12279 0,0 0,0 0,0 0,0.07894 -0.01754,0.149103 -0.06139,0.21927 -0.04385,0.07017 -0.09648,0.11402 -0.149103,0.140332 0,0 0,0 0,0 -0.11402,0.04385 -0.508705,0.122791 -1.166513,0.236811 -0.666578,0.11402 -1.070033,0.175415 -1.210366,0.175415 0,0 0,0 0,0 -0.201728,0 -0.333289,-0.03508 -0.403455,-0.09648 0,0 0,0 0,0 -0.07017,-0.07017 -0.105249,-0.149103 -0.105249,-0.236811 0,0 0,0 0,0 0,-0.09648 0.03508,-0.175416 0.11402,-0.245582 0.07894,-0.06139 0.175415,-0.09648 0.289435,-0.105249 0,0 0,0 0,0 0.07894,0 0.236811,-0.01754 0.473622,-0.05262 0,0 0,0 0,0 0,0 0.315747,-0.05262 0.315747,-0.05262 0,0 -0.0088,-1.157742 -0.0088,-1.157742 -0.0088,-1.201595 -0.05262,-2.148839 -0.122791,-2.8505 0,0 0,0 0,0 0,0 -0.02631,-0.254352 -0.02631,-0.254352 0,0 -0.368372,-0.02631 -0.368372,-0.02631 -0.236811,-0.01754 -0.385914,-0.05262 -0.447309,-0.11402 0,0 0,0 0,0 -0.0614,-0.06139 -0.09648,-0.140332 -0.09648,-0.236811 0,-0.09648 0.03508,-0.175415 0.09648,-0.23681 0,0 0,0 0,0 0.04385,-0.04385 0.105249,-0.07017 0.201728,-0.08771 0.09648,-0.0088 0.324518,-0.02631 0.701661,-0.04385 0,0 0,0 0,0 0.561329,-0.03508 0.850765,-0.05262 0.850765,-0.05262 z m 1.947114,0.140333 c 0.07894,-0.07894 0.157874,-0.11402 0.254352,-0.11402 0,0 0,0 0,0 0.08771,0 0.157874,0.03508 0.219269,0.09648 0.0614,0.07017 0.08771,0.157874 0.08771,0.271894 0,0 0,0 0,0 0,0.149103 0.04385,0.649037 0.140332,1.499802 0,0 0,0 0,0 0.08771,0.885848 0.131562,1.613822 0.131562,2.201463 0,0 0,0 0,0 0,0.596412 0.0088,0.894619 0.03508,0.894619 0,0 0,0 0,0 0.02631,0 0.09648,-0.01754 0.192957,-0.04385 0,0 0,0 0,0 0.08771,-0.02631 0.368372,-0.07017 0.850765,-0.131562 0.482392,-0.06139 0.754286,-0.09648 0.833223,-0.11402 0,0 0,0 0,0 0.149103,-0.04385 0.280664,-0.0614 0.403455,-0.0614 0,0 0,0 0,0 0.236811,0 0.350831,0.11402 0.350831,0.350831 0,0 0,0 0,0 0,0.166644 -0.105249,0.298206 -0.324519,0.385914 -0.219269,0.08771 -0.640266,0.157873 -1.25422,0.219269 0,0 0,0 0,0 -0.429767,0.04385 -0.763057,0.11402 -1.008638,0.192957 0,0 0,0 0,0 -0.201728,0.06139 -0.324519,0.09648 -0.385914,0.09648 0,0 0,0 0,0 -0.03508,0 -0.08771,-0.01754 -0.166645,-0.04385 0,0 0,0 0,0 -0.131561,-0.0614 -0.219269,-0.175415 -0.245581,-0.34206 -0.02631,-0.157874 -0.04385,-0.587641 -0.04385,-1.280532 0,0 0,0 0,0 0,-0.780599 -0.03508,-1.526114 -0.09648,-2.254088 0,0 0,0 0,0 -0.0614,-0.622725 -0.08771,-1.078805 -0.08771,-1.359469 0,0 0,0 0,0 0,-0.157874 0.0088,-0.263123 0.01754,-0.315748 0.0088,-0.04385 0.04385,-0.09648 0.09648,-0.149103 z"
         id="text2-6-4"
         transform="rotate(-90)"
         aria-label="JAIL" /><path
         style="font-size:9.53852px;font-family:isaiahFont;-inkscape-font-specification:'isaiahFont, Normal';stroke-width:0.238462"
         d="m -51.693391,22.522408 c 0.08585,-0.08585 0.171693,-0.124001 0.25754,-0.124001 0,0 0,0 0,0 0.09539,0 0.181232,0.03815 0.25754,0.104924 0.06677,0.07631 0.104924,0.162154 0.104924,0.25754 0,0 0,0 0,0 0,0.08585 0.124,0.496003 0.372002,1.240007 0,0 0,0 0,0 0.314771,0.953852 0.553234,1.688318 0.715389,2.19386 0,0 0,0 0,0 0.228924,0.715389 0.362464,1.068314 0.400618,1.068314 0,0 0,0 0,0 0,0 0.19077,-0.381541 0.553234,-1.154161 0,0 0,0 0,0 0.96339,-2.079397 1.526163,-3.195404 1.678779,-3.34802 0,0 0,0 0,0 0.104924,-0.09539 0.200309,-0.143078 0.295695,-0.143078 0,0 0,0 0,0 0.06677,0 0.133539,0.02862 0.219386,0.07631 0,0 0,0 0,0 0.104923,0.06677 0.162154,0.162155 0.162154,0.267078 0,0 0,0 0,0 0,0.143078 -0.08585,0.381541 -0.25754,0.715389 0,0 0,0 0,0 -0.648619,1.278162 -1.249546,2.537247 -1.80278,3.786793 0,0 0,0 0,0 -0.276617,0.620004 -0.438772,0.972929 -0.486464,1.039698 0,0 0,0 0,0 -0.08585,0.13354 -0.219386,0.200309 -0.381541,0.200309 0,0 0,0 0,0 -0.124001,0 -0.238463,-0.04769 -0.333848,-0.143077 0,0 0,0 0,0 -0.09539,-0.104924 -0.238463,-0.410157 -0.438772,-0.925237 -0.200309,-0.51508 -0.39108,-1.087391 -0.572312,-1.726472 0,0 0,0 0,0 -0.25754,-0.896621 -0.438771,-1.497548 -0.543695,-1.80278 0,0 0,0 0,0 -0.181232,-0.553234 -0.276617,-0.934775 -0.305233,-1.144623 0,0 0,0 0,0 -0.0095,-0.04769 -0.0095,-0.114462 -0.0095,-0.181231 0,0 0,0 0,0 0,-0.09539 0.03815,-0.181232 0.114462,-0.25754 z m 7.955134,0 c 0.01908,-0.0095 0.162154,-0.01908 0.429233,-0.01908 0,0 0,0 0,0 0,0 0.162155,0 0.162155,0 0.104923,0 0.181232,0.0095 0.228924,0.01908 0.03815,0.01908 0.08585,0.05723 0.143078,0.114462 0,0 0,0 0,0 0.08585,0.08585 0.133539,0.181232 0.133539,0.276617 0,0 0,0 0,0 0,0.08585 -0.02862,0.152616 -0.09539,0.219386 0,0 0,0 0,0 -0.05723,0.05723 -0.124001,0.09539 -0.209847,0.114462 -0.08585,0.01908 -0.286156,0.03815 -0.58185,0.05723 0,0 0,0 0,0 0,0 -0.486465,0.03815 -0.486465,0.03815 0,0 0.02862,0.171694 0.02862,0.171694 0.06677,0.505541 0.124001,1.373546 0.171693,2.613554 0,0 0,0 0,0 0.02862,1.058776 0.06677,1.61201 0.104924,1.650164 0,0 0,0 0,0 0,0 0.02862,0.0095 0.06677,0.0095 0,0 0,0 0,0 0.06677,0 0.19077,-0.01908 0.372002,-0.04769 0,0 0,0 0,0 0.171693,-0.02862 0.295694,-0.04769 0.362464,-0.04769 0,0 0,0 0,0 0.162155,0 0.286155,0.07631 0.362463,0.219386 0,0 0,0 0,0 0.01908,0.04769 0.02862,0.08585 0.02862,0.13354 0,0 0,0 0,0 0,0.08585 -0.01908,0.162154 -0.06677,0.238463 -0.04769,0.07631 -0.104923,0.124 -0.162154,0.152616 0,0 0,0 0,0 -0.124001,0.04769 -0.553235,0.133539 -1.268624,0.25754 -0.724927,0.124001 -1.163699,0.19077 -1.316315,0.19077 0,0 0,0 0,0 -0.219386,0 -0.362464,-0.03815 -0.438772,-0.104923 0,0 0,0 0,0 -0.07631,-0.07631 -0.114462,-0.162155 -0.114462,-0.25754 0,0 0,0 0,0 0,-0.104924 0.03815,-0.190771 0.124,-0.267079 0.08585,-0.06677 0.190771,-0.104924 0.314771,-0.114462 0,0 0,0 0,0 0.08585,0 0.25754,-0.01908 0.515081,-0.05723 0,0 0,0 0,0 0,0 0.343386,-0.05723 0.343386,-0.05723 0,0 -0.0095,-1.259085 -0.0095,-1.259085 -0.0095,-1.306777 -0.05723,-2.336937 -0.13354,-3.100019 0,0 0,0 0,0 0,0 -0.02862,-0.276617 -0.02862,-0.276617 0,0 -0.400618,-0.02862 -0.400618,-0.02862 -0.25754,-0.01908 -0.419695,-0.05723 -0.486464,-0.124 0,0 0,0 0,0 -0.06677,-0.06677 -0.104924,-0.152617 -0.104924,-0.257541 0,-0.104923 0.03815,-0.19077 0.104924,-0.25754 0,0 0,0 0,0 0.04769,-0.04769 0.114462,-0.07631 0.219386,-0.09538 0.104923,-0.0095 0.352925,-0.02862 0.763081,-0.04769 0,0 0,0 0,0 0.610465,-0.03815 0.925237,-0.05723 0.925237,-0.05723 z m 3.777256,0.05723 c 0.152616,-0.05723 0.343386,-0.08585 0.572311,-0.08585 0,0 0,0 0,0 0.333848,0 0.629542,0.05723 0.868005,0.171693 0,0 0,0 0,0 0.162155,0.06677 0.295694,0.152617 0.400618,0.248002 0.104924,0.104924 0.152616,0.19077 0.152616,0.267078 0,0 0,0 0,0 0,0.04769 -0.03815,0.124001 -0.104923,0.219386 0,0 0,0 0,0 -0.05723,0.08585 -0.13354,0.124001 -0.238463,0.124001 0,0 0,0 0,0 -0.104924,0 -0.238463,-0.03815 -0.400618,-0.124001 0,0 0,0 0,0 -0.181232,-0.08585 -0.362464,-0.133539 -0.562773,-0.133539 0,0 0,0 0,0 -0.238463,0 -0.467387,0.05723 -0.677235,0.171693 0,0 0,0 0,0 -0.219386,0.114463 -0.429233,0.295695 -0.629542,0.534158 -0.200309,0.238463 -0.295694,0.44831 -0.295694,0.629542 0,0 0,0 0,0 0,0.08585 0.08585,0.152616 0.248001,0.200309 0.162155,0.04769 0.476926,0.08585 0.925237,0.124001 0,0 0,0 0,0 0.505541,0.04769 0.829851,0.07631 0.972929,0.09539 0.143077,0.02862 0.276617,0.06677 0.419695,0.133539 0,0 0,0 0,0 0.25754,0.114462 0.44831,0.305233 0.562772,0.562773 0,0 0,0 0,0 0.08585,0.162155 0.124001,0.362463 0.124001,0.581849 0,0 0,0 0,0 0,0.25754 -0.05723,0.505542 -0.162155,0.763082 -0.114462,0.25754 -0.267078,0.467387 -0.467387,0.639081 0,0 0,0 0,0 -0.238463,0.200309 -0.591389,0.391079 -1.058776,0.572311 -0.476926,0.181232 -0.868005,0.267079 -1.173238,0.267079 0,0 0,0 0,0 -0.343387,0 -0.629542,-0.06677 -0.858467,-0.209848 -0.228924,-0.133539 -0.343386,-0.305232 -0.343386,-0.505541 0,0 0,0 0,0 0,-0.04769 0.0095,-0.09539 0.02861,-0.152617 0,0 0,0 0,0 0.05723,-0.181232 0.171693,-0.267078 0.343387,-0.267078 0,0 0,0 0,0 0.114462,0 0.219386,0.04769 0.305232,0.133539 0,0 0,0 0,0 0.124001,0.104924 0.276618,0.162155 0.476926,0.162155 0,0 0,0 0,0 0.190771,0 0.429234,-0.04769 0.724928,-0.143078 0,0 0,0 0,0 0.400618,-0.133539 0.686773,-0.25754 0.868005,-0.372002 0.171694,-0.114462 0.295694,-0.25754 0.381541,-0.438772 0,0 0,0 0,0 0.06677,-0.143078 0.09539,-0.295694 0.09539,-0.438772 0,-0.143078 -0.02862,-0.248002 -0.08585,-0.314771 0,0 0,0 0,0 -0.04769,-0.05723 -0.162155,-0.104924 -0.333849,-0.13354 -0.181231,-0.02861 -0.543695,-0.06677 -1.106468,-0.114462 0,0 0,0 0,0 -1.001545,-0.08585 -1.573856,-0.381541 -1.716933,-0.896621 0,0 0,0 0,0 -0.01908,-0.06677 -0.02862,-0.143077 -0.02862,-0.219386 0,0 0,0 0,0 0,-0.372002 0.181232,-0.763081 0.534157,-1.182776 0.352925,-0.410156 0.77262,-0.705851 1.240008,-0.868005 z m 5.246193,-0.05723 c 0.01908,-0.0095 0.162155,-0.01908 0.429233,-0.01908 0,0 0,0 0,0 0,0 0.162155,0 0.162155,0 0.104924,0 0.181232,0.0095 0.228925,0.01908 0.03815,0.01908 0.08585,0.05723 0.143077,0.114462 0,0 0,0 0,0 0.08585,0.08585 0.13354,0.181232 0.13354,0.276617 0,0 0,0 0,0 0,0.08585 -0.02862,0.152616 -0.09539,0.219386 0,0 0,0 0,0 -0.05723,0.05723 -0.124001,0.09539 -0.209848,0.114462 -0.08585,0.01908 -0.286156,0.03815 -0.58185,0.05723 0,0 0,0 0,0 0,0 -0.486464,0.03815 -0.486464,0.03815 0,0 0.02862,0.171694 0.02862,0.171694 0.06677,0.505541 0.124001,1.373546 0.171694,2.613554 0,0 0,0 0,0 0.02862,1.058776 0.06677,1.61201 0.104923,1.650164 0,0 0,0 0,0 0,0 0.02862,0.0095 0.06677,0.0095 0,0 0,0 0,0 0.06677,0 0.190771,-0.01908 0.372002,-0.04769 0,0 0,0 0,0 0.171694,-0.02862 0.295695,-0.04769 0.362464,-0.04769 0,0 0,0 0,0 0.162155,0 0.286156,0.07631 0.362464,0.219386 0,0 0,0 0,0 0.01908,0.04769 0.02861,0.08585 0.02861,0.13354 0,0 0,0 0,0 0,0.08585 -0.01908,0.162154 -0.06677,0.238463 -0.04769,0.07631 -0.104924,0.124 -0.162155,0.152616 0,0 0,0 0,0 -0.124001,0.04769 -0.553234,0.133539 -1.268623,0.25754 -0.724928,0.124001 -1.1637,0.19077 -1.316316,0.19077 0,0 0,0 0,0 -0.219386,0 -0.362464,-0.03815 -0.438772,-0.104923 0,0 0,0 0,0 -0.07631,-0.07631 -0.114462,-0.162155 -0.114462,-0.25754 0,0 0,0 0,0 0,-0.104924 0.03815,-0.190771 0.124001,-0.267079 0.08585,-0.06677 0.19077,-0.104924 0.314771,-0.114462 0,0 0,0 0,0 0.08585,0 0.25754,-0.01908 0.51508,-0.05723 0,0 0,0 0,0 0,0 0.343387,-0.05723 0.343387,-0.05723 0,0 -0.0095,-1.259085 -0.0095,-1.259085 -0.0095,-1.306777 -0.05723,-2.336937 -0.133539,-3.100019 0,0 0,0 0,0 0,0 -0.02862,-0.276617 -0.02862,-0.276617 0,0 -0.400618,-0.02862 -0.400618,-0.02862 -0.25754,-0.01908 -0.419694,-0.05723 -0.486464,-0.124 0,0 0,0 0,0 -0.06677,-0.06677 -0.104924,-0.152617 -0.104924,-0.257541 0,-0.104923 0.03815,-0.19077 0.104924,-0.25754 0,0 0,0 0,0 0.04769,-0.04769 0.114462,-0.07631 0.219386,-0.09538 0.104924,-0.0095 0.352925,-0.02862 0.763082,-0.04769 0,0 0,0 0,0 0.610465,-0.03815 0.925236,-0.05723 0.925236,-0.05723 z m 4.568955,-0.07631 c 0.591388,-0.02861 1.135084,-0.03815 1.640625,-0.03815 0,0 0,0 0,0 0.438772,0 0.705851,0.0095 0.810774,0.03815 0,0 0,0 0,0 0.124001,0.02862 0.219386,0.07631 0.286156,0.143078 0.06677,0.07631 0.09538,0.162155 0.09538,0.248002 0,0 0,0 0,0 0,0.104923 -0.03815,0.19077 -0.124001,0.276617 0,0 0,0 0,0 -0.04769,0.04769 -0.114462,0.08585 -0.181232,0.09539 -0.06677,0.0095 -0.25754,0.01908 -0.553234,0.01908 0,0 0,0 0,0 0,0 -0.505541,0 -0.505541,0 0,0 -1.116007,0 -1.116007,0 0,0 0.02861,0.476926 0.02861,0.476926 0.07631,1.039699 0.13354,2.184321 0.162155,3.433867 0,0 0,0 0,0 0.0095,0.238463 0.0095,0.496003 0.0095,0.77262 0,0 0,0 0,0 0,0.219386 -0.02862,0.362464 -0.08585,0.419695 0,0 0,0 0,0 -0.06677,0.08585 -0.181232,0.124001 -0.343387,0.124001 0,0 0,0 0,0 -0.06677,0 -0.124,-0.01908 -0.171693,-0.04769 0,0 0,0 0,0 -0.09539,-0.06677 -0.152616,-0.200309 -0.171693,-0.391079 -0.02862,-0.181232 -0.04769,-0.753543 -0.06677,-1.707395 0,0 0,0 0,0 -0.01908,-1.154161 -0.04769,-1.974474 -0.07631,-2.441861 0,0 0,0 0,0 0,0 -0.03815,-0.562773 -0.03815,-0.562773 0,0 -0.925237,0 -0.925237,0 -0.620003,0 -0.96339,-0.0095 -1.039698,-0.03815 0,0 0,0 0,0 -0.124001,-0.04769 -0.190771,-0.152616 -0.190771,-0.314771 0,0 0,0 0,0 0,-0.143078 0.05723,-0.248002 0.162155,-0.305233 0,0 0,0 0,0 0.114462,-0.06677 0.915698,-0.133539 2.394169,-0.200309 z m 5.780349,0.07631 c 0.01908,-0.0095 0.162155,-0.01908 0.429234,-0.01908 0,0 0,0 0,0 0,0 0.162154,0 0.162154,0 0.104924,0 0.181232,0.0095 0.228925,0.01908 0.03815,0.01908 0.08585,0.05723 0.143078,0.114462 0,0 0,0 0,0 0.08585,0.08585 0.133539,0.181232 0.133539,0.276617 0,0 0,0 0,0 0,0.08585 -0.02862,0.152616 -0.09539,0.219386 0,0 0,0 0,0 -0.05723,0.05723 -0.124001,0.09539 -0.209848,0.114462 -0.08585,0.01908 -0.286155,0.03815 -0.581849,0.05723 0,0 0,0 0,0 0,0 -0.486465,0.03815 -0.486465,0.03815 0,0 0.02862,0.171694 0.02862,0.171694 0.06677,0.505541 0.124,1.373546 0.171693,2.613554 0,0 0,0 0,0 0.02862,1.058776 0.06677,1.61201 0.104924,1.650164 0,0 0,0 0,0 0,0 0.02861,0.0095 0.06677,0.0095 0,0 0,0 0,0 0.06677,0 0.190771,-0.01908 0.372003,-0.04769 0,0 0,0 0,0 0.171693,-0.02862 0.295694,-0.04769 0.362463,-0.04769 0,0 0,0 0,0 0.162155,0 0.286156,0.07631 0.362464,0.219386 0,0 0,0 0,0 0.01908,0.04769 0.02862,0.08585 0.02862,0.13354 0,0 0,0 0,0 0,0.08585 -0.01908,0.162154 -0.06677,0.238463 -0.04769,0.07631 -0.104924,0.124 -0.162155,0.152616 0,0 0,0 0,0 -0.124001,0.04769 -0.553234,0.133539 -1.268623,0.25754 -0.724927,0.124001 -1.163699,0.19077 -1.316316,0.19077 0,0 0,0 0,0 -0.219386,0 -0.362463,-0.03815 -0.438772,-0.104923 0,0 0,0 0,0 -0.07631,-0.07631 -0.114462,-0.162155 -0.114462,-0.25754 0,0 0,0 0,0 0,-0.104924 0.03815,-0.190771 0.124001,-0.267079 0.08585,-0.06677 0.19077,-0.104924 0.314771,-0.114462 0,0 0,0 0,0 0.08585,0 0.25754,-0.01908 0.51508,-0.05723 0,0 0,0 0,0 0,0 0.343387,-0.05723 0.343387,-0.05723 0,0 -0.0095,-1.259085 -0.0095,-1.259085 -0.0095,-1.306777 -0.05723,-2.336937 -0.133539,-3.100019 0,0 0,0 0,0 0,0 -0.02861,-0.276617 -0.02861,-0.276617 0,0 -0.400618,-0.02862 -0.400618,-0.02862 -0.25754,-0.01908 -0.419695,-0.05723 -0.486465,-0.124 0,0 0,0 0,0 -0.06677,-0.06677 -0.104924,-0.152617 -0.104924,-0.257541 0,-0.104923 0.03815,-0.19077 0.104924,-0.25754 0,0 0,0 0,0 0.04769,-0.04769 0.114462,-0.07631 0.219386,-0.09538 0.104924,-0.0095 0.352925,-0.02862 0.763082,-0.04769 0,0 0,0 0,0 0.610465,-0.03815 0.925236,-0.05723 0.925236,-0.05723 z m 6.285887,0.03815 c 0.06677,-0.07631 0.152616,-0.114463 0.276617,-0.114463 0,0 0,0 0,0 0.114462,0 0.209847,0.03815 0.286155,0.124001 0,0 0,0 0,0 0.07631,0.07631 0.114462,0.171693 0.114462,0.276617 0,0 0,0 0,0 0,0.09538 -0.02861,0.248002 -0.08585,0.457849 0,0 0,0 0,0 -0.295694,1.173238 -0.553234,2.098475 -0.77262,2.775709 0,0 0,0 0,0 -0.200309,0.610466 -0.381541,1.201854 -0.534157,1.774165 0,0 0,0 0,0 -0.07631,0.305233 -0.162155,0.51508 -0.248002,0.629542 -0.08585,0.114463 -0.209847,0.171694 -0.352925,0.171694 0,0 0,0 0,0 -0.124001,0 -0.238463,-0.05723 -0.32431,-0.171694 -0.08585,-0.104923 -0.181232,-0.305232 -0.276617,-0.581849 0,0 0,0 0,0 -0.08585,-0.267079 -0.209847,-0.744005 -0.381541,-1.430778 -0.181232,-0.686774 -0.267078,-1.068314 -0.267078,-1.135084 0,-0.06677 -0.0095,-0.104924 -0.03815,-0.104924 0,0 0,0 0,0 -0.02862,0 -0.09539,0.190771 -0.200309,0.58185 0,0 0,0 0,0 -0.124001,0.476926 -0.286156,1.058776 -0.496003,1.736011 -0.209848,0.677234 -0.333849,1.049237 -0.381541,1.096929 0,0 0,0 0,0 -0.04769,0.05723 -0.124001,0.08585 -0.238463,0.08585 -0.114462,0 -0.200309,-0.02862 -0.267079,-0.09539 0,0 0,0 0,0 -0.05723,-0.05723 -0.08585,-0.13354 -0.08585,-0.228925 0,0 0,0 0,0 0,-0.124 0.08585,-0.51508 0.267078,-1.173238 0,0 0,0 0,0 0.200309,-0.70585 0.496003,-1.964935 0.90616,-3.767715 0,0 0,0 0,0 0.08585,-0.32431 0.152616,-0.51508 0.200308,-0.58185 0,0 0,0 0,0 0.08585,-0.08585 0.181232,-0.133539 0.286156,-0.133539 0,0 0,0 0,0 0.162155,0 0.295694,0.09539 0.400618,0.286156 0,0 0,0 0,0 0.04769,0.09539 0.143078,0.51508 0.286155,1.249546 0,0 0,0 0,0 0.32431,1.688318 0.524619,2.537246 0.591389,2.537246 0,0 0,0 0,0 0.04769,0 0.19077,-0.410156 0.44831,-1.230469 0.248002,-0.810774 0.419695,-1.430778 0.51508,-1.850473 0,0 0,0 0,0 0.143078,-0.677235 0.267079,-1.077853 0.372003,-1.182776 z m 4.444956,0.228924 c 0.08585,-0.0095 0.228924,-0.01908 0.44831,-0.01908 0,0 0,0 0,0 0.381541,0 0.629542,0.01908 0.744005,0.06677 0,0 0,0 0,0 0.200309,0.08585 0.305232,0.219386 0.305232,0.410156 0,0 0,0 0,0 0,0.06677 -0.01908,0.124001 -0.05723,0.181232 0,0 0,0 0,0 -0.104924,0.124001 -0.25754,0.19077 -0.467387,0.19077 0,0 0,0 0,0 -0.06677,0 -0.124001,0 -0.171694,-0.0095 0,0 0,0 0,0 -0.06677,-0.0095 -0.162154,-0.0095 -0.286155,-0.0095 0,0 0,0 0,0 -0.429234,0 -0.801236,0.07631 -1.106469,0.219386 0,0 0,0 0,0 -0.25754,0.124001 -0.534157,0.343387 -0.810774,0.658158 -0.276617,0.314771 -0.486464,0.639081 -0.610465,0.953852 0,0 0,0 0,0 -0.124001,0.295694 -0.181232,0.610465 -0.181232,0.934775 0,0 0,0 0,0 0,0.333848 0.06677,0.629542 0.190771,0.887082 0.124,0.25754 0.286155,0.438772 0.505541,0.534158 0,0 0,0 0,0 0.162155,0.06677 0.429233,0.104923 0.820313,0.104923 0,0 0,0 0,0 0.152616,0 0.286155,-0.0095 0.400618,-0.03815 0,0 0,0 0,0 0.162154,-0.05723 0.295694,-0.124001 0.391079,-0.209847 0,0 0,0 0,0 0.104924,-0.09539 0.209847,-0.248002 0.314771,-0.448311 0.09539,-0.200309 0.143078,-0.362463 0.143078,-0.486464 0,0 0,0 0,0 0,-0.08585 -0.0095,-0.152617 -0.02862,-0.181232 -0.02862,-0.02862 -0.09539,-0.06677 -0.200309,-0.114462 0,0 0,0 0,0 -0.133539,-0.05723 -0.267078,-0.08585 -0.410156,-0.08585 0,0 0,0 0,0 -0.03815,0 -0.152616,0.0095 -0.343387,0.01908 0,0 0,0 0,0 -0.419695,0.02862 -0.658158,0.04769 -0.715389,0.05723 0,0 0,0 0,0 -0.06677,0.0095 -0.104923,0.01908 -0.124,0.01908 0,0 0,0 0,0 -0.06677,0 -0.114463,-0.02861 -0.162155,-0.08585 0,0 0,0 0,0 -0.06677,-0.06677 -0.09539,-0.152616 -0.09539,-0.238463 0,0 0,0 0,0 0,-0.09539 0.03815,-0.19077 0.124,-0.276617 0.08585,-0.08585 0.190771,-0.143077 0.32431,-0.181231 0,0 0,0 0,0 0.200309,-0.05723 0.467387,-0.08585 0.801236,-0.08585 0,0 0,0 0,0 0.267078,0 0.476926,0.01908 0.629542,0.05723 0,0 0,0 0,0 0.343387,0.08585 0.591388,0.219386 0.753543,0.381541 0.162155,0.171693 0.238463,0.400618 0.238463,0.686773 0,0 0,0 0,0 0,0.410157 -0.114462,0.801236 -0.343387,1.1637 -0.228924,0.362463 -0.51508,0.610465 -0.868005,0.753543 0,0 0,0 0,0 -0.228924,0.08585 -0.524619,0.124 -0.877544,0.124 0,0 0,0 0,0 -0.352925,0 -0.667696,-0.03815 -0.96339,-0.124 0,0 0,0 0,0 -0.467388,-0.143078 -0.820313,-0.457849 -1.058776,-0.963391 0,0 0,0 0,0 -0.181232,-0.381541 -0.267079,-0.763081 -0.267079,-1.154161 0,0 0,0 0,0 0,-0.02861 0,-0.06677 0.0095,-0.124 0,-0.05723 0,-0.104924 0,-0.13354 0,0 0,0 0,0 0.04769,-0.877544 0.410156,-1.678779 1.106468,-2.413245 0,0 0,0 0,0 0.562773,-0.591389 1.192315,-0.934775 1.898166,-1.020622 z"
         id="text2-7"
         transform="rotate(-135)"
         aria-label="VISITING" /><path
         style="font-size:9.53852px;font-family:isaiahFont;-inkscape-font-specification:'isaiahFont, Normal';stroke-width:0.238462"
         d="m -17.998592,56.989839 c 0.08585,-0.04769 0.181232,-0.06677 0.276617,-0.04769 0,0 0,0 0,0 0.06677,0.0095 0.753543,0.02862 2.069859,0.05723 0,0 0,0 0,0 1.268623,0.01908 1.964935,0.05723 2.079397,0.124001 0,0 0,0 0,0 0.181232,0.09539 0.276617,0.228925 0.276617,0.410157 0,0 0,0 0,0 0,0.143077 -0.06677,0.25754 -0.200309,0.343386 0,0 0,0 0,0 -0.05723,0.03815 -0.104924,0.05723 -0.152616,0.05723 0,0 0,0 0,0 -0.03815,0 -0.104924,-0.0095 -0.190771,-0.02861 0,0 0,0 0,0 -0.114462,-0.03815 -0.429233,-0.06677 -0.944313,-0.09539 0,0 0,0 0,0 0,0 -0.715389,-0.02862 -0.715389,-0.02862 0,0 0.02862,0.267079 0.02862,0.267079 0.08585,0.763081 0.133539,1.297238 0.133539,1.592932 0,0 0,0 0,0 0,0.162155 0,0.295695 -0.0095,0.39108 0,0 0,0 0,0 -0.0095,0.429233 -0.03815,0.744004 -0.08585,0.96339 -0.04769,0.219386 -0.152617,0.467388 -0.295694,0.763082 0,0 0,0 0,0 -0.238463,0.467387 -0.505542,0.77262 -0.801236,0.906159 0,0 0,0 0,0 -0.171693,0.07631 -0.343387,0.114462 -0.524619,0.114462 0,0 0,0 0,0 -0.372002,0 -0.686773,-0.152616 -0.944313,-0.44831 0,0 0,0 0,0 -0.286156,-0.32431 -0.429234,-0.610465 -0.429234,-0.868005 0,0 0,0 0,0 0,-0.114463 0.02862,-0.200309 0.09539,-0.267079 0,0 0,0 0,0 0.08585,-0.09539 0.181232,-0.143078 0.276617,-0.143078 0,0 0,0 0,0 0.162155,0 0.295694,0.114463 0.410156,0.333849 0,0 0,0 0,0 0.04769,0.104923 0.133539,0.219386 0.25754,0.362463 0,0 0,0 0,0 0.114462,0.124001 0.228925,0.181232 0.352925,0.181232 0,0 0,0 0,0 0.114463,0 0.209848,-0.04769 0.295694,-0.133539 0.08585,-0.08585 0.181232,-0.238463 0.295695,-0.476926 0,0 0,0 0,0 0.219386,-0.448311 0.324309,-1.020622 0.324309,-1.716934 0,0 0,0 0,0 0,-0.295694 -0.01908,-0.658158 -0.05723,-1.068314 -0.04769,-0.410156 -0.08585,-0.639081 -0.114462,-0.686773 0,0 0,0 0,0 -0.01908,-0.02862 -0.133539,-0.04769 -0.333848,-0.04769 0,0 0,0 0,0 -0.219386,0 -0.457849,-0.01908 -0.734466,-0.05723 -0.276617,-0.02862 -0.457849,-0.06677 -0.562773,-0.114462 0,0 0,0 0,0 -0.162155,-0.06677 -0.248002,-0.190771 -0.248002,-0.352925 0,0 0,0 0,0 0,-0.124001 0.05723,-0.219386 0.171694,-0.286156 z m 5.580029,0.486464 c 0.0095,-0.124 0.06677,-0.248001 0.152616,-0.352925 0.08585,-0.104924 0.181232,-0.152616 0.295694,-0.152616 0,0 0,0 0,0 0.08585,0 0.162155,0.02862 0.248002,0.09539 0.08585,0.06677 0.124001,0.143078 0.124001,0.248002 0,0 0,0 0,0 0,0.08585 -0.02862,0.181231 -0.08585,0.295694 0,0 0,0 0,0 -0.04769,0.104923 -0.07631,0.362463 -0.07631,0.77262 0,0 0,0 0,0 0,0 0,0.333848 0,0.333848 0.0095,0.982468 0.114462,1.80278 0.295694,2.480015 0.181232,0.677235 0.391079,1.011083 0.639081,1.011083 0,0 0,0 0,0 0.143078,0 0.314771,-0.143078 0.505541,-0.419695 0.181232,-0.276617 0.305233,-0.553234 0.3529256,-0.829851 0,0 0,0 0,0 0.00954,-0.05723 0.028616,-0.143078 0.057231,-0.248001 0.019077,-0.104924 0.028616,-0.171694 0.038154,-0.209848 0.00954,-0.02862 0.019077,-0.08585 0.028616,-0.162155 0.00954,-0.07631 0.019077,-0.143077 0.019077,-0.19077 0,-0.04769 0,-0.124001 0.00954,-0.209847 0.00954,-0.08585 0.00954,-0.181232 0.019077,-0.286156 0,-0.104924 0,-0.228925 0,-0.362464 0,-0.133539 0,-0.305232 0,-0.505541 0,0 0,0 0,0 0,-0.677235 0.00954,-1.09693 0.019077,-1.240008 0.00954,-0.143078 0.038154,-0.248001 0.085847,-0.305233 0,0 0,0 0,0 0.095385,-0.104923 0.2003089,-0.152616 0.3147711,-0.152616 0,0 0,0 0,0 0.1621549,0 0.2861556,0.08585 0.3529253,0.267079 0,0 0,0 0,0 0.047693,0.124 0.06677,0.620003 0.06677,1.497547 0,0 0,0 0,0 0,0.848929 -0.019077,1.411701 -0.06677,1.67878 0,0 0,0 0,0 -0.047693,0.238463 -0.1240008,0.524618 -0.2289245,0.877544 -0.1144623,0.352925 -0.219386,0.600926 -0.3052326,0.763081 0,0 0,0 0,0 -0.095385,0.171694 -0.238463,0.343387 -0.4292334,0.51508 -0.1907706,0.171694 -0.3529256,0.276617 -0.4960026,0.314771 0,0 0,0 0,0 -0.114463,0.02862 -0.219386,0.04769 -0.32431,0.04769 0,0 0,0 0,0 -0.429234,0 -0.753543,-0.171693 -0.992006,-0.524619 0,0 0,0 0,0 -0.314771,-0.457849 -0.534157,-1.163699 -0.667697,-2.108012 0,0 0,0 0,0 -0.04769,-0.295695 -0.06677,-0.724928 -0.06677,-1.287701 0,0 0,0 0,0 0,-0.429233 0.01908,-0.801235 0.04769,-1.096929 0,0 0,0 0,0 0.02862,-0.181232 0.04769,-0.372003 0.06677,-0.553235 z m 5.9711095,-0.476926 c 0.1526164,-0.05723 0.3433868,-0.08585 0.5723112,-0.08585 0,0 0,0 0,0 0.3338482,0 0.6295423,0.05723 0.8680053,0.171693 0,0 0,0 0,0 0.1621549,0.06677 0.2956942,0.152616 0.4006179,0.248002 0.1049237,0.104923 0.1526163,0.19077 0.1526163,0.267078 0,0 0,0 0,0 0,0.04769 -0.038154,0.124001 -0.1049237,0.219386 0,0 0,0 0,0 -0.057231,0.08585 -0.1335393,0.124001 -0.238463,0.124001 0,0 0,0 0,0 -0.1049237,0 -0.238463,-0.03815 -0.4006179,-0.124001 0,0 0,0 0,0 -0.1812318,-0.08585 -0.3624637,-0.133539 -0.5627726,-0.133539 0,0 0,0 0,0 -0.238463,0 -0.4673875,0.05723 -0.6772349,0.171693 0,0 0,0 0,0 -0.219386,0.114462 -0.4292334,0.295694 -0.6295424,0.534157 -0.2003089,0.238463 -0.2956941,0.448311 -0.2956941,0.629543 0,0 0,0 0,0 0,0.08585 0.085847,0.152616 0.2480015,0.200309 0.1621549,0.04769 0.476926,0.08585 0.9252365,0.124 0,0 0,0 0,0 0.5055415,0.04769 0.8298512,0.07631 0.972929,0.09539 0.1430778,0.02861 0.2766171,0.06677 0.4196949,0.133539 0,0 0,0 0,0 0.25754,0.114462 0.4483104,0.305232 0.5627726,0.562772 0,0 0,0 0,0 0.085847,0.162155 0.1240008,0.362464 0.1240008,0.58185 0,0 0,0 0,0 0,0.25754 -0.057231,0.505542 -0.1621548,0.763082 -0.1144623,0.25754 -0.2670786,0.467387 -0.4673875,0.639081 0,0 0,0 0,0 -0.238463,0.200309 -0.5913882,0.391079 -1.0587757,0.572311 -0.476926,0.181232 -0.8680053,0.267078 -1.173238,0.267078 0,0 0,0 0,0 -0.3433867,0 -0.6295423,-0.06677 -0.8584667,-0.209847 -0.2289245,-0.133539 -0.3433868,-0.305233 -0.3433868,-0.505542 0,0 0,0 0,0 0,-0.04769 0.00954,-0.09539 0.028616,-0.152616 0,0 0,0 0,0 0.057231,-0.181232 0.1716934,-0.267079 0.3433867,-0.267079 0,0 0,0 0,0 0.1144623,0 0.219386,0.04769 0.3052327,0.13354 0,0 0,0 0,0 0.1240007,0.104923 0.276617,0.162155 0.4769259,0.162155 0,0 0,0 0,0 0.1907704,0 0.4292334,-0.04769 0.7249276,-0.143078 0,0 0,0 0,0 0.4006178,-0.133539 0.6867734,-0.25754 0.8680053,-0.372002 0.1716933,-0.114463 0.2956941,-0.257541 0.3815408,-0.438772 0,0 0,0 0,0 0.06677,-0.143078 0.095385,-0.295695 0.095385,-0.438772 0,-0.143078 -0.028616,-0.248002 -0.085847,-0.314771 0,0 0,0 0,0 -0.047693,-0.05723 -0.1621549,-0.104924 -0.3338482,-0.13354 -0.1812319,-0.02862 -0.5436957,-0.06677 -1.1064683,-0.114462 0,0 0,0 0,0 -1.0015446,-0.08585 -1.5738558,-0.381541 -1.7169336,-0.896621 0,0 0,0 0,0 -0.019077,-0.06677 -0.028616,-0.143078 -0.028616,-0.219386 0,0 0,0 0,0 0,-0.372002 0.1812319,-0.763081 0.5341572,-1.182776 0.3529252,-0.410157 0.7726201,-0.705851 1.2400075,-0.868006 z m 5.64681117,-0.133539 c 0.59138823,-0.02861 1.13508386,-0.03815 1.64062541,-0.03815 0,0 0,0 0,0 0.43877192,0 0.70585052,0.0095 0.81077422,0.03815 0,0 0,0 0,0 0.1240007,0.02862 0.2193859,0.07631 0.2861556,0.143078 0.06677,0.07631 0.095385,0.162155 0.095385,0.248001 0,0 0,0 0,0 0,0.104924 -0.038154,0.190771 -0.1240008,0.276618 0,0 0,0 0,0 -0.047693,0.04769 -0.1144622,0.08585 -0.1812319,0.09539 -0.06677,0.0095 -0.25754,0.01908 -0.5532341,0.01908 0,0 0,0 0,0 0,0 -0.50554157,0 -0.50554157,0 0,0 -1.11600683,0 -1.11600683,0 0,0 0.0286156,0.476926 0.0286156,0.476926 0.0763082,1.039698 0.13353928,2.184321 0.16215484,3.433867 0,0 0,0 0,0 0.009539,0.238463 0.009539,0.496003 0.009539,0.77262 0,0 0,0 0,0 0,0.219386 -0.0286156,0.362464 -0.0858467,0.419695 0,0 0,0 0,0 -0.0667696,0.08585 -0.18123188,0.124001 -0.34338671,0.124001 0,0 0,0 0,0 -0.0667696,0 -0.12400076,-0.01908 -0.17169336,-0.04769 0,0 0,0 0,0 -0.0953852,-0.06677 -0.15261627,-0.200309 -0.17169337,-0.391079 -0.028615,-0.181232 -0.047693,-0.753543 -0.06677,-1.707395 0,0 0,0 0,0 -0.019077,-1.154161 -0.047693,-1.974474 -0.076308,-2.441861 0,0 0,0 0,0 0,0 -0.038154,-0.562773 -0.038154,-0.562773 0,0 -0.9252364,0 -0.9252364,0 -0.6200038,0 -0.9633905,-0.0095 -1.0396987,-0.03815 0,0 0,0 0,0 -0.1240007,-0.04769 -0.1907704,-0.152616 -0.1907704,-0.314771 0,0 0,0 0,0 0,-0.143078 0.057231,-0.248002 0.1621549,-0.305233 0,0 0,0 0,0 0.1144622,-0.06677 0.9156979,-0.133539 2.39416847,-0.200309 z"
         id="text2-7-1"
         transform="rotate(-45)"
         aria-label="JUST" /><rect
         style="fill:#f9f9f9;fill-opacity:1;stroke:url(#linearGradient4);stroke-width:0.621551;stroke-dasharray:none;paint-order:markers fill stroke"
         id="rect3"
         width="28.32305"
         height="28.32305"
         x="-38.267429"
         y="-0.7280131"
         transform="rotate(-90)" /></g></g><style
     type="text/css"
     id="style1"><![CDATA[
	.st0{fill-rule:evenodd;clip-rule:evenodd;}
]]></style><style
     type="text/css"
     id="style1-3">.st0{fill-rule:evenodd;clip-rule:evenodd;}</style></svg>
