<?xml version="1.0" encoding="UTF-8" standalone="no"?>
<!-- Created with Inkscape (http://www.inkscape.org/) -->

<svg
   width="50mm"
   height="50mm"
   viewBox="0 0 50 50"
   version="1.1"
   id="svg1"
   inkscape:version="1.3 (0e150ed6c4, 2023-07-21)"
   sodipodi:docname="parking.svg"
   xml:space="preserve"
   xmlns:inkscape="http://www.inkscape.org/namespaces/inkscape"
   xmlns:sodipodi="http://sodipodi.sourceforge.net/DTD/sodipodi-0.dtd"
   xmlns="http://www.w3.org/2000/svg"
   xmlns:svg="http://www.w3.org/2000/svg"><sodipodi:namedview
     id="namedview1"
     pagecolor="#ffffff"
     bordercolor="#666666"
     borderopacity="1.0"
     inkscape:showpageshadow="2"
     inkscape:pageopacity="0.0"
     inkscape:pagecheckerboard="0"
     inkscape:deskcolor="#d1d1d1"
     inkscape:document-units="mm"
     inkscape:zoom="6.7277216"
     inkscape:cx="82.420176"
     inkscape:cy="83.16337"
     inkscape:window-width="1948"
     inkscape:window-height="1070"
     inkscape:window-x="102"
     inkscape:window-y="245"
     inkscape:window-maximized="0"
     inkscape:current-layer="g2" /><defs
     id="defs1" /><g
     inkscape:label="Layer 1"
     inkscape:groupmode="layer"
     id="layer1"
     transform="matrix(0,1.2112922,-1.2112922,0,54.92251,-6.4566465)"><g
       id="g2"
       transform="matrix(0.46960164,0.46960164,-0.46960164,0.46960164,25.59535,1.5909268)"><g
         id="g1"
         transform="matrix(0.62742274,0,0,0.62742274,9.3144317,10.228769)"
         style="display:inline"><path
           class="st0"
           d="M 11.43553,28.167831 C 8.5304055,26.691456 8.8637805,25.045748 11.782135,25.217727 l 0.65352,1.225021 1.34673,-4.188354 c 0.529166,-1.648354 1.410229,-3.14325 3.137958,-3.14325 h 17.224375 c 1.727729,0 2.722562,1.465792 3.140604,3.140604 l 1.010708,4.061354 0.582084,-1.095375 c 3.000375,-0.174625 3.267604,1.568979 0.0926,3.074459 l 0.515941,0.791104 c 2.087563,2.145771 1.891771,5.939896 1.566334,11.2395 v 2.153708 c 0,0.53975 -0.441854,0.981604 -0.981604,0.981604 H 35.88303 c -0.53975,0 -0.981604,-0.441854 -0.981604,-0.981604 V 41.27529 H 15.105301 v 1.201208 c 0,0.53975 -0.441854,0.981604 -0.981604,0.981604 H 9.9353431 c -0.5397496,0 -0.9816036,-0.441854 -0.9816036,-0.981604 v -2.674937 c 0,-0.05292 0.0053,-0.103188 0.01058,-0.153459 -0.3175,-4.066646 -0.764646,-9.384771 2.4712075,-11.480271 z m 5.34723,6.474355 -3.720042,-0.468313 c -0.878417,-0.0979 -1.113896,0.272521 -0.814917,1.029229 l 0.402167,0.976313 c 0.129646,0.251354 0.301625,0.433916 0.502708,0.560916 0.235479,0.145521 0.518584,0.216959 0.833438,0.230188 l 3.317875,0.02646 c 0.801687,-0.0026 1.148291,-0.322793 0.896937,-1.058335 -0.206375,-0.690563 -0.677333,-1.124479 -1.418166,-1.296458 z m 6.35,-1.563688 h 3.81 c 0.224895,0 0.410104,0.185209 0.410104,0.410104 v 0 c 0,0.224896 -0.185209,0.410104 -0.410104,0.410104 h -3.81 c -0.224896,0 -0.410105,-0.185208 -0.410105,-0.410104 v 0 c -0.0026,-0.224896 0.182563,-0.410104 0.410105,-0.410104 z m 9.413875,5.386917 h 3.81 c 0.224895,0 0.410104,0.185208 0.410104,0.410104 v 0 c 0,0.224896 -0.185209,0.410104 -0.410104,0.410104 h -3.81 c -0.224896,0 -0.410105,-0.185208 -0.410105,-0.410104 v 0 c 0,-0.224896 0.182563,-0.410104 0.410105,-0.410104 z m 0.672041,-3.823229 3.720042,-0.468313 c 0.878417,-0.0979 1.113896,0.272521 0.814917,1.029229 l -0.402167,0.976313 c -0.129646,0.251354 -0.301625,0.433916 -0.502708,0.560916 -0.23548,0.145521 -0.518584,0.216959 -0.833438,0.230188 l -3.317875,0.02646 c -0.801687,-0.0026 -1.148292,-0.322791 -0.896937,-1.058333 0.206375,-0.690563 0.677333,-1.124479 1.418166,-1.296458 z m -19.602979,3.823229 h 3.81 c 0.224896,0 0.410104,0.185208 0.410104,0.410104 v 0 c 0,0.224896 -0.185208,0.410104 -0.410104,0.410104 h -3.81 c -0.224896,0 -0.410104,-0.185208 -0.410104,-0.410104 v 0 c 0,-0.224896 0.185208,-0.410104 0.410104,-0.410104 z M 13.832655,27.366144 H 36.80378 L 35.790426,23.153977 C 35.512614,21.870748 34.713572,20.759498 33.395947,20.759498 H 17.491843 c -1.314979,0 -1.989667,1.140354 -2.394479,2.394479 l -1.264709,4.212167 v 0.198437 z"
           id="path1"
           style="fill:#000000;stroke-width:0.264583" /><polygon
           class="st0"
           points="31.99,0 55.17,0 55.17,28.3 87.16,28.3 87.16,51.47 55.17,51.47 55.17,122.88 31.99,122.88 31.99,51.47 0,51.47 0,28.3 31.99,28.3 "
           id="polygon1"
           transform="matrix(0.09787563,0,0,0.08467455,20.73458,5.9612206)"
           style="fill:#000000" /></g><path
         style="font-weight:500;font-size:8.77077px;font-family:isaiahFont;-inkscape-font-specification:'isaiahFont, Medium';text-align:center;text-anchor:middle;stroke-width:0.147855"
         d="m 8.4306312,2.0790156 c -0.11402,-0.061395 -0.3245185,-0.087708 -0.6314954,-0.087708 0,0 0,0 0,0 -0.11402,0 -0.2017277,0.00877 -0.2455816,0.026312 0,0 0,0 0,0 -0.078937,0.035083 -0.1315615,0.078937 -0.1578738,0.1227908 -0.026312,0.043854 -0.035083,0.1403323 -0.035083,0.2806646 0,0 0,0 0,0 0,0.043854 0.00877,0.2104985 0.017542,0.5174755 0,0 0,0 0,0 0,0 0.043854,0.7279739 0.043854,0.7279739 0,0 0.2631231,0.061395 0.2631231,0.061395 0.087708,0.017542 0.1841861,0.026312 0.2806646,0.026312 0,0 0,0 0,0 0.2455816,0 0.4297677,-0.043854 0.5613293,-0.1403323 0,0 0,0 0,0 0.1227908,-0.078937 0.2368108,-0.192957 0.34206,-0.3596016 0.1052493,-0.1578739 0.1578739,-0.2894354 0.1578739,-0.3946847 0,0 0,0 0,0 0,-0.1315615 -0.061395,-0.2718938 -0.1754154,-0.4209969 C 8.7376082,2.2895141 8.5972759,2.1667233 8.4306312,2.0790156 Z M 7.7114281,1.2808755 c 0.1754154,-0.026312 0.2982062,-0.035083 0.3596015,-0.035083 0,0 0,0 0,0 0.052625,0 0.1140201,0.00877 0.1841862,0.017541 0,0 0,0 0,0 0.1666447,0.026312 0.3420601,0.096479 0.5437878,0.2017277 0.1929569,0.11402 0.3508308,0.22804 0.4823923,0.3596016 0,0 0,0 0,0 0.3245185,0.3245185 0.4911631,0.6753493 0.4911631,1.0437216 0,0 0,0 0,0 0,0.192957 -0.052625,0.3946847 -0.149103,0.6051832 0,0 0,0 0,0 -0.096478,0.2017277 -0.2455816,0.3946846 -0.4473093,0.5701 -0.2017277,0.1841862 -0.3946847,0.306977 -0.5964124,0.3771431 0,0 0,0 0,0 -0.1491031,0.061395 -0.2192692,0.096478 -0.2192692,0.11402 0,0 0,0 0,0 0,0.026312 0.1315615,0.1491031 0.4034554,0.3596016 0.2631231,0.2104985 0.4297677,0.3245185 0.4999339,0.3508308 0.070166,0.026312 0.1578738,0.087708 0.2718939,0.2017277 0,0 0,0 0,0 0.026312,0.026312 0.1754154,0.1491031 0.4473092,0.3683724 0,0 0,0 0,0 0.2192695,0.1666446 0.3245185,0.3157477 0.3245185,0.4648508 0,0 0,0 0,0 0,0.096478 -0.05262,0.1929569 -0.149103,0.2806646 0,0 0,0 0,0 -0.04385,0.043854 -0.09648,0.061395 -0.1754155,0.061395 0,0 0,0 0,0 -0.043854,0 -0.1403323,-0.017541 -0.2982062,-0.043854 0,0 0,0 0,0 -0.043854,-0.00877 -0.1578738,-0.096478 -0.3332892,-0.2455816 0,0 0,0 0,0 C 9.1849174,6.1925068 8.860399,5.9293837 8.3604651,5.534699 c 0,0 0,0 0,0 C 7.8780727,5.1575559 7.6237204,4.9470574 7.5974081,4.9119743 c 0,0 0,0 0,0 -0.017542,-0.035083 -0.035083,-0.052625 -0.052625,-0.052625 0,0 0,0 0,0 -0.026312,0 -0.043854,0.1227908 -0.043854,0.3683724 0,0 0,0 0,0 0,0.2017277 0,0.3859139 0.00877,0.5350169 0,0 0,0 0,0 0.00877,0.3157478 0.017542,0.5087047 0.017542,0.5701001 0,0 0,0 0,0 0,0.22804 -0.00877,0.3859139 -0.035083,0.4736216 -0.026312,0.087708 -0.078937,0.1491031 -0.1491031,0.1841862 0,0 0,0 0,0 -0.052625,0.026312 -0.11402,0.043854 -0.1841861,0.043854 0,0 0,0 0,0 -0.087708,0 -0.1666447,-0.026312 -0.2368108,-0.078937 C 6.8518926,6.9029392 6.8080388,6.832773 6.7904972,6.7538361 6.7729557,6.6748991 6.7378726,5.4996159 6.6940187,3.2367573 c 0,0 0,0 0,0 -0.00877,-0.5701001 -0.017542,-0.9121601 -0.017542,-1.0086386 0,0 0,0 0,0 0,-0.34206 0.00877,-0.5437877 0.035083,-0.6051831 0,0 0,0 0,0 0.026312,-0.061395 0.1403323,-0.1227908 0.34206,-0.1841862 0.192957,-0.061395 0.4122262,-0.11402 0.6578078,-0.1578739 z m 6.0693659,3.1048526 c 0,-0.035083 -0.04385,-0.2631231 -0.140332,-0.6928908 -0.09648,-0.420997 -0.166645,-0.649037 -0.166645,-0.649037 0,0 0,0 0,0 0,0 -0.02631,0.00877 -0.05262,0.043854 -0.02631,0.035083 -0.04385,0.078937 -0.07017,0.1403323 0,0 0,0 0,0 -0.07894,0.2104985 -0.175415,0.4297677 -0.271893,0.6665785 0,0 0,0 0,0 -0.11402,0.2543523 -0.166645,0.4034554 -0.166645,0.4648508 0,0 0,0 0,0 0,0.026312 0.149103,0.043854 0.45608,0.070166 0,0 0,0 0,0 0.166645,0.00877 0.254352,0.017542 0.271894,0.017542 0,0 0,0 0,0 0.09648,0 0.140332,-0.017542 0.140332,-0.061395 z M 13.263319,1.6492479 c 0.0614,-0.052625 0.140332,-0.078937 0.245581,-0.078937 0,0 0,0 0,0 0.11402,0 0.201728,0.035083 0.271894,0.1052493 0,0 0,0 0,0 0.07894,0.087708 0.236811,0.5788708 0.473622,1.4822601 0.236811,0.9033893 0.420997,1.7453833 0.5701,2.5259818 0,0 0,0 0,0 0.07017,0.3771431 0.11402,0.5964124 0.140332,0.6665785 0,0 0,0 0,0 0.03508,0.1052493 0.05263,0.2017277 0.05263,0.2806647 0,0 0,0 0,0 0,0.2192692 -0.105249,0.34206 -0.315748,0.3859139 0,0 0,0 0,0 -0.02631,0.00877 -0.05262,0.00877 -0.07894,0.00877 0,0 0,0 0,0 -0.06139,0 -0.122791,-0.035083 -0.201728,-0.11402 0,0 0,0 0,0 -0.07894,-0.078937 -0.131561,-0.1841861 -0.175415,-0.3069769 -0.04385,-0.11402 -0.09648,-0.3771431 -0.175415,-0.7718278 0,0 0,0 0,0 -0.05263,-0.2718939 -0.08771,-0.4385385 -0.11402,-0.5087047 -0.02631,-0.061395 -0.05263,-0.1052492 -0.09648,-0.11402 0,0 0,0 0,0 -0.06139,-0.017542 -0.271894,-0.043854 -0.640266,-0.087708 -0.368372,-0.043854 -0.587642,-0.061395 -0.666579,-0.061395 0,0 0,0 0,0 0,0 -0.01754,0 -0.01754,0 0,0 -0.149103,0.306977 -0.438539,0.9121601 0,0 0,0 0,0 -0.271894,0.5701001 -0.45608,0.9033893 -0.535017,0.9998678 0,0 0,0 0,0 -0.07017,0.070166 -0.149103,0.1052493 -0.23681,0.1052493 0,0 0,0 0,0 -0.07894,0 -0.149104,-0.035083 -0.210499,-0.096478 -0.0614,-0.061395 -0.08771,-0.1403323 -0.08771,-0.2368108 0,-0.096478 0.09648,-0.3683724 0.298207,-0.7981401 0,0 0,0 0,0 0.631495,-1.3594693 1.105117,-2.4470448 1.420864,-3.2627265 0,0 0,0 0,0 0.157874,-0.3946846 0.271894,-0.6578077 0.33329,-0.7805985 0.06139,-0.11402 0.12279,-0.2017277 0.184186,-0.2543523 z m 4.815147,-0.306977 c 0.543788,-0.026312 1.043721,-0.035083 1.508572,-0.035083 0,0 0,0 0,0 0.403456,0 0.649037,0.00877 0.745516,0.035083 0,0 0,0 0,0 0.11402,0.026312 0.201727,0.070166 0.263123,0.1315616 0.0614,0.070166 0.08771,0.1491031 0.08771,0.22804 0,0 0,0 0,0 0,0.096479 -0.03508,0.1754154 -0.114021,0.2543523 0,0 0,0 0,0 -0.04385,0.043854 -0.105249,0.078937 -0.166644,0.087708 -0.0614,0.00877 -0.236811,0.017542 -0.508705,0.017542 0,0 0,0 0,0 0,0 -0.464851,0 -0.464851,0 0,0 -1.02618,0 -1.02618,0 0,0 0.02631,0.4385385 0.02631,0.4385385 0.07017,0.9560139 0.12279,2.0085063 0.149103,3.1574772 0,0 0,0 0,0 0.0088,0.2192693 0.0088,0.45608 0.0088,0.7104324 0,0 0,0 0,0 0,0.2017277 -0.02631,0.3332892 -0.07894,0.3859139 0,0 0,0 0,0 -0.0614,0.078937 -0.166645,0.11402 -0.315748,0.11402 0,0 0,0 0,0 -0.0614,0 -0.11402,-0.017542 -0.157874,-0.043854 0,0 0,0 0,0 -0.08771,-0.061395 -0.140332,-0.1841862 -0.157874,-0.3596016 -0.02631,-0.1666446 -0.04385,-0.6928908 -0.0614,-1.5699678 0,0 0,0 0,0 -0.01754,-1.0612632 -0.04385,-1.8155494 -0.07017,-2.2453171 0,0 0,0 0,0 0,0 -0.03508,-0.5174755 -0.03508,-0.5174755 0,0 -0.850764,0 -0.850764,0 -0.5701,0 -0.885848,-0.00877 -0.956014,-0.035083 0,0 0,0 0,0 -0.11402,-0.043854 -0.175416,-0.1403324 -0.175416,-0.2894355 0,0 0,0 0,0 0,-0.1315615 0.05262,-0.22804 0.149104,-0.2806646 0,0 0,0 0,0 0.105249,-0.061395 0.841993,-0.1227908 2.201463,-0.1841862 z m 6.832436,0.1666447 c 0.04385,-0.052625 0.11402,-0.078937 0.192957,-0.078937 0,0 0,0 0,0 0.105249,0 0.192957,0.035083 0.254352,0.11402 0,0 0,0 0,0 0.03508,0.043854 0.0614,0.1403324 0.07017,0.2982062 0.0088,0.1666447 0.0088,0.5525585 0.0088,1.1577417 0,0 0,0 0,0 0,0 0,1.1489708 0,1.1489708 0,0.061395 0,0.1403324 0,0.2455816 0,0 0,0 0,0 -0.0088,1.3857817 -0.02631,2.1576094 -0.07017,2.3067125 0,0 0,0 0,0 -0.02631,0.096478 -0.07017,0.1578739 -0.149103,0.1841862 0,0 0,0 0,0 0,0 -0.02631,0.00877 -0.02631,0.00877 0,0 0,0 0,0 0,0 -0.01754,0.00877 -0.01754,0.00877 0,0 0,0 0,0 -0.0614,0.026312 -0.09648,0.035083 -0.122791,0.035083 0,0 0,0 0,0 -0.03508,0 -0.08771,-0.017542 -0.157874,-0.052625 0,0 0,0 0,0 -0.09648,-0.043854 -0.166644,-0.1227908 -0.192957,-0.2368108 -0.03508,-0.11402 -0.05262,-0.3245185 -0.05262,-0.6314954 0,0 0,0 0,0 0,-0.035083 0,-0.096478 0.0088,-0.192957 0,-0.087708 0,-0.1578738 0,-0.2104984 0,0 0,0 0,0 0,0 0.0088,-0.8156817 0.0088,-0.8156817 0,0 -0.271894,-0.035083 -0.271894,-0.035083 -0.105249,-0.00877 -0.324518,-0.017542 -0.666578,-0.017542 0,0 0,0 0,0 -0.999868,0 -1.517344,0.017542 -1.543656,0.043854 0,0 0,0 0,0 0,0 -0.01754,0.34206 -0.04385,1.0086385 0,0 0,0 0,0 -0.01754,0.4648508 -0.03508,0.7455155 -0.04385,0.8595355 -0.01754,0.11402 -0.04385,0.1929569 -0.08771,0.2368108 0,0 0,0 0,0 -0.0614,0.070166 -0.149103,0.1052492 -0.254353,0.1052492 0,0 0,0 0,0 -0.11402,0 -0.210498,-0.043854 -0.280664,-0.1227908 0,0 0,0 0,0 0,0 -0.105249,-0.1227907 -0.105249,-0.1227907 0,0 0.01754,-0.9735555 0.01754,-0.9735555 0,-0.1578739 0,-0.3771431 0.0088,-0.6578078 0,-0.2718938 0,-0.6051831 0.0088,-0.9823262 0.0088,-0.3771431 0.0088,-0.6578078 0.0088,-0.8419939 0,0 0,0 0,0 0.0088,-0.7367447 0.01754,-1.1752832 0.02631,-1.3243863 0.0088,-0.1491031 0.02631,-0.2455816 0.07017,-0.306977 0,0 0,0 0,0 0.07017,-0.096479 0.166645,-0.1491031 0.289435,-0.1491031 0,0 0,0 0,0 0.08771,0 0.157874,0.026312 0.21927,0.087708 0,0 0,0 0,0 0.04385,0.043854 0.07017,0.11402 0.07894,0.2104985 0.0088,0.1052493 0.0088,0.3683724 0.01754,0.7805985 0,0 0,0 0,0 0.0088,0.9209309 0.03508,1.4033233 0.07017,1.4471771 0,0 0,0 0,0 0,0 0.11402,0 0.11402,0 0.09648,0 0.473622,-0.00877 1.1402,-0.017541 0,0 0,0 0,0 0,0 1.236679,-0.035083 1.236679,-0.035083 0,0 0.02631,-1.0963463 0.02631,-1.0963463 0.0088,-0.5350169 0.02631,-0.877077 0.05262,-1.0261801 0.02631,-0.1491031 0.07894,-0.2631231 0.157874,-0.3596015 z m 3.560931,2.8505002 c -0.201727,-0.061395 -0.491163,-0.096478 -0.868306,-0.1052492 0,0 0,0 0,0 -0.04385,0 -0.11402,0 -0.192957,-0.00877 -0.07894,0 -0.140332,0 -0.175415,0 0,0 0,0 0,0 -0.157874,0 -0.263123,0.00877 -0.324519,0.017542 0,0 0,0 0,0 0,0 -0.131561,0.017542 -0.131561,0.017542 0,0 0.03508,1.0261801 0.03508,1.0261801 0.02631,0.6928908 0.05262,1.0524924 0.05262,1.0524924 0,0 0,0 0,0 0,0 0.01754,0.00877 0.04385,0.00877 0,0 0,0 0,0 0.07894,0 0.22804,-0.026312 0.447309,-0.078937 0.210499,-0.052625 0.359602,-0.096478 0.44731,-0.1403323 0,0 0,0 0,0 0.157874,-0.078937 0.34206,-0.1929569 0.543787,-0.3508308 0.201728,-0.1491031 0.359602,-0.2894354 0.473622,-0.4122262 0,0 0,0 0,0 0.122791,-0.1315615 0.184186,-0.2368108 0.184186,-0.3332892 0,0 0,0 0,0 0,0 0,-0.035083 0,-0.061395 -0.0088,-0.026312 -0.0088,-0.043854 -0.0088,-0.061395 0,0 0,0 0,0 C 28.989309,4.771642 28.945455,4.6488512 28.875289,4.5699143 28.796352,4.4909774 28.66479,4.4208112 28.471833,4.3594158 Z M 27.963129,1.8860587 c -0.184187,-0.052625 -0.394685,-0.078937 -0.622725,-0.078937 0,0 0,0 0,0 -0.0614,0 -0.105249,0 -0.122791,0.00877 0,0 0,0 0,0 -0.05262,0.017542 -0.149103,0.043854 -0.289435,0.078937 0,0 0,0 0,0 0,0 -0.192957,0.043854 -0.192957,0.043854 0,0 0.02631,0.5087047 0.02631,0.5087047 0.01754,0.2718938 0.02631,0.5174754 0.02631,0.7542862 0,0 0,0 0,0 0,0 0,0.2631231 0,0.2631231 0,0 0.21927,0 0.21927,0 0.333289,-0.00877 0.640266,-0.052625 0.929701,-0.1491031 0.280665,-0.096478 0.464851,-0.2104985 0.543788,-0.3508308 0,0 0,0 0,0 0.0614,-0.096478 0.08771,-0.2368108 0.08771,-0.4034554 0,0 0,0 0,0 0,-0.1491031 -0.02631,-0.2631231 -0.07017,-0.3332893 0,0 0,0 0,0 -0.11402,-0.1666446 -0.298207,-0.2806646 -0.535017,-0.34206 z M 26.84047,1.1843971 c 0.149103,-0.043854 0.368372,-0.061395 0.649037,-0.061395 0,0 0,0 0,0 0,0 0.04385,0 0.04385,0 0.640266,0 1.122658,0.1841861 1.447177,0.5437877 0,0 0,0 0,0 0.22804,0.2543524 0.34206,0.5701001 0.34206,0.9472432 0,0 0,0 0,0 0,0.3508308 -0.08771,0.6402662 -0.271894,0.8595355 0,0 0,0 0,0 -0.08771,0.096478 -0.131562,0.1666446 -0.131562,0.2104984 0,0 0,0 0,0 0,0.026312 0.0614,0.070166 0.175416,0.1227908 0,0 0,0 0,0 0.236811,0.1052493 0.420997,0.2982062 0.552558,0.5876416 0,0 0,0 0,0 0.07017,0.1578739 0.10525,0.3771431 0.10525,0.6578078 0,0 0,0 0,0 0,0.2192692 -0.02631,0.3859138 -0.07894,0.4911631 0,0 0,0 0,0 -0.149103,0.2718939 -0.438539,0.5613293 -0.877077,0.877077 -0.44731,0.3157477 -0.833223,0.5174754 -1.157742,0.5964124 0,0 0,0 0,0 -0.420997,0.096478 -0.815682,0.1403323 -1.192825,0.1403323 0,0 0,0 0,0 -0.0614,0 -0.11402,-0.00877 -0.11402,-0.00877 0,0 0,0 0,0 -0.0614,-0.026312 -0.12279,-0.078937 -0.166644,-0.1666446 0,0 0,0 0,0 -0.03508,-0.061395 -0.05262,-0.22804 -0.0614,-0.4823924 -0.0088,-0.2543523 -0.02631,-0.9998678 -0.03508,-2.2190048 0,0 0,0 0,0 -0.0088,-0.4648508 -0.0088,-1.0261801 -0.0088,-1.6839879 0,0 0,0 0,0 0,-0.6139539 0.0088,-0.9384724 0.02631,-0.9823262 0,0 0,0 0,0 0.02631,-0.070166 0.122791,-0.1491031 0.271894,-0.2368108 0.149103,-0.087708 0.315747,-0.1491031 0.482392,-0.1929569 z m 3.710039,0.7192031 c 0.0088,-0.11402 0.0614,-0.22804 0.140333,-0.3245185 0.07894,-0.096478 0.166644,-0.1403323 0.271894,-0.1403323 0,0 0,0 0,0 0.07894,0 0.149103,0.026312 0.22804,0.087708 0.07894,0.061395 0.11402,0.1315615 0.11402,0.22804 0,0 0,0 0,0 0,0.078937 -0.02631,0.1666447 -0.07894,0.2718939 0,0 0,0 0,0 -0.04385,0.096479 -0.07017,0.3332893 -0.07017,0.7104324 0,0 0,0 0,0 0,0 0,0.3069769 0,0.3069769 0.0088,0.9033893 0.10525,1.6576756 0.271894,2.2804002 0.166645,0.6227247 0.359602,0.9297017 0.587642,0.9297017 0,0 0,0 0,0 0.131561,0 0.289435,-0.1315616 0.464851,-0.3859139 0.166644,-0.2543523 0.280664,-0.5087047 0.324518,-0.763057 0,0 0,0 0,0 0.0088,-0.052625 0.02631,-0.1315616 0.05262,-0.22804 0.01754,-0.096478 0.02631,-0.1578739 0.03508,-0.192957 0.0088,-0.026312 0.01754,-0.078937 0.02631,-0.1491031 0.0088,-0.070166 0.01754,-0.1315615 0.01754,-0.1754154 0,-0.043854 0,-0.11402 0.0088,-0.1929569 0.0088,-0.078937 0.0088,-0.1666446 0.01754,-0.2631231 0,-0.096478 0,-0.2104985 0,-0.3332893 0,-0.1227908 0,-0.2806646 0,-0.4648508 0,0 0,0 0,0 0,-0.6227247 0.0088,-1.0086385 0.01754,-1.1402001 0.0088,-0.1315616 0.03508,-0.22804 0.07894,-0.2806646 0,0 0,0 0,0 0.08771,-0.096479 0.184186,-0.1403324 0.289435,-0.1403324 0,0 0,0 0,0 0.149103,0 0.263123,0.078937 0.324518,0.2455816 0,0 0,0 0,0 0.04385,0.11402 0.0614,0.5701001 0.0614,1.3770109 0,0 0,0 0,0 0,0.7805985 -0.01754,1.298074 -0.0614,1.5436555 0,0 0,0 0,0 -0.04385,0.2192693 -0.11402,0.4823924 -0.210498,0.8069109 -0.105249,0.3245185 -0.201728,0.5525585 -0.280665,0.7016616 0,0 0,0 0,0 -0.08771,0.1578738 -0.219269,0.3157477 -0.394684,0.4736216 -0.175416,0.1578738 -0.324519,0.2543523 -0.45608,0.2894354 0,0 0,0 0,0 -0.10525,0.026312 -0.201728,0.043854 -0.298207,0.043854 0,0 0,0 0,0 -0.394684,0 -0.69289,-0.1578738 -0.91216,-0.4823923 0,0 0,0 0,0 -0.289435,-0.420997 -0.491163,-1.070034 -0.613954,-1.9383402 0,0 0,0 0,0 -0.04385,-0.2718939 -0.06139,-0.6665785 -0.06139,-1.184054 0,0 0,0 0,0 0,-0.3946846 0.01754,-0.7367447 0.04385,-1.0086385 0,0 0,0 0,0 0.02631,-0.1666447 0.04385,-0.3420601 0.0614,-0.5087047 z m 5.578206,0.1754154 c -0.11402,-0.061395 -0.324518,-0.087708 -0.631495,-0.087708 0,0 0,0 0,0 -0.11402,0 -0.201728,0.00877 -0.245582,0.026312 0,0 0,0 0,0 -0.07894,0.035083 -0.131561,0.078937 -0.157874,0.1227908 -0.02631,0.043854 -0.03508,0.1403323 -0.03508,0.2806646 0,0 0,0 0,0 0,0.043854 0.0088,0.2104985 0.01754,0.5174755 0,0 0,0 0,0 0,0 0.04385,0.7279739 0.04385,0.7279739 0,0 0.263123,0.061395 0.263123,0.061395 0.08771,0.017542 0.184186,0.026312 0.280664,0.026312 0,0 0,0 0,0 0.245582,0 0.429768,-0.043854 0.56133,-0.1403323 0,0 0,0 0,0 0.12279,-0.078937 0.23681,-0.192957 0.34206,-0.3596016 0.105249,-0.1578739 0.157873,-0.2894354 0.157873,-0.3946847 0,0 0,0 0,0 0,-0.1315615 -0.06139,-0.2718938 -0.175415,-0.4209969 C 36.435692,2.2895141 36.29536,2.1667233 36.128715,2.0790156 Z M 35.409512,1.2808755 c 0.175415,-0.026312 0.298206,-0.035083 0.359602,-0.035083 0,0 0,0 0,0 0.05262,0 0.11402,0.00877 0.184186,0.017541 0,0 0,0 0,0 0.166644,0.026312 0.34206,0.096479 0.543787,0.2017277 0.192957,0.11402 0.350831,0.22804 0.482393,0.3596016 0,0 0,0 0,0 0.324518,0.3245185 0.491163,0.6753493 0.491163,1.0437216 0,0 0,0 0,0 0,0.192957 -0.05263,0.3946847 -0.149103,0.6051832 0,0 0,0 0,0 -0.09648,0.2017277 -0.245582,0.3946846 -0.447309,0.5701 -0.201728,0.1841862 -0.394685,0.306977 -0.596413,0.3771431 0,0 0,0 0,0 -0.149103,0.061395 -0.219269,0.096478 -0.219269,0.11402 0,0 0,0 0,0 0,0.026312 0.131561,0.1491031 0.403455,0.3596016 0.263123,0.2104985 0.429768,0.3245185 0.499934,0.3508308 0.07017,0.026312 0.157874,0.087708 0.271894,0.2017277 0,0 0,0 0,0 0.02631,0.026312 0.175416,0.1491031 0.447309,0.3683724 0,0 0,0 0,0 0.21927,0.1666446 0.324519,0.3157477 0.324519,0.4648508 0,0 0,0 0,0 0,0.096478 -0.05262,0.1929569 -0.149103,0.2806646 0,0 0,0 0,0 -0.04385,0.043854 -0.09648,0.061395 -0.175416,0.061395 0,0 0,0 0,0 -0.04385,0 -0.140332,-0.017541 -0.298206,-0.043854 0,0 0,0 0,0 -0.04385,-0.00877 -0.157874,-0.096478 -0.333289,-0.2455816 0,0 0,0 0,0 -0.166645,-0.1403323 -0.491163,-0.4034554 -0.991097,-0.7981401 0,0 0,0 0,0 -0.482392,-0.3771431 -0.736745,-0.5876416 -0.763057,-0.6227247 0,0 0,0 0,0 -0.01754,-0.035083 -0.03508,-0.052625 -0.05263,-0.052625 0,0 0,0 0,0 -0.02631,0 -0.04385,0.1227908 -0.04385,0.3683724 0,0 0,0 0,0 0,0.2017277 0,0.3859139 0.0088,0.5350169 0,0 0,0 0,0 0.0088,0.3157478 0.01754,0.5087047 0.01754,0.5701001 0,0 0,0 0,0 0,0.22804 -0.0088,0.3859139 -0.03508,0.4736216 -0.02631,0.087708 -0.07894,0.1491031 -0.149103,0.1841862 0,0 0,0 0,0 -0.05262,0.026312 -0.11402,0.043854 -0.184187,0.043854 0,0 0,0 0,0 -0.08771,0 -0.166644,-0.026312 -0.23681,-0.078937 -0.07017,-0.052625 -0.11402,-0.1227908 -0.131562,-0.2017277 -0.01754,-0.078937 -0.05263,-1.2542202 -0.09648,-3.5170788 0,0 0,0 0,0 -0.0088,-0.5701001 -0.01754,-0.9121601 -0.01754,-1.0086386 0,0 0,0 0,0 0,-0.34206 0.0088,-0.5437877 0.03508,-0.6051831 0,0 0,0 0,0 0.02631,-0.061395 0.140332,-0.1227908 0.34206,-0.1841862 0.192957,-0.061395 0.412226,-0.11402 0.657808,-0.1578739 z m 7.244648,0.1666447 c 0.0614,-0.070166 0.140333,-0.1052493 0.254353,-0.1052493 0,0 0,0 0,0 0.105249,0 0.192957,0.035083 0.263123,0.11402 0,0 0,0 0,0 0.07017,0.070166 0.105249,0.1578739 0.105249,0.2543524 0,0 0,0 0,0 0,0.087708 -0.02631,0.22804 -0.07894,0.4209969 0,0 0,0 0,0 -0.271894,1.0788048 -0.508705,1.9295694 -0.710432,2.5522941 0,0 0,0 0,0 -0.184187,0.5613293 -0.350831,1.1051171 -0.491163,1.6313633 0,0 0,0 0,0 -0.07017,0.2806646 -0.149104,0.4736215 -0.22804,0.5788708 -0.07894,0.1052492 -0.192957,0.1578738 -0.324519,0.1578738 0,0 0,0 0,0 -0.11402,0 -0.219269,-0.052625 -0.298206,-0.1578738 -0.07894,-0.096478 -0.166645,-0.2806647 -0.254353,-0.535017 0,0 0,0 0,0 C 40.812299,6.1135698 40.698279,5.6750313 40.540405,5.0435359 40.37376,4.4120405 40.294823,4.0612096 40.294823,3.9998143 c 0,-0.061395 -0.0088,-0.096479 -0.03508,-0.096479 0,0 0,0 0,0 -0.02631,0 -0.08771,0.1754154 -0.184186,0.535017 0,0 0,0 0,0 -0.11402,0.4385385 -0.263123,0.9735554 -0.45608,1.5962801 -0.192957,0.6227247 -0.306977,0.9647847 -0.350831,1.0086386 0,0 0,0 0,0 -0.04385,0.052625 -0.11402,0.078937 -0.219269,0.078937 -0.105249,0 -0.184186,-0.026312 -0.245582,-0.087708 0,0 0,0 0,0 -0.05262,-0.052625 -0.07894,-0.1227908 -0.07894,-0.2104985 0,0 0,0 0,0 0,-0.11402 0.07894,-0.4736216 0.245582,-1.0788047 0,0 0,0 0,0 0.184186,-0.649037 0.45608,-1.8067786 0.833223,-3.4644542 0,0 0,0 0,0 0.07894,-0.2982062 0.140332,-0.4736216 0.184186,-0.535017 0,0 0,0 0,0 0.07894,-0.078937 0.166645,-0.1227907 0.263123,-0.1227907 0,0 0,0 0,0 0.149103,0 0.271894,0.087708 0.368373,0.2631231 0,0 0,0 0,0 0.04385,0.087708 0.131561,0.4736216 0.263123,1.1489708 0,0 0,0 0,0 0.298206,1.5524264 0.482392,2.3330249 0.543787,2.3330249 0,0 0,0 0,0 0.04385,0 0.175416,-0.3771431 0.412227,-1.1314294 0.22804,-0.7455154 0.385914,-1.3156155 0.473621,-1.7015293 0,0 0,0 0,0 0.131562,-0.6227247 0.245582,-0.9910971 0.34206,-1.0875755 z"
         id="text1"
         aria-label="RATHBURN" /><path
         style="font-weight:500;font-size:8.77077px;font-family:isaiahFont;-inkscape-font-specification:'isaiahFont, Medium';text-align:center;text-anchor:middle;stroke-width:0.147855"
         d="m 11.686942,43.123558 c -0.175416,-0.05263 -0.33329,-0.07894 -0.482393,-0.07894 0,0 0,0 0,0 -0.105249,0 -0.219269,0.01754 -0.333289,0.04385 0,0 0,0 0,0 0,0 -0.149103,0.03508 -0.149103,0.03508 0,0 0.02631,0.438538 0.02631,0.438538 0.0088,0.05263 0.01754,0.175416 0.02631,0.368373 0.0088,0.201727 0.01754,0.333289 0.02631,0.403455 0,0 0,0 0,0 0,0 0.03508,0.324519 0.03508,0.324519 0,0 0.254352,0.07894 0.254352,0.07894 0.175416,0.05262 0.359602,0.07894 0.543788,0.07894 0,0 0,0 0,0 0.201728,0 0.359602,-0.02631 0.473622,-0.08771 0,0 0,0 0,0 0.131561,-0.07017 0.22804,-0.149103 0.280664,-0.236811 0.04385,-0.07894 0.07017,-0.210498 0.07017,-0.385914 0,0 0,0 0,0 0,-0.499934 -0.254353,-0.824452 -0.771828,-0.982326 z M 10.958968,42.35173 c 0.09648,-0.02631 0.201728,-0.03508 0.306977,-0.03508 0.105249,0 0.245581,0.01754 0.412226,0.05262 0,0 0,0 0,0 0.675349,0.149103 1.148971,0.482392 1.403323,0.999867 0,0 0,0 0,0 0.07894,0.157874 0.11402,0.403456 0.11402,0.745516 0,0 0,0 0,0 0,0.245581 -0.0088,0.403455 -0.01754,0.473621 -0.0088,0.07894 -0.05262,0.175416 -0.11402,0.289436 0,0 0,0 0,0 -0.149103,0.263123 -0.429768,0.464851 -0.850765,0.613954 0,0 0,0 0,0 -0.22804,0.07017 -0.429768,0.105249 -0.605183,0.105249 0,0 0,0 0,0 -0.131562,0 -0.271894,-0.01754 -0.429768,-0.05263 0,0 0,0 0,0 0,0 -0.263123,-0.06139 -0.263123,-0.06139 0,0 0,0.350831 0,0.350831 0,0.271894 0.01754,0.640266 0.04385,1.122658 0,0 0,0 0,0 0.01754,0.289436 0.02631,0.491164 0.02631,0.605184 0,0 0,0 0,0 0,0.149103 -0.01754,0.263123 -0.06139,0.324518 0,0 0,0 0,0 -0.07894,0.131562 -0.184186,0.192957 -0.324519,0.192957 0,0 0,0 0,0 -0.184186,0 -0.306977,-0.09648 -0.359601,-0.289435 0,0 0,0 0,0 -0.02631,-0.09648 -0.04385,-0.499934 -0.07017,-1.210367 0,0 0,0 0,0 -0.01754,-0.649037 -0.05262,-1.447177 -0.09648,-2.403191 0,0 0,0 0,0 -0.02631,-0.587641 -0.04385,-0.956014 -0.04385,-1.122658 0,0 0,0 0,0 0,-0.201728 0.01754,-0.34206 0.04385,-0.403456 0.02631,-0.06139 0.07894,-0.09648 0.157874,-0.12279 0,0 0,0 0,0 0.05262,-0.0088 0.298206,-0.07017 0.727974,-0.175416 z m 5.683456,2.95575 c 0,-0.03508 -0.04385,-0.263123 -0.140332,-0.692891 -0.09648,-0.420997 -0.166644,-0.649037 -0.166644,-0.649037 0,0 0,0 0,0 0,0 -0.02631,0.0088 -0.05262,0.04385 -0.02631,0.03508 -0.04385,0.07894 -0.07017,0.140332 0,0 0,0 0,0 -0.07894,0.210498 -0.175416,0.429768 -0.271894,0.666579 0,0 0,0 0,0 -0.11402,0.254352 -0.166645,0.403455 -0.166645,0.46485 0,0 0,0 0,0 0,0.02631 0.149103,0.04385 0.45608,0.07017 0,0 0,0 0,0 0.166645,0.0088 0.254353,0.01754 0.271894,0.01754 0,0 0,0 0,0 0.09648,0 0.140332,-0.01754 0.140332,-0.0614 z m -0.517475,-2.736481 c 0.06139,-0.05262 0.140332,-0.07894 0.245582,-0.07894 0,0 0,0 0,0 0.11402,0 0.201727,0.03508 0.271893,0.10525 0,0 0,0 0,0 0.07894,0.08771 0.236811,0.578871 0.473622,1.48226 0.236811,0.903389 0.420997,1.745383 0.5701,2.525982 0,0 0,0 0,0 0.07017,0.377143 0.11402,0.596412 0.140332,0.666578 0,0 0,0 0,0 0.03508,0.105249 0.05262,0.201728 0.05262,0.280665 0,0 0,0 0,0 0,0.219269 -0.105249,0.34206 -0.315748,0.385914 0,0 0,0 0,0 -0.02631,0.0088 -0.05262,0.0088 -0.07894,0.0088 0,0 0,0 0,0 -0.0614,0 -0.12279,-0.03508 -0.201727,-0.11402 0,0 0,0 0,0 -0.07894,-0.07894 -0.131562,-0.184186 -0.175416,-0.306977 -0.04385,-0.11402 -0.09648,-0.377143 -0.175415,-0.771827 0,0 0,0 0,0 -0.05262,-0.271894 -0.08771,-0.438539 -0.11402,-0.508705 -0.02631,-0.0614 -0.05262,-0.105249 -0.09648,-0.11402 0,0 0,0 0,0 -0.0614,-0.01754 -0.271893,-0.04385 -0.640266,-0.08771 -0.368372,-0.04385 -0.587641,-0.06139 -0.666578,-0.06139 0,0 0,0 0,0 0,0 -0.01754,0 -0.01754,0 0,0 -0.149103,0.306977 -0.438538,0.91216 0,0 0,0 0,0 -0.271894,0.5701 -0.45608,0.903389 -0.535017,0.999868 0,0 0,0 0,0 -0.07017,0.07017 -0.149103,0.105249 -0.236811,0.105249 0,0 0,0 0,0 -0.07894,0 -0.149103,-0.03508 -0.210499,-0.09648 -0.0614,-0.0614 -0.08771,-0.140333 -0.08771,-0.236811 0,-0.09648 0.09648,-0.368373 0.298206,-0.79814 0,0 0,0 0,0 0.631495,-1.35947 1.105117,-2.447045 1.420865,-3.262727 0,0 0,0 0,0 0.157873,-0.394684 0.271893,-0.657808 0.333289,-0.780598 0.0614,-0.11402 0.122791,-0.201728 0.184186,-0.254353 z m 4.174881,0.429768 c -0.11402,-0.0614 -0.324519,-0.08771 -0.631496,-0.08771 0,0 0,0 0,0 -0.11402,0 -0.201728,0.0088 -0.245581,0.02631 0,0 0,0 0,0 -0.07894,0.03508 -0.131562,0.07894 -0.157874,0.122791 -0.02631,0.04385 -0.03508,0.140332 -0.03508,0.280664 0,0 0,0 0,0 0,0.04385 0.0088,0.210499 0.01754,0.517476 0,0 0,0 0,0 0,0 0.04385,0.727973 0.04385,0.727973 0,0 0.263123,0.0614 0.263123,0.0614 0.08771,0.01754 0.184186,0.02631 0.280665,0.02631 0,0 0,0 0,0 0.245581,0 0.429768,-0.04385 0.561329,-0.140332 0,0 0,0 0,0 0.122791,-0.07894 0.236811,-0.192957 0.34206,-0.359602 0.105249,-0.157874 0.157874,-0.289435 0.157874,-0.394684 0,0 0,0 0,0 0,-0.131562 -0.0614,-0.271894 -0.175415,-0.420997 -0.11402,-0.149103 -0.254353,-0.271894 -0.420997,-0.359602 z m -0.719203,-0.79814 c 0.175415,-0.02631 0.298206,-0.03508 0.359601,-0.03508 0,0 0,0 0,0 0.05262,0 0.11402,0.0088 0.184186,0.01754 0,0 0,0 0,0 0.166645,0.02631 0.34206,0.09648 0.543788,0.201728 0.192957,0.11402 0.350831,0.22804 0.482392,0.359602 0,0 0,0 0,0 0.324519,0.324518 0.491163,0.675349 0.491163,1.043721 0,0 0,0 0,0 0,0.192957 -0.05262,0.394685 -0.149103,0.605184 0,0 0,0 0,0 -0.09648,0.201727 -0.245581,0.394684 -0.447309,0.5701 -0.201728,0.184186 -0.394685,0.306977 -0.596412,0.377143 0,0 0,0 0,0 -0.149103,0.0614 -0.21927,0.09648 -0.21927,0.11402 0,0 0,0 0,0 0,0.02631 0.131562,0.149103 0.403456,0.359601 0.263123,0.210499 0.429768,0.324519 0.499934,0.350831 0.07017,0.02631 0.157874,0.08771 0.271894,0.201728 0,0 0,0 0,0 0.02631,0.02631 0.175415,0.149103 0.447309,0.368372 0,0 0,0 0,0 0.219269,0.166645 0.324518,0.315748 0.324518,0.464851 0,0 0,0 0,0 0,0.09648 -0.05262,0.192957 -0.149103,0.280665 0,0 0,0 0,0 -0.04385,0.04385 -0.09648,0.0614 -0.175415,0.0614 0,0 0,0 0,0 -0.04385,0 -0.140332,-0.01754 -0.298206,-0.04385 0,0 0,0 0,0 -0.04385,-0.0088 -0.157874,-0.09648 -0.333289,-0.245581 0,0 0,0 0,0 -0.166645,-0.140333 -0.491164,-0.403456 -0.991098,-0.79814 0,0 0,0 0,0 -0.482392,-0.377144 -0.736744,-0.587642 -0.763057,-0.622725 0,0 0,0 0,0 -0.01754,-0.03508 -0.03508,-0.05262 -0.05262,-0.05262 0,0 0,0 0,0 -0.02631,0 -0.04385,0.122791 -0.04385,0.368373 0,0 0,0 0,0 0,0.201727 0,0.385913 0.0088,0.535017 0,0 0,0 0,0 0.0088,0.315747 0.01754,0.508704 0.01754,0.5701 0,0 0,0 0,0 0,0.22804 -0.0088,0.385913 -0.03508,0.473621 -0.02631,0.08771 -0.07894,0.149103 -0.149103,0.184186 0,0 0,0 0,0 -0.05262,0.02631 -0.11402,0.04385 -0.184186,0.04385 0,0 0,0 0,0 -0.08771,0 -0.166645,-0.02631 -0.236811,-0.07894 -0.07017,-0.05262 -0.11402,-0.122791 -0.131561,-0.201727 -0.01754,-0.07894 -0.05262,-1.254221 -0.09648,-3.517079 0,0 0,0 0,0 -0.0088,-0.5701 -0.01754,-0.91216 -0.01754,-1.008639 0,0 0,0 0,0 0,-0.34206 0.0088,-0.543788 0.03508,-0.605183 0,0 0,0 0,0 0.02631,-0.0614 0.140332,-0.122791 0.34206,-0.184186 0.192957,-0.06139 0.412226,-0.11402 0.657808,-0.157874 z m 3.394281,0.315748 c 0.07017,-0.07894 0.157874,-0.11402 0.263123,-0.11402 0,0 0,0 0,0 0.09648,0 0.166644,0.03508 0.22804,0.09648 0,0 0,0 0,0 0.04385,0.04385 0.07017,0.11402 0.07894,0.201728 0.0088,0.09648 0.02631,0.34206 0.03508,0.754286 0,0 0,0 0,0 0.02631,0.587642 0.04385,0.885848 0.07017,0.885848 0,0 0,0 0,0 0.03508,0 0.192957,-0.149103 0.482392,-0.45608 0.280665,-0.298206 0.535017,-0.587642 0.771828,-0.877077 0,0 0,0 0,0 0.184186,-0.22804 0.315748,-0.368372 0.385914,-0.429768 0.07017,-0.0614 0.149103,-0.08771 0.245582,-0.08771 0,0 0,0 0,0 0.105249,0 0.184186,0.03508 0.245581,0.11402 0,0 0,0 0,0 0.0614,0.07894 0.09648,0.157874 0.09648,0.21927 0,0 0,0 0,0 0,0.09648 -0.07894,0.245581 -0.22804,0.438538 -0.157874,0.201728 -0.45608,0.535017 -0.90339,1.008639 0,0 0,0 0,0 -0.535017,0.587641 -0.806911,0.894618 -0.806911,0.894618 0,0 0,0 0,0 0,0.04385 0.385914,0.491163 1.157742,1.341928 0,0 0,0 0,0 0.34206,0.377143 0.543788,0.622725 0.622725,0.719203 0.07894,0.10525 0.11402,0.192957 0.11402,0.271894 0,0 0,0 0,0 0,0.11402 -0.02631,0.192957 -0.07894,0.254352 -0.0614,0.0614 -0.131562,0.08771 -0.219269,0.08771 0,0 0,0 0,0 -0.184187,0 -0.359602,-0.105249 -0.526247,-0.306977 0,0 0,0 0,0 -0.175415,-0.219269 -0.420997,-0.508704 -0.727974,-0.859535 -0.306976,-0.350831 -0.473621,-0.526246 -0.491163,-0.526246 -0.01754,0 -0.02631,0.03508 -0.02631,0.11402 0,0 0,0 0,0 0,0.04385 0.0088,0.140332 0.01754,0.306977 0.0088,0.166644 0.0088,0.306976 0.0088,0.403455 0,0 0,0 0,0 0,0.254352 -0.01754,0.438538 -0.0614,0.552558 0,0 0,0 0,0 -0.05262,0.131562 -0.122791,0.21927 -0.219269,0.254353 0,0 0,0 0,0 -0.04385,0.01754 -0.08771,0.02631 -0.140333,0.02631 0,0 0,0 0,0 -0.131561,0 -0.22804,-0.05262 -0.289435,-0.157874 0,0 0,0 0,0 -0.02631,-0.0614 -0.05262,-0.403455 -0.07894,-1.008638 0,0 0,0 0,0 -0.03508,-1.096347 -0.0614,-1.7103 -0.07017,-1.841862 0,0 0,0 0,0 -0.04385,-0.587642 -0.0614,-1.105117 -0.0614,-1.552426 0,0 0,0 0,0 0,-0.306977 0.0088,-0.491163 0.01754,-0.552559 0.0088,-0.06139 0.03508,-0.11402 0.08771,-0.175415 z m 5.58698,-0.184186 c 0.01754,-0.0088 0.149103,-0.01754 0.394685,-0.01754 0,0 0,0 0,0 0,0 0.149103,0 0.149103,0 0.09648,0 0.166645,0.0088 0.210499,0.01754 0.03508,0.01754 0.07894,0.05262 0.131561,0.105249 0,0 0,0 0,0 0.07894,0.07894 0.122791,0.166644 0.122791,0.254352 0,0 0,0 0,0 0,0.07894 -0.02631,0.140332 -0.08771,0.201728 0,0 0,0 0,0 -0.05262,0.05262 -0.11402,0.08771 -0.192957,0.105249 -0.07894,0.01754 -0.263123,0.03508 -0.535017,0.05262 0,0 0,0 0,0 0,0 -0.447309,0.03508 -0.447309,0.03508 0,0 0.02631,0.157874 0.02631,0.157874 0.0614,0.46485 0.11402,1.262991 0.157874,2.403191 0,0 0,0 0,0 0.02631,0.973555 0.0614,1.48226 0.09648,1.517343 0,0 0,0 0,0 0,0 0.02631,0.0088 0.06139,0.0088 0,0 0,0 0,0 0.0614,0 0.175415,-0.01754 0.34206,-0.04385 0,0 0,0 0,0 0.157874,-0.02631 0.271894,-0.04385 0.333289,-0.04385 0,0 0,0 0,0 0.149103,0 0.263123,0.07017 0.33329,0.201728 0,0 0,0 0,0 0.01754,0.04385 0.02631,0.07894 0.02631,0.12279 0,0 0,0 0,0 0,0.07894 -0.01754,0.149104 -0.0614,0.21927 -0.04385,0.07017 -0.09648,0.11402 -0.149103,0.140332 0,0 0,0 0,0 -0.11402,0.04385 -0.508704,0.122791 -1.166512,0.236811 -0.666579,0.11402 -1.070034,0.175415 -1.210366,0.175415 0,0 0,0 0,0 -0.201728,0 -0.33329,-0.03508 -0.403456,-0.09648 0,0 0,0 0,0 -0.07017,-0.07017 -0.105249,-0.149103 -0.105249,-0.236811 0,0 0,0 0,0 0,-0.09648 0.03508,-0.175415 0.11402,-0.245582 0.07894,-0.06139 0.175415,-0.09648 0.289435,-0.105249 0,0 0,0 0,0 0.07894,0 0.236811,-0.01754 0.473622,-0.05262 0,0 0,0 0,0 0,0 0.315748,-0.05262 0.315748,-0.05262 0,0 -0.0088,-1.157742 -0.0088,-1.157742 -0.0088,-1.201595 -0.05262,-2.148838 -0.122791,-2.8505 0,0 0,0 0,0 0,0 -0.02631,-0.254352 -0.02631,-0.254352 0,0 -0.368372,-0.02631 -0.368372,-0.02631 -0.236811,-0.01754 -0.385914,-0.05262 -0.44731,-0.11402 0,0 0,0 0,0 -0.0614,-0.06139 -0.09648,-0.140332 -0.09648,-0.23681 0,-0.09648 0.03508,-0.175416 0.09648,-0.236811 0,0 0,0 0,0 0.04385,-0.04385 0.10525,-0.07017 0.201728,-0.08771 0.09648,-0.0088 0.324518,-0.02631 0.701662,-0.04385 0,0 0,0 0,0 0.561329,-0.03508 0.850764,-0.05262 0.850764,-0.05262 z m 5.77994,0.03508 c 0.06139,-0.07017 0.140332,-0.10525 0.254352,-0.10525 0,0 0,0 0,0 0.105249,0 0.192957,0.03508 0.263123,0.11402 0,0 0,0 0,0 0.07017,0.07017 0.105249,0.157874 0.105249,0.254353 0,0 0,0 0,0 0,0.08771 -0.02631,0.22804 -0.07894,0.420997 0,0 0,0 0,0 -0.271893,1.078804 -0.508704,1.929569 -0.710432,2.552294 0,0 0,0 0,0 -0.184186,0.561329 -0.350831,1.105117 -0.491163,1.631363 0,0 0,0 0,0 -0.07017,0.280665 -0.149103,0.473622 -0.22804,0.578871 -0.07894,0.105249 -0.192957,0.157874 -0.324519,0.157874 0,0 0,0 0,0 -0.11402,0 -0.219269,-0.05262 -0.298206,-0.157874 -0.07894,-0.09648 -0.166644,-0.280665 -0.254352,-0.535017 0,0 0,0 0,0 -0.07894,-0.245582 -0.192957,-0.68412 -0.350831,-1.315616 -0.166644,-0.631495 -0.245581,-0.982326 -0.245581,-1.043721 0,-0.0614 -0.0088,-0.09648 -0.03508,-0.09648 0,0 0,0 0,0 -0.02631,0 -0.08771,0.175416 -0.184187,0.535017 0,0 0,0 0,0 -0.11402,0.438539 -0.263123,0.973556 -0.45608,1.59628 -0.192957,0.622725 -0.306977,0.964785 -0.35083,1.008639 0,0 0,0 0,0 -0.04385,0.05262 -0.114021,0.07894 -0.21927,0.07894 -0.105249,0 -0.184186,-0.02631 -0.245581,-0.08771 0,0 0,0 0,0 -0.05262,-0.05262 -0.07894,-0.122791 -0.07894,-0.210498 0,0 0,0 0,0 0,-0.11402 0.07894,-0.473622 0.245581,-1.078805 0,0 0,0 0,0 0.184186,-0.649037 0.45608,-1.806779 0.833223,-3.464454 0,0 0,0 0,0 0.07894,-0.298206 0.140333,-0.473622 0.184187,-0.535017 0,0 0,0 0,0 0.07894,-0.07894 0.166644,-0.122791 0.263123,-0.122791 0,0 0,0 0,0 0.149103,0 0.271894,0.08771 0.368372,0.263123 0,0 0,0 0,0 0.04385,0.08771 0.131562,0.473622 0.263123,1.148971 0,0 0,0 0,0 0.298206,1.552426 0.482393,2.333025 0.543788,2.333025 0,0 0,0 0,0 0.04385,0 0.175415,-0.377143 0.412226,-1.131429 0.22804,-0.745516 0.385914,-1.315616 0.473622,-1.70153 0,0 0,0 0,0 0.131561,-0.622725 0.245581,-0.991097 0.34206,-1.087575 z m 4.087183,0.210498 c 0.07894,-0.0088 0.210498,-0.01754 0.412226,-0.01754 0,0 0,0 0,0 0.350831,0 0.578871,0.01754 0.68412,0.06139 0,0 0,0 0,0 0.184186,0.07894 0.280665,0.201728 0.280665,0.377143 0,0 0,0 0,0 0,0.0614 -0.01754,0.11402 -0.05262,0.166645 0,0 0,0 0,0 -0.09648,0.11402 -0.236811,0.175415 -0.429767,0.175415 0,0 0,0 0,0 -0.0614,0 -0.11402,0 -0.157874,-0.0088 0,0 0,0 0,0 -0.0614,-0.0088 -0.149103,-0.0088 -0.263123,-0.0088 0,0 0,0 0,0 -0.394685,0 -0.736745,0.07017 -1.01741,0.201727 0,0 0,0 0,0 -0.236811,0.11402 -0.491163,0.315748 -0.745515,0.605183 -0.254353,0.289436 -0.447309,0.587642 -0.561329,0.877077 0,0 0,0 0,0 -0.114021,0.271894 -0.166645,0.56133 -0.166645,0.859536 0,0 0,0 0,0 0,0.306977 0.06139,0.578871 0.175415,0.815682 0.11402,0.23681 0.263123,0.403455 0.464851,0.491163 0,0 0,0 0,0 0.149103,0.06139 0.394685,0.09648 0.754286,0.09648 0,0 0,0 0,0 0.140333,0 0.263123,-0.0088 0.368373,-0.03508 0,0 0,0 0,0 0.149103,-0.05262 0.271894,-0.11402 0.359601,-0.192957 0,0 0,0 0,0 0.09648,-0.08771 0.192957,-0.22804 0.289436,-0.412226 0.08771,-0.184186 0.131561,-0.333289 0.131561,-0.447309 0,0 0,0 0,0 0,-0.07894 -0.0088,-0.140333 -0.02631,-0.166645 -0.02631,-0.02631 -0.08771,-0.0614 -0.184186,-0.105249 0,0 0,0 0,0 -0.122791,-0.05262 -0.245582,-0.07894 -0.377143,-0.07894 0,0 0,0 0,0 -0.03508,0 -0.140333,0.0088 -0.315748,0.01754 0,0 0,0 0,0 -0.385914,0.02631 -0.605183,0.04385 -0.657808,0.05262 0,0 0,0 0,0 -0.0614,0.0088 -0.09648,0.01754 -0.11402,0.01754 0,0 0,0 0,0 -0.06139,0 -0.105249,-0.02631 -0.149103,-0.07894 0,0 0,0 0,0 -0.0614,-0.0614 -0.08771,-0.140333 -0.08771,-0.21927 0,0 0,0 0,0 0,-0.08771 0.03508,-0.175415 0.11402,-0.254352 0.07894,-0.07894 0.175416,-0.131562 0.298207,-0.166645 0,0 0,0 0,0 0.184186,-0.05262 0.429767,-0.07894 0.736744,-0.07894 0,0 0,0 0,0 0.245582,0 0.438539,0.01754 0.578871,0.05263 0,0 0,0 0,0 0.315748,0.07894 0.543788,0.201728 0.692891,0.350831 0.149103,0.157874 0.219269,0.368372 0.219269,0.631495 0,0 0,0 0,0 0,0.377143 -0.105249,0.736745 -0.315748,1.070034 -0.210498,0.33329 -0.473621,0.56133 -0.79814,0.692891 0,0 0,0 0,0 -0.210498,0.07894 -0.482392,0.11402 -0.806911,0.11402 0,0 0,0 0,0 -0.324518,0 -0.613953,-0.03508 -0.885847,-0.11402 0,0 0,0 0,0 -0.429768,-0.131561 -0.754287,-0.420997 -0.973556,-0.885848 0,0 0,0 0,0 -0.166644,-0.35083 -0.245581,-0.701661 -0.245581,-1.061263 0,0 0,0 0,0 0,-0.02631 0,-0.06139 0.0088,-0.11402 0,-0.05262 0,-0.09648 0,-0.122791 0,0 0,0 0,0 0.04385,-0.80691 0.377144,-1.543655 1.01741,-2.219004 0,0 0,0 0,0 0.517475,-0.543788 1.096346,-0.859536 1.745383,-0.938473 z"
         id="text1-2"
         aria-label="PARKING" /></g></g><style
     type="text/css"
     id="style1"><![CDATA[
	.st0{fill-rule:evenodd;clip-rule:evenodd;}
]]></style><style
     type="text/css"
     id="style1-3">.st0{fill-rule:evenodd;clip-rule:evenodd;}</style></svg>
