<?xml version="1.0" encoding="UTF-8" standalone="no"?>
<!-- Created with Inkscape (http://www.inkscape.org/) -->

<svg
   width="50mm"
   height="50mm"
   viewBox="0 0 50 50"
   version="1.1"
   id="svg1"
   inkscape:version="1.3 (0e150ed6c4, 2023-07-21)"
   sodipodi:docname="parking.svg"
   xml:space="preserve"
   xmlns:inkscape="http://www.inkscape.org/namespaces/inkscape"
   xmlns:sodipodi="http://sodipodi.sourceforge.net/DTD/sodipodi-0.dtd"
   xmlns="http://www.w3.org/2000/svg"
   xmlns:svg="http://www.w3.org/2000/svg"><sodipodi:namedview
     id="namedview1"
     pagecolor="#ffffff"
     bordercolor="#666666"
     borderopacity="1.0"
     inkscape:showpageshadow="2"
     inkscape:pageopacity="0.0"
     inkscape:pagecheckerboard="0"
     inkscape:deskcolor="#d1d1d1"
     inkscape:document-units="mm"
     inkscape:zoom="2.3786088"
     inkscape:cx="41.831175"
     inkscape:cy="82.611315"
     inkscape:window-width="1948"
     inkscape:window-height="1070"
     inkscape:window-x="102"
     inkscape:window-y="245"
     inkscape:window-maximized="0"
     inkscape:current-layer="layer1" /><defs
     id="defs1" /><g
     inkscape:label="Layer 1"
     inkscape:groupmode="layer"
     id="layer1"
     transform="matrix(0,1.2112922,-1.2112922,0,54.92251,-6.4566465)"><g
       id="g2"
       transform="matrix(0.46960164,0.46960164,-0.46960164,0.46960164,25.59535,1.5909268)"><g
         id="g1"
         transform="matrix(0.62742274,0,0,0.62742274,9.3144317,10.228769)"><path
           class="st0"
           d="M 11.43553,28.167831 C 8.5304055,26.691456 8.8637805,25.045748 11.782135,25.217727 l 0.65352,1.225021 1.34673,-4.188354 c 0.529166,-1.648354 1.410229,-3.14325 3.137958,-3.14325 h 17.224375 c 1.727729,0 2.722562,1.465792 3.140604,3.140604 l 1.010708,4.061354 0.582084,-1.095375 c 3.000375,-0.174625 3.267604,1.568979 0.0926,3.074459 l 0.515941,0.791104 c 2.087563,2.145771 1.891771,5.939896 1.566334,11.2395 v 2.153708 c 0,0.53975 -0.441854,0.981604 -0.981604,0.981604 H 35.88303 c -0.53975,0 -0.981604,-0.441854 -0.981604,-0.981604 V 41.27529 H 15.105301 v 1.201208 c 0,0.53975 -0.441854,0.981604 -0.981604,0.981604 H 9.9353431 c -0.5397496,0 -0.9816036,-0.441854 -0.9816036,-0.981604 v -2.674937 c 0,-0.05292 0.0053,-0.103188 0.01058,-0.153459 -0.3175,-4.066646 -0.764646,-9.384771 2.4712075,-11.480271 z m 5.34723,6.474355 -3.720042,-0.468313 c -0.878417,-0.0979 -1.113896,0.272521 -0.814917,1.029229 l 0.402167,0.976313 c 0.129646,0.251354 0.301625,0.433916 0.502708,0.560916 0.235479,0.145521 0.518584,0.216959 0.833438,0.230188 l 3.317875,0.02646 c 0.801687,-0.0026 1.148291,-0.322793 0.896937,-1.058335 -0.206375,-0.690563 -0.677333,-1.124479 -1.418166,-1.296458 z m 6.35,-1.563688 h 3.81 c 0.224895,0 0.410104,0.185209 0.410104,0.410104 v 0 c 0,0.224896 -0.185209,0.410104 -0.410104,0.410104 h -3.81 c -0.224896,0 -0.410105,-0.185208 -0.410105,-0.410104 v 0 c -0.0026,-0.224896 0.182563,-0.410104 0.410105,-0.410104 z m 9.413875,5.386917 h 3.81 c 0.224895,0 0.410104,0.185208 0.410104,0.410104 v 0 c 0,0.224896 -0.185209,0.410104 -0.410104,0.410104 h -3.81 c -0.224896,0 -0.410105,-0.185208 -0.410105,-0.410104 v 0 c 0,-0.224896 0.182563,-0.410104 0.410105,-0.410104 z m 0.672041,-3.823229 3.720042,-0.468313 c 0.878417,-0.0979 1.113896,0.272521 0.814917,1.029229 l -0.402167,0.976313 c -0.129646,0.251354 -0.301625,0.433916 -0.502708,0.560916 -0.23548,0.145521 -0.518584,0.216959 -0.833438,0.230188 l -3.317875,0.02646 c -0.801687,-0.0026 -1.148292,-0.322791 -0.896937,-1.058333 0.206375,-0.690563 0.677333,-1.124479 1.418166,-1.296458 z m -19.602979,3.823229 h 3.81 c 0.224896,0 0.410104,0.185208 0.410104,0.410104 v 0 c 0,0.224896 -0.185208,0.410104 -0.410104,0.410104 h -3.81 c -0.224896,0 -0.410104,-0.185208 -0.410104,-0.410104 v 0 c 0,-0.224896 0.185208,-0.410104 0.410104,-0.410104 z M 13.832655,27.366144 H 36.80378 L 35.790426,23.153977 C 35.512614,21.870748 34.713572,20.759498 33.395947,20.759498 H 17.491843 c -1.314979,0 -1.989667,1.140354 -2.394479,2.394479 l -1.264709,4.212167 v 0.198437 z"
           id="path1"
           style="fill:#000000;stroke-width:0.264583" /><polygon
           class="st0"
           points="0,28.3 31.99,28.3 31.99,0 55.17,0 55.17,28.3 87.16,28.3 87.16,51.47 55.17,51.47 55.17,122.88 31.99,122.88 31.99,51.47 0,51.47 "
           id="polygon1"
           transform="matrix(0.09787563,0,0,0.08467455,20.73458,5.9612206)"
           style="fill:#000000" /></g><text
         xml:space="preserve"
         style="font-style:normal;font-weight:normal;font-size:5.91418px;font-family:sans-serif;fill:#000000;fill-opacity:1;stroke:none;stroke-width:0.147855"
         x="24.994225"
         y="7.8150992"
         id="text1"><tspan
           sodipodi:role="line"
           id="tspan1"
           style="font-style:normal;font-variant:normal;font-weight:500;font-stretch:normal;font-size:8.77077px;font-family:isaiahFont;-inkscape-font-specification:'isaiahFont, Medium';font-variant-ligatures:normal;font-variant-caps:normal;font-variant-numeric:normal;font-variant-east-asian:normal;text-align:center;text-anchor:middle;stroke-width:0.147855"
           x="24.994225"
           y="7.8150992">RATHBURN</tspan></text><text
         xml:space="preserve"
         style="font-style:normal;font-weight:normal;font-size:5.91418px;font-family:sans-serif;fill:#000000;fill-opacity:1;stroke:none;stroke-width:0.147855"
         x="24.922029"
         y="48.736851"
         id="text1-2"><tspan
           sodipodi:role="line"
           id="tspan1-9"
           style="font-style:normal;font-variant:normal;font-weight:500;font-stretch:normal;font-size:8.77077px;font-family:isaiahFont;-inkscape-font-specification:'isaiahFont, Medium';font-variant-ligatures:normal;font-variant-caps:normal;font-variant-numeric:normal;font-variant-east-asian:normal;text-align:center;text-anchor:middle;stroke-width:0.147855"
           x="24.922029"
           y="48.736851">PARKING</tspan></text></g></g><style
     type="text/css"
     id="style1"><![CDATA[
	.st0{fill-rule:evenodd;clip-rule:evenodd;}
]]></style><style
     type="text/css"
     id="style1-3">.st0{fill-rule:evenodd;clip-rule:evenodd;}</style></svg>
