<?xml version="1.0" encoding="UTF-8" standalone="no"?>
<svg
   version="1.1"
   id="Layer_1"
   x="0px"
   y="0px"
   width="122.88px"
   height="122.88px"
   viewBox="0 0 122.88 122.88"
   enable-background="new 0 0 122.88 122.88"
   xml:space="preserve"
   sodipodi:docname="confirm.svg"
   inkscape:version="1.3 (0e150ed6c4, 2023-07-21)"
   xmlns:inkscape="http://www.inkscape.org/namespaces/inkscape"
   xmlns:sodipodi="http://sodipodi.sourceforge.net/DTD/sodipodi-0.dtd"
   xmlns="http://www.w3.org/2000/svg"
   xmlns:svg="http://www.w3.org/2000/svg"><defs
     id="defs1" /><sodipodi:namedview
     id="namedview1"
     pagecolor="#ffffff"
     bordercolor="#666666"
     borderopacity="1.0"
     inkscape:showpageshadow="2"
     inkscape:pageopacity="0.0"
     inkscape:pagecheckerboard="0"
     inkscape:deskcolor="#d1d1d1"
     inkscape:zoom="9.9039716"
     inkscape:cx="61.439999"
     inkscape:cy="61.439999"
     inkscape:window-width="2400"
     inkscape:window-height="1494"
     inkscape:window-x="-11"
     inkscape:window-y="-11"
     inkscape:window-maximized="1"
     inkscape:current-layer="Layer_1" /><g
     id="g1"
     style="fill:#008000"><path
       fill-rule="evenodd"
       clip-rule="evenodd"
       d="M61.44,0c33.932,0,61.44,27.508,61.44,61.44c0,33.932-27.508,61.439-61.44,61.439 C27.507,122.88,0,95.372,0,61.44C0,27.508,27.507,0,61.44,0L61.44,0z M34.258,63.075c0.824-4.78,6.28-7.44,10.584-4.851 c0.39,0.233,0.763,0.51,1.11,0.827l0.034,0.032c1.932,1.852,4.096,3.778,6.242,5.688l1.841,1.652l21.84-22.91 c1.304-1.366,2.259-2.25,4.216-2.689c6.701-1.478,11.412,6.712,6.663,11.719L59.565,81.108c-2.564,2.735-7.147,2.985-9.901,0.373 c-1.581-1.466-3.297-2.958-5.034-4.467c-3.007-2.613-6.077-5.28-8.577-7.919C34.551,67.595,33.903,65.139,34.258,63.075 L34.258,63.075z"
       id="path1"
       style="fill:#008000" /></g></svg>
