<?xml version="1.0" encoding="UTF-8" standalone="no"?>
<!-- Created with Inkscape (http://www.inkscape.org/) -->

<svg
   width="338.07901mm"
   height="86.791466mm"
   viewBox="0 0 338.07901 86.791466"
   version="1.1"
   id="svg1"
   inkscape:version="1.3 (0e150ed6c4, 2023-07-21)"
   sodipodi:docname="logo.svg"
   xmlns:inkscape="http://www.inkscape.org/namespaces/inkscape"
   xmlns:sodipodi="http://sodipodi.sourceforge.net/DTD/sodipodi-0.dtd"
   xmlns="http://www.w3.org/2000/svg"
   xmlns:svg="http://www.w3.org/2000/svg">
  <sodipodi:namedview
     id="namedview1"
     pagecolor="#ffffff"
     bordercolor="#666666"
     borderopacity="1.0"
     inkscape:showpageshadow="2"
     inkscape:pageopacity="0.0"
     inkscape:pagecheckerboard="0"
     inkscape:deskcolor="#d1d1d1"
     inkscape:document-units="mm"
     inkscape:zoom="0.54208404"
     inkscape:cx="373.55831"
     inkscape:cy="163.25882"
     inkscape:window-width="2400"
     inkscape:window-height="1494"
     inkscape:window-x="-11"
     inkscape:window-y="-11"
     inkscape:window-maximized="1"
     inkscape:current-layer="layer1" />
  <defs
     id="defs1" />
  <g
     inkscape:label="Layer 1"
     inkscape:groupmode="layer"
     id="layer1"
     transform="translate(-80.714561,-206.26007)">
    <g
       id="g1"
       transform="rotate(45,249.75409,249.6558)">
      <rect
         style="fill:#a1140e;fill-opacity:1;stroke:#1a1a1a;stroke-width:3.15789;paint-order:markers fill stroke"
         id="rect1"
         width="334.92117"
         height="83.633575"
         x="-167.39108"
         y="311.31934"
         transform="rotate(-45)" />
      <path
         style="font-weight:bold;font-size:40.7865px;font-family:Sans;-inkscape-font-specification:'Sans, Bold';text-align:center;text-anchor:middle;fill:#ffffff;stroke-width:1.01966"
         d="m -127.5402,366.43418 q -1.99153,0.7767 -5.27755,1.5534 -3.28602,0.75678 -6.55213,0.75678 -7.5678,0 -11.84959,-4.10255 -4.28179,-4.12246 -4.28179,-11.37163 0,-6.9106 4.32162,-11.13264 4.32162,-4.24196 12.04875,-4.24196 2.92754,0 5.57628,0.53772 2.64873,0.51779 5.89492,2.0911 v 6.95044 h -0.85636 q -0.55763,-0.41823 -1.63305,-1.17501 -1.07543,-0.77669 -2.07119,-1.3144 -1.15509,-0.63729 -2.70848,-1.09535 -1.53348,-0.45805 -3.26611,-0.45805 -2.03135,0 -3.68432,0.59746 -1.65297,0.59746 -2.96738,1.83221 -1.25466,1.19491 -1.99153,3.04704 -0.71695,1.8322 -0.71695,4.24195 0,4.91908 2.6089,7.52798 2.60891,2.6089 7.70722,2.6089 0.43813,0 0.95593,-0.0199 0.53771,-0.0199 0.97585,-0.0597 v -5.81526 h -5.91484 v -5.5962 h 13.6818 z m 23.48012,-18.87968 q 0,-1.11526 -0.45805,-1.91187 -0.45805,-0.79661 -1.57331,-1.25466 -0.7767,-0.31865 -1.81229,-0.37839 -1.03559,-0.0797 -2.40975,-0.0797 h -2.76822 v 7.98602 h 2.35 q 1.83221,0 3.06695,-0.17923 1.23475,-0.17924 2.07119,-0.81653 0.79661,-0.61737 1.15509,-1.35424 0.37839,-0.75678 0.37839,-2.01144 z m 11.929254,20.57248 h -9.340264 l -8.08561,-10.87374 h -3.525 v 10.87374 h -7.60764 v -29.65385 h 12.82544 q 2.62882,0 4.52077,0.29873 1.89195,0.29873 3.54492,1.29449 1.672884,0.99576 2.648733,2.58899 0.995764,1.5733 0.995764,3.96314 0,3.28602 -1.533477,5.35721 -1.513562,2.07119 -4.34153,3.44534 z m 32.183095,-14.81697 q 0,7.08984 -4.062717,11.27205 -4.062718,4.1623 -11.23222,4.1623 -7.149586,0 -11.212304,-4.1623 -4.062718,-4.18221 -4.062718,-11.27205 0,-7.14958 4.062718,-11.29196 4.062718,-4.1623 11.212304,-4.1623 7.129671,0 11.212304,4.1623 4.082633,4.14238 4.082633,11.29196 z m -10.136879,7.50806 q 1.115256,-1.35423 1.652969,-3.18644 0.537713,-1.85212 0.537713,-4.34153 0,-2.66865 -0.617374,-4.54069 -0.617374,-1.87203 -1.613138,-3.02712 -1.01568,-1.19492 -2.350003,-1.73263 -1.314409,-0.53771 -2.74831,-0.53771 -1.453815,0 -2.748309,0.5178 -1.274578,0.51779 -2.350003,1.71271 -0.995764,1.11526 -1.633053,3.08687 -0.617374,1.9517 -0.617374,4.54068 0,2.64874 0.597459,4.52077 0.617373,1.85212 1.613138,3.02713 0.995764,1.175 2.330088,1.73263 1.334324,0.55762 2.808054,0.55762 1.473731,0 2.808055,-0.55762 1.334324,-0.57755 2.330088,-1.77247 z m 42.85769,-22.34494 -10.813999,29.65385 h -8.563571 l -10.813999,-29.65385 h 8.025859 l 7.169502,20.83138 7.169502,-20.83138 z m 25.7106268,29.65385 H -22.965053 v -29.65385 h 21.4487598 v 5.7356 H -15.357415 v 5.11823 h 12.8453576 v 5.7356 H -15.357415 v 7.32882 H -1.5162932 Z M 33.733757,353.31001 q 0,7.08984 -4.062717,11.27205 -4.062718,4.1623 -11.23222,4.1623 -7.149586,0 -11.2123039,-4.1623 -4.0627177,-4.18221 -4.0627177,-11.27205 0,-7.14958 4.0627177,-11.29196 4.0627179,-4.1623 11.2123039,-4.1623 7.129671,0 11.212304,4.1623 4.082633,4.14238 4.082633,11.29196 z m -10.136879,7.50806 q 1.115256,-1.35423 1.652969,-3.18644 0.537713,-1.85212 0.537713,-4.34153 0,-2.66865 -0.617374,-4.54069 -0.617374,-1.87203 -1.613138,-3.02712 -1.01568,-1.19492 -2.350003,-1.73263 -1.314409,-0.53771 -2.748309,-0.53771 -1.453816,0 -2.748309,0.5178 -1.274579,0.51779 -2.350004,1.71271 -0.995764,1.11526 -1.633053,3.08687 -0.617374,1.9517 -0.617374,4.54068 0,2.64874 0.597459,4.52077 0.617373,1.85212 1.613138,3.02713 0.995764,1.175 2.330088,1.73263 1.334324,0.55762 2.808055,0.55762 1.47373,0 2.808054,-0.55762 1.334324,-0.57755 2.330088,-1.77247 z m 40.447948,-12.98476 q 0,1.99153 -0.697035,3.9034 -0.697034,1.89195 -1.991528,3.18644 -1.77246,1.75255 -3.963141,2.64873 -2.170766,0.89619 -5.416957,0.89619 h -4.759753 v 9.65891 h -7.647468 v -29.65385 h 12.586459 q 2.82797,0 4.759752,0.49788 1.951698,0.47797 3.445344,1.45382 1.792375,1.175 2.728394,3.0072 0.955933,1.83221 0.955933,4.40128 z m -7.906367,0.17924 q 0,-1.25466 -0.67712,-2.15085 -0.677119,-0.91611 -1.573307,-1.27458 -1.194917,-0.47797 -2.330088,-0.5178 -1.135171,-0.0597 -3.027123,-0.0597 h -1.314409 v 8.88221 h 2.190682 q 1.951697,0 3.20636,-0.23898 1.274578,-0.23898 2.130935,-0.95593 0.736866,-0.63729 1.05551,-1.51357 0.33856,-0.89618 0.33856,-2.17076 z m 42.160652,5.29746 q 0,7.08984 -4.062718,11.27205 -4.062718,4.1623 -11.232219,4.1623 -7.149587,0 -11.212305,-4.1623 -4.062717,-4.18221 -4.062717,-11.27205 0,-7.14958 4.062717,-11.29196 4.062718,-4.1623 11.212305,-4.1623 7.129671,0 11.212304,4.1623 4.082633,4.14238 4.082633,11.29196 z m -10.136879,7.50806 q 1.115256,-1.35423 1.652968,-3.18644 0.537713,-1.85212 0.537713,-4.34153 0,-2.66865 -0.617374,-4.54069 -0.617374,-1.87203 -1.613138,-3.02712 -1.015679,-1.19492 -2.350003,-1.73263 -1.314409,-0.53771 -2.748309,-0.53771 -1.453816,0 -2.748309,0.5178 -1.274578,0.51779 -2.350003,1.71271 -0.995765,1.11526 -1.633054,3.08687 -0.617373,1.9517 -0.617373,4.54068 0,2.64874 0.597458,4.52077 0.617374,1.85212 1.613138,3.02713 0.995764,1.175 2.330088,1.73263 1.334324,0.55762 2.808055,0.55762 1.473731,0 2.808055,-0.55762 1.334324,-0.57755 2.330088,-1.77247 z m 37.361078,7.30891 H 104.1343 v -29.65385 h 7.64747 v 23.91825 h 13.74154 z m 30.68945,-29.65385 -10.93349,18.18265 v 11.4712 h -7.64747 v -11.11272 l -11.11273,-18.54113 h 8.68307 l 6.41272,11.4712 6.19365,-11.4712 z"
         id="text1"
         transform="rotate(-45)"
         aria-label="GROVEOPOLY" />
    </g>
  </g>
</svg>
