<?xml version="1.0" encoding="UTF-8" standalone="no"?>
<svg
   shape-rendering="geometricPrecision"
   text-rendering="geometricPrecision"
   image-rendering="optimizeQuality"
   fill-rule="evenodd"
   clip-rule="evenodd"
   viewBox="0 0 358 348.43946"
   version="1.1"
   id="svg1"
   sodipodi:docname="tunnel.svg"
   inkscape:version="1.3 (0e150ed6c4, 2023-07-21)"
   width="358"
   height="348.43945"
   xmlns:inkscape="http://www.inkscape.org/namespaces/inkscape"
   xmlns:sodipodi="http://sodipodi.sourceforge.net/DTD/sodipodi-0.dtd"
   xmlns="http://www.w3.org/2000/svg"
   xmlns:svg="http://www.w3.org/2000/svg">
  <defs
     id="defs1" />
  <sodipodi:namedview
     id="namedview1"
     pagecolor="#ffffff"
     bordercolor="#666666"
     borderopacity="1.0"
     inkscape:showpageshadow="2"
     inkscape:pageopacity="0.0"
     inkscape:pagecheckerboard="0"
     inkscape:deskcolor="#d1d1d1"
     inkscape:zoom="2"
     inkscape:cx="179"
     inkscape:cy="204.75"
     inkscape:window-width="2400"
     inkscape:window-height="1494"
     inkscape:window-x="-11"
     inkscape:window-y="-11"
     inkscape:window-maximized="1"
     inkscape:current-layer="svg1" />
  <path
     id="path1"
     d="M 179.05078,0 C 134.56103,0 90.000768,15.250228 56.460938,45.080078 22.841103,74.979928 0.32929537,119.39999 0.02929688,177.67969 L 0,178.80078 V 340.7207 c 0,4.26 3.4607246,7.71875 7.7207031,7.71875 H 62.589844 c 4.259975,0 7.710937,-3.45875 7.710937,-7.71875 l -0.02148,-160.5 c 0.16,-33.9598 13.761338,-59.76111 33.781249,-77.04101 C 124.19045,85.809765 150.86015,76.929687 177,76.929688 l 0.60938,-0.0293 0.78124,0.0098 0.60938,0.01953 0.33008,-0.0098 c 25.53985,0.519995 51.43916,9.540808 71.03906,26.720702 0.27,0.47 0.59094,0.91985 0.96094,1.33985 a 7.845,7.845 0 0 0 2.55078,1.88867 l 0.58984,0.57031 c 17.55995,17.23995 29.13868,41.81984 29.13868,73.42969 V 340.7207 c 0,4.26 3.46098,7.71875 7.71093,7.71875 h 58.95899 c 4.25995,0 7.7207,-3.45875 7.7207,-7.71875 V 178.80078 C 358,124.37108 338.60016,81.880788 308.82031,51.960938 274.87051,17.861108 227.46975,0.26929568 180,0.02929688 l -0.58984,-0.01953125 h -0.21094 z m -7.76172,15.570312 v 46.048829 c -26.23985,1.14999 -52.65002,10.231725 -73.669919,26.93164 L 64.25,58.830078 c 0.809995,-0.749995 1.630938,-1.500239 2.460938,-2.240234 C 95.390793,31.079969 133.03926,17.250307 171.28906,15.570312 Z m 15.43164,0 c 38.8498,1.649995 77.10867,15.919896 105.97852,42.259766 L 257.30078,89.349609 C 237.21088,73.029694 212.0206,63.780615 186.7207,61.890625 Z m 116.83008,53.240235 c 23.8299,26.769865 39.01953,63.560483 39.01953,109.990233 V 333.00977 H 299.03906 V 180.86914 c 0,-34.10985 -11.96002,-61.21908 -30.41992,-80.958984 z m -250.041014,1.099609 32.65039,29.070313 c -18.799905,19.649901 -31.08,46.819841 -31.25,81.179691 -0.23,50.90975 -0.04102,101.90986 -0.04102,152.84961 H 15.429688 l -0.0293,-155.29883 C 15.630386,132.45114 30.389881,96.400026 53.509766,69.910156 Z M 179,98.25 c -48.36975,0 -87.939453,39.5697 -87.939453,87.93945 v 82.51953 2.1875 77.54297 H 266.94922 v -77.54297 -2.1875 -82.51953 C 266.94922,137.8197 227.36975,98.25 179,98.25 Z" />
</svg>
