<?xml version="1.0" encoding="UTF-8" standalone="no"?>
<!-- Created with Inkscape (http://www.inkscape.org/) -->

<svg
   width="200mm"
   height="300mm"
   viewBox="0 0 200 300"
   version="1.1"
   id="svg1"
   inkscape:version="1.3 (0e150ed6c4, 2023-07-21)"
   sodipodi:docname="r4.svg"
   xml:space="preserve"
   xmlns:inkscape="http://www.inkscape.org/namespaces/inkscape"
   xmlns:sodipodi="http://sodipodi.sourceforge.net/DTD/sodipodi-0.dtd"
   xmlns="http://www.w3.org/2000/svg"
   xmlns:svg="http://www.w3.org/2000/svg"><sodipodi:namedview
     id="namedview1"
     pagecolor="#ffffff"
     bordercolor="#666666"
     borderopacity="1.0"
     inkscape:showpageshadow="2"
     inkscape:pageopacity="0.0"
     inkscape:pagecheckerboard="0"
     inkscape:deskcolor="#d1d1d1"
     inkscape:document-units="mm"
     inkscape:zoom="0.59465221"
     inkscape:cx="89.968555"
     inkscape:cy="738.24665"
     inkscape:window-width="1408"
     inkscape:window-height="1481"
     inkscape:window-x="970"
     inkscape:window-y="0"
     inkscape:window-maximized="0"
     inkscape:current-layer="layer1" /><defs
     id="defs1"><rect
       x="640.71064"
       y="884.55065"
       width="91.574897"
       height="223.40157"
       id="rect3" /><linearGradient
       id="swatch1"
       inkscape:swatch="solid"><stop
         style="stop-color:#ffff00;stop-opacity:1;"
         offset="0"
         id="stop1" /></linearGradient></defs><g
     inkscape:label="Layer 1"
     inkscape:groupmode="layer"
     id="layer1"><rect
       style="fill:#ffffff;stroke:#1a1a1a;stroke-width:0.799999;paint-order:markers fill stroke"
       id="rect2"
       width="200"
       height="300"
       x="0"
       y="0" /><rect
       style="fill:none;stroke:#1a1a1a;stroke-width:1.2;stroke-dasharray:none;paint-order:stroke fill markers"
       id="rect1"
       width="187.50111"
       height="286.29135"
       x="6.2494426"
       y="6.8543248" /><g
       id="g17"
       transform="translate(0.95125078,85.09581)"><g
         id="g6"><g
           id="text1"
           style="font-size:10.5833px;line-height:1.6;stroke-width:0.264583"
           aria-label="Rent&#10;If 2 Tunnels owned&#10;If 3 Tunnels owned&#10;If 4 Tunnels owned"><path
             style="font-size:13.4056px;font-family:Sans;-inkscape-font-specification:'Sans, Normal'"
             d="m 22.902048,85.576271 h -1.682245 l -3.25976,-3.875056 h -1.826252 v 3.875056 H 14.837742 V 75.829719 H 17.5673 q 0.88367,0 1.472784,0.117823 0.589113,0.111277 1.060403,0.405834 0.530202,0.33383 0.824759,0.844395 0.301102,0.504019 0.301102,1.282958 0,1.053858 -0.530202,1.76734 -0.530202,0.706936 -1.459691,1.066949 z m -3.03066,-7.003902 q 0,-0.418925 -0.150551,-0.739665 -0.144006,-0.327285 -0.484382,-0.549839 -0.281466,-0.189825 -0.667662,-0.261828 -0.386197,-0.07855 -0.909853,-0.07855 h -1.525149 v 3.678685 h 1.309141 q 0.615296,0 1.073495,-0.104731 0.458199,-0.111277 0.778939,-0.405834 0.294557,-0.274919 0.432016,-0.628387 0.144006,-0.360014 0.144006,-0.909853 z m 9.982196,3.475768 h -5.387113 q 0,0.674208 0.202917,1.178227 0.202916,0.497473 0.556384,0.818213 0.340377,0.314193 0.805122,0.47129 0.47129,0.157097 1.034221,0.157097 0.74621,0 1.498966,-0.294557 0.759301,-0.301102 1.080041,-0.589113 h 0.06546 v 1.341869 q -0.621842,0.261828 -1.269867,0.438562 -0.648024,0.176734 -1.361506,0.176734 -1.819705,0 -2.840835,-0.981855 -1.021129,-0.988401 -1.021129,-2.801561 0,-1.793523 0.975309,-2.847381 0.981856,-1.053858 2.579007,-1.053858 1.479329,0 2.277905,0.864033 0.805121,0.864033 0.805121,2.454638 z m -1.197863,-0.942581 q -0.0065,-0.968764 -0.490928,-1.498966 -0.477836,-0.530202 -1.459692,-0.530202 -0.988401,0 -1.577514,0.582568 -0.582568,0.582567 -0.661116,1.4466 z m 9.177075,4.470715 h -1.230592 v -4.163067 q 0,-0.504019 -0.05891,-0.942581 -0.05891,-0.445108 -0.216008,-0.693845 -0.163643,-0.274919 -0.471291,-0.405833 -0.307648,-0.13746 -0.798576,-0.13746 -0.504019,0 -1.053858,0.248737 -0.549839,0.248736 -1.053858,0.634933 v 5.459116 H 31.71911 v -7.31155 h 1.230592 v 0.811667 q 0.576022,-0.477836 1.191318,-0.74621 0.615296,-0.268374 1.263321,-0.268374 1.184772,0 1.806614,0.713482 0.621841,0.713481 0.621841,2.05535 z m 6.166052,-0.06546 q -0.346922,0.09164 -0.759301,0.150551 -0.405834,0.05891 -0.726573,0.05891 -1.119316,0 -1.701883,-0.602205 -0.582568,-0.602205 -0.582568,-1.930983 v -3.888147 h -0.831304 v -1.034221 h 0.831304 V 76.16355 h 1.230592 v 2.101171 h 2.539733 v 1.034221 h -2.539733 v 3.331763 q 0,0.576022 0.02618,0.903307 0.02618,0.320739 0.18328,0.602204 0.144005,0.261829 0.392742,0.386197 0.255283,0.117823 0.772393,0.117823 0.301102,0 0.628388,-0.08509 0.327285,-0.09164 0.47129,-0.150551 h 0.06546 z"
             id="path2" /><path
             style="font-size:13.4056px;font-family:Sans;-inkscape-font-specification:'Sans, Normal'"
             d="m 18.274236,107.02523 h -3.848873 v -0.99495 h 1.276412 v -7.756654 h -1.276412 v -0.994947 h 3.848873 v 0.994947 h -1.276412 v 7.756654 h 1.276412 z m 6.041684,-8.993795 h -0.06546 q -0.202917,-0.05891 -0.530202,-0.117823 -0.327285,-0.06546 -0.576022,-0.06546 -0.79203,0 -1.152043,0.353468 -0.353468,0.346922 -0.353468,1.263321 v 0.248737 h 2.218993 v 1.034219 h -2.179719 v 6.27733 H 20.44741 V 100.7479 H 19.616105 V 99.713681 H 20.44741 V 99.47149 q 0,-1.302595 0.648024,-1.99644 0.648025,-0.70039 1.872071,-0.70039 0.41238,0 0.739665,0.03927 0.333831,0.03927 0.60875,0.09164 z m 11.932816,8.993795 h -6.598068 v -1.36805 q 0.687298,-0.58911 1.374597,-1.17823 0.693845,-0.58911 1.289504,-1.17168 1.256775,-1.2175 1.72152,-1.93098 0.464744,-0.72003 0.464744,-1.551332 0,-0.759302 -0.504019,-1.184773 -0.497473,-0.432016 -1.394234,-0.432016 -0.595659,0 -1.289504,0.209462 -0.693844,0.209463 -1.35496,0.641479 h -0.06546 v -1.374597 q 0.464744,-0.2291 1.237137,-0.418925 0.778939,-0.189826 1.505512,-0.189826 1.498966,0 2.349907,0.726573 0.850942,0.720028 0.850942,1.957165 0,0.55639 -0.144006,1.04077 -0.137459,0.47783 -0.412379,0.90985 -0.255282,0.40583 -0.602205,0.79858 -0.340376,0.39274 -0.831304,0.87057 -0.70039,0.6873 -1.4466,1.33533 -0.74621,0.64148 -1.394235,1.19132 h 5.243108 z m 13.844162,-8.594507 h -3.482314 v 8.594507 h -1.296049 v -8.594507 h -3.482314 v -1.152044 h 8.260677 z m 5.963133,8.594507 h -1.230592 v -0.81167 q -0.621842,0.49093 -1.191318,0.75276 -0.569476,0.26183 -1.256775,0.26183 -1.152044,0 -1.793522,-0.70039 -0.641479,-0.70694 -0.641479,-2.06844 v -4.745639 h 1.230592 v 4.163069 q 0,0.55638 0.05237,0.95567 0.05237,0.39274 0.222554,0.67421 0.176734,0.28801 0.4582,0.41892 0.281465,0.13092 0.818212,0.13092 0.477837,0 1.040767,-0.24874 0.569476,-0.24874 1.060404,-0.63493 v -5.459119 h 1.230592 z m 8.535596,0 h -1.230592 v -4.16307 q 0,-0.50402 -0.05891,-0.94258 -0.05891,-0.44511 -0.216008,-0.69384 -0.163643,-0.27492 -0.471291,-0.40584 -0.307648,-0.13746 -0.798576,-0.13746 -0.504019,0 -1.053858,0.24874 -0.549839,0.24874 -1.053858,0.63493 v 5.45912 h -1.230592 v -7.311549 h 1.230592 v 0.811669 q 0.576022,-0.47784 1.191318,-0.746212 0.615296,-0.268374 1.263321,-0.268374 1.184772,0 1.806614,0.713486 0.621841,0.71348 0.621841,2.05535 z m 8.483231,0 h -1.230592 v -4.16307 q 0,-0.50402 -0.05891,-0.94258 -0.05891,-0.44511 -0.216009,-0.69384 -0.163642,-0.27492 -0.47129,-0.40584 -0.307648,-0.13746 -0.798576,-0.13746 -0.504019,0 -1.053858,0.24874 -0.549839,0.24874 -1.053858,0.63493 v 5.45912 h -1.230592 v -7.311549 h 1.230592 v 0.811669 q 0.576022,-0.47784 1.191318,-0.746212 0.615296,-0.268374 1.26332,-0.268374 1.184773,0 1.806614,0.713486 0.621842,0.71348 0.621842,2.05535 z m 8.489776,-3.52813 h -5.387113 q 0,0.6742 0.202917,1.17822 0.202916,0.49748 0.556384,0.81822 0.340377,0.31419 0.805122,0.47129 0.47129,0.15709 1.034221,0.15709 0.74621,0 1.498966,-0.29455 0.759301,-0.30111 1.080041,-0.58912 h 0.06546 v 1.34187 q -0.621842,0.26183 -1.269866,0.43857 -0.648025,0.17673 -1.361507,0.17673 -1.819705,0 -2.840835,-0.98186 -1.021129,-0.9884 -1.021129,-2.80156 0,-1.79352 0.975309,-2.84738 0.981856,-1.053856 2.579007,-1.053856 1.479329,0 2.277905,0.864036 0.805121,0.86403 0.805121,2.45464 z m -1.197863,-0.94258 q -0.0065,-0.96877 -0.490928,-1.49897 -0.477836,-0.5302 -1.459692,-0.5302 -0.988401,0 -1.577514,0.58257 -0.582568,0.58256 -0.661116,1.4466 z m 4.307074,4.47071 H 83.443253 V 96.840117 h 1.230592 z m 7.658468,-2.10772 q 0,1.0015 -0.831304,1.64298 -0.824759,0.64147 -2.258268,0.64147 -0.811667,0 -1.49242,-0.18982 -0.674207,-0.19637 -1.132406,-0.42547 v -1.38114 h 0.06546 q 0.582567,0.43856 1.296049,0.70039 0.713481,0.25528 1.368052,0.25528 0.811667,0 1.269866,-0.26183 0.458199,-0.26183 0.458199,-0.82476 0,-0.43202 -0.248736,-0.65457 -0.248737,-0.22255 -0.955673,-0.37965 -0.261828,-0.0589 -0.687299,-0.13746 -0.418925,-0.0785 -0.765847,-0.17019 -0.962218,-0.25528 -1.368052,-0.74621 -0.399288,-0.49747 -0.399288,-1.2175 0,-0.45165 0.18328,-0.85094 0.189825,-0.39929 0.569476,-0.71348 0.366559,-0.30765 0.92949,-0.484384 0.569476,-0.183279 1.269866,-0.183279 0.65457,0 1.322232,0.163642 0.674207,0.157097 1.119315,0.386201 v 1.31568 h -0.06546 q -0.47129,-0.34692 -1.145498,-0.58257 -0.674207,-0.24219 -1.322232,-0.24219 -0.674207,0 -1.138952,0.26183 -0.464745,0.25528 -0.464745,0.76585 0,0.45165 0.281465,0.68075 0.27492,0.2291 0.890216,0.37311 0.340376,0.0785 0.759301,0.15709 0.425471,0.0786 0.706936,0.14401 0.857487,0.19637 1.322232,0.67421 0.464745,0.48438 0.464745,1.28295 z m 12.705217,-1.54478 q 0,1.78698 -0.9164,2.8212 -0.9164,1.03422 -2.45464,1.03422 -1.55133,0 -2.467731,-1.03422 -0.909853,-1.03422 -0.909853,-2.8212 0,-1.78698 0.909853,-2.8212 0.916401,-1.040766 2.467731,-1.040766 1.53824,0 2.45464,1.040766 0.9164,1.03422 0.9164,2.8212 z m -1.26987,0 q 0,-1.42042 -0.55639,-2.10772 -0.55638,-0.69384 -1.54478,-0.69384 -1.00149,0 -1.55788,0.69384 -0.549838,0.6873 -0.549838,2.10772 0,1.3746 0.556388,2.08808 0.55638,0.70693 1.55133,0.70693 0.98185,0 1.53824,-0.70039 0.56293,-0.70693 0.56293,-2.09462 z m 12.37138,-3.659049 -1.9048,7.311549 h -1.13896 l -1.87861,-5.63585 -1.86553,5.63585 h -1.1324 l -1.92444,-7.311549 h 1.28296 l 1.34187,5.662029 1.82625,-5.662029 h 1.01458 l 1.87207,5.662029 1.26987,-5.662029 z m 7.88757,7.311549 h -1.23059 v -4.16307 q 0,-0.50402 -0.0589,-0.94258 -0.0589,-0.44511 -0.21601,-0.69384 -0.16364,-0.27492 -0.47129,-0.40584 -0.30765,-0.13746 -0.79857,-0.13746 -0.50402,0 -1.05386,0.24874 -0.54984,0.24874 -1.05386,0.63493 v 5.45912 h -1.23059 v -7.311549 h 1.23059 v 0.811669 q 0.57602,-0.47784 1.19132,-0.746212 0.61529,-0.268374 1.26332,-0.268374 1.18477,0 1.80661,0.713486 0.62184,0.71348 0.62184,2.05535 z m 8.48978,-3.52813 h -5.38711 q 0,0.6742 0.20291,1.17822 0.20292,0.49748 0.55639,0.81822 0.34037,0.31419 0.80512,0.47129 0.47129,0.15709 1.03422,0.15709 0.74621,0 1.49897,-0.29455 0.7593,-0.30111 1.08004,-0.58912 h 0.0654 v 1.34187 q -0.62184,0.26183 -1.26986,0.43857 -0.64803,0.17673 -1.36151,0.17673 -1.8197,0 -2.84083,-0.98186 -1.02113,-0.9884 -1.02113,-2.80156 0,-1.79352 0.97531,-2.84738 0.98185,-1.053856 2.579,-1.053856 1.47933,0 2.27791,0.864036 0.80512,0.86403 0.80512,2.45464 z m -1.19786,-0.94258 q -0.007,-0.96877 -0.49093,-1.49897 -0.47784,-0.5302 -1.45969,-0.5302 -0.9884,0 -1.57752,0.58257 -0.58257,0.58256 -0.66111,1.4466 z m 8.99379,4.47071 h -1.23059 v -0.76585 q -0.5302,0.4582 -1.10623,0.71349 -0.57602,0.25528 -1.25022,0.25528 -1.30915,0 -2.08154,-1.00804 -0.76585,-1.00804 -0.76585,-2.79502 0,-0.92949 0.26183,-1.65606 0.26838,-0.72657 0.72003,-1.23714 0.44511,-0.49747 1.03422,-0.759298 0.59566,-0.261828 1.23059,-0.261828 0.57602,0 1.02113,0.124368 0.44511,0.117823 0.93604,0.373108 v -3.168123 h 1.23059 z m -1.23059,-1.80007 v -4.19579 q -0.49748,-0.22256 -0.89022,-0.30765 -0.39274,-0.0851 -0.85748,-0.0851 -1.03423,0 -1.61025,0.72003 -0.57602,0.72003 -0.57602,2.04226 0,1.3026 0.44511,1.98335 0.44511,0.67421 1.42696,0.67421 0.52366,0 1.06041,-0.2291 0.53674,-0.23565 1.00149,-0.60221 z"
             id="path3" /><path
             style="font-size:13.4056px;font-family:Sans;-inkscape-font-specification:'Sans, Normal'"
             d="m 18.274236,128.47419 h -3.848873 v -0.99495 h 1.276412 v -7.75665 h -1.276412 v -0.99495 h 3.848873 v 0.99495 h -1.276412 v 7.75665 h 1.276412 z m 6.041684,-8.9938 h -0.06546 q -0.202917,-0.0589 -0.530202,-0.11782 -0.327285,-0.0655 -0.576022,-0.0655 -0.79203,0 -1.152043,0.35347 -0.353468,0.34693 -0.353468,1.26332 v 0.24874 h 2.218993 v 1.03422 h -2.179719 v 6.27733 H 20.44741 v -6.27733 h -0.831305 v -1.03422 h 0.831305 v -0.24219 q 0,-1.3026 0.648024,-1.99644 0.648025,-0.70039 1.872071,-0.70039 0.41238,0 0.739665,0.0393 0.333831,0.0393 0.60875,0.0916 z m 11.075329,4.30053 q 0.314194,0.28147 0.517111,0.70694 0.202916,0.42547 0.202916,1.09968 0,0.66766 -0.242191,1.22404 -0.242191,0.55639 -0.680753,0.96877 -0.490927,0.4582 -1.158589,0.68075 -0.661116,0.21601 -1.453146,0.21601 -0.811667,0 -1.597152,-0.19637 -0.785484,-0.18983 -1.289503,-0.41893 v -1.36805 h 0.09819 q 0.556385,0.36656 1.309141,0.60875 0.752756,0.24219 1.453146,0.24219 0.412379,0 0.877124,-0.13746 0.464745,-0.13746 0.752756,-0.40583 0.301102,-0.28801 0.445108,-0.63494 0.150551,-0.34692 0.150551,-0.87712 0,-0.52366 -0.170188,-0.86403 -0.163643,-0.34693 -0.4582,-0.5433 -0.294556,-0.20291 -0.713481,-0.27492 -0.418925,-0.0785 -0.903307,-0.0785 h -0.589113 v -1.08659 h 0.458199 q 0.994947,0 1.58406,-0.41238 0.595659,-0.41893 0.595659,-1.2175 0,-0.35347 -0.150551,-0.6153 -0.150551,-0.26837 -0.418925,-0.43856 -0.281466,-0.17019 -0.602205,-0.23564 -0.320739,-0.0655 -0.726573,-0.0655 -0.621842,0 -1.322232,0.22255 -0.70039,0.22256 -1.322232,0.62839 h -0.06546 v -1.36805 q 0.464745,-0.2291 1.237138,-0.41893 0.778939,-0.19637 1.505512,-0.19637 0.713481,0 1.256774,0.13092 0.543294,0.13091 0.981856,0.41892 0.471291,0.31419 0.713482,0.7593 0.242191,0.44511 0.242191,1.04077 0,0.81167 -0.576022,1.42042 -0.569476,0.6022 -1.348415,0.7593 v 0.0916 q 0.314194,0.0524 0.720027,0.22255 0.405834,0.16364 0.687299,0.41238 z m 14.701649,-3.90124 h -3.482314 v 8.59451 h -1.296049 v -8.59451 h -3.482314 v -1.15204 h 8.260677 z m 5.963133,8.59451 h -1.230592 v -0.81167 q -0.621842,0.49093 -1.191318,0.75276 -0.569476,0.26183 -1.256775,0.26183 -1.152044,0 -1.793522,-0.70039 -0.641479,-0.70694 -0.641479,-2.06845 v -4.74563 h 1.230592 v 4.16307 q 0,0.55638 0.05237,0.95567 0.05237,0.39274 0.222554,0.67421 0.176734,0.28801 0.4582,0.41892 0.281465,0.13092 0.818212,0.13092 0.477837,0 1.040767,-0.24874 0.569476,-0.24874 1.060404,-0.63493 v -5.45912 h 1.230592 z m 8.535596,0 h -1.230592 v -4.16307 q 0,-0.50402 -0.05891,-0.94258 -0.05891,-0.44511 -0.216008,-0.69384 -0.163643,-0.27492 -0.471291,-0.40584 -0.307648,-0.13746 -0.798576,-0.13746 -0.504019,0 -1.053858,0.24874 -0.549839,0.24874 -1.053858,0.63493 v 5.45912 h -1.230592 v -7.31155 h 1.230592 v 0.81167 q 0.576022,-0.47784 1.191318,-0.74621 0.615296,-0.26838 1.263321,-0.26838 1.184772,0 1.806614,0.71349 0.621841,0.71348 0.621841,2.05535 z m 8.483231,0 h -1.230592 v -4.16307 q 0,-0.50402 -0.05891,-0.94258 -0.05891,-0.44511 -0.216009,-0.69384 -0.163642,-0.27492 -0.47129,-0.40584 -0.307648,-0.13746 -0.798576,-0.13746 -0.504019,0 -1.053858,0.24874 -0.549839,0.24874 -1.053858,0.63493 v 5.45912 h -1.230592 v -7.31155 h 1.230592 v 0.81167 q 0.576022,-0.47784 1.191318,-0.74621 0.615296,-0.26838 1.26332,-0.26838 1.184773,0 1.806614,0.71349 0.621842,0.71348 0.621842,2.05535 z m 8.489776,-3.52813 h -5.387113 q 0,0.6742 0.202917,1.17822 0.202916,0.49748 0.556384,0.81822 0.340377,0.31419 0.805122,0.47129 0.47129,0.15709 1.034221,0.15709 0.74621,0 1.498966,-0.29455 0.759301,-0.30111 1.080041,-0.58912 h 0.06546 v 1.34187 q -0.621842,0.26183 -1.269866,0.43856 -0.648025,0.17674 -1.361507,0.17674 -1.819705,0 -2.840835,-0.98186 -1.021129,-0.9884 -1.021129,-2.80156 0,-1.79352 0.975309,-2.84738 0.981856,-1.05386 2.579007,-1.05386 1.479329,0 2.277905,0.86404 0.805121,0.86403 0.805121,2.45463 z m -1.197863,-0.94258 q -0.0065,-0.96877 -0.490928,-1.49897 -0.477836,-0.5302 -1.459692,-0.5302 -0.988401,0 -1.577514,0.58256 -0.582568,0.58257 -0.661116,1.44661 z m 4.307074,4.47071 h -1.230592 v -10.18511 h 1.230592 z m 7.658468,-2.10772 q 0,1.0015 -0.831304,1.64298 -0.824759,0.64147 -2.258268,0.64147 -0.811667,0 -1.49242,-0.18982 -0.674207,-0.19637 -1.132406,-0.42547 v -1.38115 h 0.06546 q 0.582567,0.43857 1.296049,0.7004 0.713481,0.25528 1.368052,0.25528 0.811667,0 1.269866,-0.26183 0.458199,-0.26183 0.458199,-0.82476 0,-0.43202 -0.248736,-0.65457 -0.248737,-0.22255 -0.955673,-0.37965 -0.261828,-0.0589 -0.687299,-0.13746 -0.418925,-0.0785 -0.765847,-0.17019 -0.962218,-0.25528 -1.368052,-0.74621 -0.399288,-0.49747 -0.399288,-1.2175 0,-0.45165 0.18328,-0.85094 0.189825,-0.39929 0.569476,-0.71348 0.366559,-0.30765 0.92949,-0.48438 0.569476,-0.18328 1.269866,-0.18328 0.65457,0 1.322232,0.16364 0.674207,0.1571 1.119315,0.3862 v 1.31568 h -0.06546 q -0.47129,-0.34692 -1.145498,-0.58257 -0.674207,-0.24219 -1.322232,-0.24219 -0.674207,0 -1.138952,0.26183 -0.464745,0.25528 -0.464745,0.76585 0,0.45165 0.281465,0.68075 0.27492,0.2291 0.890216,0.37311 0.340376,0.0785 0.759301,0.15709 0.425471,0.0786 0.706936,0.14401 0.857487,0.19637 1.322232,0.67421 0.464745,0.48438 0.464745,1.28295 z m 12.705217,-1.54478 q 0,1.78698 -0.9164,2.8212 -0.9164,1.03422 -2.45464,1.03422 -1.55133,0 -2.467731,-1.03422 -0.909853,-1.03422 -0.909853,-2.8212 0,-1.78698 0.909853,-2.8212 0.916401,-1.04077 2.467731,-1.04077 1.53824,0 2.45464,1.04077 0.9164,1.03422 0.9164,2.8212 z m -1.26987,0 q 0,-1.42042 -0.55639,-2.10772 -0.55638,-0.69384 -1.54478,-0.69384 -1.00149,0 -1.55788,0.69384 -0.549838,0.6873 -0.549838,2.10772 0,1.3746 0.556388,2.08808 0.55638,0.70693 1.55133,0.70693 0.98185,0 1.53824,-0.70039 0.56293,-0.70693 0.56293,-2.09462 z m 12.37138,-3.65905 -1.9048,7.31155 h -1.13896 l -1.87861,-5.63585 -1.86553,5.63585 h -1.1324 l -1.92444,-7.31155 h 1.28296 l 1.34187,5.66203 1.82625,-5.66203 h 1.01458 l 1.87207,5.66203 1.26987,-5.66203 z m 7.88757,7.31155 h -1.23059 v -4.16307 q 0,-0.50402 -0.0589,-0.94258 -0.0589,-0.44511 -0.21601,-0.69384 -0.16364,-0.27492 -0.47129,-0.40584 -0.30765,-0.13746 -0.79857,-0.13746 -0.50402,0 -1.05386,0.24874 -0.54984,0.24874 -1.05386,0.63493 v 5.45912 h -1.23059 v -7.31155 h 1.23059 v 0.81167 q 0.57602,-0.47784 1.19132,-0.74621 0.61529,-0.26838 1.26332,-0.26838 1.18477,0 1.80661,0.71349 0.62184,0.71348 0.62184,2.05535 z m 8.48978,-3.52813 h -5.38711 q 0,0.6742 0.20291,1.17822 0.20292,0.49748 0.55639,0.81822 0.34037,0.31419 0.80512,0.47129 0.47129,0.15709 1.03422,0.15709 0.74621,0 1.49897,-0.29455 0.7593,-0.30111 1.08004,-0.58912 h 0.0654 v 1.34187 q -0.62184,0.26183 -1.26986,0.43856 -0.64803,0.17674 -1.36151,0.17674 -1.8197,0 -2.84083,-0.98186 -1.02113,-0.9884 -1.02113,-2.80156 0,-1.79352 0.97531,-2.84738 0.98185,-1.05386 2.579,-1.05386 1.47933,0 2.27791,0.86404 0.80512,0.86403 0.80512,2.45463 z m -1.19786,-0.94258 q -0.007,-0.96877 -0.49093,-1.49897 -0.47784,-0.5302 -1.45969,-0.5302 -0.9884,0 -1.57752,0.58256 -0.58257,0.58257 -0.66111,1.44661 z m 8.99379,4.47071 h -1.23059 v -0.76585 q -0.5302,0.4582 -1.10623,0.71348 -0.57602,0.25529 -1.25022,0.25529 -1.30915,0 -2.08154,-1.00804 -0.76585,-1.00804 -0.76585,-2.79502 0,-0.92949 0.26183,-1.65606 0.26838,-0.72657 0.72003,-1.23714 0.44511,-0.49747 1.03422,-0.7593 0.59566,-0.26183 1.23059,-0.26183 0.57602,0 1.02113,0.12437 0.44511,0.11782 0.93604,0.37311 v -3.16812 h 1.23059 z m -1.23059,-1.80007 v -4.19579 q -0.49748,-0.22256 -0.89022,-0.30765 -0.39274,-0.0851 -0.85748,-0.0851 -1.03423,0 -1.61025,0.72003 -0.57602,0.72003 -0.57602,2.04226 0,1.3026 0.44511,1.98335 0.44511,0.67421 1.42696,0.67421 0.52366,0 1.06041,-0.2291 0.53674,-0.23565 1.00149,-0.60221 z"
             id="path4" /><path
             style="font-size:13.4056px;font-family:Sans;-inkscape-font-specification:'Sans, Normal'"
             d="m 18.274236,149.92315 h -3.848873 v -0.99495 h 1.276412 v -7.75665 h -1.276412 v -0.99495 h 3.848873 v 0.99495 h -1.276412 v 7.75665 h 1.276412 z m 6.041684,-8.9938 h -0.06546 q -0.202917,-0.0589 -0.530202,-0.11782 -0.327285,-0.0655 -0.576022,-0.0655 -0.79203,0 -1.152043,0.35347 -0.353468,0.34692 -0.353468,1.26332 v 0.24874 h 2.218993 v 1.03422 h -2.179719 v 6.27733 H 20.44741 v -6.27733 h -0.831305 v -1.03422 h 0.831305 v -0.24219 q 0,-1.3026 0.648024,-1.99644 0.648025,-0.70039 1.872071,-0.70039 0.41238,0 0.739665,0.0393 0.333831,0.0393 0.60875,0.0916 z m 12.15537,6.25115 h -1.4466 v 2.74265 h -1.256775 v -2.74265 h -4.667086 v -1.50551 l 4.719451,-5.49839 h 1.20441 v 5.95659 h 1.4466 z m -2.703375,-1.04731 v -4.39871 l -3.776871,4.39871 z m 16.324983,-4.80455 h -3.482314 v 8.59451 h -1.296049 v -8.59451 h -3.482314 v -1.15204 h 8.260677 z m 5.963133,8.59451 h -1.230592 v -0.81167 q -0.621842,0.49093 -1.191318,0.75276 -0.569476,0.26183 -1.256775,0.26183 -1.152044,0 -1.793522,-0.70039 -0.641479,-0.70694 -0.641479,-2.06845 v -4.74563 h 1.230592 v 4.16307 q 0,0.55638 0.05237,0.95567 0.05237,0.39274 0.222554,0.67421 0.176734,0.28801 0.4582,0.41892 0.281465,0.13092 0.818212,0.13092 0.477837,0 1.040767,-0.24874 0.569476,-0.24874 1.060404,-0.63493 v -5.45912 h 1.230592 z m 8.535596,0 h -1.230592 v -4.16307 q 0,-0.50402 -0.05891,-0.94258 -0.05891,-0.44511 -0.216008,-0.69384 -0.163643,-0.27492 -0.471291,-0.40584 -0.307648,-0.13746 -0.798576,-0.13746 -0.504019,0 -1.053858,0.24874 -0.549839,0.24874 -1.053858,0.63493 v 5.45912 h -1.230592 v -7.31155 h 1.230592 v 0.81167 q 0.576022,-0.47784 1.191318,-0.74621 0.615296,-0.26838 1.263321,-0.26838 1.184772,0 1.806614,0.71348 0.621841,0.71349 0.621841,2.05536 z m 8.483231,0 h -1.230592 v -4.16307 q 0,-0.50402 -0.05891,-0.94258 -0.05891,-0.44511 -0.216009,-0.69384 -0.163642,-0.27492 -0.47129,-0.40584 -0.307648,-0.13746 -0.798576,-0.13746 -0.504019,0 -1.053858,0.24874 -0.549839,0.24874 -1.053858,0.63493 v 5.45912 h -1.230592 v -7.31155 h 1.230592 v 0.81167 q 0.576022,-0.47784 1.191318,-0.74621 0.615296,-0.26838 1.26332,-0.26838 1.184773,0 1.806614,0.71348 0.621842,0.71349 0.621842,2.05536 z m 8.489776,-3.52813 h -5.387113 q 0,0.6742 0.202917,1.17822 0.202916,0.49748 0.556384,0.81822 0.340377,0.31419 0.805122,0.47129 0.47129,0.15709 1.034221,0.15709 0.74621,0 1.498966,-0.29455 0.759301,-0.30111 1.080041,-0.58912 h 0.06546 v 1.34187 q -0.621842,0.26183 -1.269866,0.43856 -0.648025,0.17674 -1.361507,0.17674 -1.819705,0 -2.840835,-0.98186 -1.021129,-0.9884 -1.021129,-2.80156 0,-1.79352 0.975309,-2.84738 0.981856,-1.05386 2.579007,-1.05386 1.479329,0 2.277905,0.86404 0.805121,0.86403 0.805121,2.45463 z m -1.197863,-0.94259 q -0.0065,-0.96876 -0.490928,-1.49896 -0.477836,-0.5302 -1.459692,-0.5302 -0.988401,0 -1.577514,0.58256 -0.582568,0.58257 -0.661116,1.4466 z m 4.307074,4.47072 h -1.230592 v -10.18511 h 1.230592 z m 7.658468,-2.10772 q 0,1.0015 -0.831304,1.64298 -0.824759,0.64147 -2.258268,0.64147 -0.811667,0 -1.49242,-0.18982 -0.674207,-0.19637 -1.132406,-0.42547 v -1.38115 h 0.06546 q 0.582567,0.43857 1.296049,0.70039 0.713481,0.25529 1.368052,0.25529 0.811667,0 1.269866,-0.26183 0.458199,-0.26183 0.458199,-0.82476 0,-0.43202 -0.248736,-0.65457 -0.248737,-0.22255 -0.955673,-0.37965 -0.261828,-0.0589 -0.687299,-0.13746 -0.418925,-0.0786 -0.765847,-0.17019 -0.962218,-0.25528 -1.368052,-0.74621 -0.399288,-0.49747 -0.399288,-1.2175 0,-0.45165 0.18328,-0.85094 0.189825,-0.39929 0.569476,-0.71348 0.366559,-0.30765 0.92949,-0.48438 0.569476,-0.18328 1.269866,-0.18328 0.65457,0 1.322232,0.16364 0.674207,0.1571 1.119315,0.38619 v 1.31569 h -0.06546 q -0.47129,-0.34692 -1.145498,-0.58257 -0.674207,-0.24219 -1.322232,-0.24219 -0.674207,0 -1.138952,0.26183 -0.464745,0.25528 -0.464745,0.76585 0,0.45165 0.281465,0.68075 0.27492,0.2291 0.890216,0.37311 0.340376,0.0785 0.759301,0.15709 0.425471,0.0786 0.706936,0.14401 0.857487,0.19637 1.322232,0.67421 0.464745,0.48438 0.464745,1.28295 z m 12.705217,-1.54478 q 0,1.78697 -0.9164,2.8212 -0.9164,1.03422 -2.45464,1.03422 -1.55133,0 -2.467731,-1.03422 -0.909853,-1.03423 -0.909853,-2.8212 0,-1.78698 0.909853,-2.8212 0.916401,-1.04077 2.467731,-1.04077 1.53824,0 2.45464,1.04077 0.9164,1.03422 0.9164,2.8212 z m -1.26987,0 q 0,-1.42042 -0.55639,-2.10772 -0.55638,-0.69384 -1.54478,-0.69384 -1.00149,0 -1.55788,0.69384 -0.549838,0.6873 -0.549838,2.10772 0,1.3746 0.556388,2.08808 0.55638,0.70693 1.55133,0.70693 0.98185,0 1.53824,-0.70039 0.56293,-0.70693 0.56293,-2.09462 z m 12.37138,-3.65905 -1.9048,7.31155 h -1.13896 l -1.87861,-5.63585 -1.86553,5.63585 h -1.1324 l -1.92444,-7.31155 h 1.28296 l 1.34187,5.66203 1.82625,-5.66203 h 1.01458 l 1.87207,5.66203 1.26987,-5.66203 z m 7.88757,7.31155 h -1.23059 v -4.16307 q 0,-0.50402 -0.0589,-0.94258 -0.0589,-0.44511 -0.21601,-0.69384 -0.16364,-0.27492 -0.47129,-0.40584 -0.30765,-0.13746 -0.79857,-0.13746 -0.50402,0 -1.05386,0.24874 -0.54984,0.24874 -1.05386,0.63493 v 5.45912 h -1.23059 v -7.31155 h 1.23059 v 0.81167 q 0.57602,-0.47784 1.19132,-0.74621 0.61529,-0.26838 1.26332,-0.26838 1.18477,0 1.80661,0.71348 0.62184,0.71349 0.62184,2.05536 z m 8.48978,-3.52813 h -5.38711 q 0,0.6742 0.20291,1.17822 0.20292,0.49748 0.55639,0.81822 0.34037,0.31419 0.80512,0.47129 0.47129,0.15709 1.03422,0.15709 0.74621,0 1.49897,-0.29455 0.7593,-0.30111 1.08004,-0.58912 h 0.0654 v 1.34187 q -0.62184,0.26183 -1.26986,0.43856 -0.64803,0.17674 -1.36151,0.17674 -1.8197,0 -2.84083,-0.98186 -1.02113,-0.9884 -1.02113,-2.80156 0,-1.79352 0.97531,-2.84738 0.98185,-1.05386 2.579,-1.05386 1.47933,0 2.27791,0.86404 0.80512,0.86403 0.80512,2.45463 z m -1.19786,-0.94259 q -0.007,-0.96876 -0.49093,-1.49896 -0.47784,-0.5302 -1.45969,-0.5302 -0.9884,0 -1.57752,0.58256 -0.58257,0.58257 -0.66111,1.4466 z m 8.99379,4.47072 h -1.23059 v -0.76585 q -0.5302,0.4582 -1.10623,0.71348 -0.57602,0.25529 -1.25022,0.25529 -1.30915,0 -2.08154,-1.00804 -0.76585,-1.00804 -0.76585,-2.79502 0,-0.92949 0.26183,-1.65606 0.26838,-0.72657 0.72003,-1.23714 0.44511,-0.49747 1.03422,-0.7593 0.59566,-0.26183 1.23059,-0.26183 0.57602,0 1.02113,0.12437 0.44511,0.11782 0.93604,0.37311 v -3.16812 h 1.23059 z m -1.23059,-1.80007 v -4.19579 q -0.49748,-0.22256 -0.89022,-0.30765 -0.39274,-0.0851 -0.85748,-0.0851 -1.03423,0 -1.61025,0.72003 -0.57602,0.72003 -0.57602,2.04226 0,1.3026 0.44511,1.98335 0.44511,0.67421 1.42696,0.67421 0.52366,0 1.06041,-0.2291 0.53674,-0.23565 1.00149,-0.60221 z"
             id="path5" /></g><g
           id="text11"
           style="font-size:10.5833px;line-height:1.6;text-align:end;text-anchor:end;stroke-width:0.264583"
           aria-label="$25&#10;$50&#10;$100&#10;$200"><path
             style="font-size:13.4056px;font-family:Sans;-inkscape-font-specification:'Sans, Normal'"
             d="m 166.07247,83.538489 q 0,1.014584 -0.79203,1.688791 -0.79203,0.667662 -2.07499,0.79203 v 2.369545 h -0.77239 v -2.336816 q -0.86404,-0.0065 -1.62334,-0.163643 -0.7593,-0.163642 -1.31569,-0.418925 v -1.296049 h 0.10474 q 0.12436,0.09164 0.4451,0.268374 0.32074,0.170188 0.62185,0.281465 0.34037,0.124368 0.79203,0.235645 0.45819,0.104732 0.97531,0.124369 v -2.83429 q -0.26183,-0.05237 -0.48439,-0.09819 -0.22255,-0.05237 -0.41238,-0.104731 -1.06695,-0.268374 -1.53169,-0.805122 -0.46475,-0.543293 -0.46475,-1.335323 0,-0.968764 0.75931,-1.636426 0.76584,-0.667662 2.1339,-0.778939 v -1.780431 h 0.77239 v 1.76734 q 0.66111,0.01309 1.35496,0.157097 0.69384,0.144005 1.16513,0.333831 v 1.282957 h -0.0916 q -0.49092,-0.301102 -1.02767,-0.530201 -0.5302,-0.235646 -1.40078,-0.294557 v 2.821198 q 0.19637,0.03273 0.42547,0.09164 0.2291,0.05236 0.39929,0.08509 0.97531,0.209462 1.50551,0.720027 0.53675,0.510565 0.53675,1.394235 z m -3.63941,-2.402273 v -2.703375 q -0.70039,0.05237 -1.17823,0.386196 -0.47784,0.327285 -0.47784,0.916399 0,0.595658 0.35347,0.896761 0.35347,0.301102 1.3026,0.504019 z m 2.40227,2.572461 q 0,-0.615296 -0.3862,-0.896761 -0.37965,-0.288011 -1.24368,-0.451654 v 2.709921 q 0.78548,-0.07855 1.20441,-0.399287 0.42547,-0.32074 0.42547,-0.962219 z m 9.81855,2.317179 h -6.59807 v -1.368052 q 0.6873,-0.589113 1.3746,-1.178226 0.69385,-0.589114 1.2895,-1.171681 1.25678,-1.217501 1.72152,-1.930983 0.46475,-0.720027 0.46475,-1.551331 0,-0.759302 -0.50402,-1.184772 -0.49747,-0.432017 -1.39423,-0.432017 -0.59566,0 -1.28951,0.209463 -0.69384,0.209462 -1.35496,0.641479 h -0.0655 v -1.374598 q 0.46475,-0.2291 1.23714,-0.418925 0.77894,-0.189825 1.50551,-0.189825 1.49897,0 2.34991,0.726573 0.85094,0.720027 0.85094,1.957165 0,0.556385 -0.144,1.040767 -0.13746,0.477836 -0.41238,0.909852 -0.25528,0.405834 -0.60221,0.798576 -0.34037,0.392742 -0.8313,0.870578 -0.70039,0.687299 -1.4466,1.335324 -0.74621,0.641479 -1.39424,1.191318 h 5.24311 z m 8.44396,-3.096117 q 0,0.680753 -0.24874,1.302594 -0.24873,0.621842 -0.68075,1.047313 -0.47129,0.458199 -1.12586,0.706936 -0.64803,0.242191 -1.50551,0.242191 -0.79858,0 -1.53824,-0.170188 -0.73967,-0.163643 -1.25023,-0.399288 v -1.381144 h 0.0916 q 0.53674,0.340377 1.25677,0.582568 0.72003,0.235645 1.41387,0.235645 0.46475,0 0.89676,-0.130914 0.43857,-0.130914 0.77894,-0.458199 0.28801,-0.281465 0.43202,-0.674207 0.15055,-0.392743 0.15055,-0.909853 0,-0.504019 -0.17673,-0.850942 -0.17019,-0.346922 -0.47784,-0.556384 -0.34038,-0.248737 -0.8313,-0.346923 -0.48439,-0.104731 -1.08659,-0.104731 -0.57602,0 -1.11277,0.07855 -0.5302,0.07855 -0.9164,0.157097 v -5.020555 h 5.86495 v 1.145498 h -4.60163 v 2.592099 q 0.28147,-0.02618 0.57602,-0.03927 0.29456,-0.01309 0.51057,-0.01309 0.79203,0 1.38769,0.13746 0.59566,0.130914 1.09313,0.47129 0.52366,0.360014 0.81167,0.92949 0.28801,0.569476 0.28801,1.426964 z"
             id="path6" /><path
             style="font-size:13.4056px;font-family:Sans;-inkscape-font-specification:'Sans, Normal'"
             d="m 166.07247,104.98745 q 0,1.01458 -0.79203,1.68879 -0.79203,0.66766 -2.07499,0.79203 v 2.36954 h -0.77239 V 107.501 q -0.86404,-0.007 -1.62334,-0.16364 -0.7593,-0.16365 -1.31569,-0.41893 v -1.29605 h 0.10474 q 0.12436,0.0916 0.4451,0.26838 0.32074,0.17018 0.62185,0.28146 0.34037,0.12437 0.79203,0.23565 0.45819,0.10473 0.97531,0.12436 v -2.83428 q -0.26183,-0.0524 -0.48439,-0.0982 -0.22255,-0.0524 -0.41238,-0.10473 -1.06695,-0.26838 -1.53169,-0.80512 -0.46475,-0.5433 -0.46475,-1.33533 0,-0.96876 0.75931,-1.636422 0.76584,-0.667662 2.1339,-0.778939 v -1.780431 h 0.77239 v 1.76734 q 0.66111,0.01309 1.35496,0.157097 0.69384,0.144005 1.16513,0.33383 v 1.282955 h -0.0916 q -0.49092,-0.3011 -1.02767,-0.5302 -0.5302,-0.235644 -1.40078,-0.294555 v 2.821195 q 0.19637,0.0327 0.42547,0.0916 0.2291,0.0524 0.39929,0.0851 0.97531,0.20946 1.50551,0.72002 0.53675,0.51057 0.53675,1.39424 z m -3.63941,-2.40227 V 99.8818 q -0.70039,0.05237 -1.17823,0.3862 -0.47784,0.32728 -0.47784,0.9164 0,0.59565 0.35347,0.89676 0.35347,0.3011 1.3026,0.50402 z m 2.40227,2.57246 q 0,-0.6153 -0.3862,-0.89676 -0.37965,-0.28802 -1.24368,-0.45166 v 2.70992 q 0.78548,-0.0785 1.20441,-0.39928 0.42547,-0.32074 0.42547,-0.96222 z m 9.74,-0.77894 q 0,0.68075 -0.24873,1.30259 -0.24874,0.62184 -0.68076,1.04732 -0.47129,0.45819 -1.12586,0.70693 -0.64802,0.24219 -1.50551,0.24219 -0.79857,0 -1.53824,-0.17019 -0.73966,-0.16364 -1.25023,-0.39928 v -1.38115 h 0.0916 q 0.53675,0.34038 1.25678,0.58257 0.72002,0.23565 1.41387,0.23565 0.46474,0 0.89676,-0.13092 0.43856,-0.13091 0.77894,-0.4582 0.28801,-0.28146 0.43202,-0.6742 0.15055,-0.39275 0.15055,-0.90986 0,-0.50402 -0.17674,-0.85094 -0.17019,-0.34692 -0.47783,-0.55638 -0.34038,-0.24874 -0.83131,-0.34693 -0.48438,-0.10473 -1.08658,-0.10473 -0.57603,0 -1.11277,0.0785 -0.53021,0.0786 -0.9164,0.1571 v -5.020556 h 5.86495 v 1.145498 h -4.60163 v 2.592098 q 0.28146,-0.0262 0.57602,-0.0393 0.29456,-0.0131 0.51056,-0.0131 0.79203,0 1.38769,0.13746 0.59566,0.13092 1.09314,0.4713 0.52365,0.36001 0.81166,0.92948 0.28801,0.56948 0.28801,1.42697 z m 8.58797,-1.78043 q 0,2.62482 -0.82476,3.85542 -0.81822,1.22404 -2.54628,1.22404 -1.75425,0 -2.56592,-1.24368 -0.80512,-1.24368 -0.80512,-3.82269 0,-2.59865 0.81821,-3.835784 0.81822,-1.243683 2.55283,-1.243683 1.75425,0 2.55937,1.263321 0.81167,1.256776 0.81167,3.803056 z m -1.72152,2.97175 q 0.2291,-0.53021 0.30764,-1.24369 0.0851,-0.72002 0.0851,-1.72806 0,-0.99495 -0.0851,-1.72807 -0.0785,-0.73312 -0.31419,-1.243682 -0.2291,-0.504019 -0.62839,-0.759302 -0.39274,-0.255282 -1.01458,-0.255282 -0.6153,0 -1.02113,0.255282 -0.39929,0.255283 -0.63493,0.772393 -0.22256,0.484381 -0.30765,1.263321 -0.0786,0.77894 -0.0786,1.70843 0,1.02113 0.072,1.70843 0.072,0.6873 0.30765,1.23059 0.21601,0.51056 0.60875,0.77894 0.39929,0.26837 1.05386,0.26837 0.61529,0 1.02113,-0.25528 0.40583,-0.25528 0.62839,-0.77239 z"
             id="path7" /><path
             style="font-size:13.4056px;font-family:Sans;-inkscape-font-specification:'Sans, Normal'"
             d="m 157.54996,126.43641 q 0,1.01458 -0.79203,1.68879 -0.79203,0.66766 -2.07499,0.79203 v 2.36954 h -0.77239 v -2.33681 q -0.86403,-0.007 -1.62333,-0.16364 -0.75931,-0.16365 -1.31569,-0.41893 v -1.29605 h 0.10473 q 0.12437,0.0916 0.44511,0.26838 0.32074,0.17018 0.62184,0.28146 0.34038,0.12437 0.79203,0.23565 0.4582,0.10473 0.97531,0.12436 v -2.83429 q -0.26183,-0.0524 -0.48438,-0.0982 -0.22256,-0.0524 -0.41238,-0.10473 -1.06695,-0.26838 -1.5317,-0.80512 -0.46474,-0.5433 -0.46474,-1.33533 0,-0.96876 0.7593,-1.63642 0.76585,-0.66766 2.1339,-0.77894 v -1.78043 h 0.77239 v 1.76734 q 0.66112,0.0131 1.35496,0.15709 0.69385,0.14401 1.16514,0.33384 v 1.28295 h -0.0916 q -0.49093,-0.3011 -1.02768,-0.5302 -0.5302,-0.23564 -1.40078,-0.29456 v 2.8212 q 0.19637,0.0327 0.42547,0.0916 0.2291,0.0524 0.39929,0.0851 0.97531,0.20946 1.50551,0.72002 0.53675,0.51057 0.53675,1.39424 z m -3.63941,-2.40227 v -2.70338 q -0.70039,0.0524 -1.17823,0.3862 -0.47783,0.32728 -0.47783,0.91639 0,0.59566 0.35347,0.89677 0.35346,0.3011 1.30259,0.50402 z m 2.40227,2.57246 q 0,-0.6153 -0.38619,-0.89676 -0.37965,-0.28802 -1.24369,-0.45166 v 2.70992 q 0.78549,-0.0786 1.20441,-0.39929 0.42547,-0.32073 0.42547,-0.96221 z m 9.26217,2.31718 h -5.27583 v -0.99495 h 2.02916 v -6.53261 h -2.02916 V 120.506 q 0.41238,0 0.88367,-0.0655 0.47129,-0.072 0.71348,-0.20291 0.3011,-0.16364 0.47129,-0.41238 0.17673,-0.25528 0.20291,-0.68075 h 1.01459 v 8.78433 h 1.98989 z m 9.0658,-4.87655 q 0,2.62482 -0.82476,3.85542 -0.81821,1.22404 -2.54628,1.22404 -1.75424,0 -2.56591,-1.24368 -0.80512,-1.24368 -0.80512,-3.82269 0,-2.59865 0.81821,-3.83578 0.81821,-1.24369 2.55282,-1.24369 1.75425,0 2.55937,1.26332 0.81167,1.25678 0.81167,3.80306 z m -1.72152,2.97175 q 0.2291,-0.53021 0.30765,-1.24369 0.0851,-0.72003 0.0851,-1.72806 0,-0.99495 -0.0851,-1.72807 -0.0786,-0.73312 -0.31419,-1.24368 -0.2291,-0.50402 -0.62839,-0.7593 -0.39274,-0.25529 -1.01459,-0.25529 -0.61529,0 -1.02113,0.25529 -0.39928,0.25528 -0.63493,0.77239 -0.22255,0.48438 -0.30765,1.26332 -0.0786,0.77894 -0.0786,1.70843 0,1.02113 0.072,1.70843 0.072,0.6873 0.30765,1.23059 0.216,0.51056 0.60875,0.77894 0.39928,0.26837 1.05385,0.26837 0.6153,0 1.02113,-0.25528 0.40584,-0.25528 0.62839,-0.77239 z m 10.24403,-2.97175 q 0,2.62482 -0.82476,3.85542 -0.81822,1.22404 -2.54628,1.22404 -1.75425,0 -2.56592,-1.24368 -0.80512,-1.24368 -0.80512,-3.82269 0,-2.59865 0.81821,-3.83578 0.81822,-1.24369 2.55283,-1.24369 1.75425,0 2.55937,1.26332 0.81167,1.25678 0.81167,3.80306 z m -1.72152,2.97175 q 0.2291,-0.53021 0.30764,-1.24369 0.0851,-0.72003 0.0851,-1.72806 0,-0.99495 -0.0851,-1.72807 -0.0785,-0.73312 -0.31419,-1.24368 -0.2291,-0.50402 -0.62839,-0.7593 -0.39274,-0.25529 -1.01458,-0.25529 -0.6153,0 -1.02113,0.25529 -0.39929,0.25528 -0.63493,0.77239 -0.22256,0.48438 -0.30765,1.26332 -0.0786,0.77894 -0.0786,1.70843 0,1.02113 0.072,1.70843 0.072,0.6873 0.30765,1.23059 0.21601,0.51056 0.60875,0.77894 0.39929,0.26837 1.05386,0.26837 0.61529,0 1.02113,-0.25528 0.40583,-0.25528 0.62839,-0.77239 z"
             id="path8" /><path
             style="font-size:13.4056px;font-family:Sans;-inkscape-font-specification:'Sans, Normal'"
             d="m 157.54996,147.88537 q 0,1.01458 -0.79203,1.68879 -0.79203,0.66766 -2.07499,0.79203 v 2.36954 h -0.77239 v -2.33681 q -0.86403,-0.007 -1.62333,-0.16364 -0.75931,-0.16365 -1.31569,-0.41893 v -1.29605 h 0.10473 q 0.12437,0.0916 0.44511,0.26837 0.32074,0.17019 0.62184,0.28147 0.34038,0.12437 0.79203,0.23565 0.4582,0.10473 0.97531,0.12436 v -2.83429 q -0.26183,-0.0524 -0.48438,-0.0982 -0.22256,-0.0524 -0.41238,-0.10473 -1.06695,-0.26838 -1.5317,-0.80512 -0.46474,-0.5433 -0.46474,-1.33533 0,-0.96876 0.7593,-1.63642 0.76585,-0.66766 2.1339,-0.77894 v -1.78043 h 0.77239 v 1.76734 q 0.66112,0.0131 1.35496,0.15709 0.69385,0.14401 1.16514,0.33383 v 1.28296 h -0.0916 q -0.49093,-0.3011 -1.02768,-0.5302 -0.5302,-0.23564 -1.40078,-0.29456 v 2.8212 q 0.19637,0.0327 0.42547,0.0916 0.2291,0.0524 0.39929,0.0851 0.97531,0.20946 1.50551,0.72002 0.53675,0.51057 0.53675,1.39424 z m -3.63941,-2.40228 v -2.70337 q -0.70039,0.0524 -1.17823,0.3862 -0.47783,0.32728 -0.47783,0.91639 0,0.59566 0.35347,0.89677 0.35346,0.3011 1.30259,0.50401 z m 2.40227,2.57247 q 0,-0.6153 -0.38619,-0.89677 -0.37965,-0.28801 -1.24369,-0.45165 v 2.70992 q 0.78549,-0.0785 1.20441,-0.39929 0.42547,-0.32073 0.42547,-0.96221 z m 9.81856,2.31718 h -6.59807 v -1.36806 q 0.6873,-0.58911 1.3746,-1.17822 0.69384,-0.58912 1.2895,-1.17168 1.25677,-1.2175 1.72152,-1.93099 0.46474,-0.72002 0.46474,-1.55133 0,-0.7593 -0.50401,-1.18477 -0.49748,-0.43202 -1.39424,-0.43202 -0.59566,0 -1.2895,0.20947 -0.69385,0.20946 -1.35496,0.64147 h -0.0655 v -1.37459 q 0.46474,-0.2291 1.23714,-0.41893 0.77894,-0.18982 1.50551,-0.18982 1.49897,0 2.34991,0.72657 0.85094,0.72003 0.85094,1.95716 0,0.55639 -0.14401,1.04077 -0.13746,0.47784 -0.41238,0.90985 -0.25528,0.40584 -0.6022,0.79858 -0.34038,0.39274 -0.83131,0.87058 -0.70039,0.6873 -1.4466,1.33532 -0.74621,0.64148 -1.39423,1.19132 h 5.24311 z m 8.50941,-4.87655 q 0,2.62482 -0.82476,3.85542 -0.81821,1.22404 -2.54628,1.22404 -1.75424,0 -2.56591,-1.24368 -0.80512,-1.24369 -0.80512,-3.82269 0,-2.59865 0.81821,-3.83578 0.81821,-1.24369 2.55282,-1.24369 1.75425,0 2.55937,1.26332 0.81167,1.25678 0.81167,3.80306 z m -1.72152,2.97175 q 0.2291,-0.53021 0.30765,-1.24369 0.0851,-0.72003 0.0851,-1.72806 0,-0.99495 -0.0851,-1.72807 -0.0786,-0.73312 -0.31419,-1.24368 -0.2291,-0.50402 -0.62839,-0.7593 -0.39274,-0.25529 -1.01459,-0.25529 -0.61529,0 -1.02113,0.25529 -0.39928,0.25528 -0.63493,0.77239 -0.22255,0.48438 -0.30765,1.26332 -0.0786,0.77894 -0.0786,1.70843 0,1.02113 0.072,1.70843 0.072,0.6873 0.30765,1.23059 0.216,0.51056 0.60875,0.77894 0.39928,0.26837 1.05385,0.26837 0.6153,0 1.02113,-0.25528 0.40584,-0.25528 0.62839,-0.77239 z m 10.24403,-2.97175 q 0,2.62482 -0.82476,3.85542 -0.81822,1.22404 -2.54628,1.22404 -1.75425,0 -2.56592,-1.24368 -0.80512,-1.24369 -0.80512,-3.82269 0,-2.59865 0.81821,-3.83578 0.81822,-1.24369 2.55283,-1.24369 1.75425,0 2.55937,1.26332 0.81167,1.25678 0.81167,3.80306 z m -1.72152,2.97175 q 0.2291,-0.53021 0.30764,-1.24369 0.0851,-0.72003 0.0851,-1.72806 0,-0.99495 -0.0851,-1.72807 -0.0785,-0.73312 -0.31419,-1.24368 -0.2291,-0.50402 -0.62839,-0.7593 -0.39274,-0.25529 -1.01458,-0.25529 -0.6153,0 -1.02113,0.25529 -0.39929,0.25528 -0.63493,0.77239 -0.22256,0.48438 -0.30765,1.26332 -0.0786,0.77894 -0.0786,1.70843 0,1.02113 0.072,1.70843 0.072,0.6873 0.30765,1.23059 0.21601,0.51056 0.60875,0.77894 0.39929,0.26837 1.05386,0.26837 0.61529,0 1.02113,-0.25528 0.40583,-0.25528 0.62839,-0.77239 z"
             id="path9" /></g></g></g><g
       id="g1"
       transform="translate(0,5.2916669)"><path
         style="fill:none;stroke:#000000;stroke-width:0.8;stroke-linecap:butt;stroke-linejoin:miter;stroke-dasharray:none;stroke-opacity:1"
         d="M 15.839519,108.9797 H 184.16048"
         id="path23" /><text
         xml:space="preserve"
         style="font-style:normal;font-weight:normal;font-size:14.1111px;font-family:sans-serif;fill:#000000;fill-opacity:1;stroke:none;stroke-width:0.245591"
         x="106.64785"
         y="93.813286"
         id="text50"
         transform="scale(0.92822077,1.0773299)"><tspan
           sodipodi:role="line"
           id="tspan50"
           style="font-weight:bold;font-size:14.1111px;text-align:center;text-anchor:middle;stroke-width:0.245591"
           x="106.64785"
           y="93.813286">HARBISON TUNNEL</tspan></text><path
         style="fill:none;stroke:#000000;stroke-width:0.8;stroke-linecap:butt;stroke-linejoin:miter;stroke-dasharray:none;stroke-opacity:1"
         d="M 15.839519,80.933801 H 184.16048"
         id="path1" /></g><g
       style="clip-rule:evenodd;fill-rule:evenodd;image-rendering:optimizeQuality;shape-rendering:geometricPrecision;text-rendering:geometricPrecision"
       id="g7"
       transform="matrix(0.10666885,0,0,0.10666885,80.906276,26.638543)"><path
         d="m 358,178.8 v 161.92 c 0,4.26 -3.46,7.72 -7.72,7.72 h -58.96 c -4.25,0 -7.71,-3.46 -7.71,-7.72 V 180.87 c 0,-31.61 -11.58,-56.19 -29.14,-73.43 l -0.59,-0.57 a 7.845,7.845 0 0 1 -2.55,-1.89 c -0.37,-0.42 -0.69,-0.87 -0.96,-1.34 -19.6,-17.18 -45.5,-26.2 -71.04,-26.72 L 179,76.93 178.39,76.91 177.61,76.9 177,76.93 c -26.14,0 -52.81,8.88 -72.94,26.25 -20.02,17.28 -33.62,43.08 -33.78,77.04 l 0.02,160.5 c 0,4.26 -3.45,7.72 -7.71,7.72 H 7.72 C 3.46,348.44 0,344.98 0,340.72 V 178.8 l 0.03,-1.12 C 0.33,119.4 22.84,74.98 56.46,45.08 90,15.25 134.56,0 179.05,0 l 0.15,0.01 h 0.21 L 180,0.03 C 227.47,0.27 274.87,17.86 308.82,51.96 338.6,81.88 358,124.37 358,178.8 Z M 39.55,511.55 91.06,312.51 V 186.19 c 0,-48.37 39.57,-87.94 87.94,-87.94 48.37,0 87.95,39.57 87.95,87.94 V 302.28 L 319.9,511.55 H 293.93 L 250.2,318.68 h -8.06 l 30.87,192.87 H 87.66 l 29.8,-192.87 h -8.15 L 66.32,511.55 Z M 64.25,58.83 97.62,88.55 c 21.02,-16.7 47.43,-25.78 73.67,-26.93 V 15.57 c -38.25,1.68 -75.9,15.51 -104.58,41.02 -0.83,0.74 -1.65,1.49 -2.46,2.24 z M 86.16,98.98 53.51,69.91 C 30.39,96.4 15.63,132.45 15.4,177.71 l 0.03,155.3 h 39.44 c 0,-50.94 -0.19,-101.94 0.04,-152.85 0.17,-34.36 12.45,-61.53 31.25,-81.18 z M 186.72,15.57 v 46.32 c 25.3,1.89 50.49,11.14 70.58,27.46 L 292.7,57.83 C 263.83,31.49 225.57,17.22 186.72,15.57 Z m 116.83,53.24 -34.93,31.1 c 18.46,19.74 30.42,46.85 30.42,80.96 v 152.14 h 43.53 V 178.8 c 0,-46.43 -15.19,-83.22 -39.02,-109.99 z M 173.21,309.75 h 13.33 l 1.29,32.25 h -16.57 l 1.41,-23.32 z m -3.37,61.55 h 19.57 l 2.04,45.72 h -23.81 z m -4.25,74.82 h 27.4 l 2.71,41.68 h -32.31 z"
         id="path1-5" /></g></g></svg>
