<?xml version="1.0" encoding="UTF-8" standalone="no"?>
<!-- Created with Inkscape (http://www.inkscape.org/) -->

<svg
   width="200mm"
   height="300mm"
   viewBox="0 0 200 300"
   version="1.1"
   id="svg1"
   inkscape:version="1.3 (0e150ed6c4, 2023-07-21)"
   sodipodi:docname="b4.svg"
   xml:space="preserve"
   xmlns:inkscape="http://www.inkscape.org/namespaces/inkscape"
   xmlns:sodipodi="http://sodipodi.sourceforge.net/DTD/sodipodi-0.dtd"
   xmlns="http://www.w3.org/2000/svg"
   xmlns:svg="http://www.w3.org/2000/svg"><sodipodi:namedview
     id="namedview1"
     pagecolor="#ffffff"
     bordercolor="#666666"
     borderopacity="1.0"
     inkscape:showpageshadow="2"
     inkscape:pageopacity="0.0"
     inkscape:pagecheckerboard="0"
     inkscape:deskcolor="#d1d1d1"
     inkscape:document-units="mm"
     inkscape:zoom="0.59465221"
     inkscape:cx="438.91202"
     inkscape:cy="738.24665"
     inkscape:window-width="1408"
     inkscape:window-height="1481"
     inkscape:window-x="970"
     inkscape:window-y="0"
     inkscape:window-maximized="0"
     inkscape:current-layer="layer1" /><defs
     id="defs1"><rect
       x="640.71064"
       y="884.55065"
       width="91.574897"
       height="223.40157"
       id="rect3" /><linearGradient
       id="swatch1"
       inkscape:swatch="solid"><stop
         style="stop-color:#ffff00;stop-opacity:1;"
         offset="0"
         id="stop1" /></linearGradient></defs><g
     inkscape:label="Layer 1"
     inkscape:groupmode="layer"
     id="layer1"><rect
       style="fill:#ffffff;stroke:#1a1a1a;stroke-width:0.799999;paint-order:markers fill stroke"
       id="rect2"
       width="200"
       height="300"
       x="0"
       y="0" /><rect
       style="fill:none;stroke:#1a1a1a;stroke-width:1.2;stroke-dasharray:none;paint-order:stroke fill markers"
       id="rect1"
       width="187.50111"
       height="286.29135"
       x="6.2494426"
       y="6.8543248" /><g
       id="g17"
       transform="translate(0.95125078,85.09581)"><g
         id="g6"><text
           xml:space="preserve"
           style="font-style:normal;font-weight:normal;font-size:10.5833px;line-height:1.6;font-family:sans-serif;fill:#000000;fill-opacity:1;stroke:none;stroke-width:0.264583"
           x="13.528602"
           y="85.576271"
           id="text1"><tspan
             sodipodi:role="line"
             id="tspan38"
             x="13.528602"
             y="85.576271"
             style="font-style:normal;font-variant:normal;font-weight:normal;font-stretch:normal;font-size:13.4056px;line-height:1.6;font-family:Sans;-inkscape-font-specification:'Sans, Normal';font-variant-ligatures:normal;font-variant-caps:normal;font-variant-numeric:normal;font-variant-east-asian:normal">Rent</tspan><tspan
             sodipodi:role="line"
             id="tspan39"
             x="13.528602"
             y="107.02523"
             style="font-style:normal;font-variant:normal;font-weight:normal;font-stretch:normal;font-size:13.4056px;line-height:1.6;font-family:Sans;-inkscape-font-specification:'Sans, Normal';font-variant-ligatures:normal;font-variant-caps:normal;font-variant-numeric:normal;font-variant-east-asian:normal">If 2 Tunnels owned</tspan><tspan
             sodipodi:role="line"
             id="tspan40"
             x="13.528602"
             y="128.4742"
             style="font-style:normal;font-variant:normal;font-weight:normal;font-stretch:normal;font-size:13.4056px;line-height:1.6;font-family:Sans;-inkscape-font-specification:'Sans, Normal';font-variant-ligatures:normal;font-variant-caps:normal;font-variant-numeric:normal;font-variant-east-asian:normal">If 3 Tunnels owned</tspan><tspan
             sodipodi:role="line"
             id="tspan44"
             x="13.528602"
             y="149.92316"
             style="font-style:normal;font-variant:normal;font-weight:normal;font-stretch:normal;font-size:13.4056px;line-height:1.6;font-family:Sans;-inkscape-font-specification:'Sans, Normal';font-variant-ligatures:normal;font-variant-caps:normal;font-variant-numeric:normal;font-variant-east-asian:normal">If 4 Tunnels owned</tspan></text><text
           xml:space="preserve"
           style="font-style:normal;font-weight:normal;font-size:10.5833px;line-height:1.6;font-family:sans-serif;text-align:end;text-anchor:end;fill:#000000;fill-opacity:1;stroke:none;stroke-width:0.264583"
           x="184.04697"
           y="86.025856"
           id="text11"><tspan
             sodipodi:role="line"
             id="tspan11"
             style="font-style:normal;font-variant:normal;font-weight:normal;font-stretch:normal;font-size:13.4056px;line-height:1.6;font-family:Sans;-inkscape-font-specification:'Sans, Normal';font-variant-ligatures:normal;font-variant-caps:normal;font-variant-numeric:normal;font-variant-east-asian:normal;text-align:end;text-anchor:end;stroke-width:0.264583"
             x="184.04697"
             y="86.025856">$25</tspan><tspan
             sodipodi:role="line"
             style="font-style:normal;font-variant:normal;font-weight:normal;font-stretch:normal;font-size:13.4056px;line-height:1.6;font-family:Sans;-inkscape-font-specification:'Sans, Normal';font-variant-ligatures:normal;font-variant-caps:normal;font-variant-numeric:normal;font-variant-east-asian:normal;text-align:end;text-anchor:end;stroke-width:0.264583"
             x="184.04697"
             y="107.47482"
             id="tspan12">$50</tspan><tspan
             sodipodi:role="line"
             style="font-style:normal;font-variant:normal;font-weight:normal;font-stretch:normal;font-size:13.4056px;line-height:1.6;font-family:Sans;-inkscape-font-specification:'Sans, Normal';font-variant-ligatures:normal;font-variant-caps:normal;font-variant-numeric:normal;font-variant-east-asian:normal;text-align:end;text-anchor:end;stroke-width:0.264583"
             x="184.04697"
             y="128.92378"
             id="tspan13">$100</tspan><tspan
             sodipodi:role="line"
             style="font-style:normal;font-variant:normal;font-weight:normal;font-stretch:normal;font-size:13.4056px;line-height:1.6;font-family:Sans;-inkscape-font-specification:'Sans, Normal';font-variant-ligatures:normal;font-variant-caps:normal;font-variant-numeric:normal;font-variant-east-asian:normal;text-align:end;text-anchor:end;stroke-width:0.264583"
             x="184.04697"
             y="150.37274"
             id="tspan17">$200</tspan></text></g></g><g
       id="g1"
       transform="translate(0,5.2916669)"><path
         style="fill:none;stroke:#000000;stroke-width:0.8;stroke-linecap:butt;stroke-linejoin:miter;stroke-dasharray:none;stroke-opacity:1"
         d="M 15.839519,108.9797 H 184.16048"
         id="path23" /><text
         xml:space="preserve"
         style="font-style:normal;font-weight:normal;font-size:14.1111px;font-family:sans-serif;fill:#000000;fill-opacity:1;stroke:none;stroke-width:0.245591"
         x="106.64785"
         y="93.813286"
         id="text50"
         transform="scale(0.92822077,1.0773299)"><tspan
           sodipodi:role="line"
           id="tspan50"
           style="font-weight:bold;font-size:14.1111px;text-align:center;text-anchor:middle;stroke-width:0.245591"
           x="106.64785"
           y="93.813286">TUNNEL TEMPLATE</tspan></text><path
         style="fill:none;stroke:#000000;stroke-width:0.8;stroke-linecap:butt;stroke-linejoin:miter;stroke-dasharray:none;stroke-opacity:1"
         d="M 15.839519,80.933801 H 184.16048"
         id="path1" /></g><g
       style="clip-rule:evenodd;fill-rule:evenodd;image-rendering:optimizeQuality;shape-rendering:geometricPrecision;text-rendering:geometricPrecision"
       id="g7"
       transform="matrix(0.10666885,0,0,0.10666885,80.906276,26.638543)"><path
         d="m 358,178.8 v 161.92 c 0,4.26 -3.46,7.72 -7.72,7.72 h -58.96 c -4.25,0 -7.71,-3.46 -7.71,-7.72 V 180.87 c 0,-31.61 -11.58,-56.19 -29.14,-73.43 l -0.59,-0.57 a 7.845,7.845 0 0 1 -2.55,-1.89 c -0.37,-0.42 -0.69,-0.87 -0.96,-1.34 -19.6,-17.18 -45.5,-26.2 -71.04,-26.72 L 179,76.93 178.39,76.91 177.61,76.9 177,76.93 c -26.14,0 -52.81,8.88 -72.94,26.25 -20.02,17.28 -33.62,43.08 -33.78,77.04 l 0.02,160.5 c 0,4.26 -3.45,7.72 -7.71,7.72 H 7.72 C 3.46,348.44 0,344.98 0,340.72 V 178.8 l 0.03,-1.12 C 0.33,119.4 22.84,74.98 56.46,45.08 90,15.25 134.56,0 179.05,0 l 0.15,0.01 h 0.21 L 180,0.03 C 227.47,0.27 274.87,17.86 308.82,51.96 338.6,81.88 358,124.37 358,178.8 Z M 39.55,511.55 91.06,312.51 V 186.19 c 0,-48.37 39.57,-87.94 87.94,-87.94 48.37,0 87.95,39.57 87.95,87.94 V 302.28 L 319.9,511.55 H 293.93 L 250.2,318.68 h -8.06 l 30.87,192.87 H 87.66 l 29.8,-192.87 h -8.15 L 66.32,511.55 Z M 64.25,58.83 97.62,88.55 c 21.02,-16.7 47.43,-25.78 73.67,-26.93 V 15.57 c -38.25,1.68 -75.9,15.51 -104.58,41.02 -0.83,0.74 -1.65,1.49 -2.46,2.24 z M 86.16,98.98 53.51,69.91 C 30.39,96.4 15.63,132.45 15.4,177.71 l 0.03,155.3 h 39.44 c 0,-50.94 -0.19,-101.94 0.04,-152.85 0.17,-34.36 12.45,-61.53 31.25,-81.18 z M 186.72,15.57 v 46.32 c 25.3,1.89 50.49,11.14 70.58,27.46 L 292.7,57.83 C 263.83,31.49 225.57,17.22 186.72,15.57 Z m 116.83,53.24 -34.93,31.1 c 18.46,19.74 30.42,46.85 30.42,80.96 v 152.14 h 43.53 V 178.8 c 0,-46.43 -15.19,-83.22 -39.02,-109.99 z M 173.21,309.75 h 13.33 l 1.29,32.25 h -16.57 l 1.41,-23.32 z m -3.37,61.55 h 19.57 l 2.04,45.72 h -23.81 z m -4.25,74.82 h 27.4 l 2.71,41.68 h -32.31 z"
         id="path1-5" /></g></g></svg>
