<?xml version="1.0" encoding="UTF-8" standalone="no"?>
<!-- Created with Inkscape (http://www.inkscape.org/) -->

<svg
   width="200mm"
   height="300mm"
   viewBox="0 0 200 300"
   version="1.1"
   id="svg1"
   inkscape:version="1.3 (0e150ed6c4, 2023-07-21)"
   sodipodi:docname="t7.svg"
   xml:space="preserve"
   xmlns:inkscape="http://www.inkscape.org/namespaces/inkscape"
   xmlns:sodipodi="http://sodipodi.sourceforge.net/DTD/sodipodi-0.dtd"
   xmlns="http://www.w3.org/2000/svg"
   xmlns:svg="http://www.w3.org/2000/svg"><sodipodi:namedview
     id="namedview1"
     pagecolor="#ffffff"
     bordercolor="#666666"
     borderopacity="1.0"
     inkscape:showpageshadow="2"
     inkscape:pageopacity="0.0"
     inkscape:pagecheckerboard="0"
     inkscape:deskcolor="#d1d1d1"
     inkscape:document-units="mm"
     inkscape:zoom="0.59465221"
     inkscape:cx="311.94705"
     inkscape:cy="839.14596"
     inkscape:window-width="1408"
     inkscape:window-height="1481"
     inkscape:window-x="970"
     inkscape:window-y="0"
     inkscape:window-maximized="0"
     inkscape:current-layer="g1" /><defs
     id="defs1"><rect
       x="640.71064"
       y="884.55065"
       width="91.574897"
       height="223.40157"
       id="rect3" /><linearGradient
       id="swatch1"
       inkscape:swatch="solid"><stop
         style="stop-color:#ffff00;stop-opacity:1;"
         offset="0"
         id="stop1" /></linearGradient><style
       id="style1">.cls-1{fill-rule:evenodd;}</style></defs><g
     inkscape:label="Layer 1"
     inkscape:groupmode="layer"
     id="layer1"><rect
       style="fill:#ffffff;stroke:#1a1a1a;stroke-width:0.799999;paint-order:markers fill stroke"
       id="rect2"
       width="200"
       height="300"
       x="0"
       y="0" /><rect
       style="fill:none;stroke:#1a1a1a;stroke-width:1.2;stroke-dasharray:none;paint-order:stroke fill markers"
       id="rect1"
       width="187.50111"
       height="286.29135"
       x="6.2494426"
       y="6.8543248" /><g
       id="g17"
       transform="translate(0.95125078,85.09581)"><g
         id="g6"
         transform="translate(0,-9.5254355)"><g
           id="text1"
           style="font-size:10.5833px;line-height:1.6;stroke-width:0.264583"
           aria-label="   If one Campus Service&#10;is owned, rent is 4 times&#10;amount shown on dice.&#10;   If both Campus &#10;Services are owned, rent &#10;is 10 times amount&#10;shown on dice."><path
             style="font-size:13.4056px;font-family:Sans;-inkscape-font-specification:'Sans, Normal'"
             d="m 31.474183,67.601196 h -3.848874 v -0.994947 h 1.276412 v -7.756658 h -1.276412 v -0.994946 h 3.848874 v 0.994946 h -1.276412 v 7.756658 h 1.276412 z M 37.515866,58.6074 h -0.06546 q -0.202917,-0.05891 -0.530202,-0.117822 -0.327286,-0.06546 -0.576022,-0.06546 -0.79203,0 -1.152044,0.353468 -0.353468,0.346922 -0.353468,1.26332 v 0.248737 h 2.218993 v 1.034221 h -2.179719 v 6.277329 h -1.230592 v -6.277329 h -0.831304 v -1.034221 h 0.831304 v -0.242191 q 0,-1.302595 0.648025,-1.996439 0.648024,-0.70039 1.872071,-0.70039 0.412379,0 0.739664,0.03927 0.333831,0.03927 0.608751,0.09164 z m 11.723353,5.341294 q 0,1.786977 -0.916398,2.821198 -0.916399,1.034221 -2.454639,1.034221 -1.551332,0 -2.46773,-1.034221 -0.909853,-1.034221 -0.909853,-2.821198 0,-1.786977 0.909853,-2.821198 0.916398,-1.040767 2.46773,-1.040767 1.53824,0 2.454639,1.040767 0.916398,1.034221 0.916398,2.821198 z m -1.269866,0 q 0,-1.420417 -0.556385,-2.107716 -0.556385,-0.693845 -1.544786,-0.693845 -1.001492,0 -1.557877,0.693845 -0.549839,0.687299 -0.549839,2.107716 0,1.374598 0.556384,2.088079 0.556385,0.706936 1.551332,0.706936 0.981855,0 1.53824,-0.70039 0.562931,-0.706936 0.562931,-2.094625 z m 9.288354,3.652502 h -1.230592 v -4.163067 q 0,-0.504019 -0.05891,-0.942581 -0.05891,-0.445108 -0.216009,-0.693845 -0.163642,-0.274919 -0.47129,-0.405833 -0.307648,-0.13746 -0.798576,-0.13746 -0.504019,0 -1.053858,0.248737 -0.549839,0.248737 -1.053858,0.634933 v 5.459116 H 51.14402 v -7.31155 h 1.230593 v 0.811667 q 0.576021,-0.477836 1.191318,-0.74621 0.615296,-0.268374 1.26332,-0.268374 1.184772,0 1.806614,0.713482 0.621842,0.713482 0.621842,2.055351 z m 8.489776,-3.528134 H 60.36037 q 0,0.674208 0.202917,1.178227 0.202916,0.497473 0.556384,0.818213 0.340377,0.314194 0.805122,0.47129 0.47129,0.157097 1.034221,0.157097 0.74621,0 1.498966,-0.294556 0.759301,-0.301103 1.080041,-0.589114 h 0.06546 v 1.341869 q -0.621842,0.261829 -1.269867,0.438563 -0.648024,0.176734 -1.361506,0.176734 -1.819705,0 -2.840835,-0.981856 -1.021129,-0.988401 -1.021129,-2.801561 0,-1.793522 0.975309,-2.84738 0.981856,-1.053859 2.579007,-1.053859 1.479329,0 2.277905,0.864033 0.805121,0.864033 0.805121,2.454639 z M 64.54962,63.130481 q -0.0065,-0.968764 -0.490928,-1.498966 -0.477836,-0.530202 -1.459692,-0.530202 -0.988401,0 -1.577514,0.582568 -0.582568,0.582567 -0.661116,1.4466 z m 15.402037,3.763779 q -0.360014,0.157097 -0.654571,0.294557 -0.28801,0.13746 -0.759301,0.288011 -0.399288,0.124368 -0.870579,0.209462 -0.464744,0.09164 -1.027675,0.09164 -1.060404,0 -1.930982,-0.294556 -0.864033,-0.301103 -1.505512,-0.936036 -0.628387,-0.621842 -0.981855,-1.577514 -0.353468,-0.962219 -0.353468,-2.232085 0,-1.204409 0.340376,-2.153536 0.340377,-0.949127 0.981856,-1.603697 0.621841,-0.634934 1.498966,-0.968764 0.88367,-0.333831 1.957165,-0.333831 0.785484,0 1.564423,0.189825 0.785484,0.189825 1.741157,0.667662 v 1.53824 h -0.09819 q -0.805121,-0.674207 -1.597151,-0.981856 -0.79203,-0.307648 -1.695337,-0.307648 -0.739665,0 -1.335324,0.242191 -0.589113,0.235646 -1.053858,0.739665 -0.451653,0.490928 -0.706936,1.243683 -0.248737,0.746211 -0.248737,1.728066 0,1.027675 0.27492,1.76734 0.281465,0.739664 0.720027,1.204409 0.458199,0.484382 1.06695,0.720027 0.615296,0.2291 1.296049,0.2291 0.936036,0 1.754248,-0.320739 0.818213,-0.32074 1.531695,-0.962219 h 0.09164 z m 7.416281,0.706936 h -1.224046 v -0.778938 q -0.163643,0.111277 -0.445108,0.314193 -0.274919,0.196371 -0.536748,0.314194 -0.307648,0.150551 -0.706935,0.248737 -0.399288,0.104731 -0.936036,0.104731 -0.988401,0 -1.6757,-0.65457 -0.687299,-0.654571 -0.687299,-1.669154 0,-0.831305 0.353468,-1.34187 0.360014,-0.51711 1.02113,-0.811667 0.667662,-0.294556 1.603697,-0.399288 0.936036,-0.104731 2.009531,-0.157096 v -0.189826 q 0,-0.418925 -0.150551,-0.693844 -0.144006,-0.27492 -0.418925,-0.432017 -0.261828,-0.150551 -0.628388,-0.202917 -0.366559,-0.05236 -0.765847,-0.05236 -0.484382,0 -1.080041,0.130914 -0.595659,0.124368 -1.230592,0.366559 h -0.06546 v -1.250229 q 0.360014,-0.09819 1.040767,-0.216008 0.680753,-0.117823 1.341869,-0.117823 0.772393,0 1.341869,0.130914 0.576022,0.124369 0.994947,0.432017 0.412379,0.301102 0.628387,0.778938 0.216008,0.477837 0.216008,1.184772 z m -1.224046,-1.800068 v -2.035714 q -0.562931,0.03273 -1.328778,0.09819 -0.759301,0.06546 -1.204409,0.189825 -0.530202,0.150551 -0.857487,0.471291 -0.327285,0.314194 -0.327285,0.870578 0,0.628388 0.37965,0.949127 0.379651,0.314194 1.15859,0.314194 0.648024,0 1.184772,-0.248737 0.536748,-0.255282 0.994947,-0.60875 z m 14.263088,1.800068 h -1.230592 v -4.163067 q 0,-0.47129 -0.04582,-0.909852 -0.03927,-0.438563 -0.176734,-0.700391 -0.150551,-0.281465 -0.432016,-0.42547 -0.281466,-0.144006 -0.811667,-0.144006 -0.517111,0 -1.034222,0.261828 -0.51711,0.255283 -1.034221,0.654571 0.01964,0.150551 0.03273,0.353468 0.01309,0.196371 0.01309,0.392742 v 4.680177 h -1.230592 v -4.163067 q 0,-0.484382 -0.04582,-0.916398 -0.03927,-0.438562 -0.176734,-0.70039 -0.150551,-0.281466 -0.432016,-0.418925 -0.281465,-0.144006 -0.811667,-0.144006 -0.504019,0 -1.014584,0.248737 -0.504019,0.248737 -1.008038,0.634933 v 5.459116 h -1.230593 v -7.31155 h 1.230593 v 0.811667 q 0.576021,-0.477836 1.145498,-0.74621 0.576021,-0.268374 1.224046,-0.268374 0.74621,0 1.263321,0.314194 0.523656,0.314194 0.778938,0.870579 0.74621,-0.628388 1.361506,-0.903307 0.615297,-0.281466 1.315687,-0.281466 1.204409,0 1.773885,0.733119 0.576022,0.726573 0.576022,2.035714 z m 8.80397,-3.744142 q 0,0.890216 -0.25528,1.62988 -0.25528,0.733119 -0.72003,1.243684 -0.43202,0.484382 -1.02113,0.752756 -0.58257,0.261828 -1.23714,0.261828 -0.56947,0 -1.03422,-0.124369 -0.4582,-0.124368 -0.93603,-0.386196 v 3.063389 h -1.2306 v -10.00838 h 1.2306 v 0.765847 q 0.49092,-0.412379 1.09967,-0.687298 0.6153,-0.281466 1.30914,-0.281466 1.32224,0 2.05536,1.001493 0.73966,0.994947 0.73966,2.768832 z m -1.26987,0.03273 q 0,-1.322232 -0.45165,-1.976803 -0.45165,-0.65457 -1.38769,-0.65457 -0.5302,0 -1.06695,0.2291 -0.53675,0.229099 -1.02767,0.602204 v 4.14343 q 0.52365,0.235646 0.89676,0.32074 0.37965,0.08509 0.85748,0.08509 1.02768,0 1.6037,-0.693845 0.57602,-0.693844 0.57602,-2.05535 z m 9.24908,3.711413 h -1.23059 v -0.811667 q -0.62184,0.490928 -1.19132,0.752756 -0.56947,0.261828 -1.25677,0.261828 -1.15205,0 -1.79352,-0.70039 -0.64148,-0.706936 -0.64148,-2.068442 v -4.745635 h 1.23059 v 4.163067 q 0,0.556385 0.0524,0.955673 0.0524,0.392742 0.22256,0.674207 0.17673,0.288011 0.4582,0.418925 0.28146,0.130914 0.81821,0.130914 0.47784,0 1.04077,-0.248736 0.56947,-0.248737 1.0604,-0.634934 v -5.459116 h 1.23059 z m 7.64538,-2.107716 q 0,1.001492 -0.8313,1.642971 -0.82476,0.641479 -2.25827,0.641479 -0.81167,0 -1.49242,-0.189825 -0.67421,-0.196371 -1.13241,-0.425471 v -1.381143 h 0.0655 q 0.58257,0.438562 1.29605,0.70039 0.71348,0.255283 1.36805,0.255283 0.81167,0 1.26987,-0.261829 0.4582,-0.261828 0.4582,-0.824758 0,-0.432017 -0.24874,-0.65457 -0.24874,-0.222554 -0.95567,-0.379651 -0.26183,-0.05891 -0.6873,-0.13746 -0.41892,-0.07855 -0.76585,-0.170188 -0.96222,-0.255283 -1.36805,-0.74621 -0.39929,-0.497474 -0.39929,-1.217501 0,-0.451654 0.18328,-0.850942 0.18983,-0.399287 0.56948,-0.713481 0.36656,-0.307648 0.92949,-0.484382 0.56947,-0.18328 1.26987,-0.18328 0.65457,0 1.32223,0.163643 0.6742,0.157097 1.11931,0.386196 v 1.315686 h -0.0654 q -0.4713,-0.346922 -1.1455,-0.582567 -0.67421,-0.242191 -1.32223,-0.242191 -0.67421,0 -1.13896,0.261828 -0.46474,0.255282 -0.46474,0.765847 0,0.451654 0.28146,0.680753 0.27492,0.2291 0.89022,0.373105 0.34038,0.07855 0.7593,0.157097 0.42547,0.07855 0.70694,0.144006 0.85748,0.196371 1.32223,0.674207 0.46474,0.484382 0.46474,1.282958 z m 13.65433,-0.674207 q 0,0.569476 -0.26837,1.12586 -0.26183,0.556385 -0.73966,0.942582 -0.52366,0.418925 -1.22405,0.65457 -0.69384,0.235645 -1.6757,0.235645 -1.05386,0 -1.89825,-0.196371 -0.83785,-0.196371 -1.70843,-0.582567 v -1.623335 h 0.0916 q 0.73966,0.615296 1.70843,0.949127 0.96876,0.333831 1.8197,0.333831 1.20441,0 1.87207,-0.451653 0.67421,-0.451654 0.67421,-1.20441 0,-0.648024 -0.32074,-0.955672 -0.31419,-0.307648 -0.96222,-0.477837 -0.49093,-0.130914 -1.06695,-0.216008 -0.56947,-0.08509 -1.21095,-0.216008 -1.29605,-0.27492 -1.92444,-0.936036 -0.62184,-0.667661 -0.62184,-1.734611 0,-1.224046 1.03422,-2.002985 1.03422,-0.785484 2.62483,-0.785484 1.02767,0 1.88516,0.196371 0.85749,0.196371 1.5186,0.484382 v 1.531694 h -0.0916 q -0.55638,-0.47129 -1.46623,-0.778938 -0.90331,-0.314194 -1.85244,-0.314194 -1.04077,0 -1.6757,0.432016 -0.62839,0.432017 -0.62839,1.11277 0,0.60875 0.3142,0.955672 0.31419,0.346923 1.10622,0.530202 0.41893,0.09164 1.19132,0.222554 0.77239,0.130914 1.30914,0.268374 1.08659,0.288011 1.63643,0.870579 0.54983,0.582567 0.54983,1.62988 z m 8.10359,-0.746211 h -5.38712 q 0,0.674208 0.20292,1.178227 0.20292,0.497473 0.55639,0.818213 0.34037,0.314194 0.80512,0.47129 0.47129,0.157097 1.03422,0.157097 0.74621,0 1.49896,-0.294556 0.75931,-0.301103 1.08004,-0.589114 h 0.0655 v 1.341869 q -0.62184,0.261829 -1.26986,0.438563 -0.64803,0.176734 -1.36151,0.176734 -1.81971,0 -2.84084,-0.981856 -1.02113,-0.988401 -1.02113,-2.801561 0,-1.793522 0.97531,-2.84738 0.98186,-1.053859 2.57901,-1.053859 1.47933,0 2.27791,0.864033 0.80512,0.864033 0.80512,2.454639 z m -1.19787,-0.942581 q -0.007,-0.968764 -0.49092,-1.498966 -0.47784,-0.530202 -1.4597,-0.530202 -0.9884,0 -1.57751,0.582568 -0.58257,0.582567 -0.66112,1.4466 z m 7.62575,-1.498966 h -0.0654 q -0.27492,-0.06546 -0.53675,-0.09164 -0.25528,-0.03273 -0.60875,-0.03273 -0.56948,0 -1.09968,0.255282 -0.5302,0.248737 -1.02113,0.648025 v 5.190742 h -1.23059 v -7.31155 h 1.23059 v 1.080041 q 0.73312,-0.589113 1.2895,-0.831304 0.56293,-0.248737 1.1455,-0.248737 0.32074,0 0.46475,0.01964 0.144,0.01309 0.43201,0.05891 z m 7.48173,-1.341869 -2.95866,7.31155 h -1.23714 l -2.93902,-7.31155 h 1.33533 l 2.26481,5.81913 2.24518,-5.81913 z m 2.93248,-1.224046 h -1.38769 v -1.276412 h 1.38769 z m -0.0786,8.535596 h -1.23059 v -7.31155 h 1.23059 z m 7.84176,-0.458199 q -0.61529,0.294557 -1.17168,0.458199 -0.54984,0.163643 -1.17168,0.163643 -0.79203,0 -1.45315,-0.2291 -0.66111,-0.235645 -1.1324,-0.706936 -0.47784,-0.47129 -0.73967,-1.191318 -0.26182,-0.720027 -0.26182,-1.682245 0,-1.793523 0.98185,-2.814652 0.9884,-1.02113 2.60519,-1.02113 0.62839,0 1.23059,0.176734 0.60875,0.176734 1.11277,0.432016 v 1.368052 h -0.0654 q -0.56294,-0.438562 -1.16514,-0.674207 -0.59566,-0.235646 -1.16514,-0.235646 -1.04731,0 -1.65606,0.706936 -0.6022,0.700391 -0.6022,2.061897 0,1.322232 0.58911,2.035713 0.59566,0.706936 1.66915,0.706936 0.37311,0 0.75931,-0.09819 0.38619,-0.09819 0.69384,-0.255283 0.26837,-0.137459 0.50402,-0.288011 0.23565,-0.157096 0.37311,-0.268373 h 0.0654 z m 7.69774,-3.069935 h -5.38712 q 0,0.674208 0.20292,1.178227 0.20292,0.497473 0.55638,0.818213 0.34038,0.314194 0.80513,0.47129 0.47129,0.157097 1.03422,0.157097 0.74621,0 1.49896,-0.294556 0.7593,-0.301103 1.08004,-0.589114 h 0.0655 v 1.341869 q -0.62184,0.261829 -1.26987,0.438563 -0.64802,0.176734 -1.3615,0.176734 -1.81971,0 -2.84084,-0.981856 -1.02113,-0.988401 -1.02113,-2.801561 0,-1.793522 0.97531,-2.84738 0.98186,-1.053859 2.57901,-1.053859 1.47933,0 2.27791,0.864033 0.80512,0.864033 0.80512,2.454639 z m -1.19787,-0.942581 q -0.007,-0.968764 -0.49092,-1.498966 -0.47784,-0.530202 -1.4597,-0.530202 -0.9884,0 -1.57751,0.582568 -0.58257,0.582567 -0.66112,1.4466 z"
             id="path13" /><path
             style="font-size:13.4056px;font-family:Sans;-inkscape-font-specification:'Sans, Normal'"
             d="m 15.123017,80.514559 h -1.387689 v -1.276412 h 1.387689 z m -0.07855,8.535597 h -1.230592 v -7.31155 h 1.230592 z m 7.658472,-2.107716 q 0,1.001492 -0.831304,1.642971 -0.824759,0.641479 -2.258267,0.641479 -0.811668,0 -1.492421,-0.189825 -0.674207,-0.196372 -1.132406,-0.425471 V 87.230451 H 17.054 q 0.582567,0.438562 1.296049,0.70039 0.713481,0.255282 1.368052,0.255282 0.811667,0 1.269866,-0.261828 0.458199,-0.261828 0.458199,-0.824759 0,-0.432016 -0.248736,-0.65457 -0.248737,-0.222554 -0.955673,-0.379651 -0.261828,-0.05891 -0.687299,-0.137459 -0.418925,-0.07855 -0.765847,-0.170189 -0.962218,-0.255282 -1.368052,-0.74621 -0.399288,-0.497473 -0.399288,-1.2175 0,-0.451654 0.18328,-0.850942 0.189825,-0.399288 0.569476,-0.713481 0.366559,-0.307649 0.92949,-0.484383 0.569476,-0.183279 1.269866,-0.183279 0.65457,0 1.322232,0.163642 0.674208,0.157097 1.119315,0.386197 v 1.315686 h -0.06546 q -0.47129,-0.346922 -1.145498,-0.582567 -0.674207,-0.242191 -1.322232,-0.242191 -0.674207,0 -1.138952,0.261828 -0.464745,0.255282 -0.464745,0.765847 0,0.451653 0.281465,0.680753 0.27492,0.2291 0.890216,0.373105 0.340377,0.07855 0.759302,0.157097 0.42547,0.07855 0.706935,0.144005 0.857488,0.196372 1.322232,0.674208 0.464745,0.484382 0.464745,1.282958 z M 35.40815,85.397654 q 0,1.786977 -0.916398,2.821198 -0.916399,1.034221 -2.454639,1.034221 -1.551332,0 -2.46773,-1.034221 -0.909853,-1.034221 -0.909853,-2.821198 0,-1.786977 0.909853,-2.821198 0.916398,-1.040767 2.46773,-1.040767 1.53824,0 2.454639,1.040767 0.916398,1.034221 0.916398,2.821198 z m -1.269866,0 q 0,-1.420418 -0.556385,-2.107717 -0.556385,-0.693844 -1.544786,-0.693844 -1.001492,0 -1.557877,0.693844 -0.549839,0.687299 -0.549839,2.107717 0,1.374597 0.556384,2.088079 0.556385,0.706936 1.551332,0.706936 0.981856,0 1.53824,-0.70039 0.562931,-0.706936 0.562931,-2.094625 z m 12.371379,-3.659048 -1.904799,7.31155 h -1.138953 l -1.878616,-5.63585 -1.865526,5.63585 h -1.132406 l -1.924437,-7.31155 h 1.282958 l 1.341869,5.662033 1.826251,-5.662033 h 1.014584 l 1.872071,5.662033 1.269866,-5.662033 z m 7.88757,7.31155 h -1.230592 v -4.163067 q 0,-0.504019 -0.05891,-0.942581 -0.05891,-0.445108 -0.216008,-0.693845 -0.163643,-0.274919 -0.471291,-0.405833 -0.307648,-0.13746 -0.798576,-0.13746 -0.504019,0 -1.053858,0.248737 -0.549839,0.248736 -1.053858,0.634933 v 5.459116 h -1.230592 v -7.31155 h 1.230592 v 0.811667 q 0.576022,-0.477836 1.191318,-0.74621 0.615296,-0.268374 1.263321,-0.268374 1.184772,0 1.806614,0.713482 0.621841,0.713481 0.621841,2.05535 z m 8.489777,-3.528134 h -5.387114 q 0,0.674207 0.202917,1.178227 0.202917,0.497473 0.556385,0.818212 0.340376,0.314194 0.805121,0.471291 0.471291,0.157097 1.034221,0.157097 0.74621,0 1.498966,-0.294557 0.759302,-0.301102 1.080041,-0.589113 h 0.06546 v 1.341869 q -0.621842,0.261828 -1.269866,0.438562 -0.648025,0.176734 -1.361506,0.176734 -1.819706,0 -2.840835,-0.981855 -1.02113,-0.988401 -1.02113,-2.801561 0,-1.793523 0.97531,-2.847381 0.981855,-1.053858 2.579007,-1.053858 1.479328,0 2.277904,0.864033 0.805122,0.864033 0.805122,2.454638 z m -1.197864,-0.942581 q -0.0065,-0.968764 -0.490928,-1.498966 -0.477836,-0.530202 -1.459691,-0.530202 -0.988402,0 -1.577515,0.582568 -0.582567,0.582567 -0.661116,1.4466 z m 8.993798,4.470715 h -1.230592 v -0.765847 q -0.530202,0.458199 -1.106224,0.713481 -0.576022,0.255283 -1.250229,0.255283 -1.309141,0 -2.081534,-1.008039 -0.765847,-1.008038 -0.765847,-2.795015 0,-0.929489 0.261828,-1.656062 0.268374,-0.726574 0.720027,-1.237138 0.445108,-0.497474 1.034222,-0.759302 0.595658,-0.261828 1.230592,-0.261828 0.576022,0 1.021129,0.124368 0.445108,0.117823 0.936036,0.373105 v -3.16812 h 1.230592 z m -1.230592,-1.800068 v -4.195796 q -0.497474,-0.222554 -0.890216,-0.307648 -0.392742,-0.08509 -0.857487,-0.08509 -1.034221,0 -1.610243,0.720027 -0.576022,0.720028 -0.576022,2.04226 0,1.302594 0.445108,1.983348 0.445108,0.674207 1.426963,0.674207 0.523657,0 1.060404,-0.2291 0.536748,-0.235645 1.001493,-0.602204 z m 6.205323,-0.06546 -1.845888,4.287435 h -0.955673 l 1.138953,-4.287435 z m 11.59899,-4.104156 h -0.06546 q -0.27492,-0.06546 -0.536748,-0.09164 -0.255283,-0.03273 -0.60875,-0.03273 -0.569477,0 -1.099679,0.255282 -0.530202,0.248737 -1.021129,0.648025 v 5.190742 H 82.69431 v -7.31155 h 1.230592 v 1.080041 q 0.733118,-0.589113 1.289503,-0.831304 0.562931,-0.248737 1.145498,-0.248737 0.32074,0 0.464745,0.01964 0.144006,0.01309 0.432017,0.05891 z m 7.278816,2.441547 h -5.387113 q 0,0.674207 0.202917,1.178227 0.202917,0.497473 0.556385,0.818212 0.340376,0.314194 0.805121,0.471291 0.471291,0.157097 1.034221,0.157097 0.74621,0 1.498966,-0.294557 0.759302,-0.301102 1.080041,-0.589113 h 0.06546 v 1.341869 q -0.621842,0.261828 -1.269866,0.438562 -0.648025,0.176734 -1.361507,0.176734 -1.819705,0 -2.840835,-0.981855 -1.021129,-0.988401 -1.021129,-2.801561 0,-1.793523 0.975309,-2.847381 0.981856,-1.053858 2.579007,-1.053858 1.479329,0 2.277905,0.864033 0.805121,0.864033 0.805121,2.454638 z m -1.197863,-0.942581 q -0.0065,-0.968764 -0.490928,-1.498966 -0.477836,-0.530202 -1.459692,-0.530202 -0.988401,0 -1.577514,0.582568 -0.582568,0.582567 -0.661116,1.4466 z m 9.177082,4.470715 h -1.23059 v -4.163067 q 0,-0.504019 -0.0589,-0.942581 -0.0589,-0.445108 -0.21601,-0.693845 -0.16364,-0.274919 -0.47129,-0.405833 -0.30765,-0.13746 -0.798579,-0.13746 -0.504019,0 -1.053858,0.248737 -0.549839,0.248736 -1.053858,0.634933 v 5.459116 h -1.230592 v -7.31155 h 1.230592 v 0.811667 q 0.576022,-0.477836 1.191318,-0.74621 0.615296,-0.268374 1.263317,-0.268374 1.18478,0 1.80662,0.713482 0.62184,0.713481 0.62184,2.05535 z m 6.16605,-0.06546 q -0.34692,0.09164 -0.7593,0.150551 -0.40583,0.05891 -0.72657,0.05891 -1.11932,0 -1.70189,-0.602204 -0.58256,-0.602205 -0.58256,-1.930983 v -3.888147 h -0.83131 v -1.034221 h 0.83131 v -2.101171 h 1.23059 v 2.101171 h 2.53973 v 1.034221 h -2.53973 v 3.331763 q 0,0.576021 0.0262,0.903307 0.0262,0.320739 0.18328,0.602204 0.14401,0.261828 0.39274,0.386197 0.25529,0.117822 0.7724,0.117822 0.3011,0 0.62838,-0.08509 0.32729,-0.09164 0.47129,-0.150551 h 0.0655 z m 7.52101,-8.47014 h -1.38769 v -1.276412 h 1.38769 z m -0.0785,8.535597 h -1.23059 v -7.31155 h 1.23059 z m 7.65848,-2.107716 q 0,1.001492 -0.83131,1.642971 -0.82476,0.641479 -2.25826,0.641479 -0.81167,0 -1.49242,-0.189825 -0.67421,-0.196372 -1.13241,-0.425471 v -1.381143 h 0.0655 q 0.58256,0.438562 1.29604,0.70039 0.71349,0.255282 1.36806,0.255282 0.81166,0 1.26986,-0.261828 0.4582,-0.261828 0.4582,-0.824759 0,-0.432016 -0.24873,-0.65457 -0.24874,-0.222554 -0.95568,-0.379651 -0.26183,-0.05891 -0.6873,-0.137459 -0.41892,-0.07855 -0.76584,-0.170189 -0.96222,-0.255282 -1.36805,-0.74621 -0.39929,-0.497473 -0.39929,-1.2175 0,-0.451654 0.18328,-0.850942 0.18982,-0.399288 0.56947,-0.713481 0.36656,-0.307649 0.92949,-0.484383 0.56948,-0.183279 1.26987,-0.183279 0.65457,0 1.32223,0.163642 0.67421,0.157097 1.11932,0.386197 v 1.315686 h -0.0655 q -0.47129,-0.346922 -1.1455,-0.582567 -0.67421,-0.242191 -1.32223,-0.242191 -0.67421,0 -1.13895,0.261828 -0.46475,0.255282 -0.46475,0.765847 0,0.451653 0.28147,0.680753 0.27492,0.2291 0.89021,0.373105 0.34038,0.07855 0.7593,0.157097 0.42548,0.07855 0.70694,0.144005 0.85749,0.196372 1.32223,0.674208 0.46475,0.484382 0.46475,1.282958 z m 13.13722,-0.634934 h -1.4466 v 2.74265 h -1.25678 v -2.74265 h -4.66708 v -1.505511 l 4.71945,-5.498391 h 1.20441 v 5.95659 h 1.4466 z m -2.70338,-1.047312 v -4.398712 l -3.77687,4.398712 z m 13.07177,3.724505 q -0.34693,0.09164 -0.75931,0.150551 -0.40583,0.05891 -0.72657,0.05891 -1.11931,0 -1.70188,-0.602204 -0.58257,-0.602205 -0.58257,-1.930983 v -3.888147 h -0.8313 v -1.034221 h 0.8313 v -2.101171 h 1.23059 v 2.101171 h 2.53974 v 1.034221 h -2.53974 v 3.331763 q 0,0.576021 0.0262,0.903307 0.0262,0.320739 0.18328,0.602204 0.144,0.261828 0.39274,0.386197 0.25528,0.117822 0.77239,0.117822 0.3011,0 0.62839,-0.08509 0.32728,-0.09164 0.47129,-0.150551 h 0.0655 z m 2.80811,-8.47014 h -1.38768 v -1.276412 h 1.38768 z m -0.0785,8.535597 h -1.2306 v -7.31155 h 1.2306 z m 13.10449,0 h -1.23059 v -4.163067 q 0,-0.471291 -0.0458,-0.909853 -0.0393,-0.438562 -0.17674,-0.70039 -0.15055,-0.281465 -0.43201,-0.425471 -0.28147,-0.144005 -0.81167,-0.144005 -0.51711,0 -1.03422,0.261828 -0.51711,0.255282 -1.03422,0.65457 0.0196,0.150551 0.0327,0.353468 0.0131,0.196371 0.0131,0.392742 v 4.680178 h -1.2306 v -4.163067 q 0,-0.484382 -0.0458,-0.916399 -0.0393,-0.438562 -0.17673,-0.70039 -0.15055,-0.281465 -0.43202,-0.418925 -0.28146,-0.144005 -0.81166,-0.144005 -0.50402,0 -1.01459,0.248737 -0.50402,0.248736 -1.00804,0.634933 v 5.459116 h -1.23059 v -7.31155 h 1.23059 v 0.811667 q 0.57603,-0.477836 1.1455,-0.74621 0.57602,-0.268374 1.22405,-0.268374 0.74621,0 1.26332,0.314194 0.52366,0.314193 0.77894,0.870578 0.74621,-0.628387 1.3615,-0.903307 0.6153,-0.281465 1.31569,-0.281465 1.20441,0 1.77389,0.733119 0.57602,0.726573 0.57602,2.035713 z m 8.48978,-3.528134 h -5.38711 q 0,0.674207 0.20292,1.178227 0.20291,0.497473 0.55638,0.818212 0.34038,0.314194 0.80512,0.471291 0.47129,0.157097 1.03422,0.157097 0.74621,0 1.49897,-0.294557 0.7593,-0.301102 1.08004,-0.589113 h 0.0655 v 1.341869 q -0.62185,0.261828 -1.26987,0.438562 -0.64802,0.176734 -1.36151,0.176734 -1.8197,0 -2.84083,-0.981855 -1.02113,-0.988401 -1.02113,-2.801561 0,-1.793523 0.97531,-2.847381 0.98185,-1.053858 2.57901,-1.053858 1.47932,0 2.2779,0.864033 0.80512,0.864033 0.80512,2.454638 z m -1.19786,-0.942581 q -0.007,-0.968764 -0.49093,-1.498966 -0.47784,-0.530202 -1.45969,-0.530202 -0.9884,0 -1.57752,0.582568 -0.58256,0.582567 -0.66111,1.4466 z m 8.28685,2.362999 q 0,1.001492 -0.83131,1.642971 -0.82475,0.641479 -2.25826,0.641479 -0.81167,0 -1.49242,-0.189825 -0.67421,-0.196372 -1.13241,-0.425471 v -1.381143 h 0.0655 q 0.58257,0.438562 1.29605,0.70039 0.71348,0.255282 1.36805,0.255282 0.81167,0 1.26987,-0.261828 0.45819,-0.261828 0.45819,-0.824759 0,-0.432016 -0.24873,-0.65457 -0.24874,-0.222554 -0.95568,-0.379651 -0.26182,-0.05891 -0.68729,-0.137459 -0.41893,-0.07855 -0.76585,-0.170189 -0.96222,-0.255282 -1.36805,-0.74621 -0.39929,-0.497473 -0.39929,-1.2175 0,-0.451654 0.18328,-0.850942 0.18982,-0.399288 0.56947,-0.713481 0.36656,-0.307649 0.92949,-0.484383 0.56948,-0.183279 1.26987,-0.183279 0.65457,0 1.32223,0.163642 0.67421,0.157097 1.11932,0.386197 v 1.315686 h -0.0655 q -0.47129,-0.346922 -1.1455,-0.582567 -0.6742,-0.242191 -1.32223,-0.242191 -0.67421,0 -1.13895,0.261828 -0.46475,0.255282 -0.46475,0.765847 0,0.451653 0.28147,0.680753 0.27492,0.2291 0.89021,0.373105 0.34038,0.07855 0.75931,0.157097 0.42547,0.07855 0.70693,0.144005 0.85749,0.196372 1.32223,0.674208 0.46475,0.484382 0.46475,1.282958 z"
             id="path14" /><path
             style="font-size:13.4056px;font-family:Sans;-inkscape-font-specification:'Sans, Normal'"
             d="m 19.482456,110.49912 h -1.224047 v -0.77894 q -0.163642,0.11127 -0.445108,0.31419 -0.274919,0.19637 -0.536747,0.31419 -0.307648,0.15056 -0.706936,0.24874 -0.399288,0.10473 -0.936036,0.10473 -0.988401,0 -1.6757,-0.65457 -0.687298,-0.65457 -0.687298,-1.66915 0,-0.83131 0.353467,-1.34187 0.360014,-0.51711 1.02113,-0.81167 0.667662,-0.29456 1.603697,-0.39929 0.936036,-0.10473 2.009531,-0.15709 v -0.18983 q 0,-0.41892 -0.150551,-0.69384 -0.144005,-0.27492 -0.418925,-0.43202 -0.261828,-0.15055 -0.628388,-0.20292 -0.366559,-0.0524 -0.765847,-0.0524 -0.484382,0 -1.080041,0.13091 -0.595659,0.12437 -1.230592,0.36656 h -0.06546 v -1.25023 q 0.360014,-0.0982 1.040767,-0.21601 0.680753,-0.11782 1.341869,-0.11782 0.772393,0 1.341869,0.13092 0.576022,0.12436 0.994947,0.43201 0.412379,0.3011 0.628387,0.77894 0.216009,0.47784 0.216009,1.18477 z m -1.224047,-1.80007 v -2.03572 q -0.56293,0.0327 -1.328778,0.0982 -0.759301,0.0655 -1.204409,0.18982 -0.530202,0.15056 -0.857487,0.4713 -0.327285,0.31419 -0.327285,0.87057 0,0.62839 0.379651,0.94913 0.37965,0.31419 1.158589,0.31419 0.648025,0 1.184772,-0.24873 0.536748,-0.25528 0.994947,-0.60875 z m 14.263086,1.80007 h -1.230592 v -4.16307 q 0,-0.47129 -0.04582,-0.90985 -0.03927,-0.43857 -0.176734,-0.70039 -0.150551,-0.28147 -0.432016,-0.42548 -0.281465,-0.144 -0.811667,-0.144 -0.517111,0 -1.034221,0.26183 -0.517111,0.25528 -1.034221,0.65457 0.01964,0.15055 0.03273,0.35347 0.01309,0.19637 0.01309,0.39274 v 4.68018 h -1.230593 v -4.16307 q 0,-0.48438 -0.04582,-0.9164 -0.03927,-0.43856 -0.176734,-0.70039 -0.150552,-0.28147 -0.432017,-0.41893 -0.281465,-0.144 -0.811667,-0.144 -0.504019,0 -1.014584,0.24874 -0.504019,0.24873 -1.008038,0.63493 v 5.45912 H 21.852 v -7.31155 h 1.230592 v 0.81166 q 0.576022,-0.47783 1.145498,-0.74621 0.576022,-0.26837 1.224046,-0.26837 0.74621,0 1.263321,0.31419 0.523656,0.3142 0.778939,0.87058 0.74621,-0.62839 1.361506,-0.90331 0.615296,-0.28146 1.315686,-0.28146 1.204409,0 1.773886,0.73312 0.576021,0.72657 0.576021,2.03571 z m 8.601055,-3.65251 q 0,1.78698 -0.916398,2.8212 -0.916398,1.03422 -2.454639,1.03422 -1.551331,0 -2.46773,-1.03422 -0.909852,-1.03422 -0.909852,-2.8212 0,-1.78697 0.909852,-2.82119 0.916399,-1.04077 2.46773,-1.04077 1.538241,0 2.454639,1.04077 0.916398,1.03422 0.916398,2.82119 z m -1.269866,0 q 0,-1.42041 -0.556385,-2.10771 -0.556385,-0.69385 -1.544786,-0.69385 -1.001492,0 -1.557877,0.69385 -0.549839,0.6873 -0.549839,2.10771 0,1.3746 0.556385,2.08808 0.556385,0.70694 1.551331,0.70694 0.981856,0 1.538241,-0.70039 0.56293,-0.70694 0.56293,-2.09463 z m 9.235985,3.65251 h -1.230592 v -0.81167 q -0.621842,0.49093 -1.191318,0.75275 -0.569476,0.26183 -1.256775,0.26183 -1.152044,0 -1.793523,-0.70039 -0.641479,-0.70693 -0.641479,-2.06844 v -4.74563 h 1.230592 v 4.16306 q 0,0.55639 0.05237,0.95568 0.05237,0.39274 0.222554,0.6742 0.176734,0.28801 0.458199,0.41893 0.281465,0.13091 0.818213,0.13091 0.477836,0 1.040767,-0.24874 0.569476,-0.24873 1.060404,-0.63493 v -5.45911 h 1.230592 z m 8.535596,0 h -1.230592 v -4.16307 q 0,-0.50402 -0.05891,-0.94258 -0.05891,-0.44511 -0.216009,-0.69385 -0.163642,-0.27492 -0.47129,-0.40583 -0.307648,-0.13746 -0.798576,-0.13746 -0.504019,0 -1.053858,0.24874 -0.549839,0.24873 -1.053858,0.63493 v 5.45912 h -1.230592 v -7.31155 h 1.230592 v 0.81166 q 0.576022,-0.47783 1.191318,-0.74621 0.615296,-0.26837 1.26332,-0.26837 1.184773,0 1.806614,0.71348 0.621842,0.71348 0.621842,2.05535 z m 6.166052,-0.0655 q -0.346922,0.0916 -0.759302,0.15055 -0.405833,0.0589 -0.726573,0.0589 -1.119315,0 -1.701883,-0.6022 -0.582567,-0.60221 -0.582567,-1.93099 v -3.88814 h -0.831304 v -1.03422 h 0.831304 v -2.10118 h 1.230592 v 2.10118 h 2.539733 v 1.03422 h -2.539733 v 3.33176 q 0,0.57602 0.02618,0.90331 0.02618,0.32074 0.18328,0.6022 0.144005,0.26183 0.392742,0.3862 0.255282,0.11782 0.772393,0.11782 0.301102,0 0.628387,-0.0851 0.327285,-0.0916 0.471291,-0.15056 h 0.06546 z m 11.422252,-2.04226 q 0,1.00149 -0.831304,1.64297 -0.824759,0.64148 -2.258268,0.64148 -0.811667,0 -1.49242,-0.18983 -0.674208,-0.19637 -1.132407,-0.42547 v -1.38114 h 0.06546 q 0.582568,0.43856 1.296049,0.70039 0.713482,0.25528 1.368052,0.25528 0.811668,0 1.269867,-0.26183 0.458199,-0.26182 0.458199,-0.82475 0,-0.43202 -0.248737,-0.65457 -0.248736,-0.22256 -0.955672,-0.37965 -0.261829,-0.0589 -0.687299,-0.13746 -0.418925,-0.0785 -0.765847,-0.17019 -0.962219,-0.25529 -1.368052,-0.74621 -0.399288,-0.49748 -0.399288,-1.2175 0,-0.45166 0.183279,-0.85095 0.189826,-0.39928 0.569477,-0.71348 0.366559,-0.30764 0.929489,-0.48438 0.569477,-0.18328 1.269867,-0.18328 0.65457,0 1.322232,0.16364 0.674207,0.1571 1.119315,0.3862 v 1.31569 h -0.06546 q -0.471291,-0.34693 -1.145498,-0.58257 -0.674207,-0.24219 -1.322232,-0.24219 -0.674207,0 -1.138952,0.26183 -0.464745,0.25528 -0.464745,0.76584 0,0.45166 0.281465,0.68076 0.274919,0.2291 0.890216,0.3731 0.340376,0.0786 0.759301,0.1571 0.425471,0.0786 0.706936,0.144 0.857487,0.19638 1.322232,0.67421 0.464745,0.48438 0.464745,1.28296 z m 7.87448,2.10772 h -1.230592 v -4.16307 q 0,-0.50402 -0.05891,-0.94258 -0.05891,-0.44511 -0.216008,-0.69385 -0.163642,-0.27492 -0.47129,-0.40583 -0.307648,-0.13746 -0.798576,-0.13746 -0.504019,0 -1.053858,0.24874 -0.549839,0.24873 -1.053859,0.63493 v 5.45912 H 76.973362 V 100.314 h 1.230592 v 3.68523 q 0.576022,-0.47783 1.191318,-0.74621 0.615297,-0.26837 1.263321,-0.26837 1.184772,0 1.806614,0.71348 0.621842,0.71348 0.621842,2.05535 z m 8.601053,-3.65251 q 0,1.78698 -0.916398,2.8212 -0.916399,1.03422 -2.454639,1.03422 -1.551331,0 -2.46773,-1.03422 -0.909853,-1.03422 -0.909853,-2.8212 0,-1.78697 0.909853,-2.82119 0.916399,-1.04077 2.46773,-1.04077 1.53824,0 2.454639,1.04077 0.916398,1.03422 0.916398,2.82119 z m -1.269866,0 q 0,-1.42041 -0.556385,-2.10771 -0.556385,-0.69385 -1.544786,-0.69385 -1.001492,0 -1.557877,0.69385 -0.549839,0.6873 -0.549839,2.10771 0,1.3746 0.556385,2.08808 0.556384,0.70694 1.551331,0.70694 0.981856,0 1.53824,-0.70039 0.562931,-0.70694 0.562931,-2.09463 z m 12.371374,-3.65904 -1.9048,7.31155 h -1.13895 l -1.878616,-5.63585 -1.865526,5.63585 h -1.132406 l -1.924437,-7.31155 h 1.282958 l 1.341869,5.66203 1.826251,-5.66203 h 1.014584 l 1.872073,5.66203 1.26986,-5.66203 z m 7.88758,7.31155 h -1.23059 v -4.16307 q 0,-0.50402 -0.0589,-0.94258 -0.0589,-0.44511 -0.21601,-0.69385 -0.16364,-0.27492 -0.47129,-0.40583 -0.30765,-0.13746 -0.79858,-0.13746 -0.50402,0 -1.05386,0.24874 -0.54984,0.24873 -1.05385,0.63493 v 5.45912 h -1.2306 v -7.31155 h 1.2306 v 0.81166 q 0.57602,-0.47783 1.19131,-0.74621 0.6153,-0.26837 1.26332,-0.26837 1.18478,0 1.80662,0.71348 0.62184,0.71348 0.62184,2.05535 z m 13.31396,-3.65251 q 0,1.78698 -0.9164,2.8212 -0.9164,1.03422 -2.45464,1.03422 -1.55133,0 -2.46773,-1.03422 -0.90985,-1.03422 -0.90985,-2.8212 0,-1.78697 0.90985,-2.82119 0.9164,-1.04077 2.46773,-1.04077 1.53824,0 2.45464,1.04077 0.9164,1.03422 0.9164,2.82119 z m -1.26987,0 q 0,-1.42041 -0.55638,-2.10771 -0.55639,-0.69385 -1.54479,-0.69385 -1.00149,0 -1.55788,0.69385 -0.54983,0.6873 -0.54983,2.10771 0,1.3746 0.55638,2.08808 0.55639,0.70694 1.55133,0.70694 0.98186,0 1.53824,-0.70039 0.56293,-0.70694 0.56293,-2.09463 z m 9.28835,3.65251 h -1.23059 v -4.16307 q 0,-0.50402 -0.0589,-0.94258 -0.0589,-0.44511 -0.21601,-0.69385 -0.16364,-0.27492 -0.47129,-0.40583 -0.30765,-0.13746 -0.79857,-0.13746 -0.50402,0 -1.05386,0.24874 -0.54984,0.24873 -1.05386,0.63493 v 5.45912 h -1.23059 v -7.31155 h 1.23059 v 0.81166 q 0.57602,-0.47783 1.19132,-0.74621 0.61529,-0.26837 1.26332,-0.26837 1.18477,0 1.80661,0.71348 0.62184,0.71348 0.62184,2.05535 z m 13.01286,0 h -1.23059 v -0.76585 q -0.5302,0.4582 -1.10623,0.71348 -0.57602,0.25528 -1.25022,0.25528 -1.30915,0 -2.08154,-1.00804 -0.76585,-1.00803 -0.76585,-2.79501 0,-0.92949 0.26183,-1.65606 0.26838,-0.72658 0.72003,-1.23714 0.44511,-0.49748 1.03422,-0.7593 0.59566,-0.26183 1.23059,-0.26183 0.57602,0 1.02113,0.12437 0.44511,0.11782 0.93604,0.3731 V 100.314 h 1.23059 z m -1.23059,-1.80007 v -4.1958 q -0.49748,-0.22255 -0.89022,-0.30765 -0.39274,-0.0851 -0.85748,-0.0851 -1.03423,0 -1.61025,0.72003 -0.57602,0.72002 -0.57602,2.04226 0,1.30259 0.44511,1.98334 0.44511,0.67421 1.42696,0.67421 0.52366,0 1.06041,-0.2291 0.53674,-0.23564 1.00149,-0.6022 z m 4.97473,-6.73553 h -1.38769 v -1.27641 h 1.38769 z m -0.0785,8.5356 h -1.23059 v -7.31155 h 1.23059 z m 7.84175,-0.4582 q -0.61529,0.29455 -1.17168,0.4582 -0.54984,0.16364 -1.17168,0.16364 -0.79203,0 -1.45315,-0.2291 -0.66111,-0.23565 -1.1324,-0.70694 -0.47784,-0.47129 -0.73967,-1.19132 -0.26182,-0.72002 -0.26182,-1.68224 0,-1.79352 0.98185,-2.81465 0.9884,-1.02113 2.60519,-1.02113 0.62839,0 1.23059,0.17673 0.60875,0.17674 1.11277,0.43202 v 1.36805 h -0.0654 q -0.56294,-0.43856 -1.16514,-0.67421 -0.59566,-0.23564 -1.16514,-0.23564 -1.04731,0 -1.65606,0.70693 -0.6022,0.70039 -0.6022,2.0619 0,1.32223 0.58911,2.03571 0.59566,0.70694 1.66915,0.70694 0.37311,0 0.75931,-0.0982 0.38619,-0.0982 0.69384,-0.25528 0.26837,-0.13746 0.50402,-0.28801 0.23565,-0.1571 0.37311,-0.26837 h 0.0654 z m 7.69775,-3.06994 h -5.38711 q 0,0.67421 0.20292,1.17823 0.20291,0.49747 0.55638,0.81821 0.34038,0.31419 0.80512,0.47129 0.47129,0.1571 1.03422,0.1571 0.74621,0 1.49897,-0.29456 0.7593,-0.3011 1.08004,-0.58911 h 0.0655 v 1.34187 q -0.62185,0.26183 -1.26987,0.43856 -0.64802,0.17673 -1.36151,0.17673 -1.8197,0 -2.84083,-0.98185 -1.02113,-0.9884 -1.02113,-2.80156 0,-1.79352 0.97531,-2.84738 0.98185,-1.05386 2.57901,-1.05386 1.47932,0 2.2779,0.86403 0.80512,0.86403 0.80512,2.45464 z m -1.19786,-0.94258 q -0.007,-0.96876 -0.49093,-1.49897 -0.47784,-0.5302 -1.45969,-0.5302 -0.9884,0 -1.57752,0.58257 -0.58256,0.58257 -0.66111,1.4466 z m 5.07292,4.47072 h -1.56442 v -1.86553 h 1.56442 z"
             id="path15" /><path
             style="font-size:13.4056px;font-family:Sans;-inkscape-font-specification:'Sans, Normal'"
             d="m 31.474183,131.94808 h -3.848874 v -0.99495 h 1.276412 v -7.75666 h -1.276412 v -0.99495 h 3.848874 v 0.99495 h -1.276412 v 7.75666 h 1.276412 z m 6.041683,-8.9938 h -0.06546 q -0.202917,-0.0589 -0.530202,-0.11782 -0.327286,-0.0655 -0.576022,-0.0655 -0.79203,0 -1.152044,0.35347 -0.353468,0.34692 -0.353468,1.26332 v 0.24874 h 2.218993 v 1.03422 h -2.179719 v 6.27733 h -1.230592 v -6.27733 h -0.831304 v -1.03422 h 0.831304 v -0.2422 q 0,-1.30259 0.648025,-1.99644 0.648024,-0.70039 1.872071,-0.70039 0.412379,0 0.739664,0.0393 0.333831,0.0393 0.608751,0.0916 z m 11.92627,5.28238 q 0,0.9164 -0.261828,1.64952 -0.255283,0.73312 -0.693845,1.23059 -0.464745,0.51711 -1.021129,0.77894 -0.556385,0.25528 -1.224047,0.25528 -0.621842,0 -1.086587,-0.15055 -0.464744,-0.144 -0.916398,-0.39274 l -0.07855,0.34038 H 43.00771 v -10.18512 h 1.230592 v 3.63941 q 0.517111,-0.42547 1.099678,-0.69384 0.582568,-0.27492 1.309141,-0.27492 1.296049,0 2.042259,0.99495 0.752756,0.99494 0.752756,2.8081 z m -1.269867,0.0327 q 0,-1.30914 -0.432016,-1.98335 -0.432016,-0.68075 -1.394235,-0.68075 -0.536747,0 -1.086586,0.23564 -0.549839,0.2291 -1.02113,0.59566 v 4.18925 q 0.523656,0.23565 0.896761,0.32729 0.379651,0.0916 0.857487,0.0916 1.02113,0 1.597152,-0.66766 0.582567,-0.67421 0.582567,-2.10772 z m 9.419268,0.0262 q 0,1.78698 -0.916399,2.8212 -0.916398,1.03422 -2.454638,1.03422 -1.551332,0 -2.46773,-1.03422 -0.909853,-1.03422 -0.909853,-2.8212 0,-1.78697 0.909853,-2.82119 0.916398,-1.04077 2.46773,-1.04077 1.53824,0 2.454638,1.04077 0.916399,1.03422 0.916399,2.82119 z m -1.269866,0 q 0,-1.42041 -0.556385,-2.10771 -0.556385,-0.69385 -1.544786,-0.69385 -1.001493,0 -1.557877,0.69385 -0.549839,0.6873 -0.549839,2.10771 0,1.3746 0.556384,2.08808 0.556385,0.70694 1.551332,0.70694 0.981855,0 1.53824,-0.70039 0.562931,-0.70694 0.562931,-2.09463 z m 6.971171,3.58705 q -0.346922,0.0916 -0.759301,0.15055 -0.405834,0.0589 -0.726573,0.0589 -1.119316,0 -1.701883,-0.6022 -0.582568,-0.60221 -0.582568,-1.93099 v -3.88814 h -0.831304 v -1.03422 h 0.831304 v -2.10118 h 1.230592 v 2.10118 h 2.539733 v 1.03422 h -2.539733 v 3.33176 q 0,0.57602 0.02618,0.90331 0.02618,0.32074 0.18328,0.6022 0.144005,0.26183 0.392742,0.3862 0.255282,0.11782 0.772393,0.11782 0.301102,0 0.628388,-0.0851 0.327285,-0.0916 0.47129,-0.15056 h 0.06546 z m 7.599562,0.0655 h -1.230592 v -4.16307 q 0,-0.50402 -0.05891,-0.94258 -0.05891,-0.44511 -0.216008,-0.69385 -0.163642,-0.27492 -0.47129,-0.40583 -0.307648,-0.13746 -0.798576,-0.13746 -0.504019,0 -1.053858,0.24874 -0.549839,0.24873 -1.053858,0.63493 v 5.45912 h -1.230593 v -10.18512 h 1.230593 v 3.68523 q 0.576021,-0.47783 1.191317,-0.74621 0.615297,-0.26837 1.263321,-0.26837 1.184772,0 1.806614,0.71348 0.621842,0.71348 0.621842,2.05535 z m 14.708198,-0.70694 q -0.360014,0.1571 -0.654571,0.29456 -0.288011,0.13746 -0.759301,0.28801 -0.399288,0.12437 -0.870579,0.20946 -0.464745,0.0916 -1.027675,0.0916 -1.060404,0 -1.930982,-0.29456 -0.864033,-0.3011 -1.505512,-0.93603 -0.628388,-0.62184 -0.981856,-1.57752 -0.353467,-0.96222 -0.353467,-2.23208 0,-1.20441 0.340376,-2.15354 0.340377,-0.94913 0.981855,-1.6037 0.621842,-0.63493 1.498966,-0.96876 0.88367,-0.33383 1.957166,-0.33383 0.785484,0 1.564423,0.18983 0.785484,0.18982 1.741157,0.66766 v 1.53824 h -0.09819 q -0.805121,-0.67421 -1.597151,-0.98186 -0.79203,-0.30765 -1.695338,-0.30765 -0.739664,0 -1.335323,0.24219 -0.589113,0.23565 -1.053858,0.73967 -0.451654,0.49093 -0.706936,1.24368 -0.248737,0.74621 -0.248737,1.72807 0,1.02767 0.27492,1.76734 0.281465,0.73966 0.720027,1.20441 0.458199,0.48438 1.06695,0.72002 0.615296,0.2291 1.296049,0.2291 0.936035,0 1.754248,-0.32074 0.818213,-0.32073 1.531695,-0.96221 h 0.09164 z m 7.416277,0.70694 h -1.224046 v -0.77894 q -0.163643,0.11127 -0.445108,0.31419 -0.274919,0.19637 -0.536747,0.31419 -0.307649,0.15056 -0.706936,0.24874 -0.399288,0.10473 -0.936036,0.10473 -0.988401,0 -1.6757,-0.65457 -0.687299,-0.65457 -0.687299,-1.66915 0,-0.83131 0.353468,-1.34187 0.360014,-0.51711 1.02113,-0.81167 0.667662,-0.29456 1.603697,-0.39929 0.936036,-0.10473 2.009531,-0.15709 v -0.18983 q 0,-0.41892 -0.150551,-0.69384 -0.144006,-0.27492 -0.418925,-0.43202 -0.261828,-0.15055 -0.628388,-0.20292 -0.366559,-0.0524 -0.765847,-0.0524 -0.484382,0 -1.080041,0.13091 -0.595659,0.12437 -1.230592,0.36656 h -0.06546 v -1.25023 q 0.360014,-0.0982 1.040767,-0.21601 0.680753,-0.11782 1.341869,-0.11782 0.772393,0 1.341869,0.13092 0.576022,0.12436 0.994947,0.43201 0.412379,0.3011 0.628387,0.77894 0.216008,0.47784 0.216008,1.18477 z m -1.224046,-1.80007 v -2.03572 q -0.56293,0.0327 -1.328778,0.0982 -0.759301,0.0655 -1.204409,0.18982 -0.530202,0.15056 -0.857487,0.47129 -0.327285,0.3142 -0.327285,0.87058 0,0.62839 0.37965,0.94913 0.379651,0.31419 1.15859,0.31419 0.648024,0 1.184772,-0.24873 0.536748,-0.25529 0.994947,-0.60875 z m 14.263087,1.80007 h -1.23059 v -4.16307 q 0,-0.47129 -0.0458,-0.90985 -0.0393,-0.43857 -0.17673,-0.70039 -0.15056,-0.28147 -0.43202,-0.42548 -0.28147,-0.144 -0.81167,-0.144 -0.51711,0 -1.03422,0.26183 -0.51711,0.25528 -1.03422,0.65457 0.0196,0.15055 0.0327,0.35347 0.0131,0.19637 0.0131,0.39274 v 4.68018 h -1.23059 v -4.16307 q 0,-0.48438 -0.0458,-0.9164 -0.0393,-0.43856 -0.176737,-0.70039 -0.150551,-0.28147 -0.432016,-0.41893 -0.281465,-0.144 -0.811667,-0.144 -0.504019,0 -1.014584,0.24874 -0.504019,0.24873 -1.008038,0.63493 v 5.45912 h -1.230593 v -7.31155 h 1.230593 v 0.81166 q 0.576021,-0.47783 1.145498,-0.74621 0.576021,-0.26837 1.224046,-0.26837 0.74621,0 1.263318,0.31419 0.52366,0.3142 0.77894,0.87058 0.74621,-0.62839 1.36151,-0.90331 0.61529,-0.28146 1.31568,-0.28146 1.20441,0 1.77389,0.73312 0.57602,0.72657 0.57602,2.03571 z m 8.80397,-3.74415 q 0,0.89022 -0.25528,1.62988 -0.25528,0.73312 -0.72003,1.24369 -0.43202,0.48438 -1.02113,0.75275 -0.58257,0.26183 -1.23714,0.26183 -0.56947,0 -1.03422,-0.12437 -0.4582,-0.12437 -0.93603,-0.38619 v 3.06338 h -1.23059 v -10.00837 h 1.23059 v 0.76584 q 0.49092,-0.41238 1.09968,-0.6873 0.61529,-0.28146 1.30914,-0.28146 1.32223,0 2.05535,1.00149 0.73966,0.99495 0.73966,2.76883 z m -1.26987,0.0327 q 0,-1.32223 -0.45165,-1.9768 -0.45165,-0.65457 -1.38769,-0.65457 -0.5302,0 -1.06695,0.2291 -0.53675,0.2291 -1.02767,0.6022 v 4.14343 q 0.52365,0.23565 0.89676,0.32074 0.37965,0.0851 0.85749,0.0851 1.02767,0 1.60369,-0.69385 0.57602,-0.69384 0.57602,-2.05535 z m 9.24908,3.71142 h -1.23059 v -0.81167 q -0.62184,0.49093 -1.19132,0.75275 -0.56947,0.26183 -1.25677,0.26183 -1.15205,0 -1.79352,-0.70039 -0.64148,-0.70693 -0.64148,-2.06844 v -4.74563 h 1.23059 v 4.16306 q 0,0.55639 0.0524,0.95567 0.0524,0.39275 0.22256,0.67421 0.17673,0.28801 0.4582,0.41893 0.28146,0.13091 0.81821,0.13091 0.47784,0 1.04077,-0.24874 0.56947,-0.24873 1.0604,-0.63493 v -5.45911 h 1.23059 z m 7.64538,-2.10772 q 0,1.00149 -0.8313,1.64297 -0.82476,0.64148 -2.25827,0.64148 -0.81166,0 -1.49242,-0.18983 -0.67421,-0.19637 -1.1324,-0.42547 v -1.38114 h 0.0654 q 0.58257,0.43856 1.29605,0.70039 0.71348,0.25528 1.36805,0.25528 0.81167,0 1.26987,-0.26183 0.4582,-0.26182 0.4582,-0.82475 0,-0.43202 -0.24874,-0.65457 -0.24873,-0.22256 -0.95567,-0.37966 -0.26183,-0.0589 -0.6873,-0.13745 -0.41892,-0.0786 -0.76585,-0.17019 -0.96221,-0.25529 -1.36805,-0.74621 -0.39929,-0.49748 -0.39929,-1.2175 0,-0.45166 0.18328,-0.85095 0.18983,-0.39928 0.56948,-0.71348 0.36656,-0.30765 0.92949,-0.48438 0.56948,-0.18328 1.26987,-0.18328 0.65457,0 1.32223,0.16364 0.67421,0.1571 1.11931,0.3862 v 1.31569 h -0.0654 q -0.47129,-0.34693 -1.1455,-0.58257 -0.67421,-0.24219 -1.32223,-0.24219 -0.67421,0 -1.13896,0.26183 -0.46474,0.25528 -0.46474,0.76584 0,0.45166 0.28146,0.68076 0.27492,0.2291 0.89022,0.3731 0.34038,0.0786 0.7593,0.1571 0.42547,0.0786 0.70694,0.144 0.85748,0.19637 1.32223,0.67421 0.46474,0.48438 0.46474,1.28296 z"
             id="path16" /><path
             style="font-size:13.4056px;font-family:Sans;-inkscape-font-specification:'Sans, Normal'"
             d="m 20.981422,150.61511 q 0,0.56948 -0.268374,1.12586 -0.261828,0.55639 -0.739665,0.94258 -0.523656,0.41893 -1.224046,0.65457 -0.693845,0.23565 -1.6757,0.23565 -1.053858,0 -1.898254,-0.19637 -0.83785,-0.19637 -1.708428,-0.58257 v -1.62333 h 0.09164 q 0.739665,0.61529 1.708429,0.94912 0.968764,0.33383 1.819705,0.33383 1.20441,0 1.872071,-0.45165 0.674208,-0.45165 0.674208,-1.20441 0,-0.64802 -0.32074,-0.95567 -0.314193,-0.30765 -0.962218,-0.47784 -0.490928,-0.13091 -1.06695,-0.21601 -0.569476,-0.0851 -1.210955,-0.216 -1.296049,-0.27492 -1.924436,-0.93604 -0.621842,-0.66766 -0.621842,-1.73461 0,-1.22405 1.034221,-2.00299 1.034221,-0.78548 2.624827,-0.78548 1.027675,0 1.885162,0.19637 0.857487,0.19637 1.518603,0.48438 v 1.5317 h -0.09164 q -0.556385,-0.47129 -1.466238,-0.77894 -0.903307,-0.3142 -1.852434,-0.3142 -1.040767,0 -1.6757,0.43202 -0.628387,0.43202 -0.628387,1.11277 0,0.60875 0.314193,0.95567 0.314194,0.34693 1.106224,0.5302 0.418925,0.0916 1.191318,0.22256 0.772393,0.13091 1.309141,0.26837 1.086586,0.28801 1.636426,0.87058 0.549839,0.58257 0.549839,1.62988 z m 8.10358,-0.74621 h -5.387114 q 0,0.67421 0.202917,1.17823 0.202917,0.49747 0.556385,0.81821 0.340377,0.31419 0.805121,0.47129 0.471291,0.1571 1.034222,0.1571 0.74621,0 1.498965,-0.29456 0.759302,-0.3011 1.080041,-0.58911 h 0.06546 v 1.34187 q -0.621842,0.26183 -1.269867,0.43856 -0.648024,0.17673 -1.361506,0.17673 -1.819705,0 -2.840835,-0.98185 -1.02113,-0.9884 -1.02113,-2.80156 0,-1.79353 0.97531,-2.84738 0.981855,-1.05386 2.579007,-1.05386 1.479329,0 2.277905,0.86403 0.805121,0.86403 0.805121,2.45464 z m -1.197864,-0.94258 q -0.0065,-0.96876 -0.490927,-1.49897 -0.477837,-0.5302 -1.459692,-0.5302 -0.988401,0 -1.577515,0.58257 -0.582567,0.58257 -0.661116,1.4466 z m 7.625745,-1.49897 h -0.06546 q -0.274919,-0.0654 -0.536747,-0.0916 -0.255283,-0.0327 -0.608751,-0.0327 -0.569476,0 -1.099678,0.25528 -0.530202,0.24873 -1.021129,0.64802 v 5.19074 h -1.230592 v -7.31155 h 1.230592 v 1.08005 q 0.733118,-0.58912 1.289503,-0.83131 0.562931,-0.24874 1.145498,-0.24874 0.32074,0 0.464745,0.0196 0.144006,0.0131 0.432017,0.0589 z m 7.481737,-1.34187 -2.958658,7.31155 h -1.237138 l -2.93902,-7.31155 h 1.335323 l 2.264813,5.81913 2.245177,-5.81913 z m 2.932475,-1.22404 h -1.387689 v -1.27641 h 1.387689 z m -0.07855,8.53559 h -1.230592 v -7.31155 h 1.230592 z m 7.841751,-0.45819 q -0.615296,0.29455 -1.17168,0.45819 -0.549839,0.16365 -1.171681,0.16365 -0.79203,0 -1.453146,-0.2291 -0.661116,-0.23565 -1.132407,-0.70694 -0.477836,-0.47129 -0.739664,-1.19132 -0.261828,-0.72002 -0.261828,-1.68224 0,-1.79352 0.981855,-2.81465 0.988401,-1.02113 2.60519,-1.02113 0.628387,0 1.230592,0.17673 0.60875,0.17673 1.112769,0.43202 v 1.36805 h -0.06546 q -0.56293,-0.43856 -1.165135,-0.67421 -0.595659,-0.23564 -1.165135,-0.23564 -1.047312,0 -1.656063,0.70693 -0.602204,0.70039 -0.602204,2.0619 0,1.32223 0.589113,2.03571 0.595659,0.70694 1.669154,0.70694 0.373105,0 0.759302,-0.0982 0.386196,-0.0982 0.693844,-0.25528 0.268374,-0.13746 0.504019,-0.28801 0.235646,-0.1571 0.373105,-0.26837 h 0.06546 z m 7.69775,-3.06994 h -5.387113 q 0,0.67421 0.202917,1.17823 0.202916,0.49747 0.556384,0.81821 0.340377,0.31419 0.805122,0.47129 0.47129,0.1571 1.034221,0.1571 0.74621,0 1.498966,-0.29456 0.759301,-0.3011 1.080041,-0.58911 h 0.06546 v 1.34187 q -0.621842,0.26183 -1.269867,0.43856 -0.648024,0.17673 -1.361506,0.17673 -1.819705,0 -2.840835,-0.98185 -1.02113,-0.9884 -1.02113,-2.80156 0,-1.79353 0.97531,-2.84738 0.981856,-1.05386 2.579007,-1.05386 1.479329,0 2.277905,0.86403 0.805121,0.86403 0.805121,2.45464 z m -1.197863,-0.94258 q -0.0065,-0.96876 -0.490928,-1.49897 -0.477836,-0.5302 -1.459692,-0.5302 -0.988401,0 -1.577514,0.58257 -0.582568,0.58257 -0.661116,1.4466 z m 8.286858,2.363 q 0,1.00149 -0.831304,1.64297 -0.824759,0.64148 -2.258268,0.64148 -0.811667,0 -1.49242,-0.18983 -0.674208,-0.19637 -1.132407,-0.42547 v -1.38114 h 0.06546 q 0.582568,0.43856 1.296049,0.70039 0.713482,0.25528 1.368052,0.25528 0.811667,0 1.269867,-0.26183 0.458199,-0.26182 0.458199,-0.82475 0,-0.43202 -0.248737,-0.65457 -0.248737,-0.22256 -0.955672,-0.37966 -0.261829,-0.0589 -0.687299,-0.13746 -0.418925,-0.0785 -0.765847,-0.17018 -0.962219,-0.25529 -1.368052,-0.74621 -0.399288,-0.49748 -0.399288,-1.2175 0,-0.45166 0.183279,-0.85095 0.189826,-0.39928 0.569477,-0.71348 0.366559,-0.30765 0.929489,-0.48438 0.569477,-0.18328 1.269867,-0.18328 0.65457,0 1.322232,0.16364 0.674207,0.1571 1.119315,0.3862 v 1.31569 h -0.06546 q -0.471291,-0.34693 -1.145498,-0.58257 -0.674208,-0.24219 -1.322232,-0.24219 -0.674207,0 -1.138952,0.26183 -0.464745,0.25528 -0.464745,0.76584 0,0.45166 0.281465,0.68076 0.274919,0.2291 0.890216,0.3731 0.340376,0.0786 0.759301,0.1571 0.425471,0.0785 0.706936,0.144 0.857487,0.19637 1.322232,0.67421 0.464745,0.48438 0.464745,1.28296 z m 12.155369,2.10771 h -1.224046 v -0.77893 q -0.163643,0.11127 -0.445108,0.31419 -0.274919,0.19637 -0.536748,0.31419 -0.307648,0.15055 -0.706935,0.24874 -0.399288,0.10473 -0.936036,0.10473 -0.988401,0 -1.6757,-0.65457 -0.687299,-0.65457 -0.687299,-1.66915 0,-0.83131 0.353468,-1.34187 0.360014,-0.51711 1.02113,-0.81167 0.667662,-0.29456 1.603697,-0.39929 0.936036,-0.10473 2.009531,-0.15709 v -0.18983 q 0,-0.41892 -0.150551,-0.69384 -0.144006,-0.27492 -0.418925,-0.43202 -0.261828,-0.15055 -0.628388,-0.20292 -0.366559,-0.0524 -0.765847,-0.0524 -0.484382,0 -1.080041,0.13091 -0.595659,0.12437 -1.230592,0.36656 h -0.06546 v -1.25023 q 0.360014,-0.0982 1.040767,-0.21601 0.680753,-0.11782 1.341869,-0.11782 0.772393,0 1.341869,0.13091 0.576022,0.12437 0.994947,0.43202 0.412379,0.3011 0.628387,0.77894 0.216008,0.47784 0.216008,1.18477 z m -1.224046,-1.80006 v -2.03572 q -0.562931,0.0327 -1.328778,0.0982 -0.759301,0.0655 -1.204409,0.18982 -0.530202,0.15056 -0.857487,0.47129 -0.327285,0.3142 -0.327285,0.87058 0,0.62839 0.37965,0.94913 0.379651,0.31419 1.15859,0.31419 0.648024,0 1.184772,-0.24873 0.536748,-0.25529 0.994947,-0.60875 z m 8.155947,-4.16962 h -0.06546 q -0.274919,-0.0654 -0.536747,-0.0916 -0.255283,-0.0327 -0.608751,-0.0327 -0.569476,0 -1.099678,0.25528 -0.530202,0.24873 -1.02113,0.64802 v 5.19074 h -1.230592 v -7.31155 h 1.230592 v 1.08005 q 0.733119,-0.58912 1.289504,-0.83131 0.56293,-0.24874 1.145498,-0.24874 0.320739,0 0.464745,0.0196 0.144005,0.0131 0.432016,0.0589 z m 7.278817,2.44155 h -5.387113 q 0,0.67421 0.202916,1.17823 0.202917,0.49747 0.556385,0.81821 0.340377,0.31419 0.805122,0.47129 0.47129,0.1571 1.034221,0.1571 0.74621,0 1.498966,-0.29456 0.759301,-0.3011 1.080041,-0.58911 h 0.06546 v 1.34187 q -0.621842,0.26183 -1.269867,0.43856 -0.648024,0.17673 -1.361506,0.17673 -1.819705,0 -2.840835,-0.98185 -1.02113,-0.9884 -1.02113,-2.80156 0,-1.79353 0.97531,-2.84738 0.981856,-1.05386 2.579007,-1.05386 1.479329,0 2.277905,0.86403 0.805121,0.86403 0.805121,2.45464 z m -1.197863,-0.94258 q -0.0065,-0.96876 -0.490928,-1.49897 -0.477836,-0.5302 -1.459692,-0.5302 -0.988401,0 -1.577514,0.58257 -0.582568,0.58257 -0.661116,1.4466 z m 14.007814,0.81821 q 0,1.78698 -0.9164,2.8212 -0.9164,1.03422 -2.45464,1.03422 -1.55133,0 -2.46773,-1.03422 -0.90985,-1.03422 -0.90985,-2.8212 0,-1.78697 0.90985,-2.8212 0.9164,-1.04076 2.46773,-1.04076 1.53824,0 2.45464,1.04076 0.9164,1.03423 0.9164,2.8212 z m -1.26987,0 q 0,-1.42041 -0.55639,-2.10771 -0.55638,-0.69385 -1.54478,-0.69385 -1.00149,0 -1.55788,0.69385 -0.54984,0.6873 -0.54984,2.10771 0,1.3746 0.55639,2.08808 0.55638,0.70694 1.55133,0.70694 0.98185,0 1.53824,-0.70039 0.56293,-0.70694 0.56293,-2.09463 z m 12.37138,-3.65905 -1.9048,7.31155 h -1.13896 l -1.87861,-5.63585 -1.86553,5.63585 h -1.1324 l -1.92444,-7.31155 h 1.28296 l 1.34187,5.66204 1.82625,-5.66204 h 1.01458 l 1.87207,5.66204 1.26987,-5.66204 z m 7.88757,7.31155 h -1.2306 v -4.16306 q 0,-0.50402 -0.0589,-0.94258 -0.0589,-0.44511 -0.21601,-0.69385 -0.16364,-0.27492 -0.47129,-0.40583 -0.30764,-0.13746 -0.79857,-0.13746 -0.50402,0 -1.05386,0.24874 -0.54984,0.24873 -1.05386,0.63493 v 5.45911 h -1.23059 v -7.31155 h 1.23059 v 0.81167 q 0.57602,-0.47783 1.19132,-0.74621 0.6153,-0.26837 1.26332,-0.26837 1.18477,0 1.80661,0.71348 0.62185,0.71348 0.62185,2.05535 z m 8.48977,-3.52813 h -5.38711 q 0,0.67421 0.20292,1.17823 0.20291,0.49747 0.55638,0.81821 0.34038,0.31419 0.80512,0.47129 0.47129,0.1571 1.03422,0.1571 0.74621,0 1.49897,-0.29456 0.7593,-0.3011 1.08004,-0.58911 h 0.0655 v 1.34187 q -0.62184,0.26183 -1.26987,0.43856 -0.64802,0.17673 -1.36151,0.17673 -1.8197,0 -2.84083,-0.98185 -1.02113,-0.9884 -1.02113,-2.80156 0,-1.79353 0.97531,-2.84738 0.98185,-1.05386 2.57901,-1.05386 1.47933,0 2.2779,0.86403 0.80512,0.86403 0.80512,2.45464 z m -1.19786,-0.94258 q -0.007,-0.96876 -0.49093,-1.49897 -0.47784,-0.5302 -1.45969,-0.5302 -0.9884,0 -1.57752,0.58257 -0.58256,0.58257 -0.66111,1.4466 z m 8.99379,4.47071 h -1.23059 v -0.76584 q -0.5302,0.4582 -1.10622,0.71348 -0.57602,0.25528 -1.25023,0.25528 -1.30914,0 -2.08154,-1.00804 -0.76584,-1.00803 -0.76584,-2.79501 0,-0.92949 0.26182,-1.65606 0.26838,-0.72658 0.72003,-1.23714 0.44511,-0.49748 1.03422,-0.7593 0.59566,-0.26183 1.2306,-0.26183 0.57602,0 1.02113,0.12437 0.4451,0.11782 0.93603,0.3731 v -3.16812 h 1.23059 z m -1.23059,-1.80006 v -4.1958 q -0.49747,-0.22255 -0.89021,-0.30765 -0.39275,-0.0851 -0.85749,-0.0851 -1.03422,0 -1.61024,0.72003 -0.57603,0.72002 -0.57603,2.04226 0,1.30259 0.44511,1.98334 0.44511,0.67421 1.42696,0.67421 0.52366,0 1.06041,-0.2291 0.53675,-0.23564 1.00149,-0.6022 z m 6.20534,-0.0655 -1.84589,4.28744 h -0.95568 l 1.13896,-4.28744 z m 11.59897,-4.10416 h -0.0654 q -0.27492,-0.0654 -0.53675,-0.0916 -0.25528,-0.0327 -0.60875,-0.0327 -0.56948,0 -1.09968,0.25528 -0.5302,0.24873 -1.02113,0.64802 v 5.19074 h -1.23059 v -7.31155 h 1.23059 v 1.08005 q 0.73312,-0.58912 1.2895,-0.83131 0.56293,-0.24874 1.1455,-0.24874 0.32074,0 0.46475,0.0196 0.144,0.0131 0.43201,0.0589 z m 7.27883,2.44155 h -5.38712 q 0,0.67421 0.20292,1.17823 0.20292,0.49747 0.55639,0.81821 0.34037,0.31419 0.80512,0.47129 0.47129,0.1571 1.03422,0.1571 0.74621,0 1.49896,-0.29456 0.75931,-0.3011 1.08005,-0.58911 h 0.0654 v 1.34187 q -0.62184,0.26183 -1.26986,0.43856 -0.64803,0.17673 -1.36151,0.17673 -1.81971,0 -2.84084,-0.98185 -1.02112,-0.9884 -1.02112,-2.80156 0,-1.79353 0.9753,-2.84738 0.98186,-1.05386 2.57901,-1.05386 1.47933,0 2.27791,0.86403 0.80512,0.86403 0.80512,2.45464 z m -1.19787,-0.94258 q -0.007,-0.96876 -0.49092,-1.49897 -0.47784,-0.5302 -1.4597,-0.5302 -0.9884,0 -1.57751,0.58257 -0.58257,0.58257 -0.66112,1.4466 z m 9.17707,4.47071 h -1.23059 v -4.16306 q 0,-0.50402 -0.0589,-0.94258 -0.0589,-0.44511 -0.21601,-0.69385 -0.16364,-0.27492 -0.47129,-0.40583 -0.30765,-0.13746 -0.79858,-0.13746 -0.50402,0 -1.05386,0.24874 -0.54983,0.24873 -1.05385,0.63493 v 5.45911 h -1.2306 v -7.31155 h 1.2306 v 0.81167 q 0.57602,-0.47783 1.19131,-0.74621 0.6153,-0.26837 1.26332,-0.26837 1.18478,0 1.80662,0.71348 0.62184,0.71348 0.62184,2.05535 z m 6.16605,-0.0654 q -0.34692,0.0916 -0.7593,0.15055 -0.40583,0.0589 -0.72657,0.0589 -1.11932,0 -1.70189,-0.6022 -0.58256,-0.60221 -0.58256,-1.93099 v -3.88814 h -0.83131 v -1.03423 h 0.83131 v -2.10117 h 1.23059 v 2.10117 h 2.53973 v 1.03423 h -2.53973 v 3.33176 q 0,0.57602 0.0262,0.90331 0.0262,0.32074 0.18328,0.6022 0.14401,0.26183 0.39274,0.3862 0.25529,0.11782 0.7724,0.11782 0.3011,0 0.62838,-0.0851 0.32729,-0.0916 0.4713,-0.15056 h 0.0654 z"
             id="path17" /><path
             style="font-size:13.4056px;font-family:Sans;-inkscape-font-specification:'Sans, Normal'"
             d="m 15.123017,166.3104 h -1.387689 v -1.27641 h 1.387689 z m -0.07855,8.53559 h -1.230592 v -7.31155 h 1.230592 z m 7.658472,-2.10771 q 0,1.00149 -0.831304,1.64297 -0.824759,0.64148 -2.258267,0.64148 -0.811668,0 -1.492421,-0.18983 -0.674207,-0.19637 -1.132406,-0.42547 v -1.38114 H 17.054 q 0.582567,0.43856 1.296049,0.70039 0.713481,0.25528 1.368052,0.25528 0.811667,0 1.269866,-0.26183 0.458199,-0.26182 0.458199,-0.82475 0,-0.43202 -0.248736,-0.65458 -0.248737,-0.22255 -0.955673,-0.37965 -0.261828,-0.0589 -0.687299,-0.13746 -0.418925,-0.0785 -0.765847,-0.17018 -0.962218,-0.25529 -1.368052,-0.74621 -0.399288,-0.49748 -0.399288,-1.2175 0,-0.45166 0.18328,-0.85095 0.189825,-0.39928 0.569476,-0.71348 0.366559,-0.30765 0.92949,-0.48438 0.569476,-0.18328 1.269866,-0.18328 0.65457,0 1.322232,0.16364 0.674208,0.1571 1.119315,0.3862 v 1.31569 h -0.06546 q -0.47129,-0.34693 -1.145498,-0.58257 -0.674207,-0.24219 -1.322232,-0.24219 -0.674207,0 -1.138952,0.26183 -0.464745,0.25528 -0.464745,0.76584 0,0.45166 0.281465,0.68076 0.27492,0.2291 0.890216,0.3731 0.340377,0.0786 0.759302,0.1571 0.42547,0.0786 0.706935,0.144 0.857488,0.19637 1.322232,0.67421 0.464745,0.48438 0.464745,1.28296 z m 12.358287,2.10771 h -5.275837 v -0.99494 h 2.029168 v -6.53261 h -2.029168 v -0.89022 q 0.41238,0 0.88367,-0.0655 0.471291,-0.072 0.713482,-0.20291 0.301102,-0.16365 0.47129,-0.41238 0.176734,-0.25528 0.202917,-0.68076 h 1.014584 v 8.78434 h 1.989894 z m 9.065799,-4.87654 q 0,2.62482 -0.824759,3.85541 -0.818213,1.22405 -2.546278,1.22405 -1.754248,0 -2.565916,-1.24368 -0.805121,-1.24369 -0.805121,-3.82269 0,-2.59865 0.818213,-3.83578 0.818213,-1.24369 2.552824,-1.24369 1.754248,0 2.55937,1.26332 0.811667,1.25678 0.811667,3.80306 z m -1.72152,2.97175 q 0.2291,-0.53021 0.307648,-1.24369 0.08509,-0.72003 0.08509,-1.72806 0,-0.99495 -0.08509,-1.72807 -0.07855,-0.73312 -0.314194,-1.24368 -0.229099,-0.50402 -0.628387,-0.7593 -0.392742,-0.25529 -1.014584,-0.25529 -0.615296,0 -1.02113,0.25529 -0.399288,0.25528 -0.634933,0.77239 -0.222554,0.48438 -0.307648,1.26332 -0.07855,0.77894 -0.07855,1.70843 0,1.02113 0.072,1.70843 0.072,0.68729 0.307648,1.23059 0.216009,0.51056 0.608751,0.77894 0.399288,0.26837 1.053858,0.26837 0.615296,0 1.02113,-0.25528 0.405833,-0.25528 0.628387,-0.77239 z m 12.325556,1.83934 q -0.346922,0.0916 -0.759301,0.15055 -0.405834,0.0589 -0.726573,0.0589 -1.119316,0 -1.701883,-0.6022 -0.582568,-0.60221 -0.582568,-1.93099 v -3.88814 h -0.831304 v -1.03423 h 0.831304 v -2.10117 h 1.230592 v 2.10117 h 2.539733 v 1.03423 H 52.19133 v 3.33176 q 0,0.57602 0.02618,0.90331 0.02618,0.32073 0.18328,0.6022 0.144005,0.26183 0.392742,0.3862 0.255282,0.11782 0.772393,0.11782 0.301102,0 0.628387,-0.0851 0.327286,-0.0916 0.471291,-0.15055 h 0.06546 z m 2.808107,-8.47014 h -1.387689 v -1.27641 h 1.387689 z m -0.07855,8.53559 H 56.23003 v -7.31155 h 1.230592 z m 13.104496,0 h -1.230592 v -4.16306 q 0,-0.47129 -0.04582,-0.90986 -0.03927,-0.43856 -0.176734,-0.70039 -0.150551,-0.28146 -0.432016,-0.42547 -0.281465,-0.144 -0.811667,-0.144 -0.517111,0 -1.034221,0.26183 -0.517111,0.25528 -1.034221,0.65457 0.01964,0.15055 0.03273,0.35346 0.01309,0.19638 0.01309,0.39275 v 4.68017 h -1.230593 v -4.16306 q 0,-0.48438 -0.04582,-0.9164 -0.03928,-0.43856 -0.176734,-0.70039 -0.150552,-0.28147 -0.432017,-0.41893 -0.281465,-0.144 -0.811667,-0.144 -0.504019,0 -1.014584,0.24874 -0.504019,0.24873 -1.008038,0.63493 v 5.45911 h -1.230592 v -7.31155 h 1.230592 v 0.81167 q 0.576022,-0.47783 1.145498,-0.74621 0.576022,-0.26837 1.224046,-0.26837 0.74621,0 1.263321,0.31419 0.523656,0.3142 0.778939,0.87058 0.74621,-0.62839 1.361506,-0.90331 0.615296,-0.28146 1.315686,-0.28146 1.204409,0 1.773886,0.73312 0.576021,0.72657 0.576021,2.03571 z m 8.48978,-3.52813 h -5.387113 q 0,0.67421 0.202917,1.17823 0.202916,0.49747 0.556384,0.81821 0.340377,0.31419 0.805122,0.47129 0.47129,0.1571 1.034221,0.1571 0.74621,0 1.498966,-0.29456 0.759301,-0.3011 1.080041,-0.58911 h 0.06546 v 1.34187 q -0.621842,0.26182 -1.269867,0.43856 -0.648024,0.17673 -1.361506,0.17673 -1.819705,0 -2.840835,-0.98185 -1.021129,-0.9884 -1.021129,-2.80156 0,-1.79353 0.975309,-2.84738 0.981856,-1.05386 2.579007,-1.05386 1.479329,0 2.277905,0.86403 0.805121,0.86403 0.805121,2.45464 z m -1.197863,-0.94258 q -0.0065,-0.96876 -0.490928,-1.49897 -0.477836,-0.5302 -1.459692,-0.5302 -0.988401,0 -1.577514,0.58257 -0.582568,0.58257 -0.661116,1.4466 z m 8.286858,2.363 q 0,1.00149 -0.831304,1.64297 -0.824759,0.64148 -2.258268,0.64148 -0.811667,0 -1.49242,-0.18983 -0.674208,-0.19637 -1.132407,-0.42547 v -1.38114 h 0.06546 q 0.582568,0.43856 1.296049,0.70039 0.713482,0.25528 1.368052,0.25528 0.811668,0 1.269867,-0.26183 0.458199,-0.26182 0.458199,-0.82475 0,-0.43202 -0.248737,-0.65458 -0.248736,-0.22255 -0.955672,-0.37965 -0.261829,-0.0589 -0.687299,-0.13746 -0.418925,-0.0785 -0.765847,-0.17018 -0.962219,-0.25529 -1.368052,-0.74621 -0.399288,-0.49748 -0.399288,-1.2175 0,-0.45166 0.183279,-0.85095 0.189826,-0.39928 0.569477,-0.71348 0.366559,-0.30765 0.929489,-0.48438 0.569477,-0.18328 1.269867,-0.18328 0.65457,0 1.322232,0.16364 0.674207,0.1571 1.119315,0.3862 v 1.31569 h -0.06546 q -0.471291,-0.34693 -1.145498,-0.58257 -0.674207,-0.24219 -1.322232,-0.24219 -0.674207,0 -1.138952,0.26183 -0.464745,0.25528 -0.464745,0.76584 0,0.45166 0.281465,0.68076 0.274919,0.2291 0.890216,0.3731 0.340376,0.0786 0.759301,0.1571 0.425471,0.0786 0.706936,0.144 0.857487,0.19637 1.322232,0.67421 0.464745,0.48438 0.464745,1.28296 z m 12.155373,2.10771 H 97.07522 v -0.77893 q -0.163643,0.11127 -0.445108,0.31419 -0.27492,0.19637 -0.536748,0.31419 -0.307648,0.15055 -0.706936,0.24874 -0.399287,0.10473 -0.936035,0.10473 -0.988401,0 -1.6757,-0.65457 -0.687299,-0.65457 -0.687299,-1.66915 0,-0.83131 0.353468,-1.34187 0.360014,-0.51711 1.02113,-0.81167 0.667661,-0.29456 1.603697,-0.39929 0.936035,-0.10473 2.009531,-0.15709 v -0.18983 q 0,-0.41892 -0.150551,-0.69384 -0.144006,-0.27492 -0.418925,-0.43202 -0.261829,-0.15055 -0.628388,-0.20292 -0.366559,-0.0524 -0.765847,-0.0524 -0.484382,0 -1.080041,0.13091 -0.595659,0.12437 -1.230592,0.36656 h -0.06546 v -1.25023 q 0.360013,-0.0982 1.040766,-0.21601 0.680754,-0.11782 1.34187,-0.11782 0.772393,0 1.341869,0.13091 0.576022,0.12437 0.994947,0.43202 0.412379,0.3011 0.628387,0.77894 0.216008,0.47784 0.216008,1.18477 z m -1.224046,-1.80006 v -2.03572 q -0.562931,0.0327 -1.328778,0.0982 -0.759301,0.0655 -1.204409,0.18982 -0.530202,0.15055 -0.857487,0.47129 -0.327286,0.3142 -0.327286,0.87058 0,0.62839 0.379651,0.94913 0.379651,0.31419 1.15859,0.31419 0.648024,0 1.184772,-0.24873 0.536748,-0.25529 0.994947,-0.60875 z m 14.26308,1.80006 h -1.23059 v -4.16306 q 0,-0.47129 -0.0458,-0.90986 -0.0393,-0.43856 -0.17674,-0.70039 -0.15055,-0.28146 -0.43201,-0.42547 -0.28147,-0.144 -0.81167,-0.144 -0.51711,0 -1.03422,0.26183 -0.51711,0.25528 -1.03422,0.65457 0.0196,0.15055 0.0327,0.35346 0.0131,0.19638 0.0131,0.39275 v 4.68017 h -1.23059 v -4.16306 q 0,-0.48438 -0.0458,-0.9164 -0.0393,-0.43856 -0.17674,-0.70039 -0.15055,-0.28147 -0.43201,-0.41893 -0.28147,-0.144 -0.81167,-0.144 -0.50402,0 -1.01459,0.24874 -0.50401,0.24873 -1.00803,0.63493 v 5.45911 h -1.2306 v -7.31155 h 1.2306 v 0.81167 q 0.57602,-0.47783 1.14549,-0.74621 0.57603,-0.26837 1.22405,-0.26837 0.74621,0 1.26332,0.31419 0.52366,0.3142 0.77894,0.87058 0.74621,-0.62839 1.36151,-0.90331 0.61529,-0.28146 1.31568,-0.28146 1.20441,0 1.77389,0.73312 0.57602,0.72657 0.57602,2.03571 z m 8.60105,-3.6525 q 0,1.78698 -0.9164,2.8212 -0.91639,1.03422 -2.45463,1.03422 -1.55134,0 -2.46773,-1.03422 -0.90986,-1.03422 -0.90986,-2.8212 0,-1.78697 0.90986,-2.8212 0.91639,-1.04076 2.46773,-1.04076 1.53824,0 2.45463,1.04076 0.9164,1.03423 0.9164,2.8212 z m -1.26986,0 q 0,-1.42042 -0.55639,-2.10771 -0.55638,-0.69385 -1.54478,-0.69385 -1.0015,0 -1.55788,0.69385 -0.54984,0.68729 -0.54984,2.10771 0,1.3746 0.55638,2.08808 0.55639,0.70694 1.55134,0.70694 0.98185,0 1.53824,-0.70039 0.56293,-0.70694 0.56293,-2.09463 z m 9.23599,3.6525 h -1.23059 v -0.81166 q -0.62184,0.49093 -1.19132,0.75275 -0.56948,0.26183 -1.25678,0.26183 -1.15204,0 -1.79352,-0.70039 -0.64148,-0.70693 -0.64148,-2.06844 v -4.74564 h 1.2306 v 4.16307 q 0,0.55639 0.0524,0.95567 0.0524,0.39275 0.22255,0.67421 0.17674,0.28801 0.4582,0.41893 0.28147,0.13091 0.81822,0.13091 0.47783,0 1.04076,-0.24874 0.56948,-0.24873 1.06041,-0.63493 v -5.45912 h 1.23059 z m 8.5356,0 h -1.2306 v -4.16306 q 0,-0.50402 -0.0589,-0.94258 -0.0589,-0.44511 -0.21601,-0.69385 -0.16364,-0.27492 -0.47129,-0.40583 -0.30764,-0.13746 -0.79857,-0.13746 -0.50402,0 -1.05386,0.24874 -0.54984,0.24873 -1.05386,0.63493 v 5.45911 h -1.23059 v -7.31155 h 1.23059 v 0.81167 q 0.57602,-0.47783 1.19132,-0.74621 0.6153,-0.26837 1.26332,-0.26837 1.18477,0 1.80661,0.71348 0.62185,0.71348 0.62185,2.05535 z m 6.16605,-0.0654 q -0.34692,0.0916 -0.7593,0.15055 -0.40584,0.0589 -0.72658,0.0589 -1.11931,0 -1.70188,-0.6022 -0.58257,-0.60221 -0.58257,-1.93099 v -3.88814 h -0.8313 v -1.03423 h 0.8313 v -2.10117 h 1.23059 v 2.10117 h 2.53974 v 1.03423 h -2.53974 v 3.33176 q 0,0.57602 0.0262,0.90331 0.0262,0.32073 0.18328,0.6022 0.144,0.26183 0.39274,0.3862 0.25528,0.11782 0.77239,0.11782 0.3011,0 0.62839,-0.0851 0.32728,-0.0916 0.47129,-0.15055 h 0.0655 z"
             id="path18" /><path
             style="font-size:13.4056px;font-family:Sans;-inkscape-font-specification:'Sans, Normal'"
             d="m 19.024256,194.18724 q 0,1.00149 -0.831304,1.64297 -0.824758,0.64148 -2.258267,0.64148 -0.811668,0 -1.492421,-0.18983 -0.674207,-0.19637 -1.132406,-0.42547 v -1.38114 h 0.06546 q 0.582567,0.43856 1.296049,0.70039 0.713482,0.25528 1.368052,0.25528 0.811667,0 1.269866,-0.26183 0.458199,-0.26182 0.458199,-0.82476 0,-0.43201 -0.248736,-0.65457 -0.248737,-0.22255 -0.955673,-0.37965 -0.261828,-0.0589 -0.687299,-0.13746 -0.418925,-0.0785 -0.765847,-0.17018 -0.962218,-0.25529 -1.368052,-0.74621 -0.399288,-0.49748 -0.399288,-1.21751 0,-0.45165 0.18328,-0.85094 0.189825,-0.39928 0.569476,-0.71348 0.366559,-0.30765 0.92949,-0.48438 0.569476,-0.18328 1.269866,-0.18328 0.654571,0 1.322232,0.16364 0.674208,0.1571 1.119315,0.3862 v 1.31569 h -0.06546 q -0.47129,-0.34693 -1.145498,-0.58257 -0.674207,-0.24219 -1.322232,-0.24219 -0.674207,0 -1.138952,0.26183 -0.464745,0.25528 -0.464745,0.76584 0,0.45166 0.281465,0.68076 0.27492,0.22909 0.890216,0.3731 0.340377,0.0786 0.759302,0.1571 0.42547,0.0786 0.706935,0.144 0.857488,0.19637 1.322232,0.67421 0.464745,0.48438 0.464745,1.28296 z m 7.874481,2.10771 h -1.230592 v -4.16306 q 0,-0.50402 -0.05891,-0.94258 -0.05891,-0.44511 -0.216008,-0.69385 -0.163642,-0.27492 -0.47129,-0.40583 -0.307648,-0.13746 -0.798576,-0.13746 -0.504019,0 -1.053858,0.24873 -0.549839,0.24874 -1.053859,0.63494 v 5.45911 H 20.78505 v -10.18511 h 1.230592 v 3.68523 q 0.576022,-0.47784 1.191318,-0.74621 0.615296,-0.26837 1.263321,-0.26837 1.184772,0 1.806614,0.71348 0.621842,0.71348 0.621842,2.05535 z m 8.601053,-3.6525 q 0,1.78698 -0.916399,2.8212 -0.916398,1.03422 -2.454638,1.03422 -1.551332,0 -2.46773,-1.03422 -0.909853,-1.03422 -0.909853,-2.8212 0,-1.78697 0.909853,-2.8212 0.916398,-1.04076 2.46773,-1.04076 1.53824,0 2.454638,1.04076 0.916399,1.03423 0.916399,2.8212 z m -1.269867,0 q 0,-1.42042 -0.556385,-2.10771 -0.556384,-0.69385 -1.544785,-0.69385 -1.001493,0 -1.557878,0.69385 -0.549839,0.68729 -0.549839,2.10771 0,1.3746 0.556385,2.08808 0.556385,0.70694 1.551332,0.70694 0.981855,0 1.53824,-0.70039 0.56293,-0.70694 0.56293,-2.09463 z m 12.371379,-3.65905 -1.9048,7.31155 H 43.55755 l -1.878617,-5.63585 -1.865525,5.63585 h -1.132407 l -1.924437,-7.31155 h 1.282958 l 1.341869,5.66204 1.826251,-5.66204 h 1.014584 l 1.872071,5.66204 1.269867,-5.66204 z m 7.887572,7.31155 h -1.230592 v -4.16306 q 0,-0.50402 -0.05891,-0.94258 -0.05891,-0.44511 -0.216008,-0.69385 -0.163642,-0.27492 -0.47129,-0.40583 -0.307648,-0.13746 -0.798576,-0.13746 -0.504019,0 -1.053858,0.24873 -0.549839,0.24874 -1.053859,0.63494 v 5.45911 h -1.230592 v -7.31155 h 1.230592 v 0.81167 q 0.576022,-0.47784 1.191318,-0.74621 0.615296,-0.26837 1.263321,-0.26837 1.184772,0 1.806614,0.71348 0.621842,0.71348 0.621842,2.05535 z m 13.313959,-3.6525 q 0,1.78698 -0.916398,2.8212 -0.916399,1.03422 -2.454639,1.03422 -1.551332,0 -2.46773,-1.03422 -0.909853,-1.03422 -0.909853,-2.8212 0,-1.78697 0.909853,-2.8212 0.916398,-1.04076 2.46773,-1.04076 1.53824,0 2.454639,1.04076 0.916398,1.03423 0.916398,2.8212 z m -1.269866,0 q 0,-1.42042 -0.556385,-2.10771 -0.556385,-0.69385 -1.544786,-0.69385 -1.001493,0 -1.557877,0.69385 -0.549839,0.68729 -0.549839,2.10771 0,1.3746 0.556384,2.08808 0.556385,0.70694 1.551332,0.70694 0.981855,0 1.53824,-0.70039 0.562931,-0.70694 0.562931,-2.09463 z m 9.288354,3.6525 h -1.230592 v -4.16306 q 0,-0.50402 -0.05891,-0.94258 -0.05891,-0.44511 -0.216008,-0.69385 -0.163642,-0.27492 -0.47129,-0.40583 -0.307648,-0.13746 -0.798576,-0.13746 -0.504019,0 -1.053858,0.24873 -0.549839,0.24874 -1.053859,0.63494 v 5.45911 h -1.230592 v -7.31155 h 1.230592 v 0.81167 q 0.576022,-0.47784 1.191318,-0.74621 0.615297,-0.26837 1.263321,-0.26837 1.184772,0 1.806614,0.71348 0.621842,0.71348 0.621842,2.05535 z m 13.012853,0 h -1.230592 v -0.76584 q -0.530202,0.4582 -1.106224,0.71348 -0.576022,0.25528 -1.250229,0.25528 -1.309141,0 -2.081534,-1.00804 -0.765847,-1.00804 -0.765847,-2.79501 0,-0.92949 0.261828,-1.65607 0.268374,-0.72657 0.720027,-1.23713 0.445108,-0.49748 1.034221,-0.7593 0.595659,-0.26183 1.230593,-0.26183 0.576021,0 1.021129,0.12437 0.445108,0.11782 0.936036,0.3731 v -3.16812 h 1.230592 z m -1.230592,-1.80006 v -4.1958 q -0.497474,-0.22255 -0.890216,-0.30765 -0.392742,-0.0851 -0.857487,-0.0851 -1.034221,0 -1.610243,0.72003 -0.576022,0.72002 -0.576022,2.04225 0,1.3026 0.445108,1.98335 0.445108,0.67421 1.426963,0.67421 0.523657,0 1.060404,-0.2291 0.536748,-0.23564 1.001493,-0.6022 z m 4.974735,-6.73553 h -1.387689 v -1.27641 h 1.387689 z m -0.07855,8.53559 h -1.230592 v -7.31155 h 1.230592 z m 7.841752,-0.45819 q -0.615293,0.29455 -1.171677,0.45819 -0.549839,0.16365 -1.171681,0.16365 -0.79203,0 -1.453146,-0.2291 -0.661116,-0.23565 -1.132407,-0.70694 -0.477836,-0.47129 -0.739664,-1.19132 -0.261828,-0.72002 -0.261828,-1.68224 0,-1.79352 0.981855,-2.81465 0.988401,-1.02113 2.60519,-1.02113 0.628387,0 1.230592,0.17673 0.60875,0.17673 1.112766,0.43202 v 1.36805 h -0.0654 q -0.562934,-0.43856 -1.165139,-0.67421 -0.595659,-0.23564 -1.165135,-0.23564 -1.047312,0 -1.656063,0.70693 -0.602204,0.70039 -0.602204,2.0619 0,1.32223 0.589113,2.03571 0.595659,0.70694 1.669154,0.70694 0.373105,0 0.759302,-0.0982 0.386196,-0.0982 0.693844,-0.25528 0.268374,-0.13746 0.504019,-0.28801 0.235649,-0.1571 0.373109,-0.26838 h 0.0654 z m 7.69775,-3.06994 h -5.38712 q 0,0.67421 0.20292,1.17823 0.20292,0.49747 0.55638,0.81821 0.34038,0.31419 0.80513,0.47129 0.47129,0.1571 1.03422,0.1571 0.74621,0 1.49896,-0.29456 0.7593,-0.3011 1.08004,-0.58911 h 0.0655 v 1.34187 q -0.62184,0.26182 -1.26987,0.43856 -0.64802,0.17673 -1.3615,0.17673 -1.81971,0 -2.84084,-0.98185 -1.02113,-0.9884 -1.02113,-2.80156 0,-1.79353 0.97531,-2.84738 0.98186,-1.05386 2.57901,-1.05386 1.47933,0 2.2779,0.86403 0.80513,0.86403 0.80513,2.45464 z m -1.19787,-0.94258 q -0.007,-0.96876 -0.49093,-1.49897 -0.47783,-0.5302 -1.45969,-0.5302 -0.9884,0 -1.57751,0.58257 -0.58257,0.58257 -0.66112,1.4466 z m 5.07293,4.47071 h -1.56443 v -1.86552 h 1.56443 z"
             id="path19" /></g></g></g><g
       id="g1"
       transform="translate(0,5.2916669)"><path
         style="fill:none;stroke:#000000;stroke-width:0.8;stroke-linecap:butt;stroke-linejoin:miter;stroke-dasharray:none;stroke-opacity:1"
         d="M 15.839519,108.9797 H 184.16048"
         id="path23" /><path
         style="fill:none;stroke:#000000;stroke-width:0.8;stroke-linecap:butt;stroke-linejoin:miter;stroke-dasharray:none;stroke-opacity:1"
         d="M 15.839519,80.933801 H 184.16048"
         id="path1" /><path
         style="font-weight:bold;font-size:14.317px;font-family:Sans;-inkscape-font-specification:'Sans, Bold';text-align:center;text-anchor:middle;stroke-width:0.264583"
         d="m 48.08015,92.850306 q -1.16046,0 -2.146152,-0.342545 -0.978701,-0.342545 -1.684764,-1.020646 -0.706063,-0.6781 -1.097543,-1.691755 -0.38449,-1.013654 -0.38449,-2.341892 0,-1.237358 0.370508,-2.244022 0.370509,-1.006664 1.076572,-1.726708 0.6781,-0.692082 1.677773,-1.069581 1.006664,-0.377499 2.195087,-0.377499 0.657128,0 1.181432,0.0769 0.531295,0.06991 0.978701,0.18875 0.468379,0.132823 0.845878,0.300601 0.38449,0.160786 0.671109,0.300601 v 2.523651 h -0.307592 q -0.19574,-0.167778 -0.496341,-0.398472 -0.29361,-0.230693 -0.671109,-0.454397 -0.38449,-0.223703 -0.831896,-0.377499 -0.447407,-0.153795 -0.957729,-0.153795 -0.566249,0 -1.076572,0.181758 -0.510322,0.174768 -0.943747,0.587221 -0.412453,0.398471 -0.67111,1.055599 -0.251666,0.657128 -0.251666,1.593885 0,0.978701 0.272639,1.635829 0.279628,0.657128 0.699072,1.034627 0.426434,0.38449 0.950738,0.552267 0.524304,0.160787 1.034627,0.160787 0.489351,0 0.96472,-0.146805 0.48236,-0.146805 0.887822,-0.398471 0.342545,-0.202731 0.636155,-0.433425 0.293611,-0.230694 0.48236,-0.398472 h 0.279629 v 2.488698 q -0.39148,0.174768 -0.748007,0.328564 -0.356527,0.153796 -0.748007,0.265647 -0.510323,0.146805 -0.95773,0.223703 -0.447406,0.0769 -1.230367,0.0769 z m 15.27473,-0.202731 h -2.775317 l -0.720045,-2.104207 h -3.858879 l -0.720044,2.104207 h -2.70541 l 3.844898,-10.409186 h 3.089899 z M 59.209381,88.6349 57.930079,84.901854 56.650777,88.6349 Z m 16.554033,4.012675 h -2.670456 v -6.96975 l -1.929439,4.522997 h -1.852542 l -1.92944,-4.522997 v 6.96975 H 64.850896 V 82.238389 h 3.117862 l 2.341892,5.22207 2.334902,-5.22207 h 3.117862 z m 11.248073,-7.123546 q 0,0.699072 -0.244675,1.370181 -0.244676,0.664119 -0.699073,1.118516 -0.622174,0.615184 -1.391154,0.929766 -0.761988,0.314583 -1.901476,0.314583 h -1.670783 v 3.3905 H 78.419888 V 82.238389 h 4.418137 q 0.992683,0 1.670783,0.174768 0.685091,0.167777 1.209395,0.510323 0.629165,0.412453 0.957729,1.055599 0.335555,0.643147 0.335555,1.54495 z m -2.775317,0.06292 q 0,-0.440415 -0.237685,-0.754998 -0.237684,-0.321573 -0.552267,-0.447406 -0.419443,-0.167777 -0.817914,-0.181759 -0.398472,-0.02097 -1.06259,-0.02097 h -0.461388 v 3.117862 h 0.76898 q 0.68509,0 1.125506,-0.08389 0.447406,-0.08389 0.748007,-0.335555 0.258657,-0.223703 0.370509,-0.531295 0.118842,-0.314582 0.118842,-0.761989 z m 13.792694,3.292631 q 0,1.929439 -1.174442,2.957076 -1.174441,1.027636 -3.460408,1.027636 -2.285966,0 -3.460408,-1.027636 -1.16745,-1.027637 -1.16745,-2.950086 v -6.648177 h 2.698419 v 6.494382 q 0,1.083562 0.454397,1.614857 0.454397,0.531294 1.475042,0.531294 1.006664,0 1.468052,-0.510322 0.468379,-0.510323 0.468379,-1.635829 v -6.494382 h 2.698419 z m 10.842606,0.496341 q 0,1.537959 -1.30726,2.502679 -1.30027,0.957729 -3.53731,0.957729 -1.29328,0 -2.258,-0.223703 -0.95773,-0.230694 -1.796615,-0.58023 v -2.495688 h 0.293605 q 0.8319,0.664118 1.85954,1.020645 1.03462,0.356527 1.98536,0.356527 0.24468,0 0.64315,-0.04194 0.39847,-0.04194 0.65014,-0.139815 0.30759,-0.125833 0.50333,-0.314582 0.20273,-0.18875 0.20273,-0.559258 0,-0.342545 -0.29361,-0.587221 -0.28662,-0.251666 -0.84588,-0.38449 -0.58722,-0.139814 -1.24435,-0.258656 -0.65013,-0.125833 -1.22337,-0.314583 -1.31426,-0.426434 -1.89449,-1.153469 -0.57324,-0.734026 -0.57324,-1.817588 0,-1.45407 1.30028,-2.369855 1.30726,-0.922775 3.35554,-0.922775 1.02764,0 2.02731,0.202731 1.00667,0.19574 1.74069,0.496341 v 2.397818 h -0.28662 q -0.62916,-0.503332 -1.54495,-0.838887 -0.90879,-0.342545 -1.85953,-0.342545 -0.33555,0 -0.67111,0.04894 -0.32856,0.04194 -0.63615,0.167777 -0.27264,0.104861 -0.46838,0.321573 -0.19574,0.209722 -0.19574,0.48236 0,0.412453 0.31458,0.636156 0.31458,0.216712 1.18842,0.398471 0.57324,0.118842 1.09755,0.230694 0.53129,0.111852 1.13948,0.307592 1.19542,0.39148 1.76167,1.06958 0.57323,0.67111 0.57323,1.747681 z m 15.06501,0 q 0,1.537959 -1.30726,2.502679 -1.30027,0.957729 -3.53731,0.957729 -1.29328,0 -2.258,-0.223703 -0.95773,-0.230694 -1.79662,-0.58023 v -2.495688 h 0.29362 q 0.83189,0.664118 1.85953,1.020645 1.03462,0.356527 1.98536,0.356527 0.24468,0 0.64315,-0.04194 0.39847,-0.04194 0.65014,-0.139815 0.30759,-0.125833 0.50333,-0.314582 0.20273,-0.18875 0.20273,-0.559258 0,-0.342545 -0.29361,-0.587221 -0.28662,-0.251666 -0.84588,-0.38449 -0.58722,-0.139814 -1.24435,-0.258656 -0.65013,-0.125833 -1.22337,-0.314583 -1.31426,-0.426434 -1.89449,-1.153469 -0.57324,-0.734026 -0.57324,-1.817588 0,-1.45407 1.30028,-2.369855 1.30726,-0.922775 3.35554,-0.922775 1.02764,0 2.02731,0.202731 1.00667,0.19574 1.74069,0.496341 v 2.397818 h -0.28662 q -0.62916,-0.503332 -1.54495,-0.838887 -0.90879,-0.342545 -1.85953,-0.342545 -0.33555,0 -0.67111,0.04894 -0.32856,0.04194 -0.63615,0.167777 -0.27264,0.104861 -0.46838,0.321573 -0.19574,0.209722 -0.19574,0.48236 0,0.412453 0.31458,0.636156 0.31458,0.216712 1.18842,0.398471 0.57324,0.118842 1.09755,0.230694 0.53129,0.111852 1.13948,0.307592 1.19542,0.39148 1.76167,1.06958 0.57323,0.67111 0.57323,1.747681 z m 11.4578,3.271658 h -2.77532 l -0.72004,-2.104207 h -3.85888 l -0.72005,2.104207 h -2.70541 l 3.8449,-10.409186 h 3.0899 z m -4.1455,-4.012675 -1.2793,-3.733046 -1.2793,3.733046 z m 13.10062,-4.383183 h -4.78865 v 1.93643 h 4.43911 v 2.013329 h -4.43911 v 4.446099 h -2.67046 V 82.238389 h 7.45911 z m 9.38155,8.395858 h -7.52901 V 82.238389 h 7.52901 v 2.013328 h -4.85855 v 1.796616 h 4.50901 v 2.013328 h -4.50901 v 2.572586 h 4.85855 z m 10.3952,-8.395858 h -3.25068 v 8.395858 h -2.68444 v -8.395858 h -3.25069 v -2.013328 h 9.18581 z m 10.77271,-2.013328 -3.83791,6.38253 v 4.026656 h -2.68444 v -3.900823 l -3.90082,-6.508363 h 3.04795 l 2.25102,4.026656 2.17411,-4.026656 z"
         id="text2"
         transform="scale(0.91487264,1.0930483)"
         aria-label="CAMPUS SAFETY" /><text
         xml:space="preserve"
         style="font-style:normal;font-weight:normal;font-size:14.317px;font-family:sans-serif;display:none;fill:#000000;fill-opacity:1;stroke:none;stroke-width:0.264583"
         x="108.50446"
         y="92.647575"
         id="text2-9"
         transform="scale(0.91487265,1.0930483)"><tspan
           sodipodi:role="line"
           id="tspan1-4"
           style="font-style:normal;font-variant:normal;font-weight:bold;font-stretch:normal;font-size:14.317px;font-family:Sans;-inkscape-font-specification:'Sans, Bold';font-variant-ligatures:normal;font-variant-caps:normal;font-variant-numeric:normal;font-variant-east-asian:normal;text-align:center;text-anchor:middle;stroke-width:0.264583"
           x="108.50446"
           y="92.647575">CAMPUS SAFETY</tspan></text></g><g
       style="clip-rule:evenodd;fill-rule:evenodd;image-rendering:optimizeQuality;shape-rendering:geometricPrecision;text-rendering:geometricPrecision"
       id="g7"
       transform="matrix(0.10666885,0,0,0.10666885,80.906276,26.638543)" /><path
       class="cls-1"
       d="m 123.11855,73.938694 -13.38445,-5.499223 0.13311,-5.228306 13.25138,5.347121 v 5.366144 z m -21.44079,-6.145643 0.83653,5.285342 4.44405,-10.741774 -5.88421,1.71108 2.20064,2.176871 -1.57324,1.568481 z m -3.75486,4.985899 0.84128,-4.928863 -1.62554,-1.625517 2.07233,-2.072302 -5.613304,-1.739607 z m -10.808332,-31.726261 0.09036,-0.07132 v 0 a 0.32795699,0.32795699 0 0 1 0.294683,-0.361222 h 0.261413 c 1.829913,-1.088444 5.147504,-1.801403 8.831076,-2.077062 a 6.3024778,6.3024778 0 0 0 3.4079,2.809009 6.5306218,6.5306218 0 0 0 3.42692,-2.809009 c 3.43167,0.261413 6.61142,0.950588 8.67423,2.077062 h 0.30419 a 0.32795699,0.32795699 0 0 1 0.33271,0.327953 0.10456599,0.10456599 0 0 1 0,0.04275 v 0 l 0.0855,0.05713 -0.095,0.07599 -0.10455,1.093187 0.15683,1.449667 a 1.383123,1.383123 0 0 1 0.43252,0.199617 1.6445379,1.6445379 0 0 1 0.51332,0.579881 2.6854449,2.6854449 0 0 1 0.28518,0.950588 5.3281129,5.3281129 0 0 1 0,1.173989 v 0.02856 a 8.3320087,8.3320087 0 0 1 -0.19011,1.135978 9.0021817,9.0021817 0 0 1 -0.37074,1.135959 v 0 a 5.8366838,5.8366838 0 0 1 -1.06468,1.791883 2.3765,2.3765 0 0 1 -1.18824,0.760474 l -0.095,0.313707 c -0.0476,0.161676 -0.1094,0.346958 -0.1473,0.508563 -0.47531,1.625535 -0.86504,2.904093 -1.86318,4.177891 -0.22339,0.275677 -0.4753,0.546594 -0.70344,0.803265 -0.1712,0.175868 -0.34698,0.342216 -0.52759,0.508563 a 0.64640798,0.64640798 0 0 1 0,0.137785 v 2.8518 a 0.95059998,0.95059998 0 0 1 0.789,-0.03808 l 15.6849,6.335756 a 0.95059998,0.95059998 0 0 1 0.66067,0.907816 v 5.91748 a 9.8624748,9.8624748 0 0 1 1.12171,3.194016 c 0.32319,1.654044 0.43726,1.126475 0.43726,2.661686 a 0.95059998,0.95059998 0 0 1 -0.95058,0.950606 H 74.785397 a 0.95059998,0.95059998 0 0 1 -0.950605,-0.898313 c -0.08084,-1.487696 0,-0.884066 0.318449,-2.46205 a 9.2588437,9.2588437 0 0 1 1.212019,-3.232046 v -6.140882 0 a 0.95059998,0.95059998 0 0 1 0.598887,-0.884049 l 15.836984,-6.326253 h 0.04761 a 1.088437,1.088437 0 0 1 0.175868,-0.05695 v -2.8518 a 0.65591398,0.65591398 0 0 1 0.06647,-0.294683 l -0.289922,-0.28518 q -0.28994,-0.299443 -0.556114,-0.598869 v 0 A 9.2018077,9.2018077 0 0 1 89.84767,54.375362 C 89.491182,53.524567 89.191739,52.673787 88.868529,51.723181 L 88.702181,51.21936 a 1.977248,1.977248 0 0 1 -1.031408,-0.475294 4.1065919,4.1065919 0 0 1 -0.998121,-1.326091 7.5144928,7.5144928 0 0 1 -0.475294,-1.250032 8.8405798,8.8405798 0 0 1 -0.275677,-1.359361 5.4516908,5.4516908 0 0 1 0,-1.364103 2.6997039,2.6997039 0 0 1 0.346958,-1.074181 v 0 a 1.749104,1.749104 0 0 1 0.518085,-0.537091 1.311828,1.311828 0 0 1 0.427761,-0.175868 l 0.118922,-1.212002 -0.128264,-1.235786 z m 33.746312,27.961885 a 1.37837,1.37837 0 1 1 -1.37837,1.373624 1.373617,1.373617 0 0 1 1.37837,-1.373624 z m -41.384375,0 a 1.37837,1.37837 0 1 1 -1.39263,1.373624 1.373617,1.373617 0 0 1 1.378367,-1.373624 z m 11.074487,-5.755876 0.133114,5.180773 -13.408202,5.508726 v -5.385151 z m 16.003358,-4.467814 c -0.25192,0.152156 -0.62266,0.375486 -0.95061,0.556097 a 4.2159109,4.2159109 0 0 1 -0.59887,0.294683 11.925277,11.925277 0 0 1 -2.50484,0.879306 10.12389,10.12389 0 0 1 -2.50958,0.275677 10.014571,10.014571 0 0 1 -2.01051,-0.247168 h -0.0286 A 12.8331,12.8331 0 0 1 95.936069,59.91258 14.16394,14.16394 0 0 1 94.533936,59.275681 c -0.399255,-0.204377 -0.803268,-0.437282 -1.20252,-0.693935 v 2.376506 l 6.616184,2.058039 6.60191,-1.901194 V 58.790884 Z M 87.157341,38.742722 v -2.580883 l -2.091308,-2.324213 c -2.989639,-3.327094 -2.376506,-3.222525 0.789001,-4.120855 4.638922,-1.283301 7.780644,-4.135101 10.513626,-5.926984 3.10372,-2.048535 4.05431,-2.048535 7.15802,0 2.73298,1.791883 5.8747,4.643683 10.51364,5.926984 3.17976,0.89833 3.77863,0.793761 0.78899,4.120855 l -2.09131,2.324213 v 2.580883 a 37.206482,37.206482 0 0 0 -8.5554,-2.138841 12.59545,12.59545 0 0 0 0.37072,-3.892711 c -1.32607,0.118742 -2.85179,-0.39451 -4.58664,-1.478194 v 0 a 6.5733988,6.5733988 0 0 1 -4.572389,1.4259 13.845489,13.845489 0 0 0 0.39451,3.940245 37.030621,37.030621 0 0 0 -8.63146,2.153104 z m 2.989638,4.396532 -0.399252,2.376488 a 0.32795699,0.32795699 0 0 1 -0.380228,0.270935 0.26141499,0.26141499 0 0 1 -0.123593,-0.0476 l -1.178732,-0.774738 h -0.0618 c -0.199617,-0.03323 -0.346959,-0.0476 -0.475294,0.171019 a 1.316581,1.316581 0 0 0 -0.152156,0.551336 4.2491819,4.2491819 0 0 0 0,0.950606 6.5496338,6.5496338 0 0 0 0.21388,1.097947 5.7986599,5.7986599 0 0 0 0.385007,0.998121 2.6569269,2.6569269 0 0 0 0.613132,0.850797 0.47529998,0.47529998 0 0 0 0.413516,0.133114 v 0 a 0.72720898,0.72720898 0 0 1 0.522827,0.0618 0.75097399,0.75097399 0 0 1 0.361222,0.418258 v 0 l 0.209138,0.613132 0.152156,0.475312 c 0.598887,1.768116 1.055175,3.127459 2.086583,4.334736 v 0 a 9.7769208,9.7769208 0 0 0 1.535212,1.4259 11.611579,11.611579 0 0 0 1.901194,1.17399 h 0.02856 c 0.128263,0.06647 0.261413,0.123593 0.394509,0.185353 l 0.42776,0.171018 v 0 a 10.508883,10.508883 0 0 0 1.70632,0.475312 9.4156927,9.4156927 0 0 0 1.69208,0.171198 9.6913668,9.6913668 0 0 0 1.95823,-0.185371 10.584931,10.584931 0 0 0 1.90119,-0.589366 l 0.3755,-0.171019 v 0 a 10.651473,10.651473 0 0 0 1.95823,-1.216779 9.6580957,9.6580957 0 0 0 1.71108,-1.535212 6.6019168,6.6019168 0 0 0 0.95061,-1.658804 c 0.24715,-0.613133 0.44677,-1.278559 0.66541,-2.024769 l 0.0713,-0.237647 c 0.0999,-0.327971 0.19964,-0.67969 0.31845,-1.045672 a 0.76523299,0.76523299 0 0 1 0.30895,-0.442025 v 0 a 0.76998598,0.76998598 0 0 1 0.51809,-0.104551 v 0 c 0.16167,0.02371 0.34695,-0.09988 0.54183,-0.318449 a 4.6294219,4.6294219 0 0 0 0.76047,-1.354601 7.6856008,7.6856008 0 0 0 0.30421,-0.950606 6.8823439,6.8823439 0 0 0 0.15682,-0.950588 v -0.02856 a 3.9544958,3.9544958 0 0 0 0,-0.750989 1.364111,1.364111 0 0 0 -0.12826,-0.475294 v 0 c -0.0904,-0.156826 -0.16635,-0.242407 -0.23765,-0.266174 a 0.47529998,0.47529998 0 0 0 -0.3042,0 l -0.43727,0.280438 a 3.4934549,3.4934549 0 0 1 -1.23102,0.584623 0.33270998,0.33270998 0 0 1 -0.41352,-0.223401 0.280427,0.280427 0 0 1 0,-0.06647 l -0.22338,-2.519087 c -5.88423,2.552356 -14.311295,2.476314 -19.397002,0.171198 z"
       id="path1-1"
       style="stroke-width:0.264582" /></g></svg>
