<?xml version="1.0" encoding="UTF-8" standalone="no"?>
<svg
   shape-rendering="geometricPrecision"
   text-rendering="geometricPrecision"
   image-rendering="optimizeQuality"
   fill-rule="evenodd"
   clip-rule="evenodd"
   viewBox="0 0 478 512.29"
   version="1.1"
   id="svg1"
   sodipodi:docname="descending-filter-icon.svg"
   inkscape:version="1.3 (0e150ed6c4, 2023-07-21)"
   xmlns:inkscape="http://www.inkscape.org/namespaces/inkscape"
   xmlns:sodipodi="http://sodipodi.sourceforge.net/DTD/sodipodi-0.dtd"
   xmlns="http://www.w3.org/2000/svg"
   xmlns:svg="http://www.w3.org/2000/svg">
  <defs
     id="defs1" />
  <sodipodi:namedview
     id="namedview1"
     pagecolor="#ffffff"
     bordercolor="#666666"
     borderopacity="1.0"
     inkscape:showpageshadow="2"
     inkscape:pageopacity="0.0"
     inkscape:pagecheckerboard="0"
     inkscape:deskcolor="#d1d1d1"
     inkscape:zoom="2.3756077"
     inkscape:cx="238.88625"
     inkscape:cy="256.14499"
     inkscape:window-width="2400"
     inkscape:window-height="1494"
     inkscape:window-x="-11"
     inkscape:window-y="-11"
     inkscape:window-maximized="1"
     inkscape:current-layer="svg1" />
  <path
     fill-rule="nonzero"
     d="m 50.981834,83.145495 c -4.815787,0 -9.530341,3.659613 -9.530341,7.409308 v 63.733577 c 0,3.79474 4.251776,7.46561 9.530341,7.46561 H 427.03263 c 5.27856,0 9.51589,-3.67087 9.51589,-7.46561 V 90.554803 c 0,-3.749695 -4.70011,-7.409308 -9.51589,-7.409308 z"
     id="path1"
     sodipodi:nodetypes="sssssssss"
     style="stroke-width:1" />
  <path
     fill-rule="nonzero"
     d="m 111.88458,216.84075 c -3.25586,0 -6.44327,3.65962 -6.44327,7.40931 v 63.73357 c 0,3.79473 2.87454,7.46561 6.44327,7.46561 H 366.1252 c 3.56873,0 6.4335,-3.67088 6.4335,-7.46561 v -63.73357 c 0,-3.74969 -3.17765,-7.40931 -6.4335,-7.40931 z"
     id="path1-2"
     sodipodi:nodetypes="sssssssss"
     style="stroke-width:1" />
  <path
     fill-rule="nonzero"
     d="m 172.78734,350.536 c -1.69593,0 -3.35621,3.65962 -3.35621,7.40931 v 63.73357 c 0,3.79473 1.49731,7.46561 3.35621,7.46561 h 132.43042 c 1.8589,0 3.35112,-3.67088 3.35112,-7.46561 v -63.73357 c 0,-3.74969 -1.65519,-7.40931 -3.35112,-7.40931 z"
     id="path1-2-5"
     sodipodi:nodetypes="sssssssss"
     style="stroke-width:1" />
</svg>
