<svg version="1.2" xmlns="http://www.w3.org/2000/svg" viewBox="0 0 1280 1280" width="1280" height="1280">
	<title>icon</title>
	<style>
		.s0 { fill: #87431D } 
		.s1 { fill: #C87941 }
	</style>
	<g id="icon">
		<path id="Path 0" class="s0" d="m637 0.2c17.9-0.1 38.8 0.3 46.5 0.8 7.7 0.5 20.5 1.7 28.5 2.6 8 0.8 23.7 3.1 35 5 11.3 1.9 27.5 5 36 7 8.5 2 21.1 5.1 28 7 6.9 1.9 20.8 6.2 31 9.5 10.2 3.4 26.4 9.3 36 13.1 9.6 3.9 24.7 10.4 33.5 14.5 8.8 4 22.8 11 31 15.5 8.3 4.5 20.6 11.5 27.5 15.6 6.9 4.1 19.3 12 27.5 17.6 8.3 5.5 20.6 14.3 27.5 19.5 6.9 5.2 18.8 14.7 26.5 21.1 7.7 6.5 20.5 17.9 28.5 25.4 8 7.5 20.1 19.6 26.9 26.9 6.7 7.2 17.6 19.5 24.1 27.2 6.5 7.7 16.1 19.8 21.5 27 5.4 7.1 14.8 20.6 21 30 6.2 9.4 13.9 21.5 17.2 27 3.3 5.5 9.5 16.5 13.8 24.5 4.3 8 10.5 20.1 13.8 27 3.2 6.9 8.3 18.4 11.4 25.5 3 7.1 8.3 20.6 11.8 30 3.4 9.4 8.6 24.6 11.4 34 2.8 9.4 6.4 22.4 8 29 1.7 6.6 4.1 17.2 5.5 23.5 1.4 6.3 3.6 18.3 5 26.5 1.4 8.3 3.4 22.6 4.5 32 1.1 9.4 2.5 24.6 3.2 34 0.7 10.8 1 29.9 0.6 52.5-0.3 19.5-1 40.2-1.6 46-0.6 5.8-2 17.7-3.2 26.5-1.1 8.8-3.5 24.3-5.4 34.5-1.9 10.2-5.7 27.7-8.6 39-2.8 11.3-8.3 30.2-12.1 42-3.9 11.8-10.1 29.1-13.9 38.5-3.7 9.4-10 24-13.9 32.5-3.9 8.5-11 22.7-15.7 31.5-4.8 8.8-12.4 22.3-17.1 30-4.7 7.7-12.8 20.3-18 28-5.2 7.7-13.6 19.4-18.5 26-5 6.6-12.2 15.8-16.1 20.5-3.9 4.7-11.6 13.7-17.2 20-5.5 6.3-16.1 17.5-23.5 24.9-7.4 7.4-18.8 18.4-25.4 24.4-6.6 6-19.4 16.9-28.5 24.2-9.1 7.2-21.5 16.7-27.5 21-6 4.4-17.3 12-25 17-7.7 5.1-20.3 12.8-28 17.2-7.7 4.4-19.6 11-26.5 14.6-6.9 3.6-19.7 9.8-28.5 13.8-8.8 3.9-23.2 10-32 13.4-8.8 3.5-24.5 9.1-35 12.5-10.5 3.4-25.8 7.9-34 10.1-8.3 2.1-20.2 5-26.5 6.4-6.3 1.4-19.1 3.9-28.5 5.5-9.4 1.6-22.6 3.6-29.5 4.4-6.9 0.9-17.2 2.1-23 2.7-5.8 0.5-26.3 1.3-45.5 1.6-22.1 0.3-41.5 0.1-52.5-0.6-9.6-0.7-23.8-1.9-31.5-2.7-7.7-0.9-23.2-3.1-34.5-5-11.3-1.9-27.5-5-36-7-8.5-2-21.1-5.1-28-7-6.9-1.9-20.8-6.2-31-9.5-10.2-3.4-26.4-9.3-36-13.1-9.6-3.9-24.7-10.4-33.5-14.5-8.8-4-22.8-11-31-15.5-8.3-4.5-20.6-11.5-27.5-15.6-6.9-4.1-19.3-12-27.5-17.6-8.3-5.5-20.6-14.3-27.5-19.5-6.9-5.2-18.8-14.7-26.5-21.1-7.7-6.5-20.8-18.1-29-25.9-8.3-7.7-20.3-19.8-26.8-26.8-6.6-7.1-17.2-19.1-23.7-26.8-6.5-7.7-16.1-19.8-21.5-27-5.4-7.1-14.8-20.6-21-30-6.2-9.4-13.9-21.5-17.2-27-3.3-5.5-9.5-16.5-13.8-24.5-4.3-8-10.5-20.1-13.8-27-3.2-6.9-8.4-18.4-11.4-25.5-3-7.1-8.4-20.9-11.9-30.5-3.6-9.6-8.7-24.9-11.4-34-2.7-9.1-6.3-21.9-7.9-28.5-1.7-6.6-4.1-17.2-5.5-23.5-1.4-6.3-3.6-18.2-5-26.5-1.4-8.2-3.4-22.6-4.5-32-1.1-9.4-2.5-23.6-3-31.7-0.6-8.2-1.1-28.2-1.1-44.5 0-16.4 0.5-36.1 1-43.8 0.6-7.7 1.7-20.1 2.6-27.5 0.8-7.4 2.8-21.8 4.5-32 1.6-10.2 4.5-25.7 6.5-34.5 1.9-8.8 4.7-20.3 6-25.5 1.4-5.2 4.6-16.2 7.1-24.5 2.5-8.2 6.4-19.9 8.5-26 2.2-6.1 6.6-17.5 9.8-25.5 3.2-8 8.6-20.6 12-28 3.4-7.4 9.6-20 13.7-28 4.2-8 10.8-19.9 14.6-26.5 3.8-6.6 11.2-18.5 16.5-26.5 5.2-8 13.3-19.9 18.1-26.5 4.7-6.6 12.2-16.5 16.5-22 4.4-5.5 10.9-13.4 14.4-17.5 3.6-4.1 12.4-14 19.8-22 7.3-8 20.8-21.5 30.1-30.1 9.2-8.6 20.4-18.7 24.8-22.4 4.4-3.7 12.7-10.5 18.5-15 5.8-4.5 16.1-12.2 23-17.2 6.9-4.9 18.4-12.7 25.5-17.3 7.1-4.6 20-12.4 28.5-17.3 8.5-4.9 24.1-13.1 34.5-18.2 10.4-5.1 25.1-11.9 32.5-15 7.4-3.1 18.2-7.5 24-9.7 5.8-2.2 16.6-6 24-8.5 7.4-2.4 20.5-6.4 29-8.8 8.5-2.4 22.7-6 31.5-8 8.8-2 25-5.2 36-7 11-1.8 26.7-4.1 35-5 8.2-0.9 19.7-2 25.5-2.4 5.8-0.5 25.1-0.9 43-0.9z"/>
		<path id="Path 1" class="s1" d="m625.8 377.3l0.2 42.7h-151l-0.2-20.8c-0.1-11.5 0.2-21.1 0.6-21.4 0.4-0.3 34.4-0.6 150.4-0.5zm51.9 0l150.8 0.2 0.5 42.5h-151l-0.2-21.3zm-203.1 332.1l0.5 42.5h-151l-0.2-20.8c-0.1-11.5 0.2-21.1 0.7-21.5 0.4-0.4 34.4-0.6 150-0.2zm341.5-0.5v43h-151l-0.2-20.8c-0.1-11.5 0.2-21.1 0.7-21.5 0.4-0.4 34.5-0.7 150.5-0.7zm-247.5 101.3c9.9 0.2 11.6 0.6 17.5 3.4 3.5 1.7 8.5 4.8 11 7 2.4 2.2 6.1 6.4 8.1 9.4 2 3 4.6 8.2 5.8 11.7 1.4 4.2 2.1 8.8 2.1 14 0 4.8-0.7 10.1-1.9 14.2-1.2 3.8-3.8 9.1-6.4 12.5-2.4 3.3-6.3 7.7-8.8 9.7-2.4 2-7.1 5-10.4 6.5-5.6 2.6-6.9 2.8-18.5 2.8-12.1 0-12.8-0.1-19.5-3.3-4.6-2.2-9-5.4-12.6-9-3.1-3.1-6.8-8-8.3-10.9-1.4-2.9-3.3-8.1-4.1-11.5-0.8-3.5-1.5-8.5-1.5-11.3 0-2.7 0.6-7.6 1.5-10.7 0.8-3.2 2.7-8.1 4.1-11 1.5-2.9 4.8-7.5 7.3-10.1 2.5-2.7 6.4-6 8.6-7.2 2.2-1.3 6.4-3.3 9.5-4.5 4.5-1.7 7.4-2 16.5-1.7zm339.7-0.2c7.6-0.1 11 0.4 15.5 2.1 3.2 1.2 7.6 3.3 9.8 4.8 2.2 1.5 6.1 5.2 8.8 8.1 2.7 3 6.2 8.1 7.7 11.4 1.6 3.3 3.4 9 3.9 12.5 0.6 4.1 0.6 9.1 0 13.5-0.6 3.9-2.2 9.7-3.8 13-1.5 3.3-5.4 8.9-8.7 12.4-4.3 4.6-8 7.3-13.4 10-6.7 3.2-8.4 3.7-17 4-7.6 0.3-11 0-16.8-1.7-5-1.5-9.1-3.6-13.4-6.9-3.4-2.6-8.1-7.5-10.4-10.8-2.2-3.3-4.8-8.4-5.7-11.5-0.8-3-1.8-7.9-2.2-11-0.4-3-0.1-8.4 0.5-12 0.6-3.5 2.4-9.2 4-12.5 1.6-3.3 4.6-8 6.7-10.4 2.1-2.4 5.8-5.8 8.3-7.4 2.4-1.7 7.2-4.1 10.5-5.3 4.6-1.8 8.2-2.3 15.7-2.3z"/>
	</g>
</svg>