<svg version="1.2" xmlns="http://www.w3.org/2000/svg" viewBox="0 0 1280 1280" width="1280" height="1280">
	<title>xsquared-svg</title>
	<style>
		.s0 { fill: #87431D } 
		.s1 { fill: #C87941 }
	</style>
	<g id="2">
		<g id="Path 0">
			<path id="Path 0" class="s0" d="m645.5 0.5c32.3 0.2 50.2 0.8 60 1.8 7.7 0.9 20.5 2.5 28.5 3.7 8 1.1 23.3 3.8 34 6 10.7 2.2 24.9 5.3 31.5 7 6.6 1.7 19.4 5.4 28.5 8.2 9.1 2.8 23 7.5 31 10.3 8 2.9 22.6 8.8 32.5 13 9.9 4.2 25.9 11.6 35.5 16.4 9.6 4.8 22.9 11.8 29.5 15.6 6.6 3.7 17.4 10.2 24 14.3 6.6 4.2 18.1 11.8 25.5 17 7.4 5.2 19.1 13.8 26 19.1 6.9 5.2 18.6 14.8 26 21.2 7.4 6.3 20.2 18.1 28.4 26 8.2 7.9 21.2 21.4 28.9 29.9 7.7 8.5 19.2 22 25.6 30 6.4 8 14.9 19 18.8 24.5 3.9 5.5 11.8 17.2 17.5 26 5.8 8.8 14 22.1 18.3 29.5 4.3 7.4 11 19.8 15.1 27.5 4 7.7 10 20.3 13.4 28 3.4 7.7 9.1 21.2 12.5 30 3.5 8.8 8.8 23.4 11.8 32.5 3 9.1 7.3 23.3 9.6 31.5 2.2 8.3 5.4 21.1 7.1 28.5 1.7 7.4 4.2 19.6 5.5 27 1.4 7.4 3.6 22.3 4.9 33 1.4 10.7 3 26.3 3.7 34.5 0.8 10.4 1 28.4 0.6 58.5-0.5 38.6-0.8 45.6-3.1 62.5-1.3 10.5-3.4 24.9-4.5 32-1.2 7.1-3.3 18.4-4.7 25-1.4 6.6-4.1 18.3-6 26-2 7.7-5.5 20.5-7.9 28.5-2.4 8-6.2 19.7-8.4 26-2.2 6.3-5.9 16.7-8.4 23-2.4 6.3-5.9 14.9-7.7 19-1.8 4.1-5.7 12.9-8.7 19.5-3.1 6.6-9.3 19-13.8 27.5-4.6 8.5-12.2 22-17 30-4.8 8-13.5 21.5-19.2 30-5.8 8.5-14.6 20.9-19.6 27.5-5 6.6-12.4 16-16.6 21-4.1 5-13.2 15.3-20.2 23-7 7.7-18.7 19.9-26 27-7.4 7.2-18.6 17.5-24.9 23.1-6.3 5.5-16 13.6-21.5 18-5.5 4.4-14.5 11.4-20 15.6-5.5 4.1-16.1 11.5-23.5 16.5-7.4 4.9-18.7 12.2-25 16-6.3 3.9-18 10.7-26 15-8 4.4-19.9 10.6-26.5 13.8-6.6 3.1-17 7.9-23 10.5-6 2.7-15.5 6.6-21 8.8-5.5 2.1-15.9 6-23 8.5-7.1 2.5-20.4 6.8-29.5 9.6-9.1 2.7-25 7-35.5 9.5-10.5 2.5-25.5 5.7-33.5 7.1-8 1.4-22.5 3.6-32.3 5-9.7 1.4-26.8 2.9-38 3.5-11.1 0.5-32.6 1-47.7 1-15.1 0-34.9-0.5-44-1-9.1-0.5-25-2.1-35.5-3.4-10.5-1.4-25.3-3.7-33-5.1-7.7-1.4-19.9-3.9-27-5.5-7.1-1.6-18.2-4.3-24.5-6-6.3-1.7-18-5.2-26-7.7-8-2.5-22.6-7.6-32.5-11.3-9.9-3.7-25-9.9-33.5-13.6-8.5-3.7-22.7-10.5-31.5-14.9-8.8-4.5-21.4-11.2-28-15-6.6-3.7-20.6-12.4-31-19.3-10.4-6.8-23.9-16.1-30-20.5-6.1-4.4-15.5-11.7-21-16.1-5.5-4.5-15.4-12.8-22-18.6-6.6-5.8-19.1-17.5-27.9-26-8.7-8.5-21.8-22.2-29-30.5-7.2-8.2-16.1-18.6-19.7-23-3.6-4.4-9.2-11.6-12.5-16-3.4-4.4-10.8-15-16.6-23.5-5.8-8.5-13.8-20.7-17.8-27-4-6.3-11.3-18.9-16.3-28-5-9.1-11.9-22.4-15.3-29.5-3.4-7.1-9.1-20-12.7-28.5-3.5-8.5-8.9-22.2-12-30.5-3-8.2-7.8-22.6-10.7-32-2.8-9.4-6.9-24.2-9.1-33-2.2-8.8-5.5-24.1-7.4-34-1.8-9.9-4.5-27.2-5.9-38.5-1.4-11.3-3-25.9-3.6-32.5-0.5-6.6-1-29.3-1-50.5 0-26.6 0.5-43.6 1.5-55 0.8-9.1 2.7-24.4 4.1-34 1.3-9.6 3.6-23.6 5-31 1.4-7.4 4.1-20.2 6-28.5 1.9-8.2 5.7-22.4 8.4-31.5 2.7-9.1 6.7-21.7 8.9-28 2.1-6.3 6.9-19.1 10.6-28.5 3.7-9.4 10.8-25.8 15.9-36.5 5-10.7 13.2-26.7 18-35.5 4.9-8.8 12.7-22.1 17.4-29.5 4.7-7.4 11.5-17.8 15.1-23 3.6-5.2 10.3-14.7 14.9-21 4.7-6.3 12.4-16.2 17.1-22 4.7-5.8 14.5-17 21.7-25 7.2-8 19.8-21 28-29 8.2-8 20.1-19 26.4-24.6 6.3-5.5 14.9-12.7 19-16 4.1-3.4 12.9-10.1 19.5-15 6.6-4.9 19.2-13.7 28-19.5 8.8-5.8 20.5-13.3 26-16.6 5.5-3.3 16.8-9.6 25-14.1 8.3-4.4 22.6-11.6 32-16 9.4-4.3 24.9-11.1 34.5-14.9 9.6-3.9 24.5-9.3 33-12.1 8.5-2.8 20.2-6.4 26-8.1 5.8-1.6 17-4.6 25-6.5 8-2 21.7-4.9 30.5-6.6 8.8-1.7 25.5-4.4 37-6 11.5-1.7 26.4-3.4 33-3.9 6.6-0.5 32.7-0.8 58-0.6z"/>
			<path id="Path 1" class="s1" d="m523 194.1c6.6-0.1 14.6 0.6 21.5 1.9 6 1 14.4 3 18.5 4.3 4.1 1.3 11.3 4.3 16 6.7 4.7 2.3 11.6 6.3 15.4 8.9 3.9 2.5 11.5 8.9 16.9 14.1 5.5 5.2 13.2 13.7 17.1 18.9 6.4 8.5 7.2 9.2 8.3 7.5 0.7-1.1 3.2-4.6 5.5-7.9 2.4-3.3 8.8-10.5 14.3-16 6.2-6.2 13.8-12.6 20-16.7 5.5-3.6 13.4-8.2 17.5-10 4.1-1.9 9.7-4.2 12.5-5.1 2.7-0.8 6.8-2 9-2.6 2.2-0.6 7.8-1.7 12.5-2.6 4.7-0.8 13.1-1.5 18.8-1.5 5.9 0 15.2 0.9 21.9 2 6.5 1.2 16.1 3.5 21.3 5.2 5.2 1.8 14.7 5.8 21 9.1 6.3 3.2 14.6 8.2 18.5 11 3.9 2.8 8.8 6.7 11 8.6 2.2 2 6.2 5.9 9 8.7 2.7 2.9 6.1 6.5 7.5 8 1.3 1.6 4.9 6.3 7.8 10.4 3 4.1 7.7 12.2 10.6 18 2.8 5.8 6.3 14 10.1 26h5.5c3 0 9.8 0.7 15 1.4 5.2 0.8 13.8 2.7 19 4.2 5.2 1.5 12.2 3.8 15.5 5.1 3.3 1.4 9.5 4.2 13.8 6.4 4.2 2.1 11.6 6.4 16.4 9.6 4.9 3.1 10.2 6.8 11.9 8.2 1.7 1.4 4.9 4 7 5.7 2.1 1.8 7.7 7 12.3 11.5 4.6 4.6 11.2 12 14.6 16.4 3.4 4.4 8.3 11.3 10.9 15.3 2.5 3.9 6.8 11.6 9.5 17 2.6 5.3 6.4 14.4 8.4 20.2 1.9 5.8 4 12.8 4.7 15.5 0.6 2.8 1.8 8.6 2.5 13 0.8 4.4 1.7 12.9 2.1 19 0.3 6.2 0.1 15.8-0.5 22-0.6 6.1-1.4 13-2.2 20l10.3 10.5c5.7 5.8 12.8 13.9 15.9 18 3.1 4.1 7.2 10 9.1 13 1.9 3 5.5 9.3 8 14 2.4 4.7 6.1 12.8 8 18 2 5.2 4.3 12 5.2 15 0.8 3 2.3 9.5 3.2 14.5 1.3 6.6 1.8 14 1.8 27.5 0 13.9-0.4 20.8-1.7 27.5-1 5-2.5 11.3-3.4 14-0.8 2.8-3.2 9.5-5.4 15-2.1 5.5-6.5 14.5-9.8 20-3.2 5.5-9.2 14.5-13.4 20-4.1 5.5-11.9 14.3-17.4 19.5-5.4 5.2-11.2 10.6-12.8 12-1.7 1.4-6.4 5-18 13.7l-0.8 14.9c-0.4 8.2-1.7 20.3-2.7 26.9-1.1 6.6-2.9 15.4-4 19.5-1.2 4.1-3.6 11.8-5.5 17-1.9 5.2-5.2 13.1-7.4 17.5-2.2 4.4-5.4 10.5-7.2 13.5-1.7 3-4.9 8.2-7.1 11.5-2.3 3.3-6.9 9.4-10.3 13.5-3.4 4.1-9.8 10.8-14.1 14.9-4.3 4-11.3 9.9-15.4 13-4.1 3-11.3 7.8-16 10.5-4.7 2.7-10.3 5.6-12.5 6.6-2.2 0.9-8 3.1-13 4.8-5 1.6-10.8 3.3-13 3.6-2.2 0.3-4.5 1.1-5.1 1.8-0.5 0.7-1.8 4-2.8 7.3-1 3.3-3.6 9.8-5.8 14.5-2.2 4.7-6.9 13-10.6 18.5-3.7 5.5-11 14.5-16.3 20-5.3 5.5-13.4 12.9-18 16.4-4.6 3.6-11.8 8.4-15.9 10.9-4.1 2.4-10 5.5-13 6.9-3 1.4-6.9 3.1-8.5 3.8-1.6 0.8-6.1 2.5-10 3.8-3.9 1.3-11.5 3.5-17 4.8-8.7 2.1-12.5 2.4-28.5 2.3-13.7 0-20.5-0.4-26.3-1.7-4.2-0.9-10.5-2.7-14-3.8-3.4-1.2-9.3-3.6-13.2-5.3-3.9-1.8-10.1-5.3-14-7.8-3.9-2.5-8.8-6-11-7.9-2.2-1.8-6.8-6.2-10.3-9.8-3.5-3.7-8.4-9.3-10.9-12.6-2.5-3.3-6.2-8.8-8.2-12.3-2-3.4-3.9-6.2-4.4-6.2-0.4 0-2.5 2.9-4.7 6.5-2.2 3.6-4.8 7.5-5.8 8.7-0.9 1.2-4.9 5.8-8.8 10.2-3.8 4.5-11 11.3-16 15.3-4.9 3.9-12.9 9.4-17.9 12.1-5 2.7-12.1 6.2-16 7.7-3.9 1.5-11.3 3.8-16.5 5.1-6 1.5-14.1 2.6-22 3.1-7.8 0.4-16.2 0.1-22.5-0.6-5.5-0.7-13.4-2.2-17.5-3.2-4.1-1.1-10-2.9-13-4-3-1.1-8.6-3.4-12.5-5.1-3.9-1.7-10.4-5.2-14.5-7.7-4.1-2.4-10.6-6.9-14.5-9.9-3.9-3-10.6-9.1-15.1-13.6-4.4-4.5-11.2-12.6-15.1-18.1-3.9-5.5-8.9-13.8-11.1-18.5-2.2-4.7-4.9-11.2-6-14.5-1.1-3.3-2.5-7.8-4.1-14l-8.3-0.8c-4.6-0.4-12-1.7-16.6-2.8-4.5-1-11.9-3.2-16.4-4.8-4.6-1.6-11.7-4.4-15.8-6.3-4.1-1.9-12-6.3-17.5-9.8-5.5-3.4-12.9-8.5-16.5-11.3-3.6-2.7-10.8-9.3-16.1-14.6-5.3-5.3-12.1-12.7-15.1-16.6-3.1-3.9-7.6-9.9-10-13.5-2.4-3.6-6.5-10.3-9-15-2.6-4.7-6.5-13.2-8.7-19-2.2-5.8-5-14.1-6.1-18.5-1.2-4.4-2.7-11.4-3.5-15.5-0.9-4.1-1.8-13.1-2.1-20-0.4-7.3-0.1-17.1 0.6-23.5 0.6-6 1.4-12.8 1.6-15 0.5-3.9 0.3-4.2-9.4-14-5.4-5.5-11.9-12.7-14.3-16-2.5-3.3-6.3-8.7-8.4-12-2.2-3.3-4.7-7.4-5.7-9-1-1.6-3.1-5.5-4.7-8.5-1.6-3-4.7-10-6.9-15.5-2.2-5.5-5-14-6.2-19-1.2-5-2.8-13.3-3.6-18.5-0.7-5.2-1.4-14.6-1.4-20.7 0-6.2 0.7-15.7 1.5-21 0.9-5.4 2.7-13.8 4-18.8 1.3-5 3.6-11.9 5.1-15.5 1.4-3.6 4.6-10.5 7.1-15.5 2.5-5 6.4-11.7 8.6-15 2.2-3.3 6.3-8.9 8.9-12.5 2.7-3.6 9-10.7 14.1-15.9 5.1-5.1 13-12.6 17.7-16.5 4.7-4 10-8.2 15-11.6v-10.7c0-6 0.5-15.1 1-20.3 0.6-5.2 2-13.8 3.1-19 1.1-5.2 3.2-13.8 4.8-19 1.6-5.2 3.8-11.6 5-14.2 1.1-2.7 2.1-5 2.1-5.3 0-0.3 2.3-5.1 5.1-10.7 2.8-5.7 7.9-14.3 11.2-19.3 3.3-4.9 8.1-11.5 10.5-14.5 2.5-3 8.6-9.5 13.6-14.5 5-4.9 13.6-12.2 19.1-16.1 5.5-3.9 12.9-8.7 16.5-10.7 3.6-2 11.2-5.4 17-7.6 5.8-2.3 13.6-4.8 17.5-5.7 3.9-0.8 8-1.7 9.3-2 1.2-0.2 2.4-1 2.6-1.6 0.2-0.7 1.6-5 3-9.5 1.4-4.6 4-11.3 5.8-15 1.7-3.8 6.1-11.3 9.7-16.8 4.1-6.4 10.3-13.8 17.1-20.6 5.8-5.8 12.5-12.2 15-14.1 2.5-2 9-6.3 14.5-9.5 5.5-3.3 13.6-7.6 18-9.5 4.4-2 12.5-4.8 18-6.3 5.5-1.5 13.6-3.3 18-4 4.4-0.7 12.7-1.3 18.5-1.4z"/>
			<path id="Path 2" class="s0" d="m527 253.6c1.4 0.1 4.5 0.6 7 0.9 2.5 0.4 7 1.5 10 2.5 3 0.9 7.1 2.5 9 3.5 1.9 1 6.6 4.1 10.5 7 3.9 2.8 9.3 7.8 12 11 2.8 3.1 6 7.2 7.1 8.9 1.2 1.7 3.3 5.1 4.8 7.6 1.5 2.5 4.3 7.9 6.3 12 1.9 4.1 4.2 9.3 5 11.5 0.8 2.2 2.8 8.3 7.3 23v593.5l-3 10.3c-1.6 5.6-3.6 12-4.5 14.2-0.9 2.2-3.5 7.8-5.7 12.5-2.2 4.7-6.4 12.1-9.3 16.5-3 4.4-7.8 10.4-10.7 13.4-2.9 3-7.5 7.1-10.3 9.1-2.7 2.1-7.4 4.9-10.2 6.4-2.9 1.4-8.6 3.5-12.5 4.6-4.8 1.3-10.4 2-16 2-4.9 0-11.2-0.5-14-1.1-2.9-0.6-7.1-1.7-9.3-2.4-2.2-0.7-6.5-2.4-9.5-3.7-3-1.4-8.6-4.5-12.5-7.1-3.9-2.5-9.5-7-12.6-9.9-3.1-2.9-7.8-8.2-10.4-11.8-2.6-3.6-5.8-9-7.2-12-1.4-3-3.2-7.7-4.1-10.5-1.1-3.4-1.6-8.8-1.6-16.5 0-10 0.3-12.5 2.7-19 1.5-4.1 4.8-11.1 7.4-15.5q4.8-8 15.3-18.6c5.8-5.8 14.8-13.5 20-17.1 5.2-3.6 14.9-9.6 21.5-13.3 6.6-3.8 13.5-8.2 15.3-9.9 1.8-1.7 4.5-5.6 6-8.6 2.1-4.4 2.7-6.9 2.6-12.5 0-4.8-0.7-8.4-2-11.5-1.1-2.5-3.8-6.4-6-8.8-2.1-2.4-6.3-5.5-9.2-6.8-4-1.9-6.9-2.4-12.7-2.4-7.2 0-8 0.3-18.8 5.8-6.1 3.2-15.9 8.8-21.7 12.6-5.8 3.8-13.2 8.9-16.5 11.5-3.3 2.5-7.8 6.1-10 8-2.2 1.9-7.8 7.4-12.5 12.1-4.7 4.7-11.6 12.6-15.3 17.5-3.9 5.2-9.5 14.5-13.2 22-3.5 7.1-6.5 13.9-6.7 15-0.3 1.6-1.2 2.1-4.8 2.3-2.5 0.2-6.5-0.2-9-0.8-2.5-0.6-8.6-2.6-13.5-4.5-4.9-1.9-12.8-5.8-17.5-8.6-4.7-2.8-9-5.7-9.7-6.3-0.6-0.6-2.6-2.2-4.5-3.6-1.8-1.4-6.2-5.4-9.8-9-3.6-3.7-9.2-10.2-12.5-14.5-3.3-4.4-8.1-12.3-10.7-17.5-2.5-5.2-5.5-12.6-6.7-16.5-1.2-3.9-2.8-10.1-3.6-14-0.8-3.9-1.5-12.3-1.5-18.7 0-6.6 0.6-14.8 1.5-18.5 0.8-3.8 2.3-9.9 3.5-13.8 1.1-3.9 2-9.5 2-12.5 0-3-0.6-7.3-1.3-9.5-0.8-2.2-2.6-5.8-4-8-1.4-2.2-6.3-7-10.9-10.6-4.6-3.7-11.7-10.2-15.8-14.5-4.2-4.4-9.6-10.8-12.1-14.4-2.6-3.6-6.2-9.4-8.1-13-1.8-3.6-4.6-9.6-6-13.5-1.5-3.9-3.4-9.9-4.3-13.5-0.9-3.6-1.9-10.8-2.2-16-0.4-5.6-0.1-13 0.7-18 0.7-4.7 2.1-11.2 3.2-14.5 1-3.3 4-10.3 6.6-15.5 2.6-5.2 5.2-9.9 5.7-10.5 0.6-0.5 1.8-2.2 2.8-3.7 0.9-1.6 2.7-4 3.9-5.5 1.3-1.4 4.5-5.1 7.3-8.1 2.7-3 9.1-8.9 14-13 4.9-4.1 13.6-10.6 19.3-14.4 5.6-3.7 11.3-8.3 12.6-10 1.4-1.8 3.5-5.5 4.7-8.3 1.3-3 2.2-7 2.1-10 0-2.7-0.3-12-0.7-20.5-0.5-10.8-0.4-18.1 0.5-24 0.6-4.7 2.1-11.9 3.2-16 1.1-4.1 2.9-10.2 4-13.5 1.1-3.3 3.6-9.1 5.5-13 2-3.9 5.7-10.3 8.4-14.2 2.7-4 6.4-8.9 8.1-11 1.8-2 6-6.2 9.3-9.4 3.3-3.1 8.9-7.7 12.5-10.1 3.6-2.4 9.6-5.8 13.5-7.6 3.9-1.7 8.4-3.4 10-3.8 3-0.6 3-0.5 6.2 7.7 1.8 4.6 5.6 12.5 8.5 17.4 3 5 7.9 12.4 11 16.5 3.1 4.1 9.8 11.6 15 16.6 5.1 5 11.3 10 13.8 11.2 3.1 1.6 6.6 2.3 11.5 2.4 5.6 0.1 8.1-0.3 12.5-2.4 3-1.4 7.1-4 9-5.9 1.8-1.9 4.5-5.9 5.9-8.9 2-4.2 2.6-7.1 2.6-12.5-0.1-5.2-0.7-8.3-2.4-12-1.3-3-5.6-8.4-10.5-13.5-4.6-4.7-10.1-11.2-12.4-14.5-2.2-3.3-4.9-7.8-6-10-1.1-2.2-3-7.1-4.3-11-2-5.8-2.3-9-2.3-18.5 0.1-9.8 0.5-12.6 2.8-19 1.4-4.1 4.5-10.6 6.8-14.5 2.4-3.9 7-9.7 10.3-13 3.3-3.4 8-7.8 10.5-9.8 2.5-2 8.3-5.7 13-8.1 4.7-2.4 11.9-5.3 16-6.6 4.1-1.2 10.9-2.5 15-3 4.1-0.4 8.6-0.6 10-0.4zm220 0c1.4 0.2 5.2 0.6 8.5 0.9 3.3 0.3 9.8 1.7 14.5 3.2 4.7 1.4 10.5 3.7 13 5.1 2.5 1.4 7 4.1 10 6 3 1.9 8.7 6.7 12.6 10.6 3.9 3.9 8.7 9.4 10.6 12.1 1.9 2.8 4.7 7.6 6.2 10.8 1.4 3.1 3.3 8.7 4.2 12.5 1.1 4.8 1.5 9.5 1.1 16.7-0.3 7.3-1.2 12.1-3.1 17.5-1.4 4.1-4.4 10.4-6.5 14-2.1 3.6-4.5 7.2-5.2 8-0.8 0.8-2.6 3.1-4 5-1.4 1.9-3.3 5.5-4.2 8-0.9 2.5-1.7 7-1.7 10 0 3 0.8 7.7 1.7 10.4 1 2.7 3.6 6.9 5.8 9.3 2.2 2.5 6.5 5.7 9.5 7.1 4.5 2.2 6.8 2.7 13 2.6 4.6-0.1 8.9-0.7 11.2-1.7 2.1-1 6.1-3.8 8.9-6.4 2.8-2.7 8.1-9.3 11.9-14.8 3.7-5.5 8.8-14.3 11.3-19.5 2.5-5.2 5.2-11.4 7.2-18h5.2c2.9 0 7.7 0.5 10.5 1 2.9 0.6 7.1 1.6 9.3 2.2 2.2 0.7 7.4 2.6 11.5 4.4 4.1 1.7 10.5 5 14.2 7.3 3.8 2.2 7.8 4.9 8.9 5.9 1.2 0.9 5.2 4.2 8.8 7.3 3.6 3 8.6 8 11.1 11 2.5 3 5.2 6.2 6 7.1 0.8 0.9 3.6 5.2 6.2 9.5 2.6 4.3 6.5 11.9 8.6 16.8 2.2 5 4.6 11.9 5.5 15.5 0.8 3.6 2.1 10.1 2.8 14.5 0.7 4.6 1 11.6 0.6 16.5-0.3 4.7-1.3 12.1-2.2 16.5-0.9 4.4-2.4 10-3.3 12.5-0.9 2.6-1.6 7.6-1.5 12 0 5.6 0.5 8.7 2.1 12 1.2 2.5 3.7 6.1 5.5 8 1.7 1.9 6.1 5.8 9.7 8.7 3.6 2.8 10.1 8.9 14.6 13.5 4.4 4.5 9.1 9.9 10.4 11.8 1.3 1.9 2.7 3.7 3 4 0.4 0.3 2.4 3.2 4.5 6.5 2.1 3.3 5 8.7 6.6 12 1.5 3.3 3.9 9.4 5.2 13.5 1.4 4.1 3.1 11.1 3.8 15.5 0.7 4.9 1 12.1 0.6 18.5-0.3 6-1.5 13.7-2.7 18-1.2 4.1-4.1 11.5-6.4 16.5-2.3 5-7 12.6-10.3 17-3.4 4.4-9.6 11.5-13.9 15.7-4.4 4.3-10.8 9.9-14.4 12.6-3.6 2.7-10.3 7.3-15 10.2-4.7 2.9-10.2 6.9-12.4 8.9-2.1 2-5.1 6.3-6.7 9.6-2 4.1-2.9 7.5-2.9 11 0 2.8 0.5 10 1.2 16 0.9 8.6 0.9 13.5-0.1 22.5-0.7 6.3-2.1 15.3-3.2 20-1.1 4.7-2.7 10.5-3.5 13-0.9 2.5-3.1 7.9-5 12-2 4.1-5.9 11.3-8.7 16-2.9 4.7-8.6 12.1-12.8 16.5-4.2 4.4-10.9 10.6-15 13.7-4.1 3.1-10.3 7-13.9 8.7-3.6 1.6-7.4 3.2-8.5 3.5-1.7 0.5-2.4-0.5-5.2-7.7-1.8-4.5-5.4-11.9-8-16.5-2.7-4.5-6.8-11-9.3-14.4-2.5-3.4-9.2-11-15-16.8-5.8-5.9-12.8-12.4-15.5-14.6-2.8-2.2-6.8-5.3-9-6.9-2.2-1.6-6.1-4.4-8.8-6.2-2.6-1.8-4.9-3.3-5.2-3.3-0.3 0-1.1-0.5-1.7-1-0.7-0.6-4-2.7-7.3-4.7-3.3-1.9-9.6-5.3-14-7.4-7.1-3.5-8.8-3.9-15.3-3.9-5.3 0-8.5 0.6-12.4 2.3-2.9 1.3-7.1 4.1-9.2 6.3-2.1 2.1-4.8 5.9-5.9 8.4-1.6 3.4-2.1 6.5-2.1 12.5 0 6.3 0.5 8.9 2.2 12.3 1.2 2.3 3.7 5.8 5.5 7.8 1.7 2 6.6 5.4 10.7 7.7 4.1 2.2 11.1 6.3 15.5 9 4.4 2.8 11.1 7.4 15 10.2 3.9 2.9 9.8 8.2 13.2 11.7 3.4 3.4 7.2 7.4 8.4 8.8 1.1 1.4 3.4 4.3 4.9 6.5 1.5 2.2 3.9 6.5 5.4 9.5 1.5 3 3.4 8.2 4.2 11.5 0.8 3.3 1.5 9.8 1.5 14.5 0 5-0.6 10.9-1.7 14.5-0.9 3.3-2.6 8-3.7 10.5-1.2 2.5-3.5 6.8-5.3 9.5-1.7 2.8-6.3 8.4-10.1 12.5-3.9 4.1-10.6 10-14.9 13.2-4.4 3.1-10.6 7-13.9 8.6-3.3 1.7-10.3 4.5-15.5 6.3-8.9 3-10.3 3.2-24 3.3-11.8 0.1-15.5-0.3-20-1.8-3-1-7.5-2.9-10-4.1-2.5-1.2-7.6-4.9-11.4-8.1-3.8-3.3-8.8-8.6-11.1-11.9-2.3-3.3-5.6-8.5-7.3-11.5-1.6-3-4.2-8.6-5.7-12.5-1.5-3.9-3.3-9.2-4.1-12-0.8-2.7-2.6-10.4-6.4-29v-621.5l4.6-8.7c2.5-4.9 6-10.8 7.7-13.3 1.7-2.5 6.3-7.8 10.2-11.9 3.8-4 9-8.7 11.5-10.3 2.5-1.7 6.3-3.9 8.5-5.1 2.2-1.1 5.8-2.6 8-3.4 2.2-0.8 7.4-2.1 11.5-2.7 4.1-0.7 8.6-1.2 10-1z"/>
			<path id="Path 3" class="s1" d="m837.8 466.6c2.8 0.2 6.7 1 8.5 1.8 1.7 0.7 7 4.2 11.7 7.7 4.6 3.5 13.2 11.1 19 16.9 5.8 5.8 12.6 13.2 15.1 16.5 2.6 3.3 7.6 10.5 11.2 16 3.6 5.5 8.9 15 11.8 21 2.8 6 6.9 16.2 8.9 22.5 2.1 6.3 4.7 16 5.9 21.5 1.1 5.5 2.6 15.4 3.2 22 0.7 7.1 0.9 18.1 0.6 27-0.4 8.2-1.4 19-2.2 24-0.9 5-2.3 11.9-3.1 15.5-0.9 3.6-2.3 8.7-3.1 11.5-0.9 2.7-3.5 10-5.9 16-2.4 6-5.6 13.5-7.1 16.5-1.6 3-4.9 8.9-7.3 13-2.4 4.1-6.6 10.6-9.3 14.5-2.8 3.9-7.3 9.7-10 13-2.8 3.3-6.2 7.1-7.6 8.4-1.5 1.3-5.1 3.5-8.1 4.9-4.3 2.1-7 2.6-12.5 2.6-5.3 0-8.2-0.6-12-2.5-2.7-1.3-6.8-4.2-9.1-6.4-2.5-2.5-4.9-6.3-6.3-10-1.7-4.5-2.2-7.5-1.9-12 0.2-3.3 1.3-7.8 2.3-10 1-2.2 5.1-8 9.1-13 3.9-5 9.4-12.6 12.1-17 2.8-4.4 6.6-11.4 8.6-15.5 2-4.1 4.9-11.5 6.6-16.5 1.6-5 3.9-14.2 5.1-20.5 1.4-7.9 2-15.8 2-25 0-8.9-0.6-17.1-1.9-24-1-5.8-3.3-14.7-5-19.8-1.7-5-4.7-12.5-6.7-16.5-2-3.9-6.1-11-9.2-15.7-3.1-4.7-9.3-12.3-13.7-16.9-4.4-4.6-10.9-10.6-14.5-13.4-3.6-2.9-7.7-6.3-9.1-7.7-1.5-1.4-3.9-5-5.5-8-2.2-4.5-2.7-6.8-2.7-12.5 0-5.3 0.6-8.4 2.5-12.5 1.4-3 4-7 5.9-8.8 1.9-1.9 5.2-4.3 7.4-5.5 2.2-1.1 5.6-2.4 7.5-2.8 1.9-0.4 5.9-0.6 8.8-0.3zm-420 16.9c3.7 0.3 8.1 1.4 11 2.9 2.6 1.3 6.6 4.5 9 7.2 2.3 2.7 4.9 6.9 5.7 9.4 0.9 2.5 1.5 7 1.5 10 0 3-0.8 7.7-1.7 10.5-1.1 3.2-3.8 7.2-7.3 11-3 3.3-7.6 8.5-10.1 11.5-2.6 3-6.2 8-8.1 11-2 3-5.4 9.2-7.7 13.7-2.2 4.6-5.4 12.2-7 17-1.7 4.9-3.8 12.4-4.7 16.8-1.3 5.9-1.8 12.6-1.9 25.5 0 10.8 0.5 20.2 1.4 24.5 0.7 3.9 2.5 11 3.8 16 1.4 5 4.1 12.6 6 17 1.8 4.4 5.4 11.6 8 16 2.5 4.4 6.9 11.1 9.8 15 2.8 3.9 6.2 9 7.5 11.5 1.8 3.5 2.3 6.1 2.3 12 0 5.6-0.5 8.6-2.1 12-1.2 2.5-3.7 6.1-5.4 8.1-1.8 2-5.5 4.9-8.3 6.5-4.4 2.5-6 2.9-13 2.9-6.8 0-8.9-0.5-14-3-4.2-2.2-7.3-4.7-10.7-9-2.7-3.3-7.5-9.8-10.6-14.5-3.1-4.6-6.3-9.6-7.1-11-0.7-1.4-3.2-6.3-5.6-11-2.4-4.7-5.5-11.4-7-15-1.5-3.6-4.2-11.2-6-17-1.8-5.8-4.1-14.3-5-19-0.9-4.7-2.3-13.9-3-20.5-0.8-6.6-1.5-15.8-1.5-20.5 0-4.7 0.7-13.9 1.5-20.5 0.8-6.6 1.9-14.5 2.5-17.5 0.6-3 1.8-8.2 2.6-11.5 0.9-3.3 2.9-10 4.6-15 1.7-5 5.4-14 8.3-20 3-6 7.8-14.8 10.7-19.5 2.9-4.7 5.9-9.2 6.5-10 0.7-0.8 4.6-5.5 8.6-10.5 4.1-5 10.1-11.4 13.3-14.4 3.2-2.9 7-5.8 8.4-6.4 1.4-0.5 3.9-1.3 5.5-1.8 1.7-0.4 5.8-0.6 9.3-0.4z"/>
		</g>
	</g>
</svg>