<?xml version="1.0" encoding="UTF-8" standalone="no"?>
<svg
   version="1.2"
   viewBox="0 0 1280 1280"
   width="1280"
   height="1280"
   id="svg1"
   sodipodi:docname="darkconnectfour.svg"
   inkscape:version="1.3 (0e150ed6c4, 2023-07-21)"
   xmlns:inkscape="http://www.inkscape.org/namespaces/inkscape"
   xmlns:sodipodi="http://sodipodi.sourceforge.net/DTD/sodipodi-0.dtd"
   xmlns="http://www.w3.org/2000/svg"
   xmlns:svg="http://www.w3.org/2000/svg">
  <defs
     id="defs1">
    <inkscape:path-effect
       effect="fillet_chamfer"
       id="path-effect2"
       is_visible="true"
       lpeversion="1"
       nodesatellites_param="F,0,0,1,0,0,0,1 @ F,0,0,1,0,0,0,1 @ F,0,0,1,0,0,0,1 @ F,0,0,1,0,0,0,1"
       radius="0"
       unit="px"
       method="auto"
       mode="F"
       chamfer_steps="1"
       flexible="false"
       use_knot_distance="true"
       apply_no_radius="true"
       apply_with_radius="true"
       only_selected="false"
       hide_knots="false" />
  </defs>
  <sodipodi:namedview
     id="namedview1"
     pagecolor="#ffffff"
     bordercolor="#666666"
     borderopacity="1.0"
     inkscape:showpageshadow="2"
     inkscape:pageopacity="0.0"
     inkscape:pagecheckerboard="0"
     inkscape:deskcolor="#d1d1d1"
     inkscape:zoom="0.95078125"
     inkscape:cx="639.47412"
     inkscape:cy="219.29334"
     inkscape:window-width="2400"
     inkscape:window-height="1494"
     inkscape:window-x="-11"
     inkscape:window-y="-11"
     inkscape:window-maximized="1"
     inkscape:current-layer="icon" />
  <title
     id="title1">icon</title>
  <style
     id="style1">&#10;		
     .s0 { fill: #87431D } &#10;		
     .s1 { fill: #C87941 } &#10;	
   </style>
  <g
     id="icon">
    <path
       id="Path 0"
       class="s0"
       d="m637 0.2c17.9-0.1 38.8 0.3 46.5 0.8 7.7 0.5 20.5 1.7 28.5 2.6 8 0.8 23.7 3.1 35 5 11.3 1.9 27.5 5 36 7 8.5 2 21.1 5.1 28 7 6.9 1.9 20.8 6.2 31 9.5 10.2 3.4 26.4 9.3 36 13.1 9.6 3.9 24.7 10.4 33.5 14.5 8.8 4 22.8 11 31 15.5 8.3 4.5 20.6 11.5 27.5 15.6 6.9 4.1 19.3 12 27.5 17.6 8.3 5.5 20.6 14.3 27.5 19.5 6.9 5.2 18.8 14.7 26.5 21.1 7.7 6.5 20.5 17.9 28.5 25.4 8 7.5 20.1 19.6 26.9 26.9 6.7 7.2 17.6 19.5 24.1 27.2 6.5 7.7 16.1 19.8 21.5 27 5.4 7.1 14.8 20.6 21 30 6.2 9.4 13.9 21.5 17.2 27 3.3 5.5 9.5 16.5 13.8 24.5 4.3 8 10.5 20.1 13.8 27 3.2 6.9 8.3 18.4 11.4 25.5 3 7.1 8.3 20.6 11.8 30 3.4 9.4 8.6 24.6 11.4 34 2.8 9.4 6.4 22.4 8 29 1.7 6.6 4.1 17.2 5.5 23.5 1.4 6.3 3.6 18.3 5 26.5 1.4 8.3 3.4 22.6 4.5 32 1.1 9.4 2.5 24.6 3.2 34 0.7 10.8 1 29.9 0.6 52.5-0.3 19.5-1 40.2-1.6 46-0.6 5.8-2 17.7-3.2 26.5-1.1 8.8-3.5 24.3-5.4 34.5-1.9 10.2-5.7 27.7-8.6 39-2.8 11.3-8.3 30.2-12.1 42-3.9 11.8-10.1 29.1-13.9 38.5-3.7 9.4-10 24-13.9 32.5-3.9 8.5-11 22.7-15.7 31.5-4.8 8.8-12.4 22.3-17.1 30-4.7 7.7-12.8 20.3-18 28-5.2 7.7-13.6 19.4-18.5 26-5 6.6-12.2 15.8-16.1 20.5-3.9 4.7-11.6 13.7-17.2 20-5.5 6.3-16.1 17.5-23.5 24.9-7.4 7.4-18.8 18.4-25.4 24.4-6.6 6-19.4 16.9-28.5 24.2-9.1 7.2-21.5 16.7-27.5 21-6 4.4-17.3 12-25 17-7.7 5.1-20.3 12.8-28 17.2-7.7 4.4-19.6 11-26.5 14.6-6.9 3.6-19.7 9.8-28.5 13.8-8.8 3.9-23.2 10-32 13.4-8.8 3.5-24.5 9.1-35 12.5-10.5 3.4-25.8 7.9-34 10.1-8.3 2.1-20.2 5-26.5 6.4-6.3 1.4-19.1 3.9-28.5 5.5-9.4 1.6-22.6 3.6-29.5 4.4-6.9 0.9-17.2 2.1-23 2.7-5.8 0.5-26.3 1.3-45.5 1.6-22.1 0.3-41.5 0.1-52.5-0.6-9.6-0.7-23.8-1.9-31.5-2.7-7.7-0.9-23.2-3.1-34.5-5-11.3-1.9-27.5-5-36-7-8.5-2-21.1-5.1-28-7-6.9-1.9-20.8-6.2-31-9.5-10.2-3.4-26.4-9.3-36-13.1-9.6-3.9-24.7-10.4-33.5-14.5-8.8-4-22.8-11-31-15.5-8.3-4.5-20.6-11.5-27.5-15.6-6.9-4.1-19.3-12-27.5-17.6-8.3-5.5-20.6-14.3-27.5-19.5-6.9-5.2-18.8-14.7-26.5-21.1-7.7-6.5-20.8-18.1-29-25.9-8.3-7.7-20.3-19.8-26.8-26.8-6.6-7.1-17.2-19.1-23.7-26.8-6.5-7.7-16.1-19.8-21.5-27-5.4-7.1-14.8-20.6-21-30-6.2-9.4-13.9-21.5-17.2-27-3.3-5.5-9.5-16.5-13.8-24.5-4.3-8-10.5-20.1-13.8-27-3.2-6.9-8.4-18.4-11.4-25.5-3-7.1-8.4-20.9-11.9-30.5-3.6-9.6-8.7-24.9-11.4-34-2.7-9.1-6.3-21.9-7.9-28.5-1.7-6.6-4.1-17.2-5.5-23.5-1.4-6.3-3.6-18.2-5-26.5-1.4-8.2-3.4-22.6-4.5-32-1.1-9.4-2.5-23.6-3-31.7-0.6-8.2-1.1-28.2-1.1-44.5 0-16.4 0.5-36.1 1-43.8 0.6-7.7 1.7-20.1 2.6-27.5 0.8-7.4 2.8-21.8 4.5-32 1.6-10.2 4.5-25.7 6.5-34.5 1.9-8.8 4.7-20.3 6-25.5 1.4-5.2 4.6-16.2 7.1-24.5 2.5-8.2 6.4-19.9 8.5-26 2.2-6.1 6.6-17.5 9.8-25.5 3.2-8 8.6-20.6 12-28 3.4-7.4 9.6-20 13.7-28 4.2-8 10.8-19.9 14.6-26.5 3.8-6.6 11.2-18.5 16.5-26.5 5.2-8 13.3-19.9 18.1-26.5 4.7-6.6 12.2-16.5 16.5-22 4.4-5.5 10.9-13.4 14.4-17.5 3.6-4.1 12.4-14 19.8-22 7.3-8 20.8-21.5 30.1-30.1 9.2-8.6 20.4-18.7 24.8-22.4 4.4-3.7 12.7-10.5 18.5-15 5.8-4.5 16.1-12.2 23-17.2 6.9-4.9 18.4-12.7 25.5-17.3 7.1-4.6 20-12.4 28.5-17.3 8.5-4.9 24.1-13.1 34.5-18.2 10.4-5.1 25.1-11.9 32.5-15 7.4-3.1 18.2-7.5 24-9.7 5.8-2.2 16.6-6 24-8.5 7.4-2.4 20.5-6.4 29-8.8 8.5-2.4 22.7-6 31.5-8 8.8-2 25-5.2 36-7 11-1.8 26.7-4.1 35-5 8.2-0.9 19.7-2 25.5-2.4 5.8-0.5 25.1-0.9 43-0.9z" />
    <path
       class="s1"
       d="m 299.21342,362.40427 h 660.68767 a 55.800896,56.968241 0 0 1 55.67511,56.77578 v 423.41261 a 55.863735,57.032395 0 0 1 -55.67511,56.71163 H 299.21342 A 55.800896,56.968241 0 0 1 243.5382,842.46435 v -423.4126 a 55.738058,56.904088 0 0 1 55.67522,-56.64748 z"
       id="path1"
        />
    <path
       id="Path 0-6"
       class="s0"
       d="m 404.71414,411.07911 c 2.86056,-0.0159 6.20053,0.0479 7.43105,0.12788 1.23053,0.0799 3.27605,0.27167 4.55452,0.41549 1.27846,0.12787 3.78742,0.49541 5.59326,0.79905 1.80582,0.30364 4.39471,0.79904 5.75307,1.11866 1.35837,0.31961 3.37193,0.81501 4.47462,1.11865 1.10267,0.30363 3.32399,0.99081 4.95402,1.51816 1.63004,0.54334 4.21892,1.48622 5.75308,2.09348 1.53415,0.62325 3.94724,1.66199 5.35354,2.3172 1.40631,0.63925 3.64361,1.7579 4.95404,2.47704 1.32641,0.71913 3.29203,1.83777 4.3947,2.49299 1.10268,0.65521 3.08429,1.91768 4.39472,2.81261 1.32639,0.87895 3.29203,2.28525 4.39469,3.11626 1.10268,0.83099 3.00439,2.34915 4.23491,3.37192 1.23053,1.03876 3.27604,2.86056 4.55451,4.05912 1.27847,1.19855 3.21214,3.13222 4.29882,4.29882 1.07071,1.15062 2.81261,3.11624 3.85136,4.34677 1.03875,1.2305 2.5729,3.16419 3.43587,4.31479 0.86296,1.13463 2.36516,3.29205 3.35596,4.79423 0.9908,1.50219 2.22131,3.43586 2.74869,4.31482 0.52737,0.87893 1.51816,2.63681 2.20535,3.91526 0.68716,1.27846 1.67797,3.21214 2.20533,4.3148 0.51139,1.10269 1.3264,2.94048 1.82182,4.07511 0.47942,1.13463 1.32639,3.29203 1.88571,4.79421 0.54336,1.50221 1.37435,3.93128 1.82181,5.43346 0.44748,1.50221 1.02277,3.5797 1.27847,4.63443 0.27167,1.05473 0.65521,2.74869 0.87893,3.75547 0.22373,1.00678 0.57532,2.92446 0.79904,4.23489 0.22373,1.32641 0.54334,3.61166 0.71913,5.11385 0.1758,1.5022 0.39952,3.93126 0.51137,5.43346 0.112,1.72591 0.15983,4.77823 0.0958,8.38989 -0.0479,3.11624 -0.15981,6.42426 -0.2557,7.35114 -0.0958,0.92689 -0.31961,2.82861 -0.51139,4.2349 -0.17577,1.4063 -0.55932,3.88331 -0.86296,5.51335 -0.30364,1.63004 -0.9109,4.42669 -1.37434,6.2325 -0.44745,1.80583 -1.32641,4.82618 -1.93367,6.71193 -0.62324,1.88572 -1.61406,4.6504 -2.22133,6.15258 -0.59127,1.50218 -1.59807,3.83538 -2.22132,5.19374 -0.62324,1.35836 -1.75788,3.62763 -2.50898,5.03394 -0.76707,1.4063 -1.98161,3.56371 -2.7327,4.79422 -0.7511,1.23052 -2.04555,3.2441 -2.87654,4.47462 -0.831,1.2305 -2.17338,3.10025 -2.95645,4.155 -0.79903,1.05471 -1.94965,2.52494 -2.5729,3.27604 -0.62324,0.75109 -1.85376,2.18935 -2.74868,3.19615 -0.87894,1.00678 -2.5729,2.79663 -3.75547,3.97919 -1.18257,1.18259 -3.00439,2.94047 -4.05912,3.89931 -1.05473,0.95885 -3.10026,2.70074 -4.55451,3.86735 -1.45427,1.15061 -3.43587,2.66878 -4.39471,3.35596 -0.95885,0.70315 -2.76466,1.91769 -3.9952,2.71673 -1.23051,0.81501 -3.24407,2.04554 -4.4746,2.74869 -1.23052,0.70314 -3.13222,1.75787 -4.23491,2.33319 -1.10266,0.57531 -3.14819,1.5661 -4.5545,2.20534 -1.4063,0.62324 -3.70754,1.59807 -5.11385,2.14142 -1.4063,0.55932 -3.91528,1.45425 -5.59325,1.99759 -1.67798,0.54334 -4.12304,1.26247 -5.43347,1.61406 -1.32641,0.33559 -3.22811,0.79905 -4.23489,1.02277 -1.00679,0.22373 -3.05232,0.62325 -4.55452,0.87894 -1.50219,0.2557 -3.61164,0.57531 -4.71431,0.70315 -1.10267,0.14378 -2.74869,0.3356 -3.67558,0.43147 -0.92688,0.08 -4.20293,0.20776 -7.27123,0.2557 -3.53176,0.0479 -6.63202,0.016 -8.38992,-0.0958 -1.53415,-0.11199 -3.8034,-0.30363 -5.03392,-0.43149 -1.23052,-0.14378 -3.70753,-0.49539 -5.51335,-0.79901 -1.80583,-0.30365 -4.39472,-0.79906 -5.75307,-1.11867 -1.35837,-0.31962 -3.37196,-0.81502 -4.47463,-1.11863 -1.10266,-0.30365 -3.324,-0.99084 -4.95402,-1.51819 -1.63004,-0.54334 -4.21892,-1.4862 -5.75308,-2.09348 -1.53415,-0.62324 -3.94724,-1.66199 -5.35355,-2.31722 -1.4063,-0.63921 -3.6436,-1.75786 -4.95403,-2.47701 -1.32641,-0.71914 -3.29203,-1.83778 -4.39471,-2.49298 -1.10267,-0.65523 -3.08427,-1.9177 -4.3947,-2.81262 -1.32641,-0.87894 -3.29205,-2.28524 -4.39471,-3.11625 -1.10268,-0.831 -3.00439,-2.34917 -4.2349,-3.37193 -1.23051,-1.03875 -3.324,-2.89252 -4.6344,-4.13902 -1.32642,-1.23052 -3.2441,-3.16419 -4.28286,-4.28284 -1.05472,-1.13464 -2.74868,-3.05233 -3.78744,-4.28285 -1.03873,-1.2305 -2.57288,-3.16419 -3.43585,-4.31479 -0.86298,-1.13463 -2.36517,-3.29204 -3.35596,-4.79423 -0.99081,-1.50219 -2.22133,-3.43586 -2.74869,-4.3148 -0.52737,-0.87894 -1.51817,-2.63682 -2.20535,-3.91529 -0.68718,-1.27846 -1.67798,-3.21213 -2.20533,-4.3148 -0.51139,-1.10266 -1.3424,-2.94046 -1.82182,-4.07507 -0.47942,-1.13464 -1.34238,-3.33999 -1.90172,-4.87415 -0.57529,-1.53415 -1.39031,-3.97919 -1.82179,-5.43344 -0.43149,-1.45425 -1.00678,-3.49979 -1.26247,-4.55453 -0.27168,-1.05472 -0.65523,-2.74868 -0.87895,-3.75546 -0.22374,-1.0068 -0.57531,-2.9085 -0.79904,-4.2349 -0.22374,-1.31044 -0.54335,-3.61166 -0.71915,-5.11384 -0.17576,-1.5022 -0.39951,-3.77147 -0.4794,-5.06591 -0.0958,-1.31043 -0.17579,-4.50658 -0.17579,-7.11144 0,-2.62084 0.0799,-5.76904 0.15981,-6.99956 0.0958,-1.23053 0.27168,-3.21214 0.41548,-4.39471 0.12787,-1.18258 0.44748,-3.4838 0.71915,-5.11384 0.25568,-1.63002 0.71914,-4.10706 1.03873,-5.51337 0.30365,-1.4063 0.75112,-3.24407 0.95887,-4.07509 0.22373,-0.831 0.73511,-2.58887 1.13463,-3.91527 0.39951,-1.31043 1.02276,-3.18018 1.35836,-4.155 0.35156,-0.97483 1.05472,-2.79663 1.56612,-4.07508 0.51138,-1.27846 1.37433,-3.29204 1.91769,-4.47462 0.54334,-1.18258 1.53413,-3.19615 2.18936,-4.47461 0.67118,-1.27847 1.72592,-3.18017 2.33317,-4.23491 0.60729,-1.05472 1.78985,-2.95642 2.63684,-4.23489 0.831,-1.27847 2.12544,-3.18017 2.89252,-4.23491 0.75109,-1.05472 1.94965,-2.63681 2.63681,-3.51577 0.70317,-0.87892 1.74192,-2.14141 2.30124,-2.79662 0.57531,-0.6552 1.9816,-2.23731 3.16419,-3.51576 1.16659,-1.27846 3.324,-3.43586 4.8102,-4.8102 1.47024,-1.37435 3.26008,-2.98841 3.96323,-3.5797 0.70315,-0.59129 2.02956,-1.67798 2.95643,-2.3971 0.92689,-0.71914 2.5729,-1.94966 3.67559,-2.7487 1.10266,-0.78305 2.94045,-2.02955 4.07508,-2.76465 1.13463,-0.73514 3.19616,-1.98165 4.55452,-2.7647 1.35834,-0.78305 3.85134,-2.09345 5.51335,-2.90848 1.66199,-0.81502 4.01118,-1.90172 5.19375,-2.39712 1.18257,-0.49539 2.9085,-1.19855 3.83538,-1.55014 0.92689,-0.35156 2.6528,-0.95884 3.83538,-1.35836 1.18257,-0.38354 3.27606,-1.02277 4.63442,-1.4063 1.35836,-0.38355 3.62763,-0.95884 5.03394,-1.27845 1.4063,-0.31964 3.99518,-0.83102 5.75306,-1.11867 1.75789,-0.28765 4.26688,-0.6552 5.59327,-0.79902 1.31042,-0.1438 3.1482,-0.31964 4.07508,-0.38355 0.92689,-0.0799 4.01118,-0.14378 6.87173,-0.14378 z"
        />
    <path
       id="Path 0-6-1"
       class="s0"
       d="m 630.92248,411.07911 c 2.86055,-0.0159 6.20054,0.0479 7.43104,0.12788 1.23053,0.0799 3.27606,0.27167 4.55453,0.41549 1.27845,0.12787 3.78743,0.49541 5.59326,0.79905 1.80582,0.30364 4.3947,0.79904 5.75306,1.11866 1.35838,0.31961 3.37195,0.81501 4.47462,1.11865 1.10267,0.30363 3.32398,0.99081 4.95404,1.51816 1.63002,0.54334 4.21891,1.48622 5.75306,2.09348 1.53415,0.62325 3.94725,1.66199 5.35356,2.3172 1.4063,0.63925 3.64361,1.7579 4.95404,2.47704 1.32639,0.71913 3.29201,1.83777 4.3947,2.49299 1.10266,0.65521 3.08427,1.91768 4.3947,2.81261 1.3264,0.87895 3.29203,2.28525 4.39471,3.11626 1.10267,0.83099 3.00437,2.34915 4.23489,3.37192 1.23052,1.03876 3.27605,2.86056 4.5545,4.05912 1.27848,1.19855 3.21215,3.13222 4.29883,4.29882 1.07072,1.15062 2.81261,3.11624 3.85138,4.34677 1.03874,1.2305 2.57289,3.16419 3.43585,4.31479 0.86298,1.13463 2.36514,3.29205 3.35597,4.79423 0.9908,1.50219 2.22131,3.43586 2.74867,4.31482 0.52738,0.87893 1.51819,2.63681 2.20535,3.91526 0.68717,1.27846 1.67798,3.21214 2.20535,4.3148 0.51138,1.10269 1.32639,2.94048 1.8218,4.07511 0.47943,1.13463 1.32642,3.29203 1.88572,4.79421 0.54336,1.50221 1.37436,3.93128 1.82182,5.43346 0.44745,1.50221 1.02278,3.5797 1.27845,4.63443 0.27168,1.05473 0.65522,2.74869 0.87895,3.75547 0.22374,1.00678 0.5753,2.92446 0.79903,4.23489 0.22375,1.32641 0.54334,3.61166 0.71915,5.11385 0.17577,1.5022 0.3995,3.93126 0.51137,5.43346 0.11199,1.72591 0.15981,4.77823 0.0958,8.38989 -0.0479,3.11624 -0.15981,6.42426 -0.25568,7.35114 -0.0958,0.92689 -0.31962,2.82861 -0.51139,4.2349 -0.17579,1.4063 -0.55933,3.88331 -0.86296,5.51335 -0.30364,1.63004 -0.91091,4.42669 -1.37436,6.2325 -0.44745,1.80583 -1.32639,4.82618 -1.93365,6.71193 -0.62326,1.88572 -1.61406,4.6504 -2.22134,6.15258 -0.59129,1.50218 -1.59807,3.83538 -2.22131,5.19374 -0.62325,1.35836 -1.7579,3.62763 -2.50899,5.03394 -0.76706,1.4063 -1.9816,3.56371 -2.7327,4.79422 -0.7511,1.23052 -2.04554,3.2441 -2.87653,4.47462 -0.83101,1.2305 -2.17341,3.10025 -2.95646,4.155 -0.79902,1.05471 -1.94965,2.52494 -2.57289,3.27604 -0.62325,0.75109 -1.85377,2.18935 -2.7487,3.19615 -0.87892,1.00678 -2.5729,2.79663 -3.75546,3.97919 -1.18259,1.18259 -3.00439,2.94047 -4.05912,3.89931 -1.05473,0.95885 -3.10027,2.70074 -4.55452,3.86735 -1.45425,1.15061 -3.43585,2.66878 -4.3947,3.35596 -0.95884,0.70315 -2.76467,1.91769 -3.9952,2.71673 -1.2305,0.81501 -3.24408,2.04554 -4.47459,2.74869 -1.23052,0.70314 -3.13223,1.75787 -4.23491,2.33319 -1.10267,0.57531 -3.14821,1.5661 -4.55451,2.20534 -1.40631,0.62324 -3.70754,1.59807 -5.11383,2.14142 -1.40631,0.55932 -3.9153,1.45425 -5.59327,1.99759 -1.67799,0.54334 -4.12303,1.26247 -5.43346,1.61406 -1.32641,0.33559 -3.22811,0.79905 -4.23491,1.02277 -1.00677,0.22373 -3.0523,0.62325 -4.5545,0.87894 -1.50221,0.2557 -3.61165,0.57531 -4.71432,0.70315 -1.10268,0.14378 -2.74868,0.3356 -3.67558,0.43147 -0.92688,0.08 -4.20294,0.20776 -7.27124,0.2557 -3.53175,0.0479 -6.632,0.016 -8.3899,-0.0958 -1.53415,-0.11199 -3.8034,-0.30363 -5.03393,-0.43149 -1.23052,-0.14378 -3.70753,-0.49539 -5.51336,-0.79901 -1.80581,-0.30365 -4.3947,-0.79906 -5.75306,-1.11867 -1.35838,-0.31962 -3.37195,-0.81502 -4.47462,-1.11863 -1.10267,-0.30365 -3.324,-0.99084 -4.95402,-1.51819 -1.63006,-0.54334 -4.21893,-1.4862 -5.75308,-2.09348 -1.53415,-0.62324 -3.94725,-1.66199 -5.35356,-2.31722 -1.40631,-0.63921 -3.64361,-1.75786 -4.95404,-2.47701 -1.3264,-0.71914 -3.29201,-1.83778 -4.3947,-2.49298 -1.10266,-0.65523 -3.08429,-1.9177 -4.39471,-2.81262 -1.32639,-0.87894 -3.29204,-2.28524 -4.3947,-3.11625 -1.10267,-0.831 -3.00439,-2.34917 -4.23489,-3.37193 -1.23053,-1.03875 -3.324,-2.89252 -4.63443,-4.13902 -1.32641,-1.23052 -3.24409,-3.16419 -4.28282,-4.28284 -1.05473,-1.13464 -2.74871,-3.05233 -3.78745,-4.28285 -1.03875,-1.2305 -2.5729,-3.16419 -3.43587,-4.31479 -0.86297,-1.13463 -2.36515,-3.29204 -3.35596,-4.79423 -0.9908,-1.50219 -2.22132,-3.43586 -2.74867,-4.3148 -0.52738,-0.87894 -1.51819,-2.63682 -2.20535,-3.91529 -0.68718,-1.27846 -1.67798,-3.21213 -2.20535,-4.3148 -0.51139,-1.10266 -1.34238,-2.94046 -1.8218,-4.07507 -0.47943,-1.13464 -1.3424,-3.33999 -1.90172,-4.87415 -0.57531,-1.53415 -1.39033,-3.97919 -1.8218,-5.43344 -0.43148,-1.45425 -1.00677,-3.49979 -1.26247,-4.55453 -0.27168,-1.05472 -0.65522,-2.74868 -0.87894,-3.75546 -0.22374,-1.0068 -0.57531,-2.9085 -0.79906,-4.2349 -0.22373,-1.31044 -0.54334,-3.61166 -0.71913,-5.11384 -0.17577,-1.5022 -0.39951,-3.77147 -0.47942,-5.06591 -0.0958,-1.31043 -0.17579,-4.50658 -0.17579,-7.11144 0,-2.62084 0.08,-5.76904 0.15982,-6.99956 0.0958,-1.23053 0.27167,-3.21214 0.41549,-4.39471 0.12787,-1.18258 0.44746,-3.4838 0.71913,-5.11384 0.2557,-1.63002 0.71915,-4.10706 1.03875,-5.51337 0.30365,-1.4063 0.7511,-3.24407 0.95886,-4.07509 0.22372,-0.831 0.7351,-2.58887 1.13461,-3.91527 0.39954,-1.31043 1.02278,-3.18018 1.35838,-4.155 0.35157,-0.97483 1.05473,-2.79663 1.56611,-4.07508 0.51139,-1.27846 1.37434,-3.29204 1.9177,-4.47462 0.54334,-1.18258 1.53415,-3.19615 2.18935,-4.47461 0.67119,-1.27847 1.72593,-3.18017 2.33319,-4.23491 0.60727,-1.05472 1.78985,-2.95642 2.63681,-4.23489 0.83103,-1.27847 2.12545,-3.18017 2.89254,-4.23491 0.75108,-1.05472 1.94965,-2.63681 2.63681,-3.51577 0.70315,-0.87892 1.7419,-2.14141 2.30124,-2.79662 0.57531,-0.6552 1.98161,-2.23731 3.16418,-3.51576 1.1666,-1.27846 3.324,-3.43586 4.81021,-4.8102 1.47024,-1.37435 3.26007,-2.98841 3.96324,-3.5797 0.70315,-0.59129 2.02954,-1.67798 2.95642,-2.3971 0.9269,-0.71914 2.5729,-1.94966 3.67558,-2.7487 1.10266,-0.78305 2.94046,-2.02955 4.07509,-2.76465 1.13462,-0.73514 3.19615,-1.98165 4.55451,-2.7647 1.35836,-0.78305 3.85135,-2.09345 5.51336,-2.90848 1.66199,-0.81502 4.01117,-1.90172 5.19374,-2.39712 1.18259,-0.49539 2.9085,-1.19855 3.83539,-1.55014 0.92689,-0.35156 2.6528,-0.95884 3.83539,-1.35836 1.18257,-0.38354 3.27605,-1.02277 4.63441,-1.4063 1.35836,-0.38355 3.62763,-0.95884 5.03394,-1.27845 1.4063,-0.31964 3.99516,-0.83102 5.75306,-1.11867 1.75788,-0.28765 4.26686,-0.6552 5.59325,-0.79902 1.31045,-0.1438 3.14823,-0.31964 4.0751,-0.38355 0.92689,-0.0799 4.01119,-0.14378 6.87173,-0.14378 z"
        />
    <path
       id="Path 0-6-1-8"
       class="s0"
       d="m 855.2138,411.07911 c 2.86055,-0.0159 6.20053,0.0479 7.43105,0.12788 1.23053,0.0799 3.27605,0.27167 4.5545,0.41549 1.27847,0.12787 3.78744,0.49541 5.59328,0.79905 1.80581,0.30364 4.3947,0.79904 5.75306,1.11866 1.35838,0.31961 3.37195,0.81501 4.47462,1.11865 1.10267,0.30363 3.32399,0.99081 4.95402,1.51816 1.63004,0.54334 4.21892,1.48622 5.75308,2.09348 1.53415,0.62325 3.94724,1.66199 5.35355,2.3172 1.4063,0.63925 3.64362,1.7579 4.95402,2.47704 1.32642,0.71913 3.29204,1.83777 4.39472,2.49299 1.10267,0.65521 3.08427,1.91768 4.39472,2.81261 1.32639,0.87895 3.29203,2.28525 4.39469,3.11626 1.10268,0.83099 3.00439,2.34915 4.2349,3.37192 1.23052,1.03876 3.27604,2.86056 4.55451,4.05912 1.27847,1.19855 3.21214,3.13222 4.29882,4.29882 1.07071,1.15062 2.81261,3.11624 3.85137,4.34677 1.03875,1.2305 2.5729,3.16419 3.43585,4.31479 0.86298,1.13463 2.36516,3.29205 3.35598,4.79423 0.99079,1.50219 2.22131,3.43586 2.74867,4.31482 0.52738,0.87893 1.51817,2.63681 2.20535,3.91526 0.68718,1.27846 1.67798,3.21214 2.20535,4.3148 0.51139,1.10269 1.32639,2.94048 1.8218,4.07511 0.47944,1.13463 1.32639,3.29203 1.88573,4.79421 0.54335,1.50221 1.37435,3.93128 1.8218,5.43346 0.44747,1.50221 1.02276,3.5797 1.27846,4.63443 0.27168,1.05473 0.65522,2.74869 0.87894,3.75547 0.22374,1.00678 0.57531,2.92446 0.79905,4.23489 0.22374,1.32641 0.54334,3.61166 0.71912,5.11385 0.17579,1.5022 0.39953,3.93126 0.51139,5.43346 0.11199,1.72591 0.1598,4.77823 0.0958,8.38989 -0.0479,3.11624 -0.15981,6.42426 -0.2557,7.35114 -0.0958,0.92689 -0.31961,2.82861 -0.51139,4.2349 -0.17579,1.4063 -0.55932,3.88331 -0.86297,5.51335 -0.30363,1.63004 -0.91089,4.42669 -1.37433,6.2325 -0.44746,1.80583 -1.32641,4.82618 -1.93366,6.71193 -0.62325,1.88572 -1.61406,4.6504 -2.22134,6.15258 -0.59128,1.50218 -1.59807,3.83538 -2.22132,5.19374 -0.62324,1.35836 -1.75788,3.62763 -2.50898,5.03394 -0.76709,1.4063 -1.98162,3.56371 -2.7327,4.79422 -0.7511,1.23052 -2.04554,3.2441 -2.87655,4.47462 -0.83099,1.2305 -2.17339,3.10025 -2.95644,4.155 -0.79903,1.05471 -1.94965,2.52494 -2.5729,3.27604 -0.62324,0.75109 -1.85376,2.18935 -2.74869,3.19615 -0.87893,1.00678 -2.5729,2.79663 -3.75546,3.97919 -1.18259,1.18259 -3.00439,2.94047 -4.05912,3.89931 -1.05473,0.95885 -3.10027,2.70074 -4.55452,3.86735 -1.45425,1.15061 -3.43586,2.66878 -4.3947,3.35596 -0.95885,0.70315 -2.76467,1.91769 -3.9952,2.71673 -1.2305,0.81501 -3.24408,2.04554 -4.4746,2.74869 -1.23052,0.70314 -3.13223,1.75787 -4.23491,2.33319 -1.10266,0.57531 -3.14819,1.5661 -4.5545,2.20534 -1.4063,0.62324 -3.70754,1.59807 -5.11385,2.14142 -1.4063,0.55932 -3.91528,1.45425 -5.59325,1.99759 -1.67798,0.54334 -4.12304,1.26247 -5.43347,1.61406 -1.32641,0.33559 -3.22811,0.79905 -4.23489,1.02277 -1.00679,0.22373 -3.05231,0.62325 -4.55452,0.87894 -1.50219,0.2557 -3.61164,0.57531 -4.71433,0.70315 -1.10266,0.14378 -2.74867,0.3356 -3.67556,0.43147 -0.92688,0.08 -4.20294,0.20776 -7.27123,0.2557 -3.53176,0.0479 -6.63202,0.016 -8.38991,-0.0958 -1.53416,-0.11199 -3.80341,-0.30363 -5.03393,-0.43149 -1.23052,-0.14378 -3.70753,-0.49539 -5.51336,-0.79901 -1.80582,-0.30365 -4.39471,-0.79906 -5.75306,-1.11867 -1.35838,-0.31962 -3.37196,-0.81502 -4.47463,-1.11863 -1.10266,-0.30365 -3.324,-0.99084 -4.95402,-1.51819 -1.63004,-0.54334 -4.21892,-1.4862 -5.75308,-2.09348 -1.53415,-0.62324 -3.94724,-1.66199 -5.35355,-2.31722 -1.4063,-0.63921 -3.6436,-1.75786 -4.95403,-2.47701 -1.32641,-0.71914 -3.29202,-1.83778 -4.39471,-2.49298 -1.10267,-0.65523 -3.08429,-1.9177 -4.3947,-2.81262 -1.32641,-0.87894 -3.29205,-2.28524 -4.39471,-3.11625 -1.10269,-0.831 -3.00439,-2.34917 -4.2349,-3.37193 -1.23052,-1.03875 -3.324,-2.89252 -4.63442,-4.13902 -1.32641,-1.23052 -3.2441,-3.16419 -4.28285,-4.28284 -1.05472,-1.13464 -2.74868,-3.05233 -3.78743,-4.28285 -1.03874,-1.2305 -2.57288,-3.16419 -3.43586,-4.31479 -0.86297,-1.13463 -2.36516,-3.29204 -3.35596,-4.79423 -0.9908,-1.50219 -2.22132,-3.43586 -2.74868,-4.3148 -0.52737,-0.87894 -1.51818,-2.63682 -2.20537,-3.91529 -0.68714,-1.27846 -1.67796,-3.21213 -2.20532,-4.3148 -0.51138,-1.10266 -1.34239,-2.94046 -1.82183,-4.07507 -0.4794,-1.13464 -1.34237,-3.33999 -1.90168,-4.87415 -0.57531,-1.53415 -1.39033,-3.97919 -1.82181,-5.43344 -0.4315,-1.45425 -1.0068,-3.49979 -1.26247,-4.55453 -0.27168,-1.05472 -0.65524,-2.74868 -0.87895,-3.75546 -0.22374,-1.0068 -0.5753,-2.9085 -0.79905,-4.2349 -0.22373,-1.31044 -0.54334,-3.61166 -0.71913,-5.11384 -0.17577,-1.5022 -0.39952,-3.77147 -0.47942,-5.06591 -0.0958,-1.31043 -0.17578,-4.50658 -0.17578,-7.11144 0,-2.62084 0.08,-5.76904 0.15981,-6.99956 0.0958,-1.23053 0.27167,-3.21214 0.41548,-4.39471 0.12787,-1.18258 0.44747,-3.4838 0.71914,-5.11384 0.25569,-1.63002 0.71915,-4.10706 1.03876,-5.51337 0.30363,-1.4063 0.75109,-3.24407 0.95885,-4.07509 0.22372,-0.831 0.73511,-2.58887 1.13461,-3.91527 0.39953,-1.31043 1.02278,-3.18018 1.35838,-4.155 0.35158,-0.97483 1.05473,-2.79663 1.56612,-4.07508 0.51138,-1.27846 1.37433,-3.29204 1.91769,-4.47462 0.54334,-1.18258 1.53413,-3.19615 2.18936,-4.47461 0.67118,-1.27847 1.72592,-3.18017 2.33317,-4.23491 0.60728,-1.05472 1.78985,-2.95642 2.63682,-4.23489 0.831,-1.27847 2.12545,-3.18017 2.89254,-4.23491 0.75109,-1.05472 1.94965,-2.63681 2.63681,-3.51577 0.70315,-0.87892 1.74191,-2.14141 2.30124,-2.79662 0.57531,-0.6552 1.98161,-2.23731 3.16419,-3.51576 1.16659,-1.27846 3.32399,-3.43586 4.8102,-4.8102 1.47024,-1.37435 3.26006,-2.98841 3.96321,-3.5797 0.70317,-0.59129 2.02958,-1.67798 2.95645,-2.3971 0.92688,-0.71914 2.5729,-1.94966 3.67559,-2.7487 1.10266,-0.78305 2.94045,-2.02955 4.07508,-2.76465 1.13463,-0.73514 3.19615,-1.98165 4.55451,-2.7647 1.35835,-0.78305 3.85135,-2.09345 5.51336,-2.90848 1.66199,-0.81502 4.01117,-1.90172 5.19375,-2.39712 1.18257,-0.49539 2.9085,-1.19855 3.83538,-1.55014 0.92689,-0.35156 2.6528,-0.95884 3.83536,-1.35836 1.1826,-0.38354 3.27608,-1.02277 4.63444,-1.4063 1.35836,-0.38355 3.62763,-0.95884 5.03394,-1.27845 1.4063,-0.31964 3.99517,-0.83102 5.75306,-1.11867 1.75788,-0.28765 4.26686,-0.6552 5.59326,-0.79902 1.31043,-0.1438 3.14821,-0.31964 4.07509,-0.38355 0.92689,-0.0799 4.01118,-0.14378 6.87173,-0.14378 z"
        />
    <path
       id="Path 0-6-19"
       class="s0"
       d="m 404.71414,637.28745 c 2.86056,-0.0159 6.20053,0.0479 7.43105,0.12787 1.23053,0.08 3.27605,0.27166 4.55452,0.4155 1.27846,0.12787 3.78742,0.49539 5.59326,0.79904 1.80582,0.30362 4.39471,0.79901 5.75307,1.11865 1.35837,0.31961 3.37193,0.815 4.47462,1.11865 1.10267,0.30363 3.32399,0.99081 4.95402,1.51817 1.63004,0.54334 4.21892,1.48621 5.75308,2.09347 1.53415,0.62325 3.94724,1.662 5.35354,2.31721 1.40631,0.63925 3.64361,1.75788 4.95404,2.47701 1.32641,0.71915 3.29203,1.8378 4.3947,2.49301 1.10268,0.65522 3.08429,1.91769 4.39472,2.81262 1.32639,0.87893 3.29203,2.28525 4.39469,3.11624 1.10268,0.831 3.00439,2.34916 4.23491,3.37193 1.23053,1.03875 3.27604,2.86057 4.55451,4.05912 1.27847,1.19855 3.21214,3.13222 4.29882,4.29882 1.07071,1.15062 2.81261,3.11625 3.85136,4.34676 1.03875,1.23053 2.5729,3.16418 3.43587,4.31482 0.86296,1.13462 2.36516,3.29201 3.35596,4.79421 0.9908,1.50219 2.22131,3.43586 2.74869,4.3148 0.52737,0.87894 1.51816,2.63683 2.20535,3.91529 0.68716,1.27845 1.67797,3.21214 2.20533,4.3148 0.51139,1.10266 1.3264,2.94046 1.82182,4.0751 0.47942,1.13463 1.32639,3.29203 1.88571,4.79421 0.54336,1.5022 1.37435,3.93128 1.82181,5.43347 0.44748,1.5022 1.02277,3.57967 1.27847,4.63442 0.27167,1.05472 0.65521,2.74868 0.87893,3.75547 0.22373,1.00678 0.57532,2.92448 0.79904,4.23491 0.22373,1.32639 0.54334,3.61165 0.71913,5.11382 0.1758,1.50219 0.39952,3.93127 0.51137,5.43347 0.112,1.72591 0.15983,4.77824 0.0958,8.3899 -0.0479,3.11624 -0.15981,6.42425 -0.2557,7.35115 -0.0958,0.92686 -0.31961,2.82859 -0.51139,4.23489 -0.17577,1.40631 -0.55932,3.8833 -0.86296,5.51336 -0.30364,1.63003 -0.9109,4.42665 -1.37434,6.23248 -0.44745,1.80583 -1.32641,4.82619 -1.93367,6.71192 -0.62324,1.88572 -1.61406,4.6504 -2.22133,6.15259 -0.59127,1.50219 -1.59807,3.83538 -2.22132,5.19374 -0.62324,1.35836 -1.75788,3.62765 -2.50898,5.03395 -0.76707,1.40631 -1.98161,3.5637 -2.7327,4.79421 -0.7511,1.23053 -2.04555,3.24409 -2.87654,4.47463 -0.831,1.23049 -2.17338,3.10024 -2.95645,4.15498 -0.79903,1.05472 -1.94965,2.52496 -2.5729,3.27604 -0.62324,0.7511 -1.85376,2.18936 -2.74868,3.19616 -0.87894,1.00678 -2.5729,2.79662 -3.75547,3.9792 -1.18257,1.18258 -3.00439,2.94046 -4.05912,3.8993 -1.05473,0.95885 -3.10026,2.70076 -4.55451,3.86735 -1.45427,1.15062 -3.43587,2.66879 -4.39471,3.35595 -0.95885,0.70316 -2.76466,1.9177 -3.9952,2.71674 -1.23051,0.81501 -3.24407,2.04554 -4.4746,2.74868 -1.23052,0.70316 -3.13222,1.75789 -4.23491,2.33319 -1.10266,0.57531 -3.14819,1.56613 -4.5545,2.20534 -1.4063,0.62326 -3.70754,1.59809 -5.11385,2.14143 -1.4063,0.55933 -3.91528,1.45425 -5.59325,1.99761 -1.67798,0.54332 -4.12304,1.26245 -5.43347,1.61404 -1.32641,0.3356 -3.22811,0.79903 -4.23489,1.02276 -1.00679,0.22375 -3.05232,0.62326 -4.55452,0.87894 -1.50219,0.25571 -3.61164,0.57531 -4.71431,0.70316 -1.10267,0.14378 -2.74869,0.3356 -3.67558,0.43149 -0.92688,0.0799 -4.20293,0.20775 -7.27123,0.25567 -3.53176,0.0479 -6.63202,0.016 -8.38992,-0.0958 -1.53415,-0.112 -3.8034,-0.30365 -5.03392,-0.43149 -1.23052,-0.14378 -3.70753,-0.49541 -5.51335,-0.79905 -1.80583,-0.30363 -4.39472,-0.79902 -5.75307,-1.11865 -1.35837,-0.3196 -3.37196,-0.815 -4.47463,-1.11865 -1.10266,-0.30363 -3.324,-0.9908 -4.95402,-1.51817 -1.63004,-0.54334 -4.21892,-1.4862 -5.75308,-2.09348 -1.53415,-0.62324 -3.94724,-1.66201 -5.35355,-2.31721 -1.4063,-0.63924 -3.6436,-1.75789 -4.95403,-2.477 -1.32641,-0.71915 -3.29203,-1.8378 -4.39471,-2.493 -1.10267,-0.65523 -3.08427,-1.9177 -4.3947,-2.81263 -1.32641,-0.87893 -3.29205,-2.28525 -4.39471,-3.11624 -1.10268,-0.83098 -3.00439,-2.34917 -4.2349,-3.37193 -1.23051,-1.03875 -3.324,-2.89252 -4.6344,-4.13902 -1.32642,-1.23052 -3.2441,-3.16419 -4.28286,-4.28285 -1.05472,-1.13463 -2.74868,-3.05232 -3.78744,-4.28282 -1.03873,-1.23053 -2.57288,-3.16419 -3.43585,-4.31482 -0.86298,-1.13462 -2.36517,-3.29202 -3.35596,-4.79421 -0.99081,-1.50219 -2.22133,-3.43586 -2.74869,-4.3148 -0.52737,-0.87895 -1.51817,-2.63683 -2.20535,-3.9153 -0.68718,-1.27846 -1.67798,-3.21213 -2.20533,-4.31479 -0.51139,-1.10267 -1.3424,-2.94047 -1.82182,-4.07509 -0.47942,-1.13464 -1.34238,-3.33998 -1.90172,-4.87413 -0.57529,-1.53416 -1.39031,-3.97922 -1.82179,-5.43347 -0.43149,-1.45423 -1.00678,-3.49977 -1.26247,-4.5545 -0.27168,-1.05474 -0.65523,-2.74869 -0.87895,-3.75549 -0.22374,-1.00677 -0.57531,-2.9085 -0.79904,-4.23489 -0.22374,-1.31042 -0.54335,-3.61165 -0.71915,-5.11383 -0.17576,-1.5022 -0.39951,-3.77147 -0.4794,-5.06589 -0.0958,-1.31045 -0.17579,-4.50659 -0.17579,-7.11144 0,-2.62085 0.0799,-5.76906 0.15981,-6.99959 0.0958,-1.2305 0.27168,-3.21212 0.41548,-4.3947 0.12787,-1.18258 0.44748,-3.4838 0.71915,-5.11384 0.25568,-1.63002 0.71914,-4.10705 1.03873,-5.51335 0.30365,-1.40631 0.75112,-3.2441 0.95887,-4.0751 0.22373,-0.83101 0.73511,-2.58889 1.13463,-3.91528 0.39951,-1.31042 1.02276,-3.18018 1.35836,-4.15501 0.35156,-0.97482 1.05472,-2.79661 1.56612,-4.07507 0.51138,-1.27848 1.37433,-3.29204 1.91769,-4.47462 0.54334,-1.18257 1.53413,-3.19615 2.18936,-4.47461 0.67118,-1.27845 1.72592,-3.18017 2.33317,-4.2349 0.60729,-1.05471 1.78985,-2.95644 2.63684,-4.23489 0.831,-1.27846 2.12544,-3.18018 2.89252,-4.23491 0.75109,-1.05474 1.94965,-2.63683 2.63681,-3.51576 0.70317,-0.87894 1.74192,-2.14143 2.30124,-2.79663 0.57531,-0.65521 1.9816,-2.23731 3.16419,-3.51577 1.16659,-1.27847 3.324,-3.43588 4.8102,-4.81021 1.47024,-1.37434 3.26008,-2.9884 3.96323,-3.57968 0.70315,-0.5913 2.02956,-1.67798 2.95643,-2.39712 0.92689,-0.71912 2.5729,-1.94965 3.67559,-2.74868 1.10266,-0.78306 2.94045,-2.02957 4.07508,-2.76468 1.13463,-0.7351 3.19616,-1.98161 4.55452,-2.76466 1.35834,-0.78305 3.85134,-2.09348 5.51335,-2.9085 1.66199,-0.81502 4.01118,-1.90171 5.19375,-2.3971 1.18257,-0.49543 2.9085,-1.19858 3.83538,-1.55016 0.92689,-0.35157 2.6528,-0.95884 3.83538,-1.35834 1.18257,-0.38355 3.27606,-1.02278 4.63442,-1.40632 1.35836,-0.38353 3.62763,-0.95886 5.03394,-1.27846 1.4063,-0.31961 3.99518,-0.831 5.75306,-1.11865 1.75789,-0.28766 4.26688,-0.65521 5.59327,-0.79905 1.31042,-0.14378 3.1482,-0.31961 4.07508,-0.38353 0.92689,-0.0799 4.01118,-0.14379 6.87173,-0.14379 z"
       />
    <path
       id="Path 0-6-1-88"
       class="s0"
       d="m 630.92248,637.28745 c 2.86055,-0.0159 6.20054,0.0479 7.43104,0.12787 1.23053,0.08 3.27606,0.27166 4.55453,0.4155 1.27845,0.12787 3.78743,0.49539 5.59326,0.79904 1.80582,0.30362 4.3947,0.79901 5.75306,1.11865 1.35838,0.31961 3.37195,0.815 4.47462,1.11865 1.10267,0.30363 3.32398,0.99081 4.95404,1.51817 1.63002,0.54334 4.21891,1.48621 5.75306,2.09347 1.53415,0.62325 3.94725,1.662 5.35356,2.31721 1.4063,0.63925 3.64361,1.75788 4.95404,2.47701 1.32639,0.71915 3.29201,1.8378 4.3947,2.49301 1.10266,0.65522 3.08427,1.91769 4.3947,2.81262 1.3264,0.87893 3.29203,2.28525 4.39471,3.11624 1.10267,0.831 3.00437,2.34916 4.23489,3.37193 1.23052,1.03875 3.27605,2.86057 4.5545,4.05912 1.27848,1.19855 3.21215,3.13222 4.29883,4.29882 1.07072,1.15062 2.81261,3.11625 3.85138,4.34676 1.03874,1.23053 2.57289,3.16418 3.43585,4.31482 0.86298,1.13462 2.36514,3.29201 3.35597,4.79421 0.9908,1.50219 2.22131,3.43586 2.74867,4.3148 0.52738,0.87894 1.51819,2.63683 2.20535,3.91529 0.68717,1.27845 1.67798,3.21214 2.20535,4.3148 0.51138,1.10266 1.32639,2.94046 1.8218,4.0751 0.47943,1.13463 1.32642,3.29203 1.88572,4.79421 0.54336,1.5022 1.37436,3.93128 1.82182,5.43347 0.44745,1.5022 1.02278,3.57967 1.27845,4.63442 0.27168,1.05472 0.65522,2.74868 0.87895,3.75547 0.22374,1.00678 0.5753,2.92448 0.79903,4.23491 0.22375,1.32639 0.54334,3.61165 0.71915,5.11382 0.17577,1.50219 0.3995,3.93127 0.51137,5.43347 0.11199,1.72591 0.15981,4.77824 0.0958,8.3899 -0.0479,3.11624 -0.15981,6.42425 -0.25568,7.35115 -0.0958,0.92686 -0.31962,2.82859 -0.51139,4.23489 -0.17579,1.40631 -0.55933,3.8833 -0.86296,5.51336 -0.30364,1.63003 -0.91091,4.42665 -1.37436,6.23248 -0.44745,1.80583 -1.32639,4.82619 -1.93365,6.71192 -0.62326,1.88572 -1.61406,4.6504 -2.22134,6.15259 -0.59129,1.50219 -1.59807,3.83538 -2.22131,5.19374 -0.62325,1.35836 -1.7579,3.62765 -2.50899,5.03395 -0.76706,1.40631 -1.9816,3.5637 -2.7327,4.79421 -0.7511,1.23053 -2.04554,3.24409 -2.87653,4.47463 -0.83101,1.23049 -2.17341,3.10024 -2.95646,4.15498 -0.79902,1.05472 -1.94965,2.52496 -2.57289,3.27604 -0.62325,0.7511 -1.85377,2.18936 -2.7487,3.19616 -0.87892,1.00678 -2.5729,2.79662 -3.75546,3.9792 -1.18259,1.18258 -3.00439,2.94046 -4.05912,3.8993 -1.05473,0.95885 -3.10027,2.70076 -4.55452,3.86735 -1.45425,1.15062 -3.43585,2.66879 -4.3947,3.35595 -0.95884,0.70316 -2.76467,1.9177 -3.9952,2.71674 -1.2305,0.81501 -3.24408,2.04554 -4.47459,2.74868 -1.23052,0.70316 -3.13223,1.75789 -4.23491,2.33319 -1.10267,0.57531 -3.14821,1.56613 -4.55451,2.20534 -1.40631,0.62326 -3.70754,1.59809 -5.11383,2.14143 -1.40631,0.55933 -3.9153,1.45425 -5.59327,1.99761 -1.67799,0.54332 -4.12303,1.26245 -5.43346,1.61404 -1.32641,0.3356 -3.22811,0.79903 -4.23491,1.02276 -1.00677,0.22375 -3.0523,0.62326 -4.5545,0.87894 -1.50221,0.25571 -3.61165,0.57531 -4.71432,0.70316 -1.10268,0.14378 -2.74868,0.3356 -3.67558,0.43149 -0.92688,0.0799 -4.20294,0.20775 -7.27124,0.25567 -3.53175,0.0479 -6.632,0.016 -8.3899,-0.0958 -1.53415,-0.112 -3.8034,-0.30365 -5.03393,-0.43149 -1.23052,-0.14378 -3.70753,-0.49541 -5.51336,-0.79905 -1.80581,-0.30363 -4.3947,-0.79902 -5.75306,-1.11865 -1.35838,-0.3196 -3.37195,-0.815 -4.47462,-1.11865 -1.10267,-0.30363 -3.324,-0.9908 -4.95402,-1.51817 -1.63006,-0.54334 -4.21893,-1.4862 -5.75308,-2.09348 -1.53415,-0.62324 -3.94725,-1.66201 -5.35356,-2.31721 -1.40631,-0.63924 -3.64361,-1.75789 -4.95404,-2.477 -1.3264,-0.71915 -3.29201,-1.8378 -4.3947,-2.493 -1.10266,-0.65523 -3.08429,-1.9177 -4.39471,-2.81263 -1.32639,-0.87893 -3.29204,-2.28525 -4.3947,-3.11624 -1.10267,-0.83098 -3.00439,-2.34917 -4.23489,-3.37193 -1.23053,-1.03875 -3.324,-2.89252 -4.63443,-4.13902 -1.32641,-1.23052 -3.24409,-3.16419 -4.28282,-4.28285 -1.05473,-1.13463 -2.74871,-3.05232 -3.78745,-4.28282 -1.03875,-1.23053 -2.5729,-3.16419 -3.43587,-4.31482 -0.86297,-1.13462 -2.36515,-3.29202 -3.35596,-4.79421 -0.9908,-1.50219 -2.22132,-3.43586 -2.74867,-4.3148 -0.52738,-0.87895 -1.51819,-2.63683 -2.20535,-3.9153 -0.68718,-1.27846 -1.67798,-3.21213 -2.20535,-4.31479 -0.51139,-1.10267 -1.34238,-2.94047 -1.8218,-4.07509 -0.47943,-1.13464 -1.3424,-3.33998 -1.90172,-4.87413 -0.57531,-1.53416 -1.39033,-3.97922 -1.8218,-5.43347 -0.43148,-1.45423 -1.00677,-3.49977 -1.26247,-4.5545 -0.27168,-1.05474 -0.65522,-2.74869 -0.87894,-3.75549 -0.22374,-1.00677 -0.57531,-2.9085 -0.79906,-4.23489 -0.22373,-1.31042 -0.54334,-3.61165 -0.71913,-5.11383 -0.17577,-1.5022 -0.39951,-3.77147 -0.47942,-5.06589 -0.0958,-1.31045 -0.17579,-4.50659 -0.17579,-7.11144 0,-2.62085 0.08,-5.76906 0.15982,-6.99959 0.0958,-1.2305 0.27167,-3.21212 0.41549,-4.3947 0.12787,-1.18258 0.44746,-3.4838 0.71913,-5.11384 0.2557,-1.63002 0.71915,-4.10705 1.03875,-5.51335 0.30365,-1.40631 0.7511,-3.2441 0.95886,-4.0751 0.22372,-0.83101 0.7351,-2.58889 1.13461,-3.91528 0.39954,-1.31042 1.02278,-3.18018 1.35838,-4.15501 0.35157,-0.97482 1.05473,-2.79661 1.56611,-4.07507 0.51139,-1.27848 1.37434,-3.29204 1.9177,-4.47462 0.54334,-1.18257 1.53415,-3.19615 2.18935,-4.47461 0.67119,-1.27845 1.72593,-3.18017 2.33319,-4.2349 0.60727,-1.05471 1.78985,-2.95644 2.63681,-4.23489 0.83103,-1.27846 2.12545,-3.18018 2.89254,-4.23491 0.75108,-1.05474 1.94965,-2.63683 2.63681,-3.51576 0.70315,-0.87894 1.7419,-2.14143 2.30124,-2.79663 0.57531,-0.65521 1.98161,-2.23731 3.16418,-3.51577 1.1666,-1.27847 3.324,-3.43588 4.81021,-4.81021 1.47024,-1.37434 3.26007,-2.9884 3.96324,-3.57968 0.70315,-0.5913 2.02954,-1.67798 2.95642,-2.39712 0.9269,-0.71912 2.5729,-1.94965 3.67558,-2.74868 1.10266,-0.78306 2.94046,-2.02957 4.07509,-2.76468 1.13462,-0.7351 3.19615,-1.98161 4.55451,-2.76466 1.35836,-0.78305 3.85135,-2.09348 5.51336,-2.9085 1.66199,-0.81502 4.01117,-1.90171 5.19374,-2.3971 1.18259,-0.49543 2.9085,-1.19858 3.83539,-1.55016 0.92689,-0.35157 2.6528,-0.95884 3.83539,-1.35834 1.18257,-0.38355 3.27605,-1.02278 4.63441,-1.40632 1.35836,-0.38353 3.62763,-0.95886 5.03394,-1.27846 1.4063,-0.31961 3.99516,-0.831 5.75306,-1.11865 1.75788,-0.28766 4.26686,-0.65521 5.59325,-0.79905 1.31045,-0.14378 3.14823,-0.31961 4.0751,-0.38353 0.92689,-0.0799 4.01119,-0.14379 6.87173,-0.14379 z"
       />
    <path
       id="Path 0-6-1-8-2"
       class="s0"
       d="m 855.2138,637.28745 c 2.86055,-0.0159 6.20053,0.0479 7.43105,0.12787 1.23053,0.08 3.27605,0.27166 4.5545,0.4155 1.27847,0.12787 3.78744,0.49539 5.59328,0.79904 1.80581,0.30362 4.3947,0.79901 5.75306,1.11865 1.35838,0.31961 3.37195,0.815 4.47462,1.11865 1.10267,0.30363 3.32399,0.99081 4.95402,1.51817 1.63004,0.54334 4.21892,1.48621 5.75308,2.09347 1.53415,0.62325 3.94724,1.662 5.35355,2.31721 1.4063,0.63925 3.64362,1.75788 4.95402,2.47701 1.32642,0.71915 3.29204,1.8378 4.39472,2.49301 1.10267,0.65522 3.08427,1.91769 4.39472,2.81262 1.32639,0.87893 3.29203,2.28525 4.39469,3.11624 1.10268,0.831 3.00439,2.34916 4.2349,3.37193 1.23052,1.03875 3.27604,2.86057 4.55451,4.05912 1.27847,1.19855 3.21214,3.13222 4.29882,4.29882 1.07071,1.15062 2.81261,3.11625 3.85137,4.34676 1.03875,1.23053 2.5729,3.16418 3.43585,4.31482 0.86298,1.13462 2.36516,3.29201 3.35598,4.79421 0.99079,1.50219 2.22131,3.43586 2.74867,4.3148 0.52738,0.87894 1.51817,2.63683 2.20535,3.91529 0.68718,1.27845 1.67798,3.21214 2.20535,4.3148 0.51139,1.10266 1.32639,2.94046 1.8218,4.0751 0.47944,1.13463 1.32639,3.29203 1.88573,4.79421 0.54335,1.5022 1.37435,3.93128 1.8218,5.43347 0.44747,1.5022 1.02276,3.57967 1.27846,4.63442 0.27168,1.05472 0.65522,2.74868 0.87894,3.75547 0.22374,1.00678 0.57531,2.92448 0.79905,4.23491 0.22374,1.32639 0.54334,3.61165 0.71912,5.11382 0.17579,1.50219 0.39953,3.93127 0.51139,5.43347 0.11199,1.72591 0.1598,4.77824 0.0958,8.3899 -0.0479,3.11624 -0.15981,6.42425 -0.2557,7.35115 -0.0958,0.92686 -0.31961,2.82859 -0.51139,4.23489 -0.17579,1.40631 -0.55932,3.8833 -0.86297,5.51336 -0.30363,1.63003 -0.91089,4.42665 -1.37433,6.23248 -0.44746,1.80583 -1.32641,4.82619 -1.93366,6.71192 -0.62325,1.88572 -1.61406,4.6504 -2.22134,6.15259 -0.59128,1.50219 -1.59807,3.83538 -2.22132,5.19374 -0.62324,1.35836 -1.75788,3.62765 -2.50898,5.03395 -0.76709,1.40631 -1.98162,3.5637 -2.7327,4.79421 -0.7511,1.23053 -2.04554,3.24409 -2.87655,4.47463 -0.83099,1.23049 -2.17339,3.10024 -2.95644,4.15498 -0.79903,1.05472 -1.94965,2.52496 -2.5729,3.27604 -0.62324,0.7511 -1.85376,2.18936 -2.74869,3.19616 -0.87893,1.00678 -2.5729,2.79662 -3.75546,3.9792 -1.18259,1.18258 -3.00439,2.94046 -4.05912,3.8993 -1.05473,0.95885 -3.10027,2.70076 -4.55452,3.86735 -1.45425,1.15062 -3.43586,2.66879 -4.3947,3.35595 -0.95885,0.70316 -2.76467,1.9177 -3.9952,2.71674 -1.2305,0.81501 -3.24408,2.04554 -4.4746,2.74868 -1.23052,0.70316 -3.13223,1.75789 -4.23491,2.33319 -1.10266,0.57531 -3.14819,1.56613 -4.5545,2.20534 -1.4063,0.62326 -3.70754,1.59809 -5.11385,2.14143 -1.4063,0.55933 -3.91528,1.45425 -5.59325,1.99761 -1.67798,0.54332 -4.12304,1.26245 -5.43347,1.61404 -1.32641,0.3356 -3.22811,0.79903 -4.23489,1.02276 -1.00679,0.22375 -3.05231,0.62326 -4.55452,0.87894 -1.50219,0.25571 -3.61164,0.57531 -4.71433,0.70316 -1.10266,0.14378 -2.74867,0.3356 -3.67556,0.43149 -0.92688,0.0799 -4.20294,0.20775 -7.27123,0.25567 -3.53176,0.0479 -6.63202,0.016 -8.38991,-0.0958 -1.53416,-0.112 -3.80341,-0.30365 -5.03393,-0.43149 -1.23052,-0.14378 -3.70753,-0.49541 -5.51336,-0.79905 -1.80582,-0.30363 -4.39471,-0.79902 -5.75306,-1.11865 -1.35838,-0.3196 -3.37196,-0.815 -4.47463,-1.11865 -1.10266,-0.30363 -3.324,-0.9908 -4.95402,-1.51817 -1.63004,-0.54334 -4.21892,-1.4862 -5.75308,-2.09348 -1.53415,-0.62324 -3.94724,-1.66201 -5.35355,-2.31721 -1.4063,-0.63924 -3.6436,-1.75789 -4.95403,-2.477 -1.32641,-0.71915 -3.29202,-1.8378 -4.39471,-2.493 -1.10267,-0.65523 -3.08429,-1.9177 -4.3947,-2.81263 -1.32641,-0.87893 -3.29205,-2.28525 -4.39471,-3.11624 -1.10269,-0.83098 -3.00439,-2.34917 -4.2349,-3.37193 -1.23052,-1.03875 -3.324,-2.89252 -4.63442,-4.13902 -1.32641,-1.23052 -3.2441,-3.16419 -4.28285,-4.28285 -1.05472,-1.13463 -2.74868,-3.05232 -3.78743,-4.28282 -1.03874,-1.23053 -2.57288,-3.16419 -3.43586,-4.31482 -0.86297,-1.13462 -2.36516,-3.29202 -3.35596,-4.79421 -0.9908,-1.50219 -2.22132,-3.43586 -2.74868,-4.3148 -0.52737,-0.87895 -1.51818,-2.63683 -2.20537,-3.9153 -0.68714,-1.27846 -1.67796,-3.21213 -2.20532,-4.31479 -0.51138,-1.10267 -1.34239,-2.94047 -1.82183,-4.07509 -0.4794,-1.13464 -1.34237,-3.33998 -1.90168,-4.87413 -0.57531,-1.53416 -1.39033,-3.97922 -1.82181,-5.43347 -0.4315,-1.45423 -1.0068,-3.49977 -1.26247,-4.5545 -0.27168,-1.05474 -0.65524,-2.74869 -0.87895,-3.75549 -0.22374,-1.00677 -0.5753,-2.9085 -0.79905,-4.23489 -0.22373,-1.31042 -0.54334,-3.61165 -0.71913,-5.11383 -0.17577,-1.5022 -0.39952,-3.77147 -0.47942,-5.06589 -0.0958,-1.31045 -0.17578,-4.50659 -0.17578,-7.11144 0,-2.62085 0.08,-5.76906 0.15981,-6.99959 0.0958,-1.2305 0.27167,-3.21212 0.41548,-4.3947 0.12787,-1.18258 0.44747,-3.4838 0.71914,-5.11384 0.25569,-1.63002 0.71915,-4.10705 1.03876,-5.51335 0.30363,-1.40631 0.75109,-3.2441 0.95885,-4.0751 0.22372,-0.83101 0.73511,-2.58889 1.13461,-3.91528 0.39953,-1.31042 1.02278,-3.18018 1.35838,-4.15501 0.35158,-0.97482 1.05473,-2.79661 1.56612,-4.07507 0.51138,-1.27848 1.37433,-3.29204 1.91769,-4.47462 0.54334,-1.18257 1.53413,-3.19615 2.18936,-4.47461 0.67118,-1.27845 1.72592,-3.18017 2.33317,-4.2349 0.60728,-1.05471 1.78985,-2.95644 2.63682,-4.23489 0.831,-1.27846 2.12545,-3.18018 2.89254,-4.23491 0.75109,-1.05474 1.94965,-2.63683 2.63681,-3.51576 0.70315,-0.87894 1.74191,-2.14143 2.30124,-2.79663 0.57531,-0.65521 1.98161,-2.23731 3.16419,-3.51577 1.16659,-1.27847 3.32399,-3.43588 4.8102,-4.81021 1.47024,-1.37434 3.26006,-2.9884 3.96321,-3.57968 0.70317,-0.5913 2.02958,-1.67798 2.95645,-2.39712 0.92688,-0.71912 2.5729,-1.94965 3.67559,-2.74868 1.10266,-0.78306 2.94045,-2.02957 4.07508,-2.76468 1.13463,-0.7351 3.19615,-1.98161 4.55451,-2.76466 1.35835,-0.78305 3.85135,-2.09348 5.51336,-2.9085 1.66199,-0.81502 4.01117,-1.90171 5.19375,-2.3971 1.18257,-0.49543 2.9085,-1.19858 3.83538,-1.55016 0.92689,-0.35157 2.6528,-0.95884 3.83536,-1.35834 1.1826,-0.38355 3.27608,-1.02278 4.63444,-1.40632 1.35836,-0.38353 3.62763,-0.95886 5.03394,-1.27846 1.4063,-0.31961 3.99517,-0.831 5.75306,-1.11865 1.75788,-0.28766 4.26686,-0.65521 5.59326,-0.79905 1.31043,-0.14378 3.14821,-0.31961 4.07509,-0.38353 0.92689,-0.0799 4.01118,-0.14379 6.87173,-0.14379 z"
        />
  </g>
</svg>
