<?xml version="1.0" encoding="UTF-8" standalone="no"?>
<svg
   id="svg"
   version="1.1"
   width="400"
   height="400"
   viewBox="0 0 400 400"
   sodipodi:docname="darkcube.svg"
   inkscape:version="1.3 (0e150ed6c4, 2023-07-21)"
   xmlns:inkscape="http://www.inkscape.org/namespaces/inkscape"
   xmlns:sodipodi="http://sodipodi.sourceforge.net/DTD/sodipodi-0.dtd"
   xmlns="http://www.w3.org/2000/svg"
   xmlns:svg="http://www.w3.org/2000/svg">
  <defs
     id="defs1" />
  <sodipodi:namedview
     id="namedview1"
     pagecolor="#ffffff"
     bordercolor="#666666"
     borderopacity="1.0"
     inkscape:showpageshadow="2"
     inkscape:pageopacity="0.0"
     inkscape:pagecheckerboard="0"
     inkscape:deskcolor="#d1d1d1"
     inkscape:zoom="1.9001969"
     inkscape:cx="172.35056"
     inkscape:cy="189.45405"
     inkscape:window-width="1835"
     inkscape:window-height="1481"
     inkscape:window-x="550"
     inkscape:window-y="0"
     inkscape:window-maximized="0"
     inkscape:current-layer="svg" />
  <path
     id="Path 0"
     class="s0"
     d="m 199.08128,0.04054547 c 5.59429,-0.03124809 12.12615,0.09375481 14.53263,0.25002365 2.40648,0.1562657 6.40685,0.53130089 8.90709,0.81257788 2.50024,0.2500237 7.40694,0.9688413 10.93853,1.5626476 3.53159,0.5938053 8.59456,1.5626476 11.25107,2.1877063 2.65649,0.6250586 6.59437,1.593901 8.75082,2.1877062 2.15645,0.5938064 6.50061,1.9376837 9.68841,2.9690309 3.18781,1.062601 8.25078,2.906525 11.25108,4.094137 3.00027,1.218866 7.71947,3.250307 10.46973,4.531678 2.75026,1.250118 7.12567,3.437825 9.68842,4.844206 2.59398,1.406384 6.43812,3.59409 8.59456,4.875461 2.15645,1.281372 6.03183,3.750356 8.59457,5.500521 2.59399,1.718912 6.4381,4.469172 8.59456,6.094325 2.15645,1.625153 5.87555,4.594184 8.28202,6.594373 2.40649,2.031441 6.40686,5.594279 8.9071,7.938251 2.50024,2.34397 6.28185,6.125577 8.40704,8.407043 2.09395,2.250212 5.50052,6.094325 7.53196,8.500804 2.03144,2.406477 5.03173,6.188084 6.71939,8.438297 1.68766,2.218954 4.62543,6.43811 6.56312,9.375882 1.93768,2.937785 4.34416,6.719389 5.37551,8.438297 1.03134,1.718908 2.96903,5.156737 4.3129,7.656977 1.34388,2.50024 3.28157,6.28184 4.31292,8.4383 1.00009,2.15645 2.59399,5.75054 3.56282,7.9695 0.93759,2.21897 2.594,6.4381 3.68785,9.37588 1.06261,2.93778 2.68776,7.68823 3.56285,10.626 0.87508,2.93779 2.00017,7.00067 2.50023,9.06336 0.53129,2.0627 1.28138,5.37551 1.71891,7.34445 0.43754,1.96894 1.12511,5.71928 1.56265,8.28203 0.43754,2.59399 1.0626,7.06316 1.40638,10.00094 0.34378,2.93778 0.78132,7.68823 1.0001,10.626 0.21876,3.37532 0.31252,9.34464 0.18751,16.4078 -0.0937,6.09433 -0.31253,12.5637 -0.50005,14.37635 -0.18751,1.81268 -0.62505,5.53178 -1.00009,8.28204 -0.34378,2.75026 -1.09385,7.59447 -1.68766,10.78227 -0.5938,3.1878 -1.78142,8.65707 -2.68775,12.18865 -0.87508,3.53159 -2.594,9.4384 -3.78161,13.12624 -1.21886,3.68786 -3.15655,9.09461 -4.34417,12.03238 -1.15635,2.93779 -3.12528,7.50071 -4.34416,10.15721 -1.21886,2.65651 -3.43782,7.09443 -4.9067,9.84469 -1.50014,2.75026 -3.87537,6.96942 -5.34426,9.3759 -1.46889,2.40647 -4.00037,6.34434 -5.62552,8.75082 -1.62517,2.40647 -4.2504,6.06308 -5.7818,8.12577 -1.56266,2.0627 -3.81286,4.93796 -5.03172,6.40686 -1.21887,1.46887 -3.62536,4.28165 -5.37552,6.25058 -1.71891,1.96893 -5.03172,5.46927 -7.34443,7.78198 -2.31273,2.31272 -5.87556,5.75055 -7.93826,7.62572 -2.06269,1.87519 -6.06307,5.28176 -8.90709,7.56323 -2.84402,2.2502 -6.71939,5.21924 -8.59456,6.56311 -1.87518,1.37513 -5.40676,3.75035 -7.81324,5.313 -2.40649,1.5939 -6.34436,4.00038 -8.75083,5.37551 -2.40649,1.37513 -6.12559,3.43783 -8.28204,4.56293 -2.15646,1.1251 -6.15683,3.06278 -8.90709,4.31291 -2.75026,1.21886 -7.25069,3.12529 -10.00094,4.18789 -2.75027,1.09385 -7.65698,2.84402 -10.93854,3.90663 -3.28155,1.06259 -8.06326,2.46898 -10.626,3.15654 -2.59399,0.65631 -6.31309,1.56264 -8.28202,2.00019 -1.96895,0.43753 -5.96933,1.21886 -8.9071,1.71891 -2.93778,0.50006 -7.06318,1.1251 -9.21962,1.37514 -2.15645,0.28127 -5.37551,0.6563 -7.18819,0.84382 -1.81266,0.15626 -8.21952,0.40629 -14.22008,0.50004 -6.90691,0.0937 -12.96998,0.0313 -16.4078,-0.18751 -3.00029,-0.21878 -7.4382,-0.5938 -9.84468,-0.84383 -2.40648,-0.28128 -7.25069,-0.96884 -10.78227,-1.56265 -3.53159,-0.5938 -8.59456,-1.56264 -11.25106,-2.1877 -2.65651,-0.62506 -6.59438,-1.59391 -8.75083,-2.18772 -2.15646,-0.59379 -6.50061,-1.93767 -9.68842,-2.96901 -3.18779,-1.06261 -8.25077,-2.90653 -11.25106,-4.09415 -3.00028,-1.21886 -7.71948,-3.25031 -10.46973,-4.53167 -2.75026,-1.25012 -7.12568,-3.43783 -9.68843,-4.84422 -2.59399,-1.40637 -6.438106,-3.59409 -8.594561,-4.87546 -2.156444,-1.28136 -6.03181,-3.75035 -8.594553,-5.50051 -2.593995,-1.71891 -6.438108,-4.46917 -8.594561,-6.09433 -2.156454,-1.62515 -5.875555,-4.59418 -8.282032,-6.59438 -2.406478,-2.03143 -6.500615,-5.65677 -9.063357,-8.0945 -2.593995,-2.40648 -6.344349,-6.1881 -8.375791,-8.3758 -2.062694,-2.21896 -5.375508,-5.96931 -7.40695,-8.37579 -2.031442,-2.40647 -5.031725,-6.18807 -6.719385,-8.4383 -1.687659,-2.21894 -4.625436,-6.4381 -6.56312,-9.37588 -1.937682,-2.93778 -4.344161,-6.71939 -5.375507,-8.4383 -1.031348,-1.7189 -2.969031,-5.15674 -4.312908,-7.65698 -1.343877,-2.50024 -3.28156,-6.28185 -4.312907,-8.43829 -1.000095,-2.15646 -2.625249,-5.75055 -3.562836,-7.96951 -0.937589,-2.21895 -2.625248,-6.53186 -3.719101,-9.53215 -1.125107,-3.00028 -2.7190082,-7.78198 -3.5628382,-10.626 C 7.594454,255.28339 6.4693469,251.28302 5.9692996,249.22033 5.438,247.15763 4.687929,243.84481 4.2503874,241.87588 3.8128468,239.90695 3.1252814,236.18785 2.6877397,233.59385 2.2501992,231.03112 1.6251395,226.53068 1.2813568,223.59292 0.93757515,220.65513 0.50003348,216.21722 0.3437684,213.68572 0.15625071,211.12298 -1.4057215e-5,204.87239 -1.4057215e-5,199.77816 c 0,-5.12548 0.156264767215,-11.28232 0.312529527215,-13.6888 0.18751801,-2.40647 0.53130066,-6.28183 0.81257663,-8.59456 0.2500237,-2.31272 0.8750834,-6.81313 1.406383,-10.00093 0.5000473,-3.18782 1.406383,-8.03201 2.0314426,-10.78227 0.5938052,-2.75027 1.4688887,-6.34436 1.875177,-7.96952 0.4375405,-1.62514 1.4376352,-5.06296 2.2189595,-7.65696 0.7813232,-2.56274 2.0001888,-6.21934 2.6565008,-8.12576 0.687566,-1.90644 2.062695,-5.46928 3.06279,-7.96952 1.000093,-2.50022 2.687753,-6.4381 3.750354,-8.75082 1.0626,-2.31271 3.000282,-6.25059 4.281654,-8.75082 1.312624,-2.50023 3.375318,-6.21933 4.562931,-8.282041 1.187612,-2.062689 3.50033,-5.781787 5.156737,-8.282023 1.625154,-2.500238 4.156644,-6.219339 5.656785,-8.282039 1.468889,-2.06269 3.812859,-5.156735 5.156737,-6.875646 1.375129,-1.718913 3.40657,-4.187896 4.500425,-5.469268 1.125105,-1.281371 3.875366,-4.375414 6.188085,-6.875649 2.281465,-2.500237 6.500613,-6.719384 9.407138,-9.407139 2.875272,-2.687754 6.375602,-5.844303 7.750733,-7.000662 1.37513,-1.15636 3.969125,-3.28156 5.781795,-4.687943 1.812672,-1.406383 5.031726,-3.812859 7.18818,-5.375506 2.156453,-1.531396 5.750543,-3.969125 7.969503,-5.406761 2.218959,-1.437637 6.250589,-3.875367 8.907098,-5.406762 2.65649,-1.531394 7.53195,-4.094136 10.78226,-5.688038 3.2503,-1.593899 7.84449,-3.719099 10.15721,-4.687942 2.31272,-0.968841 5.68803,-2.34397 7.50071,-3.031536 1.81267,-0.687564 5.18799,-1.875176 7.5007,-2.656501 2.31272,-0.7500706 6.40686,-2.0001888 9.06336,-2.7502599 2.6565,-0.7500709 7.09442,-1.8751769 9.84468,-2.5002366 2.75025,-0.6250585 7.81324,-1.6251532 11.25106,-2.1877062 3.43783,-0.562553 8.34454,-1.2813706 10.93854,-1.5626476 2.56274,-0.28127705 6.15683,-0.62505888 7.96949,-0.75007122 1.81268,-0.15626466 7.8445,-0.28127701 13.43877,-0.28127701 z"
     style="fill:#87431d;stroke-width:1;fill-opacity:1" />
  <g
     id="svgg"
     transform="matrix(0.88148347,0,0,0.88148347,18.707682,12.604226)"
     style="fill:#3a8891;fill-opacity:1;stroke-width:1.13445">
    <path
       id="path0"
       style="display:inline;fill:#c87941;fill-opacity:1;stroke-width:1.13445"
       d="m 208.84686,61.804628 c -1.13713,0.01887 -2.08671,0.322437 -3.64709,0.804308 -1.64996,0.509 -6.95877,2.035064 -11.79873,3.39006 -4.84,1.355992 -9.61003,2.706307 -10.60003,3.002307 -0.99,0.296 -3.60077,1.019617 -5.80077,1.608617 -10.34996,2.769988 -10.31919,2.751623 -6.40123,4.032619 1.1,0.36 2.54172,0.878393 3.20172,1.154393 0.66,0.276 2.13145,0.78602 3.27041,1.13002 1.14,0.344996 3.20985,1.06862 4.59985,1.608616 1.391,0.541 3.60999,1.332505 4.92999,1.761501 1.32,0.429 6.75903,2.246059 12.08899,4.037051 7.656,2.572992 9.88303,3.176227 10.60003,2.878227 0.5,-0.206996 3.06993,-1.027326 5.70993,-1.821326 2.63996,-0.793996 5.15913,-1.589148 5.59913,-1.768148 0.44,-0.18 2.14997,-0.731084 3.79997,-1.22308 1.65,-0.492 3.35997,-1.0433 3.79997,-1.225296 0.772,-0.317 8.16736,-2.739146 17.09432,-5.599138 3.74696,-1.199992 5.58577,-2.375257 3.71577,-2.375257 -0.51,0 -2.39544,-0.562638 -8.03644,-2.39963 -0.67596,-0.22 -1.53477,-0.401046 -1.90773,-0.401046 -0.372,0 -0.98732,-0.164595 -1.36932,-0.365595 -0.382,-0.202 -2.04583,-0.750868 -3.69583,-1.220864 -5.203,-1.484996 -9.65662,-2.808745 -14.20058,-4.218741 -6.64062,-2.059367 -9.05712,-2.821043 -10.95233,-2.789598 z m -47.64695,13.433941 c -0.55,0.002 -2.4388,0.420605 -4.1988,0.930605 -1.76,0.508996 -8.15062,2.304309 -14.20058,3.988305 -6.05,1.683992 -12.17013,3.415502 -13.60013,3.846498 -1.42996,0.432 -5.56969,1.601266 -9.19969,2.601262 -8.25296,2.272988 -7.83581,2.121658 -7.30081,2.656654 0.445,0.445 3.67977,1.899235 6.89977,3.104231 0.99,0.369996 2.37586,0.979808 3.07986,1.353808 0.704,0.373996 1.52554,0.680227 1.82354,0.680227 0.299,0 1.79219,0.628127 3.31915,1.398123 1.527,0.768996 3.04677,1.401554 3.37677,1.402554 0.33,0.002 1.18895,0.360877 1.90995,0.799877 0.72,0.439996 1.53139,0.799876 1.80139,0.799876 0.269,0 2.64897,0.926407 5.28893,2.058411 2.64,1.132 5.97053,2.55852 7.40053,3.16848 4.29796,1.836 5.20227,1.87138 9.00027,0.36338 0.44,-0.175 4.49028,-1.50864 9.00028,-2.96464 4.50996,-1.45498 8.56027,-2.80101 9.00027,-2.98901 0.44,-0.186996 3.50006,-1.17865 6.80006,-2.204646 20.30792,-6.315976 21.54959,-6.861023 17.89863,-7.837019 -1.045,-0.279 -2.4398,-0.726649 -3.0998,-0.992645 -1.34,-0.541 -3.49328,-1.289839 -12.80024,-4.455823 -3.52,-1.196996 -6.7589,-2.325201 -7.1989,-2.508201 -0.44,-0.182 -1.8795,-0.697318 -3.1995,-1.143314 -1.32,-0.447 -3.66031,-1.302096 -5.20031,-1.901092 -5.24096,-2.041992 -5.60068,-2.159901 -6.60064,-2.155901 z m 95.53763,0.452008 c -0.8585,-0.08713 -1.47768,0.02334 -2.13818,0.301339 -2.91596,1.228992 -6.42027,2.484099 -9.00027,3.226095 -1.65,0.475 -3.35997,1.013492 -3.79997,1.196492 -0.44,0.183 -1.51963,0.54674 -2.39963,0.80874 -0.88,0.260996 -1.87022,0.600346 -2.20022,0.753346 -0.32996,0.152 -2.75972,0.958522 -5.39972,1.792522 -2.63996,0.833996 -5.67953,1.857334 -6.75353,2.273334 -1.075,0.416996 -2.25298,0.757777 -2.61898,0.757777 -0.367,0 -0.83904,0.153222 -1.04804,0.341222 -0.209,0.188 -1.27969,0.575917 -2.37969,0.861917 -5.206,1.356996 -5.14438,1.698832 0.62262,3.582828 2.079,0.678996 4.13769,1.388596 4.57769,1.577596 0.44,0.19 2.78034,0.980289 5.2003,1.759285 4.173,1.342996 8.64562,2.840689 10.40062,3.478689 0.44,0.161 1.96892,0.691985 3.39892,1.180981 1.43,0.489 4.57951,1.60826 6.99947,2.48826 2.42,0.88 4.89808,1.69425 5.50608,1.81025 0.608,0.115 1.204,0.37001 1.325,0.56501 0.12,0.195 0.5693,0.35451 0.9993,0.35451 0.43,0 1.09367,0.15709 1.47567,0.35009 2.622,1.324 3.84092,1.33876 6.69592,0.0798 0.44,-0.194 1.87951,-0.74529 3.19951,-1.22529 2.79296,-1.016 5.69355,-2.17826 8.10955,-3.24826 0.941,-0.416 1.88143,-0.757773 2.08943,-0.757773 0.208,0 1.32951,-0.435057 2.49047,-0.966057 1.161,-0.531996 3.91101,-1.618356 6.11097,-2.417356 2.2,-0.798996 4.76142,-1.80567 5.69442,-2.235666 0.932,-0.43 1.87243,-0.779935 2.08943,-0.779935 0.216,0 1.16397,-0.345857 2.10493,-0.768857 0.941,-0.422 2.74282,-1.186465 4.00382,-1.699461 2.715,-1.103996 2.73041,-1.479219 0.0864,-2.200215 -2.87696,-0.784996 -7.45387,-2.176084 -8.37987,-2.548084 -0.44,-0.176 -1.3408,-0.432229 -2.0008,-0.567225 -1.139,-0.234 -5.64235,-1.504 -7.79935,-2.198 -0.55,-0.177 -2.25997,-0.692314 -3.79997,-1.143314 -1.54,-0.451996 -4.68951,-1.379844 -6.99947,-2.06284 -2.31,-0.682996 -5.45948,-1.608193 -6.99948,-2.056193 -1.54,-0.447996 -4.19018,-1.251878 -5.88718,-1.785874 -1.6195,-0.5095 -2.71768,-0.792518 -3.57618,-0.879643 z M 104.59921,91.094298 c -1.423,0.234996 -4.31219,0.974511 -8.198183,2.100507 -3.364988,0.975996 -6.725302,1.927214 -17.001258,4.819202 -1.539996,0.433996 -6.039583,1.696127 -9.999567,2.805103 -3.959984,1.108 -8.01028,2.25387 -9.000276,2.54587 -0.989996,0.292 -2.699972,0.75696 -3.799968,1.03696 -3.342988,0.849 -8.329741,2.30103 -9.600737,2.79403 -0.450684,0.17465 -0.72624,0.31526 -0.748915,0.51183 l 37.786975,19.9371 c 0.25231,0.0172 0.469385,-0.008 0.684659,-0.0776 0.593,-0.191 2.789035,-0.88515 4.879027,-1.54215 6.345972,-1.996 15.350163,-4.89481 16.199163,-5.21581 1.374,-0.52 9.3615,-3.08642 15.00046,-4.82142 2.97,-0.913 6.03006,-1.9093 6.80006,-2.2113 0.77,-0.30296 3.19976,-1.1083 5.39972,-1.7903 2.2,-0.681 4.35926,-1.38409 4.79926,-1.56209 0.44,-0.178 1.30282,-0.52629 1.91882,-0.77329 0.615,-0.24796 1.35772,-0.452 1.65072,-0.452 0.293,0 1.22835,-0.28978 2.07835,-0.64478 l 1.54657,-0.64699 -1.59753,-0.58938 c -0.878,-0.326 -2.3173,-0.91814 -3.1973,-1.31614 -0.88,-0.397 -2.82123,-1.22119 -4.31623,-1.83019 -1.495,-0.609 -2.81176,-1.25722 -2.92476,-1.44022 -0.113,-0.182 -0.55191,-0.33236 -0.97491,-0.33236 -0.423,0 -1.89585,-0.51718 -3.27485,-1.15218 -4.49696,-2.068992 -8.8398,-3.969849 -12.50776,-5.472841 -1.98,-0.810996 -4.2309,-1.805294 -5.0009,-2.211294 -2.76296,-1.455992 -5.81464,-2.597317 -6.60064,-2.468317 z m 103.80007,0.799876 c -0.595,-0.119 -2.94055,0.476246 -5.79855,1.471242 -2.64,0.917996 -6.3304,2.17868 -8.2004,2.800676 -1.87,0.622 -3.76105,1.266143 -4.20101,1.429143 -0.44,0.163 -5.84041,1.936983 -12.00037,3.943995 -6.16,2.00696 -12.85946,4.19165 -14.88746,4.85465 -2.029,0.663 -3.96254,1.20535 -4.2985,1.20535 -0.337,0 -0.61376,0.14528 -0.61376,0.32128 0,0.543 0.92762,1.27848 1.60862,1.27848 0.356,0 1.70026,0.54092 2.99122,1.20092 1.291,0.66 2.54152,1.20092 2.77852,1.20092 0.237,0 2.31844,0.8297 4.62644,1.8457 4.06596,1.789 6.69034,2.87372 9.5963,3.96172 0.77,0.289 2.56939,1.07907 3.99939,1.75707 1.43,0.678 2.82072,1.23416 3.08872,1.23416 0.268,0 1.12917,0.35987 1.91217,0.79987 0.783,0.44 1.68158,0.79988 1.99858,0.79988 0.317,0 1.1658,0.33041 1.8878,0.73341 0.722,0.402 2.61688,1.2254 4.20988,1.8324 1.594,0.606 3.00017,1.26803 3.12417,1.46903 0.124,0.201 0.62143,0.36781 1.10343,0.36781 0.482,10e-4 1.50555,0.38891 2.27555,0.86191 1.798,1.105 4.10064,1.105 6.37464,0 0.976,-0.475 1.97759,-0.86413 2.22459,-0.86413 0.247,0 1.19615,-0.35988 2.10715,-0.79988 0.91,-0.44 1.84514,-0.79987 2.07614,-0.79987 0.232,0 1.09342,-0.35988 1.91438,-0.79988 0.82,-0.44 1.72467,-0.79988 2.00967,-0.79988 0.286,0 1.40769,-0.44929 2.49269,-0.99929 1.085,-0.55 2.30991,-1.00151 2.72091,-1.00151 0.411,0 0.86272,-0.11602 1.00372,-0.25702 0.33,-0.331 4.74764,-2.13269 5.27564,-2.15369 0.22,-0.008 1.1208,-0.36379 2.0008,-0.78879 0.88,-0.425 1.7607,-0.77959 1.9587,-0.78659 0.198,-0.008 1.27985,-0.43433 2.40185,-0.94833 1.122,-0.513 2.66884,-1.15879 3.4388,-1.43579 0.77,-0.277 2.30114,-0.86427 3.40114,-1.30727 1.1,-0.442 3.34868,-1.29423 4.99868,-1.89223 1.65,-0.597 3.57678,-1.38807 4.28078,-1.75707 0.704,-0.37 1.55788,-0.67358 1.89888,-0.67358 0.341,0 0.6204,-0.14958 0.6204,-0.33458 0,-0.438 -1.82503,-1.26518 -2.79403,-1.26518 -0.417,0 -0.86994,-0.17883 -1.00594,-0.39883 -0.136,-0.22 -0.65031,-0.40104 -1.14331,-0.40104 -0.493,0 -1.06726,-0.16338 -1.27626,-0.36338 -0.209,-0.199 -1.00923,-0.54629 -1.77923,-0.77329 -0.77,-0.227 -2.93151,-0.9695 -4.80147,-1.6485 -1.87,-0.679 -5.56044,-1.96021 -8.2004,-2.84721 -2.64,-0.886 -5.15914,-1.754893 -5.59914,-1.929893 -2.746,-1.092996 -20.57852,-7.099913 -21.80052,-7.342913 z m 104.18339,0.201631 c -1.08707,-0.14339 -2.02029,0.151038 -4.18329,1.096784 -3.23896,1.415996 -14.91266,6.274823 -16.79962,6.992831 -3.309,1.258 -5.88434,2.29291 -7.0593,2.83391 -0.694,0.319 -1.37921,0.58052 -1.52221,0.58052 -0.144,0 -1.01797,0.33305 -1.94097,0.74005 -0.923,0.406 -3.61303,1.50595 -5.97803,2.44395 -4.82996,1.91396 -4.98704,2.08481 -2.59904,2.79181 0.935,0.277 2.0132,0.66513 2.3952,0.86413 0.38196,0.199 1.02131,0.36117 1.42027,0.36117 0.399,0 0.89444,0.15973 1.10344,0.35673 0.451,0.426 11.8919,4.44079 13.4849,4.73279 0.608,0.111 1.204,0.36114 1.325,0.55614 0.12,0.195 0.56929,0.3523 0.99929,0.3523 0.43,0 1.09368,0.16338 1.47568,0.36338 0.382,0.2 1.59657,0.64522 2.69653,0.98822 1.78,0.555 6.90567,2.3262 16.79963,5.8052 6.6216,2.32812 13.8124,4.68427 15.18658,5.00089 l 39.90299,-20.02573 c -0.41642,-0.3026 -1.6783,-0.69165 -5.28893,-1.71275 -1.65,-0.467 -4.71006,-1.36802 -6.80006,-2.00302 -2.09,-0.634 -4.61136,-1.36655 -5.60136,-1.62855 -0.98996,-0.263 -2.15904,-0.6178 -2.59904,-0.7888 -1.143,-0.444 -6.33566,-1.94589 -9.47666,-2.74085 -1.473,-0.372016 -2.80785,-0.80928 -2.96685,-0.968276 -0.159,-0.159 -0.6221,-0.288045 -1.0281,-0.288045 -0.406,0 -1.05157,-0.163379 -1.43357,-0.363379 -0.382,-0.198996 -1.50491,-0.571465 -2.49491,-0.826465 -0.99,-0.255 -3.33031,-0.916026 -5.20031,-1.469026 -4.79996,-1.417992 -11.17841,-3.319517 -12.62741,-3.764517 -0.44825,-0.137496 -0.82749,-0.2336 -1.18985,-0.281397 z M 45.705238,108.27725 c -0.05081,0.17745 -0.104139,0.43948 -0.104139,0.97713 0,0.689 0.170889,1.90275 0.378889,2.69875 0.451996,1.725 1.633194,7.95458 2.816186,14.84758 0.472,2.74996 1.209425,6.75843 1.637421,8.90943 0.429,2.15096 0.945746,4.94281 1.147746,6.20181 0.202,1.259 0.632193,3.63894 0.957193,5.28894 0.677996,3.43996 1.38594,7.3239 2.864932,15.73386 0.574,3.265 1.195613,6.33665 1.382613,6.82665 0.333,0.878 5.45382,4.63751 6.314816,4.63751 0.02969,0 1.499715,0.98437 1.699461,1.099 -0.536172,-0.32051 -1.743273,-1.099 -1.805816,-1.099 -1.055992,0 -0.971209,0.70574 0.110787,0.92174 0.601996,0.121 1.814325,0.7095 2.694321,1.3095 0.879996,0.6 3.761242,2.53164 6.40123,4.28964 2.639988,1.759 7.638661,5.10519 11.109645,7.43819 12.103952,8.13596 11.02955,8.38184 9.434558,-2.15812 -0.233,-1.53996 -0.563621,-3.96972 -0.735621,-5.39972 -0.171,-1.43 -0.595899,-4.40068 -0.943899,-6.60064 -0.765996,-4.838 -4.031405,-27.49422 -5.016401,-34.80018 -0.864733,-6.42328 -1.543151,-10.38889 -1.832405,-10.80166 l -0.03102,-0.0177 c -0.122516,-0.0217 -0.150001,0.61247 -0.04653,1.63521 l -0.188337,-1.75929 z m 324.446402,1.73934 c -0.194,0.009 -9.37057,4.52892 -20.39353,10.04388 l -20.04345,10.02837 -0.4786,3.45432 c -0.264,1.901 -0.64584,4.35733 -0.85084,5.45733 -0.205,1.1 -0.44907,2.72055 -0.54507,3.60055 -0.096,0.88 -0.38069,3.03926 -0.63369,4.79926 -0.253,1.76 -0.6078,4.27914 -0.7888,5.59914 -1.358,9.88296 -2.08371,14.9446 -2.63671,18.4016 -0.352,2.19996 -0.80759,5.26006 -1.01259,6.80006 -0.206,1.53996 -0.55715,4.05913 -0.78215,5.59913 -0.224,1.54 -0.57737,4.05914 -0.78437,5.59914 -0.207,1.54 -0.49291,3.63259 -0.63591,4.64859 -0.373,2.668 0.18313,2.69997 3.93513,0.22601 1.815,-1.196 3.7485,-2.39938 4.2985,-2.67438 0.55,-0.275 2.46906,-1.46701 4.26306,-2.65001 1.794,-1.182 3.43122,-2.14925 3.63822,-2.14925 0.207,0 0.701,-0.35988 1.099,-0.79988 0.398,-0.44 0.90702,-0.79988 1.13002,-0.79988 0.224,0 0.69117,-0.25115 1.03917,-0.55615 0.347,-0.306 1.56444,-1.03855 2.7054,-1.62855 1.141,-0.591 2.2893,-1.33007 2.5503,-1.64407 0.261,-0.314 0.62617,-0.57166 0.81317,-0.57166 0.188,0 1.56106,-0.81668 3.05106,-1.81468 1.491,-0.998 4.28546,-2.84434 6.20846,-4.1013 4.071,-2.66 3.93343,-2.37873 5.49943,-11.28469 0.505,-2.875 2.66647,-14.55371 3.58947,-19.39867 0.507,-2.66 1.05135,-5.66828 1.62635,-9.00028 0.209,-1.21 0.54448,-3.0116 0.74448,-4.0016 2.593,-12.79096 3.94149,-21.20733 3.39449,-21.18233 z m -219.44984,0.72454 c -0.68362,0.0559 -1.63721,0.3378 -3.50971,0.9018 -2.086,0.628 -4.10484,1.32701 -4.48684,1.55101 -0.382,0.224 -0.96906,0.40548 -1.30506,0.40548 -0.336,0 -0.92307,0.16316 -1.30507,0.36116 -0.38196,0.198 -4.47555,1.58264 -9.09555,3.07764 -4.61996,1.495 -8.67027,2.84609 -9.00027,3.00009 -0.33,0.155 -3.83939,1.32405 -7.79935,2.59905 -3.96,1.275 -7.46936,2.44118 -7.79936,2.59018 -0.33,0.15 -4.0204,1.36597 -8.200394,2.70097 -4.650984,1.486 -7.599937,2.62627 -7.599937,2.94027 0,0.0956 0.209694,0.27718 0.39883,0.44979 L 136.047,155.08444 c 0.21939,0.0839 1.06653,0.51626 1.13001,0.51626 0.37,0 1.41773,-0.35988 2.32873,-0.79988 0.91,-0.44 1.84514,-0.79987 2.07614,-0.79987 0.232,0 1.09338,-0.35988 1.91438,-0.79988 0.82,-0.44 1.68117,-0.80209 1.91217,-0.80209 0.232,0 1.93811,-0.62816 3.79111,-1.39812 1.853,-0.77 3.5845,-1.40034 3.8465,-1.40034 0.263,0 1.17031,-0.33449 2.01631,-0.74449 2.95896,-1.43296 5.36318,-2.45502 5.77418,-2.45502 0.229,0 1.39926,-0.45151 2.60126,-1.00151 1.203,-0.55 2.3631,-0.99929 2.5791,-0.99929 0.217,0 0.70592,-0.16581 1.08792,-0.36781 0.382,-0.202 1.77537,-0.75816 3.09537,-1.23416 2.668,-0.963 4.80278,-1.81104 8.45078,-3.35904 1.34796,-0.571 2.6473,-1.03917 2.8893,-1.03917 0.243,0 1.03046,-0.35988 1.75042,-0.79988 0.721,-0.439 1.67832,-0.79888 2.12932,-0.79988 0.451,0 0.99192,-0.153 1.20092,-0.339 0.209,-0.186 1.55015,-0.75275 2.98015,-1.26075 1.43,-0.507 3.54863,-1.34421 4.71063,-1.86121 1.161,-0.516 2.27861,-0.93947 2.48161,-0.93947 0.56,0 2.40628,-0.89568 2.40628,-1.16768 0,-0.262 -1.05722,-0.75885 -4.62422,-2.17585 -2.362,-0.93796 -4.09284,-1.69789 -8.88284,-3.90189 -1.379,-0.635 -2.74046,-1.15439 -3.02446,-1.15439 -0.283,0 -1.76336,-0.62812 -3.29036,-1.39812 -1.52696,-0.769 -2.98539,-1.39934 -3.23939,-1.40034 -0.254,0 -1.24421,-0.38649 -2.20021,-0.85749 -0.956,-0.471 -2.09701,-0.99404 -2.53701,-1.16104 -0.44,-0.167 -1.65353,-0.68131 -2.69653,-1.14331 -1.042,-0.462 -1.99502,-0.83976 -2.11602,-0.83976 -0.121,0 -1.69828,-0.64801 -3.50528,-1.43801 -1.806,-0.78996 -4.54216,-1.98057 -6.08216,-2.64557 -1.54,-0.666 -3.52308,-1.52839 -4.40708,-1.91439 -0.793,-0.3465 -1.20861,-0.51674 -1.89223,-0.46087 z m 113.8085,0.70239 c -1.25787,-0.0478 -2.35263,0.42685 -4.71063,1.36931 -2.2,0.88 -4.35926,1.76822 -4.79926,1.97422 -0.44,0.206 -5.39111,2.19054 -11.00107,4.4115 -5.61,2.221 -10.73991,4.28577 -11.39991,4.58877 -0.66,0.302 -1.69735,0.67547 -2.30435,0.82647 -0.607,0.152 -1.20179,0.43426 -1.32279,0.62926 -0.121,0.196 -0.48739,0.35673 -0.81539,0.35673 -0.328,0 -1.34118,0.35988 -2.25118,0.79988 -0.91096,0.44 -1.81974,0.79988 -2.02074,0.79988 -0.2,0 -0.93012,0.25644 -1.62412,0.56944 -2.541,1.15 -6.48637,2.71111 -7.37837,2.91811 -1.833,0.427 0.0699,1.59101 6.48986,3.97501 0.865,0.321 2.30451,0.90541 3.19951,1.29841 0.896,0.392 2.25889,0.9571 3.02889,1.2541 0.77,0.297 1.99005,0.86597 2.71205,1.26297 0.722,0.398 1.62059,0.72232 1.99859,0.72232 0.378,10e-4 1.27758,0.3631 1.99858,0.8021 0.72,0.44 1.59397,0.79766 1.94097,0.79766 0.348,0 1.82736,0.59965 3.29036,1.33165 1.46196,0.733 3.28924,1.56105 4.0592,1.83905 2.433,0.877 4.8743,1.88024 9.19526,3.78224 2.308,1.016 4.40489,1.84792 4.66189,1.84792 0.256,0 1.15923,0.3495 2.00523,0.7755 0.846,0.426 3.15605,1.42394 5.13605,2.21794 1.98,0.794 4.32031,1.7883 5.20031,2.2113 0.88,0.423 2.41114,0.97572 3.40114,1.22972 l 1.47345,0.37668 49.00298,-24.59012 c -0.22252,-0.16677 -0.66944,-0.39568 -1.48675,-0.62483 -0.996,-0.279 -1.90596,-0.66084 -2.02296,-0.85084 -0.117,-0.19 -0.56708,-0.34566 -0.99708,-0.34566 -0.43,0 -1.09367,-0.15808 -1.47567,-0.35008 -0.728,-0.367 -6.86726,-2.469 -10.29426,-3.523 -1.1,-0.338 -2.36068,-0.77471 -2.80068,-0.97271 -1.07796,-0.483 -9.50736,-3.43991 -12.00036,-4.20987 -1.1,-0.34 -2.31232,-0.78157 -2.69432,-0.98157 -0.382,-0.2 -1.04568,-0.36338 -1.47568,-0.36338 -0.43,0 -0.89209,-0.17883 -1.02809,-0.39883 -0.136,-0.22 -0.65253,-0.40105 -1.14553,-0.40105 -0.493,0 -1.06726,-0.16094 -1.27626,-0.35894 -0.373,-0.352 -8.04421,-3.11845 -11.97821,-4.31845 -1.1,-0.336 -2.36068,-0.7471 -2.80068,-0.9151 -3.01046,-1.1465 -4.4321,-1.71596 -5.68998,-1.76371 z m 89.7834,5.80963 -16.77526,8.41754 c 4.8357,-2.38369 10.86934,-5.41897 16.77526,-8.41754 z m -265.193487,13.9214 c -0.07841,0.77013 0.385206,5.12223 1.136667,10.42498 2.023992,14.28796 2.069338,14.62597 2.499338,18.19997 0.212,1.76 0.486756,3.74043 0.613756,4.40043 0.125996,0.66 0.596394,3.99052 1.04139,7.40052 1.906992,14.58396 2.712493,20.40742 3.281489,23.73042 0.484,2.82396 1.993235,4.42704 6.370207,6.76904 1.682,0.9 15.35214,10.07075 15.49014,10.39175 0.074,0.17 0.27214,0.30798 0.44314,0.30798 0.171,0 5.21539,3.2527 11.20935,7.2277 6.345,4.20696 11.13903,7.13412 11.47303,7.00612 0.569,-0.218 0.45119,-8.59647 -0.14181,-10.23443 -0.12,-0.33 -0.3602,-2.75973 -0.5362,-5.39973 -0.176,-2.63996 -0.69561,-9.0284 -1.15661,-14.19836 -0.461,-5.17 -1.02102,-11.73294 -1.24302,-14.5839 -0.222,-2.85 -0.564,-6.8109 -0.76,-8.80086 -0.196,-1.989 -0.58535,-6.72087 -0.86635,-10.51583 -0.27353,-3.68103 -0.62804,-6.59913 -0.81095,-6.77791 l -0.12851,-0.0687 c -0.10312,0.0414 -0.16975,0.15719 -0.15732,0.72676 -0.004,-0.076 -0.0506,-0.59375 -0.051,-0.63148 -7.5e-4,-0.0846 -0.0681,-0.17195 -0.0997,-0.25702 L 89.740557,131.51134 c -0.17668,0.28274 -0.102771,0.93567 0.01108,1.98972 0.222319,2.05563 0.662396,5.13904 1.143314,8.41754 -0.543321,-3.71387 -1.004281,-6.93245 -1.247453,-9.11771 -0.07282,-0.65408 -0.162759,-1.11086 -0.250377,-1.47124 z m 235.500547,1.28512 -2.07835,1.07019 c -3.06196,1.577 -8.46351,4.26866 -10.52247,5.24462 -0.99,0.469 -2.3401,1.19384 -3.0001,1.61084 -0.65996,0.416 -1.4716,0.77058 -1.8036,0.78658 -0.33196,0.016 -7.89166,3.68104 -16.79962,8.145 l -16.19695,8.1295 -0.49633,5.76975 c -0.27396,3.18096 -0.67207,8.12335 -0.88407,10.98335 -0.212,2.85996 -0.57452,7.27015 -0.80652,9.80015 -0.232,2.53 -0.60447,6.94015 -0.82647,9.80015 -0.747,9.61196 -1.20146,15.56923 -1.58646,20.80123 -0.211,2.85996 -0.55564,6.99969 -0.76664,9.19969 -0.21,2.2 -0.2281,4.15382 -0.0421,4.34282 0.335,0.34 3.9381,-1.34826 5.3111,-2.48826 0.386,-0.321 1.02628,-0.78023 1.42028,-1.01923 0.39396,-0.24 1.31511,-0.79638 2.04511,-1.23638 0.731,-0.44 2.50864,-1.57693 3.95064,-2.52593 1.442,-0.94896 3.17393,-2.00445 3.85093,-2.34645 0.676,-0.341 2.69949,-1.59009 4.49349,-2.77409 1.794,-1.18396 3.43122,-2.15368 3.63822,-2.15368 0.207,0 0.701,-0.35988 1.099,-0.79988 0.398,-0.44 0.88527,-0.79987 1.08127,-0.79987 0.197,0 1.34187,-0.63034 2.54587,-1.40034 1.204,-0.77 2.33728,-1.40034 2.51928,-1.40034 0.181,0 0.65668,-0.35988 1.05468,-0.79988 0.398,-0.44 0.88914,-0.79987 1.09014,-0.79987 0.202,0 2.11115,-1.12434 4.24311,-2.49934 5.327,-3.435 5.30695,-3.42292 6.72695,-4.15892 2.04196,-1.057 2.58709,-3.28206 4.09909,-16.74202 0.198,-1.75996 0.56438,-4.54963 0.81538,-6.19959 0.251,-1.65 0.62347,-4.25856 0.82647,-5.79856 0.203,-1.54 0.54764,-4.06135 0.76664,-5.60135 0.219,-1.54 0.69125,-4.95994 1.05025,-7.59994 0.359,-2.63996 0.83269,-5.97052 1.05469,-7.40052 0.222,-1.43 0.54733,-3.76809 0.72233,-5.19809 0.174,-1.43 0.61313,-4.66989 0.97713,-7.19889 0.364,-2.528 0.61007,-5.07786 0.54507,-5.66782 z m -239.95637,1.70611 c 0.03933,0.27943 0.0752,0.59569 0.110786,0.83533 0.196,1.31996 0.560959,3.99865 0.810955,5.95365 -0.249996,-1.955 -0.616171,-4.63369 -0.813171,-5.95365 -0.03535,-0.23567 -0.06976,-0.55895 -0.10857,-0.83533 z m 121.61228,0.27032 c -0.80384,-0.0836 -1.44077,0.0121 -1.63077,0.31906 -0.121,0.195 -0.71579,0.47805 -1.32279,0.62705 -0.607,0.149 -2.00201,0.68241 -3.10201,1.18541 -1.1,0.502 -3.08043,1.32398 -4.40043,1.82798 -1.32,0.503 -2.94056,1.15122 -3.60056,1.44022 -0.65996,0.289 -2.19113,0.90939 -3.40113,1.38039 -1.21,0.47 -3.0988,1.2188 -4.1988,1.6618 -1.1,0.444 -2.72056,1.05932 -3.60056,1.36932 -0.87996,0.31 -2.07708,0.8296 -2.66108,1.1566 -0.584,0.327 -1.30375,0.59725 -1.59975,0.59825 -0.296,10e-4 -1.42399,0.45029 -2.50599,0.99929 -1.082,0.549 -2.20347,0.99929 -2.49047,0.99929 -0.467,0 -1.39157,0.37224 -5.54153,2.23124 -0.66,0.296 -2.19114,0.92004 -3.40114,1.38704 -1.21,0.468 -3.05409,1.19527 -4.09909,1.61527 -5.055,2.03496 -6.21665,2.49268 -7.69965,3.02668 -0.88,0.317 -2.364,0.92602 -3.297,1.35602 -0.93196,0.43 -1.94517,0.78215 -2.25117,0.78215 -1.45668,0 -1.57983,0.48124 -0.76886,1.24524 l 59.09782,31.17968 c 2.17978,-0.0987 6.12352,-2.24106 19.23914,-8.76098 11.28134,-5.60775 17.15125,-8.43524 24.63886,-12.09342 l 18.2886,-9.17754 c 0.97276,-0.75937 0.4926,-1.21182 -1.44909,-2.07613 -5.25196,-2.338 -12.87752,-5.51494 -13.23452,-5.51494 -0.21,0 -1.41052,-0.54092 -2.66552,-1.20092 -1.255,-0.66 -2.45087,-1.20093 -2.65887,-1.20093 -0.208,0 -1.7239,-0.62812 -3.3679,-1.39812 -1.645,-0.77 -3.14953,-1.40034 -3.34353,-1.40034 -0.194,0 -1.13565,-0.38648 -2.09165,-0.85748 -0.95596,-0.471 -2.097,-0.98653 -2.537,-1.14553 -0.44,-0.158 -1.87951,-0.75014 -3.19951,-1.31614 -1.32,-0.566 -3.74972,-1.60722 -5.39972,-2.31322 -1.65,-0.706 -4.14596,-1.79822 -5.54596,-2.42622 -1.4,-0.629 -2.71311,-1.1411 -2.91811,-1.1411 -0.206,0 -1.71947,-0.63037 -3.36347,-1.40033 -1.645,-0.77 -3.13408,-1.40034 -3.30808,-1.40034 -0.173,0 -1.06099,-0.35988 -1.97199,-0.79988 -0.8615,-0.4165 -1.83284,-0.6808 -2.63672,-0.76442 z m -63.28997,25.15734 c -0.0907,0.2083 -0.0934,0.91957 0.009,2.20686 0.121,1.54 0.58917,7.38966 1.03917,12.99966 0.45,5.60996 0.98563,12.53929 1.18763,15.39929 0.383,5.40796 0.74668,9.97685 1.81468,22.79981 0.348,4.17996 0.7719,9.88781 0.9439,12.68281 0.2,3.26596 0.50605,5.31633 0.85305,5.73429 1.021,1.229 54.48714,36.62243 55.1361,36.49743 0.10884,-0.0209 0.20499,-0.37325 0.29248,-1.00151 l -0.16396,-52.15152 -0.0776,14.9495 -0.20163,37.91105 0.10857,-37.91105 0.10414,-36.75223 -0.004,-1.07685 -0.002,-0.004 0.002,-0.002 v -0.0798 l -0.002,0.004 -59.30831,-31.29047 c -0.70133,-0.099 -1.08944,0.0658 -1.08128,0.5916 0.01,0.605 0.19613,2.99005 0.41213,5.30001 0.0152,0.16236 0.0518,0.70159 0.0665,0.85971 -0.37536,-4.16976 -0.70633,-7.10379 -0.94168,-7.56671 z m 124.98684,0.98599 -19.28346,9.67608 c -0.0357,0.0332 -0.0835,0.0442 -0.13072,0.0665 l -43.63871,21.89801 0.23708,75.85313 c 0.16242,0.0951 0.99638,-0.30909 1.98086,-0.98378 1.035,-0.709 2.6773,-1.72343 3.6493,-2.25339 0.971,-0.53 2.77042,-1.62001 3.99938,-2.42401 2.413,-1.579 3.07281,-1.98571 8.11177,-4.99867 1.827,-1.092 3.56137,-2.22099 3.85537,-2.50599 0.294,-0.286 1.28421,-0.88608 2.20021,-1.33608 0.916,-0.451 2.50487,-1.39408 3.53187,-2.09608 1.027,-0.702 2.64755,-1.76639 3.60055,-2.36639 0.953,-0.601 2.00316,-1.26567 2.33316,-1.47567 0.33,-0.21 1.76954,-1.05759 3.1995,-1.88559 1.43,-0.82696 2.96114,-1.79933 3.40114,-2.16033 0.44,-0.36 1.44953,-0.95192 2.24453,-1.31392 0.795,-0.362 1.67062,-0.93118 1.94762,-1.26518 0.277,-0.334 0.72994,-0.60711 1.00594,-0.60711 0.276,0 0.7401,-0.28448 1.0281,-0.63148 0.288,-0.347 1.34467,-1.06654 2.34867,-1.59754 1.004,-0.532 2.47927,-1.37186 3.27927,-1.86786 0.8,-0.497 2.45511,-1.49615 3.67811,-2.22015 2.55996,-1.516 2.53142,-1.45225 2.84942,-6.48321 0.227,-3.604 0.38906,-5.75789 1.41806,-18.99985 2.29575,-29.53789 3.48852,-47.73732 3.15298,-48.02141 z M 58.177554,176.80076 c -0.083,0 -0.05353,0.22354 0.06647,0.49854 0.103322,0.23678 3.532105,2.61399 7.690782,5.38421 -3.206158,-2.10832 -6.843535,-4.50402 -7.023849,-4.57326 -0.282,-0.108 -0.511832,0.082 -0.511832,0.42099 0,0.339 0.258873,1.84353 0.573873,3.34353 0.315996,1.499 0.856142,4.43531 1.203138,6.52531 0.959996,5.77896 2.030177,11.66971 3.124173,17.20067 0.543996,2.75 1.398876,7.33902 1.898876,10.19898 2.759988,15.76196 2.690884,15.58345 6.828864,17.78341 0.109253,0.0582 0.261583,0.18047 0.372242,0.24373 -0.252983,-0.0896 -0.401046,-0.0686 -0.401046,0.12187 0,0.208 0.528119,0.70951 1.172119,1.11451 0.644996,0.405 3.10177,2.26676 5.461762,4.13676 2.358988,1.86996 4.969988,3.93984 5.802984,4.59984 4.68198,3.713 13.904976,10.92748 16.11497,12.60748 2.394,1.819 2.4733,1.50696 1.4513,-5.608 -0.206,-1.43 -0.5598,-3.94914 -0.7888,-5.59914 -0.229,-1.65 -0.86585,-6.14957 -1.415849,-9.99957 -0.549996,-3.84996 -1.189064,-8.4412 -1.418064,-10.2012 -0.229996,-1.75996 -0.515697,-3.64879 -0.633697,-4.19879 -0.119,-0.55 -0.363068,-2.17056 -0.545068,-3.60056 -0.658,-5.19596 -2.264651,-15.59594 -2.430651,-15.74494 -0.094,-0.084 -3.04964,-2.0929 -6.569624,-4.4669 -3.519988,-2.373 -7.751326,-5.25058 -9.401322,-6.39458 -4.62498,-3.208 -20.450753,-13.79289 -20.621753,-13.79289 z m 298.863646,2.85607 c -0.48264,3.8e-4 -1.38335,0.60972 -2.84056,1.55322 -3.046,1.973 -3.72801,2.38612 -5.72101,3.48312 -0.894,0.492 -1.73607,1.07377 -1.87007,1.29177 -0.134,0.217 -0.91005,0.69819 -1.72605,1.07019 -0.816,0.373 -1.79992,0.94726 -2.18692,1.27626 -0.386,0.328 -1.03544,0.79353 -1.44244,1.03253 -0.407,0.24 -1.53012,0.97113 -2.49712,1.62413 -0.966,0.65296 -2.55082,1.6166 -3.52078,2.1426 -0.969,0.526 -1.95922,1.12544 -2.20022,1.32944 -0.4,0.342 -5.20697,3.42993 -8.30897,5.33989 -0.715,0.44 -1.68368,1.07034 -2.15368,1.40034 -0.879,0.617 -3.09463,2.11551 -3.27263,2.21351 -0.056,0.03 -0.3854,2.01841 -0.7334,4.42037 -0.347,2.401 -0.80381,5.53624 -1.01481,6.96624 -0.514,3.487 -1.06702,7.40356 -1.35602,9.59852 -0.13,0.99 -0.3966,2.88102 -0.5916,4.20102 -0.196,1.32 -0.55688,3.83914 -0.79988,5.59914 -0.57996,4.20596 -1.46333,10.19854 -2.27333,15.4015 -1.502,9.65896 -1.20746,10.96607 1.8745,8.30011 1.38,-1.194 7.80574,-5.9717 12.89774,-9.58966 3.881,-2.757 5.14355,-3.70597 6.67155,-5.01197 0.836,-0.715 1.65632,-1.29842 1.82132,-1.29842 0.164,0 0.88254,-0.49621 1.59754,-1.10121 0.715,-0.605 2.32783,-1.81876 3.58283,-2.69876 1.255,-0.87996 2.40451,-1.81005 2.55251,-2.06505 0.149,-0.255 1.15202,-1.06925 2.22902,-1.81025 2.034,-1.398 2.97625,-3.42654 3.02225,-6.4965 0.01,-0.644 0.19226,-1.72585 0.40326,-2.40185 0.212,-0.675 0.84907,-3.8361 1.41807,-7.02606 1.266,-7.106 1.60694,-8.91688 2.44394,-13.00188 0.361,-1.76 0.804,-4.09809 0.986,-5.19809 0.487,-2.953 1.43367,-8.17062 2.57467,-14.20058 0.88063,-4.65312 1.23864,-6.34426 0.43429,-6.34362 z m -281.348339,9.52983 c 0.432194,0.29205 2.069794,1.36891 2.158116,1.43579 1.273996,0.969 4.510268,3.18497 10.602244,7.26093 -6.220976,-4.16296 -9.585317,-6.46506 -10.274317,-7.02606 -0.112338,-0.0915 -1.894917,-1.26674 -2.486043,-1.67066 z m 24.104872,15.84022 c -0.204731,-0.0277 -0.353007,0.0217 -0.500753,0.113 -0.319,0.197 -0.349139,0.76407 -0.104139,1.87007 0.334996,1.513 0.629619,3.63952 3.015599,21.78944 0.564,4.29 1.1982,8.35408 1.4092,9.02908 0.21,0.676 0.38332,1.79791 0.38332,2.49491 0,3.567 2.85736,21.09465 3.51636,21.56565 0.376,0.268 1.58324,1.22288 2.68324,2.12488 1.606,1.315 9.40143,7.51856 12.20643,9.71152 0.334,0.261 1.68409,1.27561 3.00009,2.25561 1.316,0.98 2.6279,2.01128 2.9159,2.29328 0.287,0.282 1.63709,1.3602 3.00009,2.3952 1.362,1.034 3.04661,2.34081 3.74457,2.90481 0.697,0.564 2.22814,1.80193 3.40114,2.75193 3.709,3.001 8.81023,6.88682 9.58523,7.30082 0.959,0.514 0.97092,-0.8562 0.10192,-10.02616 -0.345,-3.63 -0.76911,-8.67049 -0.94611,-11.20049 -0.177,-2.53 -0.70394,-8.73957 -1.1699,-13.79953 -0.467,-5.06 -1.02603,-11.63167 -1.24303,-14.60163 -0.493,-6.754 -0.76251,-8.61691 -1.34051,-9.31491 -0.531,-0.641 -13.07851,-9.26537 -25.45647,-17.49537 -4.72996,-3.14496 -8.65917,-5.86936 -8.73217,-6.05336 -0.074,-0.185 -0.30383,-0.33457 -0.51183,-0.33457 -0.208,0 -1.99293,-1.16475 -3.96393,-2.58575 -3.246,-2.33925 -4.38004,-3.10537 -4.994247,-3.18843 z m 213.708897,2.20243 c -0.44161,0.0881 -1.03041,0.39206 -1.78366,0.86856 -1.834,1.16 -2.88494,1.8091 -5.40194,3.3391 -0.394,0.239 -1.04508,0.733 -1.44908,1.099 -0.404,0.365 -0.90186,0.66472 -1.10786,0.66472 -0.205,0 -1.31103,0.63034 -2.45503,1.40034 -1.143,0.77 -2.20496,1.39812 -2.36196,1.39812 -0.156,0 -0.61302,0.29972 -1.01702,0.66472 -0.404,0.366 -1.0573,0.86221 -1.4513,1.10121 -0.394,0.24 -1.31511,0.79416 -2.04511,1.23416 -0.731,0.44 -2.50864,1.57693 -3.95064,2.52593 -1.442,0.949 -3.08673,1.99125 -3.65373,2.31321 -0.566,0.322 -1.56902,0.93832 -2.22902,1.36932 -0.66,0.431 -1.47138,0.90304 -1.80138,1.04804 -0.33,0.146 -0.91585,0.53657 -1.30285,0.86857 -0.386,0.33196 -1.02406,0.80017 -1.41806,1.03917 -0.394,0.24 -1.31026,0.79641 -2.03626,1.23637 -10.18896,6.173 -10.15832,6.14214 -10.50032,10.1591 -0.294,3.454 -0.89379,10.82795 -1.54879,19.04195 -0.245,3.07996 -0.61503,7.66898 -0.82203,10.19898 -0.208,2.53 -0.5437,6.94015 -0.7467,9.80015 -0.203,2.86 -0.58076,7.60299 -0.83976,10.53799 -0.5,5.67596 -0.31377,6.60131 1.07019,5.31331 0.445,-0.415 1.51548,-1.23147 2.37748,-1.81247 0.863,-0.582 2.28848,-1.60025 3.16848,-2.26225 0.88,-0.663 2.2301,-1.64449 3.0001,-2.18249 0.76996,-0.538 2.56938,-1.86903 3.99938,-2.95799 4.18796,-3.189 5.25498,-3.98101 8.00098,-5.94701 1.43,-1.024 4.28366,-3.12818 6.34362,-4.67518 2.06,-1.548 4.09773,-3.01576 4.52673,-3.26376 0.429,-0.247 1.27372,-0.92205 1.87672,-1.50005 0.603,-0.577 1.23191,-1.05025 1.39591,-1.05025 0.16496,0 1.50493,-0.95059 2.97793,-2.11159 1.474,-1.161 3.16609,-2.41924 3.76009,-2.79624 0.70896,-0.449 1.14439,-1.13576 1.26739,-1.98972 0.103,-0.717 0.39256,-2.83177 0.64256,-4.70177 0.25,-1.87 0.6176,-4.57019 0.8176,-6.00019 0.671,-4.78396 1.5431,-11.36387 2.0141,-15.19987 0.257,-2.09 0.62703,-4.32301 0.82203,-4.96101 0.195,-0.638 0.35452,-2.02915 0.35452,-3.09315 0,-1.064 0.17475,-2.70244 0.38775,-3.64044 0.212,-0.938 0.58833,-3.32666 0.83533,-5.30666 0.248,-1.98 0.60423,-4.49914 0.79323,-5.59914 0.819,-4.76021 0.81521,-6.43493 -0.50962,-6.17079 z M 69.313788,236.16889 c -0.0795,0.0617 -0.113002,0.22955 -0.113002,0.51405 0,0.38364 0.187874,0.66811 0.420988,0.73562 -0.05989,0.0267 -0.129371,0.0335 -0.172826,0.10414 -0.113,0.182 0.03757,1.57927 0.334574,3.10423 0.297,1.526 0.925907,4.93335 1.395907,7.57335 0.469996,2.64 1.488475,8.12982 2.264471,12.19978 2.005992,10.52296 2.810628,14.94402 3.385628,18.60102 0.467996,2.97896 0.61259,3.29684 2.111586,4.59984 0.885996,0.77 2.989187,2.6588 4.675179,4.1988 2.978988,2.72 9.725915,8.73528 14.357899,12.80024 1.252992,1.1 3.797318,3.37003 5.652318,5.04299 4.64151,4.18654 6.01799,5.41156 6.22618,4.42259 0.049,0.53384 0.10123,1.0984 0.11522,1.23416 0.017,0.165 0.43782,0.27981 0.93282,0.25481 0.677,-0.035 0.72642,-0.0924 0.19942,-0.23044 -0.507,-0.132 -0.70117,-0.58893 -0.70017,-1.65293 0,-0.809 -0.25301,-3.00016 -0.56501,-4.87016 -0.313,-1.87 -0.77731,-4.93006 -1.03031,-6.80006 -0.437,-3.222 -0.73857,-5.32492 -2.19357,-15.19988 -1.123,-7.62696 -2.2334,-15.37138 -2.4794,-17.30038 -0.191,-1.494 -0.50875,-2.11022 -1.48675,-2.87822 -1.94,-1.526 -3.97401,-3.15903 -4.848006,-3.89303 -0.438,-0.368 -2.867518,-2.30902 -5.397506,-4.31402 -2.529992,-2.005 -5.392135,-4.31462 -6.359131,-5.13162 -0.967996,-0.816 -2.027316,-1.64283 -2.355316,-1.83683 -0.329,-0.193 -3.49859,-2.69283 -7.041574,-5.55483 -3.543988,-2.86196 -6.669083,-5.37992 -6.944083,-5.59692 -0.181996,-0.1435 -0.306036,-0.18805 -0.385536,-0.1263 z m 80.523882,2.63007 c -0.077,0 -0.3617,0.26903 -0.6337,0.59603 -0.271,0.327 -0.38191,0.88338 -0.24595,1.23638 0.279,0.72796 1.16293,11.75721 3.39893,42.36909 0.816,11.17996 1.39442,15.80033 1.97642,15.80033 0.151,0 0.72161,0.40824 1.26961,0.90624 0.548,0.498 2.11491,1.73736 3.48091,2.75636 1.366,1.019 3.25701,2.50421 4.20101,3.29921 0.944,0.795 3.78482,3.05244 6.31482,5.0164 2.53,1.964 5.14077,4.00967 5.80077,4.54667 0.66,0.537 3.99052,3.15328 7.40052,5.81628 3.41,2.662 7.09818,5.57392 8.19818,6.46992 8.37952,6.8236 12.49076,9.86294 13.46496,10.01286 l -0.19498,-62.04695 -5.06958,-3.39449 c -2.97,-1.989 -7.55898,-5.10271 -10.19898,-6.91971 -2.64,-1.817 -9.30105,-6.32551 -14.80105,-10.01951 -5.49996,-3.69296 -10.87375,-7.33075 -11.94275,-8.08075 -1.069,-0.75 -2.51073,-1.69454 -3.20173,-2.1005 -0.691,-0.406 -1.61397,-1.06946 -2.05397,-1.47346 -0.769,-0.704 -6.87844,-4.7904 -7.16344,-4.7904 z m 196.11825,0.55172 c -0.23686,-0.16763 -0.62811,0.0356 -1.15661,0.42985 -0.76996,0.574 -3.79937,2.83791 -6.73137,5.03191 -2.932,2.193 -5.46151,3.9883 -5.62351,3.9883 -0.162,0 -0.81265,0.53871 -1.44465,1.19871 -0.632,0.66 -1.35032,1.20092 -1.59532,1.20092 -0.246,0 -1.0576,0.63034 -1.8036,1.40034 -0.746,0.77 -1.55982,1.40034 -1.80582,1.40034 -0.245,0 -0.96332,0.53871 -1.59532,1.19871 -0.632,0.66 -1.35419,1.20092 -1.60419,1.20092 -0.251,0 -0.89171,0.46596 -1.42471,1.03696 -0.534,0.571 -1.51141,1.31615 -2.17141,1.65515 -0.66,0.34 -1.77643,1.08779 -2.47939,1.66179 -0.703,0.575 -2.02484,1.58453 -2.93584,2.24453 -3.001,2.172 -3.45342,2.8168 -3.72242,5.2978 -0.357,3.28796 -0.89993,7.26911 -1.65293,12.10007 -0.663,4.254 -1.11678,7.3735 -1.85678,12.80246 -0.472,3.46 -0.89657,6.48208 -1.54657,11.00108 -1.475,10.25696 -1.83652,9.95376 5.02748,4.1988 1.181,-0.99 3.25063,-2.69997 4.59763,-3.79997 1.347,-1.1 3.28437,-2.7285 4.30737,-3.6205 1.024,-0.891 2.67259,-2.23193 3.66259,-2.97793 0.99,-0.746 2.63255,-2.08694 3.65151,-2.97794 1.019,-0.892 3.15287,-2.70375 4.74387,-4.02375 6.998,-5.805 7.39314,-6.20145 7.68414,-7.72845 0.155,-0.809 0.46144,-2.46146 0.68244,-3.67146 0.22,-1.21 0.68821,-3.72914 1.03917,-5.59914 1.79,-9.51096 2.3197,-12.35416 2.6057,-14.00116 0.172,-0.99 0.5258,-2.8788 0.7888,-4.1988 2.40521,-12.09821 3.07032,-15.94667 2.35974,-16.44954 z m -84.41912,0.71568 c -0.13555,-0.0638 -0.29177,-0.0598 -0.46752,0.007 -0.20085,0.076 -0.42819,0.23533 -0.68244,0.47195 -0.322,0.3 -1.39634,0.96875 -2.38634,1.48675 -0.99,0.519 -2.11677,1.20199 -2.50377,1.51999 -0.386,0.317 -1.02796,0.77359 -1.42692,1.01259 -1.5,0.901 -7.04477,4.45722 -9.09777,5.83622 -1.571,1.055 -4.66401,2.79846 -4.96101,2.79846 -0.159,0 -0.61237,0.36209 -1.01037,0.80209 -0.398,0.44 -0.94522,0.79988 -1.21422,0.79988 -0.269,0 -0.72845,0.28734 -1.02145,0.64034 -0.292,0.353 -0.90037,0.80472 -1.34937,1.00372 -0.449,0.199 -1.84667,1.037 -3.10867,1.859 -1.26096,0.823 -4.14223,2.64534 -6.40123,4.05034 -2.25796,1.405 -4.5345,2.84451 -5.0585,3.19951 -0.524,0.355 -1.28824,0.84127 -1.69724,1.08127 -0.41,0.239 -1.07389,0.73522 -1.47789,1.10122 -0.404,0.365 -0.85937,0.66472 -1.01037,0.66472 -0.151,0 -1.21761,0.58971 -2.36861,1.31171 -1.152,0.723 -2.38364,1.48746 -2.73864,1.69946 -0.355,0.213 -1.77544,1.14692 -3.1574,2.07392 -1.382,0.927 -2.67094,1.7396 -2.86494,1.8036 -0.14295,0.0477 -0.23994,11.68121 -0.29469,24.50813 l 0.113,36.71678 c 0.0107,0.15885 0.0125,1.37961 0.0244,1.39148 0.09,0.09 1.19624,-0.61695 2.45724,-1.57095 1.26096,-0.955 2.93806,-2.22605 3.72906,-2.82505 0.791,-0.6 2.07199,-1.51912 2.84499,-2.04512 0.773,-0.525 1.65084,-1.25083 1.94984,-1.61083 0.299,-0.36 0.70358,-0.65364 0.89958,-0.65364 0.197,0 1.65947,-0.99408 3.25047,-2.20908 4.954,-3.78196 9.91532,-7.39165 10.16132,-7.39165 0.129,0 0.91234,-0.58567 1.73934,-1.30063 1.354,-1.171 7.45315,-5.68776 12.92211,-9.56972 3.355,-2.381 5.03118,-3.6487 6.64718,-5.0297 0.83596,-0.715 1.65411,-1.30063 1.81911,-1.30063 0.164,0 0.91422,-0.53871 1.66622,-1.19871 0.752,-0.65996 1.51889,-1.20092 1.70389,-1.20092 0.669,0 1.1745,-2.27505 1.4225,-6.39901 0.139,-2.31 0.40846,-6.36028 0.60046,-9.00028 0.192,-2.63996 0.71404,-10.11025 1.16104,-16.60021 0.447,-6.48996 0.99608,-13.51092 1.22308,-15.60092 0.88506,-8.16382 0.91337,-11.88626 -0.0354,-12.33272 z m -153.24841,27.51708 c -0.48075,0.0325 -0.61494,0.60469 -0.45644,1.71719 0.133,0.935 0.42013,2.77909 0.63813,4.09909 0.219,1.32 0.54576,3.66031 0.72676,5.20031 0.182,1.54 0.52035,4.05914 0.75335,5.59914 0.233,1.54 0.61583,4.24018 0.85083,6.00018 0.235,1.76 0.59796,4.46018 0.81096,6.00018 1.139,8.245 1.63195,12.78689 1.45795,13.45389 -0.122,0.467 0.0158,0.7467 0.36781,0.7467 0.25858,0 0.39088,-0.24152 0.45422,-0.66694 0.1192,1.11394 0.26098,2.33574 0.32793,3.06657 l 0.23708,2.60126 2.99123,2.59904 c 6.63196,5.765 12.3391,10.78088 16.04406,14.10088 2.149,1.92496 5.16704,4.60465 6.707,5.95365 1.54,1.35 3.7909,3.37514 5.0009,4.50014 1.20996,1.126 3.44444,3.12088 4.96544,4.43588 l 2.76522,2.39298 -0.23044,-3.74679 c 0.16745,2.61901 0.38855,3.96393 0.69574,3.96393 0.345,0 0.39097,-0.52209 0.16397,-1.90109 -0.172,-1.045 -0.32379,-3.124 -0.33679,-4.622 -0.013,-1.497 -0.19019,-3.47743 -0.39219,-4.40043 -0.202,-0.922 -0.56817,-4.64795 -0.81317,-8.27795 -0.475,-7.02696 -0.96962,-13.18317 -1.60862,-19.99913 -0.21596,-2.31 -0.50291,-5.60211 -0.63591,-7.31411 l -0.24373,-3.11088 -3.39892,-2.68768 c -5.34596,-4.22796 -16.55166,-13.2092 -18.49466,-14.8232 -0.97,-0.806 -2.25607,-1.82447 -2.85607,-2.26447 -1.71596,-1.258 -3.89041,-2.96289 -7.77941,-6.09989 -1.98,-1.597 -3.7816,-3.03894 -4.0016,-3.20394 -0.22,-0.164 -1.19641,-0.97295 -2.17141,-1.79695 -1.2305,-1.0405 -2.05847,-1.54806 -2.53922,-1.51556 z m 197.24606,2.085 c -0.52029,-0.0913 -1.4855,0.43748 -2.93362,1.59311 -1.1,0.877 -2.72055,2.05863 -3.60055,2.62563 -0.88,0.567 -1.69139,1.16257 -1.80139,1.32057 -0.11,0.158 -0.93848,0.80623 -1.84348,1.44023 -1.424,0.99796 -13.68107,10.15512 -18.35507,13.71312 -3.91796,2.98196 -8.40567,6.30889 -9.55863,7.08589 -0.691,0.466 -1.49896,1.14104 -1.79696,1.50004 -0.298,0.359 -0.76356,0.65364 -1.03252,0.65364 -1.781,0 -2.14623,1.61412 -2.99123,13.19908 -0.402,5.51796 -0.83827,10.9808 -1.61527,20.20076 -0.724,8.59796 -1.20694,16.73057 -1.00594,16.93257 0.295,0.295 3.78292,-2.2377 7.61988,-5.53266 1.921,-1.65 4.26156,-3.63043 5.20252,-4.40043 0.941,-0.77 2.99683,-2.47997 4.56883,-3.79997 6.41096,-5.382 7.50843,-6.29116 9.78243,-8.10512 1.30596,-1.042 2.98549,-2.48008 3.73349,-3.19508 0.749,-0.715 1.50717,-1.30063 1.68617,-1.30063 0.179,0 1.48195,-1.03492 2.89595,-2.29992 1.413,-1.265 3.07926,-2.6651 3.70026,-3.1131 1.61,-1.158 1.94108,-2.9693 5.39308,-29.53118 0.454,-3.491 0.91466,-6.73211 1.02366,-7.20111 0.288,-1.231 1.38748,-9.88954 1.39148,-10.95454 0.002,-0.49913 -0.15091,-0.77615 -0.46309,-0.8309 z m -199.92487,10.05053 c 0.0179,0.12803 0.0315,0.1524 0.0488,0.2814 0.749,5.58996 1.10734,8.19086 1.51334,10.99886 0.0301,0.20856 0.076,0.58485 0.11078,0.83311 -0.17024,-1.19203 -0.34246,-2.41601 -0.47638,-3.33245 -0.217,-1.485 -0.48381,-3.42072 -0.59381,-4.30072 -0.22896,-1.8413 -0.42337,-3.2338 -0.60268,-4.4802 z m 40.13121,11.44422 c 1.13265,0.80417 1.95844,1.3294 2.18249,1.35602 -0.19679,0.30497 -0.60308,-0.17794 -1.25853,-0.64034 -0.16915,-0.11955 -0.65441,-0.5151 -0.92396,-0.71568 z m -33.69453,3.23717 c 0.21,1.43 0.54956,4.03856 0.75556,5.79856 0.004,0.0354 0.0112,0.0965 0.0155,0.13294 -0.005,-0.0426 -0.0129,-0.0912 -0.0177,-0.13294 -0.204,-1.76 -0.54335,-4.36856 -0.75335,-5.79856 z m 42.6793,10.45601 c -0.23811,0.0185 -0.40564,0.1471 -0.54064,0.3656 -0.144,0.232 -0.1568,0.84037 -0.0288,1.34937 0.128,0.509 0.59739,5.67446 1.04139,11.47746 0.445,5.80396 1.03106,13.34088 1.30506,16.75088 0.273,3.41 0.49854,7.77548 0.49854,9.70044 0,3.205 0.24587,4.28006 0.68687,3.0001 0.15838,-0.46176 -0.25889,-7.42553 -0.80652,-15.26635 0.16755,2.40507 0.36028,4.91932 0.45865,5.36649 0.122,0.55 0.32766,4.2914 0.45866,8.3134 0.13,4.02196 0.33157,7.55939 0.44757,7.86139 0.224,0.583 7.43064,7.12016 12.51664,11.35116 1.66996,1.39 3.48705,3.02357 4.03705,3.63157 0.55,0.608 2.62757,2.46858 4.61757,4.13454 1.99,1.666 3.88101,3.3455 4.20101,3.7335 0.32,0.388 1.66237,1.60279 2.98237,2.69875 1.32,1.097 3.83917,3.30197 5.59913,4.89897 10.48596,9.51396 12.12293,10.84312 12.41693,10.07712 0.12,-0.312 0.0753,-11.70395 -0.0997,-25.31687 l -0.25259,-19.68894 c 0.14768,3.4475 0.19954,9.30673 0.2969,19.53605 l -0.0776,-24.79396 -0.60267,-0.57609 c -0.726,-0.693 -3.17869,-2.70026 -5.45069,-4.46026 -2.27196,-1.75996 -4.90333,-3.82984 -5.84729,-4.59984 -0.944,-0.77 -2.82629,-2.30114 -4.18329,-3.40114 -1.357,-1.1 -3.23908,-2.62892 -4.18108,-3.39892 -0.942,-0.77 -2.95068,-2.36108 -4.46468,-3.53408 -3.095,-2.398 -13.22925,-10.47414 -19.78421,-15.7671 -3.16275,-2.55375 -4.5303,-3.49879 -5.24462,-3.44324 z m 102.13606,0.73784 c -0.12287,-0.0808 -0.26744,-0.0278 -0.43207,0.17061 -0.273,0.329 -1.29347,1.0662 -2.26447,1.6352 -0.971,0.569 -1.76593,1.17638 -1.76593,1.34938 0,0.174 -0.494,0.56478 -1.099,0.87078 -0.605,0.307 -1.76246,1.10215 -2.57246,1.76815 -0.809,0.666 -2.15909,1.7198 -3.00009,2.3398 -0.84,0.621 -2.6979,2.01216 -4.1279,3.09316 -1.42996,1.08 -4.33562,3.23232 -6.45662,4.77932 -2.121,1.54696 -4.07725,3.0786 -4.34725,3.40556 -0.271,0.326 -0.64876,0.59382 -0.83976,0.59382 -0.19,0 -1.44785,0.85609 -2.79181,1.90109 -1.344,1.045 -2.94303,2.25875 -3.55403,2.69875 -0.611,0.44 -2.86575,2.14997 -5.00975,3.79997 -4.323,3.326 -5.54242,4.232 -7.24542,5.382 -0.636,0.429 -2.28095,1.6592 -3.65595,2.7342 l -2.32429,1.81468 0.15288,49.01184 c 0.0298,0.29364 0.0435,1.64071 0.0776,1.66179 0.386,0.238 1.88996,-0.92073 6.53196,-5.02969 1.134,-1.004 2.53488,-2.17305 3.11088,-2.59905 2.20396,-1.629 6.95745,-5.55651 7.08145,-5.84951 0.071,-0.168 1.33168,-1.21287 2.80068,-2.31987 1.468,-1.10796 3.83903,-3.01346 5.26899,-4.23646 1.43,-1.222 3.51752,-2.97525 4.63752,-3.89525 1.121,-0.921 3.62468,-3.02518 5.56368,-4.67518 1.939,-1.64996 4.29984,-3.62821 5.24684,-4.39821 8.56796,-6.96996 8.15165,-6.4452 8.15165,-10.3142 0,-1.522 0.17068,-3.28827 0.37668,-3.92627 0.206,-0.63796 0.65529,-5.66064 0.99929,-11.1606 0.343,-5.5 0.79837,-11.43908 1.01037,-13.19908 1.17337,-9.71771 1.33644,-16.84095 0.47638,-17.40673 z m -107.05054,4.40486 c 0.413,6.20496 0.92458,12.49956 1.77258,21.80052 0.11515,1.26393 0.15759,2.05538 0.27032,3.37233 -0.11378,-1.32185 -0.15892,-2.09815 -0.27475,-3.37233 -0.847,-9.32196 -1.35715,-15.63256 -1.76815,-21.80052 z m 37.38814,20.83668 c 0.77,0.627 3.47019,2.76981 6.00019,4.76381 0.50877,0.40078 0.59677,0.47673 1.08127,0.8597 -0.50661,-0.40028 -0.72194,-0.57403 -1.22751,-0.97271 -2.45,-1.93196 -5.08395,-4.0238 -5.85395,-4.6508 z m 14.51079,11.47967 c 0.787,0.59871 1.32805,0.82065 1.7194,1.32722 l -1.08127,-0.82647 c -0.19441,-0.14876 -0.4163,-0.32933 -0.63813,-0.50075 z" />
  </g>
</svg>
