<?xml version="1.0" encoding="UTF-8" standalone="no"?>
<svg
   version="1.2"
   viewBox="0 0 1280 1280"
   width="1280"
   height="1280"
   id="svg1"
   sodipodi:docname="groveopoly.svg"
   inkscape:version="1.3 (0e150ed6c4, 2023-07-21)"
   xmlns:inkscape="http://www.inkscape.org/namespaces/inkscape"
   xmlns:sodipodi="http://sodipodi.sourceforge.net/DTD/sodipodi-0.dtd"
   xmlns="http://www.w3.org/2000/svg"
   xmlns:svg="http://www.w3.org/2000/svg">
  <defs
     id="defs1" />
  <sodipodi:namedview
     id="namedview1"
     pagecolor="#ffffff"
     bordercolor="#666666"
     borderopacity="1.0"
     inkscape:showpageshadow="2"
     inkscape:pageopacity="0.0"
     inkscape:pagecheckerboard="0"
     inkscape:deskcolor="#d1d1d1"
     inkscape:zoom="0.41908147"
     inkscape:cx="962.81995"
     inkscape:cy="767.15394"
     inkscape:window-width="2378"
     inkscape:window-height="1472"
     inkscape:window-x="209"
     inkscape:window-y="0"
     inkscape:window-maximized="0"
     inkscape:current-layer="svg1" />
  <title
     id="title1">xsquared-svg</title>
  <style
     id="style1">&#10;		.s0 { fill: #f2deba } &#10;	</style>
  <g
     id="2">
    <path
       id="Path 0"
       class="s0"
       d="m637 0.2c17.9-0.1 38.8 0.3 46.5 0.8 7.7 0.5 20.5 1.7 28.5 2.6 8 0.8 23.7 3.1 35 5 11.3 1.9 27.5 5 36 7 8.5 2 21.1 5.1 28 7 6.9 1.9 20.8 6.2 31 9.5 10.2 3.4 26.4 9.3 36 13.1 9.6 3.9 24.7 10.4 33.5 14.5 8.8 4 22.8 11 31 15.5 8.3 4.5 20.6 11.5 27.5 15.6 6.9 4.1 19.3 12 27.5 17.6 8.3 5.5 20.6 14.3 27.5 19.5 6.9 5.2 18.8 14.7 26.5 21.1 7.7 6.5 20.5 17.9 28.5 25.4 8 7.5 20.1 19.6 26.9 26.9 6.7 7.2 17.6 19.5 24.1 27.2 6.5 7.7 16.1 19.8 21.5 27 5.4 7.1 14.8 20.6 21 30 6.2 9.4 13.9 21.5 17.2 27 3.3 5.5 9.5 16.5 13.8 24.5 4.3 8 10.5 20.1 13.8 27 3.2 6.9 8.3 18.4 11.4 25.5 3 7.1 8.3 20.6 11.8 30 3.4 9.4 8.6 24.6 11.4 34 2.8 9.4 6.4 22.4 8 29 1.7 6.6 4.1 17.2 5.5 23.5 1.4 6.3 3.6 18.3 5 26.5 1.4 8.3 3.4 22.6 4.5 32 1.1 9.4 2.5 24.6 3.2 34 0.7 10.8 1 29.9 0.6 52.5-0.3 19.5-1 40.2-1.6 46-0.6 5.8-2 17.7-3.2 26.5-1.1 8.8-3.5 24.3-5.4 34.5-1.9 10.2-5.7 27.7-8.6 39-2.8 11.3-8.3 30.2-12.1 42-3.9 11.8-10.1 29.1-13.9 38.5-3.7 9.4-10 24-13.9 32.5-3.9 8.5-11 22.7-15.7 31.5-4.8 8.8-12.4 22.3-17.1 30-4.7 7.7-12.8 20.3-18 28-5.2 7.7-13.6 19.4-18.5 26-5 6.6-12.2 15.8-16.1 20.5-3.9 4.7-11.6 13.7-17.2 20-5.5 6.3-16.1 17.5-23.5 24.9-7.4 7.4-18.8 18.4-25.4 24.4-6.6 6-19.4 16.9-28.5 24.2-9.1 7.2-21.5 16.7-27.5 21-6 4.4-17.3 12-25 17-7.7 5.1-20.3 12.8-28 17.2-7.7 4.4-19.6 11-26.5 14.6-6.9 3.6-19.7 9.8-28.5 13.8-8.8 3.9-23.2 10-32 13.4-8.8 3.5-24.5 9.1-35 12.5-10.5 3.4-25.8 7.9-34 10.1-8.3 2.1-20.2 5-26.5 6.4-6.3 1.4-19.1 3.9-28.5 5.5-9.4 1.6-22.6 3.6-29.5 4.4-6.9 0.9-17.2 2.1-23 2.7-5.8 0.5-26.3 1.3-45.5 1.6-22.1 0.3-41.5 0.1-52.5-0.6-9.6-0.7-23.8-1.9-31.5-2.7-7.7-0.9-23.2-3.1-34.5-5-11.3-1.9-27.5-5-36-7-8.5-2-21.1-5.1-28-7-6.9-1.9-20.8-6.2-31-9.5-10.2-3.4-26.4-9.3-36-13.1-9.6-3.9-24.7-10.4-33.5-14.5-8.8-4-22.8-11-31-15.5-8.3-4.5-20.6-11.5-27.5-15.6-6.9-4.1-19.3-12-27.5-17.6-8.3-5.5-20.6-14.3-27.5-19.5-6.9-5.2-18.8-14.7-26.5-21.1-7.7-6.5-20.8-18.1-29-25.9-8.3-7.7-20.3-19.8-26.8-26.8-6.6-7.1-17.2-19.1-23.7-26.8-6.5-7.7-16.1-19.8-21.5-27-5.4-7.1-14.8-20.6-21-30-6.2-9.4-13.9-21.5-17.2-27-3.3-5.5-9.5-16.5-13.8-24.5-4.3-8-10.5-20.1-13.8-27-3.2-6.9-8.4-18.4-11.4-25.5-3-7.1-8.4-20.9-11.9-30.5-3.6-9.6-8.7-24.9-11.4-34-2.7-9.1-6.3-21.9-7.9-28.5-1.7-6.6-4.1-17.2-5.5-23.5-1.4-6.3-3.6-18.2-5-26.5-1.4-8.2-3.4-22.6-4.5-32-1.1-9.4-2.5-23.6-3-31.7-0.6-8.2-1.1-28.2-1.1-44.5 0-16.4 0.5-36.1 1-43.8 0.6-7.7 1.7-20.1 2.6-27.5 0.8-7.4 2.8-21.8 4.5-32 1.6-10.2 4.5-25.7 6.5-34.5 1.9-8.8 4.7-20.3 6-25.5 1.4-5.2 4.6-16.2 7.1-24.5 2.5-8.2 6.4-19.9 8.5-26 2.2-6.1 6.6-17.5 9.8-25.5 3.2-8 8.6-20.6 12-28 3.4-7.4 9.6-20 13.7-28 4.2-8 10.8-19.9 14.6-26.5 3.8-6.6 11.2-18.5 16.5-26.5 5.2-8 13.3-19.9 18.1-26.5 4.7-6.6 12.2-16.5 16.5-22 4.4-5.5 10.9-13.4 14.4-17.5 3.6-4.1 12.4-14 19.8-22 7.3-8 20.8-21.5 30.1-30.1 9.2-8.6 20.4-18.7 24.8-22.4 4.4-3.7 12.7-10.5 18.5-15 5.8-4.5 16.1-12.2 23-17.2 6.9-4.9 18.4-12.7 25.5-17.3 7.1-4.6 20-12.4 28.5-17.3 8.5-4.9 24.1-13.1 34.5-18.2 10.4-5.1 25.1-11.9 32.5-15 7.4-3.1 18.2-7.5 24-9.7 5.8-2.2 16.6-6 24-8.5 7.4-2.4 20.5-6.4 29-8.8 8.5-2.4 22.7-6 31.5-8 8.8-2 25-5.2 36-7 11-1.8 26.7-4.1 35-5 8.2-0.9 19.7-2 25.5-2.4 5.8-0.5 25.1-0.9 43-0.9z" />
  </g>
  <g
     id="svgg"
     transform="matrix(2.1885234,0,0,2.1885234,229.54332,249.1572)"
     style="stroke-width:0.45693;fill:#3a8891">
    <path
       id="path1"
       d="M 80.283605,9.78604 C 50.6154,9.801915 30.606573,9.855775 29.982824,9.963775 c -0.910999,0.157999 -1.206953,0.460391 -1.376953,1.40039 -0.453,2.512998 0.194969,171.910615 0.667969,174.599605 0.250999,1.43 0.664015,5.03001 0.916015,8 0.252,2.97 0.697235,6.38961 0.990235,7.59961 0.292999,1.21 0.654781,3.27961 0.800781,4.59961 0.244,2.193 1.345658,7.45457 2.847656,13.60156 0.322,1.32 0.840438,3.48169 1.148438,4.80469 0.308999,1.323 0.770344,2.94261 1.027343,3.59961 0.257,0.657 0.791501,2.27571 1.1875,3.5957 0.397,1.32 1.285517,3.92883 1.978516,5.79883 0.692999,1.87 1.514219,4.16933 1.824219,5.11133 0.309999,0.942 0.825531,2.20278 1.144531,2.80078 0.842999,1.576 3.050781,6.39811 3.050781,6.66211 0,0.403 5.837892,10.76539 7.337891,13.02539 11.692988,17.61698 27.470849,34.26516 48.923834,51.61914 6.63499,5.368 10.749,8.59043 12.75,9.98242 0.791,0.55 2.37072,1.72433 3.51172,2.61133 1.14099,0.886 2.59642,1.96639 3.23242,2.40039 0.636,0.433 1.64704,1.14789 2.24804,1.58789 0.992,0.727 6.79748,4.73522 8.98047,6.19922 2.413,1.618 11.60363,7.59619 14.01563,9.11719 0.88,0.554 2.05533,1.31636 2.61133,1.69336 0.557,0.376 1.72661,1.07187 2.59961,1.54687 0.87399,0.474 2.3075,1.30947 3.1875,1.85547 0.87999,0.546 2.29362,1.39467 3.14062,1.88867 3.993,2.327 5.11392,2.97496 6.91992,4.00196 1.067,0.607 2.21102,1.27819 2.54102,1.49219 0.33,0.21299 3.11922,1.74534 6.19922,3.40234 3.07999,1.657 6.04961,3.26708 6.59961,3.58008 2.49399,1.417 5.97178,3.02148 6.55078,3.02148 1.236,0 15.51901,-7.66029 27.25,-14.61328 1.98,-1.174 4.86039,-2.87144 6.40039,-3.77344 1.54,-0.903 3.87922,-2.34789 5.19922,-3.21289 1.32,-0.864 2.67,-1.71472 3,-1.88672 1.319,-0.69 15.54639,-10.15134 19.40039,-12.90234 1.54,-1.1 3.97039,-2.82785 5.40039,-3.83984 5.02399,-3.557 6.11283,-4.36768 12.79883,-9.51368 20.13898,-15.49998 40.75512,-36.28676 51.91211,-52.34375 0.502,-0.722 1.35076,-1.94289 1.88476,-2.71289 0.535,-0.77 1.34574,-2.03078 1.80274,-2.80078 0.457,-0.77 1.25925,-2.12 1.78125,-3 0.523,-0.88 2.1559,-4.03 3.6289,-7 1.474,-2.97 2.91603,-5.85701 3.20703,-6.41601 0.291,-0.559 0.83027,-1.81783 1.19727,-2.79883 2.469,-6.608 3.12892,-8.45199 3.79492,-10.58399 0.413,-1.31999 1.02533,-3.21117 1.36133,-4.20117 1.13,-3.33099 2.63481,-8.59489 2.63281,-9.21289 -10e-4,-0.337 0.27242,-1.59778 0.60742,-2.80078 0.847,-3.037 2.4765,-11.72133 3.1875,-16.98633 0.326,-2.42 0.85478,-6.20039 1.17578,-8.40039 1.115,-7.63799 1.45125,-16.60745 0.65625,-17.56445 -0.519,-0.625 -0.73061,-0.49297 -5.7246,3.58203 -0.382,0.312 -1.44529,1.06578 -2.36329,1.67578 -0.918,0.609 -2.06292,1.37703 -2.54492,1.70703 -1.428,0.977 -3.09827,2.06746 -4.69726,3.06446 -0.825,0.51499 -2.18449,1.38554 -3.02149,1.93554 -0.836,0.55 -1.66389,1 -1.83789,1 -0.174,0 -0.81578,0.35506 -1.42578,0.78906 -2.608,1.857 -16.48807,8.57644 -19.41406,9.39844 -1.1,0.309 -2.71961,0.83492 -3.59961,1.16992 -0.88,0.334 -1.97178,0.616 -2.42578,0.625 -0.453,0.01 -2.16379,0.36507 -3.80078,0.78907 -1.636,0.424 -5.3898,1.06197 -8.3418,1.41797 -2.953,0.35699 -5.49353,0.72435 -5.64453,0.81835 -0.152,0.093 -3.90862,0.52875 -8.34961,0.96875 -4.441,0.439 -8.21286,0.88429 -8.38086,0.98829 -0.168,0.104 -2.54525,0.47336 -5.28125,0.81836 -2.737,0.34499 -6.05696,0.88898 -7.37695,1.20898 -1.32,0.319 -3.74844,0.85541 -5.39844,1.19141 -6.697,1.36299 -19.59993,5.36626 -22.79492,7.07226 -0.767,0.409 -1.62993,0.74414 -1.91993,0.74414 -0.29,0 -1.19381,0.34649 -2.00781,0.77149 -0.813,0.425 -2.73734,1.37156 -4.27734,2.10156 -3.36,1.593 -10.23024,5.36683 -13.74024,7.54883 -1.39699,0.869 -2.61412,1.57812 -2.70312,1.57812 -0.09,0 -1.75522,1.1516 -3.69922,2.5586 -3.936,2.84799 -5.83203,3.93459 -6.20703,3.55859 -0.437,-0.436 -0.27288,-2.44677 0.32812,-4.00977 0.318,-0.829 0.77372,-2.31664 1.01172,-3.30664 1.032,-4.29299 6.63343,-15.88439 9.85742,-20.40039 3.829,-5.36299 10.31396,-11.92573 14.75196,-14.92773 3.85199,-2.606 5.94067,-3.87305 6.38867,-3.87305 0.248,0 0.65244,-0.20126 0.89844,-0.44726 0.621,-0.621 4.62036,-2.2873 7.56836,-3.1543 1.35099,-0.397 2.79022,-0.89642 3.19922,-1.10742 0.40899,-0.212 2.00492,-0.61258 3.54492,-0.89258 1.54,-0.281 3.25078,-0.67877 3.80078,-0.88477 0.55,-0.206 3.58133,-0.71958 6.73633,-1.14257 3.15499,-0.422 5.88254,-0.85876 6.06054,-0.96875 0.177,-0.11 4.31913,-0.56096 9.20313,-1.00196 4.88399,-0.441 8.99758,-0.87484 9.14258,-0.96484 0.146,-0.089 3.77355,-0.4546 8.06054,-0.8086 4.288,-0.355 9.50571,-0.90842 11.59571,-1.23242 2.08999,-0.324 5.78117,-0.77876 8.20117,-1.00976 2.42,-0.231 5.08959,-0.60318 5.93359,-0.82617 0.844,-0.224 3.7244,-0.75474 6.40039,-1.17774 12.39299,-1.961 31.80311,-7.45588 34.16211,-9.67187 l 0.96094,-0.90235 -0.23633,-22.20312 c -0.13,-12.21199 -0.23251,-22.70441 -0.22851,-23.31641 0.013,-1.976 -1.71271,-1.58493 -4.59571,1.03906 -1.344,1.223 -5.26149,4.00018 -8.39648,5.95118 -1.1,0.68399 -2.72157,1.69695 -3.60156,2.25195 -4.844,3.056 -8.91384,5.31766 -14.79883,8.22265 -5.594,2.761 -9.95996,4.64844 -10.75196,4.64844 -0.34,0 -1.57137,0.34653 -2.73437,0.76953 -2.516,0.915 -11.06929,2.63143 -16.11328,3.23243 -1.98,0.23599 -5.04078,0.68123 -6.80078,0.99023 -1.76,0.309 -5.44922,0.76658 -8.19922,1.01758 -2.75,0.251 -5.63039,0.61459 -6.40039,0.80859 -0.77,0.195 -3.83079,0.7172 -6.80078,1.1582 -6.245,0.928 -14.36318,2.57096 -15.45118,3.12696 -0.411,0.21 -1.91765,0.6059 -3.34765,0.8789 -1.43,0.274 -2.93671,0.67554 -3.3457,0.89454 -0.409,0.21899 -1.84823,0.72881 -3.19922,1.13281 -3.45,1.033 -6.97482,2.3098 -8.88282,3.21679 -0.895,0.426 -1.75982,0.77344 -1.92382,0.77344 -0.335,0 -5.31701,2.25803 -6.25,2.83203 -0.33,0.204 -1.04961,0.56664 -1.59961,0.80664 -1.94,0.848 -2.61962,1.18616 -4.59961,2.28516 -4.657,2.585 -7.86962,4.53963 -12.34961,7.51563 -7.60399,5.05299 -7.45117,4.9887 -7.45117,3.0957 0,-2.396 4.43845,-14.89477 6.43945,-18.13477 0.204,-0.33 0.73092,-1.31922 1.16992,-2.19922 0.733,-1.46699 1.66935,-2.96778 3.77734,-6.05078 9.76599,-14.28798 24.1417,-22.96866 43.01368,-25.97265 2.08999,-0.333 5.05961,-0.85611 6.59961,-1.16211 1.53999,-0.306 5.23117,-0.75786 8.20117,-1.00586 2.96999,-0.247 7.10922,-0.70649 9.19922,-1.02149 2.08999,-0.315 6.68117,-0.76309 10.20117,-0.99609 3.51999,-0.233 7.92883,-0.67733 9.79883,-0.98633 1.86999,-0.31 5.71873,-0.7733 8.55273,-1.0293 2.835,-0.255 5.71349,-0.62336 6.39649,-0.81835 0.68199,-0.196 3.40192,-0.63366 6.04492,-0.97266 2.64299,-0.338 5.34586,-0.7861 6.00586,-0.99609 0.66,-0.209 3.09039,-0.74451 5.40039,-1.1875 8.34199,-1.6 23.20967,-6.06724 25.76367,-7.74024 l 1.03711,-0.67969 V 77.741118 c 0,-20.03798 -0.0831,-23.435 -0.57813,-23.625 -0.529,-0.203 -1.59309,0.452878 -5.74609,3.546875 -2.891,2.152998 -8.50389,5.900391 -8.83789,5.900391 -0.187,0 -0.55445,0.257313 -0.81445,0.570312 -0.261,0.314 -1.13627,0.917798 -1.94727,1.341797 -0.812,0.424 -3.36774,1.836627 -5.67773,3.140625 -7.102,4.008996 -17.5506,8.947266 -18.9336,8.947266 -0.349,0 -1.587,0.350344 -2.75,0.777344 -1.163,0.427999 -3.28484,0.970984 -4.71484,1.208984 -1.43,0.238 -3.68,0.698485 -5,1.021484 -1.32,0.323 -4.89818,0.863219 -7.95117,1.199219 -3.054,0.336 -5.69324,0.695735 -5.86524,0.802735 -0.172,0.105999 -2.985,0.465828 -6.25,0.798828 -5.48899,0.558999 -10.19399,1.288704 -18.33398,2.845703 -8.64099,1.653998 -9.40479,1.843252 -17.80078,4.40625 -1.87,0.570999 -4.12,1.307721 -5,1.636721 -0.88,0.329 -2.49961,0.9195 -3.59961,1.3125 -3.759,1.342 -6.45879,2.55436 -13.80078,6.19336 -5.204,2.578988 -7.19898,3.650868 -10.79297,5.796868 -0.921,0.55 -2.15424,1.27819 -2.74024,1.61719 -0.586,0.339 -3.03822,1.90547 -5.44922,3.48047 -5.72599,3.73899 -5.95067,3.60195 -4.13867,-2.49805 1.457,-4.90299 4.38011,-12.399218 5.53711,-14.199218 0.212,-0.33 0.5776,-1.04961 0.8086,-1.59961 0.23199,-0.55 0.83007,-1.630388 1.33007,-2.400387 0.5,-0.77 1.43318,-2.208267 2.07618,-3.197266 5.00999,-7.705992 14.23431,-16.457628 20.57031,-19.515625 0.55,-0.265 1.26961,-0.64761 1.59961,-0.849609 2.68199,-1.642999 10.44359,-4.527064 13.55859,-5.039063 0.968,-0.158 2.318,-0.518782 3,-0.800781 0.683,-0.282 2.95102,-0.722516 5.04102,-0.978516 2.08999,-0.255 4.32956,-0.636656 4.97656,-0.847656 0.648,-0.211 4.77297,-0.750266 9.16797,-1.197266 4.39499,-0.445999 8.12129,-0.891281 8.27929,-0.988281 0.157,-0.097 3.86048,-0.452063 8.23047,-0.789062 4.371,-0.337 9.13013,-0.799298 10.57813,-1.029297 1.449,-0.229 5.77056,-0.755923 9.60156,-1.169922 6.99099,-0.753999 12.20702,-1.514486 18.16602,-2.646485 1.75999,-0.333999 4.94703,-0.93775 7.08203,-1.34375 2.136,-0.405999 4.0632,-0.849328 4.2832,-0.986328 0.221,-0.136 1.89475,-0.590766 3.71875,-1.009765 6.99799,-1.609999 16.16919,-4.646064 17.86719,-5.914063 l 1.04883,-0.785156 V 25.838775 c 0,-10.16699 -0.13774,-15.174845 -0.42774,-15.464844 -0.327,-0.327 -176.27273,-0.635516 -265.277345,-0.587891 z m 24.839845,37.652344 c 0.7174,0 2.15249,0.724958 4.30469,2.417969 1.43479,0.967434 2.39088,2.178083 2.86914,3.871093 0.23914,1.693011 0.47852,5.077548 0.47852,10.398438 v 12.335937 l 15.54296,5.078125 c 6.21745,2.176728 10.5236,3.628598 12.67579,4.837891 2.15219,1.209293 3.3468,2.417989 3.58593,3.869141 0.23914,0.967434 0.47852,2.418324 0.47852,4.111324 0,3.14417 -1.67449,5.56286 -4.7832,7.255858 -1.67394,0.72558 -3.10903,1.20899 -4.30469,1.20899 -1.91306,0 -5.26032,-0.72496 -10.04297,-2.41797 -5.02178,-1.693008 -8.36929,-2.660158 -10.52148,-2.660158 h -0.47852 c -0.23914,0.72557 -0.23828,1.69305 -0.23828,2.902348 0,3.14416 0.23853,7.49747 0.7168,12.81836 l 0.95703,15.23632 6.45507,3.8711 c 4.54353,2.66044 9.32783,6.52904 14.34961,12.09179 10.28271,10.88364 15.54297,22.25244 15.54297,34.10352 0,5.07903 -0.95693,9.43267 -2.63086,13.06055 -2.63045,6.28832 -5.97856,10.88318 -9.80468,14.02734 -4.06526,3.14417 -9.0864,5.32 -15.54297,6.5293 l -6.45703,1.20898 -0.47852,10.15821 c -0.23913,7.0139 -0.7162,11.61037 -1.43359,13.7871 -0.71741,2.17673 -2.15275,3.62665 -4.78321,4.83594 -1.43479,0.72557 -2.86989,0.96875 -4.30468,0.96875 -1.19567,0 -2.39028,-0.24318 -3.58594,-0.96875 -4.065253,-2.17673 -6.218753,-9.43246 -6.218753,-21.52539 v -12.33398 l -9.08594,-5.5625 c -5.739179,-3.62788 -11.478465,-8.22307 -16.978515,-14.26953 -3.586989,-3.86974 -5.739633,-6.5316 -6.457031,-8.22461 -0.956531,-1.69301 -1.435547,-4.1117 -1.435547,-7.25586 0,-7.0139 2.869341,-10.64095 8.847656,-10.88282 2.630459,0 5.261869,1.45122 7.414063,4.35352 2.152193,3.14417 5.259814,6.53064 9.085934,10.40039 3.82612,4.11159 6.21815,6.04688 6.93555,6.04688 1.19566,0 1.67383,-6.28892 1.67383,-19.10743 V 144.90713 L 85.99259,140.55362 c -13.152295,-5.07903 -21.282753,-12.81818 -24.152344,-22.73438 -0.717398,-2.90231 -0.957031,-5.07848 -0.957031,-6.77148 0,-7.98134 2.871043,-15.721458 8.371093,-23.460939 5.50005,-7.497618 11.956885,-12.09377 19.130859,-13.544921 2.63047,-0.725576 4.06386,-1.450535 4.78125,-2.417969 0.47827,-0.725576 0.95814,-3.384826 1.19727,-7.738281 0.47827,-5.320891 1.1947,-8.949897 1.91211,-10.884766 0.7174,-1.693011 2.39187,-3.143894 4.783203,-4.111328 2.15219,-0.967435 3.34706,-1.451172 4.06445,-1.451172 z M 92.449617,92.907132 c -1.19566,0 -3.10782,1.45122 -5.738277,4.35352 -3.586991,4.111598 -5.5,8.465228 -5.5,13.060538 0,1.93488 0.23768,3.38641 0.955078,4.59571 0.717397,1.20929 2.869793,2.90269 5.978515,4.5957 3.108724,1.69301 5.261624,2.66016 6.935544,2.66016 0.7174,0 0.95703,-3.38617 0.95703,-10.15821 0,-5.80461 -0.23963,-10.64198 -0.95703,-14.511708 -0.7174,-3.14417 -1.43519,-4.59571 -2.63086,-4.59571 z m 26.542973,62.158208 c -0.95653,0 -1.43359,6.28825 -1.43359,18.62304 0,9.43249 0.23938,14.75426 0.47851,16.44727 0.23913,1.69301 1.43349,2.41797 3.10743,2.41797 1.67392,0 3.82632,-0.96781 5.97851,-3.14453 2.1522,-1.93488 3.82667,-4.11105 4.78321,-6.77149 0.23913,-0.96744 0.47851,-1.93458 0.47851,-2.66016 0,-5.56275 -2.39118,-11.60882 -7.17383,-18.38085 -3.10872,-4.35346 -5.26222,-6.53125 -6.21875,-6.53125 z"
       style="stroke-width:0.45693;fill:#3a8891" />
  </g>
</svg>
