<svg version="1.2" xmlns="http://www.w3.org/2000/svg" viewBox="0 0 1280 1280" width="1280" height="1280">
	<title>icon</title>
	<style>
		.s0 { fill: #F2DEBA } 
		.s1 { fill: #3A8891 }
	</style>
	<g id="icon">
		<path id="Path 0" class="s0" d="m646.5 0.5c31 0.2 46.6 0.8 56 1.9 7.1 0.8 19.5 2.4 27.5 3.5 8 1 23 3.6 33.5 5.6 10.5 2 25.8 5.4 34 7.5 8.3 2.1 22.4 6.1 31.5 8.9 9.1 2.7 22.8 7.3 30.5 10.1 7.7 2.8 22.1 8.6 32 12.8 9.9 4.2 25.6 11.5 35 16.2 9.4 4.7 24.4 12.8 33.5 18 9.1 5.2 24.6 14.8 34.5 21.5 9.9 6.6 23.4 16.1 30 21 6.6 4.9 17.8 13.8 25 19.8 7.2 5.9 19.8 17.1 28 24.7 8.3 7.6 21.6 21 29.7 29.7 8.1 8.7 18.8 20.7 23.8 26.8 5.1 6.1 14.5 18 20.9 26.5 6.5 8.5 15.8 21.6 20.8 29 4.9 7.4 12.3 19.1 16.5 26 4.1 6.9 11 19 15.3 27 4.3 8 10.5 20.1 13.8 27 3.2 6.9 8.4 18.4 11.4 25.5 3 7.1 8.3 20.6 11.8 30 3.5 9.4 8.6 24.6 11.4 34 2.7 9.4 6.4 22.4 8 29 1.7 6.6 4.3 18.3 6 26 1.6 7.7 3.7 18.5 4.6 24 0.9 5.5 2.2 14.7 3 20.5 0.8 5.8 2.2 17.3 3.1 25.5 0.9 9.2 1.8 28.7 2.1 50.5 0.4 22.5 0.1 41.7-0.6 52.5-0.7 9.4-2.1 24.6-3.2 34-1 9.4-2.8 22.4-4 29-1.1 6.6-3.1 17.6-4.5 24.5-1.4 6.9-4.1 18.8-6 26.5-1.9 7.7-5.6 21-8.1 29.5-2.5 8.5-6.5 20.9-8.8 27.5-2.4 6.6-7.1 19-10.5 27.5-3.5 8.5-9.4 22.3-13.2 30.5-3.8 8.3-10.8 22.2-15.5 31-4.7 8.8-12 21.6-16.1 28.5-4.2 6.9-11.6 18.6-16.5 26-5 7.4-14.3 20.5-20.8 29-6.4 8.5-15.8 20.5-20.9 26.5-5 6-15.7 18.1-23.8 26.8-8.1 8.7-21.4 22.1-29.7 29.7-8.3 7.6-20.8 18.8-28 24.7-7.2 6-18.2 14.7-24.5 19.5-6.3 4.7-19.8 14.2-30 21-10.2 6.8-25.7 16.5-34.5 21.5-8.8 4.9-21.6 12-28.5 15.6-6.9 3.6-21.3 10.5-32 15.2-10.7 4.8-27.1 11.5-36.5 15-9.4 3.5-24.6 8.6-34 11.5-9.4 2.8-23.9 6.9-32.3 9.1-8.3 2.1-24.8 5.7-36.5 7.9-11.6 2.2-30.4 5.1-41.7 6.5-11.3 1.3-26.8 2.9-34.5 3.5-7.7 0.5-28 1-45 1-17 0-37.1-0.5-44.5-1-7.4-0.6-22.7-2.2-34-3.6-11.3-1.3-30.1-4.2-41.8-6.4-11.6-2.2-28.1-5.8-36.5-7.9-8.3-2.2-22.6-6.2-31.7-9-9.1-2.7-22.8-7.3-30.5-10.1-7.7-2.8-22.1-8.5-32-12.7-9.9-4.2-26.6-12-37-17.3-10.4-5.4-25.1-13.2-32.5-17.5-7.4-4.3-20-12-28-17.3-8-5.2-19.9-13.3-26.5-18.1-6.6-4.7-16.5-12.1-22-16.5-5.5-4.4-14.9-12.2-21-17.5-6.1-5.2-16.3-14.5-22.8-20.6-6.5-6-18.3-18-26.2-26.5-7.9-8.5-19-21.1-24.8-28-5.7-6.9-15.1-18.8-20.9-26.5-5.7-7.7-14.5-20.1-19.5-27.5-4.9-7.4-12.3-19.1-16.5-26-4.1-6.9-11.4-19.7-16.1-28.5-4.7-8.8-11.7-22.7-15.5-31-3.8-8.2-10.1-22.9-14-32.5-3.9-9.6-9.5-24.9-12.5-34-3-9.1-7.3-23-9.5-31-2.2-8-5.6-21.5-7.6-30-1.9-8.5-4.9-23.4-6.6-33-1.6-9.6-3.9-25.4-5-35-1.1-9.6-2.4-23.8-3-31.5-0.5-7.7-1-27.3-1-43.5 0-16.2 0.5-35.8 1-43.5 0.6-7.7 1.9-21.9 3-31.5 1.1-9.6 3.4-25.4 5-35 1.7-9.6 4.7-24.5 6.6-33 2-8.5 5.4-22 7.6-30 2.2-8 6.5-21.9 9.5-31 3-9.1 8.1-23 11.3-31 3.2-8 8.8-21.2 12.5-29.5 3.6-8.2 10.1-21.5 14.2-29.5 4.2-8 11-20.4 15.1-27.5 4.1-7.1 12.6-20.9 19-30.5 6.3-9.6 15.5-22.9 20.5-29.5 5-6.6 12.7-16.5 17.1-22 4.4-5.5 12.8-15.4 18.6-22 5.8-6.5 17.9-19.4 27-28.5 9.1-9.1 22.9-22 30.8-28.7 7.8-6.8 18.8-16 24.4-20.5 5.7-4.4 16.2-12.3 23.3-17.3 7.1-5.1 18.9-13.1 26-17.7 7.1-4.7 18.9-11.9 26-16 7.1-4.1 19.5-10.9 27.5-15.1 8-4.1 23.3-11.5 34-16.2 10.7-4.8 27.1-11.5 36.5-15 9.4-3.5 24.6-8.6 34-11.5 9.4-2.8 23.7-6.9 32-9 8.2-2.1 23.6-5.5 34-7.5 10.5-2 25.3-4.5 33-5.6 7.7-1 20.5-2.5 28.5-3.4 8-0.8 17-1.6 20-1.9 3-0.2 24.9-0.2 48.5-0.1z"/>
		<path id="Path 1" class="s1" d="m317.8 190.1c1.7 0 4.9 0.6 6.9 1.5 2.7 1.1 111 108.7 386.1 383.7 256.7 256.7 382.9 383.5 384.2 386.2 1.1 2.2 2 5.6 2 7.5 0 1.9-1.1 5.8-2.5 8.5-1.6 3.3-3.8 5.9-11 10.5h-771l-4.5-2.8c-3-1.8-5.3-4.3-9-11.7v-384.2c0-317.4 0.2-384.9 1.3-387.5 0.8-1.8 3.2-5 5.5-7 2.2-2 5.1-3.9 6.4-4.1 1.3-0.2 3.8-0.5 5.5-0.6z"/>
		<path id="Path 2" class="s0" d="m381.6 299c24.4 24.5 44.4 44.9 44.4 45.5 0 0.6-8.5 9.6-19 20-12 12.1-19.5 20.4-20.4 22.8-0.9 2-1.6 5.5-1.6 7.7 0 2.2 0.5 5.2 1.1 6.7 0.5 1.6 2.2 4.1 3.7 5.6 1.5 1.6 4 3.6 5.7 4.4 1.6 0.9 5.2 1.6 8 1.6 2.7 0 6.1-0.6 7.5-1.3 1.4-0.6 11.5-10.2 42.5-41l35 34.9-9.7 9.8c-5.3 5.4-10.4 11.5-11.2 13.5-0.9 2.1-1.6 5.6-1.6 7.8 0 2.2 0.8 5.7 1.9 7.8 1 2 3.2 4.9 5 6.5 1.7 1.5 4.8 3.1 6.8 3.7 2.1 0.5 4.2 1 4.8 1 0.5 0 2.8-0.5 5-1.1 3-0.9 6.6-3.7 25.5-22.4l16.8 16.5c9.1 9.1 16.6 16.9 16.4 17.5-0.1 0.5-7.8 8.6-17.1 18-12.7 12.8-17.5 18.2-19.1 22-1.8 3.9-2.1 6-1.6 9.5 0.4 2.5 1.7 6 2.9 7.9 1.2 1.9 3.8 4.5 5.7 5.8 2.7 1.8 4.9 2.3 9.5 2.3 4.2 0 7-0.6 9.2-2 1.8-1.1 10.8-9.7 20-19 9.3-9.4 17.3-17.1 17.8-17 0.5 0 8.4 7.4 34 32.9l-10.5 10.6c-5.8 5.8-11.3 12-12.2 13.8-0.9 1.8-1.7 5.3-1.8 7.9 0 2.7 0.5 6 1.1 7.5 0.5 1.6 2.2 4.1 3.7 5.6 1.5 1.6 3.9 3.5 5.4 4.3 1.6 0.8 5.4 1.4 8.5 1.4 3.7 0 6.7-0.6 8.3-1.6 1.4-0.9 7.3-6.5 24-22.9l16.5 16.5c9.1 9.1 16.4 16.8 16.3 17.1-0.2 0.4-8 8.6-17.3 18.3-9.4 9.7-18 19.5-19.3 21.9-1.2 2.3-2.2 5.8-2.2 7.7 0 1.9 0.9 5.3 1.9 7.5 1 2.2 3.1 5.2 4.7 6.7 1.6 1.5 4.1 3.2 5.6 3.7 1.6 0.6 4.5 1.1 6.5 1.1 2.1 0 5.6-0.9 7.8-1.9 2.5-1.1 10.7-8.7 40-38.3l16.2 16.4c9 8.9 16.3 16.7 16.3 17.3 0 0.5-4.7 5.7-10.4 11.5-6.4 6.4-11.3 12.3-12.5 15-1.1 2.5-2.1 5.9-2.1 7.5 0 1.6 1.1 5.2 2.5 8 1.6 3.3 3.8 5.9 6.7 7.8 3.2 2 5.5 2.7 9 2.7 2.7 0 6.3-0.6 8-1.3 1.8-0.8 8.3-6.4 14.3-12.6 6-6.1 11.5-11.1 12-11.1 0.5 0 8.4 7.4 34 33l-18.1 18.2c-10 10.1-19 19.9-20 21.8-1 2-1.8 5.7-1.8 8.5 0 3.6 0.7 6.2 2.6 9.5 1.6 2.9 4.2 5.4 6.9 6.9 3.1 1.7 5.8 2.3 9.1 2.2 2.7 0 5.8-0.6 7-1.2 1.3-0.6 11-9.7 40.8-39.4l33.5 33.3-12.3 12.9c-7.8 8.1-12.9 14.3-13.8 16.8-1.1 2.6-1.4 5.5-1 8.5 0.3 2.7 1.8 6.2 3.6 8.7 1.6 2.4 4.5 5 6.2 5.9 1.8 1 5.5 1.7 8.3 1.7 2.7 0 6.5-0.7 8.2-1.7 1.8-0.9 8.7-7.1 27.3-26.1l16.5 16.5c9.1 9.1 16.5 17 16.5 17.5 0 0.5-8.1 9.2-18 19.2-11.4 11.6-18.7 19.9-20 22.5-1.1 2.4-2 5.9-2 7.8 0 1.9 1 5.5 2.2 7.9 1.3 2.5 4 5.9 6.1 7.5 3.4 2.7 4.6 3.1 10 3 5.2 0 6.9-0.5 10.7-3.1 2.5-1.7 11.8-10.8 20.7-20.2 9-9.4 16.8-17.1 17.3-17.1 0.5 0 21.9 21 47.4 46.8 25.5 25.7 46.2 47 46 47.5-0.2 0.4-156.3 0.7-346.9 0.7-276.5 0-346.5-0.3-346.6-1.3-0.1-0.6-0.3-156.7-0.4-346.7-0.1-190 0-346.2 0.3-347 0.3-1 15.3 13.4 44.8 43z"/>
		<path id="Path 3" class="s1" d="m468.8 591c2.3 0 5.7 0.6 7.4 1.4 2.1 0.8 38.9 37.2 96.4 95.2 51.1 51.6 99 100 106.3 107.4 7.3 7.4 13.9 14.7 14.7 16.2 0.8 1.6 1.5 4.9 1.5 7.5 0.1 3.1-0.6 6.3-2 9-1.1 2.4-3.3 5.2-4.9 6.4-1.5 1.1-4.3 2.5-6.2 3-2.2 0.6-42.4 0.9-219.7 0.4l-3.9-2.7c-2.1-1.5-4.8-4.2-5.9-6-2-3.2-2-5.1-2-225.4l2.9-4.3c1.7-2.5 4.6-5 7-6.2 2.3-1 6-1.9 8.3-1.9z"/>
		<path id="Path 4" class="s0" d="m489.8 657c0.3 0 32.2 32.2 141.2 143h-143l-0.2-70.8c-0.1-39 0.2-71.2 0.7-71.5 0.5-0.4 1.1-0.7 1.3-0.7z"/>
	</g>
</svg>