<?xml version="1.0" encoding="utf-8"?>
<!-- Generator: Adobe Illustrator 21.1.0, SVG Export Plug-In . SVG Version: 6.00 Build 0)  -->
<svg version="1.1" id="Layer_1" xmlns="http://www.w3.org/2000/svg" xmlns:xlink="http://www.w3.org/1999/xlink" x="0px" y="0px"
	 width="490.9px" height="280.2px" viewBox="0 0 490.9 280.2" style="enable-background:new 0 0 490.9 280.2;" xml:space="preserve"
	>
<style type="text/css">
	.st0{fill:#222222;}
	.st1{font-family:'TimesNewRomanPSMT';}
	.st2{font-size:18px;}
	.st3{font-family:'TimesNewRomanPS-ItalicMT';}
	.st4{font-size:22.2036px;}
	.st5{fill:none;stroke:#222222;stroke-width:0.75;stroke-miterlimit:10;}
	.st6{font-size:12px;}
	.st7{fill:none;stroke:#222222;stroke-miterlimit:10;}
	.st8{font-size:34.9927px;}
	.st9{font-size:9px;}
	.st10{font-size:12.0845px;}
	.st11{fill:#222222;stroke:#000000;stroke-miterlimit:10;}
	.st12{font-size:19.7364px;}
</style>
<text transform="matrix(1 0 0 1 32.2939 19.4744)"><tspan x="0" y="0" class="st0 st1 st2">Let </tspan><tspan x="28.5" y="0" class="st0 st3 st2">p</tspan><tspan x="37.5" y="0" class="st0 st1 st2"> = 2</tspan><tspan x="65.6" y="0" class="st0 st3 st2">b</tspan><tspan x="74.6" y="0" class="st0 st1 st2"> − 9</tspan><tspan x="102.8" y="0" class="st0 st3 st2">abc</tspan><tspan x="128.8" y="0" class="st0 st1 st2"> + 27</tspan><tspan x="165.9" y="0" class="st0 st3 st2">a</tspan><tspan x="174.9" y="0" class="st0 st1 st2"> </tspan><tspan x="179.4" y="0" class="st0 st3 st2">d</tspan><tspan x="188.4" y="0" class="st0 st1 st2"> +</tspan></text>
<text transform="matrix(1 0 0 1 247.8011 19.4744)"><tspan x="0" y="0" class="st0 st1 st2">(2</tspan><tspan x="15" y="0" class="st0 st3 st2">b</tspan><tspan x="24" y="0" class="st0 st1 st2"> − 9</tspan><tspan x="52.1" y="0" class="st0 st3 st2">abc</tspan><tspan x="78.1" y="0" class="st0 st1 st2"> + 27</tspan><tspan x="115.3" y="0" class="st0 st3 st2">a</tspan><tspan x="124.3" y="0" class="st0 st1 st2"> </tspan><tspan x="128.8" y="0" class="st0 st3 st2">d</tspan><tspan x="137.8" y="0" class="st0 st1 st2">) − 4(</tspan><tspan x="177.9" y="0" class="st0 st3 st2">b</tspan><tspan x="186.9" y="0" class="st0 st1 st2"> − 3</tspan><tspan x="215.1" y="0" class="st0 st3 st2">ac</tspan><tspan x="232.1" y="0" class="st0 st1 st2">)</tspan></text>
<text transform="matrix(0.8107 0 0 1 235.6245 22.0994)" class="st0 st1 st4">√</text>
<line class="st5" x1="245.6" y1="0.4" x2="489.5" y2="0.4"/>
<text transform="matrix(1 0 0 1 271.0408 10.479)" class="st0 st1 st6">3</text>
<text transform="matrix(1 0 0 1 106.5295 10.479)" class="st0 st1 st6">3</text>
<text transform="matrix(1 0 0 1 484.9006 10.4795)" class="st0 st1 st6">3</text>
<text transform="matrix(1 0 0 1 434.9004 10.478)" class="st0 st1 st6">2</text>
<text transform="matrix(1 0 0 1 390.4389 10.4785)" class="st0 st1 st6">2</text>
<text transform="matrix(1 0 0 1 371.5294 10.479)" class="st0 st1 st6">2</text>
<text transform="matrix(1 0 0 1 206.8959 10.4795)" class="st0 st1 st6">2</text>
<text transform="matrix(1 0 0 1 60.2939 57.6962)"><tspan x="0" y="0" class="st0 st3 st2">q</tspan><tspan x="9" y="0" class="st0 st1 st2"> = 2</tspan><tspan x="37.2" y="0" class="st0 st3 st2">b</tspan><tspan x="46.2" y="0" class="st0 st1 st2"> − 9</tspan><tspan x="74.3" y="0" class="st0 st3 st2">abc</tspan><tspan x="100.3" y="0" class="st0 st1 st2"> + 27</tspan><tspan x="137.4" y="0" class="st0 st3 st2">a</tspan><tspan x="146.4" y="0" class="st0 st1 st2"> </tspan><tspan x="150.9" y="0" class="st0 st3 st2">d</tspan><tspan x="159.9" y="0" class="st0 st1 st2"> −</tspan></text>
<text transform="matrix(1 0 0 1 247.8011 57.6962)"><tspan x="0" y="0" class="st0 st1 st2">(2</tspan><tspan x="15" y="0" class="st0 st3 st2">b</tspan><tspan x="24" y="0" class="st0 st1 st2"> − 9</tspan><tspan x="52.1" y="0" class="st0 st3 st2">abc</tspan><tspan x="78.1" y="0" class="st0 st1 st2"> + 27</tspan><tspan x="115.3" y="0" class="st0 st3 st2">a</tspan><tspan x="124.3" y="0" class="st0 st1 st2"> </tspan><tspan x="128.8" y="0" class="st0 st3 st2">d</tspan><tspan x="137.8" y="0" class="st0 st1 st2">) − 4(</tspan><tspan x="177.9" y="0" class="st0 st3 st2">b</tspan><tspan x="186.9" y="0" class="st0 st1 st2"> − 3</tspan><tspan x="215.1" y="0" class="st0 st3 st2">ac</tspan><tspan x="232.1" y="0" class="st0 st1 st2">)</tspan></text>
<text transform="matrix(0.8107 0 0 1 235.6245 60.3212)" class="st0 st1 st4">√</text>
<line class="st5" x1="245.6" y1="38.6" x2="489.5" y2="38.6"/>
<text transform="matrix(1 0 0 1 271.0408 48.7007)" class="st0 st1 st6">3</text>
<text transform="matrix(1 0 0 1 106.5295 48.7007)" class="st0 st1 st6">3</text>
<text transform="matrix(1 0 0 1 484.9006 48.7012)" class="st0 st1 st6">3</text>
<text transform="matrix(1 0 0 1 434.9004 48.6998)" class="st0 st1 st6">2</text>
<text transform="matrix(1 0 0 1 390.4389 48.7002)" class="st0 st1 st6">2</text>
<text transform="matrix(1 0 0 1 371.5294 48.7007)" class="st0 st1 st6">2</text>
<text transform="matrix(1 0 0 1 206.8959 48.7012)" class="st0 st1 st6">2</text>
<text transform="matrix(1 0 0 1 56.7513 205.2166)" class="st0 st3 st2">x</text>
<text transform="matrix(1 0 0 1 76.4707 207.2166)" class="st0 st1 st2">=</text>
<text transform="matrix(1 0 0 1 93.7784 207.2166)" class="st0 st1 st2">−</text>
<text transform="matrix(1 0 0 1 117.2353 197.667)" class="st0 st3 st2">b</text>
<text transform="matrix(1 0 0 1 113.163 216.7666)"><tspan x="0" y="0" class="st0 st1 st2">3</tspan><tspan x="9" y="0" class="st0 st3 st2">a</tspan></text>
<line class="st7" x1="113.2" y1="201.3" x2="132.2" y2="201.3"/>
<text transform="matrix(1 0 0 1 138.5521 207.2166)" class="st0 st1 st2">+</text>
<text transform="matrix(1 0 0 1 159.8283 197.7327)"><tspan x="0" y="0" class="st0 st1 st2">1 + </tspan><tspan x="28.2" y="0" class="st0 st3 st2">i</tspan></text>
<text transform="matrix(1 0 0 1 177.258 216.2399)"><tspan x="0" y="0" class="st0 st1 st2">6</tspan><tspan x="9" y="0" class="st0 st3 st2">a</tspan></text>
<line class="st7" x1="155.1" y1="200.8" x2="214.9" y2="200.8"/>
<text transform="matrix(0.5653 0 0 1 220.9053 216.5405)" class="st0 st1 st8">√</text>
<text transform="matrix(1 0 0 1 224.4073 195.3116)" class="st0 st1 st9">3</text>
<text transform="matrix(1 0 0 1 235.2078 199.0101)" class="st0 st1 st10">1</text>
<text transform="matrix(1 0 0 1 235.2078 211.4662)" class="st0 st1 st10">2</text>
<line class="st11" x1="234.5" y1="201.1" x2="241.5" y2="201.1"/>
<text transform="matrix(1 0 0 1 245.3938 204.9541)" class="st0 st3 st2">p</text>
<line class="st7" x1="231.4" y1="183.8" x2="258.5" y2="183.8"/>
<text transform="matrix(1 0 0 1 63.8282 211.2528)" class="st0 st1 st6">2</text>
<text transform="matrix(1 0 0 1 56.7513 148.2936)" class="st0 st3 st2">x</text>
<text transform="matrix(1 0 0 1 76.4707 150.2936)" class="st0 st1 st2">=</text>
<text transform="matrix(1 0 0 1 93.7784 150.2936)" class="st0 st1 st2">−</text>
<text transform="matrix(1 0 0 1 117.2353 140.7439)" class="st0 st3 st2">b</text>
<text transform="matrix(1 0 0 1 113.163 159.8436)"><tspan x="0" y="0" class="st0 st1 st2">3</tspan><tspan x="9" y="0" class="st0 st3 st2">a</tspan></text>
<line class="st7" x1="113.2" y1="144.4" x2="132.2" y2="144.4"/>
<text transform="matrix(1 0 0 1 138.5521 150.2936)" class="st0 st1 st2">−</text>
<text transform="matrix(1 0 0 1 159.8283 140.8096)" class="st0 st1 st2">1</text>
<text transform="matrix(1 0 0 1 155.0861 159.3168)"><tspan x="0" y="0" class="st0 st1 st2">3</tspan><tspan x="9" y="0" class="st0 st3 st2">a</tspan></text>
<line class="st7" x1="155.1" y1="143.8" x2="174.1" y2="143.8"/>
<text transform="matrix(0.5653 0 0 1 175.1089 159.6174)" class="st0 st1 st8">√</text>
<text transform="matrix(1 0 0 1 178.611 138.3885)" class="st0 st1 st9">3</text>
<text transform="matrix(1 0 0 1 189.4114 142.087)" class="st0 st1 st10">1</text>
<text transform="matrix(1 0 0 1 189.4114 154.5431)" class="st0 st1 st10">2</text>
<line class="st11" x1="188.7" y1="144.2" x2="195.7" y2="144.2"/>
<text transform="matrix(1 0 0 1 199.5974 148.0311)" class="st0 st3 st2">p</text>
<text transform="matrix(1 0 0 1 221.2535 150.2936)" class="st0 st1 st2">−</text>
<text transform="matrix(1 0 0 1 241.5296 140.8096)" class="st0 st1 st2">1</text>
<text transform="matrix(1 0 0 1 236.7874 159.3168)"><tspan x="0" y="0" class="st0 st1 st2">3</tspan><tspan x="9" y="0" class="st0 st3 st2">a</tspan></text>
<line class="st7" x1="236.8" y1="143.8" x2="255.8" y2="143.8"/>
<text transform="matrix(0.5653 0 0 1 256.8102 159.6174)" class="st0 st1 st8">√</text>
<text transform="matrix(1 0 0 1 260.3123 138.3885)" class="st0 st1 st9">3</text>
<text transform="matrix(1 0 0 1 271.1128 142.087)" class="st0 st1 st10">1</text>
<text transform="matrix(1 0 0 1 271.1128 154.5431)" class="st0 st1 st10">2</text>
<line class="st7" x1="270.4" y1="144.2" x2="277.4" y2="144.2"/>
<text transform="matrix(1 0 0 1 281.2988 148.0311)" class="st0 st3 st2">q</text>
<line class="st7" x1="185.6" y1="126.8" x2="212.7" y2="126.8"/>
<line class="st7" x1="266.8" y1="126.8" x2="294" y2="126.8"/>
<text transform="matrix(1 0 0 1 63.8282 154.3297)" class="st0 st1 st6">1</text>
<text transform="matrix(0.912 0 0 1 193.8506 199.0955)" class="st0 st1 st12">√</text>
<text transform="matrix(1 0 0 1 204.0726 197.366)" class="st0 st1 st2">3</text>
<line class="st7" x1="203.6" y1="181.1" x2="214.9" y2="181.1"/>
<text transform="matrix(1 0 0 1 263.8915 207.2166)" class="st0 st1 st2">+</text>
<text transform="matrix(1 0 0 1 285.1677 197.7327)"><tspan x="0" y="0" class="st0 st1 st2">1 − </tspan><tspan x="28.2" y="0" class="st0 st3 st2">i</tspan></text>
<text transform="matrix(1 0 0 1 302.5974 216.2399)"><tspan x="0" y="0" class="st0 st1 st2">6</tspan><tspan x="9" y="0" class="st0 st3 st2">a</tspan></text>
<line class="st7" x1="280.4" y1="200.8" x2="340.3" y2="200.8"/>
<text transform="matrix(0.5653 0 0 1 346.2446 216.5405)" class="st0 st1 st8">√</text>
<text transform="matrix(1 0 0 1 349.7467 195.3116)" class="st0 st1 st9">3</text>
<text transform="matrix(1 0 0 1 360.5472 199.0101)" class="st0 st1 st10">1</text>
<text transform="matrix(1 0 0 1 360.5472 211.4662)" class="st0 st1 st10">2</text>
<line class="st7" x1="359.9" y1="201.1" x2="366.9" y2="201.1"/>
<text transform="matrix(1 0 0 1 370.7332 204.9541)" class="st0 st3 st2">q</text>
<line class="st7" x1="356.7" y1="183.8" x2="383.9" y2="183.8"/>
<text transform="matrix(0.912 0 0 1 319.1899 199.0955)" class="st0 st1 st12">√</text>
<text transform="matrix(1 0 0 1 329.412 197.366)" class="st0 st1 st2">3</text>
<line class="st7" x1="329" y1="181.1" x2="340.3" y2="181.1"/>
<text transform="matrix(1 0 0 1 56.7513 258.1578)" class="st0 st3 st2">x</text>
<text transform="matrix(1 0 0 1 76.4707 260.1578)" class="st0 st1 st2">=</text>
<text transform="matrix(1 0 0 1 93.7784 260.1578)" class="st0 st1 st2">−</text>
<text transform="matrix(1 0 0 1 117.2353 250.6082)" class="st0 st3 st2">b</text>
<text transform="matrix(1 0 0 1 113.163 269.7078)"><tspan x="0" y="0" class="st0 st1 st2">3</tspan><tspan x="9" y="0" class="st0 st3 st2">a</tspan></text>
<line class="st7" x1="113.2" y1="254.2" x2="132.2" y2="254.2"/>
<text transform="matrix(1 0 0 1 138.5521 260.1578)" class="st0 st1 st2">+</text>
<text transform="matrix(1 0 0 1 159.8283 250.6739)"><tspan x="0" y="0" class="st0 st1 st2">1 − </tspan><tspan x="28.2" y="0" class="st0 st3 st2">i</tspan></text>
<text transform="matrix(1 0 0 1 177.258 269.1811)"><tspan x="0" y="0" class="st0 st1 st2">6</tspan><tspan x="9" y="0" class="st0 st3 st2">a</tspan></text>
<line class="st7" x1="155.1" y1="253.7" x2="214.9" y2="253.7"/>
<text transform="matrix(0.5653 0 0 1 220.9053 269.4817)" class="st0 st1 st8">√</text>
<text transform="matrix(1 0 0 1 224.4073 248.2528)" class="st0 st1 st9">3</text>
<text transform="matrix(1 0 0 1 235.2078 251.9513)" class="st0 st1 st10">1</text>
<text transform="matrix(1 0 0 1 235.2078 264.4073)" class="st0 st1 st10">2</text>
<line class="st7" x1="234.5" y1="254" x2="241.5" y2="254"/>
<text transform="matrix(1 0 0 1 245.3938 257.8953)" class="st0 st3 st2">p</text>
<line class="st7" x1="231.4" y1="236.7" x2="258.5" y2="236.7"/>
<text transform="matrix(1 0 0 1 63.8282 264.1939)" class="st0 st1 st6">3</text>
<text transform="matrix(0.912 0 0 1 193.8506 252.0367)" class="st0 st1 st12">√</text>
<text transform="matrix(1 0 0 1 204.0726 250.3072)" class="st0 st1 st2">3</text>
<line class="st7" x1="203.6" y1="234" x2="214.9" y2="234"/>
<text transform="matrix(1 0 0 1 263.8915 260.1578)" class="st0 st1 st2">+</text>
<text transform="matrix(1 0 0 1 285.1677 250.6739)"><tspan x="0" y="0" class="st0 st1 st2">1 + </tspan><tspan x="28.2" y="0" class="st0 st3 st2">i</tspan></text>
<text transform="matrix(1 0 0 1 302.5974 269.1811)"><tspan x="0" y="0" class="st0 st1 st2">6</tspan><tspan x="9" y="0" class="st0 st3 st2">a</tspan></text>
<line class="st7" x1="280.4" y1="253.7" x2="340.3" y2="253.7"/>
<text transform="matrix(0.5653 0 0 1 346.2446 269.4817)" class="st0 st1 st8">√</text>
<text transform="matrix(1 0 0 1 349.7467 248.2528)" class="st0 st1 st9">3</text>
<text transform="matrix(1 0 0 1 360.5472 251.9513)" class="st0 st1 st10">1</text>
<text transform="matrix(1 0 0 1 360.5472 264.4073)" class="st0 st1 st10">2</text>
<line class="st7" x1="359.9" y1="254" x2="366.9" y2="254"/>
<text transform="matrix(1 0 0 1 370.7332 257.8953)" class="st0 st3 st2">q</text>
<line class="st7" x1="356.7" y1="236.7" x2="383.9" y2="236.7"/>
<text transform="matrix(0.912 0 0 1 319.1899 252.0367)" class="st0 st1 st12">√</text>
<text transform="matrix(1 0 0 1 329.412 250.3072)" class="st0 st1 st2">3</text>
<line class="st7" x1="329" y1="234" x2="340.3" y2="234"/>
<text transform="matrix(1 0 0 1 -2.212524e-04 107.2572)" class="st0 st1 st2">The three solutions are:</text>
</svg>
